<svg xmlns="http://www.w3.org/2000/svg" xmlns:xlink="http://www.w3.org/1999/xlink"
  viewBox="-144 -219 783 461.25" width="783" height="461.25"
  style="background:#fff; font-family:-apple-system,BlinkMacSystemFont,'Segoe UI',Roboto,sans-serif;">
<defs></defs>
<rect x="-144" y="-219" width="783" height="461.25" fill="#fff"/>
<rect x="-60" y="-18" width="120" height="36" rx="8" fill="#EFF0F0" stroke="none"/><text x="0" y="6" text-anchor="middle" font-size="16" font-weight="bold" fill="#333" font-family="-apple-system,BlinkMacSystemFont,sans-serif">产品结构图</text><path d="M60,0 C150,0 150,-120 240,-120" fill="none" stroke="#A287E1" stroke-width="2"/><rect x="180" y="-135" width="80" height="30" rx="6" fill="#fafafa" stroke="none"/><text x="220" y="-115" text-anchor="middle" font-size="13" fill="#333" font-family="-apple-system,BlinkMacSystemFont,sans-serif">需求分析</text><path d="M260,-120 C310,-120 310,-120 360,-120" fill="none" stroke="#A287E1" stroke-width="2"/><rect x="360" y="-135" width="143" height="30" rx="6" fill="#fafafa" stroke="none"/><text x="431.5" y="-115" text-anchor="middle" font-size="13" fill="#333" font-family="-apple-system,BlinkMacSystemFont,sans-serif">陈述背景和一些信息</text><path d="M60,0 C150,0 150,-40 240,-40" fill="none" stroke="#DFB85D" stroke-width="2"/><rect x="180" y="-55" width="104" height="30" rx="6" fill="#fafafa" stroke="none"/><text x="232" y="-35" text-anchor="middle" font-size="13" fill="#333" font-family="-apple-system,BlinkMacSystemFont,sans-serif">初步方案设计</text><path d="M284,-40 C322,-40 322,-80 360,-80" fill="none" stroke="#DFB85D" stroke-width="2"/><rect x="360" y="-95" width="80" height="30" rx="6" fill="#fafafa" stroke="none"/><text x="400" y="-75" text-anchor="middle" font-size="13" fill="#333" font-family="-apple-system,BlinkMacSystemFont,sans-serif">业务设计</text><path d="M284,-40 C322,-40 322,-40 360,-40" fill="none" stroke="#DFB85D" stroke-width="2"/><rect x="360" y="-55" width="80" height="30" rx="6" fill="#fafafa" stroke="none"/><text x="400" y="-35" text-anchor="middle" font-size="13" fill="#333" font-family="-apple-system,BlinkMacSystemFont,sans-serif">应用设计</text><path d="M284,-40 C322,-40 322,0 360,0" fill="none" stroke="#DFB85D" stroke-width="2"/><rect x="360" y="-15" width="117" height="30" rx="6" fill="#fafafa" stroke="none"/><text x="418.5" y="5" text-anchor="middle" font-size="13" fill="#333" font-family="-apple-system,BlinkMacSystemFont,sans-serif">相关的方案推演</text><path d="M60,0 C150,0 150,40 240,40" fill="none" stroke="#77C386" stroke-width="2"/><rect x="180" y="25" width="80" height="30" rx="6" fill="#fafafa" stroke="none"/><text x="220" y="45" text-anchor="middle" font-size="13" fill="#333" font-family="-apple-system,BlinkMacSystemFont,sans-serif">功能结构</text><path d="M260,40 C310,40 310,40 360,40" fill="none" stroke="#77C386" stroke-width="2"/><rect x="360" y="25" width="156" height="30" rx="6" fill="#fafafa" stroke="none"/><text x="438" y="45" text-anchor="middle" font-size="13" fill="#333" font-family="-apple-system,BlinkMacSystemFont,sans-serif">功能点及其作用、价值</text><path d="M60,0 C150,0 150,100 240,100" fill="none" stroke="#E48484" stroke-width="2"/><rect x="180" y="85" width="80" height="30" rx="6" fill="#fafafa" stroke="none"/><text x="220" y="105" text-anchor="middle" font-size="13" fill="#333" font-family="-apple-system,BlinkMacSystemFont,sans-serif">信息结构</text><path d="M260,100 C310,100 310,80 360,80" fill="none" stroke="#E48484" stroke-width="2"/><rect x="360" y="65" width="169" height="30" rx="6" fill="#fafafa" stroke="none"/><text x="444.5" y="85" text-anchor="middle" font-size="13" fill="#333" font-family="-apple-system,BlinkMacSystemFont,sans-serif">模块、页面、字段的信息</text><path d="M260,100 C310,100 310,120 360,120" fill="none" stroke="#E48484" stroke-width="2"/><rect x="360" y="105" width="195" height="30" rx="6" fill="#fafafa" stroke="none"/><text x="457.5" y="125" text-anchor="middle" font-size="13" fill="#333" font-family="-apple-system,BlinkMacSystemFont,sans-serif">具体字段的描述和限制约束等</text>
</svg>