<svg xmlns="http://www.w3.org/2000/svg" xmlns:xlink="http://www.w3.org/1999/xlink"
  viewBox="-152 -899 1671 1798" width="1671" height="1798"
  style="background:#fff; font-family:-apple-system,BlinkMacSystemFont,'Segoe UI',Roboto,sans-serif;">
<defs></defs>
<rect x="-152" y="-899" width="1671" height="1798" fill="#fff"/>
<rect x="-68" y="-18" width="136" height="36" rx="8" fill="#EFF0F0" stroke="none"/><text x="0" y="6" text-anchor="middle" font-size="16" font-weight="bold" fill="#333" font-family="-apple-system,BlinkMacSystemFont,sans-serif">薪酬范围方面</text><path d="M68,0 C158,0 158,-740 248,-740" fill="none" stroke="#E48484" stroke-width="2"/><rect x="180" y="-755" width="149.76" height="30" rx="6" fill="#fafafa" stroke="none"/><text x="254.88" y="-735" text-anchor="middle" font-size="13" fill="#333" font-family="-apple-system,BlinkMacSystemFont,sans-serif">常见/常听的一些问题</text><path d="M329.76,-740 C344.88,-740 344.88,-800 360,-800" fill="none" stroke="#E48484" stroke-width="2"/><rect x="360" y="-815" width="299" height="30" rx="6" fill="#fafafa" stroke="none"/><text x="509.5" y="-795" text-anchor="middle" font-size="13" fill="#333" font-family="-apple-system,BlinkMacSystemFont,sans-serif">初、中、高级产品经理的薪酬大概是怎么样的？</text><path d="M329.76,-740 C344.88,-740 344.88,-760 360,-760" fill="none" stroke="#E48484" stroke-width="2"/><rect x="360" y="-775" width="273" height="30" rx="6" fill="#fafafa" stroke="none"/><text x="496.5" y="-755" text-anchor="middle" font-size="13" fill="#333" font-family="-apple-system,BlinkMacSystemFont,sans-serif">哪些因素是会直接影响产品经理薪酬高低？</text><path d="M329.76,-740 C344.88,-740 344.88,-720 360,-720" fill="none" stroke="#E48484" stroke-width="2"/><rect x="360" y="-735" width="312.52" height="30" rx="6" fill="#fafafa" stroke="none"/><text x="516.26" y="-715" text-anchor="middle" font-size="13" fill="#333" font-family="-apple-system,BlinkMacSystemFont,sans-serif">工作XX年的产品经理应该拿多少才算是中等偏上？</text><path d="M329.76,-740 C344.88,-740 344.88,-680 360,-680" fill="none" stroke="#E48484" stroke-width="2"/><rect x="360" y="-695" width="208.51999999999998" height="30" rx="6" fill="#fafafa" stroke="none"/><text x="464.26" y="-675" text-anchor="middle" font-size="13" fill="#333" font-family="-apple-system,BlinkMacSystemFont,sans-serif">XX方向的产品经理能拿高薪吗？</text><path d="M68,0 C158,0 158,80 248,80" fill="none" stroke="#6F81DB" stroke-width="2"/><rect x="180" y="65" width="143" height="30" rx="6" fill="#EFF0F0" stroke="none"/><text x="251.5" y="85" text-anchor="middle" font-size="13" fill="#333" font-family="-apple-system,BlinkMacSystemFont,sans-serif">我的一些观察和解答</text><path d="M323,80 C341.5,80 341.5,-220 360,-220" fill="none" stroke="#6F81DB" stroke-width="2"/><rect x="360" y="-235" width="585.52" height="30" rx="6" fill="#fafafa" stroke="none"/><text x="652.76" y="-215" text-anchor="middle" font-size="13" fill="#333" font-family="-apple-system,BlinkMacSystemFont,sans-serif">1.产品经理的薪酬多少和很多因素有关系，要确认薪酬的范围，核心是要确认影响的因素有哪些？</text><path d="M945.52,-220 C742.76,-220 742.76,-620 540,-620" fill="none" stroke="#6F81DB" stroke-width="2"/><rect x="540" y="-635" width="80" height="30" rx="6" fill="#fafafa" stroke="none"/><text x="580" y="-615" text-anchor="middle" font-size="13" fill="#333" font-family="-apple-system,BlinkMacSystemFont,sans-serif">求职城市</text><path d="M620,-620 C670,-620 670,-640 720,-640" fill="none" stroke="#6F81DB" stroke-width="2"/><rect x="720" y="-655" width="80" height="30" rx="6" fill="#fafafa" stroke="none"/><text x="760" y="-635" text-anchor="middle" font-size="13" fill="#333" font-family="-apple-system,BlinkMacSystemFont,sans-serif">一线</text><path d="M620,-620 C670,-620 670,-600 720,-600" fill="none" stroke="#6F81DB" stroke-width="2"/><rect x="720" y="-615" width="80" height="30" rx="6" fill="#fafafa" stroke="none"/><text x="760" y="-595" text-anchor="middle" font-size="13" fill="#333" font-family="-apple-system,BlinkMacSystemFont,sans-serif">二线</text><path d="M945.52,-220 C742.76,-220 742.76,-520 540,-520" fill="none" stroke="#6F81DB" stroke-width="2"/><rect x="540" y="-535" width="91" height="30" rx="6" fill="#fafafa" stroke="none"/><text x="585.5" y="-515" text-anchor="middle" font-size="13" fill="#333" font-family="-apple-system,BlinkMacSystemFont,sans-serif">面试的岗位</text><path d="M631,-520 C675.5,-520 675.5,-560 720,-560" fill="none" stroke="#6F81DB" stroke-width="2"/><rect x="720" y="-575" width="80" height="30" rx="6" fill="#fafafa" stroke="none"/><text x="760" y="-555" text-anchor="middle" font-size="13" fill="#333" font-family="-apple-system,BlinkMacSystemFont,sans-serif">大厂</text><path d="M631,-520 C675.5,-520 675.5,-520 720,-520" fill="none" stroke="#6F81DB" stroke-width="2"/><rect x="720" y="-535" width="80" height="30" rx="6" fill="#fafafa" stroke="none"/><text x="760" y="-515" text-anchor="middle" font-size="13" fill="#333" font-family="-apple-system,BlinkMacSystemFont,sans-serif">中厂</text><path d="M631,-520 C675.5,-520 675.5,-480 720,-480" fill="none" stroke="#6F81DB" stroke-width="2"/><rect x="720" y="-495" width="80" height="30" rx="6" fill="#fafafa" stroke="none"/><text x="760" y="-475" text-anchor="middle" font-size="13" fill="#333" font-family="-apple-system,BlinkMacSystemFont,sans-serif">小厂</text><path d="M945.52,-220 C742.76,-220 742.76,-380 540,-380" fill="none" stroke="#6F81DB" stroke-width="2"/><rect x="540" y="-395" width="80" height="30" rx="6" fill="#fafafa" stroke="none"/><text x="580" y="-375" text-anchor="middle" font-size="13" fill="#333" font-family="-apple-system,BlinkMacSystemFont,sans-serif">学历</text><path d="M620,-380 C670,-380 670,-440 720,-440" fill="none" stroke="#6F81DB" stroke-width="2"/><rect x="720" y="-455" width="80" height="30" rx="6" fill="#fafafa" stroke="none"/><text x="760" y="-435" text-anchor="middle" font-size="13" fill="#333" font-family="-apple-system,BlinkMacSystemFont,sans-serif">大专</text><path d="M620,-380 C670,-380 670,-400 720,-400" fill="none" stroke="#6F81DB" stroke-width="2"/><rect x="720" y="-415" width="80" height="30" rx="6" fill="#fafafa" stroke="none"/><text x="760" y="-395" text-anchor="middle" font-size="13" fill="#333" font-family="-apple-system,BlinkMacSystemFont,sans-serif">本科</text><path d="M620,-380 C670,-380 670,-360 720,-360" fill="none" stroke="#6F81DB" stroke-width="2"/><rect x="720" y="-375" width="80" height="30" rx="6" fill="#fafafa" stroke="none"/><text x="760" y="-355" text-anchor="middle" font-size="13" fill="#333" font-family="-apple-system,BlinkMacSystemFont,sans-serif">硕士</text><path d="M620,-380 C670,-380 670,-320 720,-320" fill="none" stroke="#6F81DB" stroke-width="2"/><rect x="720" y="-335" width="80" height="30" rx="6" fill="#fafafa" stroke="none"/><text x="760" y="-315" text-anchor="middle" font-size="13" fill="#333" font-family="-apple-system,BlinkMacSystemFont,sans-serif">985/211</text><path d="M945.52,-220 C742.76,-220 742.76,-280 540,-280" fill="none" stroke="#6F81DB" stroke-width="2"/><rect x="540" y="-295" width="80" height="30" rx="6" fill="#fafafa" stroke="none"/><text x="580" y="-275" text-anchor="middle" font-size="13" fill="#333" font-family="-apple-system,BlinkMacSystemFont,sans-serif">工作年限</text><path d="M945.52,-220 C742.76,-220 742.76,-200 540,-200" fill="none" stroke="#6F81DB" stroke-width="2"/><rect x="540" y="-215" width="80" height="30" rx="6" fill="#fafafa" stroke="none"/><text x="580" y="-195" text-anchor="middle" font-size="13" fill="#333" font-family="-apple-system,BlinkMacSystemFont,sans-serif">岗位方向</text><path d="M620,-200 C670,-200 670,-240 720,-240" fill="none" stroke="#6F81DB" stroke-width="2"/><rect x="720" y="-255" width="110.75999999999999" height="30" rx="6" fill="#fafafa" stroke="none"/><text x="775.38" y="-235" text-anchor="middle" font-size="13" fill="#333" font-family="-apple-system,BlinkMacSystemFont,sans-serif">上升期/下降期</text><path d="M620,-200 C670,-200 670,-200 720,-200" fill="none" stroke="#6F81DB" stroke-width="2"/><rect x="720" y="-215" width="110.75999999999999" height="30" rx="6" fill="#fafafa" stroke="none"/><text x="775.38" y="-195" text-anchor="middle" font-size="13" fill="#333" font-family="-apple-system,BlinkMacSystemFont,sans-serif">稀缺性/满大街</text><path d="M620,-200 C670,-200 670,-160 720,-160" fill="none" stroke="#6F81DB" stroke-width="2"/><rect x="720" y="-175" width="201.76" height="30" rx="6" fill="#fafafa" stroke="none"/><text x="820.88" y="-155" text-anchor="middle" font-size="13" fill="#333" font-family="-apple-system,BlinkMacSystemFont,sans-serif">看中产品能力/不看中产品能力</text><path d="M945.52,-220 C742.76,-220 742.76,-120 540,-120" fill="none" stroke="#6F81DB" stroke-width="2"/><rect x="540" y="-135" width="117" height="30" rx="6" fill="#fafafa" stroke="none"/><text x="598.5" y="-115" text-anchor="middle" font-size="13" fill="#333" font-family="-apple-system,BlinkMacSystemFont,sans-serif">过往的薪酬情况</text><path d="M945.52,-220 C742.76,-220 742.76,-60 540,-60" fill="none" stroke="#6F81DB" stroke-width="2"/><rect x="540" y="-75" width="117" height="30" rx="6" fill="#fafafa" stroke="none"/><text x="598.5" y="-55" text-anchor="middle" font-size="13" fill="#333" font-family="-apple-system,BlinkMacSystemFont,sans-serif">面试的表现情况</text><path d="M657,-60 C688.5,-60 688.5,-80 720,-80" fill="none" stroke="#6F81DB" stroke-width="2"/><rect x="720" y="-95" width="80" height="30" rx="6" fill="#fafafa" stroke="none"/><text x="760" y="-75" text-anchor="middle" font-size="13" fill="#333" font-family="-apple-system,BlinkMacSystemFont,sans-serif">面试定级</text><path d="M657,-60 C688.5,-60 688.5,-40 720,-40" fill="none" stroke="#6F81DB" stroke-width="2"/><rect x="720" y="-55" width="98.8" height="30" rx="6" fill="#fafafa" stroke="none"/><text x="769.4" y="-35" text-anchor="middle" font-size="13" fill="#333" font-family="-apple-system,BlinkMacSystemFont,sans-serif">Offer谈判等</text><path d="M945.52,-220 C742.76,-220 742.76,40 540,40" fill="none" stroke="#6F81DB" stroke-width="2"/><rect x="540" y="25" width="117" height="30" rx="6" fill="#fafafa" stroke="none"/><text x="598.5" y="45" text-anchor="middle" font-size="13" fill="#333" font-family="-apple-system,BlinkMacSystemFont,sans-serif">行业的整体情况</text><path d="M657,40 C688.5,40 688.5,0 720,0" fill="none" stroke="#6F81DB" stroke-width="2"/><rect x="720" y="-15" width="80" height="30" rx="6" fill="#fafafa" stroke="none"/><text x="760" y="5" text-anchor="middle" font-size="13" fill="#333" font-family="-apple-system,BlinkMacSystemFont,sans-serif">火热期</text><path d="M657,40 C688.5,40 688.5,40 720,40" fill="none" stroke="#6F81DB" stroke-width="2"/><rect x="720" y="25" width="80" height="30" rx="6" fill="#fafafa" stroke="none"/><text x="760" y="45" text-anchor="middle" font-size="13" fill="#333" font-family="-apple-system,BlinkMacSystemFont,sans-serif">降温期</text><path d="M657,40 C688.5,40 688.5,80 720,80" fill="none" stroke="#6F81DB" stroke-width="2"/><rect x="720" y="65" width="80" height="30" rx="6" fill="#fafafa" stroke="none"/><text x="760" y="85" text-anchor="middle" font-size="13" fill="#333" font-family="-apple-system,BlinkMacSystemFont,sans-serif">寒冬期</text><path d="M945.52,-220 C742.76,-220 742.76,160 540,160" fill="none" stroke="#6F81DB" stroke-width="2"/><rect x="540" y="145" width="110.75999999999999" height="30" rx="6" fill="#fafafa" stroke="none"/><text x="595.38" y="165" text-anchor="middle" font-size="13" fill="#333" font-family="-apple-system,BlinkMacSystemFont,sans-serif">工作时长/强度</text><path d="M650.76,160 C685.38,160 685.38,120 720,120" fill="none" stroke="#6F81DB" stroke-width="2"/><rect x="720" y="105" width="80" height="30" rx="6" fill="#fafafa" stroke="none"/><text x="760" y="125" text-anchor="middle" font-size="13" fill="#333" font-family="-apple-system,BlinkMacSystemFont,sans-serif">大小周</text><path d="M650.76,160 C685.38,160 685.38,160 720,160" fill="none" stroke="#6F81DB" stroke-width="2"/><rect x="720" y="145" width="80" height="30" rx="6" fill="#fafafa" stroke="none"/><text x="760" y="165" text-anchor="middle" font-size="13" fill="#333" font-family="-apple-system,BlinkMacSystemFont,sans-serif">五险一金</text><path d="M650.76,160 C685.38,160 685.38,200 720,200" fill="none" stroke="#6F81DB" stroke-width="2"/><rect x="720" y="185" width="80" height="30" rx="6" fill="#fafafa" stroke="none"/><text x="760" y="205" text-anchor="middle" font-size="13" fill="#333" font-family="-apple-system,BlinkMacSystemFont,sans-serif">其他补贴</text><path d="M323,80 C341.5,80 341.5,260 360,260" fill="none" stroke="#6F81DB" stroke-width="2"/><rect x="360" y="245" width="416.52" height="30" rx="6" fill="#fafafa" stroke="none"/><text x="568.26" y="265" text-anchor="middle" font-size="13" fill="#333" font-family="-apple-system,BlinkMacSystemFont,sans-serif">2.一些大厂的薪酬参考，可以看一些社区或者网站，知道大概的参考</text><path d="M776.52,260 C658.26,260 658.26,240 540,240" fill="none" stroke="#6F81DB" stroke-width="2"/><rect x="540" y="225" width="167.96" height="30" rx="6" fill="#fafafa" stroke="none"/><text x="623.98" y="245" text-anchor="middle" font-size="13" fill="#333" font-family="-apple-system,BlinkMacSystemFont,sans-serif">https://duibiao.info/</text><path d="M776.52,260 C658.26,260 658.26,280 540,280" fill="none" stroke="#6F81DB" stroke-width="2"/><rect x="540" y="265" width="147.68000000000004" height="30" rx="6" fill="#fafafa" stroke="none"/><text x="613.84" y="285" text-anchor="middle" font-size="13" fill="#333" font-family="-apple-system,BlinkMacSystemFont,sans-serif">https://maimai.cn/</text><path d="M323,80 C341.5,80 341.5,380 360,380" fill="none" stroke="#6F81DB" stroke-width="2"/><rect x="360" y="365" width="507.52" height="30" rx="6" fill="#fafafa" stroke="none"/><text x="613.76" y="385" text-anchor="middle" font-size="13" fill="#333" font-family="-apple-system,BlinkMacSystemFont,sans-serif">3.大厂的薪酬只适合在大厂之间做参考，放在其他行业、其他公司是不具有参考性的</text><path d="M867.52,380 C703.76,380 703.76,360 540,360" fill="none" stroke="#6F81DB" stroke-width="2"/><rect x="540" y="345" width="80" height="30" rx="6" fill="#fafafa" stroke="none"/><text x="580" y="365" text-anchor="middle" font-size="13" fill="#333" font-family="-apple-system,BlinkMacSystemFont,sans-serif">校招产品</text><path d="M620,360 C670,360 670,320 720,320" fill="none" stroke="#6F81DB" stroke-width="2"/><rect x="720" y="305" width="80" height="30" rx="6" fill="#fafafa" stroke="none"/><text x="760" y="325" text-anchor="middle" font-size="13" fill="#333" font-family="-apple-system,BlinkMacSystemFont,sans-serif"></text><path d="M620,360 C670,360 670,380 720,380" fill="none" stroke="#6F81DB" stroke-width="2"/><rect x="720" y="365" width="390" height="30" rx="6" fill="#fafafa" stroke="none"/><text x="915" y="385" text-anchor="middle" font-size="13" fill="#333" font-family="-apple-system,BlinkMacSystemFont,sans-serif">校招的竞争压力巨大，网络上曝光的薪资大多数都是幸存者偏差</text><path d="M1110,380 C1005,380 1005,360 900,360" fill="none" stroke="#6F81DB" stroke-width="2"/><rect x="900" y="345" width="359.32" height="30" rx="6" fill="#fafafa" stroke="none"/><text x="1079.66" y="365" text-anchor="middle" font-size="13" fill="#333" font-family="-apple-system,BlinkMacSystemFont,sans-serif">阿里菜鸟，100多个产品经理，每年社招就加5-10个人左右</text><path d="M1110,380 C1005,380 1005,400 900,400" fill="none" stroke="#6F81DB" stroke-width="2"/><rect x="900" y="385" width="196.04" height="30" rx="6" fill="#fafafa" stroke="none"/><text x="998.02" y="405" text-anchor="middle" font-size="13" fill="#333" font-family="-apple-system,BlinkMacSystemFont,sans-serif">上万份简历里面选择5-10个人</text><path d="M867.52,380 C703.76,380 703.76,440 540,440" fill="none" stroke="#6F81DB" stroke-width="2"/><rect x="540" y="425" width="80" height="30" rx="6" fill="#fafafa" stroke="none"/><text x="580" y="445" text-anchor="middle" font-size="13" fill="#333" font-family="-apple-system,BlinkMacSystemFont,sans-serif">社招产品</text><path d="M620,440 C670,440 670,440 720,440" fill="none" stroke="#6F81DB" stroke-width="2"/><rect x="720" y="425" width="715" height="30" rx="6" fill="#fafafa" stroke="none"/><text x="1077.5" y="445" text-anchor="middle" font-size="13" fill="#333" font-family="-apple-system,BlinkMacSystemFont,sans-serif">一般都是基于面试定级、过往薪资等来综合考虑，但是整体来说给的肯定是比中小厂多很多的，同时对应的压力也会很大</text><path d="M323,80 C341.5,80 341.5,640 360,640" fill="none" stroke="#6F81DB" stroke-width="2"/><rect x="360" y="625" width="377.52" height="30" rx="6" fill="#fafafa" stroke="none"/><text x="548.76" y="645" text-anchor="middle" font-size="13" fill="#333" font-family="-apple-system,BlinkMacSystemFont,sans-serif">4.如果就是想要知道一个大概的范围区间，可以提供一下吗？</text><path d="M737.52,640 C638.76,640 638.76,480 540,480" fill="none" stroke="#6F81DB" stroke-width="2"/><rect x="540" y="465" width="377" height="30" rx="6" fill="#fafafa" stroke="none"/><text x="728.5" y="485" text-anchor="middle" font-size="13" fill="#333" font-family="-apple-system,BlinkMacSystemFont,sans-serif">以我过往的工作经历为参考，提供一些大概的参考数据给大家</text><path d="M737.52,640 C638.76,640 638.76,580 540,580" fill="none" stroke="#6F81DB" stroke-width="2"/><rect x="540" y="565" width="811.1999999999998" height="30" rx="6" fill="#fafafa" stroke="none"/><text x="945.5999999999999" y="585" text-anchor="middle" font-size="13" fill="#333" font-family="-apple-system,BlinkMacSystemFont,sans-serif">深圳/上海/北京/杭州、普通本科，B端产品经理（供应链/SaaS/电商），小厂，面试表现还OK，整体能力还不错，2023年或者2024年求职</text><path d="M1351.1999999999998,580 C1035.6,580 1035.6,520 720,520" fill="none" stroke="#6F81DB" stroke-width="2"/><rect x="720" y="505" width="97.75999999999999" height="30" rx="6" fill="#fafafa" stroke="none"/><text x="768.88" y="525" text-anchor="middle" font-size="13" fill="#333" font-family="-apple-system,BlinkMacSystemFont,sans-serif">刚毕业第1年</text><path d="M817.76,520 C858.88,520 858.88,520 900,520" fill="none" stroke="#6F81DB" stroke-width="2"/><rect x="900" y="505" width="80" height="30" rx="6" fill="#fafafa" stroke="none"/><text x="940" y="525" text-anchor="middle" font-size="13" fill="#333" font-family="-apple-system,BlinkMacSystemFont,sans-serif">7-10K</text><path d="M1351.1999999999998,580 C1035.6,580 1035.6,560 720,560" fill="none" stroke="#6F81DB" stroke-width="2"/><rect x="720" y="545" width="80" height="30" rx="6" fill="#fafafa" stroke="none"/><text x="760" y="565" text-anchor="middle" font-size="13" fill="#333" font-family="-apple-system,BlinkMacSystemFont,sans-serif">1-2年</text><path d="M800,560 C850,560 850,560 900,560" fill="none" stroke="#6F81DB" stroke-width="2"/><rect x="900" y="545" width="80" height="30" rx="6" fill="#fafafa" stroke="none"/><text x="940" y="565" text-anchor="middle" font-size="13" fill="#333" font-family="-apple-system,BlinkMacSystemFont,sans-serif">8-12K</text><path d="M1351.1999999999998,580 C1035.6,580 1035.6,600 720,600" fill="none" stroke="#6F81DB" stroke-width="2"/><rect x="720" y="585" width="80" height="30" rx="6" fill="#fafafa" stroke="none"/><text x="760" y="605" text-anchor="middle" font-size="13" fill="#333" font-family="-apple-system,BlinkMacSystemFont,sans-serif">3-4年</text><path d="M800,600 C850,600 850,600 900,600" fill="none" stroke="#6F81DB" stroke-width="2"/><rect x="900" y="585" width="80" height="30" rx="6" fill="#fafafa" stroke="none"/><text x="940" y="605" text-anchor="middle" font-size="13" fill="#333" font-family="-apple-system,BlinkMacSystemFont,sans-serif">15-20K</text><path d="M1351.1999999999998,580 C1035.6,580 1035.6,640 720,640" fill="none" stroke="#6F81DB" stroke-width="2"/><rect x="720" y="625" width="80" height="30" rx="6" fill="#fafafa" stroke="none"/><text x="760" y="645" text-anchor="middle" font-size="13" fill="#333" font-family="-apple-system,BlinkMacSystemFont,sans-serif">5年-8年</text><path d="M800,640 C850,640 850,640 900,640" fill="none" stroke="#6F81DB" stroke-width="2"/><rect x="900" y="625" width="80" height="30" rx="6" fill="#fafafa" stroke="none"/><text x="940" y="645" text-anchor="middle" font-size="13" fill="#333" font-family="-apple-system,BlinkMacSystemFont,sans-serif">20-30K</text><path d="M737.52,640 C638.76,640 638.76,740 540,740" fill="none" stroke="#6F81DB" stroke-width="2"/><rect x="540" y="725" width="843.9599999999998" height="30" rx="6" fill="#fafafa" stroke="none"/><text x="961.9799999999999" y="745" text-anchor="middle" font-size="13" fill="#333" font-family="-apple-system,BlinkMacSystemFont,sans-serif">武汉/长沙/苏州/南京/厦门、普通本科，B端产品经理（供应链/SaaS/电商），小厂，面试表现还OK，整体能力还不错，2023年或者2024年求职</text><path d="M1383.9599999999998,740 C1051.98,740 1051.98,680 720,680" fill="none" stroke="#6F81DB" stroke-width="2"/><rect x="720" y="665" width="97.75999999999999" height="30" rx="6" fill="#EFF0F0" stroke="none"/><text x="768.88" y="685" text-anchor="middle" font-size="13" fill="#333" font-family="-apple-system,BlinkMacSystemFont,sans-serif">刚毕业第1年</text><path d="M817.76,680 C858.88,680 858.88,680 900,680" fill="none" stroke="#6F81DB" stroke-width="2"/><rect x="900" y="665" width="80" height="30" rx="6" fill="#fafafa" stroke="none"/><text x="940" y="685" text-anchor="middle" font-size="13" fill="#333" font-family="-apple-system,BlinkMacSystemFont,sans-serif">5-8K</text><path d="M1383.9599999999998,740 C1051.98,740 1051.98,720 720,720" fill="none" stroke="#6F81DB" stroke-width="2"/><rect x="720" y="705" width="80" height="30" rx="6" fill="#EFF0F0" stroke="none"/><text x="760" y="725" text-anchor="middle" font-size="13" fill="#333" font-family="-apple-system,BlinkMacSystemFont,sans-serif">1-2年</text><path d="M800,720 C850,720 850,720 900,720" fill="none" stroke="#6F81DB" stroke-width="2"/><rect x="900" y="705" width="80" height="30" rx="6" fill="#fafafa" stroke="none"/><text x="940" y="725" text-anchor="middle" font-size="13" fill="#333" font-family="-apple-system,BlinkMacSystemFont,sans-serif">6-10K</text><path d="M1383.9599999999998,740 C1051.98,740 1051.98,760 720,760" fill="none" stroke="#6F81DB" stroke-width="2"/><rect x="720" y="745" width="80" height="30" rx="6" fill="#EFF0F0" stroke="none"/><text x="760" y="765" text-anchor="middle" font-size="13" fill="#333" font-family="-apple-system,BlinkMacSystemFont,sans-serif">3-4年</text><path d="M800,760 C850,760 850,760 900,760" fill="none" stroke="#6F81DB" stroke-width="2"/><rect x="900" y="745" width="80" height="30" rx="6" fill="#fafafa" stroke="none"/><text x="940" y="765" text-anchor="middle" font-size="13" fill="#333" font-family="-apple-system,BlinkMacSystemFont,sans-serif">10-15K</text><path d="M1383.9599999999998,740 C1051.98,740 1051.98,800 720,800" fill="none" stroke="#6F81DB" stroke-width="2"/><rect x="720" y="785" width="80" height="30" rx="6" fill="#EFF0F0" stroke="none"/><text x="760" y="805" text-anchor="middle" font-size="13" fill="#333" font-family="-apple-system,BlinkMacSystemFont,sans-serif">5年-8年</text><path d="M800,800 C850,800 850,800 900,800" fill="none" stroke="#6F81DB" stroke-width="2"/><rect x="900" y="785" width="80" height="30" rx="6" fill="#fafafa" stroke="none"/><text x="940" y="805" text-anchor="middle" font-size="13" fill="#333" font-family="-apple-system,BlinkMacSystemFont,sans-serif">15-25K</text>
</svg>