<svg xmlns="http://www.w3.org/2000/svg" xmlns:xlink="http://www.w3.org/1999/xlink"
  viewBox="-188.16 -579 1684.16 1158" width="1684.16" height="1158"
  style="background:#fff; font-family:-apple-system,BlinkMacSystemFont,'Segoe UI',Roboto,sans-serif;">
<defs></defs>
<rect x="-188.16" y="-579" width="1684.16" height="1158" fill="#fff"/>
<rect x="-104.16" y="-18" width="208.32" height="36" rx="8" fill="#EFF0F0" stroke="none"/><text x="0" y="6" text-anchor="middle" font-size="16" font-weight="bold" fill="#333" font-family="-apple-system,BlinkMacSystemFont,sans-serif">公司选择/职业发展方面</text><path d="M104.16,0 C194.15999999999997,0 194.15999999999997,-400 284.15999999999997,-400" fill="none" stroke="#E48484" stroke-width="2"/><rect x="180" y="-415" width="149.76" height="30" rx="6" fill="#fafafa" stroke="none"/><text x="254.88" y="-395" text-anchor="middle" font-size="13" fill="#333" font-family="-apple-system,BlinkMacSystemFont,sans-serif">常见/常听的一些问题</text><path d="M329.76,-400 C344.88,-400 344.88,-480 360,-480" fill="none" stroke="#E48484" stroke-width="2"/><rect x="360" y="-495" width="299.52" height="30" rx="6" fill="#EFF0F0" stroke="none"/><text x="509.76" y="-475" text-anchor="middle" font-size="13" fill="#333" font-family="-apple-system,BlinkMacSystemFont,sans-serif">XX赛道的产品经理值得做吗？后续跳槽有机会吗</text><path d="M329.76,-400 C344.88,-400 344.88,-440 360,-440" fill="none" stroke="#E48484" stroke-width="2"/><rect x="360" y="-455" width="313.04" height="30" rx="6" fill="#EFF0F0" stroke="none"/><text x="516.52" y="-435" text-anchor="middle" font-size="13" fill="#333" font-family="-apple-system,BlinkMacSystemFont,sans-serif">XX公司怎么样？XX公司的业务有什么发展机会吗？</text><path d="M329.76,-400 C344.88,-400 344.88,-400 360,-400" fill="none" stroke="#E48484" stroke-width="2"/><rect x="360" y="-415" width="234.51999999999998" height="30" rx="6" fill="#EFF0F0" stroke="none"/><text x="477.26" y="-395" text-anchor="middle" font-size="13" fill="#333" font-family="-apple-system,BlinkMacSystemFont,sans-serif">C端产品经理和B端产品经理怎么选？</text><path d="M329.76,-400 C344.88,-400 344.88,-360 360,-360" fill="none" stroke="#E48484" stroke-width="2"/><rect x="360" y="-375" width="271.83" height="30" rx="6" fill="#EFF0F0" stroke="none"/><text x="495.91499999999996" y="-355" text-anchor="middle" font-size="13" fill="#333" font-family="-apple-system,BlinkMacSystemFont,sans-serif">To G方向的产品都很坑吗？应该要去做吗？</text><path d="M329.76,-400 C344.88,-400 344.88,-320 360,-320" fill="none" stroke="#E48484" stroke-width="2"/><rect x="360" y="-335" width="195" height="30" rx="6" fill="#EFF0F0" stroke="none"/><text x="457.5" y="-315" text-anchor="middle" font-size="13" fill="#333" font-family="-apple-system,BlinkMacSystemFont,sans-serif">供应链产品经理方向怎么样？</text><path d="M104.16,0 C194.15999999999997,0 194.15999999999997,100 284.15999999999997,100" fill="none" stroke="#E482D4" stroke-width="2"/><rect x="180" y="85" width="143" height="30" rx="6" fill="#fafafa" stroke="none"/><text x="251.5" y="105" text-anchor="middle" font-size="13" fill="#333" font-family="-apple-system,BlinkMacSystemFont,sans-serif">我的一些观察和解答</text><path d="M323,100 C341.5,100 341.5,-140 360,-140" fill="none" stroke="#E482D4" stroke-width="2"/><rect x="360" y="-155" width="351.52" height="30" rx="6" fill="#fafafa" stroke="none"/><text x="535.76" y="-135" text-anchor="middle" font-size="13" fill="#333" font-family="-apple-system,BlinkMacSystemFont,sans-serif">1.对于刚毕业的新人来说，选对行业确实是少走很多弯路</text><path d="M711.52,-140 C625.76,-140 625.76,-280 540,-280" fill="none" stroke="#E482D4" stroke-width="2"/><rect x="540" y="-295" width="130" height="30" rx="6" fill="#fafafa" stroke="none"/><text x="605" y="-275" text-anchor="middle" font-size="13" fill="#333" font-family="-apple-system,BlinkMacSystemFont,sans-serif">优先考虑一线城市</text><path d="M711.52,-140 C625.76,-140 625.76,-140 540,-140" fill="none" stroke="#E482D4" stroke-width="2"/><rect x="540" y="-155" width="325" height="30" rx="6" fill="#fafafa" stroke="none"/><text x="702.5" y="-135" text-anchor="middle" font-size="13" fill="#333" font-family="-apple-system,BlinkMacSystemFont,sans-serif">优先考虑目前正火热的行业和赛道，不要想着捞偏门</text><path d="M865,-140 C792.5,-140 792.5,-240 720,-240" fill="none" stroke="#E482D4" stroke-width="2"/><rect x="720" y="-255" width="80" height="30" rx="6" fill="#fafafa" stroke="none"/><text x="760" y="-235" text-anchor="middle" font-size="13" fill="#333" font-family="-apple-system,BlinkMacSystemFont,sans-serif">SaaS</text><path d="M865,-140 C792.5,-140 792.5,-200 720,-200" fill="none" stroke="#E482D4" stroke-width="2"/><rect x="720" y="-215" width="80" height="30" rx="6" fill="#fafafa" stroke="none"/><text x="760" y="-195" text-anchor="middle" font-size="13" fill="#333" font-family="-apple-system,BlinkMacSystemFont,sans-serif">电商</text><path d="M865,-140 C792.5,-140 792.5,-160 720,-160" fill="none" stroke="#E482D4" stroke-width="2"/><rect x="720" y="-175" width="80" height="30" rx="6" fill="#fafafa" stroke="none"/><text x="760" y="-155" text-anchor="middle" font-size="13" fill="#333" font-family="-apple-system,BlinkMacSystemFont,sans-serif">财务</text><path d="M865,-140 C792.5,-140 792.5,-120 720,-120" fill="none" stroke="#E482D4" stroke-width="2"/><rect x="720" y="-135" width="80" height="30" rx="6" fill="#fafafa" stroke="none"/><text x="760" y="-115" text-anchor="middle" font-size="13" fill="#333" font-family="-apple-system,BlinkMacSystemFont,sans-serif">供应链</text><path d="M865,-140 C792.5,-140 792.5,-80 720,-80" fill="none" stroke="#E482D4" stroke-width="2"/><rect x="720" y="-95" width="80" height="30" rx="6" fill="#fafafa" stroke="none"/><text x="760" y="-75" text-anchor="middle" font-size="13" fill="#333" font-family="-apple-system,BlinkMacSystemFont,sans-serif">AI</text><path d="M865,-140 C792.5,-140 792.5,-40 720,-40" fill="none" stroke="#E482D4" stroke-width="2"/><rect x="720" y="-55" width="80" height="30" rx="6" fill="#fafafa" stroke="none"/><text x="760" y="-35" text-anchor="middle" font-size="13" fill="#333" font-family="-apple-system,BlinkMacSystemFont,sans-serif">新能源</text><path d="M711.52,-140 C625.76,-140 625.76,0 540,0" fill="none" stroke="#E482D4" stroke-width="2"/><rect x="540" y="-15" width="351" height="30" rx="6" fill="#fafafa" stroke="none"/><text x="715.5" y="5" text-anchor="middle" font-size="13" fill="#333" font-family="-apple-system,BlinkMacSystemFont,sans-serif">优先考虑赛道宽广，未来有机会跳槽，有更多选择的行业</text><path d="M323,100 C341.5,100 341.5,80 360,80" fill="none" stroke="#E482D4" stroke-width="2"/><rect x="360" y="65" width="676.52" height="30" rx="6" fill="#fafafa" stroke="none"/><text x="698.26" y="85" text-anchor="middle" font-size="13" fill="#333" font-family="-apple-system,BlinkMacSystemFont,sans-serif">2.对于已经工作了一段时间的人来说，多关注行业的变化，多关注自身所处领域的一些趋势和近况，提前最好规划</text><path d="M1036.52,80 C788.26,80 788.26,40 540,40" fill="none" stroke="#E482D4" stroke-width="2"/><rect x="540" y="25" width="338" height="30" rx="6" fill="#fafafa" stroke="none"/><text x="709" y="45" text-anchor="middle" font-size="13" fill="#333" font-family="-apple-system,BlinkMacSystemFont,sans-serif">内部有机会转岗或者多接触其他领域，就要多提前准备</text><path d="M1036.52,80 C788.26,80 788.26,80 540,80" fill="none" stroke="#E482D4" stroke-width="2"/><rect x="540" y="65" width="325" height="30" rx="6" fill="#fafafa" stroke="none"/><text x="702.5" y="85" text-anchor="middle" font-size="13" fill="#333" font-family="-apple-system,BlinkMacSystemFont,sans-serif">每隔一段时间要跳出去看看，尝试突破自己的舒适圈</text><path d="M1036.52,80 C788.26,80 788.26,120 540,120" fill="none" stroke="#E482D4" stroke-width="2"/><rect x="540" y="105" width="234" height="30" rx="6" fill="#fafafa" stroke="none"/><text x="657" y="125" text-anchor="middle" font-size="13" fill="#333" font-family="-apple-system,BlinkMacSystemFont,sans-serif">多和外部的朋友交流，不要封闭信息</text><path d="M323,100 C341.5,100 341.5,280 360,280" fill="none" stroke="#E482D4" stroke-width="2"/><rect x="360" y="265" width="657.28" height="30" rx="6" fill="#fafafa" stroke="none"/><text x="688.64" y="285" text-anchor="middle" font-size="13" fill="#333" font-family="-apple-system,BlinkMacSystemFont,sans-serif">3.什么行业/什么赛道会更有机会，更有前景，这个是很难摸得准的，我们需要的是关注一些大趋势下的小波浪</text><path d="M1017.28,280 C778.64,280 778.64,160 540,160" fill="none" stroke="#E482D4" stroke-width="2"/><rect x="540" y="145" width="157.04000000000002" height="30" rx="6" fill="#fafafa" stroke="none"/><text x="618.52" y="165" text-anchor="middle" font-size="13" fill="#333" font-family="-apple-system,BlinkMacSystemFont,sans-serif">17年的社交/电商/社区</text><path d="M1017.28,280 C778.64,280 778.64,200 540,200" fill="none" stroke="#E482D4" stroke-width="2"/><rect x="540" y="185" width="176.28" height="30" rx="6" fill="#fafafa" stroke="none"/><text x="628.14" y="205" text-anchor="middle" font-size="13" fill="#333" font-family="-apple-system,BlinkMacSystemFont,sans-serif">20年的社区团购/买菜到家</text><path d="M1017.28,280 C778.64,280 778.64,240 540,240" fill="none" stroke="#E482D4" stroke-width="2"/><rect x="540" y="225" width="156.51999999999998" height="30" rx="6" fill="#fafafa" stroke="none"/><text x="618.26" y="245" text-anchor="middle" font-size="13" fill="#333" font-family="-apple-system,BlinkMacSystemFont,sans-serif">21年的港美股证券行情</text><path d="M1017.28,280 C778.64,280 778.64,280 540,280" fill="none" stroke="#E482D4" stroke-width="2"/><rect x="540" y="265" width="177.31999999999996" height="30" rx="6" fill="#fafafa" stroke="none"/><text x="628.66" y="285" text-anchor="middle" font-size="13" fill="#333" font-family="-apple-system,BlinkMacSystemFont,sans-serif">21年的跨境物流/跨境SaaS</text><path d="M1017.28,280 C778.64,280 778.64,320 540,320" fill="none" stroke="#E482D4" stroke-width="2"/><rect x="540" y="305" width="130.51999999999998" height="30" rx="6" fill="#fafafa" stroke="none"/><text x="605.26" y="325" text-anchor="middle" font-size="13" fill="#333" font-family="-apple-system,BlinkMacSystemFont,sans-serif">22年的新能源赛道</text><path d="M1017.28,280 C778.64,280 778.64,360 540,360" fill="none" stroke="#E482D4" stroke-width="2"/><rect x="540" y="345" width="163.79999999999998" height="30" rx="6" fill="#fafafa" stroke="none"/><text x="621.9" y="365" text-anchor="middle" font-size="13" fill="#333" font-family="-apple-system,BlinkMacSystemFont,sans-serif">23年的跨境电商出海/AI</text><path d="M1017.28,280 C778.64,280 778.64,400 540,400" fill="none" stroke="#E482D4" stroke-width="2"/><rect x="540" y="385" width="169" height="30" rx="6" fill="transparent" stroke="#BFBFBF"/><text x="624.5" y="405" text-anchor="middle" font-size="13" fill="#333" font-family="-apple-system,BlinkMacSystemFont,sans-serif">融资情况，公司扩张情况</text><path d="M323,100 C341.5,100 341.5,440 360,440" fill="none" stroke="#E482D4" stroke-width="2"/><rect x="360" y="425" width="559.52" height="30" rx="6" fill="#fafafa" stroke="none"/><text x="639.76" y="445" text-anchor="middle" font-size="13" fill="#333" font-family="-apple-system,BlinkMacSystemFont,sans-serif">4.职业发展需要动态调整，如果不合适的，不想做的，就要尽快跳出来，而不是一直消耗自己</text><path d="M323,100 C341.5,100 341.5,480 360,480" fill="none" stroke="#E482D4" stroke-width="2"/><rect x="360" y="465" width="780.52" height="30" rx="6" fill="#fafafa" stroke="none"/><text x="750.26" y="485" text-anchor="middle" font-size="13" fill="#333" font-family="-apple-system,BlinkMacSystemFont,sans-serif">5.合适的公司，合适的团队下，那么就要尽量吃透业务，掌握一些差异化的信息和经验，后续跳槽的时候这个就是自己的稀缺性价值</text>
</svg>