<svg xmlns="http://www.w3.org/2000/svg" xmlns:xlink="http://www.w3.org/1999/xlink"
  viewBox="-136 -986.75 1626 2282.5" width="1626" height="2282.5"
  style="background:#fff; font-family:-apple-system,BlinkMacSystemFont,'Segoe UI',Roboto,sans-serif;">
<defs></defs>
<rect x="-136" y="-986.75" width="1626" height="2282.5" fill="#fff"/>
<rect x="-52" y="-18" width="104" height="36" rx="8" fill="#EFF0F0" stroke="none"/><text x="0" y="6" text-anchor="middle" font-size="16" font-weight="bold" fill="#333" font-family="-apple-system,BlinkMacSystemFont,sans-serif">背调知识</text><path d="M52,0 C142,0 142,-760 232,-760" fill="none" stroke="#A287E1" stroke-width="2"/><rect x="180" y="-775" width="104" height="30" rx="6" fill="#fafafa" stroke="none"/><text x="232" y="-755" text-anchor="middle" font-size="13" fill="#333" font-family="-apple-system,BlinkMacSystemFont,sans-serif">什么是背调？</text><path d="M284,-760 C322,-760 322,-760 360,-760" fill="none" stroke="#A287E1" stroke-width="2"/><rect x="360" y="-775" width="1001" height="30" rx="6" fill="#fafafa" stroke="none"/><text x="860.5" y="-755" text-anchor="middle" font-size="13" fill="#333" font-family="-apple-system,BlinkMacSystemFont,sans-serif">背调是背景调查的简称，意思就是当入职某个新公司的时候，新公司通过合法的调查途径及调查方法，了解待入职人员的个人基础信息、过往的工作背景、能力及工作表现</text><path d="M52,0 C142,0 142,-680 232,-680" fill="none" stroke="#6F81DB" stroke-width="2"/><rect x="180" y="-695" width="104" height="30" rx="6" fill="#fafafa" stroke="none"/><text x="232" y="-675" text-anchor="middle" font-size="13" fill="#333" font-family="-apple-system,BlinkMacSystemFont,sans-serif">背调的时间点</text><path d="M284,-680 C322,-680 322,-720 360,-720" fill="none" stroke="#6F81DB" stroke-width="2"/><rect x="360" y="-735" width="380.1199999999999" height="30" rx="6" fill="#fafafa" stroke="none"/><text x="550.06" y="-715" text-anchor="middle" font-size="13" fill="#333" font-family="-apple-system,BlinkMacSystemFont,sans-serif">1.面试通过之后，发Offer之前，如果背调通过就会发放Offer</text><path d="M740.1199999999999,-720 C640.06,-720 640.06,-720 540,-720" fill="none" stroke="#6F81DB" stroke-width="2"/><rect x="540" y="-735" width="189.79999999999995" height="30" rx="6" fill="#fafafa" stroke="none"/><text x="634.9" y="-715" text-anchor="middle" font-size="13" fill="#333" font-family="-apple-system,BlinkMacSystemFont,sans-serif">背调不通过，就不会发Offer</text><path d="M284,-680 C322,-680 322,-660 360,-660" fill="none" stroke="#6F81DB" stroke-width="2"/><rect x="360" y="-675" width="359.32000000000005" height="30" rx="6" fill="#fafafa" stroke="none"/><text x="539.6600000000001" y="-655" text-anchor="middle" font-size="13" fill="#333" font-family="-apple-system,BlinkMacSystemFont,sans-serif">2.面试通过且Offer也发放了，在入职之前，然后发起背调</text><path d="M719.32,-660 C629.6600000000001,-660 629.6600000000001,-680 540,-680" fill="none" stroke="#6F81DB" stroke-width="2"/><rect x="540" y="-695" width="182" height="30" rx="6" fill="#fafafa" stroke="none"/><text x="631" y="-675" text-anchor="middle" font-size="13" fill="#333" font-family="-apple-system,BlinkMacSystemFont,sans-serif">背调通过，则可以正常入职</text><path d="M719.32,-660 C629.6600000000001,-660 629.6600000000001,-640 540,-640" fill="none" stroke="#6F81DB" stroke-width="2"/><rect x="540" y="-655" width="470.5999999999999" height="30" rx="6" fill="#fafafa" stroke="none"/><text x="775.3" y="-635" text-anchor="middle" font-size="13" fill="#333" font-family="-apple-system,BlinkMacSystemFont,sans-serif">背调不通过，虽然发了Offer但是会有作废声明，用人方可以单方面解除Offer</text><path d="M52,0 C142,0 142,-560 232,-560" fill="none" stroke="#DFB85D" stroke-width="2"/><rect x="180" y="-575" width="91" height="30" rx="6" fill="#fafafa" stroke="none"/><text x="225.5" y="-555" text-anchor="middle" font-size="13" fill="#333" font-family="-apple-system,BlinkMacSystemFont,sans-serif">背调的类型</text><path d="M271,-560 C315.5,-560 315.5,-580 360,-580" fill="none" stroke="#DFB85D" stroke-width="2"/><rect x="360" y="-595" width="80" height="30" rx="6" fill="#fafafa" stroke="none"/><text x="400" y="-575" text-anchor="middle" font-size="13" fill="#333" font-family="-apple-system,BlinkMacSystemFont,sans-serif">1.明调</text><path d="M440,-580 C490,-580 490,-600 540,-600" fill="none" stroke="#DFB85D" stroke-width="2"/><rect x="540" y="-615" width="455" height="30" rx="6" fill="#fafafa" stroke="none"/><text x="767.5" y="-595" text-anchor="middle" font-size="13" fill="#333" font-family="-apple-system,BlinkMacSystemFont,sans-serif">会告知候选人，将会对你发起背景调查，并让你先主动填写过往的履历信息</text><path d="M440,-580 C490,-580 490,-560 540,-560" fill="none" stroke="#DFB85D" stroke-width="2"/><rect x="540" y="-575" width="377" height="30" rx="6" fill="#fafafa" stroke="none"/><text x="728.5" y="-555" text-anchor="middle" font-size="13" fill="#333" font-family="-apple-system,BlinkMacSystemFont,sans-serif">一般来说明调是正规的，所以大多数公司还是会选择这个方式</text><path d="M271,-560 C315.5,-560 315.5,-520 360,-520" fill="none" stroke="#DFB85D" stroke-width="2"/><rect x="360" y="-535" width="80" height="30" rx="6" fill="#fafafa" stroke="none"/><text x="400" y="-515" text-anchor="middle" font-size="13" fill="#333" font-family="-apple-system,BlinkMacSystemFont,sans-serif">2.暗调</text><path d="M440,-520 C490,-520 490,-520 540,-520" fill="none" stroke="#DFB85D" stroke-width="2"/><rect x="540" y="-535" width="403" height="30" rx="6" fill="#fafafa" stroke="none"/><text x="741.5" y="-515" text-anchor="middle" font-size="13" fill="#333" font-family="-apple-system,BlinkMacSystemFont,sans-serif">不会告知候选人，而是通过其他手段和关系去进行背景信息的调查</text><path d="M52,0 C142,0 142,-420 232,-420" fill="none" stroke="#E48484" stroke-width="2"/><rect x="180" y="-435" width="104" height="30" rx="6" fill="#fafafa" stroke="none"/><text x="232" y="-415" text-anchor="middle" font-size="13" fill="#333" font-family="-apple-system,BlinkMacSystemFont,sans-serif">谁去做背调？</text><path d="M284,-420 C322,-420 322,-460 360,-460" fill="none" stroke="#E48484" stroke-width="2"/><rect x="360" y="-475" width="130.51999999999998" height="30" rx="6" fill="#fafafa" stroke="none"/><text x="425.26" y="-455" text-anchor="middle" font-size="13" fill="#333" font-family="-apple-system,BlinkMacSystemFont,sans-serif">公司的HR自己去做</text><path d="M490.52,-460 C515.26,-460 515.26,-480 540,-480" fill="none" stroke="#E48484" stroke-width="2"/><rect x="540" y="-495" width="130" height="30" rx="6" fill="#fafafa" stroke="none"/><text x="605" y="-475" text-anchor="middle" font-size="13" fill="#333" font-family="-apple-system,BlinkMacSystemFont,sans-serif">优点：省钱，省力</text><path d="M490.52,-460 C515.26,-460 515.26,-440 540,-440" fill="none" stroke="#E48484" stroke-width="2"/><rect x="540" y="-455" width="533.52" height="30" rx="6" fill="#fafafa" stroke="none"/><text x="806.76" y="-435" text-anchor="middle" font-size="13" fill="#333" font-family="-apple-system,BlinkMacSystemFont,sans-serif">缺点：公司的HR可能不够专业，同时调查到的信息不够多，可能发现不了一些作假的信息</text><path d="M284,-420 C322,-420 322,-380 360,-380" fill="none" stroke="#E48484" stroke-width="2"/><rect x="360" y="-395" width="130" height="30" rx="6" fill="#fafafa" stroke="none"/><text x="425" y="-375" text-anchor="middle" font-size="13" fill="#333" font-family="-apple-system,BlinkMacSystemFont,sans-serif">委托三方机构去做</text><path d="M490,-380 C515,-380 515,-400 540,-400" fill="none" stroke="#E48484" stroke-width="2"/><rect x="540" y="-415" width="624" height="30" rx="6" fill="#fafafa" stroke="none"/><text x="852" y="-395" text-anchor="middle" font-size="13" fill="#333" font-family="-apple-system,BlinkMacSystemFont,sans-serif">优点：三方机构有自己的人脉圈和资料库，可以调研到很多信息，更有利于对候选人的整体能力做出判断</text><path d="M490,-380 C515,-380 515,-360 540,-360" fill="none" stroke="#E48484" stroke-width="2"/><rect x="540" y="-375" width="247" height="30" rx="6" fill="#fafafa" stroke="none"/><text x="663.5" y="-355" text-anchor="middle" font-size="13" fill="#333" font-family="-apple-system,BlinkMacSystemFont,sans-serif">缺点：比较贵，周期也可能稍微长一些</text><path d="M52,0 C142,0 142,-80 232,-80" fill="none" stroke="#77C386" stroke-width="2"/><rect x="180" y="-95" width="130" height="30" rx="6" fill="#fafafa" stroke="none"/><text x="245" y="-75" text-anchor="middle" font-size="13" fill="#333" font-family="-apple-system,BlinkMacSystemFont,sans-serif">背调查哪些信息？</text><path d="M310,-80 C335,-80 335,-260 360,-260" fill="none" stroke="#77C386" stroke-width="2"/><rect x="360" y="-275" width="117.52" height="30" rx="6" fill="#fafafa" stroke="none"/><text x="418.76" y="-255" text-anchor="middle" font-size="13" fill="#333" font-family="-apple-system,BlinkMacSystemFont,sans-serif">1.基础类的信息</text><path d="M477.52,-260 C508.76,-260 508.76,-320 540,-320" fill="none" stroke="#77C386" stroke-width="2"/><rect x="540" y="-335" width="80" height="30" rx="6" fill="#fafafa" stroke="none"/><text x="580" y="-315" text-anchor="middle" font-size="13" fill="#333" font-family="-apple-system,BlinkMacSystemFont,sans-serif">身份</text><path d="M477.52,-260 C508.76,-260 508.76,-280 540,-280" fill="none" stroke="#77C386" stroke-width="2"/><rect x="540" y="-295" width="80" height="30" rx="6" fill="#fafafa" stroke="none"/><text x="580" y="-275" text-anchor="middle" font-size="13" fill="#333" font-family="-apple-system,BlinkMacSystemFont,sans-serif">学历</text><path d="M477.52,-260 C508.76,-260 508.76,-240 540,-240" fill="none" stroke="#77C386" stroke-width="2"/><rect x="540" y="-255" width="143" height="30" rx="6" fill="#fafafa" stroke="none"/><text x="611.5" y="-235" text-anchor="middle" font-size="13" fill="#333" font-family="-apple-system,BlinkMacSystemFont,sans-serif">诉讼记录，不良记录</text><path d="M477.52,-260 C508.76,-260 508.76,-200 540,-200" fill="none" stroke="#77C386" stroke-width="2"/><rect x="540" y="-215" width="104" height="30" rx="6" fill="#fafafa" stroke="none"/><text x="592" y="-195" text-anchor="middle" font-size="13" fill="#333" font-family="-apple-system,BlinkMacSystemFont,sans-serif">商业利益冲突</text><path d="M310,-80 C335,-80 335,-80 360,-80" fill="none" stroke="#77C386" stroke-width="2"/><rect x="360" y="-95" width="130.51999999999998" height="30" rx="6" fill="#fafafa" stroke="none"/><text x="425.26" y="-75" text-anchor="middle" font-size="13" fill="#333" font-family="-apple-system,BlinkMacSystemFont,sans-serif">2.过往履历的信息</text><path d="M490.52,-80 C515.26,-80 515.26,-160 540,-160" fill="none" stroke="#77C386" stroke-width="2"/><rect x="540" y="-175" width="80" height="30" rx="6" fill="#fafafa" stroke="none"/><text x="580" y="-155" text-anchor="middle" font-size="13" fill="#333" font-family="-apple-system,BlinkMacSystemFont,sans-serif">公司名称</text><path d="M490.52,-80 C515.26,-80 515.26,-120 540,-120" fill="none" stroke="#77C386" stroke-width="2"/><rect x="540" y="-135" width="80" height="30" rx="6" fill="#fafafa" stroke="none"/><text x="580" y="-115" text-anchor="middle" font-size="13" fill="#333" font-family="-apple-system,BlinkMacSystemFont,sans-serif">在职时间</text><path d="M490.52,-80 C515.26,-80 515.26,-80 540,-80" fill="none" stroke="#77C386" stroke-width="2"/><rect x="540" y="-95" width="91" height="30" rx="6" fill="#fafafa" stroke="none"/><text x="585.5" y="-75" text-anchor="middle" font-size="13" fill="#333" font-family="-apple-system,BlinkMacSystemFont,sans-serif">担任的岗位</text><path d="M490.52,-80 C515.26,-80 515.26,-40 540,-40" fill="none" stroke="#77C386" stroke-width="2"/><rect x="540" y="-55" width="143" height="30" rx="6" fill="#fafafa" stroke="none"/><text x="611.5" y="-35" text-anchor="middle" font-size="13" fill="#333" font-family="-apple-system,BlinkMacSystemFont,sans-serif">劳动纠纷、竞业协议</text><path d="M490.52,-80 C515.26,-80 515.26,0 540,0" fill="none" stroke="#77C386" stroke-width="2"/><rect x="540" y="-15" width="208" height="30" rx="6" fill="#fafafa" stroke="none"/><text x="644" y="5" text-anchor="middle" font-size="13" fill="#333" font-family="-apple-system,BlinkMacSystemFont,sans-serif">离职原因，离职前的薪资待遇等</text><path d="M310,-80 C335,-80 335,80 360,80" fill="none" stroke="#77C386" stroke-width="2"/><rect x="360" y="65" width="130.51999999999998" height="30" rx="6" fill="#fafafa" stroke="none"/><text x="425.26" y="85" text-anchor="middle" font-size="13" fill="#333" font-family="-apple-system,BlinkMacSystemFont,sans-serif">3.过往工作的表现</text><path d="M490.52,80 C515.26,80 515.26,40 540,40" fill="none" stroke="#77C386" stroke-width="2"/><rect x="540" y="25" width="169" height="30" rx="6" fill="#fafafa" stroke="none"/><text x="624.5" y="45" text-anchor="middle" font-size="13" fill="#333" font-family="-apple-system,BlinkMacSystemFont,sans-serif">工作情况，工作能力如何</text><path d="M490.52,80 C515.26,80 515.26,80 540,80" fill="none" stroke="#77C386" stroke-width="2"/><rect x="540" y="65" width="312" height="30" rx="6" fill="#fafafa" stroke="none"/><text x="696" y="85" text-anchor="middle" font-size="13" fill="#333" font-family="-apple-system,BlinkMacSystemFont,sans-serif">直系领导和周边同事对候选人的主观评价和判断等</text><path d="M490.52,80 C515.26,80 515.26,120 540,120" fill="none" stroke="#77C386" stroke-width="2"/><rect x="540" y="105" width="221" height="30" rx="6" fill="#fafafa" stroke="none"/><text x="650.5" y="125" text-anchor="middle" font-size="13" fill="#333" font-family="-apple-system,BlinkMacSystemFont,sans-serif">一些优点和不足之处，性格特征等</text><path d="M310,-80 C335,-80 335,160 360,160" fill="none" stroke="#77C386" stroke-width="2"/><rect x="360" y="145" width="80" height="30" rx="6" fill="#fafafa" stroke="none"/><text x="400" y="165" text-anchor="middle" font-size="13" fill="#333" font-family="-apple-system,BlinkMacSystemFont,sans-serif"></text><path d="M52,0 C142,0 142,480 232,480" fill="none" stroke="#77C386" stroke-width="2"/><rect x="180" y="465" width="169" height="30" rx="6" fill="#fafafa" stroke="none"/><text x="264.5" y="485" text-anchor="middle" font-size="13" fill="#333" font-family="-apple-system,BlinkMacSystemFont,sans-serif">关于背调的一些常见问题</text><path d="M349,480 C354.5,480 354.5,260 360,260" fill="none" stroke="#77C386" stroke-width="2"/><rect x="360" y="245" width="221.51999999999998" height="30" rx="6" fill="#fafafa" stroke="none"/><text x="470.76" y="265" text-anchor="middle" font-size="13" fill="#333" font-family="-apple-system,BlinkMacSystemFont,sans-serif">1.捏造的公司经历，会被发现吗？</text><path d="M581.52,260 C560.76,260 560.76,200 540,200" fill="none" stroke="#77C386" stroke-width="2"/><rect x="540" y="185" width="559" height="30" rx="6" fill="#fafafa" stroke="none"/><text x="819.5" y="205" text-anchor="middle" font-size="13" fill="#333" font-family="-apple-system,BlinkMacSystemFont,sans-serif">如果发生了背调，往往是根据你提供的信息去打电话问的，所以被发现的几率取决于很多因素</text><path d="M581.52,260 C560.76,260 560.76,240 540,240" fill="none" stroke="#77C386" stroke-width="2"/><rect x="540" y="225" width="221" height="30" rx="6" fill="#fafafa" stroke="none"/><text x="650.5" y="245" text-anchor="middle" font-size="13" fill="#333" font-family="-apple-system,BlinkMacSystemFont,sans-serif">留的电话的那个人能不能说的清楚</text><path d="M581.52,260 C560.76,260 560.76,280 540,280" fill="none" stroke="#77C386" stroke-width="2"/><rect x="540" y="265" width="169.51999999999998" height="30" rx="6" fill="#fafafa" stroke="none"/><text x="624.76" y="285" text-anchor="middle" font-size="13" fill="#333" font-family="-apple-system,BlinkMacSystemFont,sans-serif">HR是否认识该公司的人员</text><path d="M581.52,260 C560.76,260 560.76,320 540,320" fill="none" stroke="#77C386" stroke-width="2"/><rect x="540" y="305" width="234" height="30" rx="6" fill="#fafafa" stroke="none"/><text x="657" y="325" text-anchor="middle" font-size="13" fill="#333" font-family="-apple-system,BlinkMacSystemFont,sans-serif">公司是否启用了外部背调公司的资源</text><path d="M349,480 C354.5,480 354.5,380 360,380" fill="none" stroke="#77C386" stroke-width="2"/><rect x="360" y="365" width="338.52" height="30" rx="6" fill="#fafafa" stroke="none"/><text x="529.26" y="385" text-anchor="middle" font-size="13" fill="#333" font-family="-apple-system,BlinkMacSystemFont,sans-serif">2.经历是真实的，但是有一些润色和修改会被发现吗？</text><path d="M698.52,380 C619.26,380 619.26,360 540,360" fill="none" stroke="#77C386" stroke-width="2"/><rect x="540" y="345" width="612.04" height="30" rx="6" fill="#fafafa" stroke="none"/><text x="846.02" y="365" text-anchor="middle" font-size="13" fill="#333" font-family="-apple-system,BlinkMacSystemFont,sans-serif">一般来说时间相差个把月问题都不大，例如说你是8月31日离职的，你简历上写的是9月，这个问题不大</text><path d="M698.52,380 C619.26,380 619.26,400 540,400" fill="none" stroke="#77C386" stroke-width="2"/><rect x="540" y="385" width="650" height="30" rx="6" fill="#fafafa" stroke="none"/><text x="865" y="405" text-anchor="middle" font-size="13" fill="#333" font-family="-apple-system,BlinkMacSystemFont,sans-serif">如果是为了把两段经历合并起来，那么主要还是看是否会查社保记录和银行流水，如果结合这个来看就会露馅</text><path d="M349,480 C354.5,480 354.5,460 360,460" fill="none" stroke="#77C386" stroke-width="2"/><rect x="360" y="445" width="377.52" height="30" rx="6" fill="#fafafa" stroke="none"/><text x="548.76" y="465" text-anchor="middle" font-size="13" fill="#333" font-family="-apple-system,BlinkMacSystemFont,sans-serif">3.离职的时候是裁员，但是简历上说的是自离，会被发现吗？</text><path d="M737.52,460 C638.76,460 638.76,440 540,440" fill="none" stroke="#77C386" stroke-width="2"/><rect x="540" y="425" width="715.52" height="30" rx="6" fill="#fafafa" stroke="none"/><text x="897.76" y="445" text-anchor="middle" font-size="13" fill="#333" font-family="-apple-system,BlinkMacSystemFont,sans-serif">这个问题影响一般不太大，因为很多公司的裁员都会对外说的自离，可以和原公司的HR提前沟通清楚，一般都会帮这个忙</text><path d="M737.52,460 C638.76,460 638.76,480 540,480" fill="none" stroke="#77C386" stroke-width="2"/><rect x="540" y="465" width="650.52" height="30" rx="6" fill="#fafafa" stroke="none"/><text x="865.26" y="485" text-anchor="middle" font-size="13" fill="#333" font-family="-apple-system,BlinkMacSystemFont,sans-serif">目前公司裁员的情况越来越多了，被裁员并不意味着自己的能力就不行，所以很多HR也能理解这个离职原因了</text><path d="M349,480 C354.5,480 354.5,540 360,540" fill="none" stroke="#77C386" stroke-width="2"/><rect x="360" y="525" width="338.52" height="30" rx="6" fill="#fafafa" stroke="none"/><text x="529.26" y="545" text-anchor="middle" font-size="13" fill="#333" font-family="-apple-system,BlinkMacSystemFont,sans-serif">4.我和上家领导关系不好，背调的时候要留他电话吗？</text><path d="M698.52,540 C619.26,540 619.26,520 540,520" fill="none" stroke="#77C386" stroke-width="2"/><rect x="540" y="505" width="442" height="30" rx="6" fill="#fafafa" stroke="none"/><text x="761" y="525" text-anchor="middle" font-size="13" fill="#333" font-family="-apple-system,BlinkMacSystemFont,sans-serif">背调的时候可以不一定要写上级领导的电话，可以写其他平行同事的电话</text><path d="M698.52,540 C619.26,540 619.26,560 540,560" fill="none" stroke="#77C386" stroke-width="2"/><rect x="540" y="545" width="533" height="30" rx="6" fill="#fafafa" stroke="none"/><text x="806.5" y="565" text-anchor="middle" font-size="13" fill="#333" font-family="-apple-system,BlinkMacSystemFont,sans-serif">每个公司的组织架构不一样，不一定都是直线汇报的模式，所以留同事的电话也是合理的</text><path d="M349,480 C354.5,480 354.5,640 360,640" fill="none" stroke="#77C386" stroke-width="2"/><rect x="360" y="625" width="456.03999999999996" height="30" rx="6" fill="#fafafa" stroke="none"/><text x="588.02" y="645" text-anchor="middle" font-size="13" fill="#333" font-family="-apple-system,BlinkMacSystemFont,sans-serif">5.背调的时候要提前和前公司的领导和HR（预留是他们的电话）打招呼吗？</text><path d="M816.04,640 C678.02,640 678.02,600 540,600" fill="none" stroke="#77C386" stroke-width="2"/><rect x="540" y="585" width="338" height="30" rx="6" fill="#fafafa" stroke="none"/><text x="709" y="605" text-anchor="middle" font-size="13" fill="#333" font-family="-apple-system,BlinkMacSystemFont,sans-serif">如果是预留了他们的电话，那肯定是要提前打个招呼的</text><path d="M816.04,640 C678.02,640 678.02,640 540,640" fill="none" stroke="#77C386" stroke-width="2"/><rect x="540" y="625" width="650.52" height="30" rx="6" fill="#fafafa" stroke="none"/><text x="865.26" y="645" text-anchor="middle" font-size="13" fill="#333" font-family="-apple-system,BlinkMacSystemFont,sans-serif">可以提前把你填写的一些信息反馈给前领导和HR，例如你是什么时候离职的，什么原因离职的，提前串一下词</text><path d="M816.04,640 C678.02,640 678.02,680 540,680" fill="none" stroke="#77C386" stroke-width="2"/><rect x="540" y="665" width="494" height="30" rx="6" fill="#fafafa" stroke="none"/><text x="787" y="685" text-anchor="middle" font-size="13" fill="#333" font-family="-apple-system,BlinkMacSystemFont,sans-serif">一般来说如果关系不是很恶化的话，都会帮忙说好话的，这个也可以提前打好招呼</text><path d="M349,480 C354.5,480 354.5,740 360,740" fill="none" stroke="#77C386" stroke-width="2"/><rect x="360" y="725" width="247.51999999999998" height="30" rx="6" fill="#fafafa" stroke="none"/><text x="483.76" y="745" text-anchor="middle" font-size="13" fill="#333" font-family="-apple-system,BlinkMacSystemFont,sans-serif">6.背调的时候可以问出之前的薪水吗？</text><path d="M607.52,740 C573.76,740 573.76,720 540,720" fill="none" stroke="#77C386" stroke-width="2"/><rect x="540" y="705" width="624" height="30" rx="6" fill="#fafafa" stroke="none"/><text x="852" y="725" text-anchor="middle" font-size="13" fill="#333" font-family="-apple-system,BlinkMacSystemFont,sans-serif">一般来说背调不会问之前的薪水，因为这个是保密的，可以和预留电话的人沟通，让他们不回答这个问题</text><path d="M607.52,740 C573.76,740 573.76,760 540,760" fill="none" stroke="#77C386" stroke-width="2"/><rect x="540" y="745" width="293.28" height="30" rx="6" fill="#fafafa" stroke="none"/><text x="686.64" y="765" text-anchor="middle" font-size="13" fill="#333" font-family="-apple-system,BlinkMacSystemFont,sans-serif">薪水一般还是看个税APP或者银行流水来判断的</text>
</svg>