<svg xmlns="http://www.w3.org/2000/svg" xmlns:xlink="http://www.w3.org/1999/xlink"
  viewBox="-144.32 -1126.90625 3362.6 2932" width="3362.6" height="2932"
  style="background:#fff; font-family:-apple-system,BlinkMacSystemFont,'Segoe UI',Roboto,sans-serif;">
<defs></defs>
<rect x="-144.32" y="-1126.90625" width="3362.6" height="2932" fill="#fff"/>
<rect x="-60.32" y="-18" width="120.64" height="36" rx="8" fill="#EFF0F0" stroke="none"/><text x="0" y="6" text-anchor="middle" font-size="16" font-weight="bold" fill="#333" font-family="-apple-system,BlinkMacSystemFont,sans-serif">AI工具推荐</text><path d="M60.32,0 C150.32,0 150.32,-660 240.32,-660" fill="none" stroke="#E482D4" stroke-width="2"/><rect x="180" y="-675" width="91.52" height="30" rx="6" fill="#fafafa" stroke="none"/><text x="225.76" y="-655" text-anchor="middle" font-size="13" fill="#333" font-family="-apple-system,BlinkMacSystemFont,sans-serif">AI工具推荐</text><path d="M271.52,-660 C315.76,-660 315.76,-820 360,-820" fill="none" stroke="#E482D4" stroke-width="2"/><rect x="360" y="-835" width="80" height="30" rx="6" fill="#fafafa" stroke="none"/><text x="400" y="-815" text-anchor="middle" font-size="13" fill="#333" font-family="-apple-system,BlinkMacSystemFont,sans-serif">ChatGPT</text><path d="M440,-820 C490,-820 490,-840 540,-840" fill="none" stroke="#DFB85D" stroke-width="2"/><rect x="540" y="-855" width="457.5999999999999" height="30" rx="6" fill="#fafafa" stroke="none"/><text x="768.8" y="-835" text-anchor="middle" font-size="13" fill="#333" font-family="-apple-system,BlinkMacSystemFont,sans-serif">国外大模型，去年爆火的明星产品，目前ChatGPT3.5可以免注册直接使用了</text><path d="M440,-820 C490,-820 490,-800 540,-800" fill="none" stroke="#DFB85D" stroke-width="2"/><rect x="540" y="-815" width="188.23999999999998" height="30" rx="6" fill="#fafafa" stroke="none"/><text x="634.12" y="-795" text-anchor="middle" font-size="13" fill="#333" font-family="-apple-system,BlinkMacSystemFont,sans-serif">https://chat.openai.com/</text><path d="M271.52,-660 C315.76,-660 315.76,-740 360,-740" fill="none" stroke="#E482D4" stroke-width="2"/><rect x="360" y="-755" width="80" height="30" rx="6" fill="#fafafa" stroke="none"/><text x="400" y="-735" text-anchor="middle" font-size="13" fill="#333" font-family="-apple-system,BlinkMacSystemFont,sans-serif">KIMI</text><path d="M440,-740 C490,-740 490,-760 540,-760" fill="none" stroke="#DFB85D" stroke-width="2"/><rect x="540" y="-775" width="507.52" height="30" rx="6" fill="#fafafa" stroke="none"/><text x="793.76" y="-755" text-anchor="middle" font-size="13" fill="#333" font-family="-apple-system,BlinkMacSystemFont,sans-serif">国内大模型，支持联网搜索、图片识别、文件上传等功能，支持20万长文本的上下文</text><path d="M440,-740 C490,-740 490,-720 540,-720" fill="none" stroke="#DFB85D" stroke-width="2"/><rect x="540" y="-735" width="194.99999999999997" height="30" rx="6" fill="#fafafa" stroke="none"/><text x="637.5" y="-715" text-anchor="middle" font-size="13" fill="#333" font-family="-apple-system,BlinkMacSystemFont,sans-serif">https://kimi.moonshot.cn/</text><path d="M271.52,-660 C315.76,-660 315.76,-660 360,-660" fill="none" stroke="#E482D4" stroke-width="2"/><rect x="360" y="-675" width="80" height="30" rx="6" fill="#fafafa" stroke="none"/><text x="400" y="-655" text-anchor="middle" font-size="13" fill="#333" font-family="-apple-system,BlinkMacSystemFont,sans-serif">豆包</text><path d="M440,-660 C490,-660 490,-680 540,-680" fill="none" stroke="#77C386" stroke-width="2"/><rect x="540" y="-695" width="692.1199999999999" height="30" rx="6" fill="#fafafa" stroke="none"/><text x="886.06" y="-675" text-anchor="middle" font-size="13" fill="#333" font-family="-apple-system,BlinkMacSystemFont,sans-serif">豆包是字节跳动最新推出的免费AI对话工具，提供网页端、iOS和Android端应用程序，可使用手机号和抖音账号登录</text><path d="M440,-660 C490,-660 490,-640 540,-640" fill="none" stroke="#77C386" stroke-width="2"/><rect x="540" y="-655" width="181.48" height="30" rx="6" fill="#fafafa" stroke="none"/><text x="630.74" y="-635" text-anchor="middle" font-size="13" fill="#333" font-family="-apple-system,BlinkMacSystemFont,sans-serif">https://www.doubao.com/</text><path d="M271.52,-660 C315.76,-660 315.76,-580 360,-580" fill="none" stroke="#E482D4" stroke-width="2"/><rect x="360" y="-595" width="80" height="30" rx="6" fill="#fafafa" stroke="none"/><text x="400" y="-575" text-anchor="middle" font-size="13" fill="#333" font-family="-apple-system,BlinkMacSystemFont,sans-serif">文心一言</text><path d="M440,-580 C490,-580 490,-600 540,-600" fill="none" stroke="#E48484" stroke-width="2"/><rect x="540" y="-615" width="1001" height="30" rx="6" fill="#fafafa" stroke="none"/><text x="1040.5" y="-595" text-anchor="middle" font-size="13" fill="#333" font-family="-apple-system,BlinkMacSystemFont,sans-serif">百度推出的一款基于人工智能的对话式大语言模型应用程序，该应用结合了百度的文心知识增强大模型技术，提供自然语言对话、问题解答、文案创作和文档阅读等功能。</text><path d="M440,-580 C490,-580 490,-560 540,-560" fill="none" stroke="#E48484" stroke-width="2"/><rect x="540" y="-575" width="188.23999999999998" height="30" rx="6" fill="#fafafa" stroke="none"/><text x="634.12" y="-555" text-anchor="middle" font-size="13" fill="#333" font-family="-apple-system,BlinkMacSystemFont,sans-serif">https://yiyan.baidu.com/</text><path d="M271.52,-660 C315.76,-660 315.76,-500 360,-500" fill="none" stroke="#E482D4" stroke-width="2"/><rect x="360" y="-515" width="80" height="30" rx="6" fill="#fafafa" stroke="none"/><text x="400" y="-495" text-anchor="middle" font-size="13" fill="#333" font-family="-apple-system,BlinkMacSystemFont,sans-serif">秘塔搜索</text><path d="M440,-500 C490,-500 490,-520 540,-520" fill="none" stroke="#E482D4" stroke-width="2"/><rect x="540" y="-535" width="674.4399999999999" height="30" rx="6" fill="#fafafa" stroke="none"/><text x="877.22" y="-515" text-anchor="middle" font-size="13" fill="#333" font-family="-apple-system,BlinkMacSystemFont,sans-serif">秘塔AI搜索(metaso.cn)于2024年初上线，它是一款能够深入理解您的问题的AI搜索引擎，没有广告，直达结果。</text><path d="M440,-500 C490,-500 490,-480 540,-480" fill="none" stroke="#E482D4" stroke-width="2"/><rect x="540" y="-495" width="147.68000000000004" height="30" rx="6" fill="#fafafa" stroke="none"/><text x="613.84" y="-475" text-anchor="middle" font-size="13" fill="#333" font-family="-apple-system,BlinkMacSystemFont,sans-serif">https://metaso.cn/</text><path d="M60.32,0 C150.32,0 150.32,-340 240.32,-340" fill="none" stroke="#6EC4C4" stroke-width="2"/><rect x="180" y="-355" width="91.52" height="30" rx="6" fill="#fafafa" stroke="none"/><text x="225.76" y="-335" text-anchor="middle" font-size="13" fill="#333" font-family="-apple-system,BlinkMacSystemFont,sans-serif">AI简历工具</text><path d="M271.52,-340 C315.76,-340 315.76,-420 360,-420" fill="none" stroke="#6EC4C4" stroke-width="2"/><rect x="360" y="-435" width="80" height="30" rx="6" fill="#fafafa" stroke="none"/><text x="400" y="-415" text-anchor="middle" font-size="13" fill="#333" font-family="-apple-system,BlinkMacSystemFont,sans-serif">YOO简历</text><path d="M440,-420 C490,-420 490,-440 540,-440" fill="none" stroke="#6EC4C4" stroke-width="2"/><rect x="540" y="-455" width="181.48" height="30" rx="6" fill="#fafafa" stroke="none"/><text x="630.74" y="-435" text-anchor="middle" font-size="13" fill="#333" font-family="-apple-system,BlinkMacSystemFont,sans-serif">http://www.yoojober.cn/</text><path d="M440,-420 C490,-420 490,-400 540,-400" fill="none" stroke="#6EC4C4" stroke-width="2"/><rect x="540" y="-415" width="1651.3899999999999" height="30" rx="6" fill="#fafafa" stroke="none"/><text x="1365.695" y="-395" text-anchor="middle" font-size="13" fill="#333" font-family="-apple-system,BlinkMacSystemFont,sans-serif">YOO简历，除了提供AI在线简历辅助编辑器，还为求职者提供专属职场人的AI简历服务系统，提供了类似简历模板的语义化生成、语句纠错、自动翻译、AI识别与解析 、导入生成、多样式切换、模块补充等等大量功能，极大了降低了简历文档的写作门槛，快速写出更高面试率的简历。</text><path d="M271.52,-340 C315.76,-340 315.76,-340 360,-340" fill="none" stroke="#6EC4C4" stroke-width="2"/><rect x="360" y="-355" width="113.88000000000001" height="30" rx="6" fill="#fafafa" stroke="none"/><text x="416.94" y="-335" text-anchor="middle" font-size="13" fill="#333" font-family="-apple-system,BlinkMacSystemFont,sans-serif">ElegantResume</text><path d="M473.88,-340 C506.94,-340 506.94,-360 540,-360" fill="none" stroke="#6EC4C4" stroke-width="2"/><rect x="540" y="-375" width="228.79999999999993" height="30" rx="6" fill="#fafafa" stroke="none"/><text x="654.4" y="-355" text-anchor="middle" font-size="13" fill="#333" font-family="-apple-system,BlinkMacSystemFont,sans-serif">https://www.elegantresume.pro/</text><path d="M473.88,-340 C506.94,-340 506.94,-320 540,-320" fill="none" stroke="#6EC4C4" stroke-width="2"/><rect x="540" y="-335" width="594.88" height="30" rx="6" fill="#fafafa" stroke="none"/><text x="837.44" y="-315" text-anchor="middle" font-size="13" fill="#333" font-family="-apple-system,BlinkMacSystemFont,sans-serif">ElegantResume是一个免费的在线简历制作网站，致力于让用户专注于简历内容而不是排版和格式。</text><path d="M271.52,-340 C315.76,-340 315.76,-260 360,-260" fill="none" stroke="#6EC4C4" stroke-width="2"/><rect x="360" y="-275" width="80" height="30" rx="6" fill="#fafafa" stroke="none"/><text x="400" y="-255" text-anchor="middle" font-size="13" fill="#333" font-family="-apple-system,BlinkMacSystemFont,sans-serif">简历Bot</text><path d="M440,-260 C490,-260 490,-280 540,-280" fill="none" stroke="#6EC4C4" stroke-width="2"/><rect x="540" y="-295" width="262.5999999999999" height="30" rx="6" fill="#fafafa" stroke="none"/><text x="671.3" y="-275" text-anchor="middle" font-size="13" fill="#333" font-family="-apple-system,BlinkMacSystemFont,sans-serif">https://www.coderutil.com/jianlibot</text><path d="M440,-260 C490,-260 490,-240 540,-240" fill="none" stroke="#6EC4C4" stroke-width="2"/><rect x="540" y="-255" width="891.8" height="30" rx="6" fill="#fafafa" stroke="none"/><text x="985.9" y="-235" text-anchor="middle" font-size="13" fill="#333" font-family="-apple-system,BlinkMacSystemFont,sans-serif">好的简历是敲门砖！在简历Bot，你可以轻松实现在线简历编辑，所见即所得、一键导出、智能化简历辅助工具、AI助手简历分析、面试经验交流社区。</text><path d="M60.32,0 C150.32,0 150.32,320 240.32,320" fill="none" stroke="#6F81DB" stroke-width="2"/><rect x="180" y="305" width="195" height="30" rx="6" fill="#fafafa" stroke="none"/><text x="277.5" y="325" text-anchor="middle" font-size="13" fill="#333" font-family="-apple-system,BlinkMacSystemFont,sans-serif">大语言模型的提示词怎么写？</text><path d="M375,320 C367.5,320 367.5,40 360,40" fill="none" stroke="#6F81DB" stroke-width="2"/><rect x="360" y="25" width="80" height="30" rx="6" fill="#fafafa" stroke="none"/><text x="400" y="45" text-anchor="middle" font-size="13" fill="#333" font-family="-apple-system,BlinkMacSystemFont,sans-serif">推荐学习</text><path d="M440,40 C490,40 490,-200 540,-200" fill="none" stroke="#6F81DB" stroke-width="2"/><rect x="540" y="-215" width="296.39999999999986" height="30" rx="6" fill="#fafafa" stroke="none"/><text x="688.1999999999999" y="-195" text-anchor="middle" font-size="13" fill="#333" font-family="-apple-system,BlinkMacSystemFont,sans-serif">https://learningprompt.wiki/zh-Hans/docs</text><path d="M440,40 C490,40 490,-160 540,-160" fill="none" stroke="#6F81DB" stroke-width="2"/><rect x="540" y="-175" width="131.56" height="30" rx="6" fill="#fafafa" stroke="none"/><text x="605.78" y="-155" text-anchor="middle" font-size="13" fill="#333" font-family="-apple-system,BlinkMacSystemFont,sans-serif">Prompt的设计原则</text><path d="M671.56,-160 C695.78,-160 695.78,-160 720,-160" fill="none" stroke="#6F81DB" stroke-width="2"/><rect x="720" y="-175" width="1339" height="30" rx="6" fill="#fafafa" stroke="none"/><text x="1389.5" y="-155" text-anchor="middle" font-size="13" fill="#333" font-family="-apple-system,BlinkMacSystemFont,sans-serif">清晰，切忌复杂或歧义，如果有术语，应定义清楚。具体，描述语言应尽量具体，不要抽象活模棱两可。聚焦，问题避免太泛或开放。简洁，避免不必要的描述。相关，主要指主题相关，而且是整个对话期间，不要东一瓢西一瓤。</text><path d="M440,40 C490,40 490,80 540,80" fill="none" stroke="#6F81DB" stroke-width="2"/><rect x="540" y="65" width="104" height="30" rx="6" fill="#fafafa" stroke="none"/><text x="592" y="85" text-anchor="middle" font-size="13" fill="#333" font-family="-apple-system,BlinkMacSystemFont,sans-serif">四种基础模式</text><path d="M644,80 C682,80 682,-40 720,-40" fill="none" stroke="#6F81DB" stroke-width="2"/><rect x="720" y="-55" width="1437.15" height="30" rx="6" fill="#fafafa" stroke="none"/><text x="1438.575" y="-35" text-anchor="middle" font-size="13" fill="#333" font-family="-apple-system,BlinkMacSystemFont,sans-serif">特定指令（By specific）：在这种模式下，我们给模型提供一些特定信息，例如问题或关键词，模型需要生成与这些信息相关的文本。这种模式通常用于生成答案、解释或推荐等。特定信息可以是单个问题或多个关键词，具体取决于任务的要求。</text><path d="M2157.15,-40 C1528.575,-40 1528.575,-120 900,-120" fill="none" stroke="#6F81DB" stroke-width="2"/><rect x="900" y="-135" width="91" height="30" rx="6" fill="#fafafa" stroke="none"/><text x="945.5" y="-115" text-anchor="middle" font-size="13" fill="#333" font-family="-apple-system,BlinkMacSystemFont,sans-serif">翻译某句话</text><path d="M2157.15,-40 C1528.575,-40 1528.575,-80 900,-80" fill="none" stroke="#6F81DB" stroke-width="2"/><rect x="900" y="-95" width="104" height="30" rx="6" fill="#fafafa" stroke="none"/><text x="952" y="-75" text-anchor="middle" font-size="13" fill="#333" font-family="-apple-system,BlinkMacSystemFont,sans-serif">写一首藏头诗</text><path d="M2157.15,-40 C1528.575,-40 1528.575,-40 900,-40" fill="none" stroke="#6F81DB" stroke-width="2"/><rect x="900" y="-55" width="156" height="30" rx="6" fill="#fafafa" stroke="none"/><text x="978" y="-35" text-anchor="middle" font-size="13" fill="#333" font-family="-apple-system,BlinkMacSystemFont,sans-serif">解释一下这首诗的意思</text><path d="M2157.15,-40 C1528.575,-40 1528.575,0 900,0" fill="none" stroke="#6F81DB" stroke-width="2"/><rect x="900" y="-15" width="221" height="30" rx="6" fill="#fafafa" stroke="none"/><text x="1010.5" y="5" text-anchor="middle" font-size="13" fill="#333" font-family="-apple-system,BlinkMacSystemFont,sans-serif">写一个验证电子邮箱的正则表达式</text><path d="M2157.15,-40 C1528.575,-40 1528.575,40 900,40" fill="none" stroke="#6F81DB" stroke-width="2"/><rect x="900" y="25" width="80" height="30" rx="6" fill="#fafafa" stroke="none"/><text x="940" y="45" text-anchor="middle" font-size="13" fill="#333" font-family="-apple-system,BlinkMacSystemFont,sans-serif">……</text><path d="M644,80 C682,80 682,100 720,100" fill="none" stroke="#6F81DB" stroke-width="2"/><rect x="720" y="85" width="1510.99" height="30" rx="6" fill="#fafafa" stroke="none"/><text x="1475.495" y="105" text-anchor="middle" font-size="13" fill="#333" font-family="-apple-system,BlinkMacSystemFont,sans-serif">指令模板（Instruction Template）：在这种模式下，我们给模型提供一些明确的指令，模型需要根据这些指令生成文本。这种模式通常用于生成类似于技术说明书、操作手册等需要明确指令的文本。指令可以是单个句子或多个段落，具体取决于任务的要求。</text><path d="M2230.99,100 C1565.495,100 1565.495,80 900,80" fill="none" stroke="#6F81DB" stroke-width="2"/><rect x="900" y="65" width="649.7399999999999" height="30" rx="6" fill="#fafafa" stroke="none"/><text x="1224.87" y="85" text-anchor="middle" font-size="13" fill="#333" font-family="-apple-system,BlinkMacSystemFont,sans-serif">请使用STAR法则总结一下这段话，同时按照我给出的格式进行输出：&quot;&quot;&quot; 表示这段话 &quot;&quot;&quot;格式是这样的：XXXX</text><path d="M2230.99,100 C1565.495,100 1565.495,120 900,120" fill="none" stroke="#6F81DB" stroke-width="2"/><rect x="900" y="105" width="1359.28" height="30" rx="6" fill="#fafafa" stroke="none"/><text x="1579.6399999999999" y="125" text-anchor="middle" font-size="13" fill="#333" font-family="-apple-system,BlinkMacSystemFont,sans-serif">请使用表格的方式整理一下中国和东南亚各个国家的时区，如果需要以北京时间为基准，在凌晨某个时间点（凌晨0点-凌晨6点以内）执行一个定时任务，确保中国和东南亚各个国家都可以在同一天执行的话，应该是在什么时间段内？</text><path d="M644,80 C682,80 682,180 720,180" fill="none" stroke="#6F81DB" stroke-width="2"/><rect x="720" y="165" width="2182.959999999999" height="30" rx="6" fill="#fafafa" stroke="none"/><text x="1811.4799999999996" y="185" text-anchor="middle" font-size="13" fill="#333" font-family="-apple-system,BlinkMacSystemFont,sans-serif">代理模式（By proxy）：在这种模式下，可以充当了一个代理，代表某个实体（例如人、角色、机器人等）进行操作或交互。代理模式的核心思想是引入一个中介对象来控制对实际对象的访问，从而实现一定程度上的隔离和保护。诸如于在 ChatGPT 中，”act as xxx” 可以让 ChatGPT 充当一个代理，扮演某个角色或实体的身份，以此来处理与该角色或实体相关的任务或请求。</text><path d="M2902.959999999999,180 C1901.4799999999996,180 1901.4799999999996,160 900,160" fill="none" stroke="#6F81DB" stroke-width="2"/><rect x="900" y="145" width="521.56" height="30" rx="6" fill="#fafafa" stroke="none"/><text x="1160.78" y="165" text-anchor="middle" font-size="13" fill="#333" font-family="-apple-system,BlinkMacSystemFont,sans-serif">请你扮演一个XX角色，我现在遇到了一个XX问题，我需要做XX，请你给我一些行动指南</text><path d="M2902.959999999999,180 C1901.4799999999996,180 1901.4799999999996,200 900,200" fill="none" stroke="#6F81DB" stroke-width="2"/><rect x="900" y="185" width="520" height="30" rx="6" fill="#fafafa" stroke="none"/><text x="1160" y="205" text-anchor="middle" font-size="13" fill="#333" font-family="-apple-system,BlinkMacSystemFont,sans-serif">我是一家餐饮公司的客服，有顾客反馈说我们的菜品质量有问题，我们该怎么处理呢？</text><path d="M644,80 C682,80 682,260 720,260" fill="none" stroke="#6F81DB" stroke-width="2"/><rect x="720" y="245" width="1639.95" height="30" rx="6" fill="#fafafa" stroke="none"/><text x="1539.975" y="265" text-anchor="middle" font-size="13" fill="#333" font-family="-apple-system,BlinkMacSystemFont,sans-serif">示例模式（By demonstration）：在这种模式下，我们给模型提供一些示例文本，模型需要生成与示例文本类似的文本。这种模式通常用于生成类似于给定示例的文本，例如自动生成电子邮件、产品描述、新闻报道等。示例文本可以是单个句子或多个段落，具体取决于任务的要求。</text><path d="M2359.95,260 C1629.975,260 1629.975,240 900,240" fill="none" stroke="#6F81DB" stroke-width="2"/><rect x="900" y="225" width="410.79999999999995" height="30" rx="6" fill="#fafafa" stroke="none"/><text x="1105.4" y="245" text-anchor="middle" font-size="13" fill="#333" font-family="-apple-system,BlinkMacSystemFont,sans-serif">我会给你一段内容，请你按照这个格式，输出一份关于“XXX”的文章</text><path d="M2359.95,260 C1629.975,260 1629.975,280 900,280" fill="none" stroke="#6F81DB" stroke-width="2"/><rect x="900" y="265" width="469.03999999999996" height="30" rx="6" fill="#fafafa" stroke="none"/><text x="1134.52" y="285" text-anchor="middle" font-size="13" fill="#333" font-family="-apple-system,BlinkMacSystemFont,sans-serif">我会给你一首歌的歌词，请你按照类似的结构，创作一首以“XX”为主题的歌曲</text><path d="M375,320 C367.5,320 367.5,380 360,380" fill="none" stroke="#6F81DB" stroke-width="2"/><rect x="360" y="365" width="280.28" height="30" rx="6" fill="#fafafa" stroke="none"/><text x="500.14" y="385" text-anchor="middle" font-size="13" fill="#333" font-family="-apple-system,BlinkMacSystemFont,sans-serif">最常用的提示词模板：角色+背景+任务+要求</text><path d="M640.28,380 C590.14,380 590.14,320 540,320" fill="none" stroke="#6F81DB" stroke-width="2"/><rect x="540" y="305" width="931.8399999999999" height="30" rx="6" fill="#fafafa" stroke="none"/><text x="1005.92" y="325" text-anchor="middle" font-size="13" fill="#333" font-family="-apple-system,BlinkMacSystemFont,sans-serif">首先第一个，“定义角色”。就是你到底需要AI扮演什么样的角色。比如，对AI说：1、你是一名北京本地导游2、你是教育公司的营销人员3、你是一位健身教练</text><path d="M640.28,380 C590.14,380 590.14,360 540,360" fill="none" stroke="#6F81DB" stroke-width="2"/><rect x="540" y="345" width="820.04" height="30" rx="6" fill="#fafafa" stroke="none"/><text x="950.02" y="365" text-anchor="middle" font-size="13" fill="#333" font-family="-apple-system,BlinkMacSystemFont,sans-serif">第二个是“背景信息”。尽量把背景信息、前提条件一次性地交代清楚。而且，你提供的背景信息越多、越准确，AI给你的结果就会越惊艳。</text><path d="M640.28,380 C590.14,380 590.14,400 540,400" fill="none" stroke="#6F81DB" stroke-width="2"/><rect x="540" y="385" width="481.52" height="30" rx="6" fill="#fafafa" stroke="none"/><text x="780.76" y="405" text-anchor="middle" font-size="13" fill="#333" font-family="-apple-system,BlinkMacSystemFont,sans-serif">第三个元素是任务目标。就是把你想让AI做成的事情写在这里，要做什么事情。</text><path d="M640.28,380 C590.14,380 590.14,440 540,440" fill="none" stroke="#6F81DB" stroke-width="2"/><rect x="540" y="425" width="923.52" height="30" rx="6" fill="#fafafa" stroke="none"/><text x="1001.76" y="445" text-anchor="middle" font-size="13" fill="#333" font-family="-apple-system,BlinkMacSystemFont,sans-serif">你希望AI以什么方式完成这个任务，也可以理解是限制性条件比如，格式要求，是表格还是纯文字？再比如，回答节奏，是一步一步分开，还是整体给出答复</text><path d="M375,320 C367.5,320 367.5,480 360,480" fill="none" stroke="#6F81DB" stroke-width="2"/><rect x="360" y="465" width="80" height="30" rx="6" fill="#fafafa" stroke="none"/><text x="400" y="485" text-anchor="middle" font-size="13" fill="#333" font-family="-apple-system,BlinkMacSystemFont,sans-serif">案例1</text><path d="M440,480 C490,480 490,480 540,480" fill="none" stroke="#6F81DB" stroke-width="2"/><rect x="540" y="465" width="1294.8" height="30" rx="6" fill="#fafafa" stroke="none"/><text x="1187.4" y="485" text-anchor="middle" font-size="13" fill="#333" font-family="-apple-system,BlinkMacSystemFont,sans-serif">请你扮演一个资深的产品经理面试官的角色，现在我要去面试产品经理岗位，你是我的面试官，请像一个面试官一样对我提出面试问题，我回答以后你可以自动继续提问下一个问题。你的提问可以用“请问XXX”的形式开头。</text><path d="M375,320 C367.5,320 367.5,520 360,520" fill="none" stroke="#6F81DB" stroke-width="2"/><rect x="360" y="505" width="80" height="30" rx="6" fill="#fafafa" stroke="none"/><text x="400" y="525" text-anchor="middle" font-size="13" fill="#333" font-family="-apple-system,BlinkMacSystemFont,sans-serif">案例2</text><path d="M440,520 C490,520 490,520 540,520" fill="none" stroke="#6F81DB" stroke-width="2"/><rect x="540" y="505" width="2594.2799999999997" height="30" rx="6" fill="#fafafa" stroke="none"/><text x="1837.1399999999999" y="525" text-anchor="middle" font-size="13" fill="#333" font-family="-apple-system,BlinkMacSystemFont,sans-serif">【R-角色】：你是一个资深的WMS产品经理，熟悉WMS的各个模块的产品功能设计。【B-背景】：我现在需要搭建一套WMS系统，但是我之前没有接触过相关的业务。【T-任务】：请你输出一份WMS的功能清单和功能所对应的业务场景介绍，帮助我理解仓库中有什么业务，需要设计什么产品功能来满足。【R-要求】：使用Markdown的格式输出结果，功能清单使用表格的形式展示，同时后面接入相关的业务介绍等，描述的越详细越好，做到通俗易懂。</text><path d="M375,320 C367.5,320 367.5,700 360,700" fill="none" stroke="#6F81DB" stroke-width="2"/><rect x="360" y="685" width="80" height="30" rx="6" fill="#fafafa" stroke="none"/><text x="400" y="705" text-anchor="middle" font-size="13" fill="#333" font-family="-apple-system,BlinkMacSystemFont,sans-serif">案例3</text><path d="M440,700 C490,700 490,700 540,700" fill="none" stroke="#6F81DB" stroke-width="2"/><rect x="540" y="685" width="80" height="30" rx="6" fill="#fafafa" stroke="none"/><text x="580" y="705" text-anchor="middle" font-size="13" fill="#333" font-family="-apple-system,BlinkMacSystemFont,sans-serif"></text><path d="M620,700 C670,700 670,560 720,560" fill="none" stroke="#6F81DB" stroke-width="2"/><rect x="720" y="545" width="1310.9199999999998" height="30" rx="6" fill="#fafafa" stroke="none"/><text x="1375.46" y="565" text-anchor="middle" font-size="13" fill="#333" font-family="-apple-system,BlinkMacSystemFont,sans-serif">你是一个资深的供应链产品经理，熟悉多个供应链系统从0到1的搭建，包含但不限于WMS，SRM，ERP，OMS，TMS等，现在我需要写一份类似的简历，请你根据网络上比较优秀的简历模板，虚拟编辑一份简历，以供我参考学习。</text><path d="M620,700 C670,700 670,600 720,600" fill="none" stroke="#6F81DB" stroke-width="2"/><rect x="720" y="585" width="195" height="30" rx="6" fill="#fafafa" stroke="none"/><text x="817.5" y="605" text-anchor="middle" font-size="13" fill="#333" font-family="-apple-system,BlinkMacSystemFont,sans-serif">简历一共分成这么几个部分：</text><path d="M620,700 C670,700 670,640 720,640" fill="none" stroke="#6F81DB" stroke-width="2"/><rect x="720" y="625" width="351.52" height="30" rx="6" fill="#fafafa" stroke="none"/><text x="895.76" y="645" text-anchor="middle" font-size="13" fill="#333" font-family="-apple-system,BlinkMacSystemFont,sans-serif">1.基础信息，展示个人的姓名，电话，年龄，求职意向等</text><path d="M620,700 C670,700 670,680 720,680" fill="none" stroke="#6F81DB" stroke-width="2"/><rect x="720" y="665" width="618.28" height="30" rx="6" fill="#fafafa" stroke="none"/><text x="1029.1399999999999" y="685" text-anchor="middle" font-size="13" fill="#333" font-family="-apple-system,BlinkMacSystemFont,sans-serif">2.自我评价：供应链产品经理工作时长8年左右，分成多个小点结构化地展示自己的业务能力和产品能力</text><path d="M620,700 C670,700 670,720 720,720" fill="none" stroke="#6F81DB" stroke-width="2"/><rect x="720" y="705" width="384.28" height="30" rx="6" fill="#fafafa" stroke="none"/><text x="912.14" y="725" text-anchor="middle" font-size="13" fill="#333" font-family="-apple-system,BlinkMacSystemFont,sans-serif">3.工作经历：4家，要体现公司介绍，任职岗位和所取得的成绩</text><path d="M620,700 C670,700 670,760 720,760" fill="none" stroke="#6F81DB" stroke-width="2"/><rect x="720" y="745" width="346.31999999999994" height="30" rx="6" fill="#fafafa" stroke="none"/><text x="893.16" y="765" text-anchor="middle" font-size="13" fill="#333" font-family="-apple-system,BlinkMacSystemFont,sans-serif">4.项目经历：4个项目，要采用STAR法则来编写项目经历</text><path d="M620,700 C670,700 670,800 720,800" fill="none" stroke="#6F81DB" stroke-width="2"/><rect x="720" y="785" width="195.51999999999998" height="30" rx="6" fill="#fafafa" stroke="none"/><text x="817.76" y="805" text-anchor="middle" font-size="13" fill="#333" font-family="-apple-system,BlinkMacSystemFont,sans-serif">5.教育背景：占位符表示即可</text><path d="M620,700 C670,700 670,840 720,840" fill="none" stroke="#6F81DB" stroke-width="2"/><rect x="720" y="825" width="1017.6399999999999" height="30" rx="6" fill="#fafafa" stroke="none"/><text x="1228.82" y="845" text-anchor="middle" font-size="13" fill="#333" font-family="-apple-system,BlinkMacSystemFont,sans-serif">简历大概在1500字以内，要突出对供应链业务的熟练度，同时也突出对供应链系统的从0到1的项目落地经验，简历要有数据化的内容，有信服力，采用Markdown的形式表现。</text>
</svg>