<svg xmlns="http://www.w3.org/2000/svg" xmlns:xlink="http://www.w3.org/1999/xlink"
  viewBox="-200 -1839 1409.52 3678" width="1409.52" height="3678"
  style="background:#fff; font-family:-apple-system,BlinkMacSystemFont,'Segoe UI',Roboto,sans-serif;">
<defs></defs>
<rect x="-200" y="-1839" width="1409.52" height="3678" fill="#fff"/>
<rect x="-116" y="-18" width="232" height="36" rx="8" fill="rgb(245, 245, 245)" stroke="none"/><text x="0" y="6" text-anchor="middle" font-size="16" font-weight="bold" fill="#333" font-family="-apple-system,BlinkMacSystemFont,sans-serif">跨境物流与海外仓系统介绍</text><path d="M116,0 C206,0 206,-1580 296,-1580" fill="none" stroke="#77C386" stroke-width="2"/><rect x="180" y="-1595" width="80" height="30" rx="6" fill="#fafafa" stroke="none"/><text x="220" y="-1575" text-anchor="middle" font-size="13" fill="#333" font-family="-apple-system,BlinkMacSystemFont,sans-serif">相关系统</text><path d="M260,-1580 C310,-1580 310,-1680 360,-1680" fill="none" stroke="#77C386" stroke-width="2"/><rect x="360" y="-1695" width="91" height="30" rx="6" fill="#fafafa" stroke="none"/><text x="405.5" y="-1675" text-anchor="middle" font-size="13" fill="#333" font-family="-apple-system,BlinkMacSystemFont,sans-serif">物流类系统</text><path d="M451,-1680 C495.5,-1680 495.5,-1740 540,-1740" fill="none" stroke="#A287E1" stroke-width="2"/><rect x="540" y="-1755" width="80" height="30" rx="6" fill="#fafafa" stroke="none"/><text x="580" y="-1735" text-anchor="middle" font-size="13" fill="#333" font-family="-apple-system,BlinkMacSystemFont,sans-serif">TMS/LMS</text><path d="M620,-1740 C670,-1740 670,-1740 720,-1740" fill="none" stroke="#A287E1" stroke-width="2"/><rect x="720" y="-1755" width="80" height="30" rx="6" fill="#fafafa" stroke="none"/><text x="760" y="-1735" text-anchor="middle" font-size="13" fill="#333" font-family="-apple-system,BlinkMacSystemFont,sans-serif"></text><path d="M451,-1680 C495.5,-1680 495.5,-1700 540,-1700" fill="none" stroke="#A287E1" stroke-width="2"/><rect x="540" y="-1715" width="104" height="30" rx="6" fill="#fafafa" stroke="none"/><text x="592" y="-1695" text-anchor="middle" font-size="13" fill="#333" font-family="-apple-system,BlinkMacSystemFont,sans-serif">物流打单系统</text><path d="M644,-1700 C682,-1700 682,-1700 720,-1700" fill="none" stroke="#A287E1" stroke-width="2"/><rect x="720" y="-1715" width="80" height="30" rx="6" fill="#fafafa" stroke="none"/><text x="760" y="-1695" text-anchor="middle" font-size="13" fill="#333" font-family="-apple-system,BlinkMacSystemFont,sans-serif"></text><path d="M451,-1680 C495.5,-1680 495.5,-1640 540,-1640" fill="none" stroke="#A287E1" stroke-width="2"/><rect x="540" y="-1655" width="104" height="30" rx="6" fill="#fafafa" stroke="none"/><text x="592" y="-1635" text-anchor="middle" font-size="13" fill="#333" font-family="-apple-system,BlinkMacSystemFont,sans-serif">物流轨迹追踪</text><path d="M644,-1640 C682,-1640 682,-1660 720,-1660" fill="none" stroke="#A287E1" stroke-width="2"/><rect x="720" y="-1675" width="80" height="30" rx="6" fill="#fafafa" stroke="none"/><text x="760" y="-1655" text-anchor="middle" font-size="13" fill="#333" font-family="-apple-system,BlinkMacSystemFont,sans-serif"></text><path d="M644,-1640 C682,-1640 682,-1620 720,-1620" fill="none" stroke="#A287E1" stroke-width="2"/><rect x="720" y="-1635" width="80" height="30" rx="6" fill="#fafafa" stroke="none"/><text x="760" y="-1615" text-anchor="middle" font-size="13" fill="#333" font-family="-apple-system,BlinkMacSystemFont,sans-serif"></text><path d="M260,-1580 C310,-1580 310,-1560 360,-1560" fill="none" stroke="#77C386" stroke-width="2"/><rect x="360" y="-1575" width="91" height="30" rx="6" fill="#fafafa" stroke="none"/><text x="405.5" y="-1555" text-anchor="middle" font-size="13" fill="#333" font-family="-apple-system,BlinkMacSystemFont,sans-serif">仓储类系统</text><path d="M451,-1560 C495.5,-1560 495.5,-1560 540,-1560" fill="none" stroke="#6F81DB" stroke-width="2"/><rect x="540" y="-1575" width="80" height="30" rx="6" fill="#fafafa" stroke="none"/><text x="580" y="-1555" text-anchor="middle" font-size="13" fill="#333" font-family="-apple-system,BlinkMacSystemFont,sans-serif">WMS</text><path d="M620,-1560 C670,-1560 670,-1580 720,-1580" fill="none" stroke="#6F81DB" stroke-width="2"/><rect x="720" y="-1595" width="80" height="30" rx="6" fill="#fafafa" stroke="none"/><text x="760" y="-1575" text-anchor="middle" font-size="13" fill="#333" font-family="-apple-system,BlinkMacSystemFont,sans-serif"></text><path d="M620,-1560 C670,-1560 670,-1540 720,-1540" fill="none" stroke="#6F81DB" stroke-width="2"/><rect x="720" y="-1555" width="80" height="30" rx="6" fill="#fafafa" stroke="none"/><text x="760" y="-1535" text-anchor="middle" font-size="13" fill="#333" font-family="-apple-system,BlinkMacSystemFont,sans-serif"></text><path d="M260,-1580 C310,-1580 310,-1460 360,-1460" fill="none" stroke="#77C386" stroke-width="2"/><rect x="360" y="-1475" width="91" height="30" rx="6" fill="#fafafa" stroke="none"/><text x="405.5" y="-1455" text-anchor="middle" font-size="13" fill="#333" font-family="-apple-system,BlinkMacSystemFont,sans-serif">支撑类系统</text><path d="M451,-1460 C495.5,-1460 495.5,-1500 540,-1500" fill="none" stroke="#77C386" stroke-width="2"/><rect x="540" y="-1515" width="80" height="30" rx="6" fill="#fafafa" stroke="none"/><text x="580" y="-1495" text-anchor="middle" font-size="13" fill="#333" font-family="-apple-system,BlinkMacSystemFont,sans-serif">OMS</text><path d="M620,-1500 C670,-1500 670,-1500 720,-1500" fill="none" stroke="#77C386" stroke-width="2"/><rect x="720" y="-1515" width="104" height="30" rx="6" fill="#fafafa" stroke="none"/><text x="772" y="-1495" text-anchor="middle" font-size="13" fill="#333" font-family="-apple-system,BlinkMacSystemFont,sans-serif">订单管理系统</text><path d="M451,-1460 C495.5,-1460 495.5,-1460 540,-1460" fill="none" stroke="#77C386" stroke-width="2"/><rect x="540" y="-1475" width="80" height="30" rx="6" fill="#fafafa" stroke="none"/><text x="580" y="-1455" text-anchor="middle" font-size="13" fill="#333" font-family="-apple-system,BlinkMacSystemFont,sans-serif">BMS</text><path d="M620,-1460 C670,-1460 670,-1460 720,-1460" fill="none" stroke="#77C386" stroke-width="2"/><rect x="720" y="-1475" width="104" height="30" rx="6" fill="#fafafa" stroke="none"/><text x="772" y="-1455" text-anchor="middle" font-size="13" fill="#333" font-family="-apple-system,BlinkMacSystemFont,sans-serif">费用管理系统</text><path d="M451,-1460 C495.5,-1460 495.5,-1420 540,-1420" fill="none" stroke="#77C386" stroke-width="2"/><rect x="540" y="-1435" width="162.76" height="30" rx="6" fill="#fafafa" stroke="none"/><text x="621.38" y="-1415" text-anchor="middle" font-size="13" fill="#333" font-family="-apple-system,BlinkMacSystemFont,sans-serif">基础数据/运营管理系统</text><path d="M116,0 C206,0 206,-1340 296,-1340" fill="none" stroke="#B1C774" stroke-width="2"/><rect x="180" y="-1355" width="91" height="30" rx="6" fill="#fafafa" stroke="none"/><text x="225.5" y="-1335" text-anchor="middle" font-size="13" fill="#333" font-family="-apple-system,BlinkMacSystemFont,sans-serif">资讯类网站</text><path d="M271,-1340 C315.5,-1340 315.5,-1380 360,-1380" fill="none" stroke="#B1C774" stroke-width="2"/><rect x="360" y="-1395" width="80" height="30" rx="6" fill="#fafafa" stroke="none"/><text x="400" y="-1375" text-anchor="middle" font-size="13" fill="#333" font-family="-apple-system,BlinkMacSystemFont,sans-serif">AMZ123</text><path d="M271,-1340 C315.5,-1340 315.5,-1340 360,-1340" fill="none" stroke="#B1C774" stroke-width="2"/><rect x="360" y="-1355" width="80" height="30" rx="6" fill="#fafafa" stroke="none"/><text x="400" y="-1335" text-anchor="middle" font-size="13" fill="#333" font-family="-apple-system,BlinkMacSystemFont,sans-serif">雨果跨境</text><path d="M271,-1340 C315.5,-1340 315.5,-1300 360,-1300" fill="none" stroke="#B1C774" stroke-width="2"/><rect x="360" y="-1315" width="80" height="30" rx="6" fill="#fafafa" stroke="none"/><text x="400" y="-1295" text-anchor="middle" font-size="13" fill="#333" font-family="-apple-system,BlinkMacSystemFont,sans-serif">跨境知道</text><path d="M116,0 C206,0 206,-660 296,-660" fill="none" stroke="#6EC4C4" stroke-width="2"/><rect x="180" y="-675" width="130" height="30" rx="6" fill="#fafafa" stroke="none"/><text x="245" y="-655" text-anchor="middle" font-size="13" fill="#333" font-family="-apple-system,BlinkMacSystemFont,sans-serif">市面上的一些玩家</text><path d="M310,-660 C335,-660 335,-900 360,-900" fill="none" stroke="#6EC4C4" stroke-width="2"/><rect x="360" y="-915" width="97.75999999999999" height="30" rx="6" fill="#fafafa" stroke="none"/><text x="408.88" y="-895" text-anchor="middle" font-size="13" fill="#333" font-family="-apple-system,BlinkMacSystemFont,sans-serif">自研/服务类</text><path d="M457.76,-900 C498.88,-900 498.88,-1240 540,-1240" fill="none" stroke="#6EC4C4" stroke-width="2"/><rect x="540" y="-1255" width="130" height="30" rx="6" fill="#fafafa" stroke="none"/><text x="605" y="-1235" text-anchor="middle" font-size="13" fill="#333" font-family="-apple-system,BlinkMacSystemFont,sans-serif">联宇物流（头程）</text><path d="M670,-1240 C695,-1240 695,-1260 720,-1260" fill="none" stroke="#6EC4C4" stroke-width="2"/><rect x="720" y="-1275" width="80" height="30" rx="6" fill="#fafafa" stroke="none"/><text x="760" y="-1255" text-anchor="middle" font-size="13" fill="#333" font-family="-apple-system,BlinkMacSystemFont,sans-serif">WMS</text><path d="M670,-1240 C695,-1240 695,-1220 720,-1220" fill="none" stroke="#6EC4C4" stroke-width="2"/><rect x="720" y="-1235" width="80" height="30" rx="6" fill="#fafafa" stroke="none"/><text x="760" y="-1215" text-anchor="middle" font-size="13" fill="#333" font-family="-apple-system,BlinkMacSystemFont,sans-serif">TMS</text><path d="M457.76,-900 C498.88,-900 498.88,-1160 540,-1160" fill="none" stroke="#6EC4C4" stroke-width="2"/><rect x="540" y="-1175" width="117" height="30" rx="6" fill="#fafafa" stroke="none"/><text x="598.5" y="-1155" text-anchor="middle" font-size="13" fill="#333" font-family="-apple-system,BlinkMacSystemFont,sans-serif">大森林（头程）</text><path d="M657,-1160 C688.5,-1160 688.5,-1180 720,-1180" fill="none" stroke="#6EC4C4" stroke-width="2"/><rect x="720" y="-1195" width="80" height="30" rx="6" fill="#fafafa" stroke="none"/><text x="760" y="-1175" text-anchor="middle" font-size="13" fill="#333" font-family="-apple-system,BlinkMacSystemFont,sans-serif">TMS</text><path d="M657,-1160 C688.5,-1160 688.5,-1140 720,-1140" fill="none" stroke="#6EC4C4" stroke-width="2"/><rect x="720" y="-1155" width="80" height="30" rx="6" fill="#fafafa" stroke="none"/><text x="760" y="-1135" text-anchor="middle" font-size="13" fill="#333" font-family="-apple-system,BlinkMacSystemFont,sans-serif">WMS</text><path d="M457.76,-900 C498.88,-900 498.88,-1020 540,-1020" fill="none" stroke="#6EC4C4" stroke-width="2"/><rect x="540" y="-1035" width="80" height="30" rx="6" fill="#fafafa" stroke="none"/><text x="580" y="-1015" text-anchor="middle" font-size="13" fill="#333" font-family="-apple-system,BlinkMacSystemFont,sans-serif">纵腾</text><path d="M620,-1020 C670,-1020 670,-1060 720,-1060" fill="none" stroke="#6EC4C4" stroke-width="2"/><rect x="720" y="-1075" width="80" height="30" rx="6" fill="#fafafa" stroke="none"/><text x="760" y="-1055" text-anchor="middle" font-size="13" fill="#333" font-family="-apple-system,BlinkMacSystemFont,sans-serif">谷仓WMS</text><path d="M800,-1060 C850,-1060 850,-1100 900,-1100" fill="none" stroke="#6EC4C4" stroke-width="2"/><rect x="900" y="-1115" width="80" height="30" rx="6" fill="#fafafa" stroke="none"/><text x="940" y="-1095" text-anchor="middle" font-size="13" fill="#333" font-family="-apple-system,BlinkMacSystemFont,sans-serif">OMS</text><path d="M800,-1060 C850,-1060 850,-1060 900,-1060" fill="none" stroke="#6EC4C4" stroke-width="2"/><rect x="900" y="-1075" width="80" height="30" rx="6" fill="#fafafa" stroke="none"/><text x="940" y="-1055" text-anchor="middle" font-size="13" fill="#333" font-family="-apple-system,BlinkMacSystemFont,sans-serif">BMS</text><path d="M800,-1060 C850,-1060 850,-1020 900,-1020" fill="none" stroke="#6EC4C4" stroke-width="2"/><rect x="900" y="-1035" width="80" height="30" rx="6" fill="#fafafa" stroke="none"/><text x="940" y="-1015" text-anchor="middle" font-size="13" fill="#333" font-family="-apple-system,BlinkMacSystemFont,sans-serif">TMS</text><path d="M620,-1020 C670,-1020 670,-960 720,-960" fill="none" stroke="#6EC4C4" stroke-width="2"/><rect x="720" y="-975" width="80" height="30" rx="6" fill="#fafafa" stroke="none"/><text x="760" y="-955" text-anchor="middle" font-size="13" fill="#333" font-family="-apple-system,BlinkMacSystemFont,sans-serif">云途TMS</text><path d="M800,-960 C850,-960 850,-980 900,-980" fill="none" stroke="#6EC4C4" stroke-width="2"/><rect x="900" y="-995" width="80" height="30" rx="6" fill="#fafafa" stroke="none"/><text x="940" y="-975" text-anchor="middle" font-size="13" fill="#333" font-family="-apple-system,BlinkMacSystemFont,sans-serif">OMS</text><path d="M800,-960 C850,-960 850,-940 900,-940" fill="none" stroke="#6EC4C4" stroke-width="2"/><rect x="900" y="-955" width="80" height="30" rx="6" fill="#fafafa" stroke="none"/><text x="940" y="-935" text-anchor="middle" font-size="13" fill="#333" font-family="-apple-system,BlinkMacSystemFont,sans-serif">BMS</text><path d="M457.76,-900 C498.88,-900 498.88,-860 540,-860" fill="none" stroke="#6EC4C4" stroke-width="2"/><rect x="540" y="-875" width="80" height="30" rx="6" fill="#fafafa" stroke="none"/><text x="580" y="-855" text-anchor="middle" font-size="13" fill="#333" font-family="-apple-system,BlinkMacSystemFont,sans-serif">万邑通</text><path d="M620,-860 C670,-860 670,-880 720,-880" fill="none" stroke="#6EC4C4" stroke-width="2"/><rect x="720" y="-895" width="80" height="30" rx="6" fill="#fafafa" stroke="none"/><text x="760" y="-875" text-anchor="middle" font-size="13" fill="#333" font-family="-apple-system,BlinkMacSystemFont,sans-serif">WMS</text><path d="M800,-880 C850,-880 850,-900 900,-900" fill="none" stroke="#6EC4C4" stroke-width="2"/><rect x="900" y="-915" width="80" height="30" rx="6" fill="#EFF0F0" stroke="none"/><text x="940" y="-895" text-anchor="middle" font-size="13" fill="#333" font-family="-apple-system,BlinkMacSystemFont,sans-serif">OMS</text><path d="M800,-880 C850,-880 850,-860 900,-860" fill="none" stroke="#6EC4C4" stroke-width="2"/><rect x="900" y="-875" width="80" height="30" rx="6" fill="#EFF0F0" stroke="none"/><text x="940" y="-855" text-anchor="middle" font-size="13" fill="#333" font-family="-apple-system,BlinkMacSystemFont,sans-serif">BMS</text><path d="M620,-860 C670,-860 670,-820 720,-820" fill="none" stroke="#6EC4C4" stroke-width="2"/><rect x="720" y="-835" width="150.28" height="30" rx="6" fill="#fafafa" stroke="none"/><text x="795.14" y="-815" text-anchor="middle" font-size="13" fill="#333" font-family="-apple-system,BlinkMacSystemFont,sans-serif">TMS（专线小包系统）</text><path d="M457.76,-900 C498.88,-900 498.88,-720 540,-720" fill="none" stroke="#6EC4C4" stroke-width="2"/><rect x="540" y="-735" width="80" height="30" rx="6" fill="#fafafa" stroke="none"/><text x="580" y="-715" text-anchor="middle" font-size="13" fill="#333" font-family="-apple-system,BlinkMacSystemFont,sans-serif">4PX</text><path d="M620,-720 C670,-720 670,-760 720,-760" fill="none" stroke="#6EC4C4" stroke-width="2"/><rect x="720" y="-775" width="80" height="30" rx="6" fill="#fafafa" stroke="none"/><text x="760" y="-755" text-anchor="middle" font-size="13" fill="#333" font-family="-apple-system,BlinkMacSystemFont,sans-serif">WMS</text><path d="M800,-760 C850,-760 850,-780 900,-780" fill="none" stroke="#6EC4C4" stroke-width="2"/><rect x="900" y="-795" width="80" height="30" rx="6" fill="#EFF0F0" stroke="none"/><text x="940" y="-775" text-anchor="middle" font-size="13" fill="#333" font-family="-apple-system,BlinkMacSystemFont,sans-serif">OMS</text><path d="M800,-760 C850,-760 850,-740 900,-740" fill="none" stroke="#6EC4C4" stroke-width="2"/><rect x="900" y="-755" width="80" height="30" rx="6" fill="#EFF0F0" stroke="none"/><text x="940" y="-735" text-anchor="middle" font-size="13" fill="#333" font-family="-apple-system,BlinkMacSystemFont,sans-serif">BMS</text><path d="M620,-720 C670,-720 670,-680 720,-680" fill="none" stroke="#6EC4C4" stroke-width="2"/><rect x="720" y="-695" width="80" height="30" rx="6" fill="#fafafa" stroke="none"/><text x="760" y="-675" text-anchor="middle" font-size="13" fill="#333" font-family="-apple-system,BlinkMacSystemFont,sans-serif">TMS</text><path d="M800,-680 C850,-680 850,-700 900,-700" fill="none" stroke="#6EC4C4" stroke-width="2"/><rect x="900" y="-715" width="80" height="30" rx="6" fill="#EFF0F0" stroke="none"/><text x="940" y="-695" text-anchor="middle" font-size="13" fill="#333" font-family="-apple-system,BlinkMacSystemFont,sans-serif">OMS</text><path d="M800,-680 C850,-680 850,-660 900,-660" fill="none" stroke="#6EC4C4" stroke-width="2"/><rect x="900" y="-675" width="80" height="30" rx="6" fill="#EFF0F0" stroke="none"/><text x="940" y="-655" text-anchor="middle" font-size="13" fill="#333" font-family="-apple-system,BlinkMacSystemFont,sans-serif">BMS</text><path d="M457.76,-900 C498.88,-900 498.88,-600 540,-600" fill="none" stroke="#6EC4C4" stroke-width="2"/><rect x="540" y="-615" width="80" height="30" rx="6" fill="#fafafa" stroke="none"/><text x="580" y="-595" text-anchor="middle" font-size="13" fill="#333" font-family="-apple-system,BlinkMacSystemFont,sans-serif">燕文</text><path d="M620,-600 C670,-600 670,-600 720,-600" fill="none" stroke="#6EC4C4" stroke-width="2"/><rect x="720" y="-615" width="80" height="30" rx="6" fill="#fafafa" stroke="none"/><text x="760" y="-595" text-anchor="middle" font-size="13" fill="#333" font-family="-apple-system,BlinkMacSystemFont,sans-serif">TMS</text><path d="M800,-600 C850,-600 850,-620 900,-620" fill="none" stroke="#6EC4C4" stroke-width="2"/><rect x="900" y="-635" width="80" height="30" rx="6" fill="#EFF0F0" stroke="none"/><text x="940" y="-615" text-anchor="middle" font-size="13" fill="#333" font-family="-apple-system,BlinkMacSystemFont,sans-serif">OMS</text><path d="M800,-600 C850,-600 850,-580 900,-580" fill="none" stroke="#6EC4C4" stroke-width="2"/><rect x="900" y="-595" width="80" height="30" rx="6" fill="#EFF0F0" stroke="none"/><text x="940" y="-575" text-anchor="middle" font-size="13" fill="#333" font-family="-apple-system,BlinkMacSystemFont,sans-serif">BMS</text><path d="M457.76,-900 C498.88,-900 498.88,-540 540,-540" fill="none" stroke="#6EC4C4" stroke-width="2"/><rect x="540" y="-555" width="80" height="30" rx="6" fill="#fafafa" stroke="none"/><text x="580" y="-535" text-anchor="middle" font-size="13" fill="#333" font-family="-apple-system,BlinkMacSystemFont,sans-serif">邮差小马</text><path d="M620,-540 C670,-540 670,-540 720,-540" fill="none" stroke="#6EC4C4" stroke-width="2"/><rect x="720" y="-555" width="104" height="30" rx="6" fill="#fafafa" stroke="none"/><text x="772" y="-535" text-anchor="middle" font-size="13" fill="#333" font-family="-apple-system,BlinkMacSystemFont,sans-serif">物流打单系统</text><path d="M310,-660 C335,-660 335,-460 360,-460" fill="none" stroke="#6EC4C4" stroke-width="2"/><rect x="360" y="-475" width="149.76" height="30" rx="6" fill="#fafafa" stroke="none"/><text x="434.88" y="-455" text-anchor="middle" font-size="13" fill="#333" font-family="-apple-system,BlinkMacSystemFont,sans-serif">物流综合服务/聚合类</text><path d="M509.76,-460 C524.88,-460 524.88,-500 540,-500" fill="none" stroke="#DFB85D" stroke-width="2"/><rect x="540" y="-515" width="80" height="30" rx="6" fill="#fafafa" stroke="none"/><text x="580" y="-495" text-anchor="middle" font-size="13" fill="#333" font-family="-apple-system,BlinkMacSystemFont,sans-serif">跨境好运</text><path d="M509.76,-460 C524.88,-460 524.88,-460 540,-460" fill="none" stroke="#DFB85D" stroke-width="2"/><rect x="540" y="-475" width="80" height="30" rx="6" fill="#fafafa" stroke="none"/><text x="580" y="-455" text-anchor="middle" font-size="13" fill="#333" font-family="-apple-system,BlinkMacSystemFont,sans-serif">运无界</text><path d="M509.76,-460 C524.88,-460 524.88,-420 540,-420" fill="none" stroke="#DFB85D" stroke-width="2"/><rect x="540" y="-435" width="80" height="30" rx="6" fill="#fafafa" stroke="none"/><text x="580" y="-415" text-anchor="middle" font-size="13" fill="#333" font-family="-apple-system,BlinkMacSystemFont,sans-serif">飞盒跨境</text><path d="M310,-660 C335,-660 335,-220 360,-220" fill="none" stroke="#6EC4C4" stroke-width="2"/><rect x="360" y="-235" width="80" height="30" rx="6" fill="#fafafa" stroke="none"/><text x="400" y="-215" text-anchor="middle" font-size="13" fill="#333" font-family="-apple-system,BlinkMacSystemFont,sans-serif">SaaS类</text><path d="M440,-220 C490,-220 490,-360 540,-360" fill="none" stroke="#6EC4C4" stroke-width="2"/><rect x="540" y="-375" width="80" height="30" rx="6" fill="#fafafa" stroke="none"/><text x="580" y="-355" text-anchor="middle" font-size="13" fill="#333" font-family="-apple-system,BlinkMacSystemFont,sans-serif">易仓</text><path d="M620,-360 C670,-360 670,-380 720,-380" fill="none" stroke="#6EC4C4" stroke-width="2"/><rect x="720" y="-395" width="80" height="30" rx="6" fill="#fafafa" stroke="none"/><text x="760" y="-375" text-anchor="middle" font-size="13" fill="#333" font-family="-apple-system,BlinkMacSystemFont,sans-serif">WMS</text><path d="M800,-380 C850,-380 850,-380 900,-380" fill="none" stroke="#6EC4C4" stroke-width="2"/><rect x="900" y="-395" width="125.32000000000002" height="30" rx="6" fill="#fafafa" stroke="none"/><text x="962.66" y="-375" text-anchor="middle" font-size="13" fill="#333" font-family="-apple-system,BlinkMacSystemFont,sans-serif">活跃大概200-300</text><path d="M620,-360 C670,-360 670,-340 720,-340" fill="none" stroke="#6EC4C4" stroke-width="2"/><rect x="720" y="-355" width="80" height="30" rx="6" fill="#fafafa" stroke="none"/><text x="760" y="-335" text-anchor="middle" font-size="13" fill="#333" font-family="-apple-system,BlinkMacSystemFont,sans-serif">TMS</text><path d="M440,-220 C490,-220 490,-300 540,-300" fill="none" stroke="#6EC4C4" stroke-width="2"/><rect x="540" y="-315" width="80" height="30" rx="6" fill="#fafafa" stroke="none"/><text x="580" y="-295" text-anchor="middle" font-size="13" fill="#333" font-family="-apple-system,BlinkMacSystemFont,sans-serif">店小秘</text><path d="M620,-300 C670,-300 670,-300 720,-300" fill="none" stroke="#6EC4C4" stroke-width="2"/><rect x="720" y="-315" width="203.32" height="30" rx="6" fill="#fafafa" stroke="none"/><text x="821.66" y="-295" text-anchor="middle" font-size="13" fill="#333" font-family="-apple-system,BlinkMacSystemFont,sans-serif">17track（物流轨迹追踪系统）</text><path d="M440,-220 C490,-220 490,-240 540,-240" fill="none" stroke="#6EC4C4" stroke-width="2"/><rect x="540" y="-255" width="80" height="30" rx="6" fill="#fafafa" stroke="none"/><text x="580" y="-235" text-anchor="middle" font-size="13" fill="#333" font-family="-apple-system,BlinkMacSystemFont,sans-serif">马帮</text><path d="M620,-240 C670,-240 670,-260 720,-260" fill="none" stroke="#6EC4C4" stroke-width="2"/><rect x="720" y="-275" width="80" height="30" rx="6" fill="#fafafa" stroke="none"/><text x="760" y="-255" text-anchor="middle" font-size="13" fill="#333" font-family="-apple-system,BlinkMacSystemFont,sans-serif">WMS</text><path d="M800,-260 C850,-260 850,-260 900,-260" fill="none" stroke="#6EC4C4" stroke-width="2"/><rect x="900" y="-275" width="118.56000000000002" height="30" rx="6" fill="#fafafa" stroke="none"/><text x="959.28" y="-255" text-anchor="middle" font-size="13" fill="#333" font-family="-apple-system,BlinkMacSystemFont,sans-serif">活跃大概50-100</text><path d="M620,-240 C670,-240 670,-220 720,-220" fill="none" stroke="#6EC4C4" stroke-width="2"/><rect x="720" y="-235" width="80" height="30" rx="6" fill="#fafafa" stroke="none"/><text x="760" y="-215" text-anchor="middle" font-size="13" fill="#333" font-family="-apple-system,BlinkMacSystemFont,sans-serif">TMS</text><path d="M440,-220 C490,-220 490,-180 540,-180" fill="none" stroke="#6EC4C4" stroke-width="2"/><rect x="540" y="-195" width="80" height="30" rx="6" fill="#fafafa" stroke="none"/><text x="580" y="-175" text-anchor="middle" font-size="13" fill="#333" font-family="-apple-system,BlinkMacSystemFont,sans-serif">赛盒</text><path d="M620,-180 C670,-180 670,-180 720,-180" fill="none" stroke="#6EC4C4" stroke-width="2"/><rect x="720" y="-195" width="80" height="30" rx="6" fill="#fafafa" stroke="none"/><text x="760" y="-175" text-anchor="middle" font-size="13" fill="#333" font-family="-apple-system,BlinkMacSystemFont,sans-serif">WMS</text><path d="M800,-180 C850,-180 850,-180 900,-180" fill="none" stroke="#6EC4C4" stroke-width="2"/><rect x="900" y="-195" width="91.52" height="30" rx="6" fill="#fafafa" stroke="none"/><text x="945.76" y="-175" text-anchor="middle" font-size="13" fill="#333" font-family="-apple-system,BlinkMacSystemFont,sans-serif">活跃20以内</text><path d="M440,-220 C490,-220 490,-140 540,-140" fill="none" stroke="#6EC4C4" stroke-width="2"/><rect x="540" y="-155" width="80" height="30" rx="6" fill="#fafafa" stroke="none"/><text x="580" y="-135" text-anchor="middle" font-size="13" fill="#333" font-family="-apple-system,BlinkMacSystemFont,sans-serif">Shipout</text><path d="M620,-140 C670,-140 670,-140 720,-140" fill="none" stroke="#6EC4C4" stroke-width="2"/><rect x="720" y="-155" width="80" height="30" rx="6" fill="#fafafa" stroke="none"/><text x="760" y="-135" text-anchor="middle" font-size="13" fill="#333" font-family="-apple-system,BlinkMacSystemFont,sans-serif">WMS</text><path d="M800,-140 C850,-140 850,-140 900,-140" fill="none" stroke="#6EC4C4" stroke-width="2"/><rect x="900" y="-155" width="99.32" height="30" rx="6" fill="#fafafa" stroke="none"/><text x="949.66" y="-135" text-anchor="middle" font-size="13" fill="#333" font-family="-apple-system,BlinkMacSystemFont,sans-serif">活跃200-300</text><path d="M440,-220 C490,-220 490,-80 540,-80" fill="none" stroke="#6EC4C4" stroke-width="2"/><rect x="540" y="-95" width="86.83999999999999" height="30" rx="6" fill="#fafafa" stroke="none"/><text x="583.42" y="-75" text-anchor="middle" font-size="13" fill="#333" font-family="-apple-system,BlinkMacSystemFont,sans-serif">Aftership</text><path d="M626.84,-80 C673.4200000000001,-80 673.4200000000001,-100 720,-100" fill="none" stroke="#6EC4C4" stroke-width="2"/><rect x="720" y="-115" width="216.83999999999997" height="30" rx="6" fill="#fafafa" stroke="none"/><text x="828.42" y="-95" text-anchor="middle" font-size="13" fill="#333" font-family="-apple-system,BlinkMacSystemFont,sans-serif">Aftership（物流轨迹追踪系统）</text><path d="M626.84,-80 C673.4200000000001,-80 673.4200000000001,-60 720,-60" fill="none" stroke="#6EC4C4" stroke-width="2"/><rect x="720" y="-75" width="177.32" height="30" rx="6" fill="#fafafa" stroke="none"/><text x="808.66" y="-55" text-anchor="middle" font-size="13" fill="#333" font-family="-apple-system,BlinkMacSystemFont,sans-serif">Postmen（物流打单系统）</text><path d="M116,0 C206,0 206,860 296,860" fill="none" stroke="#B1C774" stroke-width="2"/><rect x="180" y="845" width="144.04" height="30" rx="6" fill="#fafafa" stroke="none"/><text x="252.01999999999998" y="865" text-anchor="middle" font-size="13" fill="#333" font-family="-apple-system,BlinkMacSystemFont,sans-serif">海外仓OTWB系统介绍</text><path d="M324.03999999999996,860 C342.02,860 342.02,120 360,120" fill="none" stroke="#B1C774" stroke-width="2"/><rect x="360" y="105" width="80" height="30" rx="6" fill="#fafafa" stroke="none"/><text x="400" y="125" text-anchor="middle" font-size="13" fill="#333" font-family="-apple-system,BlinkMacSystemFont,sans-serif">OMS</text><path d="M440,120 C490,120 490,-20 540,-20" fill="none" stroke="#B1C774" stroke-width="2"/><rect x="540" y="-35" width="234" height="30" rx="6" fill="#fafafa" stroke="none"/><text x="657" y="-15" text-anchor="middle" font-size="13" fill="#333" font-family="-apple-system,BlinkMacSystemFont,sans-serif">订单管理系统，订单处理是核心模块</text><path d="M440,120 C490,120 490,140 540,140" fill="none" stroke="#B1C774" stroke-width="2"/><rect x="540" y="125" width="80" height="30" rx="6" fill="#fafafa" stroke="none"/><text x="580" y="145" text-anchor="middle" font-size="13" fill="#333" font-family="-apple-system,BlinkMacSystemFont,sans-serif">主要模块</text><path d="M620,140 C670,140 670,20 720,20" fill="none" stroke="#B1C774" stroke-width="2"/><rect x="720" y="5" width="80" height="30" rx="6" fill="#fafafa" stroke="none"/><text x="760" y="25" text-anchor="middle" font-size="13" fill="#333" font-family="-apple-system,BlinkMacSystemFont,sans-serif">货品管理</text><path d="M620,140 C670,140 670,60 720,60" fill="none" stroke="#B1C774" stroke-width="2"/><rect x="720" y="45" width="80" height="30" rx="6" fill="#fafafa" stroke="none"/><text x="760" y="65" text-anchor="middle" font-size="13" fill="#333" font-family="-apple-system,BlinkMacSystemFont,sans-serif">入库管理</text><path d="M620,140 C670,140 670,120 720,120" fill="none" stroke="#B1C774" stroke-width="2"/><rect x="720" y="105" width="80" height="30" rx="6" fill="#fafafa" stroke="none"/><text x="760" y="125" text-anchor="middle" font-size="13" fill="#333" font-family="-apple-system,BlinkMacSystemFont,sans-serif">订单管理</text><path d="M800,120 C850,120 850,100 900,100" fill="none" stroke="#B1C774" stroke-width="2"/><rect x="900" y="85" width="80" height="30" rx="6" fill="#fafafa" stroke="none"/><text x="940" y="105" text-anchor="middle" font-size="13" fill="#333" font-family="-apple-system,BlinkMacSystemFont,sans-serif">普通订单</text><path d="M800,120 C850,120 850,140 900,140" fill="none" stroke="#B1C774" stroke-width="2"/><rect x="900" y="125" width="80" height="30" rx="6" fill="#fafafa" stroke="none"/><text x="940" y="145" text-anchor="middle" font-size="13" fill="#333" font-family="-apple-system,BlinkMacSystemFont,sans-serif">FBA订单</text><path d="M620,140 C670,140 670,180 720,180" fill="none" stroke="#B1C774" stroke-width="2"/><rect x="720" y="165" width="80" height="30" rx="6" fill="#fafafa" stroke="none"/><text x="760" y="185" text-anchor="middle" font-size="13" fill="#333" font-family="-apple-system,BlinkMacSystemFont,sans-serif">库存管理</text><path d="M620,140 C670,140 670,220 720,220" fill="none" stroke="#B1C774" stroke-width="2"/><rect x="720" y="205" width="80" height="30" rx="6" fill="#fafafa" stroke="none"/><text x="760" y="225" text-anchor="middle" font-size="13" fill="#333" font-family="-apple-system,BlinkMacSystemFont,sans-serif">退件管理</text><path d="M620,140 C670,140 670,260 720,260" fill="none" stroke="#B1C774" stroke-width="2"/><rect x="720" y="245" width="84.75999999999999" height="30" rx="6" fill="#fafafa" stroke="none"/><text x="762.38" y="265" text-anchor="middle" font-size="13" fill="#333" font-family="-apple-system,BlinkMacSystemFont,sans-serif">规则&amp;策略</text><path d="M324.03999999999996,860 C342.02,860 342.02,400 360,400" fill="none" stroke="#B1C774" stroke-width="2"/><rect x="360" y="385" width="80" height="30" rx="6" fill="#fafafa" stroke="none"/><text x="400" y="405" text-anchor="middle" font-size="13" fill="#333" font-family="-apple-system,BlinkMacSystemFont,sans-serif">TMS/LMS</text><path d="M440,400 C490,400 490,300 540,300" fill="none" stroke="#B1C774" stroke-width="2"/><rect x="540" y="285" width="585.52" height="30" rx="6" fill="#fafafa" stroke="none"/><text x="832.76" y="305" text-anchor="middle" font-size="13" fill="#333" font-family="-apple-system,BlinkMacSystemFont,sans-serif">物流管理系统，用来对接头程/尾程物流，管理物流供应商/承运商，还需要跟进一些物流轨迹信息</text><path d="M440,400 C490,400 490,420 540,420" fill="none" stroke="#B1C774" stroke-width="2"/><rect x="540" y="405" width="80" height="30" rx="6" fill="#fafafa" stroke="none"/><text x="580" y="425" text-anchor="middle" font-size="13" fill="#333" font-family="-apple-system,BlinkMacSystemFont,sans-serif">主要模块</text><path d="M620,420 C670,420 670,340 720,340" fill="none" stroke="#B1C774" stroke-width="2"/><rect x="720" y="325" width="91" height="30" rx="6" fill="#fafafa" stroke="none"/><text x="765.5" y="345" text-anchor="middle" font-size="13" fill="#333" font-family="-apple-system,BlinkMacSystemFont,sans-serif">物流商对接</text><path d="M620,420 C670,420 670,380 720,380" fill="none" stroke="#B1C774" stroke-width="2"/><rect x="720" y="365" width="136.76" height="30" rx="6" fill="#fafafa" stroke="none"/><text x="788.38" y="385" text-anchor="middle" font-size="13" fill="#333" font-family="-apple-system,BlinkMacSystemFont,sans-serif">供应商/承运商管理</text><path d="M620,420 C670,420 670,420 720,420" fill="none" stroke="#B1C774" stroke-width="2"/><rect x="720" y="405" width="104" height="30" rx="6" fill="#fafafa" stroke="none"/><text x="772" y="425" text-anchor="middle" font-size="13" fill="#333" font-family="-apple-system,BlinkMacSystemFont,sans-serif">物流渠道管理</text><path d="M620,420 C670,420 670,460 720,460" fill="none" stroke="#B1C774" stroke-width="2"/><rect x="720" y="445" width="130" height="30" rx="6" fill="#fafafa" stroke="none"/><text x="785" y="465" text-anchor="middle" font-size="13" fill="#333" font-family="-apple-system,BlinkMacSystemFont,sans-serif">物流渠道规则管理</text><path d="M620,420 C670,420 670,500 720,500" fill="none" stroke="#B1C774" stroke-width="2"/><rect x="720" y="485" width="104" height="30" rx="6" fill="#fafafa" stroke="none"/><text x="772" y="505" text-anchor="middle" font-size="13" fill="#333" font-family="-apple-system,BlinkMacSystemFont,sans-serif">物流轨迹查询</text><path d="M324.03999999999996,860 C342.02,860 342.02,760 360,760" fill="none" stroke="#B1C774" stroke-width="2"/><rect x="360" y="745" width="80" height="30" rx="6" fill="#fafafa" stroke="none"/><text x="400" y="765" text-anchor="middle" font-size="13" fill="#333" font-family="-apple-system,BlinkMacSystemFont,sans-serif">WMS</text><path d="M440,760 C490,760 490,540 540,540" fill="none" stroke="#B1C774" stroke-width="2"/><rect x="540" y="525" width="312" height="30" rx="6" fill="#fafafa" stroke="none"/><text x="696" y="545" text-anchor="middle" font-size="13" fill="#333" font-family="-apple-system,BlinkMacSystemFont,sans-serif">仓库管理系统，围绕订单和货品的处理是核心模块</text><path d="M440,760 C490,760 490,780 540,780" fill="none" stroke="#B1C774" stroke-width="2"/><rect x="540" y="765" width="80" height="30" rx="6" fill="#fafafa" stroke="none"/><text x="580" y="785" text-anchor="middle" font-size="13" fill="#333" font-family="-apple-system,BlinkMacSystemFont,sans-serif">主要模块</text><path d="M620,780 C670,780 670,620 720,620" fill="none" stroke="#B1C774" stroke-width="2"/><rect x="720" y="605" width="80" height="30" rx="6" fill="#fafafa" stroke="none"/><text x="760" y="625" text-anchor="middle" font-size="13" fill="#333" font-family="-apple-system,BlinkMacSystemFont,sans-serif">入库作业</text><path d="M800,620 C850,620 850,580 900,580" fill="none" stroke="#B1C774" stroke-width="2"/><rect x="900" y="565" width="80" height="30" rx="6" fill="#fafafa" stroke="none"/><text x="940" y="585" text-anchor="middle" font-size="13" fill="#333" font-family="-apple-system,BlinkMacSystemFont,sans-serif">收货</text><path d="M800,620 C850,620 850,620 900,620" fill="none" stroke="#B1C774" stroke-width="2"/><rect x="900" y="605" width="80" height="30" rx="6" fill="#fafafa" stroke="none"/><text x="940" y="625" text-anchor="middle" font-size="13" fill="#333" font-family="-apple-system,BlinkMacSystemFont,sans-serif">质检</text><path d="M800,620 C850,620 850,660 900,660" fill="none" stroke="#B1C774" stroke-width="2"/><rect x="900" y="645" width="80" height="30" rx="6" fill="#fafafa" stroke="none"/><text x="940" y="665" text-anchor="middle" font-size="13" fill="#333" font-family="-apple-system,BlinkMacSystemFont,sans-serif">上架</text><path d="M620,780 C670,780 670,780 720,780" fill="none" stroke="#B1C774" stroke-width="2"/><rect x="720" y="765" width="80" height="30" rx="6" fill="#fafafa" stroke="none"/><text x="760" y="785" text-anchor="middle" font-size="13" fill="#333" font-family="-apple-system,BlinkMacSystemFont,sans-serif">出库作业</text><path d="M800,780 C850,780 850,700 900,700" fill="none" stroke="#B1C774" stroke-width="2"/><rect x="900" y="685" width="80" height="30" rx="6" fill="#fafafa" stroke="none"/><text x="940" y="705" text-anchor="middle" font-size="13" fill="#333" font-family="-apple-system,BlinkMacSystemFont,sans-serif">订单分波</text><path d="M800,780 C850,780 850,740 900,740" fill="none" stroke="#B1C774" stroke-width="2"/><rect x="900" y="725" width="80" height="30" rx="6" fill="#fafafa" stroke="none"/><text x="940" y="745" text-anchor="middle" font-size="13" fill="#333" font-family="-apple-system,BlinkMacSystemFont,sans-serif">订单拣货</text><path d="M800,780 C850,780 850,780 900,780" fill="none" stroke="#B1C774" stroke-width="2"/><rect x="900" y="765" width="80" height="30" rx="6" fill="#fafafa" stroke="none"/><text x="940" y="785" text-anchor="middle" font-size="13" fill="#333" font-family="-apple-system,BlinkMacSystemFont,sans-serif">订单配货</text><path d="M800,780 C850,780 850,820 900,820" fill="none" stroke="#B1C774" stroke-width="2"/><rect x="900" y="805" width="110.75999999999999" height="30" rx="6" fill="#fafafa" stroke="none"/><text x="955.38" y="825" text-anchor="middle" font-size="13" fill="#333" font-family="-apple-system,BlinkMacSystemFont,sans-serif">订单复核/打包</text><path d="M800,780 C850,780 850,860 900,860" fill="none" stroke="#B1C774" stroke-width="2"/><rect x="900" y="845" width="80" height="30" rx="6" fill="#fafafa" stroke="none"/><text x="940" y="865" text-anchor="middle" font-size="13" fill="#333" font-family="-apple-system,BlinkMacSystemFont,sans-serif">……</text><path d="M620,780 C670,780 670,900 720,900" fill="none" stroke="#B1C774" stroke-width="2"/><rect x="720" y="885" width="80" height="30" rx="6" fill="#fafafa" stroke="none"/><text x="760" y="905" text-anchor="middle" font-size="13" fill="#333" font-family="-apple-system,BlinkMacSystemFont,sans-serif">库存模块</text><path d="M620,780 C670,780 670,940 720,940" fill="none" stroke="#B1C774" stroke-width="2"/><rect x="720" y="925" width="80" height="30" rx="6" fill="#fafafa" stroke="none"/><text x="760" y="945" text-anchor="middle" font-size="13" fill="#333" font-family="-apple-system,BlinkMacSystemFont,sans-serif">库内操作</text><path d="M620,780 C670,780 670,980 720,980" fill="none" stroke="#B1C774" stroke-width="2"/><rect x="720" y="965" width="80" height="30" rx="6" fill="#fafafa" stroke="none"/><text x="760" y="985" text-anchor="middle" font-size="13" fill="#333" font-family="-apple-system,BlinkMacSystemFont,sans-serif">退件模块</text><path d="M324.03999999999996,860 C342.02,860 342.02,1200 360,1200" fill="none" stroke="#B1C774" stroke-width="2"/><rect x="360" y="1185" width="80" height="30" rx="6" fill="#fafafa" stroke="none"/><text x="400" y="1205" text-anchor="middle" font-size="13" fill="#333" font-family="-apple-system,BlinkMacSystemFont,sans-serif">BMS</text><path d="M440,1200 C490,1200 490,1020 540,1020" fill="none" stroke="#B1C774" stroke-width="2"/><rect x="540" y="1005" width="553.28" height="30" rx="6" fill="#fafafa" stroke="none"/><text x="816.64" y="1025" text-anchor="middle" font-size="13" fill="#333" font-family="-apple-system,BlinkMacSystemFont,sans-serif">费用结算管理系统，不同的业务场景，要计费的内容不一样，BMS的模块也会有很大的不一样</text><path d="M440,1200 C490,1200 490,1220 540,1220" fill="none" stroke="#B1C774" stroke-width="2"/><rect x="540" y="1205" width="80" height="30" rx="6" fill="#fafafa" stroke="none"/><text x="580" y="1225" text-anchor="middle" font-size="13" fill="#333" font-family="-apple-system,BlinkMacSystemFont,sans-serif">主要模块</text><path d="M620,1220 C670,1220 670,1060 720,1060" fill="none" stroke="#B1C774" stroke-width="2"/><rect x="720" y="1045" width="91" height="30" rx="6" fill="#fafafa" stroke="none"/><text x="765.5" y="1065" text-anchor="middle" font-size="13" fill="#333" font-family="-apple-system,BlinkMacSystemFont,sans-serif">费用项管理</text><path d="M620,1220 C670,1220 670,1100 720,1100" fill="none" stroke="#B1C774" stroke-width="2"/><rect x="720" y="1085" width="80" height="30" rx="6" fill="#fafafa" stroke="none"/><text x="760" y="1105" text-anchor="middle" font-size="13" fill="#333" font-family="-apple-system,BlinkMacSystemFont,sans-serif">计费规则</text><path d="M620,1220 C670,1220 670,1140 720,1140" fill="none" stroke="#B1C774" stroke-width="2"/><rect x="720" y="1125" width="80" height="30" rx="6" fill="#fafafa" stroke="none"/><text x="760" y="1145" text-anchor="middle" font-size="13" fill="#333" font-family="-apple-system,BlinkMacSystemFont,sans-serif">报价管理</text><path d="M620,1220 C670,1220 670,1200 720,1200" fill="none" stroke="#B1C774" stroke-width="2"/><rect x="720" y="1185" width="80" height="30" rx="6" fill="#fafafa" stroke="none"/><text x="760" y="1205" text-anchor="middle" font-size="13" fill="#333" font-family="-apple-system,BlinkMacSystemFont,sans-serif">账单管理</text><path d="M800,1200 C850,1200 850,1180 900,1180" fill="none" stroke="#B1C774" stroke-width="2"/><rect x="900" y="1165" width="80" height="30" rx="6" fill="#fafafa" stroke="none"/><text x="940" y="1185" text-anchor="middle" font-size="13" fill="#333" font-family="-apple-system,BlinkMacSystemFont,sans-serif">应付模块</text><path d="M800,1200 C850,1200 850,1220 900,1220" fill="none" stroke="#B1C774" stroke-width="2"/><rect x="900" y="1205" width="80" height="30" rx="6" fill="#fafafa" stroke="none"/><text x="940" y="1225" text-anchor="middle" font-size="13" fill="#333" font-family="-apple-system,BlinkMacSystemFont,sans-serif">应收模块</text><path d="M620,1220 C670,1220 670,1320 720,1320" fill="none" stroke="#B1C774" stroke-width="2"/><rect x="720" y="1305" width="80" height="30" rx="6" fill="#fafafa" stroke="none"/><text x="760" y="1325" text-anchor="middle" font-size="13" fill="#333" font-family="-apple-system,BlinkMacSystemFont,sans-serif">对账</text><path d="M800,1320 C850,1320 850,1260 900,1260" fill="none" stroke="#B1C774" stroke-width="2"/><rect x="900" y="1245" width="104" height="30" rx="6" fill="#fafafa" stroke="none"/><text x="952" y="1265" text-anchor="middle" font-size="13" fill="#333" font-family="-apple-system,BlinkMacSystemFont,sans-serif">仓储费用核对</text><path d="M800,1320 C850,1320 850,1300 900,1300" fill="none" stroke="#B1C774" stroke-width="2"/><rect x="900" y="1285" width="80" height="30" rx="6" fill="#fafafa" stroke="none"/><text x="940" y="1305" text-anchor="middle" font-size="13" fill="#333" font-family="-apple-system,BlinkMacSystemFont,sans-serif">运费核对</text><path d="M800,1320 C850,1320 850,1340 900,1340" fill="none" stroke="#B1C774" stroke-width="2"/><rect x="900" y="1325" width="80" height="30" rx="6" fill="#fafafa" stroke="none"/><text x="940" y="1345" text-anchor="middle" font-size="13" fill="#333" font-family="-apple-system,BlinkMacSystemFont,sans-serif">杂费核对</text><path d="M800,1320 C850,1320 850,1380 900,1380" fill="none" stroke="#B1C774" stroke-width="2"/><rect x="900" y="1365" width="80" height="30" rx="6" fill="#fafafa" stroke="none"/><text x="940" y="1385" text-anchor="middle" font-size="13" fill="#333" font-family="-apple-system,BlinkMacSystemFont,sans-serif">……</text><path d="M324.03999999999996,860 C342.02,860 342.02,1580 360,1580" fill="none" stroke="#B1C774" stroke-width="2"/><rect x="360" y="1565" width="118.43" height="30" rx="6" fill="#fafafa" stroke="none"/><text x="419.21500000000003" y="1585" text-anchor="middle" font-size="13" fill="#333" font-family="-apple-system,BlinkMacSystemFont,sans-serif">PDP/Basic Data</text><path d="M478.43,1580 C509.21500000000003,1580 509.21500000000003,1420 540,1420" fill="none" stroke="#B1C774" stroke-width="2"/><rect x="540" y="1405" width="533" height="30" rx="6" fill="#fafafa" stroke="none"/><text x="806.5" y="1425" text-anchor="middle" font-size="13" fill="#333" font-family="-apple-system,BlinkMacSystemFont,sans-serif">公共数据平台，作为一个数据中台系统，提供给其他系统调用一些公共的，可复用的信息</text><path d="M478.43,1580 C509.21500000000003,1580 509.21500000000003,1600 540,1600" fill="none" stroke="#B1C774" stroke-width="2"/><rect x="540" y="1585" width="80" height="30" rx="6" fill="#fafafa" stroke="none"/><text x="580" y="1605" text-anchor="middle" font-size="13" fill="#333" font-family="-apple-system,BlinkMacSystemFont,sans-serif">主要模块</text><path d="M620,1600 C670,1600 670,1460 720,1460" fill="none" stroke="#B1C774" stroke-width="2"/><rect x="720" y="1445" width="80" height="30" rx="6" fill="#fafafa" stroke="none"/><text x="760" y="1465" text-anchor="middle" font-size="13" fill="#333" font-family="-apple-system,BlinkMacSystemFont,sans-serif">货主信息</text><path d="M620,1600 C670,1600 670,1500 720,1500" fill="none" stroke="#B1C774" stroke-width="2"/><rect x="720" y="1485" width="80" height="30" rx="6" fill="#fafafa" stroke="none"/><text x="760" y="1505" text-anchor="middle" font-size="13" fill="#333" font-family="-apple-system,BlinkMacSystemFont,sans-serif">产品信息</text><path d="M620,1600 C670,1600 670,1540 720,1540" fill="none" stroke="#B1C774" stroke-width="2"/><rect x="720" y="1525" width="80" height="30" rx="6" fill="#fafafa" stroke="none"/><text x="760" y="1545" text-anchor="middle" font-size="13" fill="#333" font-family="-apple-system,BlinkMacSystemFont,sans-serif">仓库信息</text><path d="M620,1600 C670,1600 670,1580 720,1580" fill="none" stroke="#B1C774" stroke-width="2"/><rect x="720" y="1565" width="104" height="30" rx="6" fill="#fafafa" stroke="none"/><text x="772" y="1585" text-anchor="middle" font-size="13" fill="#333" font-family="-apple-system,BlinkMacSystemFont,sans-serif">物流渠道信息</text><path d="M620,1600 C670,1600 670,1660 720,1660" fill="none" stroke="#B1C774" stroke-width="2"/><rect x="720" y="1645" width="80" height="30" rx="6" fill="#fafafa" stroke="none"/><text x="760" y="1665" text-anchor="middle" font-size="13" fill="#333" font-family="-apple-system,BlinkMacSystemFont,sans-serif">基础数据</text><path d="M800,1660 C850,1660 850,1620 900,1620" fill="none" stroke="#B1C774" stroke-width="2"/><rect x="900" y="1605" width="143.51999999999998" height="30" rx="6" fill="#fafafa" stroke="none"/><text x="971.76" y="1625" text-anchor="middle" font-size="13" fill="#333" font-family="-apple-system,BlinkMacSystemFont,sans-serif">国家/省州/城市数据</text><path d="M800,1660 C850,1660 850,1660 900,1660" fill="none" stroke="#B1C774" stroke-width="2"/><rect x="900" y="1645" width="80" height="30" rx="6" fill="#fafafa" stroke="none"/><text x="940" y="1665" text-anchor="middle" font-size="13" fill="#333" font-family="-apple-system,BlinkMacSystemFont,sans-serif">地址管理</text><path d="M800,1660 C850,1660 850,1700 900,1700" fill="none" stroke="#B1C774" stroke-width="2"/><rect x="900" y="1685" width="80" height="30" rx="6" fill="#fafafa" stroke="none"/><text x="940" y="1705" text-anchor="middle" font-size="13" fill="#333" font-family="-apple-system,BlinkMacSystemFont,sans-serif">货币管理</text><path d="M620,1600 C670,1600 670,1740 720,1740" fill="none" stroke="#B1C774" stroke-width="2"/><rect x="720" y="1725" width="84.75999999999999" height="30" rx="6" fill="#fafafa" stroke="none"/><text x="762.38" y="1745" text-anchor="middle" font-size="13" fill="#333" font-family="-apple-system,BlinkMacSystemFont,sans-serif">规则&amp;策略</text>
</svg>