<svg xmlns="http://www.w3.org/2000/svg" xmlns:xlink="http://www.w3.org/1999/xlink"
  viewBox="-168 -1799 1778.36 3598" width="1778.36" height="3598"
  style="background:#fff; font-family:-apple-system,BlinkMacSystemFont,'Segoe UI',Roboto,sans-serif;">
<defs></defs>
<rect x="-168" y="-1799" width="1778.36" height="3598" fill="#fff"/>
<rect x="-84" y="-18" width="168" height="36" rx="8" fill="rgb(245, 245, 245)" stroke="none"/><text x="0" y="6" text-anchor="middle" font-size="16" font-weight="bold" fill="#333" font-family="-apple-system,BlinkMacSystemFont,sans-serif">跨境电商业务知识</text><path d="M84,0 C174,0 174,-1620 264,-1620" fill="none" stroke="#A287E1" stroke-width="2"/><rect x="180" y="-1635" width="117" height="30" rx="6" fill="#fafafa" stroke="none"/><text x="238.5" y="-1615" text-anchor="middle" font-size="13" fill="#333" font-family="-apple-system,BlinkMacSystemFont,sans-serif">跨境电商的定义</text><path d="M297,-1620 C328.5,-1620 328.5,-1660 360,-1660" fill="none" stroke="#A287E1" stroke-width="2"/><rect x="360" y="-1675" width="117" height="30" rx="6" fill="#fafafa" stroke="none"/><text x="418.5" y="-1655" text-anchor="middle" font-size="13" fill="#333" font-family="-apple-system,BlinkMacSystemFont,sans-serif">跨境电商的分类</text><path d="M477,-1660 C508.5,-1660 508.5,-1700 540,-1700" fill="none" stroke="#A287E1" stroke-width="2"/><rect x="540" y="-1715" width="80" height="30" rx="6" fill="#fafafa" stroke="none"/><text x="580" y="-1695" text-anchor="middle" font-size="13" fill="#333" font-family="-apple-system,BlinkMacSystemFont,sans-serif"></text><path d="M477,-1660 C508.5,-1660 508.5,-1660 540,-1660" fill="none" stroke="#A287E1" stroke-width="2"/><rect x="540" y="-1675" width="814.8399999999999" height="30" rx="6" fill="#fafafa" stroke="none"/><text x="947.42" y="-1655" text-anchor="middle" font-size="13" fill="#333" font-family="-apple-system,BlinkMacSystemFont,sans-serif">我们常见的，常听说过的跨境电商大卖，基本上都是指B2C的跨境电商卖家，但是实际上从货值和货量上来说，B2B出口的占比要远超过B2C</text><path d="M477,-1660 C508.5,-1660 508.5,-1620 540,-1620" fill="none" stroke="#A287E1" stroke-width="2"/><rect x="540" y="-1635" width="644.15" height="30" rx="6" fill="#fafafa" stroke="none"/><text x="862.075" y="-1615" text-anchor="middle" font-size="13" fill="#333" font-family="-apple-system,BlinkMacSystemFont,sans-serif">2021年B2B跨境贸易额占跨境电商贸易总额的77%，具有成交量大、订单源 稳定等特征，是各国间贸易主赛场</text><path d="M297,-1620 C328.5,-1620 328.5,-1580 360,-1580" fill="none" stroke="#A287E1" stroke-width="2"/><rect x="360" y="-1595" width="463.31999999999994" height="30" rx="6" fill="#fafafa" stroke="none"/><text x="591.66" y="-1575" text-anchor="middle" font-size="13" fill="#333" font-family="-apple-system,BlinkMacSystemFont,sans-serif">跨境电商的核心是“跨境”，目前大家普遍的认知“跨境电商”≈“跨境出口电商”</text><path d="M297,-1620 C328.5,-1620 328.5,-1540 360,-1540" fill="none" stroke="#A287E1" stroke-width="2"/><rect x="360" y="-1555" width="143" height="30" rx="6" fill="#fafafa" stroke="none"/><text x="431.5" y="-1535" text-anchor="middle" font-size="13" fill="#333" font-family="-apple-system,BlinkMacSystemFont,sans-serif">跨境电商的发展阶段</text><path d="M503,-1540 C521.5,-1540 521.5,-1540 540,-1540" fill="none" stroke="#A287E1" stroke-width="2"/><rect x="540" y="-1555" width="80" height="30" rx="6" fill="#fafafa" stroke="none"/><text x="580" y="-1535" text-anchor="middle" font-size="13" fill="#333" font-family="-apple-system,BlinkMacSystemFont,sans-serif"></text><path d="M84,0 C174,0 174,-1480 264,-1480" fill="none" stroke="#B1C774" stroke-width="2"/><rect x="180" y="-1495" width="143" height="30" rx="6" fill="#fafafa" stroke="none"/><text x="251.5" y="-1475" text-anchor="middle" font-size="13" fill="#333" font-family="-apple-system,BlinkMacSystemFont,sans-serif">跨境出口的大概流程</text><path d="M323,-1480 C341.5,-1480 341.5,-1500 360,-1500" fill="none" stroke="#B1C774" stroke-width="2"/><rect x="360" y="-1515" width="169" height="30" rx="6" fill="#fafafa" stroke="none"/><text x="444.5" y="-1495" text-anchor="middle" font-size="13" fill="#333" font-family="-apple-system,BlinkMacSystemFont,sans-serif">中国跨境供应链管理流程</text><path d="M529,-1500 C534.5,-1500 534.5,-1500 540,-1500" fill="none" stroke="#B1C774" stroke-width="2"/><rect x="540" y="-1515" width="80" height="30" rx="6" fill="#fafafa" stroke="none"/><text x="580" y="-1495" text-anchor="middle" font-size="13" fill="#333" font-family="-apple-system,BlinkMacSystemFont,sans-serif"></text><path d="M323,-1480 C341.5,-1480 341.5,-1460 360,-1460" fill="none" stroke="#B1C774" stroke-width="2"/><rect x="360" y="-1475" width="254.27999999999997" height="30" rx="6" fill="#fafafa" stroke="none"/><text x="487.14" y="-1455" text-anchor="middle" font-size="13" fill="#333" font-family="-apple-system,BlinkMacSystemFont,sans-serif">“揽、仓、关、干、关、转、配”7个流程</text><path d="M614.28,-1460 C577.14,-1460 577.14,-1460 540,-1460" fill="none" stroke="#B1C774" stroke-width="2"/><rect x="540" y="-1475" width="80" height="30" rx="6" fill="#fafafa" stroke="none"/><text x="580" y="-1455" text-anchor="middle" font-size="13" fill="#333" font-family="-apple-system,BlinkMacSystemFont,sans-serif"></text><path d="M84,0 C174,0 174,-1080 264,-1080" fill="none" stroke="#DFB85D" stroke-width="2"/><rect x="180" y="-1095" width="208" height="30" rx="6" fill="#fafafa" stroke="none"/><text x="284" y="-1075" text-anchor="middle" font-size="13" fill="#333" font-family="-apple-system,BlinkMacSystemFont,sans-serif">跨境电商与国内电商的一些区别</text><path d="M388,-1080 C374,-1080 374,-1380 360,-1380" fill="none" stroke="#DFB85D" stroke-width="2"/><rect x="360" y="-1395" width="143" height="30" rx="6" fill="#fafafa" stroke="none"/><text x="431.5" y="-1375" text-anchor="middle" font-size="13" fill="#333" font-family="-apple-system,BlinkMacSystemFont,sans-serif">不同关境的交易主体</text><path d="M503,-1380 C521.5,-1380 521.5,-1420 540,-1420" fill="none" stroke="#DFB85D" stroke-width="2"/><rect x="540" y="-1435" width="156" height="30" rx="6" fill="#fafafa" stroke="none"/><text x="618" y="-1415" text-anchor="middle" font-size="13" fill="#333" font-family="-apple-system,BlinkMacSystemFont,sans-serif">国内电商是同一个关境</text><path d="M503,-1380 C521.5,-1380 521.5,-1380 540,-1380" fill="none" stroke="#DFB85D" stroke-width="2"/><rect x="540" y="-1395" width="169" height="30" rx="6" fill="#fafafa" stroke="none"/><text x="624.5" y="-1375" text-anchor="middle" font-size="13" fill="#333" font-family="-apple-system,BlinkMacSystemFont,sans-serif">跨境电商则是不同的关境</text><path d="M503,-1380 C521.5,-1380 521.5,-1340 540,-1340" fill="none" stroke="#DFB85D" stroke-width="2"/><rect x="540" y="-1355" width="182" height="30" rx="6" fill="transparent" stroke="#BFBFBF"/><text x="631" y="-1335" text-anchor="middle" font-size="13" fill="#333" font-family="-apple-system,BlinkMacSystemFont,sans-serif">第一反应就是和海关有关系</text><path d="M388,-1080 C374,-1080 374,-1200 360,-1200" fill="none" stroke="#DFB85D" stroke-width="2"/><rect x="360" y="-1215" width="195" height="30" rx="6" fill="#fafafa" stroke="none"/><text x="457.5" y="-1195" text-anchor="middle" font-size="13" fill="#333" font-family="-apple-system,BlinkMacSystemFont,sans-serif">文化差异带来运作方式不一样</text><path d="M555,-1200 C547.5,-1200 547.5,-1300 540,-1300" fill="none" stroke="#DFB85D" stroke-width="2"/><rect x="540" y="-1315" width="80" height="30" rx="6" fill="#fafafa" stroke="none"/><text x="580" y="-1295" text-anchor="middle" font-size="13" fill="#333" font-family="-apple-system,BlinkMacSystemFont,sans-serif">平台规则</text><path d="M555,-1200 C547.5,-1200 547.5,-1260 540,-1260" fill="none" stroke="#DFB85D" stroke-width="2"/><rect x="540" y="-1275" width="104" height="30" rx="6" fill="#fafafa" stroke="none"/><text x="592" y="-1255" text-anchor="middle" font-size="13" fill="#333" font-family="-apple-system,BlinkMacSystemFont,sans-serif">用户购物习惯</text><path d="M555,-1200 C547.5,-1200 547.5,-1220 540,-1220" fill="none" stroke="#DFB85D" stroke-width="2"/><rect x="540" y="-1235" width="80" height="30" rx="6" fill="#fafafa" stroke="none"/><text x="580" y="-1215" text-anchor="middle" font-size="13" fill="#333" font-family="-apple-system,BlinkMacSystemFont,sans-serif">法律法规</text><path d="M620,-1220 C670,-1220 670,-1220 720,-1220" fill="none" stroke="#DFB85D" stroke-width="2"/><rect x="720" y="-1235" width="91" height="30" rx="6" fill="#fafafa" stroke="none"/><text x="765.5" y="-1215" text-anchor="middle" font-size="13" fill="#333" font-family="-apple-system,BlinkMacSystemFont,sans-serif">退换货政策</text><path d="M555,-1200 C547.5,-1200 547.5,-1180 540,-1180" fill="none" stroke="#DFB85D" stroke-width="2"/><rect x="540" y="-1195" width="80" height="30" rx="6" fill="#fafafa" stroke="none"/><text x="580" y="-1175" text-anchor="middle" font-size="13" fill="#333" font-family="-apple-system,BlinkMacSystemFont,sans-serif">商品偏好</text><path d="M555,-1200 C547.5,-1200 547.5,-1140 540,-1140" fill="none" stroke="#DFB85D" stroke-width="2"/><rect x="540" y="-1155" width="80" height="30" rx="6" fill="#fafafa" stroke="none"/><text x="580" y="-1135" text-anchor="middle" font-size="13" fill="#333" font-family="-apple-system,BlinkMacSystemFont,sans-serif">语言</text><path d="M555,-1200 C547.5,-1200 547.5,-1100 540,-1100" fill="none" stroke="#DFB85D" stroke-width="2"/><rect x="540" y="-1115" width="80" height="30" rx="6" fill="#fafafa" stroke="none"/><text x="580" y="-1095" text-anchor="middle" font-size="13" fill="#333" font-family="-apple-system,BlinkMacSystemFont,sans-serif">……</text><path d="M388,-1080 C374,-1080 374,-980 360,-980" fill="none" stroke="#DFB85D" stroke-width="2"/><rect x="360" y="-995" width="143" height="30" rx="6" fill="#fafafa" stroke="none"/><text x="431.5" y="-975" text-anchor="middle" font-size="13" fill="#333" font-family="-apple-system,BlinkMacSystemFont,sans-serif">支付结算方式不一样</text><path d="M503,-980 C521.5,-980 521.5,-1060 540,-1060" fill="none" stroke="#DFB85D" stroke-width="2"/><rect x="540" y="-1075" width="80" height="30" rx="6" fill="#fafafa" stroke="none"/><text x="580" y="-1055" text-anchor="middle" font-size="13" fill="#333" font-family="-apple-system,BlinkMacSystemFont,sans-serif">出口退税</text><path d="M503,-980 C521.5,-980 521.5,-1020 540,-1020" fill="none" stroke="#DFB85D" stroke-width="2"/><rect x="540" y="-1035" width="80" height="30" rx="6" fill="#fafafa" stroke="none"/><text x="580" y="-1015" text-anchor="middle" font-size="13" fill="#333" font-family="-apple-system,BlinkMacSystemFont,sans-serif">进口缴税</text><path d="M503,-980 C521.5,-980 521.5,-980 540,-980" fill="none" stroke="#DFB85D" stroke-width="2"/><rect x="540" y="-995" width="80" height="30" rx="6" fill="#fafafa" stroke="none"/><text x="580" y="-975" text-anchor="middle" font-size="13" fill="#333" font-family="-apple-system,BlinkMacSystemFont,sans-serif">支付方式</text><path d="M503,-980 C521.5,-980 521.5,-940 540,-940" fill="none" stroke="#DFB85D" stroke-width="2"/><rect x="540" y="-955" width="80" height="30" rx="6" fill="#fafafa" stroke="none"/><text x="580" y="-935" text-anchor="middle" font-size="13" fill="#333" font-family="-apple-system,BlinkMacSystemFont,sans-serif">回款周期</text><path d="M503,-980 C521.5,-980 521.5,-900 540,-900" fill="none" stroke="#DFB85D" stroke-width="2"/><rect x="540" y="-915" width="110.75999999999999" height="30" rx="6" fill="transparent" stroke="#BFBFBF"/><text x="595.38" y="-895" text-anchor="middle" font-size="13" fill="#333" font-family="-apple-system,BlinkMacSystemFont,sans-serif">清关/报关流程</text><path d="M388,-1080 C374,-1080 374,-820 360,-820" fill="none" stroke="#DFB85D" stroke-width="2"/><rect x="360" y="-835" width="117" height="30" rx="6" fill="#fafafa" stroke="none"/><text x="418.5" y="-815" text-anchor="middle" font-size="13" fill="#333" font-family="-apple-system,BlinkMacSystemFont,sans-serif">物流方式不一样</text><path d="M477,-820 C508.5,-820 508.5,-860 540,-860" fill="none" stroke="#DFB85D" stroke-width="2"/><rect x="540" y="-875" width="91" height="30" rx="6" fill="#fafafa" stroke="none"/><text x="585.5" y="-855" text-anchor="middle" font-size="13" fill="#333" font-family="-apple-system,BlinkMacSystemFont,sans-serif">头程、尾程</text><path d="M477,-820 C508.5,-820 508.5,-820 540,-820" fill="none" stroke="#DFB85D" stroke-width="2"/><rect x="540" y="-835" width="104" height="30" rx="6" fill="#fafafa" stroke="none"/><text x="592" y="-815" text-anchor="middle" font-size="13" fill="#333" font-family="-apple-system,BlinkMacSystemFont,sans-serif">服务水平差异</text><path d="M477,-820 C508.5,-820 508.5,-780 540,-780" fill="none" stroke="#DFB85D" stroke-width="2"/><rect x="540" y="-795" width="117" height="30" rx="6" fill="#fafafa" stroke="none"/><text x="598.5" y="-775" text-anchor="middle" font-size="13" fill="#333" font-family="-apple-system,BlinkMacSystemFont,sans-serif">链路长、周期长</text><path d="M388,-1080 C374,-1080 374,-740 360,-740" fill="none" stroke="#DFB85D" stroke-width="2"/><rect x="360" y="-755" width="80" height="30" rx="6" fill="#fafafa" stroke="none"/><text x="400" y="-735" text-anchor="middle" font-size="13" fill="#333" font-family="-apple-system,BlinkMacSystemFont,sans-serif">……</text><path d="M84,0 C174,0 174,-100 264,-100" fill="none" stroke="#6F81DB" stroke-width="2"/><rect x="180" y="-115" width="156" height="30" rx="6" fill="#fafafa" stroke="none"/><text x="258" y="-95" text-anchor="middle" font-size="13" fill="#333" font-family="-apple-system,BlinkMacSystemFont,sans-serif">跨境电商中的几大角色</text><path d="M336,-100 C348,-100 348,-520 360,-520" fill="none" stroke="#6F81DB" stroke-width="2"/><rect x="360" y="-535" width="80" height="30" rx="6" fill="#fafafa" stroke="none"/><text x="400" y="-515" text-anchor="middle" font-size="13" fill="#333" font-family="-apple-system,BlinkMacSystemFont,sans-serif">平台方</text><path d="M440,-520 C490,-520 490,-700 540,-700" fill="none" stroke="#6F81DB" stroke-width="2"/><rect x="540" y="-715" width="80" height="30" rx="6" fill="#fafafa" stroke="none"/><text x="580" y="-695" text-anchor="middle" font-size="13" fill="#333" font-family="-apple-system,BlinkMacSystemFont,sans-serif">亚马逊</text><path d="M440,-520 C490,-520 490,-660 540,-660" fill="none" stroke="#6F81DB" stroke-width="2"/><rect x="540" y="-675" width="80" height="30" rx="6" fill="#fafafa" stroke="none"/><text x="580" y="-655" text-anchor="middle" font-size="13" fill="#333" font-family="-apple-system,BlinkMacSystemFont,sans-serif">沃尔玛</text><path d="M440,-520 C490,-520 490,-620 540,-620" fill="none" stroke="#6F81DB" stroke-width="2"/><rect x="540" y="-635" width="80" height="30" rx="6" fill="#fafafa" stroke="none"/><text x="580" y="-615" text-anchor="middle" font-size="13" fill="#333" font-family="-apple-system,BlinkMacSystemFont,sans-serif">速卖通</text><path d="M440,-520 C490,-520 490,-580 540,-580" fill="none" stroke="#6F81DB" stroke-width="2"/><rect x="540" y="-595" width="80" height="30" rx="6" fill="#fafafa" stroke="none"/><text x="580" y="-575" text-anchor="middle" font-size="13" fill="#333" font-family="-apple-system,BlinkMacSystemFont,sans-serif">eBay</text><path d="M440,-520 C490,-520 490,-540 540,-540" fill="none" stroke="#6F81DB" stroke-width="2"/><rect x="540" y="-555" width="80" height="30" rx="6" fill="#fafafa" stroke="none"/><text x="580" y="-535" text-anchor="middle" font-size="13" fill="#333" font-family="-apple-system,BlinkMacSystemFont,sans-serif">Wish</text><path d="M440,-520 C490,-520 490,-500 540,-500" fill="none" stroke="#6F81DB" stroke-width="2"/><rect x="540" y="-515" width="80" height="30" rx="6" fill="#fafafa" stroke="none"/><text x="580" y="-495" text-anchor="middle" font-size="13" fill="#333" font-family="-apple-system,BlinkMacSystemFont,sans-serif">Lazada</text><path d="M440,-520 C490,-520 490,-420 540,-420" fill="none" stroke="#6F81DB" stroke-width="2"/><rect x="540" y="-435" width="80" height="30" rx="6" fill="#fafafa" stroke="none"/><text x="580" y="-415" text-anchor="middle" font-size="13" fill="#333" font-family="-apple-system,BlinkMacSystemFont,sans-serif">独立站</text><path d="M620,-420 C670,-420 670,-460 720,-460" fill="none" stroke="#6F81DB" stroke-width="2"/><rect x="720" y="-475" width="80" height="30" rx="6" fill="#fafafa" stroke="none"/><text x="760" y="-455" text-anchor="middle" font-size="13" fill="#333" font-family="-apple-system,BlinkMacSystemFont,sans-serif">Shopify</text><path d="M620,-420 C670,-420 670,-420 720,-420" fill="none" stroke="#6F81DB" stroke-width="2"/><rect x="720" y="-435" width="80.07999999999998" height="30" rx="6" fill="#fafafa" stroke="none"/><text x="760.04" y="-415" text-anchor="middle" font-size="13" fill="#333" font-family="-apple-system,BlinkMacSystemFont,sans-serif">Shopline</text><path d="M620,-420 C670,-420 670,-380 720,-380" fill="none" stroke="#6F81DB" stroke-width="2"/><rect x="720" y="-395" width="86.83999999999999" height="30" rx="6" fill="#fafafa" stroke="none"/><text x="763.42" y="-375" text-anchor="middle" font-size="13" fill="#333" font-family="-apple-system,BlinkMacSystemFont,sans-serif">Shoplazza</text><path d="M440,-520 C490,-520 490,-340 540,-340" fill="none" stroke="#6F81DB" stroke-width="2"/><rect x="540" y="-355" width="118.56" height="30" rx="6" fill="transparent" stroke="#BFBFBF"/><text x="599.28" y="-335" text-anchor="middle" font-size="13" fill="#333" font-family="-apple-system,BlinkMacSystemFont,sans-serif">Amazon份额最高</text><path d="M658.56,-340 C689.28,-340 689.28,-340 720,-340" fill="none" stroke="#BFBFBF" stroke-width="2"/><rect x="720" y="-355" width="80" height="30" rx="6" fill="#fafafa" stroke="none"/><text x="760" y="-335" text-anchor="middle" font-size="13" fill="#333" font-family="-apple-system,BlinkMacSystemFont,sans-serif"></text><path d="M336,-100 C348,-100 348,-200 360,-200" fill="none" stroke="#6F81DB" stroke-width="2"/><rect x="360" y="-215" width="117" height="30" rx="6" fill="#fafafa" stroke="none"/><text x="418.5" y="-195" text-anchor="middle" font-size="13" fill="#333" font-family="-apple-system,BlinkMacSystemFont,sans-serif">卖家（供应商）</text><path d="M477,-200 C508.5,-200 508.5,-300 540,-300" fill="none" stroke="#6F81DB" stroke-width="2"/><rect x="540" y="-315" width="80" height="30" rx="6" fill="#fafafa" stroke="none"/><text x="580" y="-295" text-anchor="middle" font-size="13" fill="#333" font-family="-apple-system,BlinkMacSystemFont,sans-serif">坂田五虎</text><path d="M620,-300 C670,-300 670,-300 720,-300" fill="none" stroke="#6F81DB" stroke-width="2"/><rect x="720" y="-315" width="260" height="30" rx="6" fill="#fafafa" stroke="none"/><text x="850" y="-295" text-anchor="middle" font-size="13" fill="#333" font-family="-apple-system,BlinkMacSystemFont,sans-serif">蓝思科技、泽汇、宝视佳、公狼、拣蛋网</text><path d="M477,-200 C508.5,-200 508.5,-260 540,-260" fill="none" stroke="#6F81DB" stroke-width="2"/><rect x="540" y="-275" width="91" height="30" rx="6" fill="#fafafa" stroke="none"/><text x="585.5" y="-255" text-anchor="middle" font-size="13" fill="#333" font-family="-apple-system,BlinkMacSystemFont,sans-serif">华南城四少</text><path d="M631,-260 C675.5,-260 675.5,-260 720,-260" fill="none" stroke="#6F81DB" stroke-width="2"/><rect x="720" y="-275" width="182" height="30" rx="6" fill="#fafafa" stroke="none"/><text x="811" y="-255" text-anchor="middle" font-size="13" fill="#333" font-family="-apple-system,BlinkMacSystemFont,sans-serif">傲基、有棵树、通拓、赛维</text><path d="M477,-200 C508.5,-200 508.5,-220 540,-220" fill="none" stroke="#6F81DB" stroke-width="2"/><rect x="540" y="-235" width="80" height="30" rx="6" fill="#fafafa" stroke="none"/><text x="580" y="-215" text-anchor="middle" font-size="13" fill="#333" font-family="-apple-system,BlinkMacSystemFont,sans-serif">环球易购</text><path d="M477,-200 C508.5,-200 508.5,-180 540,-180" fill="none" stroke="#6F81DB" stroke-width="2"/><rect x="540" y="-195" width="80" height="30" rx="6" fill="#fafafa" stroke="none"/><text x="580" y="-175" text-anchor="middle" font-size="13" fill="#333" font-family="-apple-system,BlinkMacSystemFont,sans-serif">Anker</text><path d="M477,-200 C508.5,-200 508.5,-140 540,-140" fill="none" stroke="#6F81DB" stroke-width="2"/><rect x="540" y="-155" width="80" height="30" rx="6" fill="#fafafa" stroke="none"/><text x="580" y="-135" text-anchor="middle" font-size="13" fill="#333" font-family="-apple-system,BlinkMacSystemFont,sans-serif">绿联科技</text><path d="M477,-200 C508.5,-200 508.5,-100 540,-100" fill="none" stroke="#6F81DB" stroke-width="2"/><rect x="540" y="-115" width="80" height="30" rx="6" fill="#fafafa" stroke="none"/><text x="580" y="-95" text-anchor="middle" font-size="13" fill="#333" font-family="-apple-system,BlinkMacSystemFont,sans-serif">……</text><path d="M336,-100 C348,-100 348,80 360,80" fill="none" stroke="#6F81DB" stroke-width="2"/><rect x="360" y="65" width="117" height="30" rx="6" fill="#fafafa" stroke="none"/><text x="418.5" y="85" text-anchor="middle" font-size="13" fill="#333" font-family="-apple-system,BlinkMacSystemFont,sans-serif">买家（消费者）</text><path d="M477,80 C508.5,80 508.5,-60 540,-60" fill="none" stroke="#6F81DB" stroke-width="2"/><rect x="540" y="-75" width="80" height="30" rx="6" fill="#fafafa" stroke="none"/><text x="580" y="-55" text-anchor="middle" font-size="13" fill="#333" font-family="-apple-system,BlinkMacSystemFont,sans-serif">北美站</text><path d="M477,80 C508.5,80 508.5,-20 540,-20" fill="none" stroke="#6F81DB" stroke-width="2"/><rect x="540" y="-35" width="80" height="30" rx="6" fill="#fafafa" stroke="none"/><text x="580" y="-15" text-anchor="middle" font-size="13" fill="#333" font-family="-apple-system,BlinkMacSystemFont,sans-serif">欧洲站</text><path d="M477,80 C508.5,80 508.5,20 540,20" fill="none" stroke="#6F81DB" stroke-width="2"/><rect x="540" y="5" width="80" height="30" rx="6" fill="#fafafa" stroke="none"/><text x="580" y="25" text-anchor="middle" font-size="13" fill="#333" font-family="-apple-system,BlinkMacSystemFont,sans-serif">日本站</text><path d="M477,80 C508.5,80 508.5,60 540,60" fill="none" stroke="#6F81DB" stroke-width="2"/><rect x="540" y="45" width="80" height="30" rx="6" fill="#fafafa" stroke="none"/><text x="580" y="65" text-anchor="middle" font-size="13" fill="#333" font-family="-apple-system,BlinkMacSystemFont,sans-serif">澳洲站</text><path d="M477,80 C508.5,80 508.5,100 540,100" fill="none" stroke="#6F81DB" stroke-width="2"/><rect x="540" y="85" width="80" height="30" rx="6" fill="#fafafa" stroke="none"/><text x="580" y="105" text-anchor="middle" font-size="13" fill="#333" font-family="-apple-system,BlinkMacSystemFont,sans-serif">印度站</text><path d="M477,80 C508.5,80 508.5,140 540,140" fill="none" stroke="#6F81DB" stroke-width="2"/><rect x="540" y="125" width="80" height="30" rx="6" fill="#fafafa" stroke="none"/><text x="580" y="145" text-anchor="middle" font-size="13" fill="#333" font-family="-apple-system,BlinkMacSystemFont,sans-serif">中东站</text><path d="M477,80 C508.5,80 508.5,180 540,180" fill="none" stroke="#6F81DB" stroke-width="2"/><rect x="540" y="165" width="80" height="30" rx="6" fill="#fafafa" stroke="none"/><text x="580" y="185" text-anchor="middle" font-size="13" fill="#333" font-family="-apple-system,BlinkMacSystemFont,sans-serif">新加坡站</text><path d="M477,80 C508.5,80 508.5,220 540,220" fill="none" stroke="#6F81DB" stroke-width="2"/><rect x="540" y="205" width="130" height="30" rx="6" fill="transparent" stroke="#BFBFBF"/><text x="605" y="225" text-anchor="middle" font-size="13" fill="#333" font-family="-apple-system,BlinkMacSystemFont,sans-serif">亚马逊的站点合集</text><path d="M336,-100 C348,-100 348,360 360,360" fill="none" stroke="#6F81DB" stroke-width="2"/><rect x="360" y="345" width="91" height="30" rx="6" fill="#fafafa" stroke="none"/><text x="405.5" y="365" text-anchor="middle" font-size="13" fill="#333" font-family="-apple-system,BlinkMacSystemFont,sans-serif">中间服务商</text><path d="M451,360 C495.5,360 495.5,260 540,260" fill="none" stroke="#6F81DB" stroke-width="2"/><rect x="540" y="245" width="80" height="30" rx="6" fill="#fafafa" stroke="none"/><text x="580" y="265" text-anchor="middle" font-size="13" fill="#333" font-family="-apple-system,BlinkMacSystemFont,sans-serif">采购环节</text><path d="M451,360 C495.5,360 495.5,300 540,300" fill="none" stroke="#6F81DB" stroke-width="2"/><rect x="540" y="285" width="80" height="30" rx="6" fill="#fafafa" stroke="none"/><text x="580" y="305" text-anchor="middle" font-size="13" fill="#333" font-family="-apple-system,BlinkMacSystemFont,sans-serif">销售环节</text><path d="M451,360 C495.5,360 495.5,340 540,340" fill="none" stroke="#6F81DB" stroke-width="2"/><rect x="540" y="325" width="110.75999999999999" height="30" rx="6" fill="#fafafa" stroke="none"/><text x="595.38" y="345" text-anchor="middle" font-size="13" fill="#333" font-family="-apple-system,BlinkMacSystemFont,sans-serif">推广/运营环节</text><path d="M451,360 C495.5,360 495.5,380 540,380" fill="none" stroke="#6F81DB" stroke-width="2"/><rect x="540" y="365" width="80" height="30" rx="6" fill="#fafafa" stroke="none"/><text x="580" y="385" text-anchor="middle" font-size="13" fill="#333" font-family="-apple-system,BlinkMacSystemFont,sans-serif">物流环节</text><path d="M451,360 C495.5,360 495.5,420 540,420" fill="none" stroke="#6F81DB" stroke-width="2"/><rect x="540" y="405" width="80" height="30" rx="6" fill="#fafafa" stroke="none"/><text x="580" y="425" text-anchor="middle" font-size="13" fill="#333" font-family="-apple-system,BlinkMacSystemFont,sans-serif">交付环节</text><path d="M451,360 C495.5,360 495.5,460 540,460" fill="none" stroke="#6F81DB" stroke-width="2"/><rect x="540" y="445" width="455" height="30" rx="6" fill="transparent" stroke="#BFBFBF"/><text x="767.5" y="465" text-anchor="middle" font-size="13" fill="#333" font-family="-apple-system,BlinkMacSystemFont,sans-serif">商务部将中国电子商务服务业分为：交易型服务，支撑型服务，衍生型服务</text><path d="M995,460 C857.5,460 857.5,460 720,460" fill="none" stroke="#BFBFBF" stroke-width="2"/><rect x="720" y="445" width="80" height="30" rx="6" fill="#fafafa" stroke="none"/><text x="760" y="465" text-anchor="middle" font-size="13" fill="#333" font-family="-apple-system,BlinkMacSystemFont,sans-serif"></text><path d="M336,-100 C348,-100 348,500 360,500" fill="none" stroke="#6F81DB" stroke-width="2"/><rect x="360" y="485" width="1166.36" height="30" rx="6" fill="transparent" stroke="#BFBFBF"/><text x="943.18" y="505" text-anchor="middle" font-size="13" fill="#333" font-family="-apple-system,BlinkMacSystemFont,sans-serif">坂田五虎和华南城四少里面大部分都是多SKU铺货的模式，他们很多都是从11年12年ebay，速卖通铺货时期过来的，也是那个时代跨境电商模式的一种代表，所以他们的销量都非常高，一年流水都很大</text><path d="M84,0 C174,0 174,1120 264,1120" fill="none" stroke="#6EC4C4" stroke-width="2"/><rect x="180" y="1105" width="156" height="30" rx="6" fill="#fafafa" stroke="none"/><text x="258" y="1125" text-anchor="middle" font-size="13" fill="#333" font-family="-apple-system,BlinkMacSystemFont,sans-serif">跨境电商中的产品机会</text><path d="M336,1120 C348,1120 348,780 360,780" fill="none" stroke="#6EC4C4" stroke-width="2"/><rect x="360" y="765" width="80" height="30" rx="6" fill="#fafafa" stroke="none"/><text x="400" y="785" text-anchor="middle" font-size="13" fill="#333" font-family="-apple-system,BlinkMacSystemFont,sans-serif">平台方</text><path d="M440,780 C490,780 490,620 540,620" fill="none" stroke="#6EC4C4" stroke-width="2"/><rect x="540" y="605" width="80" height="30" rx="6" fill="#fafafa" stroke="none"/><text x="580" y="625" text-anchor="middle" font-size="13" fill="#333" font-family="-apple-system,BlinkMacSystemFont,sans-serif">电商平台</text><path d="M620,620 C670,620 670,540 720,540" fill="none" stroke="#6EC4C4" stroke-width="2"/><rect x="720" y="525" width="80" height="30" rx="6" fill="#fafafa" stroke="none"/><text x="760" y="545" text-anchor="middle" font-size="13" fill="#333" font-family="-apple-system,BlinkMacSystemFont,sans-serif">电商平台</text><path d="M620,620 C670,620 670,580 720,580" fill="none" stroke="#6EC4C4" stroke-width="2"/><rect x="720" y="565" width="80" height="30" rx="6" fill="#fafafa" stroke="none"/><text x="760" y="585" text-anchor="middle" font-size="13" fill="#333" font-family="-apple-system,BlinkMacSystemFont,sans-serif">Shein</text><path d="M620,620 C670,620 670,620 720,620" fill="none" stroke="#6EC4C4" stroke-width="2"/><rect x="720" y="605" width="80" height="30" rx="6" fill="#fafafa" stroke="none"/><text x="760" y="625" text-anchor="middle" font-size="13" fill="#333" font-family="-apple-system,BlinkMacSystemFont,sans-serif">速卖通</text><path d="M620,620 C670,620 670,660 720,660" fill="none" stroke="#6EC4C4" stroke-width="2"/><rect x="720" y="645" width="117" height="30" rx="6" fill="#fafafa" stroke="none"/><text x="778.5" y="665" text-anchor="middle" font-size="13" fill="#333" font-family="-apple-system,BlinkMacSystemFont,sans-serif">拼多多跨境平台</text><path d="M837,660 C868.5,660 868.5,660 900,660" fill="none" stroke="#6EC4C4" stroke-width="2"/><rect x="900" y="645" width="80" height="30" rx="6" fill="#fafafa" stroke="none"/><text x="940" y="665" text-anchor="middle" font-size="13" fill="#333" font-family="-apple-system,BlinkMacSystemFont,sans-serif">Temu</text><path d="M620,620 C670,620 670,700 720,700" fill="none" stroke="#6EC4C4" stroke-width="2"/><rect x="720" y="685" width="80" height="30" rx="6" fill="#fafafa" stroke="none"/><text x="760" y="705" text-anchor="middle" font-size="13" fill="#333" font-family="-apple-system,BlinkMacSystemFont,sans-serif">Tiktok</text><path d="M440,780 C490,780 490,780 540,780" fill="none" stroke="#6EC4C4" stroke-width="2"/><rect x="540" y="765" width="105.03999999999999" height="30" rx="6" fill="#fafafa" stroke="none"/><text x="592.52" y="785" text-anchor="middle" font-size="13" fill="#333" font-family="-apple-system,BlinkMacSystemFont,sans-serif">建站SaaS工具</text><path d="M645.04,780 C682.52,780 682.52,740 720,740" fill="none" stroke="#6EC4C4" stroke-width="2"/><rect x="720" y="725" width="224.12" height="30" rx="6" fill="#fafafa" stroke="none"/><text x="832.06" y="745" text-anchor="middle" font-size="13" fill="#333" font-family="-apple-system,BlinkMacSystemFont,sans-serif">Shopline在2022年上半年疯狂招人</text><path d="M645.04,780 C682.52,780 682.52,780 720,780" fill="none" stroke="#6EC4C4" stroke-width="2"/><rect x="720" y="765" width="112.83999999999999" height="30" rx="6" fill="#fafafa" stroke="none"/><text x="776.42" y="785" text-anchor="middle" font-size="13" fill="#333" font-family="-apple-system,BlinkMacSystemFont,sans-serif">Shoplazza店匠</text><path d="M645.04,780 C682.52,780 682.52,820 720,820" fill="none" stroke="#6EC4C4" stroke-width="2"/><rect x="720" y="805" width="164.32" height="30" rx="6" fill="#fafafa" stroke="none"/><text x="802.16" y="825" text-anchor="middle" font-size="13" fill="#333" font-family="-apple-system,BlinkMacSystemFont,sans-serif">Shopify，建站工具一哥</text><path d="M440,780 C490,780 490,940 540,940" fill="none" stroke="#6EC4C4" stroke-width="2"/><rect x="540" y="925" width="80" height="30" rx="6" fill="#fafafa" stroke="none"/><text x="580" y="945" text-anchor="middle" font-size="13" fill="#333" font-family="-apple-system,BlinkMacSystemFont,sans-serif">自建站</text><path d="M620,940 C670,940 670,860 720,860" fill="none" stroke="#6EC4C4" stroke-width="2"/><rect x="720" y="845" width="130" height="30" rx="6" fill="#fafafa" stroke="none"/><text x="785" y="865" text-anchor="middle" font-size="13" fill="#333" font-family="-apple-system,BlinkMacSystemFont,sans-serif">自研系统电商系统</text><path d="M620,940 C670,940 670,900 720,900" fill="none" stroke="#6EC4C4" stroke-width="2"/><rect x="720" y="885" width="174.72" height="30" rx="6" fill="#fafafa" stroke="none"/><text x="807.36" y="905" text-anchor="middle" font-size="13" fill="#333" font-family="-apple-system,BlinkMacSystemFont,sans-serif">https://www.anker.com/</text><path d="M894.72,900 C897.36,900 897.36,900 900,900" fill="none" stroke="#6EC4C4" stroke-width="2"/><rect x="900" y="885" width="80" height="30" rx="6" fill="#fafafa" stroke="none"/><text x="940" y="905" text-anchor="middle" font-size="13" fill="#333" font-family="-apple-system,BlinkMacSystemFont,sans-serif">Anker</text><path d="M620,940 C670,940 670,940 720,940" fill="none" stroke="#6EC4C4" stroke-width="2"/><rect x="720" y="925" width="194.99999999999997" height="30" rx="6" fill="#fafafa" stroke="none"/><text x="817.5" y="945" text-anchor="middle" font-size="13" fill="#333" font-family="-apple-system,BlinkMacSystemFont,sans-serif">https://www.insta360.com/</text><path d="M915,940 C907.5,940 907.5,940 900,940" fill="none" stroke="#6EC4C4" stroke-width="2"/><rect x="900" y="925" width="80" height="30" rx="6" fill="#fafafa" stroke="none"/><text x="940" y="945" text-anchor="middle" font-size="13" fill="#333" font-family="-apple-system,BlinkMacSystemFont,sans-serif">影石</text><path d="M620,940 C670,940 670,980 720,980" fill="none" stroke="#6EC4C4" stroke-width="2"/><rect x="720" y="965" width="161.20000000000002" height="30" rx="6" fill="#fafafa" stroke="none"/><text x="800.6" y="985" text-anchor="middle" font-size="13" fill="#333" font-family="-apple-system,BlinkMacSystemFont,sans-serif">https://www.dji.com/</text><path d="M881.2,980 C890.6,980 890.6,980 900,980" fill="none" stroke="#6EC4C4" stroke-width="2"/><rect x="900" y="965" width="80" height="30" rx="6" fill="#fafafa" stroke="none"/><text x="940" y="985" text-anchor="middle" font-size="13" fill="#333" font-family="-apple-system,BlinkMacSystemFont,sans-serif">大疆</text><path d="M620,940 C670,940 670,1020 720,1020" fill="none" stroke="#6EC4C4" stroke-width="2"/><rect x="720" y="1005" width="208" height="30" rx="6" fill="transparent" stroke="#BFBFBF"/><text x="824" y="1025" text-anchor="middle" font-size="13" fill="#333" font-family="-apple-system,BlinkMacSystemFont,sans-serif">北美和欧洲消费者比较信赖官网</text><path d="M336,1120 C348,1120 348,1220 360,1220" fill="none" stroke="#6EC4C4" stroke-width="2"/><rect x="360" y="1205" width="80" height="30" rx="6" fill="#fafafa" stroke="none"/><text x="400" y="1225" text-anchor="middle" font-size="13" fill="#333" font-family="-apple-system,BlinkMacSystemFont,sans-serif">卖家侧</text><path d="M440,1220 C490,1220 490,1140 540,1140" fill="none" stroke="#6EC4C4" stroke-width="2"/><rect x="540" y="1125" width="80" height="30" rx="6" fill="#fafafa" stroke="none"/><text x="580" y="1145" text-anchor="middle" font-size="13" fill="#333" font-family="-apple-system,BlinkMacSystemFont,sans-serif">品牌卖家</text><path d="M620,1140 C670,1140 670,1060 720,1060" fill="none" stroke="#6EC4C4" stroke-width="2"/><rect x="720" y="1045" width="80" height="30" rx="6" fill="#fafafa" stroke="none"/><text x="760" y="1065" text-anchor="middle" font-size="13" fill="#333" font-family="-apple-system,BlinkMacSystemFont,sans-serif">Anker</text><path d="M620,1140 C670,1140 670,1100 720,1100" fill="none" stroke="#6EC4C4" stroke-width="2"/><rect x="720" y="1085" width="80" height="30" rx="6" fill="#fafafa" stroke="none"/><text x="760" y="1105" text-anchor="middle" font-size="13" fill="#333" font-family="-apple-system,BlinkMacSystemFont,sans-serif">绿联</text><path d="M620,1140 C670,1140 670,1140 720,1140" fill="none" stroke="#6EC4C4" stroke-width="2"/><rect x="720" y="1125" width="80" height="30" rx="6" fill="#fafafa" stroke="none"/><text x="760" y="1145" text-anchor="middle" font-size="13" fill="#333" font-family="-apple-system,BlinkMacSystemFont,sans-serif">倍思</text><path d="M620,1140 C670,1140 670,1180 720,1180" fill="none" stroke="#6EC4C4" stroke-width="2"/><rect x="720" y="1165" width="80" height="30" rx="6" fill="#fafafa" stroke="none"/><text x="760" y="1185" text-anchor="middle" font-size="13" fill="#333" font-family="-apple-system,BlinkMacSystemFont,sans-serif">大疆</text><path d="M620,1140 C670,1140 670,1220 720,1220" fill="none" stroke="#6EC4C4" stroke-width="2"/><rect x="720" y="1205" width="80" height="30" rx="6" fill="#fafafa" stroke="none"/><text x="760" y="1225" text-anchor="middle" font-size="13" fill="#333" font-family="-apple-system,BlinkMacSystemFont,sans-serif">……</text><path d="M440,1220 C490,1220 490,1280 540,1280" fill="none" stroke="#6EC4C4" stroke-width="2"/><rect x="540" y="1265" width="80" height="30" rx="6" fill="#fafafa" stroke="none"/><text x="580" y="1285" text-anchor="middle" font-size="13" fill="#333" font-family="-apple-system,BlinkMacSystemFont,sans-serif">铺货卖家</text><path d="M620,1280 C670,1280 670,1260 720,1260" fill="none" stroke="#6EC4C4" stroke-width="2"/><rect x="720" y="1245" width="80" height="30" rx="6" fill="#fafafa" stroke="none"/><text x="760" y="1265" text-anchor="middle" font-size="13" fill="#333" font-family="-apple-system,BlinkMacSystemFont,sans-serif">坂田五虎</text><path d="M620,1280 C670,1280 670,1300 720,1300" fill="none" stroke="#6EC4C4" stroke-width="2"/><rect x="720" y="1285" width="91" height="30" rx="6" fill="#fafafa" stroke="none"/><text x="765.5" y="1305" text-anchor="middle" font-size="13" fill="#333" font-family="-apple-system,BlinkMacSystemFont,sans-serif">华南城四少</text><path d="M440,1220 C490,1220 490,1360 540,1360" fill="none" stroke="#6EC4C4" stroke-width="2"/><rect x="540" y="1345" width="91" height="30" rx="6" fill="#fafafa" stroke="none"/><text x="585.5" y="1365" text-anchor="middle" font-size="13" fill="#333" font-family="-apple-system,BlinkMacSystemFont,sans-serif">综合类卖家</text><path d="M631,1360 C675.5,1360 675.5,1340 720,1340" fill="none" stroke="#6EC4C4" stroke-width="2"/><rect x="720" y="1325" width="117" height="30" rx="6" fill="#fafafa" stroke="none"/><text x="778.5" y="1345" text-anchor="middle" font-size="13" fill="#333" font-family="-apple-system,BlinkMacSystemFont,sans-serif">既有自己的品牌</text><path d="M631,1360 C675.5,1360 675.5,1380 720,1380" fill="none" stroke="#6EC4C4" stroke-width="2"/><rect x="720" y="1365" width="130" height="30" rx="6" fill="#fafafa" stroke="none"/><text x="785" y="1385" text-anchor="middle" font-size="13" fill="#333" font-family="-apple-system,BlinkMacSystemFont,sans-serif">也有一些铺货产品</text><path d="M336,1120 C348,1120 348,1560 360,1560" fill="none" stroke="#6EC4C4" stroke-width="2"/><rect x="360" y="1545" width="80" height="30" rx="6" fill="#fafafa" stroke="none"/><text x="400" y="1565" text-anchor="middle" font-size="13" fill="#333" font-family="-apple-system,BlinkMacSystemFont,sans-serif">服务商侧</text><path d="M440,1560 C490,1560 490,1420 540,1420" fill="none" stroke="#6EC4C4" stroke-width="2"/><rect x="540" y="1405" width="80" height="30" rx="6" fill="#fafafa" stroke="none"/><text x="580" y="1425" text-anchor="middle" font-size="13" fill="#333" font-family="-apple-system,BlinkMacSystemFont,sans-serif">软件工具</text><path d="M440,1560 C490,1560 490,1460 540,1460" fill="none" stroke="#6EC4C4" stroke-width="2"/><rect x="540" y="1445" width="80" height="30" rx="6" fill="#fafafa" stroke="none"/><text x="580" y="1465" text-anchor="middle" font-size="13" fill="#333" font-family="-apple-system,BlinkMacSystemFont,sans-serif">广告营销</text><path d="M440,1560 C490,1560 490,1500 540,1500" fill="none" stroke="#6EC4C4" stroke-width="2"/><rect x="540" y="1485" width="97.75999999999999" height="30" rx="6" fill="#fafafa" stroke="none"/><text x="588.88" y="1505" text-anchor="middle" font-size="13" fill="#333" font-family="-apple-system,BlinkMacSystemFont,sans-serif">建站/独立站</text><path d="M440,1560 C490,1560 490,1540 540,1540" fill="none" stroke="#6EC4C4" stroke-width="2"/><rect x="540" y="1525" width="110.75999999999999" height="30" rx="6" fill="#fafafa" stroke="none"/><text x="595.38" y="1545" text-anchor="middle" font-size="13" fill="#333" font-family="-apple-system,BlinkMacSystemFont,sans-serif">国际仓储/物流</text><path d="M440,1560 C490,1560 490,1580 540,1580" fill="none" stroke="#6EC4C4" stroke-width="2"/><rect x="540" y="1565" width="80" height="30" rx="6" fill="#fafafa" stroke="none"/><text x="580" y="1585" text-anchor="middle" font-size="13" fill="#333" font-family="-apple-system,BlinkMacSystemFont,sans-serif">综合SaaS</text><path d="M440,1560 C490,1560 490,1620 540,1620" fill="none" stroke="#6EC4C4" stroke-width="2"/><rect x="540" y="1605" width="117.52" height="30" rx="6" fill="#fafafa" stroke="none"/><text x="598.76" y="1625" text-anchor="middle" font-size="13" fill="#333" font-family="-apple-system,BlinkMacSystemFont,sans-serif">金融/支付/税务</text><path d="M440,1560 C490,1560 490,1660 540,1660" fill="none" stroke="#6EC4C4" stroke-width="2"/><rect x="540" y="1645" width="80" height="30" rx="6" fill="#fafafa" stroke="none"/><text x="580" y="1665" text-anchor="middle" font-size="13" fill="#333" font-family="-apple-system,BlinkMacSystemFont,sans-serif">综合信息</text><path d="M440,1560 C490,1560 490,1700 540,1700" fill="none" stroke="#6EC4C4" stroke-width="2"/><rect x="540" y="1685" width="182.51999999999998" height="30" rx="6" fill="transparent" stroke="#BFBFBF"/><text x="631.26" y="1705" text-anchor="middle" font-size="13" fill="#333" font-family="-apple-system,BlinkMacSystemFont,sans-serif">具体可见“服务商生态图谱”</text><path d="M722.52,1700 C721.26,1700 721.26,1700 720,1700" fill="none" stroke="#BFBFBF" stroke-width="2"/><rect x="720" y="1685" width="80" height="30" rx="6" fill="transparent" stroke="#BFBFBF"/><text x="760" y="1705" text-anchor="middle" font-size="13" fill="#333" font-family="-apple-system,BlinkMacSystemFont,sans-serif"></text>
</svg>