<svg xmlns="http://www.w3.org/2000/svg" xmlns:xlink="http://www.w3.org/1999/xlink"
  viewBox="-184 -211.5 633 438" width="633" height="438"
  style="background:#fff; font-family:-apple-system,BlinkMacSystemFont,'Segoe UI',Roboto,sans-serif;">
<defs></defs>
<rect x="-184" y="-211.5" width="633" height="438" fill="#fff"/>
<rect x="-100" y="-18" width="200" height="36" rx="8" fill="#EFF0F0" stroke="none"/><text x="0" y="6" text-anchor="middle" font-size="16" font-weight="bold" fill="#333" font-family="-apple-system,BlinkMacSystemFont,sans-serif">海外仓常见的业务流程</text><path d="M100,0 C190,0 190,-100 280,-100" fill="none" stroke="#DFB85D" stroke-width="2"/><rect x="180" y="-115" width="80" height="30" rx="6" fill="#fafafa" stroke="none"/><text x="220" y="-95" text-anchor="middle" font-size="13" fill="#333" font-family="-apple-system,BlinkMacSystemFont,sans-serif">商品建档</text><path d="M100,0 C190,0 190,-60 280,-60" fill="none" stroke="#77C386" stroke-width="2"/><rect x="180" y="-75" width="80" height="30" rx="6" fill="#fafafa" stroke="none"/><text x="220" y="-55" text-anchor="middle" font-size="13" fill="#333" font-family="-apple-system,BlinkMacSystemFont,sans-serif">入库流程</text><path d="M100,0 C190,0 190,-20 280,-20" fill="none" stroke="#E48484" stroke-width="2"/><rect x="180" y="-35" width="80" height="30" rx="6" fill="#fafafa" stroke="none"/><text x="220" y="-15" text-anchor="middle" font-size="13" fill="#333" font-family="-apple-system,BlinkMacSystemFont,sans-serif">出库流程</text><path d="M100,0 C190,0 190,20 280,20" fill="none" stroke="#E482D4" stroke-width="2"/><rect x="180" y="5" width="80" height="30" rx="6" fill="#fafafa" stroke="none"/><text x="220" y="25" text-anchor="middle" font-size="13" fill="#333" font-family="-apple-system,BlinkMacSystemFont,sans-serif">退货流程</text><path d="M100,0 C190,0 190,60 280,60" fill="none" stroke="#77C386" stroke-width="2"/><rect x="180" y="45" width="104" height="30" rx="6" fill="#fafafa" stroke="none"/><text x="232" y="65" text-anchor="middle" font-size="13" fill="#333" font-family="-apple-system,BlinkMacSystemFont,sans-serif">库存查询业务</text><path d="M100,0 C190,0 190,100 280,100" fill="none" stroke="#E48484" stroke-width="2"/><rect x="180" y="85" width="104" height="30" rx="6" fill="#fafafa" stroke="none"/><text x="232" y="105" text-anchor="middle" font-size="13" fill="#333" font-family="-apple-system,BlinkMacSystemFont,sans-serif">财务对账业务</text>
</svg>