<svg xmlns="http://www.w3.org/2000/svg" xmlns:xlink="http://www.w3.org/1999/xlink"
  viewBox="-997.28 -759 2026.8 1522.25" width="2026.8" height="1522.25"
  style="background:#fff; font-family:-apple-system,BlinkMacSystemFont,'Segoe UI',Roboto,sans-serif;">
<defs></defs>
<rect x="-997.28" y="-759" width="2026.8" height="1522.25" fill="#fff"/>
<rect x="-84.63999999999999" y="-18" width="169.27999999999997" height="36" rx="8" fill="#EFF0F0" stroke="none"/><text x="0" y="6" text-anchor="middle" font-size="16" font-weight="bold" fill="#333" font-family="-apple-system,BlinkMacSystemFont,sans-serif">跨境海外仓中OTWB</text><path d="M84.63999999999999,0 C174.64,0 174.64,-460 264.64,-460" fill="none" stroke="#A287E1" stroke-width="2"/><rect x="180" y="-475" width="80" height="30" rx="6" fill="#fafafa" stroke="none"/><text x="220" y="-455" text-anchor="middle" font-size="13" fill="#333" font-family="-apple-system,BlinkMacSystemFont,sans-serif">OMS</text><path d="M260,-460 C310,-460 310,-660 360,-660" fill="none" stroke="#A287E1" stroke-width="2"/><rect x="360" y="-675" width="234" height="30" rx="6" fill="#fafafa" stroke="none"/><text x="477" y="-655" text-anchor="middle" font-size="13" fill="#333" font-family="-apple-system,BlinkMacSystemFont,sans-serif">订单管理系统，订单处理是核心模块</text><path d="M260,-460 C310,-460 310,-440 360,-440" fill="none" stroke="#A287E1" stroke-width="2"/><rect x="360" y="-455" width="80" height="30" rx="6" fill="#fafafa" stroke="none"/><text x="400" y="-435" text-anchor="middle" font-size="13" fill="#333" font-family="-apple-system,BlinkMacSystemFont,sans-serif">主要模块</text><path d="M440,-440 C490,-440 490,-620 540,-620" fill="none" stroke="#A287E1" stroke-width="2"/><rect x="540" y="-635" width="80" height="30" rx="6" fill="#fafafa" stroke="none"/><text x="580" y="-615" text-anchor="middle" font-size="13" fill="#333" font-family="-apple-system,BlinkMacSystemFont,sans-serif">货品管理</text><path d="M440,-440 C490,-440 490,-580 540,-580" fill="none" stroke="#A287E1" stroke-width="2"/><rect x="540" y="-595" width="80" height="30" rx="6" fill="#fafafa" stroke="none"/><text x="580" y="-575" text-anchor="middle" font-size="13" fill="#333" font-family="-apple-system,BlinkMacSystemFont,sans-serif">入库管理</text><path d="M440,-440 C490,-440 490,-500 540,-500" fill="none" stroke="#A287E1" stroke-width="2"/><rect x="540" y="-515" width="80" height="30" rx="6" fill="#fafafa" stroke="none"/><text x="580" y="-495" text-anchor="middle" font-size="13" fill="#333" font-family="-apple-system,BlinkMacSystemFont,sans-serif">订单管理</text><path d="M620,-500 C670,-500 670,-540 720,-540" fill="none" stroke="#A287E1" stroke-width="2"/><rect x="720" y="-555" width="150.28000000000003" height="30" rx="6" fill="#fafafa" stroke="none"/><text x="795.14" y="-535" text-anchor="middle" font-size="13" fill="#333" font-family="-apple-system,BlinkMacSystemFont,sans-serif">普通订单（B2C订单）</text><path d="M620,-500 C670,-500 670,-500 720,-500" fill="none" stroke="#A287E1" stroke-width="2"/><rect x="720" y="-515" width="80" height="30" rx="6" fill="#fafafa" stroke="none"/><text x="760" y="-495" text-anchor="middle" font-size="13" fill="#333" font-family="-apple-system,BlinkMacSystemFont,sans-serif">B2B订单</text><path d="M620,-500 C670,-500 670,-460 720,-460" fill="none" stroke="#A287E1" stroke-width="2"/><rect x="720" y="-475" width="80" height="30" rx="6" fill="#fafafa" stroke="none"/><text x="760" y="-455" text-anchor="middle" font-size="13" fill="#333" font-family="-apple-system,BlinkMacSystemFont,sans-serif">FBA订单</text><path d="M440,-440 C490,-440 490,-420 540,-420" fill="none" stroke="#A287E1" stroke-width="2"/><rect x="540" y="-435" width="80" height="30" rx="6" fill="#fafafa" stroke="none"/><text x="580" y="-415" text-anchor="middle" font-size="13" fill="#333" font-family="-apple-system,BlinkMacSystemFont,sans-serif">库存管理</text><path d="M440,-440 C490,-440 490,-360 540,-360" fill="none" stroke="#A287E1" stroke-width="2"/><rect x="540" y="-375" width="80" height="30" rx="6" fill="#fafafa" stroke="none"/><text x="580" y="-355" text-anchor="middle" font-size="13" fill="#333" font-family="-apple-system,BlinkMacSystemFont,sans-serif">退件管理</text><path d="M620,-360 C670,-360 670,-380 720,-380" fill="none" stroke="#A287E1" stroke-width="2"/><rect x="720" y="-395" width="80" height="30" rx="6" fill="#fafafa" stroke="none"/><text x="760" y="-375" text-anchor="middle" font-size="13" fill="#333" font-family="-apple-system,BlinkMacSystemFont,sans-serif">客户退件</text><path d="M620,-360 C670,-360 670,-340 720,-340" fill="none" stroke="#A287E1" stroke-width="2"/><rect x="720" y="-355" width="80" height="30" rx="6" fill="#fafafa" stroke="none"/><text x="760" y="-335" text-anchor="middle" font-size="13" fill="#333" font-family="-apple-system,BlinkMacSystemFont,sans-serif">FBA退件</text><path d="M440,-440 C490,-440 490,-300 540,-300" fill="none" stroke="#A287E1" stroke-width="2"/><rect x="540" y="-315" width="84.75999999999999" height="30" rx="6" fill="#fafafa" stroke="none"/><text x="582.38" y="-295" text-anchor="middle" font-size="13" fill="#333" font-family="-apple-system,BlinkMacSystemFont,sans-serif">规则&amp;策略</text><path d="M440,-440 C490,-440 490,-260 540,-260" fill="none" stroke="#A287E1" stroke-width="2"/><rect x="540" y="-275" width="91" height="30" rx="6" fill="#fafafa" stroke="none"/><text x="585.5" y="-255" text-anchor="middle" font-size="13" fill="#333" font-family="-apple-system,BlinkMacSystemFont,sans-serif">基础设置等</text><path d="M84.63999999999999,0 C174.64,0 174.64,80 264.64,80" fill="none" stroke="#6F81DB" stroke-width="2"/><rect x="180" y="65" width="80" height="30" rx="6" fill="#fafafa" stroke="none"/><text x="220" y="85" text-anchor="middle" font-size="13" fill="#333" font-family="-apple-system,BlinkMacSystemFont,sans-serif">WMS</text><path d="M260,80 C310,80 310,-220 360,-220" fill="none" stroke="#6F81DB" stroke-width="2"/><rect x="360" y="-235" width="312" height="30" rx="6" fill="#fafafa" stroke="none"/><text x="516" y="-215" text-anchor="middle" font-size="13" fill="#333" font-family="-apple-system,BlinkMacSystemFont,sans-serif">仓库管理系统，围绕订单和货品的处理是核心模块</text><path d="M260,80 C310,80 310,100 360,100" fill="none" stroke="#6F81DB" stroke-width="2"/><rect x="360" y="85" width="80" height="30" rx="6" fill="#fafafa" stroke="none"/><text x="400" y="105" text-anchor="middle" font-size="13" fill="#333" font-family="-apple-system,BlinkMacSystemFont,sans-serif">主要模块</text><path d="M440,100 C490,100 490,-140 540,-140" fill="none" stroke="#6F81DB" stroke-width="2"/><rect x="540" y="-155" width="80" height="30" rx="6" fill="#fafafa" stroke="none"/><text x="580" y="-135" text-anchor="middle" font-size="13" fill="#333" font-family="-apple-system,BlinkMacSystemFont,sans-serif">入库作业</text><path d="M620,-140 C670,-140 670,-180 720,-180" fill="none" stroke="#6F81DB" stroke-width="2"/><rect x="720" y="-195" width="80" height="30" rx="6" fill="#fafafa" stroke="none"/><text x="760" y="-175" text-anchor="middle" font-size="13" fill="#333" font-family="-apple-system,BlinkMacSystemFont,sans-serif">收货</text><path d="M620,-140 C670,-140 670,-140 720,-140" fill="none" stroke="#6F81DB" stroke-width="2"/><rect x="720" y="-155" width="80" height="30" rx="6" fill="#fafafa" stroke="none"/><text x="760" y="-135" text-anchor="middle" font-size="13" fill="#333" font-family="-apple-system,BlinkMacSystemFont,sans-serif">质检</text><path d="M620,-140 C670,-140 670,-100 720,-100" fill="none" stroke="#6F81DB" stroke-width="2"/><rect x="720" y="-115" width="80" height="30" rx="6" fill="#fafafa" stroke="none"/><text x="760" y="-95" text-anchor="middle" font-size="13" fill="#333" font-family="-apple-system,BlinkMacSystemFont,sans-serif">上架</text><path d="M440,100 C490,100 490,20 540,20" fill="none" stroke="#6F81DB" stroke-width="2"/><rect x="540" y="5" width="80" height="30" rx="6" fill="#fafafa" stroke="none"/><text x="580" y="25" text-anchor="middle" font-size="13" fill="#333" font-family="-apple-system,BlinkMacSystemFont,sans-serif">出库作业</text><path d="M620,20 C670,20 670,-60 720,-60" fill="none" stroke="#6F81DB" stroke-width="2"/><rect x="720" y="-75" width="80" height="30" rx="6" fill="#fafafa" stroke="none"/><text x="760" y="-55" text-anchor="middle" font-size="13" fill="#333" font-family="-apple-system,BlinkMacSystemFont,sans-serif">订单分波</text><path d="M620,20 C670,20 670,-20 720,-20" fill="none" stroke="#6F81DB" stroke-width="2"/><rect x="720" y="-35" width="80" height="30" rx="6" fill="#fafafa" stroke="none"/><text x="760" y="-15" text-anchor="middle" font-size="13" fill="#333" font-family="-apple-system,BlinkMacSystemFont,sans-serif">订单拣货</text><path d="M620,20 C670,20 670,20 720,20" fill="none" stroke="#6F81DB" stroke-width="2"/><rect x="720" y="5" width="80" height="30" rx="6" fill="#fafafa" stroke="none"/><text x="760" y="25" text-anchor="middle" font-size="13" fill="#333" font-family="-apple-system,BlinkMacSystemFont,sans-serif">订单配货</text><path d="M620,20 C670,20 670,60 720,60" fill="none" stroke="#6F81DB" stroke-width="2"/><rect x="720" y="45" width="110.75999999999999" height="30" rx="6" fill="#fafafa" stroke="none"/><text x="775.38" y="65" text-anchor="middle" font-size="13" fill="#333" font-family="-apple-system,BlinkMacSystemFont,sans-serif">订单复核/打包</text><path d="M620,20 C670,20 670,100 720,100" fill="none" stroke="#6F81DB" stroke-width="2"/><rect x="720" y="85" width="80" height="30" rx="6" fill="#fafafa" stroke="none"/><text x="760" y="105" text-anchor="middle" font-size="13" fill="#333" font-family="-apple-system,BlinkMacSystemFont,sans-serif">……</text><path d="M440,100 C490,100 490,140 540,140" fill="none" stroke="#6F81DB" stroke-width="2"/><rect x="540" y="125" width="80" height="30" rx="6" fill="#fafafa" stroke="none"/><text x="580" y="145" text-anchor="middle" font-size="13" fill="#333" font-family="-apple-system,BlinkMacSystemFont,sans-serif">库存模块</text><path d="M440,100 C490,100 490,220 540,220" fill="none" stroke="#6F81DB" stroke-width="2"/><rect x="540" y="205" width="80" height="30" rx="6" fill="#fafafa" stroke="none"/><text x="580" y="225" text-anchor="middle" font-size="13" fill="#333" font-family="-apple-system,BlinkMacSystemFont,sans-serif">库内操作</text><path d="M620,220 C670,220 670,180 720,180" fill="none" stroke="#6F81DB" stroke-width="2"/><rect x="720" y="165" width="80" height="30" rx="6" fill="#fafafa" stroke="none"/><text x="760" y="185" text-anchor="middle" font-size="13" fill="#333" font-family="-apple-system,BlinkMacSystemFont,sans-serif">库存调整</text><path d="M620,220 C670,220 670,220 720,220" fill="none" stroke="#6F81DB" stroke-width="2"/><rect x="720" y="205" width="84.75999999999999" height="30" rx="6" fill="#fafafa" stroke="none"/><text x="762.38" y="225" text-anchor="middle" font-size="13" fill="#333" font-family="-apple-system,BlinkMacSystemFont,sans-serif">移库/移库</text><path d="M620,220 C670,220 670,260 720,260" fill="none" stroke="#6F81DB" stroke-width="2"/><rect x="720" y="245" width="80" height="30" rx="6" fill="#fafafa" stroke="none"/><text x="760" y="265" text-anchor="middle" font-size="13" fill="#333" font-family="-apple-system,BlinkMacSystemFont,sans-serif">盘点</text><path d="M440,100 C490,100 490,300 540,300" fill="none" stroke="#6F81DB" stroke-width="2"/><rect x="540" y="285" width="80" height="30" rx="6" fill="#fafafa" stroke="none"/><text x="580" y="305" text-anchor="middle" font-size="13" fill="#333" font-family="-apple-system,BlinkMacSystemFont,sans-serif">退件模块</text><path d="M440,100 C490,100 490,340 540,340" fill="none" stroke="#6F81DB" stroke-width="2"/><rect x="540" y="325" width="84.75999999999999" height="30" rx="6" fill="#fafafa" stroke="none"/><text x="582.38" y="345" text-anchor="middle" font-size="13" fill="#333" font-family="-apple-system,BlinkMacSystemFont,sans-serif">规则&amp;策略</text><path d="M440,100 C490,100 490,380 540,380" fill="none" stroke="#6F81DB" stroke-width="2"/><rect x="540" y="365" width="91" height="30" rx="6" fill="#fafafa" stroke="none"/><text x="585.5" y="385" text-anchor="middle" font-size="13" fill="#333" font-family="-apple-system,BlinkMacSystemFont,sans-serif">基础设置等</text><path d="M84.63999999999999,0 C174.64,0 174.64,540 264.64,540" fill="none" stroke="#6EC4C4" stroke-width="2"/><rect x="180" y="525" width="80" height="30" rx="6" fill="#fafafa" stroke="none"/><text x="220" y="545" text-anchor="middle" font-size="13" fill="#333" font-family="-apple-system,BlinkMacSystemFont,sans-serif">LMS/TMS</text><path d="M260,540 C310,540 310,420 360,420" fill="none" stroke="#6EC4C4" stroke-width="2"/><rect x="360" y="405" width="585.52" height="30" rx="6" fill="#fafafa" stroke="none"/><text x="652.76" y="425" text-anchor="middle" font-size="13" fill="#333" font-family="-apple-system,BlinkMacSystemFont,sans-serif">物流管理系统，用来对接头程/尾程物流，管理物流供应商/承运商，还需要跟进一些物流轨迹信息</text><path d="M260,540 C310,540 310,560 360,560" fill="none" stroke="#6EC4C4" stroke-width="2"/><rect x="360" y="545" width="80" height="30" rx="6" fill="#fafafa" stroke="none"/><text x="400" y="565" text-anchor="middle" font-size="13" fill="#333" font-family="-apple-system,BlinkMacSystemFont,sans-serif">主要模块</text><path d="M440,560 C490,560 490,460 540,460" fill="none" stroke="#6EC4C4" stroke-width="2"/><rect x="540" y="445" width="91" height="30" rx="6" fill="#fafafa" stroke="none"/><text x="585.5" y="465" text-anchor="middle" font-size="13" fill="#333" font-family="-apple-system,BlinkMacSystemFont,sans-serif">物流商对接</text><path d="M440,560 C490,560 490,500 540,500" fill="none" stroke="#6EC4C4" stroke-width="2"/><rect x="540" y="485" width="136.76" height="30" rx="6" fill="#fafafa" stroke="none"/><text x="608.38" y="505" text-anchor="middle" font-size="13" fill="#333" font-family="-apple-system,BlinkMacSystemFont,sans-serif">供应商/承运商管理</text><path d="M440,560 C490,560 490,560 540,560" fill="none" stroke="#6EC4C4" stroke-width="2"/><rect x="540" y="545" width="104" height="30" rx="6" fill="#fafafa" stroke="none"/><text x="592" y="565" text-anchor="middle" font-size="13" fill="#333" font-family="-apple-system,BlinkMacSystemFont,sans-serif">物流渠道管理</text><path d="M644,560 C682,560 682,540 720,540" fill="none" stroke="#6EC4C4" stroke-width="2"/><rect x="720" y="525" width="130" height="30" rx="6" fill="#fafafa" stroke="none"/><text x="785" y="545" text-anchor="middle" font-size="13" fill="#333" font-family="-apple-system,BlinkMacSystemFont,sans-serif">物流渠道规则管理</text><path d="M644,560 C682,560 682,580 720,580" fill="none" stroke="#6EC4C4" stroke-width="2"/><rect x="720" y="565" width="104" height="30" rx="6" fill="#fafafa" stroke="none"/><text x="772" y="585" text-anchor="middle" font-size="13" fill="#333" font-family="-apple-system,BlinkMacSystemFont,sans-serif">物流渠道配置</text><path d="M440,560 C490,560 490,620 540,620" fill="none" stroke="#6EC4C4" stroke-width="2"/><rect x="540" y="605" width="104" height="30" rx="6" fill="#fafafa" stroke="none"/><text x="592" y="625" text-anchor="middle" font-size="13" fill="#333" font-family="-apple-system,BlinkMacSystemFont,sans-serif">物流轨迹查询</text><path d="M440,560 C490,560 490,660 540,660" fill="none" stroke="#6EC4C4" stroke-width="2"/><rect x="540" y="645" width="117" height="30" rx="6" fill="#fafafa" stroke="none"/><text x="598.5" y="665" text-anchor="middle" font-size="13" fill="#333" font-family="-apple-system,BlinkMacSystemFont,sans-serif">承运商绩效考核</text><path d="M-84.63999999999999,0 C-174.64,0 -174.64,-240 -264.64,-240" fill="none" stroke="#77C386" stroke-width="2"/><rect x="-260" y="-255" width="80" height="30" rx="6" fill="#fafafa" stroke="none"/><text x="-220" y="-235" text-anchor="middle" font-size="13" fill="#333" font-family="-apple-system,BlinkMacSystemFont,sans-serif">PDP</text><path d="M-260,-240 C-310,-240 -310,-420 -360,-420" fill="none" stroke="#77C386" stroke-width="2"/><rect x="-893" y="-435" width="533" height="30" rx="6" fill="#fafafa" stroke="none"/><text x="-626.5" y="-415" text-anchor="middle" font-size="13" fill="#333" font-family="-apple-system,BlinkMacSystemFont,sans-serif">公共数据平台，作为一个数据中台系统，提供给其他系统调用一些公共的，可复用的信息</text><path d="M-260,-240 C-310,-240 -310,-220 -360,-220" fill="none" stroke="#77C386" stroke-width="2"/><rect x="-440" y="-235" width="80" height="30" rx="6" fill="#fafafa" stroke="none"/><text x="-400" y="-215" text-anchor="middle" font-size="13" fill="#333" font-family="-apple-system,BlinkMacSystemFont,sans-serif">主要模块</text><path d="M-440,-220 C-490,-220 -490,-380 -540,-380" fill="none" stroke="#77C386" stroke-width="2"/><rect x="-620" y="-395" width="80" height="30" rx="6" fill="#fafafa" stroke="none"/><text x="-580" y="-375" text-anchor="middle" font-size="13" fill="#333" font-family="-apple-system,BlinkMacSystemFont,sans-serif">货主信息</text><path d="M-440,-220 C-490,-220 -490,-340 -540,-340" fill="none" stroke="#77C386" stroke-width="2"/><rect x="-620" y="-355" width="80" height="30" rx="6" fill="#fafafa" stroke="none"/><text x="-580" y="-335" text-anchor="middle" font-size="13" fill="#333" font-family="-apple-system,BlinkMacSystemFont,sans-serif">产品信息</text><path d="M-440,-220 C-490,-220 -490,-300 -540,-300" fill="none" stroke="#77C386" stroke-width="2"/><rect x="-620" y="-315" width="80" height="30" rx="6" fill="#fafafa" stroke="none"/><text x="-580" y="-295" text-anchor="middle" font-size="13" fill="#333" font-family="-apple-system,BlinkMacSystemFont,sans-serif">仓库信息</text><path d="M-440,-220 C-490,-220 -490,-260 -540,-260" fill="none" stroke="#77C386" stroke-width="2"/><rect x="-644" y="-275" width="104" height="30" rx="6" fill="#fafafa" stroke="none"/><text x="-592" y="-255" text-anchor="middle" font-size="13" fill="#333" font-family="-apple-system,BlinkMacSystemFont,sans-serif">物流渠道信息</text><path d="M-440,-220 C-490,-220 -490,-160 -540,-160" fill="none" stroke="#77C386" stroke-width="2"/><rect x="-631" y="-175" width="91" height="30" rx="6" fill="#fafafa" stroke="none"/><text x="-585.5" y="-155" text-anchor="middle" font-size="13" fill="#333" font-family="-apple-system,BlinkMacSystemFont,sans-serif">主数据管理</text><path d="M-631,-160 C-675.5,-160 -675.5,-220 -720,-220" fill="none" stroke="#77C386" stroke-width="2"/><rect x="-863.52" y="-235" width="143.51999999999998" height="30" rx="6" fill="#fafafa" stroke="none"/><text x="-791.76" y="-215" text-anchor="middle" font-size="13" fill="#333" font-family="-apple-system,BlinkMacSystemFont,sans-serif">国家/省州/城市数据</text><path d="M-631,-160 C-675.5,-160 -675.5,-180 -720,-180" fill="none" stroke="#77C386" stroke-width="2"/><rect x="-800" y="-195" width="80" height="30" rx="6" fill="#fafafa" stroke="none"/><text x="-760" y="-175" text-anchor="middle" font-size="13" fill="#333" font-family="-apple-system,BlinkMacSystemFont,sans-serif">地址管理</text><path d="M-631,-160 C-675.5,-160 -675.5,-140 -720,-140" fill="none" stroke="#77C386" stroke-width="2"/><rect x="-800" y="-155" width="80" height="30" rx="6" fill="#fafafa" stroke="none"/><text x="-760" y="-135" text-anchor="middle" font-size="13" fill="#333" font-family="-apple-system,BlinkMacSystemFont,sans-serif">货币管理</text><path d="M-631,-160 C-675.5,-160 -675.5,-100 -720,-100" fill="none" stroke="#77C386" stroke-width="2"/><rect x="-818.28" y="-115" width="98.28" height="30" rx="6" fill="#fafafa" stroke="none"/><text x="-769.14" y="-95" text-anchor="middle" font-size="13" fill="#333" font-family="-apple-system,BlinkMacSystemFont,sans-serif">FBA仓库代码</text><path d="M-440,-220 C-490,-220 -490,-60 -540,-60" fill="none" stroke="#77C386" stroke-width="2"/><rect x="-624.76" y="-75" width="84.75999999999999" height="30" rx="6" fill="#fafafa" stroke="none"/><text x="-582.38" y="-55" text-anchor="middle" font-size="13" fill="#333" font-family="-apple-system,BlinkMacSystemFont,sans-serif">规则&amp;策略</text><path d="M-84.63999999999999,0 C-174.64,0 -174.64,200 -264.64,200" fill="none" stroke="#DFB85D" stroke-width="2"/><rect x="-260" y="185" width="80" height="30" rx="6" fill="#fafafa" stroke="none"/><text x="-220" y="205" text-anchor="middle" font-size="13" fill="#333" font-family="-apple-system,BlinkMacSystemFont,sans-serif">FMS/BMS</text><path d="M-260,200 C-310,200 -310,-20 -360,-20" fill="none" stroke="#DFB85D" stroke-width="2"/><rect x="-913.28" y="-35" width="553.28" height="30" rx="6" fill="#fafafa" stroke="none"/><text x="-636.64" y="-15" text-anchor="middle" font-size="13" fill="#333" font-family="-apple-system,BlinkMacSystemFont,sans-serif">费用结算管理系统，不同的业务场景，要计费的内容不一样，FMS的模块也会有很大的不一样</text><path d="M-260,200 C-310,200 -310,220 -360,220" fill="none" stroke="#DFB85D" stroke-width="2"/><rect x="-440" y="205" width="80" height="30" rx="6" fill="#fafafa" stroke="none"/><text x="-400" y="225" text-anchor="middle" font-size="13" fill="#333" font-family="-apple-system,BlinkMacSystemFont,sans-serif">主要模块</text><path d="M-440,220 C-490,220 -490,20 -540,20" fill="none" stroke="#DFB85D" stroke-width="2"/><rect x="-631" y="5" width="91" height="30" rx="6" fill="#fafafa" stroke="none"/><text x="-585.5" y="25" text-anchor="middle" font-size="13" fill="#333" font-family="-apple-system,BlinkMacSystemFont,sans-serif">费用项管理</text><path d="M-440,220 C-490,220 -490,100 -540,100" fill="none" stroke="#DFB85D" stroke-width="2"/><rect x="-644" y="85" width="104" height="30" rx="6" fill="#fafafa" stroke="none"/><text x="-592" y="105" text-anchor="middle" font-size="13" fill="#333" font-family="-apple-system,BlinkMacSystemFont,sans-serif">计费规则维护</text><path d="M-644,100 C-682,100 -682,60 -720,60" fill="none" stroke="#DFB85D" stroke-width="2"/><rect x="-800" y="45" width="80" height="30" rx="6" fill="#fafafa" stroke="none"/><text x="-760" y="65" text-anchor="middle" font-size="13" fill="#333" font-family="-apple-system,BlinkMacSystemFont,sans-serif">物流费</text><path d="M-644,100 C-682,100 -682,100 -720,100" fill="none" stroke="#DFB85D" stroke-width="2"/><rect x="-800" y="85" width="80" height="30" rx="6" fill="#fafafa" stroke="none"/><text x="-760" y="105" text-anchor="middle" font-size="13" fill="#333" font-family="-apple-system,BlinkMacSystemFont,sans-serif">仓储费</text><path d="M-644,100 C-682,100 -682,140 -720,140" fill="none" stroke="#DFB85D" stroke-width="2"/><rect x="-800" y="125" width="80" height="30" rx="6" fill="#fafafa" stroke="none"/><text x="-760" y="145" text-anchor="middle" font-size="13" fill="#333" font-family="-apple-system,BlinkMacSystemFont,sans-serif">操作费</text><path d="M-440,220 C-490,220 -490,200 -540,200" fill="none" stroke="#DFB85D" stroke-width="2"/><rect x="-620" y="185" width="80" height="30" rx="6" fill="#fafafa" stroke="none"/><text x="-580" y="205" text-anchor="middle" font-size="13" fill="#333" font-family="-apple-system,BlinkMacSystemFont,sans-serif">报价管理</text><path d="M-620,200 C-670,200 -670,180 -720,180" fill="none" stroke="#DFB85D" stroke-width="2"/><rect x="-800" y="165" width="80" height="30" rx="6" fill="#fafafa" stroke="none"/><text x="-760" y="185" text-anchor="middle" font-size="13" fill="#333" font-family="-apple-system,BlinkMacSystemFont,sans-serif">应收报价</text><path d="M-620,200 C-670,200 -670,220 -720,220" fill="none" stroke="#DFB85D" stroke-width="2"/><rect x="-800" y="205" width="80" height="30" rx="6" fill="#fafafa" stroke="none"/><text x="-760" y="225" text-anchor="middle" font-size="13" fill="#333" font-family="-apple-system,BlinkMacSystemFont,sans-serif">应付报价</text><path d="M-440,220 C-490,220 -490,280 -540,280" fill="none" stroke="#DFB85D" stroke-width="2"/><rect x="-620" y="265" width="80" height="30" rx="6" fill="#fafafa" stroke="none"/><text x="-580" y="285" text-anchor="middle" font-size="13" fill="#333" font-family="-apple-system,BlinkMacSystemFont,sans-serif">账单管理</text><path d="M-620,280 C-670,280 -670,260 -720,260" fill="none" stroke="#DFB85D" stroke-width="2"/><rect x="-800" y="245" width="80" height="30" rx="6" fill="#fafafa" stroke="none"/><text x="-760" y="265" text-anchor="middle" font-size="13" fill="#333" font-family="-apple-system,BlinkMacSystemFont,sans-serif">应收对账</text><path d="M-620,280 C-670,280 -670,300 -720,300" fill="none" stroke="#DFB85D" stroke-width="2"/><rect x="-800" y="285" width="80" height="30" rx="6" fill="#fafafa" stroke="none"/><text x="-760" y="305" text-anchor="middle" font-size="13" fill="#333" font-family="-apple-system,BlinkMacSystemFont,sans-serif">应付对账</text><path d="M-440,220 C-490,220 -490,380 -540,380" fill="none" stroke="#DFB85D" stroke-width="2"/><rect x="-650.76" y="365" width="110.75999999999999" height="30" rx="6" fill="#fafafa" stroke="none"/><text x="-595.38" y="385" text-anchor="middle" font-size="13" fill="#333" font-family="-apple-system,BlinkMacSystemFont,sans-serif">账户&amp;资金管理</text><path d="M-650.76,380 C-685.38,380 -685.38,340 -720,340" fill="none" stroke="#DFB85D" stroke-width="2"/><rect x="-800" y="325" width="80" height="30" rx="6" fill="#fafafa" stroke="none"/><text x="-760" y="345" text-anchor="middle" font-size="13" fill="#333" font-family="-apple-system,BlinkMacSystemFont,sans-serif">账户管理</text><path d="M-650.76,380 C-685.38,380 -685.38,380 -720,380" fill="none" stroke="#DFB85D" stroke-width="2"/><rect x="-824" y="365" width="104" height="30" rx="6" fill="#fafafa" stroke="none"/><text x="-772" y="385" text-anchor="middle" font-size="13" fill="#333" font-family="-apple-system,BlinkMacSystemFont,sans-serif">资金流水管理</text><path d="M-650.76,380 C-685.38,380 -685.38,420 -720,420" fill="none" stroke="#DFB85D" stroke-width="2"/><rect x="-800" y="405" width="80" height="30" rx="6" fill="#fafafa" stroke="none"/><text x="-760" y="425" text-anchor="middle" font-size="13" fill="#333" font-family="-apple-system,BlinkMacSystemFont,sans-serif">……</text>
</svg>