<svg xmlns="http://www.w3.org/2000/svg" xmlns:xlink="http://www.w3.org/1999/xlink"
  viewBox="-152 -773.125 906 1492.125" width="906" height="1492.125"
  style="background:#fff; font-family:-apple-system,BlinkMacSystemFont,'Segoe UI',Roboto,sans-serif;">
<defs></defs>
<rect x="-152" y="-773.125" width="906" height="1492.125" fill="#fff"/>
<rect x="-68" y="-18" width="136" height="36" rx="8" fill="#EFF0F0" stroke="none"/><text x="0" y="6" text-anchor="middle" font-size="16" font-weight="bold" fill="#333" font-family="-apple-system,BlinkMacSystemFont,sans-serif">商品（字段）</text><path d="M68,0 C158,0 158,-420 248,-420" fill="none" stroke="#A287E1" stroke-width="2"/><rect x="180" y="-435" width="80" height="30" rx="6" fill="#fafafa" stroke="none"/><text x="220" y="-415" text-anchor="middle" font-size="13" fill="#333" font-family="-apple-system,BlinkMacSystemFont,sans-serif">基础信息</text><path d="M260,-420 C310,-420 310,-620 360,-620" fill="none" stroke="#A287E1" stroke-width="2"/><rect x="360" y="-635" width="124.28000000000002" height="30" rx="6" fill="#fafafa" stroke="none"/><text x="422.14" y="-615" text-anchor="middle" font-size="13" fill="#333" font-family="-apple-system,BlinkMacSystemFont,sans-serif">商品编码（SKU）</text><path d="M260,-420 C310,-420 310,-580 360,-580" fill="none" stroke="#A287E1" stroke-width="2"/><rect x="360" y="-595" width="80" height="30" rx="6" fill="#fafafa" stroke="none"/><text x="400" y="-575" text-anchor="middle" font-size="13" fill="#333" font-family="-apple-system,BlinkMacSystemFont,sans-serif">商品名称</text><path d="M260,-420 C310,-420 310,-540 360,-540" fill="none" stroke="#A287E1" stroke-width="2"/><rect x="360" y="-555" width="80" height="30" rx="6" fill="#fafafa" stroke="none"/><text x="400" y="-535" text-anchor="middle" font-size="13" fill="#333" font-family="-apple-system,BlinkMacSystemFont,sans-serif">商品类型</text><path d="M260,-420 C310,-420 310,-500 360,-500" fill="none" stroke="#A287E1" stroke-width="2"/><rect x="360" y="-515" width="80" height="30" rx="6" fill="#fafafa" stroke="none"/><text x="400" y="-495" text-anchor="middle" font-size="13" fill="#333" font-family="-apple-system,BlinkMacSystemFont,sans-serif">商品描述</text><path d="M260,-420 C310,-420 310,-440 360,-440" fill="none" stroke="#A287E1" stroke-width="2"/><rect x="360" y="-455" width="80" height="30" rx="6" fill="#fafafa" stroke="none"/><text x="400" y="-435" text-anchor="middle" font-size="13" fill="#333" font-family="-apple-system,BlinkMacSystemFont,sans-serif">单位</text><path d="M440,-440 C490,-440 490,-460 540,-460" fill="none" stroke="#A287E1" stroke-width="2"/><rect x="540" y="-475" width="80" height="30" rx="6" fill="#fafafa" stroke="none"/><text x="580" y="-455" text-anchor="middle" font-size="13" fill="#333" font-family="-apple-system,BlinkMacSystemFont,sans-serif">单位管理</text><path d="M440,-440 C490,-440 490,-420 540,-420" fill="none" stroke="#A287E1" stroke-width="2"/><rect x="540" y="-435" width="130" height="30" rx="6" fill="#fafafa" stroke="none"/><text x="605" y="-415" text-anchor="middle" font-size="13" fill="#333" font-family="-apple-system,BlinkMacSystemFont,sans-serif">从数据字典中获取</text><path d="M260,-420 C310,-420 310,-380 360,-380" fill="none" stroke="#A287E1" stroke-width="2"/><rect x="360" y="-395" width="80" height="30" rx="6" fill="#fafafa" stroke="none"/><text x="400" y="-375" text-anchor="middle" font-size="13" fill="#333" font-family="-apple-system,BlinkMacSystemFont,sans-serif">所属品牌</text><path d="M260,-420 C310,-420 310,-340 360,-340" fill="none" stroke="#A287E1" stroke-width="2"/><rect x="360" y="-355" width="80" height="30" rx="6" fill="#fafafa" stroke="none"/><text x="400" y="-335" text-anchor="middle" font-size="13" fill="#333" font-family="-apple-system,BlinkMacSystemFont,sans-serif">原产地</text><path d="M260,-420 C310,-420 310,-300 360,-300" fill="none" stroke="#A287E1" stroke-width="2"/><rect x="360" y="-315" width="80" height="30" rx="6" fill="#fafafa" stroke="none"/><text x="400" y="-295" text-anchor="middle" font-size="13" fill="#333" font-family="-apple-system,BlinkMacSystemFont,sans-serif">规格型号</text><path d="M260,-420 C310,-420 310,-240 360,-240" fill="none" stroke="#A287E1" stroke-width="2"/><rect x="360" y="-255" width="80" height="30" rx="6" fill="#fafafa" stroke="none"/><text x="400" y="-235" text-anchor="middle" font-size="13" fill="#333" font-family="-apple-system,BlinkMacSystemFont,sans-serif">商品分类</text><path d="M440,-240 C490,-240 490,-260 540,-260" fill="none" stroke="#A287E1" stroke-width="2"/><rect x="540" y="-275" width="80" height="30" rx="6" fill="#fafafa" stroke="none"/><text x="580" y="-255" text-anchor="middle" font-size="13" fill="#333" font-family="-apple-system,BlinkMacSystemFont,sans-serif">三级分类</text><path d="M440,-240 C490,-240 490,-220 540,-220" fill="none" stroke="#A287E1" stroke-width="2"/><rect x="540" y="-235" width="104" height="30" rx="6" fill="#fafafa" stroke="none"/><text x="592" y="-215" text-anchor="middle" font-size="13" fill="#333" font-family="-apple-system,BlinkMacSystemFont,sans-serif">还是四级分类</text><path d="M68,0 C158,0 158,-140 248,-140" fill="none" stroke="#6F81DB" stroke-width="2"/><rect x="180" y="-155" width="80" height="30" rx="6" fill="#fafafa" stroke="none"/><text x="220" y="-135" text-anchor="middle" font-size="13" fill="#333" font-family="-apple-system,BlinkMacSystemFont,sans-serif">条码信息</text><path d="M260,-140 C310,-140 310,-180 360,-180" fill="none" stroke="#6F81DB" stroke-width="2"/><rect x="360" y="-195" width="80" height="30" rx="6" fill="#fafafa" stroke="none"/><text x="400" y="-175" text-anchor="middle" font-size="13" fill="#333" font-family="-apple-system,BlinkMacSystemFont,sans-serif">商品条码</text><path d="M440,-180 C490,-180 490,-180 540,-180" fill="none" stroke="#6F81DB" stroke-width="2"/><rect x="540" y="-195" width="80" height="30" rx="6" fill="#fafafa" stroke="none"/><text x="580" y="-175" text-anchor="middle" font-size="13" fill="#333" font-family="-apple-system,BlinkMacSystemFont,sans-serif">主条码</text><path d="M260,-140 C310,-140 310,-120 360,-120" fill="none" stroke="#6F81DB" stroke-width="2"/><rect x="360" y="-135" width="80" height="30" rx="6" fill="#fafafa" stroke="none"/><text x="400" y="-115" text-anchor="middle" font-size="13" fill="#333" font-family="-apple-system,BlinkMacSystemFont,sans-serif">其他条码</text><path d="M440,-120 C490,-120 490,-140 540,-140" fill="none" stroke="#6F81DB" stroke-width="2"/><rect x="540" y="-155" width="80" height="30" rx="6" fill="#fafafa" stroke="none"/><text x="580" y="-135" text-anchor="middle" font-size="13" fill="#333" font-family="-apple-system,BlinkMacSystemFont,sans-serif">其他条码</text><path d="M440,-120 C490,-120 490,-100 540,-100" fill="none" stroke="#6F81DB" stroke-width="2"/><rect x="540" y="-115" width="104" height="30" rx="6" fill="#fafafa" stroke="none"/><text x="592" y="-95" text-anchor="middle" font-size="13" fill="#333" font-family="-apple-system,BlinkMacSystemFont,sans-serif">支持一品多码</text><path d="M68,0 C158,0 158,40 248,40" fill="none" stroke="#6EC4C4" stroke-width="2"/><rect x="180" y="25" width="80" height="30" rx="6" fill="#fafafa" stroke="none"/><text x="220" y="45" text-anchor="middle" font-size="13" fill="#333" font-family="-apple-system,BlinkMacSystemFont,sans-serif">规格信息</text><path d="M260,40 C310,40 310,-20 360,-20" fill="none" stroke="#6EC4C4" stroke-width="2"/><rect x="360" y="-35" width="80" height="30" rx="6" fill="#fafafa" stroke="none"/><text x="400" y="-15" text-anchor="middle" font-size="13" fill="#333" font-family="-apple-system,BlinkMacSystemFont,sans-serif">尺寸</text><path d="M440,-20 C490,-20 490,-60 540,-60" fill="none" stroke="#6EC4C4" stroke-width="2"/><rect x="540" y="-75" width="80" height="30" rx="6" fill="#fafafa" stroke="none"/><text x="580" y="-55" text-anchor="middle" font-size="13" fill="#333" font-family="-apple-system,BlinkMacSystemFont,sans-serif">长</text><path d="M440,-20 C490,-20 490,-20 540,-20" fill="none" stroke="#6EC4C4" stroke-width="2"/><rect x="540" y="-35" width="80" height="30" rx="6" fill="#fafafa" stroke="none"/><text x="580" y="-15" text-anchor="middle" font-size="13" fill="#333" font-family="-apple-system,BlinkMacSystemFont,sans-serif">宽</text><path d="M440,-20 C490,-20 490,20 540,20" fill="none" stroke="#6EC4C4" stroke-width="2"/><rect x="540" y="5" width="80" height="30" rx="6" fill="#fafafa" stroke="none"/><text x="580" y="25" text-anchor="middle" font-size="13" fill="#333" font-family="-apple-system,BlinkMacSystemFont,sans-serif">高</text><path d="M260,40 C310,40 310,100 360,100" fill="none" stroke="#6EC4C4" stroke-width="2"/><rect x="360" y="85" width="80" height="30" rx="6" fill="#fafafa" stroke="none"/><text x="400" y="105" text-anchor="middle" font-size="13" fill="#333" font-family="-apple-system,BlinkMacSystemFont,sans-serif">重量</text><path d="M440,100 C490,100 490,60 540,60" fill="none" stroke="#6EC4C4" stroke-width="2"/><rect x="540" y="45" width="80" height="30" rx="6" fill="#fafafa" stroke="none"/><text x="580" y="65" text-anchor="middle" font-size="13" fill="#333" font-family="-apple-system,BlinkMacSystemFont,sans-serif">毛重</text><path d="M440,100 C490,100 490,100 540,100" fill="none" stroke="#6EC4C4" stroke-width="2"/><rect x="540" y="85" width="80" height="30" rx="6" fill="#fafafa" stroke="none"/><text x="580" y="105" text-anchor="middle" font-size="13" fill="#333" font-family="-apple-system,BlinkMacSystemFont,sans-serif">净重</text><path d="M440,100 C490,100 490,140 540,140" fill="none" stroke="#6EC4C4" stroke-width="2"/><rect x="540" y="125" width="80" height="30" rx="6" fill="#fafafa" stroke="none"/><text x="580" y="145" text-anchor="middle" font-size="13" fill="#333" font-family="-apple-system,BlinkMacSystemFont,sans-serif">外箱重</text><path d="M68,0 C158,0 158,240 248,240" fill="none" stroke="#DFB85D" stroke-width="2"/><rect x="180" y="225" width="80" height="30" rx="6" fill="#fafafa" stroke="none"/><text x="220" y="245" text-anchor="middle" font-size="13" fill="#333" font-family="-apple-system,BlinkMacSystemFont,sans-serif">库存管理</text><path d="M260,240 C310,240 310,180 360,180" fill="none" stroke="#DFB85D" stroke-width="2"/><rect x="360" y="165" width="117" height="30" rx="6" fill="#fafafa" stroke="none"/><text x="418.5" y="185" text-anchor="middle" font-size="13" fill="#333" font-family="-apple-system,BlinkMacSystemFont,sans-serif">启用保质期管理</text><path d="M477,180 C508.5,180 508.5,180 540,180" fill="none" stroke="#DFB85D" stroke-width="2"/><rect x="540" y="165" width="91" height="30" rx="6" fill="#fafafa" stroke="none"/><text x="585.5" y="185" text-anchor="middle" font-size="13" fill="#333" font-family="-apple-system,BlinkMacSystemFont,sans-serif">保质期天数</text><path d="M260,240 C310,240 310,220 360,220" fill="none" stroke="#DFB85D" stroke-width="2"/><rect x="360" y="205" width="104" height="30" rx="6" fill="#fafafa" stroke="none"/><text x="412" y="225" text-anchor="middle" font-size="13" fill="#333" font-family="-apple-system,BlinkMacSystemFont,sans-serif">启用批号管理</text><path d="M464,220 C502,220 502,220 540,220" fill="none" stroke="#DFB85D" stroke-width="2"/><rect x="540" y="205" width="117" height="30" rx="6" fill="#fafafa" stroke="none"/><text x="598.5" y="225" text-anchor="middle" font-size="13" fill="#333" font-family="-apple-system,BlinkMacSystemFont,sans-serif">产品有生产批号</text><path d="M260,240 C310,240 310,280 360,280" fill="none" stroke="#DFB85D" stroke-width="2"/><rect x="360" y="265" width="80" height="30" rx="6" fill="#fafafa" stroke="none"/><text x="400" y="285" text-anchor="middle" font-size="13" fill="#333" font-family="-apple-system,BlinkMacSystemFont,sans-serif">装箱数量</text><path d="M440,280 C490,280 490,260 540,260" fill="none" stroke="#DFB85D" stroke-width="2"/><rect x="540" y="245" width="80" height="30" rx="6" fill="#fafafa" stroke="none"/><text x="580" y="265" text-anchor="middle" font-size="13" fill="#333" font-family="-apple-system,BlinkMacSystemFont,sans-serif">整箱装</text><path d="M440,280 C490,280 490,300 540,300" fill="none" stroke="#DFB85D" stroke-width="2"/><rect x="540" y="285" width="80" height="30" rx="6" fill="#fafafa" stroke="none"/><text x="580" y="305" text-anchor="middle" font-size="13" fill="#333" font-family="-apple-system,BlinkMacSystemFont,sans-serif">散装</text><path d="M68,0 C158,0 158,400 248,400" fill="none" stroke="#77C386" stroke-width="2"/><rect x="180" y="385" width="110.75999999999999" height="30" rx="6" fill="#fafafa" stroke="none"/><text x="235.38" y="405" text-anchor="middle" font-size="13" fill="#333" font-family="-apple-system,BlinkMacSystemFont,sans-serif">运输/保管要求</text><path d="M290.76,400 C325.38,400 325.38,340 360,340" fill="none" stroke="#77C386" stroke-width="2"/><rect x="360" y="325" width="80" height="30" rx="6" fill="#fafafa" stroke="none"/><text x="400" y="345" text-anchor="middle" font-size="13" fill="#333" font-family="-apple-system,BlinkMacSystemFont,sans-serif">货品数量</text><path d="M290.76,400 C325.38,400 325.38,380 360,380" fill="none" stroke="#77C386" stroke-width="2"/><rect x="360" y="365" width="80" height="30" rx="6" fill="#fafafa" stroke="none"/><text x="400" y="385" text-anchor="middle" font-size="13" fill="#333" font-family="-apple-system,BlinkMacSystemFont,sans-serif">储存温度</text><path d="M290.76,400 C325.38,400 325.38,420 360,420" fill="none" stroke="#77C386" stroke-width="2"/><rect x="360" y="405" width="80" height="30" rx="6" fill="#fafafa" stroke="none"/><text x="400" y="425" text-anchor="middle" font-size="13" fill="#333" font-family="-apple-system,BlinkMacSystemFont,sans-serif">储存湿度</text><path d="M290.76,400 C325.38,400 325.38,460 360,460" fill="none" stroke="#77C386" stroke-width="2"/><rect x="360" y="445" width="80" height="30" rx="6" fill="#fafafa" stroke="none"/><text x="400" y="465" text-anchor="middle" font-size="13" fill="#333" font-family="-apple-system,BlinkMacSystemFont,sans-serif">运输要求</text><path d="M68,0 C158,0 158,560 248,560" fill="none" stroke="#E48484" stroke-width="2"/><rect x="180" y="545" width="80" height="30" rx="6" fill="#fafafa" stroke="none"/><text x="220" y="565" text-anchor="middle" font-size="13" fill="#333" font-family="-apple-system,BlinkMacSystemFont,sans-serif">价格信息</text><path d="M260,560 C310,560 310,500 360,500" fill="none" stroke="#E48484" stroke-width="2"/><rect x="360" y="485" width="91" height="30" rx="6" fill="#fafafa" stroke="none"/><text x="405.5" y="505" text-anchor="middle" font-size="13" fill="#333" font-family="-apple-system,BlinkMacSystemFont,sans-serif">默认采购价</text><path d="M260,560 C310,560 310,540 360,540" fill="none" stroke="#E48484" stroke-width="2"/><rect x="360" y="525" width="91" height="30" rx="6" fill="#fafafa" stroke="none"/><text x="405.5" y="545" text-anchor="middle" font-size="13" fill="#333" font-family="-apple-system,BlinkMacSystemFont,sans-serif">默认批发价</text><path d="M260,560 C310,560 310,580 360,580" fill="none" stroke="#E48484" stroke-width="2"/><rect x="360" y="565" width="91" height="30" rx="6" fill="#fafafa" stroke="none"/><text x="405.5" y="585" text-anchor="middle" font-size="13" fill="#333" font-family="-apple-system,BlinkMacSystemFont,sans-serif">默认零售价</text><path d="M260,560 C310,560 310,620 360,620" fill="none" stroke="#E48484" stroke-width="2"/><rect x="360" y="605" width="80" height="30" rx="6" fill="#fafafa" stroke="none"/><text x="400" y="625" text-anchor="middle" font-size="13" fill="#333" font-family="-apple-system,BlinkMacSystemFont,sans-serif">等级价</text>
</svg>