<svg xmlns="http://www.w3.org/2000/svg" xmlns:xlink="http://www.w3.org/1999/xlink"
  viewBox="-168 -1239 1296 2478" width="1296" height="2478"
  style="background:#fff; font-family:-apple-system,BlinkMacSystemFont,'Segoe UI',Roboto,sans-serif;">
<defs></defs>
<rect x="-168" y="-1239" width="1296" height="2478" fill="#fff"/>
<rect x="-84" y="-18" width="168" height="36" rx="8" fill="#EFF0F0" stroke="none"/><text x="0" y="6" text-anchor="middle" font-size="16" font-weight="bold" fill="#333" font-family="-apple-system,BlinkMacSystemFont,sans-serif">产品经理工作流程</text><path d="M84,0 C174,0 174,-1020 264,-1020" fill="none" stroke="#A287E1" stroke-width="2"/><rect x="180" y="-1035" width="80" height="30" rx="6" fill="#fafafa" stroke="none"/><text x="220" y="-1015" text-anchor="middle" font-size="13" fill="#333" font-family="-apple-system,BlinkMacSystemFont,sans-serif">产品定义</text><path d="M260,-1020 C310,-1020 310,-1140 360,-1140" fill="none" stroke="#A287E1" stroke-width="2"/><rect x="360" y="-1155" width="80" height="30" rx="6" fill="#fafafa" stroke="none"/><text x="400" y="-1135" text-anchor="middle" font-size="13" fill="#333" font-family="-apple-system,BlinkMacSystemFont,sans-serif">收集需求</text><path d="M260,-1020 C310,-1020 310,-1100 360,-1100" fill="none" stroke="#A287E1" stroke-width="2"/><rect x="360" y="-1115" width="80" height="30" rx="6" fill="#fafafa" stroke="none"/><text x="400" y="-1095" text-anchor="middle" font-size="13" fill="#333" font-family="-apple-system,BlinkMacSystemFont,sans-serif">需求分析</text><path d="M260,-1020 C310,-1020 310,-1060 360,-1060" fill="none" stroke="#A287E1" stroke-width="2"/><rect x="360" y="-1075" width="80" height="30" rx="6" fill="#fafafa" stroke="none"/><text x="400" y="-1055" text-anchor="middle" font-size="13" fill="#333" font-family="-apple-system,BlinkMacSystemFont,sans-serif">竞品调研</text><path d="M260,-1020 C310,-1020 310,-1020 360,-1020" fill="none" stroke="#A287E1" stroke-width="2"/><rect x="360" y="-1035" width="110.75999999999999" height="30" rx="6" fill="#fafafa" stroke="none"/><text x="415.38" y="-1015" text-anchor="middle" font-size="13" fill="#333" font-family="-apple-system,BlinkMacSystemFont,sans-serif">产品定义/规划</text><path d="M260,-1020 C310,-1020 310,-980 360,-980" fill="none" stroke="#A287E1" stroke-width="2"/><rect x="360" y="-995" width="182" height="30" rx="6" fill="transparent" stroke="#BFBFBF"/><text x="451" y="-975" text-anchor="middle" font-size="13" fill="#333" font-family="-apple-system,BlinkMacSystemFont,sans-serif">需求分析的能力（基本功）</text><path d="M260,-1020 C310,-1020 310,-940 360,-940" fill="none" stroke="#A287E1" stroke-width="2"/><rect x="360" y="-955" width="156" height="30" rx="6" fill="transparent" stroke="#BFBFBF"/><text x="438" y="-935" text-anchor="middle" font-size="13" fill="#333" font-family="-apple-system,BlinkMacSystemFont,sans-serif">竞品调研和分析的能力</text><path d="M260,-1020 C310,-1020 310,-900 360,-900" fill="none" stroke="#A287E1" stroke-width="2"/><rect x="360" y="-915" width="117" height="30" rx="6" fill="transparent" stroke="#BFBFBF"/><text x="418.5" y="-895" text-anchor="middle" font-size="13" fill="#333" font-family="-apple-system,BlinkMacSystemFont,sans-serif">产品规划的能力</text><path d="M84,0 C174,0 174,-520 264,-520" fill="none" stroke="#DFB85D" stroke-width="2"/><rect x="180" y="-535" width="80" height="30" rx="6" fill="#fafafa" stroke="none"/><text x="220" y="-515" text-anchor="middle" font-size="13" fill="#333" font-family="-apple-system,BlinkMacSystemFont,sans-serif">产品设计</text><path d="M260,-520 C310,-520 310,-780 360,-780" fill="none" stroke="#DFB85D" stroke-width="2"/><rect x="360" y="-795" width="80" height="30" rx="6" fill="#fafafa" stroke="none"/><text x="400" y="-775" text-anchor="middle" font-size="13" fill="#333" font-family="-apple-system,BlinkMacSystemFont,sans-serif">业务设计</text><path d="M440,-780 C490,-780 490,-860 540,-860" fill="none" stroke="#DFB85D" stroke-width="2"/><rect x="540" y="-875" width="91" height="30" rx="6" fill="#fafafa" stroke="none"/><text x="585.5" y="-855" text-anchor="middle" font-size="13" fill="#333" font-family="-apple-system,BlinkMacSystemFont,sans-serif">需求四要素</text><path d="M631,-860 C675.5,-860 675.5,-860 720,-860" fill="none" stroke="#DFB85D" stroke-width="2"/><rect x="720" y="-875" width="169" height="30" rx="6" fill="#fafafa" stroke="none"/><text x="804.5" y="-855" text-anchor="middle" font-size="13" fill="#333" font-family="-apple-system,BlinkMacSystemFont,sans-serif">用户，场景，问题，期望</text><path d="M440,-780 C490,-780 490,-820 540,-820" fill="none" stroke="#DFB85D" stroke-width="2"/><rect x="540" y="-835" width="169" height="30" rx="6" fill="#fafafa" stroke="none"/><text x="624.5" y="-815" text-anchor="middle" font-size="13" fill="#333" font-family="-apple-system,BlinkMacSystemFont,sans-serif">业务关系，业务逻辑梳理</text><path d="M440,-780 C490,-780 490,-780 540,-780" fill="none" stroke="#DFB85D" stroke-width="2"/><rect x="540" y="-795" width="91" height="30" rx="6" fill="#fafafa" stroke="none"/><text x="585.5" y="-775" text-anchor="middle" font-size="13" fill="#333" font-family="-apple-system,BlinkMacSystemFont,sans-serif">业务流程图</text><path d="M440,-780 C490,-780 490,-740 540,-740" fill="none" stroke="#DFB85D" stroke-width="2"/><rect x="540" y="-755" width="104" height="30" rx="6" fill="#fafafa" stroke="none"/><text x="592" y="-735" text-anchor="middle" font-size="13" fill="#333" font-family="-apple-system,BlinkMacSystemFont,sans-serif">用户体验地图</text><path d="M440,-780 C490,-780 490,-700 540,-700" fill="none" stroke="#DFB85D" stroke-width="2"/><rect x="540" y="-715" width="130" height="30" rx="6" fill="transparent" stroke="#BFBFBF"/><text x="605" y="-695" text-anchor="middle" font-size="13" fill="#333" font-family="-apple-system,BlinkMacSystemFont,sans-serif">产品业务设计能力</text><path d="M260,-520 C310,-520 310,-520 360,-520" fill="none" stroke="#DFB85D" stroke-width="2"/><rect x="360" y="-535" width="80" height="30" rx="6" fill="#fafafa" stroke="none"/><text x="400" y="-515" text-anchor="middle" font-size="13" fill="#333" font-family="-apple-system,BlinkMacSystemFont,sans-serif">应用设计</text><path d="M440,-520 C490,-520 490,-660 540,-660" fill="none" stroke="#DFB85D" stroke-width="2"/><rect x="540" y="-675" width="104" height="30" rx="6" fill="#fafafa" stroke="none"/><text x="592" y="-655" text-anchor="middle" font-size="13" fill="#333" font-family="-apple-system,BlinkMacSystemFont,sans-serif">产品信息结构</text><path d="M440,-520 C490,-520 490,-620 540,-620" fill="none" stroke="#DFB85D" stroke-width="2"/><rect x="540" y="-635" width="104" height="30" rx="6" fill="#fafafa" stroke="none"/><text x="592" y="-615" text-anchor="middle" font-size="13" fill="#333" font-family="-apple-system,BlinkMacSystemFont,sans-serif">产品功能结构</text><path d="M440,-520 C490,-520 490,-580 540,-580" fill="none" stroke="#DFB85D" stroke-width="2"/><rect x="540" y="-595" width="91" height="30" rx="6" fill="#fafafa" stroke="none"/><text x="585.5" y="-575" text-anchor="middle" font-size="13" fill="#333" font-family="-apple-system,BlinkMacSystemFont,sans-serif">产品原型图</text><path d="M440,-520 C490,-520 490,-540 540,-540" fill="none" stroke="#DFB85D" stroke-width="2"/><rect x="540" y="-555" width="80" height="30" rx="6" fill="#fafafa" stroke="none"/><text x="580" y="-535" text-anchor="middle" font-size="13" fill="#333" font-family="-apple-system,BlinkMacSystemFont,sans-serif">需求文档</text><path d="M440,-520 C490,-520 490,-440 540,-440" fill="none" stroke="#DFB85D" stroke-width="2"/><rect x="540" y="-455" width="195" height="30" rx="6" fill="transparent" stroke="#BFBFBF"/><text x="637.5" y="-435" text-anchor="middle" font-size="13" fill="#333" font-family="-apple-system,BlinkMacSystemFont,sans-serif">产品应用设计能力（基本功）</text><path d="M735,-440 C727.5,-440 727.5,-500 720,-500" fill="none" stroke="#BFBFBF" stroke-width="2"/><rect x="720" y="-515" width="117" height="30" rx="6" fill="transparent" stroke="#BFBFBF"/><text x="778.5" y="-495" text-anchor="middle" font-size="13" fill="#333" font-family="-apple-system,BlinkMacSystemFont,sans-serif">原型工具的使用</text><path d="M735,-440 C727.5,-440 727.5,-460 720,-460" fill="none" stroke="#BFBFBF" stroke-width="2"/><rect x="720" y="-475" width="130" height="30" rx="6" fill="transparent" stroke="#BFBFBF"/><text x="785" y="-455" text-anchor="middle" font-size="13" fill="#333" font-family="-apple-system,BlinkMacSystemFont,sans-serif">流程图工具的使用</text><path d="M735,-440 C727.5,-440 727.5,-420 720,-420" fill="none" stroke="#BFBFBF" stroke-width="2"/><rect x="720" y="-435" width="117" height="30" rx="6" fill="transparent" stroke="#BFBFBF"/><text x="778.5" y="-415" text-anchor="middle" font-size="13" fill="#333" font-family="-apple-system,BlinkMacSystemFont,sans-serif">需求文档的编写</text><path d="M735,-440 C727.5,-440 727.5,-380 720,-380" fill="none" stroke="#BFBFBF" stroke-width="2"/><rect x="720" y="-395" width="156" height="30" rx="6" fill="transparent" stroke="#BFBFBF"/><text x="798" y="-375" text-anchor="middle" font-size="13" fill="#333" font-family="-apple-system,BlinkMacSystemFont,sans-serif">解决方案的输出和传递</text><path d="M260,-520 C310,-520 310,-260 360,-260" fill="none" stroke="#DFB85D" stroke-width="2"/><rect x="360" y="-275" width="80" height="30" rx="6" fill="#fafafa" stroke="none"/><text x="400" y="-255" text-anchor="middle" font-size="13" fill="#333" font-family="-apple-system,BlinkMacSystemFont,sans-serif">技术设计</text><path d="M440,-260 C490,-260 490,-340 540,-340" fill="none" stroke="#DFB85D" stroke-width="2"/><rect x="540" y="-355" width="104" height="30" rx="6" fill="#fafafa" stroke="none"/><text x="592" y="-335" text-anchor="middle" font-size="13" fill="#333" font-family="-apple-system,BlinkMacSystemFont,sans-serif">业务流程梳理</text><path d="M440,-260 C490,-260 490,-300 540,-300" fill="none" stroke="#DFB85D" stroke-width="2"/><rect x="540" y="-315" width="130" height="30" rx="6" fill="#fafafa" stroke="none"/><text x="605" y="-295" text-anchor="middle" font-size="13" fill="#333" font-family="-apple-system,BlinkMacSystemFont,sans-serif">数据库表结构设计</text><path d="M440,-260 C490,-260 490,-260 540,-260" fill="none" stroke="#DFB85D" stroke-width="2"/><rect x="540" y="-275" width="104" height="30" rx="6" fill="#fafafa" stroke="none"/><text x="592" y="-255" text-anchor="middle" font-size="13" fill="#333" font-family="-apple-system,BlinkMacSystemFont,sans-serif">业务接口设计</text><path d="M440,-260 C490,-260 490,-220 540,-220" fill="none" stroke="#DFB85D" stroke-width="2"/><rect x="540" y="-235" width="104" height="30" rx="6" fill="#fafafa" stroke="none"/><text x="592" y="-215" text-anchor="middle" font-size="13" fill="#333" font-family="-apple-system,BlinkMacSystemFont,sans-serif">技术方案设计</text><path d="M440,-260 C490,-260 490,-180 540,-180" fill="none" stroke="#DFB85D" stroke-width="2"/><rect x="540" y="-195" width="80" height="30" rx="6" fill="transparent" stroke="#BFBFBF"/><text x="580" y="-175" text-anchor="middle" font-size="13" fill="#333" font-family="-apple-system,BlinkMacSystemFont,sans-serif">技术负责</text><path d="M84,0 C174,0 174,260 264,260" fill="none" stroke="#77C386" stroke-width="2"/><rect x="180" y="245" width="80" height="30" rx="6" fill="#fafafa" stroke="none"/><text x="220" y="265" text-anchor="middle" font-size="13" fill="#333" font-family="-apple-system,BlinkMacSystemFont,sans-serif">产品落地</text><path d="M260,260 C310,260 310,-40 360,-40" fill="none" stroke="#77C386" stroke-width="2"/><rect x="360" y="-55" width="80" height="30" rx="6" fill="#fafafa" stroke="none"/><text x="400" y="-35" text-anchor="middle" font-size="13" fill="#333" font-family="-apple-system,BlinkMacSystemFont,sans-serif">项目管理</text><path d="M440,-40 C490,-40 490,-140 540,-140" fill="none" stroke="#77C386" stroke-width="2"/><rect x="540" y="-155" width="80" height="30" rx="6" fill="#fafafa" stroke="none"/><text x="580" y="-135" text-anchor="middle" font-size="13" fill="#333" font-family="-apple-system,BlinkMacSystemFont,sans-serif">启动</text><path d="M440,-40 C490,-40 490,-100 540,-100" fill="none" stroke="#77C386" stroke-width="2"/><rect x="540" y="-115" width="80" height="30" rx="6" fill="#fafafa" stroke="none"/><text x="580" y="-95" text-anchor="middle" font-size="13" fill="#333" font-family="-apple-system,BlinkMacSystemFont,sans-serif">规划</text><path d="M440,-40 C490,-40 490,-60 540,-60" fill="none" stroke="#77C386" stroke-width="2"/><rect x="540" y="-75" width="80" height="30" rx="6" fill="#fafafa" stroke="none"/><text x="580" y="-55" text-anchor="middle" font-size="13" fill="#333" font-family="-apple-system,BlinkMacSystemFont,sans-serif">执行</text><path d="M440,-40 C490,-40 490,-20 540,-20" fill="none" stroke="#77C386" stroke-width="2"/><rect x="540" y="-35" width="80" height="30" rx="6" fill="#fafafa" stroke="none"/><text x="580" y="-15" text-anchor="middle" font-size="13" fill="#333" font-family="-apple-system,BlinkMacSystemFont,sans-serif">监控</text><path d="M440,-40 C490,-40 490,20 540,20" fill="none" stroke="#77C386" stroke-width="2"/><rect x="540" y="5" width="80" height="30" rx="6" fill="#fafafa" stroke="none"/><text x="580" y="25" text-anchor="middle" font-size="13" fill="#333" font-family="-apple-system,BlinkMacSystemFont,sans-serif">收尾</text><path d="M440,-40 C490,-40 490,60 540,60" fill="none" stroke="#77C386" stroke-width="2"/><rect x="540" y="45" width="117" height="30" rx="6" fill="transparent" stroke="#BFBFBF"/><text x="598.5" y="65" text-anchor="middle" font-size="13" fill="#333" font-family="-apple-system,BlinkMacSystemFont,sans-serif">项目管理的能力</text><path d="M260,260 C310,260 310,220 360,220" fill="none" stroke="#77C386" stroke-width="2"/><rect x="360" y="205" width="80" height="30" rx="6" fill="#fafafa" stroke="none"/><text x="400" y="225" text-anchor="middle" font-size="13" fill="#333" font-family="-apple-system,BlinkMacSystemFont,sans-serif">评审流程</text><path d="M440,220 C490,220 490,100 540,100" fill="none" stroke="#77C386" stroke-width="2"/><rect x="540" y="85" width="117" height="30" rx="6" fill="#fafafa" stroke="none"/><text x="598.5" y="105" text-anchor="middle" font-size="13" fill="#333" font-family="-apple-system,BlinkMacSystemFont,sans-serif">产品内审需求池</text><path d="M440,220 C490,220 490,140 540,140" fill="none" stroke="#77C386" stroke-width="2"/><rect x="540" y="125" width="117" height="30" rx="6" fill="#fafafa" stroke="none"/><text x="598.5" y="145" text-anchor="middle" font-size="13" fill="#333" font-family="-apple-system,BlinkMacSystemFont,sans-serif">迭代的需求评审</text><path d="M440,220 C490,220 490,180 540,180" fill="none" stroke="#77C386" stroke-width="2"/><rect x="540" y="165" width="104" height="30" rx="6" fill="#fafafa" stroke="none"/><text x="592" y="185" text-anchor="middle" font-size="13" fill="#333" font-family="-apple-system,BlinkMacSystemFont,sans-serif">技术方案评审</text><path d="M440,220 C490,220 490,220 540,220" fill="none" stroke="#77C386" stroke-width="2"/><rect x="540" y="205" width="98.28" height="30" rx="6" fill="#fafafa" stroke="none"/><text x="589.14" y="225" text-anchor="middle" font-size="13" fill="#333" font-family="-apple-system,BlinkMacSystemFont,sans-serif">UI/交互评审</text><path d="M440,220 C490,220 490,260 540,260" fill="none" stroke="#77C386" stroke-width="2"/><rect x="540" y="245" width="104" height="30" rx="6" fill="#fafafa" stroke="none"/><text x="592" y="265" text-anchor="middle" font-size="13" fill="#333" font-family="-apple-system,BlinkMacSystemFont,sans-serif">测试用例评审</text><path d="M440,220 C490,220 490,300 540,300" fill="none" stroke="#77C386" stroke-width="2"/><rect x="540" y="285" width="182" height="30" rx="6" fill="transparent" stroke="#BFBFBF"/><text x="631" y="305" text-anchor="middle" font-size="13" fill="#333" font-family="-apple-system,BlinkMacSystemFont,sans-serif">沟通表达的能力（基本功）</text><path d="M440,220 C490,220 490,340 540,340" fill="none" stroke="#77C386" stroke-width="2"/><rect x="540" y="325" width="80" height="30" rx="6" fill="transparent" stroke="#BFBFBF"/><text x="580" y="345" text-anchor="middle" font-size="13" fill="#333" font-family="-apple-system,BlinkMacSystemFont,sans-serif">不是重点</text><path d="M260,260 C310,260 310,440 360,440" fill="none" stroke="#77C386" stroke-width="2"/><rect x="360" y="425" width="80" height="30" rx="6" fill="#fafafa" stroke="none"/><text x="400" y="445" text-anchor="middle" font-size="13" fill="#333" font-family="-apple-system,BlinkMacSystemFont,sans-serif">走查流程</text><path d="M440,440 C490,440 490,380 540,380" fill="none" stroke="#77C386" stroke-width="2"/><rect x="540" y="365" width="130" height="30" rx="6" fill="#fafafa" stroke="none"/><text x="605" y="385" text-anchor="middle" font-size="13" fill="#333" font-family="-apple-system,BlinkMacSystemFont,sans-serif">测试环境验收走查</text><path d="M440,440 C490,440 490,420 540,420" fill="none" stroke="#77C386" stroke-width="2"/><rect x="540" y="405" width="124.28" height="30" rx="6" fill="#fafafa" stroke="none"/><text x="602.14" y="425" text-anchor="middle" font-size="13" fill="#333" font-family="-apple-system,BlinkMacSystemFont,sans-serif">UAT环境验收走查</text><path d="M440,440 C490,440 490,460 540,460" fill="none" stroke="#77C386" stroke-width="2"/><rect x="540" y="445" width="130" height="30" rx="6" fill="#fafafa" stroke="none"/><text x="605" y="465" text-anchor="middle" font-size="13" fill="#333" font-family="-apple-system,BlinkMacSystemFont,sans-serif">生产环境验收走查</text><path d="M440,440 C490,440 490,500 540,500" fill="none" stroke="#77C386" stroke-width="2"/><rect x="540" y="485" width="80" height="30" rx="6" fill="transparent" stroke="#BFBFBF"/><text x="580" y="505" text-anchor="middle" font-size="13" fill="#333" font-family="-apple-system,BlinkMacSystemFont,sans-serif">不是重点</text><path d="M260,260 C310,260 310,600 360,600" fill="none" stroke="#77C386" stroke-width="2"/><rect x="360" y="585" width="80" height="30" rx="6" fill="#fafafa" stroke="none"/><text x="400" y="605" text-anchor="middle" font-size="13" fill="#333" font-family="-apple-system,BlinkMacSystemFont,sans-serif">发版上线</text><path d="M440,600 C490,600 490,540 540,540" fill="none" stroke="#77C386" stroke-width="2"/><rect x="540" y="525" width="80" height="30" rx="6" fill="#fafafa" stroke="none"/><text x="580" y="545" text-anchor="middle" font-size="13" fill="#333" font-family="-apple-system,BlinkMacSystemFont,sans-serif">发版计划</text><path d="M440,600 C490,600 490,580 540,580" fill="none" stroke="#77C386" stroke-width="2"/><rect x="540" y="565" width="104" height="30" rx="6" fill="#fafafa" stroke="none"/><text x="592" y="585" text-anchor="middle" font-size="13" fill="#333" font-family="-apple-system,BlinkMacSystemFont,sans-serif">版本更新日志</text><path d="M440,600 C490,600 490,620 540,620" fill="none" stroke="#77C386" stroke-width="2"/><rect x="540" y="605" width="117" height="30" rx="6" fill="#fafafa" stroke="none"/><text x="598.5" y="625" text-anchor="middle" font-size="13" fill="#333" font-family="-apple-system,BlinkMacSystemFont,sans-serif">新功能操作手册</text><path d="M440,600 C490,600 490,660 540,660" fill="none" stroke="#77C386" stroke-width="2"/><rect x="540" y="645" width="143" height="30" rx="6" fill="transparent" stroke="#BFBFBF"/><text x="611.5" y="665" text-anchor="middle" font-size="13" fill="#333" font-family="-apple-system,BlinkMacSystemFont,sans-serif">执行能力（基本功）</text><path d="M84,0 C174,0 174,800 264,800" fill="none" stroke="#E48484" stroke-width="2"/><rect x="180" y="785" width="80" height="30" rx="6" fill="#fafafa" stroke="none"/><text x="220" y="805" text-anchor="middle" font-size="13" fill="#333" font-family="-apple-system,BlinkMacSystemFont,sans-serif">产品运营</text><path d="M260,800 C310,800 310,740 360,740" fill="none" stroke="#E48484" stroke-width="2"/><rect x="360" y="725" width="80" height="30" rx="6" fill="#fafafa" stroke="none"/><text x="400" y="745" text-anchor="middle" font-size="13" fill="#333" font-family="-apple-system,BlinkMacSystemFont,sans-serif">产品推广</text><path d="M440,740 C490,740 490,700 540,700" fill="none" stroke="#E48484" stroke-width="2"/><rect x="540" y="685" width="80" height="30" rx="6" fill="#fafafa" stroke="none"/><text x="580" y="705" text-anchor="middle" font-size="13" fill="#333" font-family="-apple-system,BlinkMacSystemFont,sans-serif">用户拜访</text><path d="M440,740 C490,740 490,740 540,740" fill="none" stroke="#E48484" stroke-width="2"/><rect x="540" y="725" width="80" height="30" rx="6" fill="#fafafa" stroke="none"/><text x="580" y="745" text-anchor="middle" font-size="13" fill="#333" font-family="-apple-system,BlinkMacSystemFont,sans-serif">产品实施</text><path d="M440,740 C490,740 490,780 540,780" fill="none" stroke="#E48484" stroke-width="2"/><rect x="540" y="765" width="169" height="30" rx="6" fill="transparent" stroke="#BFBFBF"/><text x="624.5" y="785" text-anchor="middle" font-size="13" fill="#333" font-family="-apple-system,BlinkMacSystemFont,sans-serif">沟通表达能力（基本功）</text><path d="M260,800 C310,800 310,820 360,820" fill="none" stroke="#E48484" stroke-width="2"/><rect x="360" y="805" width="80" height="30" rx="6" fill="#fafafa" stroke="none"/><text x="400" y="825" text-anchor="middle" font-size="13" fill="#333" font-family="-apple-system,BlinkMacSystemFont,sans-serif">运营活动</text><path d="M260,800 C310,800 310,860 360,860" fill="none" stroke="#E48484" stroke-width="2"/><rect x="360" y="845" width="80" height="30" rx="6" fill="#fafafa" stroke="none"/><text x="400" y="865" text-anchor="middle" font-size="13" fill="#333" font-family="-apple-system,BlinkMacSystemFont,sans-serif">数据分析</text><path d="M260,800 C310,800 310,900 360,900" fill="none" stroke="#E48484" stroke-width="2"/><rect x="360" y="885" width="156" height="30" rx="6" fill="transparent" stroke="#BFBFBF"/><text x="438" y="905" text-anchor="middle" font-size="13" fill="#333" font-family="-apple-system,BlinkMacSystemFont,sans-serif">不是重点，后期可以学</text><path d="M84,0 C174,0 174,1040 264,1040" fill="none" stroke="#6F81DB" stroke-width="2"/><rect x="180" y="1025" width="80" height="30" rx="6" fill="#fafafa" stroke="none"/><text x="220" y="1045" text-anchor="middle" font-size="13" fill="#333" font-family="-apple-system,BlinkMacSystemFont,sans-serif">产品迭代</text><path d="M260,1040 C310,1040 310,940 360,940" fill="none" stroke="#6F81DB" stroke-width="2"/><rect x="360" y="925" width="91" height="30" rx="6" fill="#fafafa" stroke="none"/><text x="405.5" y="945" text-anchor="middle" font-size="13" fill="#333" font-family="-apple-system,BlinkMacSystemFont,sans-serif">新功能迭代</text><path d="M260,1040 C310,1040 310,980 360,980" fill="none" stroke="#6F81DB" stroke-width="2"/><rect x="360" y="965" width="80" height="30" rx="6" fill="#fafafa" stroke="none"/><text x="400" y="985" text-anchor="middle" font-size="13" fill="#333" font-family="-apple-system,BlinkMacSystemFont,sans-serif">BUG修复</text><path d="M260,1040 C310,1040 310,1020 360,1020" fill="none" stroke="#6F81DB" stroke-width="2"/><rect x="360" y="1005" width="104" height="30" rx="6" fill="#fafafa" stroke="none"/><text x="412" y="1025" text-anchor="middle" font-size="13" fill="#333" font-family="-apple-system,BlinkMacSystemFont,sans-serif">交互体验优化</text><path d="M260,1040 C310,1040 310,1060 360,1060" fill="none" stroke="#6F81DB" stroke-width="2"/><rect x="360" y="1045" width="80" height="30" rx="6" fill="#fafafa" stroke="none"/><text x="400" y="1065" text-anchor="middle" font-size="13" fill="#333" font-family="-apple-system,BlinkMacSystemFont,sans-serif">性能优化</text><path d="M260,1040 C310,1040 310,1100 360,1100" fill="none" stroke="#6F81DB" stroke-width="2"/><rect x="360" y="1085" width="162.76" height="30" rx="6" fill="#fafafa" stroke="none"/><text x="441.38" y="1105" text-anchor="middle" font-size="13" fill="#333" font-family="-apple-system,BlinkMacSystemFont,sans-serif">技术重构/产品方案重构</text><path d="M260,1040 C310,1040 310,1140 360,1140" fill="none" stroke="#6F81DB" stroke-width="2"/><rect x="360" y="1125" width="156" height="30" rx="6" fill="transparent" stroke="#BFBFBF"/><text x="438" y="1145" text-anchor="middle" font-size="13" fill="#333" font-family="-apple-system,BlinkMacSystemFont,sans-serif">不是重点，后期可以学</text>
</svg>