<svg xmlns="http://www.w3.org/2000/svg" xmlns:xlink="http://www.w3.org/1999/xlink"
  viewBox="-168 -1059 1473 2195.625" width="1473" height="2195.625"
  style="background:#fff; font-family:-apple-system,BlinkMacSystemFont,'Segoe UI',Roboto,sans-serif;">
<defs></defs>
<rect x="-168" y="-1059" width="1473" height="2195.625" fill="#fff"/>
<rect x="-84" y="-18" width="168" height="36" rx="8" fill="#EFF0F0" stroke="none"/><text x="0" y="6" text-anchor="middle" font-size="16" font-weight="bold" fill="#333" font-family="-apple-system,BlinkMacSystemFont,sans-serif">产品团队规范建设</text><path d="M84,0 C174,0 174,-900 264,-900" fill="none" stroke="#A287E1" stroke-width="2"/><rect x="180" y="-915" width="80" height="30" rx="6" fill="#fafafa" stroke="none"/><text x="220" y="-895" text-anchor="middle" font-size="13" fill="#333" font-family="-apple-system,BlinkMacSystemFont,sans-serif">需求管理</text><path d="M260,-900 C310,-900 310,-940 360,-940" fill="none" stroke="#A287E1" stroke-width="2"/><rect x="360" y="-955" width="104" height="30" rx="6" fill="#fafafa" stroke="none"/><text x="412" y="-935" text-anchor="middle" font-size="13" fill="#333" font-family="-apple-system,BlinkMacSystemFont,sans-serif">需求调研模板</text><path d="M464,-940 C502,-940 502,-960 540,-960" fill="none" stroke="#A287E1" stroke-width="2"/><rect x="540" y="-975" width="80" height="30" rx="6" fill="#fafafa" stroke="none"/><text x="580" y="-955" text-anchor="middle" font-size="13" fill="#333" font-family="-apple-system,BlinkMacSystemFont,sans-serif">用户调研</text><path d="M620,-960 C670,-960 670,-960 720,-960" fill="none" stroke="#A287E1" stroke-width="2"/><rect x="720" y="-975" width="418.0799999999997" height="30" rx="6" fill="#fafafa" stroke="none"/><text x="929.0399999999998" y="-955" text-anchor="middle" font-size="13" fill="#333" font-family="-apple-system,BlinkMacSystemFont,sans-serif">https://www.yuque.com/jiaowovitamin/zsxq2/lgnp69tzfi96tebm</text><path d="M464,-940 C502,-940 502,-920 540,-920" fill="none" stroke="#A287E1" stroke-width="2"/><rect x="540" y="-935" width="80" height="30" rx="6" fill="#fafafa" stroke="none"/><text x="580" y="-915" text-anchor="middle" font-size="13" fill="#333" font-family="-apple-system,BlinkMacSystemFont,sans-serif">竞品调研</text><path d="M620,-920 C670,-920 670,-920 720,-920" fill="none" stroke="#A287E1" stroke-width="2"/><rect x="720" y="-935" width="418.0799999999997" height="30" rx="6" fill="#fafafa" stroke="none"/><text x="929.0399999999998" y="-915" text-anchor="middle" font-size="13" fill="#333" font-family="-apple-system,BlinkMacSystemFont,sans-serif">https://www.yuque.com/jiaowovitamin/zsxq2/nxrwambr5rwu1f1h</text><path d="M260,-900 C310,-900 310,-860 360,-860" fill="none" stroke="#A287E1" stroke-width="2"/><rect x="360" y="-875" width="117" height="30" rx="6" fill="#fafafa" stroke="none"/><text x="418.5" y="-855" text-anchor="middle" font-size="13" fill="#333" font-family="-apple-system,BlinkMacSystemFont,sans-serif">需求池管理规范</text><path d="M477,-860 C508.5,-860 508.5,-880 540,-880" fill="none" stroke="#A287E1" stroke-width="2"/><rect x="540" y="-895" width="80" height="30" rx="6" fill="#fafafa" stroke="none"/><text x="580" y="-875" text-anchor="middle" font-size="13" fill="#333" font-family="-apple-system,BlinkMacSystemFont,sans-serif">需求池</text><path d="M477,-860 C508.5,-860 508.5,-840 540,-840" fill="none" stroke="#A287E1" stroke-width="2"/><rect x="540" y="-855" width="143" height="30" rx="6" fill="#fafafa" stroke="none"/><text x="611.5" y="-835" text-anchor="middle" font-size="13" fill="#333" font-family="-apple-system,BlinkMacSystemFont,sans-serif">需求优先级评判标准</text><path d="M84,0 C174,0 174,-640 264,-640" fill="none" stroke="#6F81DB" stroke-width="2"/><rect x="180" y="-655" width="80" height="30" rx="6" fill="#fafafa" stroke="none"/><text x="220" y="-635" text-anchor="middle" font-size="13" fill="#333" font-family="-apple-system,BlinkMacSystemFont,sans-serif">产品设计</text><path d="M260,-640 C310,-640 310,-800 360,-800" fill="none" stroke="#6F81DB" stroke-width="2"/><rect x="360" y="-815" width="124.28" height="30" rx="6" fill="#fafafa" stroke="none"/><text x="422.14" y="-795" text-anchor="middle" font-size="13" fill="#333" font-family="-apple-system,BlinkMacSystemFont,sans-serif">需求文档PRD模板</text><path d="M484.28,-800 C512.14,-800 512.14,-800 540,-800" fill="none" stroke="#6F81DB" stroke-width="2"/><rect x="540" y="-815" width="418.0799999999997" height="30" rx="6" fill="#fafafa" stroke="none"/><text x="749.0399999999998" y="-795" text-anchor="middle" font-size="13" fill="#333" font-family="-apple-system,BlinkMacSystemFont,sans-serif">https://www.yuque.com/jiaowovitamin/zsxq2/tced7qboorvmsdl8</text><path d="M260,-640 C310,-640 310,-760 360,-760" fill="none" stroke="#6F81DB" stroke-width="2"/><rect x="360" y="-775" width="130" height="30" rx="6" fill="#fafafa" stroke="none"/><text x="425" y="-755" text-anchor="middle" font-size="13" fill="#333" font-family="-apple-system,BlinkMacSystemFont,sans-serif">原型组件库的制作</text><path d="M490,-760 C515,-760 515,-760 540,-760" fill="none" stroke="#6F81DB" stroke-width="2"/><rect x="540" y="-775" width="418.0799999999997" height="30" rx="6" fill="#fafafa" stroke="none"/><text x="749.0399999999998" y="-755" text-anchor="middle" font-size="13" fill="#333" font-family="-apple-system,BlinkMacSystemFont,sans-serif">https://www.yuque.com/jiaowovitamin/zsxq2/bekgg1qglvnvmn2y</text><path d="M260,-640 C310,-640 310,-720 360,-720" fill="none" stroke="#6F81DB" stroke-width="2"/><rect x="360" y="-735" width="104" height="30" rx="6" fill="#fafafa" stroke="none"/><text x="412" y="-715" text-anchor="middle" font-size="13" fill="#333" font-family="-apple-system,BlinkMacSystemFont,sans-serif">需求内审机制</text><path d="M260,-640 C310,-640 310,-680 360,-680" fill="none" stroke="#6F81DB" stroke-width="2"/><rect x="360" y="-695" width="117" height="30" rx="6" fill="#fafafa" stroke="none"/><text x="418.5" y="-675" text-anchor="middle" font-size="13" fill="#333" font-family="-apple-system,BlinkMacSystemFont,sans-serif">产品设计走查表</text><path d="M477,-680 C508.5,-680 508.5,-680 540,-680" fill="none" stroke="#6F81DB" stroke-width="2"/><rect x="540" y="-695" width="451.87999999999965" height="30" rx="6" fill="#fafafa" stroke="none"/><text x="765.9399999999998" y="-675" text-anchor="middle" font-size="13" fill="#333" font-family="-apple-system,BlinkMacSystemFont,sans-serif">https://www.yuque.com/jiaowovitamin/zsxq2/cqkuek26l5nqeg57#RLE1</text><path d="M260,-640 C310,-640 310,-560 360,-560" fill="none" stroke="#6F81DB" stroke-width="2"/><rect x="360" y="-575" width="156" height="30" rx="6" fill="#fafafa" stroke="none"/><text x="438" y="-555" text-anchor="middle" font-size="13" fill="#333" font-family="-apple-system,BlinkMacSystemFont,sans-serif">产品设计各类规范总结</text><path d="M516,-560 C528,-560 528,-640 540,-640" fill="none" stroke="#6F81DB" stroke-width="2"/><rect x="540" y="-655" width="117" height="30" rx="6" fill="#fafafa" stroke="none"/><text x="598.5" y="-635" text-anchor="middle" font-size="13" fill="#333" font-family="-apple-system,BlinkMacSystemFont,sans-serif">导入，导出规范</text><path d="M657,-640 C688.5,-640 688.5,-640 720,-640" fill="none" stroke="#6F81DB" stroke-width="2"/><rect x="720" y="-655" width="418.0799999999997" height="30" rx="6" fill="#fafafa" stroke="none"/><text x="929.0399999999998" y="-635" text-anchor="middle" font-size="13" fill="#333" font-family="-apple-system,BlinkMacSystemFont,sans-serif">https://www.yuque.com/jiaowovitamin/zsxq2/zo9ekecsxt5rhiso</text><path d="M516,-560 C528,-560 528,-600 540,-600" fill="none" stroke="#6F81DB" stroke-width="2"/><rect x="540" y="-615" width="143" height="30" rx="6" fill="#fafafa" stroke="none"/><text x="611.5" y="-595" text-anchor="middle" font-size="13" fill="#333" font-family="-apple-system,BlinkMacSystemFont,sans-serif">统一文案、术语规范</text><path d="M516,-560 C528,-560 528,-560 540,-560" fill="none" stroke="#6F81DB" stroke-width="2"/><rect x="540" y="-575" width="143" height="30" rx="6" fill="#fafafa" stroke="none"/><text x="611.5" y="-555" text-anchor="middle" font-size="13" fill="#333" font-family="-apple-system,BlinkMacSystemFont,sans-serif">通用型字符校验规范</text><path d="M683,-560 C701.5,-560 701.5,-560 720,-560" fill="none" stroke="#6F81DB" stroke-width="2"/><rect x="720" y="-575" width="418.0799999999997" height="30" rx="6" fill="#fafafa" stroke="none"/><text x="929.0399999999998" y="-555" text-anchor="middle" font-size="13" fill="#333" font-family="-apple-system,BlinkMacSystemFont,sans-serif">https://www.yuque.com/jiaowovitamin/zsxq2/tveaza6h2vm6dlex</text><path d="M516,-560 C528,-560 528,-520 540,-520" fill="none" stroke="#6F81DB" stroke-width="2"/><rect x="540" y="-535" width="143" height="30" rx="6" fill="#fafafa" stroke="none"/><text x="611.5" y="-515" text-anchor="middle" font-size="13" fill="#333" font-family="-apple-system,BlinkMacSystemFont,sans-serif">产品版本号定义规范</text><path d="M683,-520 C701.5,-520 701.5,-520 720,-520" fill="none" stroke="#6F81DB" stroke-width="2"/><rect x="720" y="-535" width="418.0799999999997" height="30" rx="6" fill="#fafafa" stroke="none"/><text x="929.0399999999998" y="-515" text-anchor="middle" font-size="13" fill="#333" font-family="-apple-system,BlinkMacSystemFont,sans-serif">https://www.yuque.com/jiaowovitamin/zsxq2/cz04184t3meewbd5</text><path d="M516,-560 C528,-560 528,-480 540,-480" fill="none" stroke="#6F81DB" stroke-width="2"/><rect x="540" y="-495" width="130" height="30" rx="6" fill="#fafafa" stroke="none"/><text x="605" y="-475" text-anchor="middle" font-size="13" fill="#333" font-family="-apple-system,BlinkMacSystemFont,sans-serif">产品发布日志规范</text><path d="M84,0 C174,0 174,-320 264,-320" fill="none" stroke="#DFB85D" stroke-width="2"/><rect x="180" y="-335" width="80" height="30" rx="6" fill="#fafafa" stroke="none"/><text x="220" y="-315" text-anchor="middle" font-size="13" fill="#333" font-family="-apple-system,BlinkMacSystemFont,sans-serif">需求交付</text><path d="M260,-320 C310,-320 310,-380 360,-380" fill="none" stroke="#DFB85D" stroke-width="2"/><rect x="360" y="-395" width="104" height="30" rx="6" fill="#fafafa" stroke="none"/><text x="412" y="-375" text-anchor="middle" font-size="13" fill="#333" font-family="-apple-system,BlinkMacSystemFont,sans-serif">需求评审机制</text><path d="M464,-380 C502,-380 502,-440 540,-440" fill="none" stroke="#DFB85D" stroke-width="2"/><rect x="540" y="-455" width="195" height="30" rx="6" fill="#fafafa" stroke="none"/><text x="637.5" y="-435" text-anchor="middle" font-size="13" fill="#333" font-family="-apple-system,BlinkMacSystemFont,sans-serif">达到什么要求的需求可以评审</text><path d="M464,-380 C502,-380 502,-400 540,-400" fill="none" stroke="#DFB85D" stroke-width="2"/><rect x="540" y="-415" width="156" height="30" rx="6" fill="#fafafa" stroke="none"/><text x="618" y="-395" text-anchor="middle" font-size="13" fill="#333" font-family="-apple-system,BlinkMacSystemFont,sans-serif">评审的时候邀请谁参加</text><path d="M464,-380 C502,-380 502,-360 540,-360" fill="none" stroke="#DFB85D" stroke-width="2"/><rect x="540" y="-375" width="130" height="30" rx="6" fill="#fafafa" stroke="none"/><text x="605" y="-355" text-anchor="middle" font-size="13" fill="#333" font-family="-apple-system,BlinkMacSystemFont,sans-serif">评审的次数，节点</text><path d="M464,-380 C502,-380 502,-320 540,-320" fill="none" stroke="#DFB85D" stroke-width="2"/><rect x="540" y="-335" width="182" height="30" rx="6" fill="#fafafa" stroke="none"/><text x="631" y="-315" text-anchor="middle" font-size="13" fill="#333" font-family="-apple-system,BlinkMacSystemFont,sans-serif">会议通知和会议纪要的规范</text><path d="M260,-320 C310,-320 310,-240 360,-240" fill="none" stroke="#DFB85D" stroke-width="2"/><rect x="360" y="-255" width="156" height="30" rx="6" fill="#fafafa" stroke="none"/><text x="438" y="-235" text-anchor="middle" font-size="13" fill="#333" font-family="-apple-system,BlinkMacSystemFont,sans-serif">需求评审后的排期机制</text><path d="M516,-240 C528,-240 528,-280 540,-280" fill="none" stroke="#DFB85D" stroke-width="2"/><rect x="540" y="-295" width="182" height="30" rx="6" fill="#fafafa" stroke="none"/><text x="631" y="-275" text-anchor="middle" font-size="13" fill="#333" font-family="-apple-system,BlinkMacSystemFont,sans-serif">什么时候拆解任务给出排期</text><path d="M516,-240 C528,-240 528,-240 540,-240" fill="none" stroke="#DFB85D" stroke-width="2"/><rect x="540" y="-255" width="169" height="30" rx="6" fill="#fafafa" stroke="none"/><text x="624.5" y="-235" text-anchor="middle" font-size="13" fill="#333" font-family="-apple-system,BlinkMacSystemFont,sans-serif">什么时候出技术设计方案</text><path d="M516,-240 C528,-240 528,-200 540,-200" fill="none" stroke="#DFB85D" stroke-width="2"/><rect x="540" y="-215" width="143" height="30" rx="6" fill="#fafafa" stroke="none"/><text x="611.5" y="-195" text-anchor="middle" font-size="13" fill="#333" font-family="-apple-system,BlinkMacSystemFont,sans-serif">什么时候出测试用例</text><path d="M84,0 C174,0 174,60 264,60" fill="none" stroke="#6EC4C4" stroke-width="2"/><rect x="180" y="45" width="80" height="30" rx="6" fill="#fafafa" stroke="none"/><text x="220" y="65" text-anchor="middle" font-size="13" fill="#333" font-family="-apple-system,BlinkMacSystemFont,sans-serif">项目管理</text><path d="M260,60 C310,60 310,-140 360,-140" fill="none" stroke="#6EC4C4" stroke-width="2"/><rect x="360" y="-155" width="104" height="30" rx="6" fill="#fafafa" stroke="none"/><text x="412" y="-135" text-anchor="middle" font-size="13" fill="#333" font-family="-apple-system,BlinkMacSystemFont,sans-serif">产品迭代规范</text><path d="M464,-140 C502,-140 502,-160 540,-160" fill="none" stroke="#6EC4C4" stroke-width="2"/><rect x="540" y="-175" width="247" height="30" rx="6" fill="#fafafa" stroke="none"/><text x="663.5" y="-155" text-anchor="middle" font-size="13" fill="#333" font-family="-apple-system,BlinkMacSystemFont,sans-serif">多久一个迭代，一个迭代大概多少工期</text><path d="M464,-140 C502,-140 502,-120 540,-120" fill="none" stroke="#6EC4C4" stroke-width="2"/><rect x="540" y="-135" width="312" height="30" rx="6" fill="#fafafa" stroke="none"/><text x="696" y="-115" text-anchor="middle" font-size="13" fill="#333" font-family="-apple-system,BlinkMacSystemFont,sans-serif">一般插入多少需求，超过什么时期就不插入需求了</text><path d="M260,60 C310,60 310,-20 360,-20" fill="none" stroke="#6EC4C4" stroke-width="2"/><rect x="360" y="-35" width="104" height="30" rx="6" fill="#fafafa" stroke="none"/><text x="412" y="-15" text-anchor="middle" font-size="13" fill="#333" font-family="-apple-system,BlinkMacSystemFont,sans-serif">敏捷开发规范</text><path d="M464,-20 C502,-20 502,-80 540,-80" fill="none" stroke="#6EC4C4" stroke-width="2"/><rect x="540" y="-95" width="104" height="30" rx="6" fill="#fafafa" stroke="none"/><text x="592" y="-75" text-anchor="middle" font-size="13" fill="#333" font-family="-apple-system,BlinkMacSystemFont,sans-serif">迭代计划会议</text><path d="M464,-20 C502,-20 502,-40 540,-40" fill="none" stroke="#6EC4C4" stroke-width="2"/><rect x="540" y="-55" width="80" height="30" rx="6" fill="#fafafa" stroke="none"/><text x="580" y="-35" text-anchor="middle" font-size="13" fill="#333" font-family="-apple-system,BlinkMacSystemFont,sans-serif">每日例会</text><path d="M464,-20 C502,-20 502,0 540,0" fill="none" stroke="#6EC4C4" stroke-width="2"/><rect x="540" y="-15" width="91" height="30" rx="6" fill="#fafafa" stroke="none"/><text x="585.5" y="5" text-anchor="middle" font-size="13" fill="#333" font-family="-apple-system,BlinkMacSystemFont,sans-serif">迭代评审会</text><path d="M464,-20 C502,-20 502,40 540,40" fill="none" stroke="#6EC4C4" stroke-width="2"/><rect x="540" y="25" width="104" height="30" rx="6" fill="#fafafa" stroke="none"/><text x="592" y="45" text-anchor="middle" font-size="13" fill="#333" font-family="-apple-system,BlinkMacSystemFont,sans-serif">迭代回顾会议</text><path d="M260,60 C310,60 310,80 360,80" fill="none" stroke="#6EC4C4" stroke-width="2"/><rect x="360" y="65" width="143" height="30" rx="6" fill="#fafafa" stroke="none"/><text x="431.5" y="85" text-anchor="middle" font-size="13" fill="#333" font-family="-apple-system,BlinkMacSystemFont,sans-serif">需求延期的处理机制</text><path d="M260,60 C310,60 310,200 360,200" fill="none" stroke="#6EC4C4" stroke-width="2"/><rect x="360" y="185" width="143" height="30" rx="6" fill="#fafafa" stroke="none"/><text x="431.5" y="205" text-anchor="middle" font-size="13" fill="#333" font-family="-apple-system,BlinkMacSystemFont,sans-serif">重要节点的进度跟进</text><path d="M503,200 C521.5,200 521.5,120 540,120" fill="none" stroke="#6EC4C4" stroke-width="2"/><rect x="540" y="105" width="80" height="30" rx="6" fill="#fafafa" stroke="none"/><text x="580" y="125" text-anchor="middle" font-size="13" fill="#333" font-family="-apple-system,BlinkMacSystemFont,sans-serif">需求评审</text><path d="M620,120 C670,120 670,120 720,120" fill="none" stroke="#6EC4C4" stroke-width="2"/><rect x="720" y="105" width="117" height="30" rx="6" fill="#fafafa" stroke="none"/><text x="778.5" y="125" text-anchor="middle" font-size="13" fill="#333" font-family="-apple-system,BlinkMacSystemFont,sans-serif">需求设计完成后</text><path d="M503,200 C521.5,200 521.5,160 540,160" fill="none" stroke="#6EC4C4" stroke-width="2"/><rect x="540" y="145" width="80" height="30" rx="6" fill="#fafafa" stroke="none"/><text x="580" y="165" text-anchor="middle" font-size="13" fill="#333" font-family="-apple-system,BlinkMacSystemFont,sans-serif">技术评审</text><path d="M620,160 C670,160 670,160 720,160" fill="none" stroke="#6EC4C4" stroke-width="2"/><rect x="720" y="145" width="195" height="30" rx="6" fill="#fafafa" stroke="none"/><text x="817.5" y="165" text-anchor="middle" font-size="13" fill="#333" font-family="-apple-system,BlinkMacSystemFont,sans-serif">需求评审后，技术设计完成后</text><path d="M503,200 C521.5,200 521.5,200 540,200" fill="none" stroke="#6EC4C4" stroke-width="2"/><rect x="540" y="185" width="104" height="30" rx="6" fill="#fafafa" stroke="none"/><text x="592" y="205" text-anchor="middle" font-size="13" fill="#333" font-family="-apple-system,BlinkMacSystemFont,sans-serif">测试用例评审</text><path d="M644,200 C682,200 682,200 720,200" fill="none" stroke="#6EC4C4" stroke-width="2"/><rect x="720" y="185" width="117" height="30" rx="6" fill="#fafafa" stroke="none"/><text x="778.5" y="205" text-anchor="middle" font-size="13" fill="#333" font-family="-apple-system,BlinkMacSystemFont,sans-serif">开发中，提测前</text><path d="M503,200 C521.5,200 521.5,240 540,240" fill="none" stroke="#6EC4C4" stroke-width="2"/><rect x="540" y="225" width="144.04" height="30" rx="6" fill="#fafafa" stroke="none"/><text x="612.02" y="245" text-anchor="middle" font-size="13" fill="#333" font-family="-apple-system,BlinkMacSystemFont,sans-serif">UAT/预发布环境验收</text><path d="M684.04,240 C702.02,240 702.02,240 720,240" fill="none" stroke="#6EC4C4" stroke-width="2"/><rect x="720" y="225" width="169" height="30" rx="6" fill="#fafafa" stroke="none"/><text x="804.5" y="245" text-anchor="middle" font-size="13" fill="#333" font-family="-apple-system,BlinkMacSystemFont,sans-serif">测试通过后，正式上线前</text><path d="M503,200 C521.5,200 521.5,280 540,280" fill="none" stroke="#6EC4C4" stroke-width="2"/><rect x="540" y="265" width="130" height="30" rx="6" fill="#fafafa" stroke="none"/><text x="605" y="285" text-anchor="middle" font-size="13" fill="#333" font-family="-apple-system,BlinkMacSystemFont,sans-serif">正式生产环境验收</text><path d="M670,280 C695,280 695,280 720,280" fill="none" stroke="#6EC4C4" stroke-width="2"/><rect x="720" y="265" width="195" height="30" rx="6" fill="#fafafa" stroke="none"/><text x="817.5" y="285" text-anchor="middle" font-size="13" fill="#333" font-family="-apple-system,BlinkMacSystemFont,sans-serif">正式上线后，在生产环境验收</text><path d="M84,0 C174,0 174,380 264,380" fill="none" stroke="#77C386" stroke-width="2"/><rect x="180" y="365" width="80" height="30" rx="6" fill="#fafafa" stroke="none"/><text x="220" y="385" text-anchor="middle" font-size="13" fill="#333" font-family="-apple-system,BlinkMacSystemFont,sans-serif">问题跟进</text><path d="M260,380 C310,380 310,320 360,320" fill="none" stroke="#77C386" stroke-width="2"/><rect x="360" y="305" width="156" height="30" rx="6" fill="#fafafa" stroke="none"/><text x="438" y="325" text-anchor="middle" font-size="13" fill="#333" font-family="-apple-system,BlinkMacSystemFont,sans-serif">生产环境问题记录清单</text><path d="M260,380 C310,380 310,360 360,360" fill="none" stroke="#77C386" stroke-width="2"/><rect x="360" y="345" width="222.04" height="30" rx="6" fill="#fafafa" stroke="none"/><text x="471.02" y="365" text-anchor="middle" font-size="13" fill="#333" font-family="-apple-system,BlinkMacSystemFont,sans-serif">UAT/预发布环境验收问题记录清单</text><path d="M260,380 C310,380 310,400 360,400" fill="none" stroke="#77C386" stroke-width="2"/><rect x="360" y="385" width="143" height="30" rx="6" fill="#fafafa" stroke="none"/><text x="431.5" y="405" text-anchor="middle" font-size="13" fill="#333" font-family="-apple-system,BlinkMacSystemFont,sans-serif">新同事体验走查记录</text><path d="M260,380 C310,380 310,440 360,440" fill="none" stroke="#77C386" stroke-width="2"/><rect x="360" y="425" width="104.52" height="30" rx="6" fill="#fafafa" stroke="none"/><text x="412.26" y="445" text-anchor="middle" font-size="13" fill="#333" font-family="-apple-system,BlinkMacSystemFont,sans-serif">UI走查记录表</text><path d="M84,0 C174,0 174,720 264,720" fill="none" stroke="#E48484" stroke-width="2"/><rect x="180" y="705" width="80" height="30" rx="6" fill="#fafafa" stroke="none"/><text x="220" y="725" text-anchor="middle" font-size="13" fill="#333" font-family="-apple-system,BlinkMacSystemFont,sans-serif">团队日常</text><path d="M260,720 C310,720 310,560 360,560" fill="none" stroke="#E48484" stroke-width="2"/><rect x="360" y="545" width="80" height="30" rx="6" fill="#fafafa" stroke="none"/><text x="400" y="565" text-anchor="middle" font-size="13" fill="#333" font-family="-apple-system,BlinkMacSystemFont,sans-serif">各类汇报</text><path d="M440,560 C490,560 490,480 540,480" fill="none" stroke="#E48484" stroke-width="2"/><rect x="540" y="465" width="80" height="30" rx="6" fill="#fafafa" stroke="none"/><text x="580" y="485" text-anchor="middle" font-size="13" fill="#333" font-family="-apple-system,BlinkMacSystemFont,sans-serif">周报</text><path d="M620,480 C670,480 670,480 720,480" fill="none" stroke="#E48484" stroke-width="2"/><rect x="720" y="465" width="418.0799999999997" height="30" rx="6" fill="#fafafa" stroke="none"/><text x="929.0399999999998" y="485" text-anchor="middle" font-size="13" fill="#333" font-family="-apple-system,BlinkMacSystemFont,sans-serif">https://www.yuque.com/jiaowovitamin/zsxq2/lop33gplxydqx9gs</text><path d="M440,560 C490,560 490,520 540,520" fill="none" stroke="#E48484" stroke-width="2"/><rect x="540" y="505" width="80" height="30" rx="6" fill="#fafafa" stroke="none"/><text x="580" y="525" text-anchor="middle" font-size="13" fill="#333" font-family="-apple-system,BlinkMacSystemFont,sans-serif">月度总结</text><path d="M440,560 C490,560 490,560 540,560" fill="none" stroke="#E48484" stroke-width="2"/><rect x="540" y="545" width="80" height="30" rx="6" fill="#fafafa" stroke="none"/><text x="580" y="565" text-anchor="middle" font-size="13" fill="#333" font-family="-apple-system,BlinkMacSystemFont,sans-serif">季度总结</text><path d="M440,560 C490,560 490,600 540,600" fill="none" stroke="#E48484" stroke-width="2"/><rect x="540" y="585" width="80" height="30" rx="6" fill="#fafafa" stroke="none"/><text x="580" y="605" text-anchor="middle" font-size="13" fill="#333" font-family="-apple-system,BlinkMacSystemFont,sans-serif">年中总结</text><path d="M440,560 C490,560 490,640 540,640" fill="none" stroke="#E48484" stroke-width="2"/><rect x="540" y="625" width="80" height="30" rx="6" fill="#fafafa" stroke="none"/><text x="580" y="645" text-anchor="middle" font-size="13" fill="#333" font-family="-apple-system,BlinkMacSystemFont,sans-serif">年终总结</text><path d="M260,720 C310,720 310,720 360,720" fill="none" stroke="#E48484" stroke-width="2"/><rect x="360" y="705" width="80" height="30" rx="6" fill="#fafafa" stroke="none"/><text x="400" y="725" text-anchor="middle" font-size="13" fill="#333" font-family="-apple-system,BlinkMacSystemFont,sans-serif">各类规划</text><path d="M440,720 C490,720 490,680 540,680" fill="none" stroke="#E48484" stroke-width="2"/><rect x="540" y="665" width="80" height="30" rx="6" fill="#fafafa" stroke="none"/><text x="580" y="685" text-anchor="middle" font-size="13" fill="#333" font-family="-apple-system,BlinkMacSystemFont,sans-serif">周度规划</text><path d="M440,720 C490,720 490,720 540,720" fill="none" stroke="#E48484" stroke-width="2"/><rect x="540" y="705" width="80" height="30" rx="6" fill="#fafafa" stroke="none"/><text x="580" y="725" text-anchor="middle" font-size="13" fill="#333" font-family="-apple-system,BlinkMacSystemFont,sans-serif">月度规划</text><path d="M440,720 C490,720 490,760 540,760" fill="none" stroke="#E48484" stroke-width="2"/><rect x="540" y="745" width="80" height="30" rx="6" fill="#fafafa" stroke="none"/><text x="580" y="765" text-anchor="middle" font-size="13" fill="#333" font-family="-apple-system,BlinkMacSystemFont,sans-serif">季度规划</text><path d="M260,720 C310,720 310,800 360,800" fill="none" stroke="#E48484" stroke-width="2"/><rect x="360" y="785" width="80" height="30" rx="6" fill="#fafafa" stroke="none"/><text x="400" y="805" text-anchor="middle" font-size="13" fill="#333" font-family="-apple-system,BlinkMacSystemFont,sans-serif">新人指引</text><path d="M440,800 C490,800 490,800 540,800" fill="none" stroke="#E48484" stroke-width="2"/><rect x="540" y="785" width="104" height="30" rx="6" fill="#fafafa" stroke="none"/><text x="592" y="805" text-anchor="middle" font-size="13" fill="#333" font-family="-apple-system,BlinkMacSystemFont,sans-serif">新人入职指引</text><path d="M644,800 C682,800 682,800 720,800" fill="none" stroke="#E48484" stroke-width="2"/><rect x="720" y="785" width="418.0799999999997" height="30" rx="6" fill="#fafafa" stroke="none"/><text x="929.0399999999998" y="805" text-anchor="middle" font-size="13" fill="#333" font-family="-apple-system,BlinkMacSystemFont,sans-serif">https://www.yuque.com/jiaowovitamin/zsxq2/rdua93f08s2dp4nw</text><path d="M260,720 C310,720 310,900 360,900" fill="none" stroke="#E48484" stroke-width="2"/><rect x="360" y="885" width="80" height="30" rx="6" fill="#fafafa" stroke="none"/><text x="400" y="905" text-anchor="middle" font-size="13" fill="#333" font-family="-apple-system,BlinkMacSystemFont,sans-serif">知识分享</text><path d="M440,900 C490,900 490,840 540,840" fill="none" stroke="#E48484" stroke-width="2"/><rect x="540" y="825" width="104" height="30" rx="6" fill="#fafafa" stroke="none"/><text x="592" y="845" text-anchor="middle" font-size="13" fill="#333" font-family="-apple-system,BlinkMacSystemFont,sans-serif">竞品调研分享</text><path d="M440,900 C490,900 490,880 540,880" fill="none" stroke="#E48484" stroke-width="2"/><rect x="540" y="865" width="130" height="30" rx="6" fill="#fafafa" stroke="none"/><text x="605" y="885" text-anchor="middle" font-size="13" fill="#333" font-family="-apple-system,BlinkMacSystemFont,sans-serif">过往项目介绍分享</text><path d="M440,900 C490,900 490,920 540,920" fill="none" stroke="#E48484" stroke-width="2"/><rect x="540" y="905" width="104" height="30" rx="6" fill="#fafafa" stroke="none"/><text x="592" y="925" text-anchor="middle" font-size="13" fill="#333" font-family="-apple-system,BlinkMacSystemFont,sans-serif">业务知识分享</text><path d="M440,900 C490,900 490,960 540,960" fill="none" stroke="#E48484" stroke-width="2"/><rect x="540" y="945" width="104" height="30" rx="6" fill="#fafafa" stroke="none"/><text x="592" y="965" text-anchor="middle" font-size="13" fill="#333" font-family="-apple-system,BlinkMacSystemFont,sans-serif">产品知识分享</text><path d="M644,960 C682,960 682,960 720,960" fill="none" stroke="#E48484" stroke-width="2"/><rect x="720" y="945" width="418.0799999999997" height="30" rx="6" fill="#fafafa" stroke="none"/><text x="929.0399999999998" y="965" text-anchor="middle" font-size="13" fill="#333" font-family="-apple-system,BlinkMacSystemFont,sans-serif">https://www.yuque.com/jiaowovitamin/zsxq2/ws0b7spw0vgh5lw1</text>
</svg>