<svg xmlns="http://www.w3.org/2000/svg" xmlns:xlink="http://www.w3.org/1999/xlink"
  viewBox="-144.95999999999998 -939 1757.96 1962.875" width="1757.96" height="1962.875"
  style="background:#fff; font-family:-apple-system,BlinkMacSystemFont,'Segoe UI',Roboto,sans-serif;">
<defs></defs>
<rect x="-144.95999999999998" y="-939" width="1757.96" height="1962.875" fill="#fff"/>
<rect x="-60.959999999999994" y="-18" width="121.91999999999999" height="36" rx="8" fill="#EFF0F0" stroke="none"/><text x="0" y="6" text-anchor="middle" font-size="16" font-weight="bold" fill="#333" font-family="-apple-system,BlinkMacSystemFont,sans-serif">ERP对接WMS</text><path d="M60.959999999999994,0 C150.95999999999998,0 150.95999999999998,-680 240.95999999999998,-680" fill="none" stroke="#A287E1" stroke-width="2"/><rect x="180" y="-695" width="80" height="30" rx="6" fill="#fafafa" stroke="none"/><text x="220" y="-675" text-anchor="middle" font-size="13" fill="#333" font-family="-apple-system,BlinkMacSystemFont,sans-serif">需求背景</text><path d="M260,-680 C310,-680 310,-820 360,-820" fill="none" stroke="#A287E1" stroke-width="2"/><rect x="360" y="-835" width="91" height="30" rx="6" fill="#fafafa" stroke="none"/><text x="405.5" y="-815" text-anchor="middle" font-size="13" fill="#333" font-family="-apple-system,BlinkMacSystemFont,sans-serif">目的是什么</text><path d="M451,-820 C495.5,-820 495.5,-840 540,-840" fill="none" stroke="#A287E1" stroke-width="2"/><rect x="540" y="-855" width="221" height="30" rx="6" fill="#fafafa" stroke="none"/><text x="650.5" y="-835" text-anchor="middle" font-size="13" fill="#333" font-family="-apple-system,BlinkMacSystemFont,sans-serif">为什么要对接，基于什么业务要求</text><path d="M451,-820 C495.5,-820 495.5,-800 540,-800" fill="none" stroke="#A287E1" stroke-width="2"/><rect x="540" y="-815" width="592.28" height="30" rx="6" fill="#fafafa" stroke="none"/><text x="836.14" y="-795" text-anchor="middle" font-size="13" fill="#333" font-family="-apple-system,BlinkMacSystemFont,sans-serif">对接某某WMS或者某某服务商，其实也是产品经理常见的一种需求场景，当做正常的需求来处理即可</text><path d="M260,-680 C310,-680 310,-740 360,-740" fill="none" stroke="#A287E1" stroke-width="2"/><rect x="360" y="-755" width="117" height="30" rx="6" fill="#fafafa" stroke="none"/><text x="418.5" y="-735" text-anchor="middle" font-size="13" fill="#333" font-family="-apple-system,BlinkMacSystemFont,sans-serif">需要对接的接口</text><path d="M477,-740 C508.5,-740 508.5,-760 540,-760" fill="none" stroke="#A287E1" stroke-width="2"/><rect x="540" y="-775" width="182" height="30" rx="6" fill="#fafafa" stroke="none"/><text x="631" y="-755" text-anchor="middle" font-size="13" fill="#333" font-family="-apple-system,BlinkMacSystemFont,sans-serif">需要获取对方的什么服务？</text><path d="M477,-740 C508.5,-740 508.5,-720 540,-720" fill="none" stroke="#A287E1" stroke-width="2"/><rect x="540" y="-735" width="169" height="30" rx="6" fill="#fafafa" stroke="none"/><text x="624.5" y="-715" text-anchor="middle" font-size="13" fill="#333" font-family="-apple-system,BlinkMacSystemFont,sans-serif">一共要对接多少个接口？</text><path d="M709,-720 C714.5,-720 714.5,-720 720,-720" fill="none" stroke="#A287E1" stroke-width="2"/><rect x="720" y="-735" width="80.07999999999998" height="30" rx="6" fill="#fafafa" stroke="none"/><text x="760.04" y="-715" text-anchor="middle" font-size="13" fill="#333" font-family="-apple-system,BlinkMacSystemFont,sans-serif">EndPoint</text><path d="M260,-680 C310,-680 310,-640 360,-640" fill="none" stroke="#A287E1" stroke-width="2"/><rect x="360" y="-655" width="80" height="30" rx="6" fill="#fafafa" stroke="none"/><text x="400" y="-635" text-anchor="middle" font-size="13" fill="#333" font-family="-apple-system,BlinkMacSystemFont,sans-serif">项目规划</text><path d="M440,-640 C490,-640 490,-660 540,-660" fill="none" stroke="#A287E1" stroke-width="2"/><rect x="540" y="-675" width="80" height="30" rx="6" fill="#fafafa" stroke="none"/><text x="580" y="-655" text-anchor="middle" font-size="13" fill="#333" font-family="-apple-system,BlinkMacSystemFont,sans-serif">V1</text><path d="M620,-660 C670,-660 670,-680 720,-680" fill="none" stroke="#A287E1" stroke-width="2"/><rect x="720" y="-695" width="325" height="30" rx="6" fill="#fafafa" stroke="none"/><text x="882.5" y="-675" text-anchor="middle" font-size="13" fill="#333" font-family="-apple-system,BlinkMacSystemFont,sans-serif">是一口气全部都对接完成，还是分批对接，分批上线</text><path d="M620,-660 C670,-660 670,-640 720,-640" fill="none" stroke="#A287E1" stroke-width="2"/><rect x="720" y="-655" width="364" height="30" rx="6" fill="#fafafa" stroke="none"/><text x="902" y="-635" text-anchor="middle" font-size="13" fill="#333" font-family="-apple-system,BlinkMacSystemFont,sans-serif">如果是分批上线，有哪些是重要的，紧急的要在一期去上线</text><path d="M440,-640 C490,-640 490,-600 540,-600" fill="none" stroke="#A287E1" stroke-width="2"/><rect x="540" y="-615" width="80" height="30" rx="6" fill="#fafafa" stroke="none"/><text x="580" y="-595" text-anchor="middle" font-size="13" fill="#333" font-family="-apple-system,BlinkMacSystemFont,sans-serif">V2</text><path d="M620,-600 C670,-600 670,-600 720,-600" fill="none" stroke="#A287E1" stroke-width="2"/><rect x="720" y="-615" width="143" height="30" rx="6" fill="#fafafa" stroke="none"/><text x="791.5" y="-595" text-anchor="middle" font-size="13" fill="#333" font-family="-apple-system,BlinkMacSystemFont,sans-serif">有哪些是二期再上的</text><path d="M260,-680 C310,-680 310,-540 360,-540" fill="none" stroke="#A287E1" stroke-width="2"/><rect x="360" y="-555" width="91" height="30" rx="6" fill="#fafafa" stroke="none"/><text x="405.5" y="-535" text-anchor="middle" font-size="13" fill="#333" font-family="-apple-system,BlinkMacSystemFont,sans-serif">授权的方式</text><path d="M451,-540 C495.5,-540 495.5,-560 540,-560" fill="none" stroke="#A287E1" stroke-width="2"/><rect x="540" y="-575" width="80" height="30" rx="6" fill="#fafafa" stroke="none"/><text x="580" y="-555" text-anchor="middle" font-size="13" fill="#333" font-family="-apple-system,BlinkMacSystemFont,sans-serif">灵活配置</text><path d="M620,-560 C670,-560 670,-560 720,-560" fill="none" stroke="#A287E1" stroke-width="2"/><rect x="720" y="-575" width="80" height="30" rx="6" fill="#fafafa" stroke="none"/><text x="760" y="-555" text-anchor="middle" font-size="13" fill="#333" font-family="-apple-system,BlinkMacSystemFont,sans-serif">SaaS用</text><path d="M451,-540 C495.5,-540 495.5,-520 540,-520" fill="none" stroke="#A287E1" stroke-width="2"/><rect x="540" y="-535" width="80" height="30" rx="6" fill="#fafafa" stroke="none"/><text x="580" y="-515" text-anchor="middle" font-size="13" fill="#333" font-family="-apple-system,BlinkMacSystemFont,sans-serif">写死配置</text><path d="M620,-520 C670,-520 670,-520 720,-520" fill="none" stroke="#A287E1" stroke-width="2"/><rect x="720" y="-535" width="91" height="30" rx="6" fill="#fafafa" stroke="none"/><text x="765.5" y="-515" text-anchor="middle" font-size="13" fill="#333" font-family="-apple-system,BlinkMacSystemFont,sans-serif">自研项目用</text><path d="M60.959999999999994,0 C150.95999999999998,0 150.95999999999998,-280 240.95999999999998,-280" fill="none" stroke="#6F81DB" stroke-width="2"/><rect x="180" y="-295" width="124.28" height="30" rx="6" fill="#fafafa" stroke="none"/><text x="242.14" y="-275" text-anchor="middle" font-size="13" fill="#333" font-family="-apple-system,BlinkMacSystemFont,sans-serif">WMS接口文档分析</text><path d="M304.28,-280 C332.14,-280 332.14,-480 360,-480" fill="none" stroke="#6F81DB" stroke-width="2"/><rect x="360" y="-495" width="125.32000000000001" height="30" rx="6" fill="#fafafa" stroke="none"/><text x="422.66" y="-475" text-anchor="middle" font-size="13" fill="#333" font-family="-apple-system,BlinkMacSystemFont,sans-serif">API地址/API文档</text><path d="M485.32,-480 C512.66,-480 512.66,-480 540,-480" fill="none" stroke="#6F81DB" stroke-width="2"/><rect x="540" y="-495" width="221" height="30" rx="6" fill="#fafafa" stroke="none"/><text x="650.5" y="-475" text-anchor="middle" font-size="13" fill="#333" font-family="-apple-system,BlinkMacSystemFont,sans-serif">产品要提前整理好相关信息给研发</text><path d="M304.28,-280 C332.14,-280 332.14,-380 360,-380" fill="none" stroke="#6F81DB" stroke-width="2"/><rect x="360" y="-395" width="143" height="30" rx="6" fill="#fafafa" stroke="none"/><text x="431.5" y="-375" text-anchor="middle" font-size="13" fill="#333" font-family="-apple-system,BlinkMacSystemFont,sans-serif">对接的一些前置准备</text><path d="M503,-380 C521.5,-380 521.5,-440 540,-440" fill="none" stroke="#6F81DB" stroke-width="2"/><rect x="540" y="-455" width="130" height="30" rx="6" fill="#fafafa" stroke="none"/><text x="605" y="-435" text-anchor="middle" font-size="13" fill="#333" font-family="-apple-system,BlinkMacSystemFont,sans-serif">沙盒环境账号密码</text><path d="M503,-380 C521.5,-380 521.5,-400 540,-400" fill="none" stroke="#6F81DB" stroke-width="2"/><rect x="540" y="-415" width="130" height="30" rx="6" fill="#fafafa" stroke="none"/><text x="605" y="-395" text-anchor="middle" font-size="13" fill="#333" font-family="-apple-system,BlinkMacSystemFont,sans-serif">生产环境账号密码</text><path d="M503,-380 C521.5,-380 521.5,-360 540,-360" fill="none" stroke="#6F81DB" stroke-width="2"/><rect x="540" y="-375" width="162.76" height="30" rx="6" fill="#fafafa" stroke="none"/><text x="621.38" y="-355" text-anchor="middle" font-size="13" fill="#333" font-family="-apple-system,BlinkMacSystemFont,sans-serif">提前注册/认证为开发者</text><path d="M503,-380 C521.5,-380 521.5,-320 540,-320" fill="none" stroke="#6F81DB" stroke-width="2"/><rect x="540" y="-335" width="143" height="30" rx="6" fill="#fafafa" stroke="none"/><text x="611.5" y="-315" text-anchor="middle" font-size="13" fill="#333" font-family="-apple-system,BlinkMacSystemFont,sans-serif">可以提前拉好交流群</text><path d="M304.28,-280 C332.14,-280 332.14,-180 360,-180" fill="none" stroke="#6F81DB" stroke-width="2"/><rect x="360" y="-195" width="208" height="30" rx="6" fill="#fafafa" stroke="none"/><text x="464" y="-175" text-anchor="middle" font-size="13" fill="#333" font-family="-apple-system,BlinkMacSystemFont,sans-serif">对一些核心接口做一些注释说明</text><path d="M568,-180 C554,-180 554,-280 540,-280" fill="none" stroke="#6F81DB" stroke-width="2"/><rect x="540" y="-295" width="234" height="30" rx="6" fill="#fafafa" stroke="none"/><text x="657" y="-275" text-anchor="middle" font-size="13" fill="#333" font-family="-apple-system,BlinkMacSystemFont,sans-serif">接口中的不太明确的字段，记录下来</text><path d="M568,-180 C554,-180 554,-240 540,-240" fill="none" stroke="#6F81DB" stroke-width="2"/><rect x="540" y="-255" width="208" height="30" rx="6" fill="#fafafa" stroke="none"/><text x="644" y="-235" text-anchor="middle" font-size="13" fill="#333" font-family="-apple-system,BlinkMacSystemFont,sans-serif">接口中看不懂的地方，记录下来</text><path d="M568,-180 C554,-180 554,-200 540,-200" fill="none" stroke="#6F81DB" stroke-width="2"/><rect x="540" y="-215" width="221" height="30" rx="6" fill="#fafafa" stroke="none"/><text x="650.5" y="-195" text-anchor="middle" font-size="13" fill="#333" font-family="-apple-system,BlinkMacSystemFont,sans-serif">接口中可能欠缺的功能，记录下来</text><path d="M568,-180 C554,-180 554,-160 540,-160" fill="none" stroke="#6F81DB" stroke-width="2"/><rect x="540" y="-175" width="247" height="30" rx="6" fill="#fafafa" stroke="none"/><text x="663.5" y="-155" text-anchor="middle" font-size="13" fill="#333" font-family="-apple-system,BlinkMacSystemFont,sans-serif">接口中需要重点关注的地方，记录下来</text><path d="M568,-180 C554,-180 554,-120 540,-120" fill="none" stroke="#6F81DB" stroke-width="2"/><rect x="540" y="-135" width="80" height="30" rx="6" fill="#fafafa" stroke="none"/><text x="580" y="-115" text-anchor="middle" font-size="13" fill="#333" font-family="-apple-system,BlinkMacSystemFont,sans-serif">……</text><path d="M568,-180 C554,-180 554,-80 540,-80" fill="none" stroke="#6F81DB" stroke-width="2"/><rect x="540" y="-95" width="475.28" height="30" rx="6" fill="transparent" stroke="#BFBFBF"/><text x="777.64" y="-75" text-anchor="middle" font-size="13" fill="#333" font-family="-apple-system,BlinkMacSystemFont,sans-serif">产品可以拉通技术和业务人员，和WMS侧的人员进行会议沟通，确认这些疑惑点</text><path d="M60.959999999999994,0 C150.95999999999998,0 150.95999999999998,400 240.95999999999998,400" fill="none" stroke="#77C386" stroke-width="2"/><rect x="180" y="385" width="130" height="30" rx="6" fill="#fafafa" stroke="none"/><text x="245" y="405" text-anchor="middle" font-size="13" fill="#333" font-family="-apple-system,BlinkMacSystemFont,sans-serif">输出产品需求文档</text><path d="M310,400 C335,400 335,-40 360,-40" fill="none" stroke="#77C386" stroke-width="2"/><rect x="360" y="-55" width="247" height="30" rx="6" fill="#fafafa" stroke="none"/><text x="483.5" y="-35" text-anchor="middle" font-size="13" fill="#333" font-family="-apple-system,BlinkMacSystemFont,sans-serif">需求文档概要，需求背景，产品概述等</text><path d="M607,-40 C573.5,-40 573.5,-40 540,-40" fill="none" stroke="#77C386" stroke-width="2"/><rect x="540" y="-55" width="208" height="30" rx="6" fill="#fafafa" stroke="none"/><text x="644" y="-35" text-anchor="middle" font-size="13" fill="#333" font-family="-apple-system,BlinkMacSystemFont,sans-serif">按正常的需求文档风格描述即可</text><path d="M310,400 C335,400 335,200 360,200" fill="none" stroke="#77C386" stroke-width="2"/><rect x="360" y="185" width="117" height="30" rx="6" fill="#fafafa" stroke="none"/><text x="418.5" y="205" text-anchor="middle" font-size="13" fill="#333" font-family="-apple-system,BlinkMacSystemFont,sans-serif">功能性需求说明</text><path d="M477,200 C508.5,200 508.5,160 540,160" fill="none" stroke="#77C386" stroke-width="2"/><rect x="540" y="145" width="163.8" height="30" rx="6" fill="#fafafa" stroke="none"/><text x="621.9" y="165" text-anchor="middle" font-size="13" fill="#333" font-family="-apple-system,BlinkMacSystemFont,sans-serif">Part1：接口对接的说明</text><path d="M703.8,160 C711.9,160 711.9,20 720,20" fill="none" stroke="#77C386" stroke-width="2"/><rect x="720" y="5" width="104" height="30" rx="6" fill="#fafafa" stroke="none"/><text x="772" y="25" text-anchor="middle" font-size="13" fill="#333" font-family="-apple-system,BlinkMacSystemFont,sans-serif">对接口的说明</text><path d="M824,20 C862,20 862,0 900,0" fill="none" stroke="#77C386" stroke-width="2"/><rect x="900" y="-15" width="410.28" height="30" rx="6" fill="#fafafa" stroke="none"/><text x="1105.1399999999999" y="5" text-anchor="middle" font-size="13" fill="#333" font-family="-apple-system,BlinkMacSystemFont,sans-serif">有一些WMS提供的接口文档可能不清晰，不明了，产品可以补充说明</text><path d="M824,20 C862,20 862,40 900,40" fill="none" stroke="#77C386" stroke-width="2"/><rect x="900" y="25" width="624" height="30" rx="6" fill="#fafafa" stroke="none"/><text x="1212" y="45" text-anchor="middle" font-size="13" fill="#333" font-family="-apple-system,BlinkMacSystemFont,sans-serif">某些接口有一些特殊的逻辑，可能是产品通过会议或者交流群求证验证过的，也可以在这里补充说明清楚</text><path d="M703.8,160 C711.9,160 711.9,140 720,140" fill="none" stroke="#77C386" stroke-width="2"/><rect x="720" y="125" width="236.08000000000004" height="30" rx="6" fill="#fafafa" stroke="none"/><text x="838.04" y="145" text-anchor="middle" font-size="13" fill="#333" font-family="-apple-system,BlinkMacSystemFont,sans-serif">对接口（EndPoint）的字段映射说明</text><path d="M956.08,140 C928.04,140 928.04,80 900,80" fill="none" stroke="#77C386" stroke-width="2"/><rect x="900" y="65" width="201.76" height="30" rx="6" fill="#fafafa" stroke="none"/><text x="1000.88" y="85" text-anchor="middle" font-size="13" fill="#333" font-family="-apple-system,BlinkMacSystemFont,sans-serif">接口文档中的字段是A，要必填</text><path d="M956.08,140 C928.04,140 928.04,120 900,120" fill="none" stroke="#77C386" stroke-width="2"/><rect x="900" y="105" width="240.76" height="30" rx="6" fill="#fafafa" stroke="none"/><text x="1020.38" y="125" text-anchor="middle" font-size="13" fill="#333" font-family="-apple-system,BlinkMacSystemFont,sans-serif">我们应该用系统的X字段，去传给对方</text><path d="M956.08,140 C928.04,140 928.04,160 900,160" fill="none" stroke="#77C386" stroke-width="2"/><rect x="900" y="145" width="319.79999999999995" height="30" rx="6" fill="#fafafa" stroke="none"/><text x="1059.9" y="165" text-anchor="middle" font-size="13" fill="#333" font-family="-apple-system,BlinkMacSystemFont,sans-serif">我们传X字段的时候，要注意1，要注意2，要注意……</text><path d="M956.08,140 C928.04,140 928.04,200 900,200" fill="none" stroke="#77C386" stroke-width="2"/><rect x="900" y="185" width="91" height="30" rx="6" fill="transparent" stroke="#BFBFBF"/><text x="945.5" y="205" text-anchor="middle" font-size="13" fill="#333" font-family="-apple-system,BlinkMacSystemFont,sans-serif">表格来映射</text><path d="M703.8,160 C711.9,160 711.9,240 720,240" fill="none" stroke="#77C386" stroke-width="2"/><rect x="720" y="225" width="175.76" height="30" rx="6" fill="#fafafa" stroke="none"/><text x="807.88" y="245" text-anchor="middle" font-size="13" fill="#333" font-family="-apple-system,BlinkMacSystemFont,sans-serif">接口的一些请求/响应示例</text><path d="M895.76,240 C897.88,240 897.88,240 900,240" fill="none" stroke="#77C386" stroke-width="2"/><rect x="900" y="225" width="279.76" height="30" rx="6" fill="#fafafa" stroke="none"/><text x="1039.88" y="245" text-anchor="middle" font-size="13" fill="#333" font-family="-apple-system,BlinkMacSystemFont,sans-serif">可以在需求文档中补充一些请求/响应的示例</text><path d="M703.8,160 C711.9,160 711.9,300 720,300" fill="none" stroke="#77C386" stroke-width="2"/><rect x="720" y="285" width="130" height="30" rx="6" fill="#fafafa" stroke="none"/><text x="785" y="305" text-anchor="middle" font-size="13" fill="#333" font-family="-apple-system,BlinkMacSystemFont,sans-serif">其他补充性的信息</text><path d="M850,300 C875,300 875,280 900,280" fill="none" stroke="#77C386" stroke-width="2"/><rect x="900" y="265" width="468" height="30" rx="6" fill="#fafafa" stroke="none"/><text x="1134" y="285" text-anchor="middle" font-size="13" fill="#333" font-family="-apple-system,BlinkMacSystemFont,sans-serif">针对该接口，有什么待确认的事项或者需要特殊说明的内容，可以在这里补充</text><path d="M850,300 C875,300 875,320 900,320" fill="none" stroke="#77C386" stroke-width="2"/><rect x="900" y="305" width="351" height="30" rx="6" fill="#fafafa" stroke="none"/><text x="1075.5" y="325" text-anchor="middle" font-size="13" fill="#333" font-family="-apple-system,BlinkMacSystemFont,sans-serif">接口的请求频次，接口的数据行限制，接口的注意事项等</text><path d="M477,200 C508.5,200 508.5,380 540,380" fill="none" stroke="#77C386" stroke-width="2"/><rect x="540" y="365" width="254.8" height="30" rx="6" fill="#fafafa" stroke="none"/><text x="667.4" y="385" text-anchor="middle" font-size="13" fill="#333" font-family="-apple-system,BlinkMacSystemFont,sans-serif">Part2：系统已有功能的配合改造的说明</text><path d="M794.8,380 C757.4,380 757.4,360 720,360" fill="none" stroke="#77C386" stroke-width="2"/><rect x="720" y="345" width="208" height="30" rx="6" fill="#fafafa" stroke="none"/><text x="824" y="365" text-anchor="middle" font-size="13" fill="#333" font-family="-apple-system,BlinkMacSystemFont,sans-serif">和日常的需求功能描述是类似的</text><path d="M794.8,380 C757.4,380 757.4,400 720,400" fill="none" stroke="#77C386" stroke-width="2"/><rect x="720" y="385" width="325" height="30" rx="6" fill="#fafafa" stroke="none"/><text x="882.5" y="405" text-anchor="middle" font-size="13" fill="#333" font-family="-apple-system,BlinkMacSystemFont,sans-serif">需要系统改动什么，然后这些改动会去请求哪个接口</text><path d="M310,400 C335,400 335,520 360,520" fill="none" stroke="#77C386" stroke-width="2"/><rect x="360" y="505" width="130" height="30" rx="6" fill="#fafafa" stroke="none"/><text x="425" y="525" text-anchor="middle" font-size="13" fill="#333" font-family="-apple-system,BlinkMacSystemFont,sans-serif">非功能性需求说明</text><path d="M490,520 C515,520 515,440 540,440" fill="none" stroke="#77C386" stroke-width="2"/><rect x="540" y="425" width="208" height="30" rx="6" fill="#fafafa" stroke="none"/><text x="644" y="445" text-anchor="middle" font-size="13" fill="#333" font-family="-apple-system,BlinkMacSystemFont,sans-serif">和日常的需求功能描述是类似的</text><path d="M490,520 C515,520 515,540 540,540" fill="none" stroke="#77C386" stroke-width="2"/><rect x="540" y="525" width="364" height="30" rx="6" fill="#fafafa" stroke="none"/><text x="722" y="545" text-anchor="middle" font-size="13" fill="#333" font-family="-apple-system,BlinkMacSystemFont,sans-serif">可以补充一些和接口有关系的，但是非功能性的内容在这里</text><path d="M904,540 C812,540 812,480 720,480" fill="none" stroke="#77C386" stroke-width="2"/><rect x="720" y="465" width="201.76" height="30" rx="6" fill="#fafafa" stroke="none"/><text x="820.88" y="485" text-anchor="middle" font-size="13" fill="#333" font-family="-apple-system,BlinkMacSystemFont,sans-serif">调用出错/接口不通，怎么监控</text><path d="M904,540 C812,540 812,520 720,520" fill="none" stroke="#77C386" stroke-width="2"/><rect x="720" y="505" width="195" height="30" rx="6" fill="#fafafa" stroke="none"/><text x="817.5" y="525" text-anchor="middle" font-size="13" fill="#333" font-family="-apple-system,BlinkMacSystemFont,sans-serif">返回数据有问题，怎么处理？</text><path d="M904,540 C812,540 812,560 720,560" fill="none" stroke="#77C386" stroke-width="2"/><rect x="720" y="545" width="169" height="30" rx="6" fill="#fafafa" stroke="none"/><text x="804.5" y="565" text-anchor="middle" font-size="13" fill="#333" font-family="-apple-system,BlinkMacSystemFont,sans-serif">其他异常问题，处理方式</text><path d="M904,540 C812,540 812,600 720,600" fill="none" stroke="#77C386" stroke-width="2"/><rect x="720" y="585" width="312" height="30" rx="6" fill="#fafafa" stroke="none"/><text x="876" y="605" text-anchor="middle" font-size="13" fill="#333" font-family="-apple-system,BlinkMacSystemFont,sans-serif">多久调用一次，定时任务？还是在某个场景下触发</text><path d="M310,400 C335,400 335,740 360,740" fill="none" stroke="#77C386" stroke-width="2"/><rect x="360" y="725" width="117" height="30" rx="6" fill="#fafafa" stroke="none"/><text x="418.5" y="745" text-anchor="middle" font-size="13" fill="#333" font-family="-apple-system,BlinkMacSystemFont,sans-serif">附件或相关资料</text><path d="M477,740 C508.5,740 508.5,660 540,660" fill="none" stroke="#77C386" stroke-width="2"/><rect x="540" y="645" width="117" height="30" rx="6" fill="#fafafa" stroke="none"/><text x="598.5" y="665" text-anchor="middle" font-size="13" fill="#333" font-family="-apple-system,BlinkMacSystemFont,sans-serif">接口文档的资料</text><path d="M657,660 C688.5,660 688.5,640 720,640" fill="none" stroke="#77C386" stroke-width="2"/><rect x="720" y="625" width="80" height="30" rx="6" fill="#fafafa" stroke="none"/><text x="760" y="645" text-anchor="middle" font-size="13" fill="#333" font-family="-apple-system,BlinkMacSystemFont,sans-serif">网页链接</text><path d="M657,660 C688.5,660 688.5,680 720,680" fill="none" stroke="#77C386" stroke-width="2"/><rect x="720" y="665" width="125.32" height="30" rx="6" fill="#fafafa" stroke="none"/><text x="782.66" y="685" text-anchor="middle" font-size="13" fill="#333" font-family="-apple-system,BlinkMacSystemFont,sans-serif">docx，pdf附件等</text><path d="M477,740 C508.5,740 508.5,740 540,740" fill="none" stroke="#77C386" stroke-width="2"/><rect x="540" y="725" width="150.28" height="30" rx="6" fill="#fafafa" stroke="none"/><text x="615.14" y="745" text-anchor="middle" font-size="13" fill="#333" font-family="-apple-system,BlinkMacSystemFont,sans-serif">WMS的一些开发者信息</text><path d="M690.28,740 C705.14,740 705.14,720 720,720" fill="none" stroke="#77C386" stroke-width="2"/><rect x="720" y="705" width="214.76" height="30" rx="6" fill="#fafafa" stroke="none"/><text x="827.38" y="725" text-anchor="middle" font-size="13" fill="#333" font-family="-apple-system,BlinkMacSystemFont,sans-serif">测试/沙盒环境地址、账号、密码</text><path d="M690.28,740 C705.14,740 705.14,760 720,760" fill="none" stroke="#77C386" stroke-width="2"/><rect x="720" y="745" width="195" height="30" rx="6" fill="#fafafa" stroke="none"/><text x="817.5" y="765" text-anchor="middle" font-size="13" fill="#333" font-family="-apple-system,BlinkMacSystemFont,sans-serif">生产环境的地址、账号、密码</text><path d="M477,740 C508.5,740 508.5,820 540,820" fill="none" stroke="#77C386" stroke-width="2"/><rect x="540" y="805" width="104" height="30" rx="6" fill="#fafafa" stroke="none"/><text x="592" y="825" text-anchor="middle" font-size="13" fill="#333" font-family="-apple-system,BlinkMacSystemFont,sans-serif">其他一些信息</text><path d="M644,820 C682,820 682,800 720,800" fill="none" stroke="#77C386" stroke-width="2"/><rect x="720" y="785" width="104" height="30" rx="6" fill="#fafafa" stroke="none"/><text x="772" y="805" text-anchor="middle" font-size="13" fill="#333" font-family="-apple-system,BlinkMacSystemFont,sans-serif">开发者交流群</text><path d="M644,820 C682,820 682,840 720,840" fill="none" stroke="#77C386" stroke-width="2"/><rect x="720" y="825" width="182" height="30" rx="6" fill="#fafafa" stroke="none"/><text x="811" y="845" text-anchor="middle" font-size="13" fill="#333" font-family="-apple-system,BlinkMacSystemFont,sans-serif">提工单的邮箱或者联系方式</text>
</svg>