<svg xmlns="http://www.w3.org/2000/svg" xmlns:xlink="http://www.w3.org/1999/xlink"
  viewBox="-168 -1499 1835 2998" width="1835" height="2998"
  style="background:#fff; font-family:-apple-system,BlinkMacSystemFont,'Segoe UI',Roboto,sans-serif;">
<defs></defs>
<rect x="-168" y="-1499" width="1835" height="2998" fill="#fff"/>
<rect x="-84" y="-18" width="168" height="36" rx="8" fill="#EFF0F0" stroke="none"/><text x="0" y="6" text-anchor="middle" font-size="16" font-weight="bold" fill="#333" font-family="-apple-system,BlinkMacSystemFont,sans-serif">一盘货的库存管理</text><path d="M84,0 C174,0 174,-1320 264,-1320" fill="none" stroke="#A287E1" stroke-width="2"/><rect x="180" y="-1335" width="143" height="30" rx="6" fill="#fafafa" stroke="none"/><text x="251.5" y="-1315" text-anchor="middle" font-size="13" fill="#333" font-family="-apple-system,BlinkMacSystemFont,sans-serif">实物库存放在哪里？</text><path d="M323,-1320 C341.5,-1320 341.5,-1400 360,-1400" fill="none" stroke="#A287E1" stroke-width="2"/><rect x="360" y="-1415" width="234" height="30" rx="6" fill="#fafafa" stroke="none"/><text x="477" y="-1395" text-anchor="middle" font-size="13" fill="#333" font-family="-apple-system,BlinkMacSystemFont,sans-serif">实物库存肯定是放在仓库或者门店中</text><path d="M323,-1320 C341.5,-1320 341.5,-1300 360,-1300" fill="none" stroke="#A287E1" stroke-width="2"/><rect x="360" y="-1315" width="182" height="30" rx="6" fill="#fafafa" stroke="none"/><text x="451" y="-1295" text-anchor="middle" font-size="13" fill="#333" font-family="-apple-system,BlinkMacSystemFont,sans-serif">所以实物库存的来源一般是</text><path d="M542,-1300 C541,-1300 541,-1340 540,-1340" fill="none" stroke="#A287E1" stroke-width="2"/><rect x="540" y="-1355" width="80" height="30" rx="6" fill="#fafafa" stroke="none"/><text x="580" y="-1335" text-anchor="middle" font-size="13" fill="#333" font-family="-apple-system,BlinkMacSystemFont,sans-serif">仓库</text><path d="M620,-1340 C670,-1340 670,-1360 720,-1360" fill="none" stroke="#A287E1" stroke-width="2"/><rect x="720" y="-1375" width="80" height="30" rx="6" fill="#fafafa" stroke="none"/><text x="760" y="-1355" text-anchor="middle" font-size="13" fill="#333" font-family="-apple-system,BlinkMacSystemFont,sans-serif">自营仓</text><path d="M620,-1340 C670,-1340 670,-1320 720,-1320" fill="none" stroke="#A287E1" stroke-width="2"/><rect x="720" y="-1335" width="80" height="30" rx="6" fill="#fafafa" stroke="none"/><text x="760" y="-1315" text-anchor="middle" font-size="13" fill="#333" font-family="-apple-system,BlinkMacSystemFont,sans-serif">三方仓</text><path d="M542,-1300 C541,-1300 541,-1260 540,-1260" fill="none" stroke="#A287E1" stroke-width="2"/><rect x="540" y="-1275" width="80" height="30" rx="6" fill="#fafafa" stroke="none"/><text x="580" y="-1255" text-anchor="middle" font-size="13" fill="#333" font-family="-apple-system,BlinkMacSystemFont,sans-serif">门店</text><path d="M620,-1260 C670,-1260 670,-1280 720,-1280" fill="none" stroke="#A287E1" stroke-width="2"/><rect x="720" y="-1295" width="80" height="30" rx="6" fill="#fafafa" stroke="none"/><text x="760" y="-1275" text-anchor="middle" font-size="13" fill="#333" font-family="-apple-system,BlinkMacSystemFont,sans-serif">加盟店</text><path d="M620,-1260 C670,-1260 670,-1240 720,-1240" fill="none" stroke="#A287E1" stroke-width="2"/><rect x="720" y="-1255" width="80" height="30" rx="6" fill="#fafafa" stroke="none"/><text x="760" y="-1235" text-anchor="middle" font-size="13" fill="#333" font-family="-apple-system,BlinkMacSystemFont,sans-serif">连锁店</text><path d="M84,0 C174,0 174,-780 264,-780" fill="none" stroke="#6F81DB" stroke-width="2"/><rect x="180" y="-795" width="156" height="30" rx="6" fill="#fafafa" stroke="none"/><text x="258" y="-775" text-anchor="middle" font-size="13" fill="#333" font-family="-apple-system,BlinkMacSystemFont,sans-serif">库存最后要用于哪里？</text><path d="M336,-780 C348,-780 348,-940 360,-940" fill="none" stroke="#6F81DB" stroke-width="2"/><rect x="360" y="-955" width="286" height="30" rx="6" fill="#fafafa" stroke="none"/><text x="503" y="-935" text-anchor="middle" font-size="13" fill="#333" font-family="-apple-system,BlinkMacSystemFont,sans-serif">库存的用途和去向，对应的就是各种销售渠道</text><path d="M646,-940 C593,-940 593,-1140 540,-1140" fill="none" stroke="#6F81DB" stroke-width="2"/><rect x="540" y="-1155" width="104" height="30" rx="6" fill="#fafafa" stroke="none"/><text x="592" y="-1135" text-anchor="middle" font-size="13" fill="#333" font-family="-apple-system,BlinkMacSystemFont,sans-serif">三方电商平台</text><path d="M644,-1140 C682,-1140 682,-1200 720,-1200" fill="none" stroke="#6F81DB" stroke-width="2"/><rect x="720" y="-1215" width="80" height="30" rx="6" fill="#fafafa" stroke="none"/><text x="760" y="-1195" text-anchor="middle" font-size="13" fill="#333" font-family="-apple-system,BlinkMacSystemFont,sans-serif">淘宝</text><path d="M644,-1140 C682,-1140 682,-1160 720,-1160" fill="none" stroke="#6F81DB" stroke-width="2"/><rect x="720" y="-1175" width="80" height="30" rx="6" fill="#fafafa" stroke="none"/><text x="760" y="-1155" text-anchor="middle" font-size="13" fill="#333" font-family="-apple-system,BlinkMacSystemFont,sans-serif">天猫</text><path d="M644,-1140 C682,-1140 682,-1120 720,-1120" fill="none" stroke="#6F81DB" stroke-width="2"/><rect x="720" y="-1135" width="80" height="30" rx="6" fill="#fafafa" stroke="none"/><text x="760" y="-1115" text-anchor="middle" font-size="13" fill="#333" font-family="-apple-system,BlinkMacSystemFont,sans-serif">京东</text><path d="M644,-1140 C682,-1140 682,-1080 720,-1080" fill="none" stroke="#6F81DB" stroke-width="2"/><rect x="720" y="-1095" width="80" height="30" rx="6" fill="#fafafa" stroke="none"/><text x="760" y="-1075" text-anchor="middle" font-size="13" fill="#333" font-family="-apple-system,BlinkMacSystemFont,sans-serif">拼多多</text><path d="M646,-940 C593,-940 593,-1000 540,-1000" fill="none" stroke="#6F81DB" stroke-width="2"/><rect x="540" y="-1015" width="80" height="30" rx="6" fill="#fafafa" stroke="none"/><text x="580" y="-995" text-anchor="middle" font-size="13" fill="#333" font-family="-apple-system,BlinkMacSystemFont,sans-serif">私域平台</text><path d="M620,-1000 C670,-1000 670,-1040 720,-1040" fill="none" stroke="#6F81DB" stroke-width="2"/><rect x="720" y="-1055" width="80" height="30" rx="6" fill="#fafafa" stroke="none"/><text x="760" y="-1035" text-anchor="middle" font-size="13" fill="#333" font-family="-apple-system,BlinkMacSystemFont,sans-serif">官网</text><path d="M620,-1000 C670,-1000 670,-1000 720,-1000" fill="none" stroke="#6F81DB" stroke-width="2"/><rect x="720" y="-1015" width="80" height="30" rx="6" fill="#fafafa" stroke="none"/><text x="760" y="-995" text-anchor="middle" font-size="13" fill="#333" font-family="-apple-system,BlinkMacSystemFont,sans-serif">小程序</text><path d="M620,-1000 C670,-1000 670,-960 720,-960" fill="none" stroke="#6F81DB" stroke-width="2"/><rect x="720" y="-975" width="80" height="30" rx="6" fill="#fafafa" stroke="none"/><text x="760" y="-955" text-anchor="middle" font-size="13" fill="#333" font-family="-apple-system,BlinkMacSystemFont,sans-serif">APP</text><path d="M646,-940 C593,-940 593,-860 540,-860" fill="none" stroke="#6F81DB" stroke-width="2"/><rect x="540" y="-875" width="80" height="30" rx="6" fill="#fafafa" stroke="none"/><text x="580" y="-855" text-anchor="middle" font-size="13" fill="#333" font-family="-apple-system,BlinkMacSystemFont,sans-serif">社交电商</text><path d="M620,-860 C670,-860 670,-920 720,-920" fill="none" stroke="#6F81DB" stroke-width="2"/><rect x="720" y="-935" width="80" height="30" rx="6" fill="#fafafa" stroke="none"/><text x="760" y="-915" text-anchor="middle" font-size="13" fill="#333" font-family="-apple-system,BlinkMacSystemFont,sans-serif">快手</text><path d="M620,-860 C670,-860 670,-880 720,-880" fill="none" stroke="#6F81DB" stroke-width="2"/><rect x="720" y="-895" width="80" height="30" rx="6" fill="#fafafa" stroke="none"/><text x="760" y="-875" text-anchor="middle" font-size="13" fill="#333" font-family="-apple-system,BlinkMacSystemFont,sans-serif">抖音</text><path d="M620,-860 C670,-860 670,-840 720,-840" fill="none" stroke="#6F81DB" stroke-width="2"/><rect x="720" y="-855" width="80" height="30" rx="6" fill="#fafafa" stroke="none"/><text x="760" y="-835" text-anchor="middle" font-size="13" fill="#333" font-family="-apple-system,BlinkMacSystemFont,sans-serif">得物</text><path d="M620,-860 C670,-860 670,-800 720,-800" fill="none" stroke="#6F81DB" stroke-width="2"/><rect x="720" y="-815" width="80" height="30" rx="6" fill="#fafafa" stroke="none"/><text x="760" y="-795" text-anchor="middle" font-size="13" fill="#333" font-family="-apple-system,BlinkMacSystemFont,sans-serif">小红书</text><path d="M646,-940 C593,-940 593,-720 540,-720" fill="none" stroke="#6F81DB" stroke-width="2"/><rect x="540" y="-735" width="80" height="30" rx="6" fill="#fafafa" stroke="none"/><text x="580" y="-715" text-anchor="middle" font-size="13" fill="#333" font-family="-apple-system,BlinkMacSystemFont,sans-serif">线下渠道</text><path d="M620,-720 C670,-720 670,-760 720,-760" fill="none" stroke="#6F81DB" stroke-width="2"/><rect x="720" y="-775" width="80" height="30" rx="6" fill="#fafafa" stroke="none"/><text x="760" y="-755" text-anchor="middle" font-size="13" fill="#333" font-family="-apple-system,BlinkMacSystemFont,sans-serif">线下门店</text><path d="M620,-720 C670,-720 670,-720 720,-720" fill="none" stroke="#6F81DB" stroke-width="2"/><rect x="720" y="-735" width="80" height="30" rx="6" fill="#fafafa" stroke="none"/><text x="760" y="-715" text-anchor="middle" font-size="13" fill="#333" font-family="-apple-system,BlinkMacSystemFont,sans-serif">分销商</text><path d="M620,-720 C670,-720 670,-680 720,-680" fill="none" stroke="#6F81DB" stroke-width="2"/><rect x="720" y="-695" width="80" height="30" rx="6" fill="#fafafa" stroke="none"/><text x="760" y="-675" text-anchor="middle" font-size="13" fill="#333" font-family="-apple-system,BlinkMacSystemFont,sans-serif">经销商</text><path d="M336,-780 C348,-780 348,-500 360,-500" fill="none" stroke="#6F81DB" stroke-width="2"/><rect x="360" y="-515" width="247" height="30" rx="6" fill="#fafafa" stroke="none"/><text x="483.5" y="-495" text-anchor="middle" font-size="13" fill="#333" font-family="-apple-system,BlinkMacSystemFont,sans-serif">不同的销售渠道，对库存的要求不一样</text><path d="M607,-500 C573.5,-500 573.5,-620 540,-620" fill="none" stroke="#6F81DB" stroke-width="2"/><rect x="540" y="-635" width="91" height="30" rx="6" fill="#fafafa" stroke="none"/><text x="585.5" y="-615" text-anchor="middle" font-size="13" fill="#333" font-family="-apple-system,BlinkMacSystemFont,sans-serif">数量不一样</text><path d="M631,-620 C675.5,-620 675.5,-640 720,-640" fill="none" stroke="#6F81DB" stroke-width="2"/><rect x="720" y="-655" width="117" height="30" rx="6" fill="#fafafa" stroke="none"/><text x="778.5" y="-635" text-anchor="middle" font-size="13" fill="#333" font-family="-apple-system,BlinkMacSystemFont,sans-serif">有的渠道要的多</text><path d="M631,-620 C675.5,-620 675.5,-600 720,-600" fill="none" stroke="#6F81DB" stroke-width="2"/><rect x="720" y="-615" width="117" height="30" rx="6" fill="#fafafa" stroke="none"/><text x="778.5" y="-595" text-anchor="middle" font-size="13" fill="#333" font-family="-apple-system,BlinkMacSystemFont,sans-serif">有的渠道要的少</text><path d="M607,-500 C573.5,-500 573.5,-540 540,-540" fill="none" stroke="#6F81DB" stroke-width="2"/><rect x="540" y="-555" width="117" height="30" rx="6" fill="#fafafa" stroke="none"/><text x="598.5" y="-535" text-anchor="middle" font-size="13" fill="#333" font-family="-apple-system,BlinkMacSystemFont,sans-serif">紧急程度不一样</text><path d="M657,-540 C688.5,-540 688.5,-560 720,-560" fill="none" stroke="#6F81DB" stroke-width="2"/><rect x="720" y="-575" width="208" height="30" rx="6" fill="#fafafa" stroke="none"/><text x="824" y="-555" text-anchor="middle" font-size="13" fill="#333" font-family="-apple-system,BlinkMacSystemFont,sans-serif">一些渠道很紧急，会有平台限制</text><path d="M657,-540 C688.5,-540 688.5,-520 720,-520" fill="none" stroke="#6F81DB" stroke-width="2"/><rect x="720" y="-535" width="195" height="30" rx="6" fill="#fafafa" stroke="none"/><text x="817.5" y="-515" text-anchor="middle" font-size="13" fill="#333" font-family="-apple-system,BlinkMacSystemFont,sans-serif">一些渠道可以缓和，私下沟通</text><path d="M607,-500 C573.5,-500 573.5,-440 540,-440" fill="none" stroke="#6F81DB" stroke-width="2"/><rect x="540" y="-455" width="117" height="30" rx="6" fill="#fafafa" stroke="none"/><text x="598.5" y="-435" text-anchor="middle" font-size="13" fill="#333" font-family="-apple-system,BlinkMacSystemFont,sans-serif">作业方式不一样</text><path d="M657,-440 C688.5,-440 688.5,-480 720,-480" fill="none" stroke="#6F81DB" stroke-width="2"/><rect x="720" y="-495" width="91" height="30" rx="6" fill="#fafafa" stroke="none"/><text x="765.5" y="-475" text-anchor="middle" font-size="13" fill="#333" font-family="-apple-system,BlinkMacSystemFont,sans-serif">快递小包裹</text><path d="M657,-440 C688.5,-440 688.5,-440 720,-440" fill="none" stroke="#6F81DB" stroke-width="2"/><rect x="720" y="-455" width="91" height="30" rx="6" fill="#fafafa" stroke="none"/><text x="765.5" y="-435" text-anchor="middle" font-size="13" fill="#333" font-family="-apple-system,BlinkMacSystemFont,sans-serif">快运大包裹</text><path d="M657,-440 C688.5,-440 688.5,-400 720,-400" fill="none" stroke="#6F81DB" stroke-width="2"/><rect x="720" y="-415" width="80" height="30" rx="6" fill="#fafafa" stroke="none"/><text x="760" y="-395" text-anchor="middle" font-size="13" fill="#333" font-family="-apple-system,BlinkMacSystemFont,sans-serif">整车运输</text><path d="M607,-500 C573.5,-500 573.5,-360 540,-360" fill="none" stroke="#6F81DB" stroke-width="2"/><rect x="540" y="-375" width="80" height="30" rx="6" fill="#fafafa" stroke="none"/><text x="580" y="-355" text-anchor="middle" font-size="13" fill="#333" font-family="-apple-system,BlinkMacSystemFont,sans-serif">……</text><path d="M84,0 C174,0 174,80 264,80" fill="none" stroke="#6EC4C4" stroke-width="2"/><rect x="180" y="65" width="299" height="30" rx="6" fill="#fafafa" stroke="none"/><text x="329.5" y="85" text-anchor="middle" font-size="13" fill="#333" font-family="-apple-system,BlinkMacSystemFont,sans-serif">实物库存要怎么和最后使用的销售渠道关联呢？</text><path d="M479,80 C419.5,80 419.5,-280 360,-280" fill="none" stroke="#6EC4C4" stroke-width="2"/><rect x="360" y="-295" width="130" height="30" rx="6" fill="#fafafa" stroke="none"/><text x="425" y="-275" text-anchor="middle" font-size="13" fill="#333" font-family="-apple-system,BlinkMacSystemFont,sans-serif">单仓单渠道的模式</text><path d="M490,-280 C515,-280 515,-320 540,-320" fill="none" stroke="#6EC4C4" stroke-width="2"/><rect x="540" y="-335" width="80" height="30" rx="6" fill="#fafafa" stroke="none"/><text x="580" y="-315" text-anchor="middle" font-size="13" fill="#333" font-family="-apple-system,BlinkMacSystemFont,sans-serif"></text><path d="M490,-280 C515,-280 515,-280 540,-280" fill="none" stroke="#6EC4C4" stroke-width="2"/><rect x="540" y="-295" width="325.52" height="30" rx="6" fill="#fafafa" stroke="none"/><text x="702.76" y="-275" text-anchor="middle" font-size="13" fill="#333" font-family="-apple-system,BlinkMacSystemFont,sans-serif">只有一个实体仓库，也只有一个销售渠道“电商销售”</text><path d="M490,-280 C515,-280 515,-240 540,-240" fill="none" stroke="#6EC4C4" stroke-width="2"/><rect x="540" y="-255" width="404.56" height="30" rx="6" fill="#fafafa" stroke="none"/><text x="742.28" y="-235" text-anchor="middle" font-size="13" fill="#333" font-family="-apple-system,BlinkMacSystemFont,sans-serif">当实体仓库存只有100的时候，那么电商销售最多可用库存也是100</text><path d="M479,80 C419.5,80 419.5,-20 360,-20" fill="none" stroke="#6EC4C4" stroke-width="2"/><rect x="360" y="-35" width="130" height="30" rx="6" fill="#fafafa" stroke="none"/><text x="425" y="-15" text-anchor="middle" font-size="13" fill="#333" font-family="-apple-system,BlinkMacSystemFont,sans-serif">单仓多渠道的模式</text><path d="M490,-20 C515,-20 515,-200 540,-200" fill="none" stroke="#6EC4C4" stroke-width="2"/><rect x="540" y="-215" width="80" height="30" rx="6" fill="#fafafa" stroke="none"/><text x="580" y="-195" text-anchor="middle" font-size="13" fill="#333" font-family="-apple-system,BlinkMacSystemFont,sans-serif"></text><path d="M490,-20 C515,-20 515,-160 540,-160" fill="none" stroke="#6EC4C4" stroke-width="2"/><rect x="540" y="-175" width="325.52" height="30" rx="6" fill="#EFF0F0" stroke="none"/><text x="702.76" y="-155" text-anchor="middle" font-size="13" fill="#333" font-family="-apple-system,BlinkMacSystemFont,sans-serif">只有一个实体仓库，也只有一个销售渠道“电商销售”</text><path d="M490,-20 C515,-20 515,-120 540,-120" fill="none" stroke="#6EC4C4" stroke-width="2"/><rect x="540" y="-135" width="521.56" height="30" rx="6" fill="#fafafa" stroke="none"/><text x="800.78" y="-115" text-anchor="middle" font-size="13" fill="#333" font-family="-apple-system,BlinkMacSystemFont,sans-serif">当实体仓库存只有100的时候，电商销售和B2B批发这两个渠道就要共用这一部分的库存</text><path d="M490,-20 C515,-20 515,-60 540,-60" fill="none" stroke="#6EC4C4" stroke-width="2"/><rect x="540" y="-75" width="215.28" height="30" rx="6" fill="#fafafa" stroke="none"/><text x="647.64" y="-55" text-anchor="middle" font-size="13" fill="#333" font-family="-apple-system,BlinkMacSystemFont,sans-serif">那这100个要分给哪个渠道用呢？</text><path d="M755.28,-60 C737.64,-60 737.64,-80 720,-80" fill="none" stroke="#6EC4C4" stroke-width="2"/><rect x="720" y="-95" width="195" height="30" rx="6" fill="#fafafa" stroke="none"/><text x="817.5" y="-75" text-anchor="middle" font-size="13" fill="#333" font-family="-apple-system,BlinkMacSystemFont,sans-serif">需要配置对应的库存分配逻辑</text><path d="M755.28,-60 C737.64,-60 737.64,-40 720,-40" fill="none" stroke="#6EC4C4" stroke-width="2"/><rect x="720" y="-55" width="281.8399999999999" height="30" rx="6" fill="#fafafa" stroke="none"/><text x="860.92" y="-35" text-anchor="middle" font-size="13" fill="#333" font-family="-apple-system,BlinkMacSystemFont,sans-serif">假如说，电商渠道占比60%，B2B批发占比40%</text><path d="M490,-20 C515,-20 515,20 540,20" fill="none" stroke="#6EC4C4" stroke-width="2"/><rect x="540" y="5" width="384.28" height="30" rx="6" fill="#fafafa" stroke="none"/><text x="732.14" y="25" text-anchor="middle" font-size="13" fill="#333" font-family="-apple-system,BlinkMacSystemFont,sans-serif">电商渠道有一定的特殊性，要明确知道“平台+店铺”的分配比例</text><path d="M924.28,20 C822.14,20 822.14,0 720,0" fill="none" stroke="#6EC4C4" stroke-width="2"/><rect x="720" y="-15" width="299" height="30" rx="6" fill="#fafafa" stroke="none"/><text x="869.5" y="5" text-anchor="middle" font-size="13" fill="#333" font-family="-apple-system,BlinkMacSystemFont,sans-serif">因为某个商品如果没库存的话，是不支持下单的</text><path d="M1019,0 C959.5,0 959.5,0 900,0" fill="none" stroke="#6EC4C4" stroke-width="2"/><rect x="900" y="-15" width="80" height="30" rx="6" fill="#fafafa" stroke="none"/><text x="940" y="5" text-anchor="middle" font-size="13" fill="#333" font-family="-apple-system,BlinkMacSystemFont,sans-serif"></text><path d="M924.28,20 C822.14,20 822.14,40 720,40" fill="none" stroke="#6EC4C4" stroke-width="2"/><rect x="720" y="25" width="468" height="30" rx="6" fill="#fafafa" stroke="none"/><text x="954" y="45" text-anchor="middle" font-size="13" fill="#333" font-family="-apple-system,BlinkMacSystemFont,sans-serif">所以在电商渠道之下，如果有多个店铺，还需要确定每个店铺的库存分配比例</text><path d="M1188,40 C1044,40 1044,40 900,40" fill="none" stroke="#6EC4C4" stroke-width="2"/><rect x="900" y="25" width="80" height="30" rx="6" fill="#fafafa" stroke="none"/><text x="940" y="45" text-anchor="middle" font-size="13" fill="#333" font-family="-apple-system,BlinkMacSystemFont,sans-serif"></text><path d="M490,-20 C515,-20 515,120 540,120" fill="none" stroke="#6EC4C4" stroke-width="2"/><rect x="540" y="105" width="80" height="30" rx="6" fill="#fafafa" stroke="none"/><text x="580" y="125" text-anchor="middle" font-size="13" fill="#333" font-family="-apple-system,BlinkMacSystemFont,sans-serif"></text><path d="M620,120 C670,120 670,80 720,80" fill="none" stroke="#6EC4C4" stroke-width="2"/><rect x="720" y="65" width="450.84" height="30" rx="6" fill="#fafafa" stroke="none"/><text x="945.42" y="85" text-anchor="middle" font-size="13" fill="#333" font-family="-apple-system,BlinkMacSystemFont,sans-serif">可以在OMS/ERP中，引入一个“库存分配”逻辑，这样就可以配置分配的逻辑</text><path d="M620,120 C670,120 670,120 720,120" fill="none" stroke="#6EC4C4" stroke-width="2"/><rect x="720" y="105" width="80" height="30" rx="6" fill="#fafafa" stroke="none"/><text x="760" y="125" text-anchor="middle" font-size="13" fill="#333" font-family="-apple-system,BlinkMacSystemFont,sans-serif"></text><path d="M620,120 C670,120 670,160 720,160" fill="none" stroke="#6EC4C4" stroke-width="2"/><rect x="720" y="145" width="80" height="30" rx="6" fill="#fafafa" stroke="none"/><text x="760" y="165" text-anchor="middle" font-size="13" fill="#333" font-family="-apple-system,BlinkMacSystemFont,sans-serif"></text><path d="M479,80 C419.5,80 419.5,260 360,260" fill="none" stroke="#6EC4C4" stroke-width="2"/><rect x="360" y="245" width="221" height="30" rx="6" fill="#fafafa" stroke="none"/><text x="470.5" y="265" text-anchor="middle" font-size="13" fill="#333" font-family="-apple-system,BlinkMacSystemFont,sans-serif">多仓多渠道的模式（不共享库存）</text><path d="M581,260 C560.5,260 560.5,200 540,200" fill="none" stroke="#6EC4C4" stroke-width="2"/><rect x="540" y="185" width="80" height="30" rx="6" fill="#fafafa" stroke="none"/><text x="580" y="205" text-anchor="middle" font-size="13" fill="#333" font-family="-apple-system,BlinkMacSystemFont,sans-serif"></text><path d="M581,260 C560.5,260 560.5,240 540,240" fill="none" stroke="#6EC4C4" stroke-width="2"/><rect x="540" y="225" width="305.76" height="30" rx="6" fill="#fafafa" stroke="none"/><text x="692.88" y="245" text-anchor="middle" font-size="13" fill="#333" font-family="-apple-system,BlinkMacSystemFont,sans-serif">有2个实体仓，但是每个实体仓分别对应一个渠道</text><path d="M581,260 C560.5,260 560.5,300 540,300" fill="none" stroke="#6EC4C4" stroke-width="2"/><rect x="540" y="285" width="286.52" height="30" rx="6" fill="#fafafa" stroke="none"/><text x="683.26" y="305" text-anchor="middle" font-size="13" fill="#333" font-family="-apple-system,BlinkMacSystemFont,sans-serif">这种情况等同于上面提到的“单仓单渠道模式”</text><path d="M826.52,300 C773.26,300 773.26,280 720,280" fill="none" stroke="#6EC4C4" stroke-width="2"/><rect x="720" y="265" width="130.51999999999998" height="30" rx="6" fill="#fafafa" stroke="none"/><text x="785.26" y="285" text-anchor="middle" font-size="13" fill="#333" font-family="-apple-system,BlinkMacSystemFont,sans-serif">东莞仓-&gt;电商业务</text><path d="M850.52,280 C875.26,280 875.26,280 900,280" fill="none" stroke="#6EC4C4" stroke-width="2"/><rect x="900" y="265" width="351" height="30" rx="6" fill="#fafafa" stroke="none"/><text x="1075.5" y="285" text-anchor="middle" font-size="13" fill="#333" font-family="-apple-system,BlinkMacSystemFont,sans-serif">电商如果有多平台，多店铺，那么需要按店铺来分配库存</text><path d="M826.52,300 C773.26,300 773.26,320 720,320" fill="none" stroke="#6EC4C4" stroke-width="2"/><rect x="720" y="305" width="150.8" height="30" rx="6" fill="#fafafa" stroke="none"/><text x="795.4" y="325" text-anchor="middle" font-size="13" fill="#333" font-family="-apple-system,BlinkMacSystemFont,sans-serif">广州仓-&gt;B2B批发业务</text><path d="M479,80 C419.5,80 419.5,420 360,420" fill="none" stroke="#6EC4C4" stroke-width="2"/><rect x="360" y="405" width="208" height="30" rx="6" fill="#fafafa" stroke="none"/><text x="464" y="425" text-anchor="middle" font-size="13" fill="#333" font-family="-apple-system,BlinkMacSystemFont,sans-serif">多仓多渠道的模式（共享库存）</text><path d="M568,420 C554,420 554,360 540,360" fill="none" stroke="#6EC4C4" stroke-width="2"/><rect x="540" y="345" width="80" height="30" rx="6" fill="#fafafa" stroke="none"/><text x="580" y="365" text-anchor="middle" font-size="13" fill="#333" font-family="-apple-system,BlinkMacSystemFont,sans-serif"></text><path d="M568,420 C554,420 554,400 540,400" fill="none" stroke="#6EC4C4" stroke-width="2"/><rect x="540" y="385" width="383.76" height="30" rx="6" fill="#fafafa" stroke="none"/><text x="731.88" y="405" text-anchor="middle" font-size="13" fill="#333" font-family="-apple-system,BlinkMacSystemFont,sans-serif">有2个实体仓，这两个实体仓的库存可以汇总在一起，库存共享</text><path d="M568,420 C554,420 554,460 540,460" fill="none" stroke="#6EC4C4" stroke-width="2"/><rect x="540" y="445" width="397.28" height="30" rx="6" fill="#fafafa" stroke="none"/><text x="738.64" y="465" text-anchor="middle" font-size="13" fill="#333" font-family="-apple-system,BlinkMacSystemFont,sans-serif">库存共享之后，一共有300个库存，这个时候需要进行库存的分配</text><path d="M937.28,460 C828.64,460 828.64,440 720,440" fill="none" stroke="#6EC4C4" stroke-width="2"/><rect x="720" y="425" width="170.56" height="30" rx="6" fill="#fafafa" stroke="none"/><text x="805.28" y="445" text-anchor="middle" font-size="13" fill="#333" font-family="-apple-system,BlinkMacSystemFont,sans-serif">电商销售，占比60%，180</text><path d="M890.56,440 C895.28,440 895.28,440 900,440" fill="none" stroke="#6EC4C4" stroke-width="2"/><rect x="900" y="425" width="351" height="30" rx="6" fill="#fafafa" stroke="none"/><text x="1075.5" y="445" text-anchor="middle" font-size="13" fill="#333" font-family="-apple-system,BlinkMacSystemFont,sans-serif">电商如果有多平台，多店铺，那么需要按店铺来分配库存</text><path d="M937.28,460 C828.64,460 828.64,480 720,480" fill="none" stroke="#6EC4C4" stroke-width="2"/><rect x="720" y="465" width="164.84" height="30" rx="6" fill="#fafafa" stroke="none"/><text x="802.42" y="485" text-anchor="middle" font-size="13" fill="#333" font-family="-apple-system,BlinkMacSystemFont,sans-serif">B2B批发，占比40%，120</text><path d="M84,0 C174,0 174,960 264,960" fill="none" stroke="#DFB85D" stroke-width="2"/><rect x="180" y="945" width="182" height="30" rx="6" fill="#fafafa" stroke="none"/><text x="271" y="965" text-anchor="middle" font-size="13" fill="#333" font-family="-apple-system,BlinkMacSystemFont,sans-serif">关于一盘货库存管理的总结</text><path d="M362,960 C361,960 361,520 360,520" fill="none" stroke="#DFB85D" stroke-width="2"/><rect x="360" y="505" width="80" height="30" rx="6" fill="#fafafa" stroke="none"/><text x="400" y="525" text-anchor="middle" font-size="13" fill="#333" font-family="-apple-system,BlinkMacSystemFont,sans-serif"></text><path d="M362,960 C361,960 361,680 360,680" fill="none" stroke="#DFB85D" stroke-width="2"/><rect x="360" y="665" width="473.07" height="30" rx="6" fill="#fafafa" stroke="none"/><text x="596.535" y="685" text-anchor="middle" font-size="13" fill="#333" font-family="-apple-system,BlinkMacSystemFont,sans-serif">1. 随着业务的发展，实体仓会越来越多，这些仓库遍布各地，性质也不太一样</text><path d="M833.0699999999999,680 C686.535,680 686.535,580 540,580" fill="none" stroke="#DFB85D" stroke-width="2"/><rect x="540" y="565" width="80" height="30" rx="6" fill="#fafafa" stroke="none"/><text x="580" y="585" text-anchor="middle" font-size="13" fill="#333" font-family="-apple-system,BlinkMacSystemFont,sans-serif">自营仓</text><path d="M620,580 C670,580 670,560 720,560" fill="none" stroke="#DFB85D" stroke-width="2"/><rect x="720" y="545" width="169" height="30" rx="6" fill="#fafafa" stroke="none"/><text x="804.5" y="565" text-anchor="middle" font-size="13" fill="#333" font-family="-apple-system,BlinkMacSystemFont,sans-serif">企业自己建设经营的仓库</text><path d="M620,580 C670,580 670,600 720,600" fill="none" stroke="#DFB85D" stroke-width="2"/><rect x="720" y="585" width="234" height="30" rx="6" fill="#fafafa" stroke="none"/><text x="837" y="605" text-anchor="middle" font-size="13" fill="#333" font-family="-apple-system,BlinkMacSystemFont,sans-serif">由企业自己负责收货、发货、管理等</text><path d="M833.0699999999999,680 C686.535,680 686.535,660 540,660" fill="none" stroke="#DFB85D" stroke-width="2"/><rect x="540" y="645" width="91" height="30" rx="6" fill="#fafafa" stroke="none"/><text x="585.5" y="665" text-anchor="middle" font-size="13" fill="#333" font-family="-apple-system,BlinkMacSystemFont,sans-serif">三方电商仓</text><path d="M631,660 C675.5,660 675.5,640 720,640" fill="none" stroke="#DFB85D" stroke-width="2"/><rect x="720" y="625" width="221" height="30" rx="6" fill="#fafafa" stroke="none"/><text x="830.5" y="645" text-anchor="middle" font-size="13" fill="#333" font-family="-apple-system,BlinkMacSystemFont,sans-serif">货物备货放在三方电商平台的仓库</text><path d="M631,660 C675.5,660 675.5,680 720,680" fill="none" stroke="#DFB85D" stroke-width="2"/><rect x="720" y="665" width="260" height="30" rx="6" fill="#fafafa" stroke="none"/><text x="850" y="685" text-anchor="middle" font-size="13" fill="#333" font-family="-apple-system,BlinkMacSystemFont,sans-serif">三方电商仓全权负责收货，发货、管理等</text><path d="M833.0699999999999,680 C686.535,680 686.535,760 540,760" fill="none" stroke="#DFB85D" stroke-width="2"/><rect x="540" y="745" width="80" height="30" rx="6" fill="#fafafa" stroke="none"/><text x="580" y="765" text-anchor="middle" font-size="13" fill="#333" font-family="-apple-system,BlinkMacSystemFont,sans-serif">门店仓</text><path d="M620,760 C670,760 670,720 720,720" fill="none" stroke="#DFB85D" stroke-width="2"/><rect x="720" y="705" width="247.51999999999998" height="30" rx="6" fill="#fafafa" stroke="none"/><text x="843.76" y="725" text-anchor="middle" font-size="13" fill="#333" font-family="-apple-system,BlinkMacSystemFont,sans-serif">门店采用“前店后仓”的方式来管理库存</text><path d="M620,760 C670,760 670,780 720,780" fill="none" stroke="#DFB85D" stroke-width="2"/><rect x="720" y="765" width="130" height="30" rx="6" fill="#fafafa" stroke="none"/><text x="785" y="785" text-anchor="middle" font-size="13" fill="#333" font-family="-apple-system,BlinkMacSystemFont,sans-serif">门店的性质可能是</text><path d="M850,780 C875,780 875,760 900,760" fill="none" stroke="#DFB85D" stroke-width="2"/><rect x="900" y="745" width="80" height="30" rx="6" fill="#fafafa" stroke="none"/><text x="940" y="765" text-anchor="middle" font-size="13" fill="#333" font-family="-apple-system,BlinkMacSystemFont,sans-serif">直营门店</text><path d="M980,760 C1030,760 1030,760 1080,760" fill="none" stroke="#DFB85D" stroke-width="2"/><rect x="1080" y="745" width="130" height="30" rx="6" fill="#fafafa" stroke="none"/><text x="1145" y="765" text-anchor="middle" font-size="13" fill="#333" font-family="-apple-system,BlinkMacSystemFont,sans-serif">企业总部统一管控</text><path d="M850,780 C875,780 875,800 900,800" fill="none" stroke="#DFB85D" stroke-width="2"/><rect x="900" y="785" width="80" height="30" rx="6" fill="#fafafa" stroke="none"/><text x="940" y="805" text-anchor="middle" font-size="13" fill="#333" font-family="-apple-system,BlinkMacSystemFont,sans-serif">加盟门店</text><path d="M980,800 C1030,800 1030,800 1080,800" fill="none" stroke="#DFB85D" stroke-width="2"/><rect x="1080" y="785" width="169" height="30" rx="6" fill="#fafafa" stroke="none"/><text x="1164.5" y="805" text-anchor="middle" font-size="13" fill="#333" font-family="-apple-system,BlinkMacSystemFont,sans-serif">经销商、分销商进行管控</text><path d="M362,960 C361,960 361,1020 360,1020" fill="none" stroke="#DFB85D" stroke-width="2"/><rect x="360" y="1005" width="494.52" height="30" rx="6" fill="#fafafa" stroke="none"/><text x="607.26" y="1025" text-anchor="middle" font-size="13" fill="#333" font-family="-apple-system,BlinkMacSystemFont,sans-serif">2.随着业务的发展，销售渠道也会越来越多，不同的销售渠道也有不同的运营策略</text><path d="M854.52,1020 C697.26,1020 697.26,900 540,900" fill="none" stroke="#DFB85D" stroke-width="2"/><rect x="540" y="885" width="80" height="30" rx="6" fill="#fafafa" stroke="none"/><text x="580" y="905" text-anchor="middle" font-size="13" fill="#333" font-family="-apple-system,BlinkMacSystemFont,sans-serif">电商平台</text><path d="M620,900 C670,900 670,860 720,860" fill="none" stroke="#DFB85D" stroke-width="2"/><rect x="720" y="845" width="117" height="30" rx="6" fill="#fafafa" stroke="none"/><text x="778.5" y="865" text-anchor="middle" font-size="13" fill="#333" font-family="-apple-system,BlinkMacSystemFont,sans-serif">三方的电商平台</text><path d="M837,860 C868.5,860 868.5,840 900,840" fill="none" stroke="#DFB85D" stroke-width="2"/><rect x="900" y="825" width="182" height="30" rx="6" fill="#fafafa" stroke="none"/><text x="991" y="845" text-anchor="middle" font-size="13" fill="#333" font-family="-apple-system,BlinkMacSystemFont,sans-serif">淘宝、天猫、京东、拼多多</text><path d="M837,860 C868.5,860 868.5,880 900,880" fill="none" stroke="#DFB85D" stroke-width="2"/><rect x="900" y="865" width="143" height="30" rx="6" fill="#fafafa" stroke="none"/><text x="971.5" y="885" text-anchor="middle" font-size="13" fill="#333" font-family="-apple-system,BlinkMacSystemFont,sans-serif">抖音，小红书，快手</text><path d="M620,900 C670,900 670,940 720,940" fill="none" stroke="#DFB85D" stroke-width="2"/><rect x="720" y="925" width="117" height="30" rx="6" fill="#fafafa" stroke="none"/><text x="778.5" y="945" text-anchor="middle" font-size="13" fill="#333" font-family="-apple-system,BlinkMacSystemFont,sans-serif">自营的电商平台</text><path d="M837,940 C868.5,940 868.5,920 900,920" fill="none" stroke="#DFB85D" stroke-width="2"/><rect x="900" y="905" width="80" height="30" rx="6" fill="#fafafa" stroke="none"/><text x="940" y="925" text-anchor="middle" font-size="13" fill="#333" font-family="-apple-system,BlinkMacSystemFont,sans-serif">官网</text><path d="M837,940 C868.5,940 868.5,960 900,960" fill="none" stroke="#DFB85D" stroke-width="2"/><rect x="900" y="945" width="80" height="30" rx="6" fill="#fafafa" stroke="none"/><text x="940" y="965" text-anchor="middle" font-size="13" fill="#333" font-family="-apple-system,BlinkMacSystemFont,sans-serif">小程序</text><path d="M854.52,1020 C697.26,1020 697.26,1040 540,1040" fill="none" stroke="#DFB85D" stroke-width="2"/><rect x="540" y="1025" width="80" height="30" rx="6" fill="#fafafa" stroke="none"/><text x="580" y="1045" text-anchor="middle" font-size="13" fill="#333" font-family="-apple-system,BlinkMacSystemFont,sans-serif">O2O平台</text><path d="M620,1040 C670,1040 670,1000 720,1000" fill="none" stroke="#DFB85D" stroke-width="2"/><rect x="720" y="985" width="80" height="30" rx="6" fill="#fafafa" stroke="none"/><text x="760" y="1005" text-anchor="middle" font-size="13" fill="#333" font-family="-apple-system,BlinkMacSystemFont,sans-serif">美团</text><path d="M620,1040 C670,1040 670,1040 720,1040" fill="none" stroke="#DFB85D" stroke-width="2"/><rect x="720" y="1025" width="80" height="30" rx="6" fill="#fafafa" stroke="none"/><text x="760" y="1045" text-anchor="middle" font-size="13" fill="#333" font-family="-apple-system,BlinkMacSystemFont,sans-serif">饿了么</text><path d="M620,1040 C670,1040 670,1080 720,1080" fill="none" stroke="#DFB85D" stroke-width="2"/><rect x="720" y="1065" width="80" height="30" rx="6" fill="#fafafa" stroke="none"/><text x="760" y="1085" text-anchor="middle" font-size="13" fill="#333" font-family="-apple-system,BlinkMacSystemFont,sans-serif">京东到家</text><path d="M854.52,1020 C697.26,1020 697.26,1140 540,1140" fill="none" stroke="#DFB85D" stroke-width="2"/><rect x="540" y="1125" width="80" height="30" rx="6" fill="#fafafa" stroke="none"/><text x="580" y="1145" text-anchor="middle" font-size="13" fill="#333" font-family="-apple-system,BlinkMacSystemFont,sans-serif">门店配货</text><path d="M620,1140 C670,1140 670,1120 720,1120" fill="none" stroke="#DFB85D" stroke-width="2"/><rect x="720" y="1105" width="104" height="30" rx="6" fill="#fafafa" stroke="none"/><text x="772" y="1125" text-anchor="middle" font-size="13" fill="#333" font-family="-apple-system,BlinkMacSystemFont,sans-serif">直营门店配合</text><path d="M620,1140 C670,1140 670,1160 720,1160" fill="none" stroke="#DFB85D" stroke-width="2"/><rect x="720" y="1145" width="104" height="30" rx="6" fill="#fafafa" stroke="none"/><text x="772" y="1165" text-anchor="middle" font-size="13" fill="#333" font-family="-apple-system,BlinkMacSystemFont,sans-serif">加盟门店配货</text><path d="M854.52,1020 C697.26,1020 697.26,1200 540,1200" fill="none" stroke="#DFB85D" stroke-width="2"/><rect x="540" y="1185" width="80" height="30" rx="6" fill="#fafafa" stroke="none"/><text x="580" y="1205" text-anchor="middle" font-size="13" fill="#333" font-family="-apple-system,BlinkMacSystemFont,sans-serif">B2B批发</text><path d="M620,1200 C670,1200 670,1200 720,1200" fill="none" stroke="#DFB85D" stroke-width="2"/><rect x="720" y="1185" width="104" height="30" rx="6" fill="#fafafa" stroke="none"/><text x="772" y="1205" text-anchor="middle" font-size="13" fill="#333" font-family="-apple-system,BlinkMacSystemFont,sans-serif">线下批发业务</text><path d="M362,960 C361,960 361,1300 360,1300" fill="none" stroke="#DFB85D" stroke-width="2"/><rect x="360" y="1285" width="527.8" height="30" rx="6" fill="#fafafa" stroke="none"/><text x="623.9" y="1305" text-anchor="middle" font-size="13" fill="#333" font-family="-apple-system,BlinkMacSystemFont,sans-serif">3.仓库和销售渠道是属于N:N的关系，而且不同的销售渠道之间对库存的要求差异比较大</text><path d="M887.8,1300 C713.9,1300 713.9,1240 540,1240" fill="none" stroke="#DFB85D" stroke-width="2"/><rect x="540" y="1225" width="826.28" height="30" rx="6" fill="#fafafa" stroke="none"/><text x="953.14" y="1245" text-anchor="middle" font-size="13" fill="#333" font-family="-apple-system,BlinkMacSystemFont,sans-serif">B2B批发，对库存的及时性要求没那么高，而且一般不受限于三方平台的规则，对库存的使用就比较灵活，可以缺量发、多次发、借调库存发</text><path d="M887.8,1300 C713.9,1300 713.9,1280 540,1280" fill="none" stroke="#DFB85D" stroke-width="2"/><rect x="540" y="1265" width="819" height="30" rx="6" fill="#fafafa" stroke="none"/><text x="949.5" y="1285" text-anchor="middle" font-size="13" fill="#333" font-family="-apple-system,BlinkMacSystemFont,sans-serif">电商平台，对库存的及时性要求高，而且平台的政策也比较严，如果库存管理不当，导致超卖、缺货、履约不及时等，都会有比较大的影响</text><path d="M887.8,1300 C713.9,1300 713.9,1320 540,1320" fill="none" stroke="#DFB85D" stroke-width="2"/><rect x="540" y="1305" width="806" height="30" rx="6" fill="#fafafa" stroke="none"/><text x="943" y="1325" text-anchor="middle" font-size="13" fill="#333" font-family="-apple-system,BlinkMacSystemFont,sans-serif">门店配货，对库存的及时性要求中等，但是数量庞大，货物铺到门店的整个履约周期比较长，对库存的在途跟踪，全链路监控要求比较高</text><path d="M887.8,1300 C713.9,1300 713.9,1360 540,1360" fill="none" stroke="#DFB85D" stroke-width="2"/><rect x="540" y="1345" width="80" height="30" rx="6" fill="#fafafa" stroke="none"/><text x="580" y="1365" text-anchor="middle" font-size="13" fill="#333" font-family="-apple-system,BlinkMacSystemFont,sans-serif">……</text><path d="M362,960 C361,960 361,1400 360,1400" fill="none" stroke="#DFB85D" stroke-width="2"/><rect x="360" y="1385" width="978.1199999999999" height="30" rx="6" fill="#fafafa" stroke="none"/><text x="849.06" y="1405" text-anchor="middle" font-size="13" fill="#333" font-family="-apple-system,BlinkMacSystemFont,sans-serif">4.基于实体仓和销售渠道N:N的关系，所以夹在中间的OMS/ERP需要做很多的规则、策略，来满足库存的共享、分配、调度，还有订单的集中接收、处理、分发、监控等</text>
</svg>