<svg xmlns="http://www.w3.org/2000/svg" xmlns:xlink="http://www.w3.org/1999/xlink"
  viewBox="-188.16 -1379 1564.16 2758" width="1564.16" height="2758"
  style="background:#fff; font-family:-apple-system,BlinkMacSystemFont,'Segoe UI',Roboto,sans-serif;">
<defs></defs>
<rect x="-188.16" y="-1379" width="1564.16" height="2758" fill="#fff"/>
<rect x="-104.16" y="-18" width="208.32" height="36" rx="8" fill="#EFF0F0" stroke="none"/><text x="0" y="6" text-anchor="middle" font-size="16" font-weight="bold" fill="#333" font-family="-apple-system,BlinkMacSystemFont,sans-serif">实际B端产品的竞品分析</text><path d="M104.16,0 C194.15999999999997,0 194.15999999999997,-860 284.15999999999997,-860" fill="none" stroke="#A287E1" stroke-width="2"/><rect x="180" y="-875" width="169" height="30" rx="6" fill="#fafafa" stroke="none"/><text x="264.5" y="-855" text-anchor="middle" font-size="13" fill="#333" font-family="-apple-system,BlinkMacSystemFont,sans-serif">我对竞品分析的一些看法</text><path d="M349,-860 C354.5,-860 354.5,-1220 360,-1220" fill="none" stroke="#A287E1" stroke-width="2"/><rect x="360" y="-1235" width="208.51999999999998" height="30" rx="6" fill="#fafafa" stroke="none"/><text x="464.26" y="-1215" text-anchor="middle" font-size="13" fill="#333" font-family="-apple-system,BlinkMacSystemFont,sans-serif">1.明确目标，需要分析的是什么</text><path d="M568.52,-1220 C554.26,-1220 554.26,-1280 540,-1280" fill="none" stroke="#A287E1" stroke-width="2"/><rect x="540" y="-1295" width="143" height="30" rx="6" fill="#fafafa" stroke="none"/><text x="611.5" y="-1275" text-anchor="middle" font-size="13" fill="#333" font-family="-apple-system,BlinkMacSystemFont,sans-serif">分析竞品的宏观情况</text><path d="M683,-1280 C701.5,-1280 701.5,-1280 720,-1280" fill="none" stroke="#A287E1" stroke-width="2"/><rect x="720" y="-1295" width="80" height="30" rx="6" fill="#fafafa" stroke="none"/><text x="760" y="-1275" text-anchor="middle" font-size="13" fill="#333" font-family="-apple-system,BlinkMacSystemFont,sans-serif">很少</text><path d="M568.52,-1220 C554.26,-1220 554.26,-1240 540,-1240" fill="none" stroke="#A287E1" stroke-width="2"/><rect x="540" y="-1255" width="273" height="30" rx="6" fill="#fafafa" stroke="none"/><text x="676.5" y="-1235" text-anchor="middle" font-size="13" fill="#333" font-family="-apple-system,BlinkMacSystemFont,sans-serif">分析竞品的优势，劣势，面向的用户群体等</text><path d="M813,-1240 C766.5,-1240 766.5,-1240 720,-1240" fill="none" stroke="#A287E1" stroke-width="2"/><rect x="720" y="-1255" width="80" height="30" rx="6" fill="#fafafa" stroke="none"/><text x="760" y="-1235" text-anchor="middle" font-size="13" fill="#333" font-family="-apple-system,BlinkMacSystemFont,sans-serif">中等</text><path d="M568.52,-1220 C554.26,-1220 554.26,-1180 540,-1180" fill="none" stroke="#A287E1" stroke-width="2"/><rect x="540" y="-1195" width="169" height="30" rx="6" fill="#fafafa" stroke="none"/><text x="624.5" y="-1175" text-anchor="middle" font-size="13" fill="#333" font-family="-apple-system,BlinkMacSystemFont,sans-serif">分析竞品的具体功能模块</text><path d="M709,-1180 C714.5,-1180 714.5,-1200 720,-1200" fill="none" stroke="#A287E1" stroke-width="2"/><rect x="720" y="-1215" width="80" height="30" rx="6" fill="#fafafa" stroke="none"/><text x="760" y="-1195" text-anchor="middle" font-size="13" fill="#333" font-family="-apple-system,BlinkMacSystemFont,sans-serif">较多</text><path d="M709,-1180 C714.5,-1180 714.5,-1160 720,-1160" fill="none" stroke="#A287E1" stroke-width="2"/><rect x="720" y="-1175" width="130" height="30" rx="6" fill="#fafafa" stroke="none"/><text x="785" y="-1155" text-anchor="middle" font-size="13" fill="#333" font-family="-apple-system,BlinkMacSystemFont,sans-serif">日常主要是做这个</text><path d="M349,-860 C354.5,-860 354.5,-1040 360,-1040" fill="none" stroke="#A287E1" stroke-width="2"/><rect x="360" y="-1055" width="195.51999999999998" height="30" rx="6" fill="#fafafa" stroke="none"/><text x="457.76" y="-1035" text-anchor="middle" font-size="13" fill="#333" font-family="-apple-system,BlinkMacSystemFont,sans-serif">2.以目标为导向，要精简干练</text><path d="M555.52,-1040 C547.76,-1040 547.76,-1120 540,-1120" fill="none" stroke="#A287E1" stroke-width="2"/><rect x="540" y="-1135" width="208" height="30" rx="6" fill="#fafafa" stroke="none"/><text x="644" y="-1115" text-anchor="middle" font-size="13" fill="#333" font-family="-apple-system,BlinkMacSystemFont,sans-serif">竞品分析不是文字越长就越牛逼</text><path d="M555.52,-1040 C547.76,-1040 547.76,-1040 540,-1040" fill="none" stroke="#A287E1" stroke-width="2"/><rect x="540" y="-1055" width="377" height="30" rx="6" fill="#fafafa" stroke="none"/><text x="728.5" y="-1035" text-anchor="middle" font-size="13" fill="#333" font-family="-apple-system,BlinkMacSystemFont,sans-serif">竞品分析不是宏观，中观，微观都要兼顾到，要以目标为导向</text><path d="M917,-1040 C818.5,-1040 818.5,-1080 720,-1080" fill="none" stroke="#A287E1" stroke-width="2"/><rect x="720" y="-1095" width="104" height="30" rx="6" fill="#fafafa" stroke="none"/><text x="772" y="-1075" text-anchor="middle" font-size="13" fill="#333" font-family="-apple-system,BlinkMacSystemFont,sans-serif">为什么分析？</text><path d="M917,-1040 C818.5,-1040 818.5,-1040 720,-1040" fill="none" stroke="#A287E1" stroke-width="2"/><rect x="720" y="-1055" width="136.76" height="30" rx="6" fill="#fafafa" stroke="none"/><text x="788.38" y="-1035" text-anchor="middle" font-size="13" fill="#333" font-family="-apple-system,BlinkMacSystemFont,sans-serif">分析之后要干什么?</text><path d="M917,-1040 C818.5,-1040 818.5,-1000 720,-1000" fill="none" stroke="#A287E1" stroke-width="2"/><rect x="720" y="-1015" width="195" height="30" rx="6" fill="#fafafa" stroke="none"/><text x="817.5" y="-995" text-anchor="middle" font-size="13" fill="#333" font-family="-apple-system,BlinkMacSystemFont,sans-serif">哪些是要获得验证和确认的？</text><path d="M555.52,-1040 C547.76,-1040 547.76,-960 540,-960" fill="none" stroke="#A287E1" stroke-width="2"/><rect x="540" y="-975" width="364" height="30" rx="6" fill="#fafafa" stroke="none"/><text x="722" y="-955" text-anchor="middle" font-size="13" fill="#333" font-family="-apple-system,BlinkMacSystemFont,sans-serif">竞品分析不一定都要贴一堆行业研究报告，关注目标是什么</text><path d="M349,-860 C354.5,-860 354.5,-880 360,-880" fill="none" stroke="#A287E1" stroke-width="2"/><rect x="360" y="-895" width="234.51999999999998" height="30" rx="6" fill="#fafafa" stroke="none"/><text x="477.26" y="-875" text-anchor="middle" font-size="13" fill="#333" font-family="-apple-system,BlinkMacSystemFont,sans-serif">3.不要追求大而全，内容太浅没效果</text><path d="M594.52,-880 C567.26,-880 567.26,-920 540,-920" fill="none" stroke="#A287E1" stroke-width="2"/><rect x="540" y="-935" width="286" height="30" rx="6" fill="#fafafa" stroke="none"/><text x="683" y="-915" text-anchor="middle" font-size="13" fill="#333" font-family="-apple-system,BlinkMacSystemFont,sans-serif">不要求大而全，导致文章太冗长，重点不清晰</text><path d="M594.52,-880 C567.26,-880 567.26,-880 540,-880" fill="none" stroke="#A287E1" stroke-width="2"/><rect x="540" y="-895" width="650" height="30" rx="6" fill="#fafafa" stroke="none"/><text x="865" y="-875" text-anchor="middle" font-size="13" fill="#333" font-family="-apple-system,BlinkMacSystemFont,sans-serif">实际场景还原度要高，真实的场景是什么，用户的痛点是什么，从这个角度出发才能得出一些更有深度的结论</text><path d="M594.52,-880 C567.26,-880 567.26,-840 540,-840" fill="none" stroke="#A287E1" stroke-width="2"/><rect x="540" y="-855" width="273" height="30" rx="6" fill="#fafafa" stroke="none"/><text x="676.5" y="-835" text-anchor="middle" font-size="13" fill="#333" font-family="-apple-system,BlinkMacSystemFont,sans-serif">数据要严谨，推敲过程要闭环，不要想当然</text><path d="M349,-860 C354.5,-860 354.5,-760 360,-760" fill="none" stroke="#A287E1" stroke-width="2"/><rect x="360" y="-775" width="312.52" height="30" rx="6" fill="#fafafa" stroke="none"/><text x="516.26" y="-755" text-anchor="middle" font-size="13" fill="#333" font-family="-apple-system,BlinkMacSystemFont,sans-serif">4.根据前端界面提出的优化建议往往都是低价值的</text><path d="M672.52,-760 C606.26,-760 606.26,-800 540,-800" fill="none" stroke="#A287E1" stroke-width="2"/><rect x="540" y="-815" width="274.04" height="30" rx="6" fill="#fafafa" stroke="none"/><text x="677.02" y="-795" text-anchor="middle" font-size="13" fill="#333" font-family="-apple-system,BlinkMacSystemFont,sans-serif">不要被UI、UX，文档等表现层的东西限制了</text><path d="M672.52,-760 C606.26,-760 606.26,-760 540,-760" fill="none" stroke="#A287E1" stroke-width="2"/><rect x="540" y="-775" width="455" height="30" rx="6" fill="#fafafa" stroke="none"/><text x="767.5" y="-755" text-anchor="middle" font-size="13" fill="#333" font-family="-apple-system,BlinkMacSystemFont,sans-serif">可以多关注一下架构层和结构层的东西，虽然你提的优化建议可能也是错的</text><path d="M672.52,-760 C606.26,-760 606.26,-720 540,-720" fill="none" stroke="#A287E1" stroke-width="2"/><rect x="540" y="-735" width="494" height="30" rx="6" fill="#fafafa" stroke="none"/><text x="787" y="-715" text-anchor="middle" font-size="13" fill="#333" font-family="-apple-system,BlinkMacSystemFont,sans-serif">如果是产品方向方面的内容，可以多关注产品定位，用户画像，主打场景的侧重等</text><path d="M349,-860 C354.5,-860 354.5,-600 360,-600" fill="none" stroke="#A287E1" stroke-width="2"/><rect x="360" y="-615" width="287.56" height="30" rx="6" fill="#fafafa" stroke="none"/><text x="503.78" y="-595" text-anchor="middle" font-size="13" fill="#333" font-family="-apple-system,BlinkMacSystemFont,sans-serif">5.SWOT局限性也很大，想分析清楚没那么简单</text><path d="M647.56,-600 C593.78,-600 593.78,-680 540,-680" fill="none" stroke="#A287E1" stroke-width="2"/><rect x="540" y="-695" width="80" height="30" rx="6" fill="#fafafa" stroke="none"/><text x="580" y="-675" text-anchor="middle" font-size="13" fill="#333" font-family="-apple-system,BlinkMacSystemFont,sans-serif">S优势</text><path d="M647.56,-600 C593.78,-600 593.78,-640 540,-640" fill="none" stroke="#A287E1" stroke-width="2"/><rect x="540" y="-655" width="80" height="30" rx="6" fill="#fafafa" stroke="none"/><text x="580" y="-635" text-anchor="middle" font-size="13" fill="#333" font-family="-apple-system,BlinkMacSystemFont,sans-serif">W劣势</text><path d="M647.56,-600 C593.78,-600 593.78,-600 540,-600" fill="none" stroke="#A287E1" stroke-width="2"/><rect x="540" y="-615" width="80" height="30" rx="6" fill="#fafafa" stroke="none"/><text x="580" y="-595" text-anchor="middle" font-size="13" fill="#333" font-family="-apple-system,BlinkMacSystemFont,sans-serif">O机会</text><path d="M647.56,-600 C593.78,-600 593.78,-560 540,-560" fill="none" stroke="#A287E1" stroke-width="2"/><rect x="540" y="-575" width="80" height="30" rx="6" fill="#fafafa" stroke="none"/><text x="580" y="-555" text-anchor="middle" font-size="13" fill="#333" font-family="-apple-system,BlinkMacSystemFont,sans-serif">T挑战</text><path d="M647.56,-600 C593.78,-600 593.78,-520 540,-520" fill="none" stroke="#A287E1" stroke-width="2"/><rect x="540" y="-535" width="351" height="30" rx="6" fill="#fafafa" stroke="none"/><text x="715.5" y="-515" text-anchor="middle" font-size="13" fill="#333" font-family="-apple-system,BlinkMacSystemFont,sans-serif">建议初中级产品跳过这一块，这个分析想要理清楚非常难</text><path d="M349,-860 C354.5,-860 354.5,-460 360,-460" fill="none" stroke="#A287E1" stroke-width="2"/><rect x="360" y="-475" width="221.51999999999998" height="30" rx="6" fill="#fafafa" stroke="none"/><text x="470.76" y="-455" text-anchor="middle" font-size="13" fill="#333" font-family="-apple-system,BlinkMacSystemFont,sans-serif">6.以实用性为主，别陷入教条主义</text><path d="M581.52,-460 C560.76,-460 560.76,-480 540,-480" fill="none" stroke="#A287E1" stroke-width="2"/><rect x="540" y="-495" width="377" height="30" rx="6" fill="#fafafa" stroke="none"/><text x="728.5" y="-475" text-anchor="middle" font-size="13" fill="#333" font-family="-apple-system,BlinkMacSystemFont,sans-serif">如果是内部的产品分析，很多模块可以省略，重点抛结论即可</text><path d="M581.52,-460 C560.76,-460 560.76,-440 540,-440" fill="none" stroke="#A287E1" stroke-width="2"/><rect x="540" y="-455" width="390" height="30" rx="6" fill="#fafafa" stroke="none"/><text x="735" y="-435" text-anchor="middle" font-size="13" fill="#333" font-family="-apple-system,BlinkMacSystemFont,sans-serif">不一定非要按网络上的各种模板来进行，关键就是解决问题即可</text><path d="M104.16,0 C194.15999999999997,0 194.15999999999997,440 284.15999999999997,440" fill="none" stroke="#6F81DB" stroke-width="2"/><rect x="180" y="425" width="156" height="30" rx="6" fill="#fafafa" stroke="none"/><text x="258" y="445" text-anchor="middle" font-size="13" fill="#333" font-family="-apple-system,BlinkMacSystemFont,sans-serif">工作中常见的竞品分析</text><path d="M336,440 C348,440 348,-240 360,-240" fill="none" stroke="#6F81DB" stroke-width="2"/><rect x="360" y="-255" width="234.51999999999998" height="30" rx="6" fill="#fafafa" stroke="none"/><text x="477.26" y="-235" text-anchor="middle" font-size="13" fill="#333" font-family="-apple-system,BlinkMacSystemFont,sans-serif">1.分析竞品的某个功能是怎么设计的</text><path d="M594.52,-240 C567.26,-240 567.26,-400 540,-400" fill="none" stroke="#6F81DB" stroke-width="2"/><rect x="540" y="-415" width="84.75999999999999" height="30" rx="6" fill="#fafafa" stroke="none"/><text x="582.38" y="-395" text-anchor="middle" font-size="13" fill="#333" font-family="-apple-system,BlinkMacSystemFont,sans-serif">目标/目的</text><path d="M624.76,-400 C672.38,-400 672.38,-400 720,-400" fill="none" stroke="#6F81DB" stroke-width="2"/><rect x="720" y="-415" width="429" height="30" rx="6" fill="#fafafa" stroke="none"/><text x="934.5" y="-395" text-anchor="middle" font-size="13" fill="#333" font-family="-apple-system,BlinkMacSystemFont,sans-serif">快速调研功能是如何设计的，然后指导自己的产品尽快跟进相关的功能</text><path d="M594.52,-240 C567.26,-240 567.26,-340 540,-340" fill="none" stroke="#6F81DB" stroke-width="2"/><rect x="540" y="-355" width="104" height="30" rx="6" fill="#fafafa" stroke="none"/><text x="592" y="-335" text-anchor="middle" font-size="13" fill="#333" font-family="-apple-system,BlinkMacSystemFont,sans-serif">需要做的频率</text><path d="M644,-340 C682,-340 682,-360 720,-360" fill="none" stroke="#6F81DB" stroke-width="2"/><rect x="720" y="-375" width="80" height="30" rx="6" fill="#fafafa" stroke="none"/><text x="760" y="-355" text-anchor="middle" font-size="13" fill="#333" font-family="-apple-system,BlinkMacSystemFont,sans-serif">比较高频</text><path d="M644,-340 C682,-340 682,-320 720,-320" fill="none" stroke="#6F81DB" stroke-width="2"/><rect x="720" y="-335" width="286" height="30" rx="6" fill="#fafafa" stroke="none"/><text x="863" y="-315" text-anchor="middle" font-size="13" fill="#333" font-family="-apple-system,BlinkMacSystemFont,sans-serif">日常迭代新功能的时候可能就需要做竞品分析</text><path d="M594.52,-240 C567.26,-240 567.26,-180 540,-180" fill="none" stroke="#6F81DB" stroke-width="2"/><rect x="540" y="-195" width="80" height="30" rx="6" fill="#fafafa" stroke="none"/><text x="580" y="-175" text-anchor="middle" font-size="13" fill="#333" font-family="-apple-system,BlinkMacSystemFont,sans-serif">关注重点</text><path d="M620,-180 C670,-180 670,-280 720,-280" fill="none" stroke="#6F81DB" stroke-width="2"/><rect x="720" y="-295" width="312" height="30" rx="6" fill="#fafafa" stroke="none"/><text x="876" y="-275" text-anchor="middle" font-size="13" fill="#333" font-family="-apple-system,BlinkMacSystemFont,sans-serif">竞品这个功能对流程有几步？操作体验怎么样的？</text><path d="M620,-180 C670,-180 670,-240 720,-240" fill="none" stroke="#6F81DB" stroke-width="2"/><rect x="720" y="-255" width="364" height="30" rx="6" fill="#fafafa" stroke="none"/><text x="902" y="-235" text-anchor="middle" font-size="13" fill="#333" font-family="-apple-system,BlinkMacSystemFont,sans-serif">对竞品的这个功能摸熟悉了吗？能发现它的亮点和缺点吗？</text><path d="M620,-180 C670,-180 670,-200 720,-200" fill="none" stroke="#6F81DB" stroke-width="2"/><rect x="720" y="-215" width="338" height="30" rx="6" fill="#fafafa" stroke="none"/><text x="889" y="-195" text-anchor="middle" font-size="13" fill="#333" font-family="-apple-system,BlinkMacSystemFont,sans-serif">能拆解出该功能大概要做哪些东西？耗费多少资源吗？</text><path d="M620,-180 C670,-180 670,-160 720,-160" fill="none" stroke="#6F81DB" stroke-width="2"/><rect x="720" y="-175" width="468" height="30" rx="6" fill="#fafafa" stroke="none"/><text x="954" y="-155" text-anchor="middle" font-size="13" fill="#333" font-family="-apple-system,BlinkMacSystemFont,sans-serif">竞品这个功能联动的模块多吗？会不会有遗漏？需要先满足其他支撑条件吗？</text><path d="M620,-180 C670,-180 670,-120 720,-120" fill="none" stroke="#6F81DB" stroke-width="2"/><rect x="720" y="-135" width="448.76" height="30" rx="6" fill="#fafafa" stroke="none"/><text x="944.38" y="-115" text-anchor="middle" font-size="13" fill="#333" font-family="-apple-system,BlinkMacSystemFont,sans-serif">能否拆解出亮点/独家功能的技术实现方式，跟进一些业内比较独特的功能</text><path d="M620,-180 C670,-180 670,-80 720,-80" fill="none" stroke="#6F81DB" stroke-width="2"/><rect x="720" y="-95" width="247" height="30" rx="6" fill="#fafafa" stroke="none"/><text x="843.5" y="-75" text-anchor="middle" font-size="13" fill="#333" font-family="-apple-system,BlinkMacSystemFont,sans-serif">竞品的这个功能用户对他的评价好吗？</text><path d="M336,440 C348,440 348,100 360,100" fill="none" stroke="#6F81DB" stroke-width="2"/><rect x="360" y="85" width="260.52" height="30" rx="6" fill="#fafafa" stroke="none"/><text x="490.26" y="105" text-anchor="middle" font-size="13" fill="#333" font-family="-apple-system,BlinkMacSystemFont,sans-serif">2.分析竞品某个大的模块是什么样的结构</text><path d="M620.52,100 C580.26,100 580.26,-40 540,-40" fill="none" stroke="#6F81DB" stroke-width="2"/><rect x="540" y="-55" width="84.75999999999999" height="30" rx="6" fill="#fafafa" stroke="none"/><text x="582.38" y="-35" text-anchor="middle" font-size="13" fill="#333" font-family="-apple-system,BlinkMacSystemFont,sans-serif">目标/目的</text><path d="M624.76,-40 C672.38,-40 672.38,-40 720,-40" fill="none" stroke="#6F81DB" stroke-width="2"/><rect x="720" y="-55" width="351" height="30" rx="6" fill="#fafafa" stroke="none"/><text x="895.5" y="-35" text-anchor="middle" font-size="13" fill="#333" font-family="-apple-system,BlinkMacSystemFont,sans-serif">了解竞品是怎么解决某个场景的需求的，知道它的优劣势</text><path d="M620.52,100 C580.26,100 580.26,20 540,20" fill="none" stroke="#6F81DB" stroke-width="2"/><rect x="540" y="5" width="104" height="30" rx="6" fill="#fafafa" stroke="none"/><text x="592" y="25" text-anchor="middle" font-size="13" fill="#333" font-family="-apple-system,BlinkMacSystemFont,sans-serif">需要做的频率</text><path d="M644,20 C682,20 682,0 720,0" fill="none" stroke="#6F81DB" stroke-width="2"/><rect x="720" y="-15" width="80" height="30" rx="6" fill="#fafafa" stroke="none"/><text x="760" y="5" text-anchor="middle" font-size="13" fill="#333" font-family="-apple-system,BlinkMacSystemFont,sans-serif">中等</text><path d="M644,20 C682,20 682,40 720,40" fill="none" stroke="#6F81DB" stroke-width="2"/><rect x="720" y="25" width="299" height="30" rx="6" fill="#fafafa" stroke="none"/><text x="869.5" y="45" text-anchor="middle" font-size="13" fill="#333" font-family="-apple-system,BlinkMacSystemFont,sans-serif">一般来说引入新的产品模块或者重构的时候要做</text><path d="M620.52,100 C580.26,100 580.26,160 540,160" fill="none" stroke="#6F81DB" stroke-width="2"/><rect x="540" y="145" width="80" height="30" rx="6" fill="#fafafa" stroke="none"/><text x="580" y="165" text-anchor="middle" font-size="13" fill="#333" font-family="-apple-system,BlinkMacSystemFont,sans-serif">关注重点</text><path d="M620,160 C670,160 670,80 720,80" fill="none" stroke="#6F81DB" stroke-width="2"/><rect x="720" y="65" width="351" height="30" rx="6" fill="#fafafa" stroke="none"/><text x="895.5" y="85" text-anchor="middle" font-size="13" fill="#333" font-family="-apple-system,BlinkMacSystemFont,sans-serif">竞品能解决的场景是什么？使用它的用户是怎样的画像？</text><path d="M620,160 C670,160 670,120 720,120" fill="none" stroke="#6F81DB" stroke-width="2"/><rect x="720" y="105" width="416" height="30" rx="6" fill="#fafafa" stroke="none"/><text x="928" y="125" text-anchor="middle" font-size="13" fill="#333" font-family="-apple-system,BlinkMacSystemFont,sans-serif">竞品这个模块的业务流程是怎么样的？是否闭环了，流程是否顺畅？</text><path d="M620,160 C670,160 670,160 720,160" fill="none" stroke="#6F81DB" stroke-width="2"/><rect x="720" y="145" width="429" height="30" rx="6" fill="#fafafa" stroke="none"/><text x="934.5" y="165" text-anchor="middle" font-size="13" fill="#333" font-family="-apple-system,BlinkMacSystemFont,sans-serif">竞品这个模块的优劣势是什么？如果要和竞品竞争，能有把握胜出吗？</text><path d="M620,160 C670,160 670,200 720,200" fill="none" stroke="#6F81DB" stroke-width="2"/><rect x="720" y="185" width="494" height="30" rx="6" fill="#fafafa" stroke="none"/><text x="967" y="205" text-anchor="middle" font-size="13" fill="#333" font-family="-apple-system,BlinkMacSystemFont,sans-serif">竞品这个模块中包含多少功能，它们是怎么串联的，自己是否熟悉了相关的细节？</text><path d="M620,160 C670,160 670,240 720,240" fill="none" stroke="#6F81DB" stroke-width="2"/><rect x="720" y="225" width="377" height="30" rx="6" fill="#fafafa" stroke="none"/><text x="908.5" y="245" text-anchor="middle" font-size="13" fill="#333" font-family="-apple-system,BlinkMacSystemFont,sans-serif">竞品的该模块是怎么宣传的？怎么突出自己的亮点和服务的？</text><path d="M1097,240 C998.5,240 998.5,240 900,240" fill="none" stroke="#6F81DB" stroke-width="2"/><rect x="900" y="225" width="247" height="30" rx="6" fill="#fafafa" stroke="none"/><text x="1023.5" y="245" text-anchor="middle" font-size="13" fill="#333" font-family="-apple-system,BlinkMacSystemFont,sans-serif">后续有新模块上线的时候可以学习一下</text><path d="M336,440 C348,440 348,400 360,400" fill="none" stroke="#6F81DB" stroke-width="2"/><rect x="360" y="385" width="234.51999999999998" height="30" rx="6" fill="#fafafa" stroke="none"/><text x="477.26" y="405" text-anchor="middle" font-size="13" fill="#333" font-family="-apple-system,BlinkMacSystemFont,sans-serif">3.收集竞品的所有功能清单进行对比</text><path d="M594.52,400 C567.26,400 567.26,280 540,280" fill="none" stroke="#6F81DB" stroke-width="2"/><rect x="540" y="265" width="84.75999999999999" height="30" rx="6" fill="#fafafa" stroke="none"/><text x="582.38" y="285" text-anchor="middle" font-size="13" fill="#333" font-family="-apple-system,BlinkMacSystemFont,sans-serif">目标/目的</text><path d="M624.76,280 C672.38,280 672.38,280 720,280" fill="none" stroke="#6F81DB" stroke-width="2"/><rect x="720" y="265" width="312" height="30" rx="6" fill="#fafafa" stroke="none"/><text x="876" y="285" text-anchor="middle" font-size="13" fill="#333" font-family="-apple-system,BlinkMacSystemFont,sans-serif">梳理所有的功能清单，与当前自己的产品进行对比</text><path d="M594.52,400 C567.26,400 567.26,340 540,340" fill="none" stroke="#6F81DB" stroke-width="2"/><rect x="540" y="325" width="104" height="30" rx="6" fill="#fafafa" stroke="none"/><text x="592" y="345" text-anchor="middle" font-size="13" fill="#333" font-family="-apple-system,BlinkMacSystemFont,sans-serif">需要做的频率</text><path d="M644,340 C682,340 682,320 720,320" fill="none" stroke="#6F81DB" stroke-width="2"/><rect x="720" y="305" width="80" height="30" rx="6" fill="#fafafa" stroke="none"/><text x="760" y="325" text-anchor="middle" font-size="13" fill="#333" font-family="-apple-system,BlinkMacSystemFont,sans-serif">比较低</text><path d="M644,340 C682,340 682,360 720,360" fill="none" stroke="#6F81DB" stroke-width="2"/><rect x="720" y="345" width="299.52" height="30" rx="6" fill="#fafafa" stroke="none"/><text x="869.76" y="365" text-anchor="middle" font-size="13" fill="#333" font-family="-apple-system,BlinkMacSystemFont,sans-serif">一般是后追型产品或者从0到1的产品需要做这个</text><path d="M594.52,400 C567.26,400 567.26,460 540,460" fill="none" stroke="#6F81DB" stroke-width="2"/><rect x="540" y="445" width="80" height="30" rx="6" fill="#fafafa" stroke="none"/><text x="580" y="465" text-anchor="middle" font-size="13" fill="#333" font-family="-apple-system,BlinkMacSystemFont,sans-serif">关注重点</text><path d="M620,460 C670,460 670,400 720,400" fill="none" stroke="#6F81DB" stroke-width="2"/><rect x="720" y="385" width="273" height="30" rx="6" fill="#fafafa" stroke="none"/><text x="856.5" y="405" text-anchor="middle" font-size="13" fill="#333" font-family="-apple-system,BlinkMacSystemFont,sans-serif">应该选择哪个竞品？是收集一个还是多个？</text><path d="M620,460 C670,460 670,440 720,440" fill="none" stroke="#6F81DB" stroke-width="2"/><rect x="720" y="425" width="338" height="30" rx="6" fill="#fafafa" stroke="none"/><text x="889" y="445" text-anchor="middle" font-size="13" fill="#333" font-family="-apple-system,BlinkMacSystemFont,sans-serif">竞品有哪些功能，我们缺了哪些？我们应该先做哪个？</text><path d="M620,460 C670,460 670,480 720,480" fill="none" stroke="#6F81DB" stroke-width="2"/><rect x="720" y="465" width="494" height="30" rx="6" fill="#fafafa" stroke="none"/><text x="967" y="485" text-anchor="middle" font-size="13" fill="#333" font-family="-apple-system,BlinkMacSystemFont,sans-serif">竞品的这些功能，它们当时的迭代顺序是怎么样的？有哪些是有先后依赖关系的？</text><path d="M620,460 C670,460 670,520 720,520" fill="none" stroke="#6F81DB" stroke-width="2"/><rect x="720" y="505" width="572" height="30" rx="6" fill="#fafafa" stroke="none"/><text x="1006" y="525" text-anchor="middle" font-size="13" fill="#333" font-family="-apple-system,BlinkMacSystemFont,sans-serif">有一些模块和名称定义不一样的，我们要怎么和竞品保持相似，让用户有熟悉感，一眼就会用？</text><path d="M336,440 C348,440 348,760 360,760" fill="none" stroke="#6F81DB" stroke-width="2"/><rect x="360" y="745" width="338.52" height="30" rx="6" fill="#fafafa" stroke="none"/><text x="529.26" y="765" text-anchor="middle" font-size="13" fill="#333" font-family="-apple-system,BlinkMacSystemFont,sans-serif">4.对比几个潜在的竞品，确认一下要买哪个竞品的账号</text><path d="M698.52,760 C619.26,760 619.26,560 540,560" fill="none" stroke="#6F81DB" stroke-width="2"/><rect x="540" y="545" width="84.75999999999999" height="30" rx="6" fill="#fafafa" stroke="none"/><text x="582.38" y="565" text-anchor="middle" font-size="13" fill="#333" font-family="-apple-system,BlinkMacSystemFont,sans-serif">目标/目的</text><path d="M624.76,560 C672.38,560 672.38,560 720,560" fill="none" stroke="#6F81DB" stroke-width="2"/><rect x="720" y="545" width="169" height="30" rx="6" fill="#fafafa" stroke="none"/><text x="804.5" y="565" text-anchor="middle" font-size="13" fill="#333" font-family="-apple-system,BlinkMacSystemFont,sans-serif">选择采购合适的竞品账号</text><path d="M698.52,760 C619.26,760 619.26,620 540,620" fill="none" stroke="#6F81DB" stroke-width="2"/><rect x="540" y="605" width="104" height="30" rx="6" fill="#fafafa" stroke="none"/><text x="592" y="625" text-anchor="middle" font-size="13" fill="#333" font-family="-apple-system,BlinkMacSystemFont,sans-serif">需要做的频率</text><path d="M644,620 C682,620 682,600 720,600" fill="none" stroke="#6F81DB" stroke-width="2"/><rect x="720" y="585" width="80" height="30" rx="6" fill="#fafafa" stroke="none"/><text x="760" y="605" text-anchor="middle" font-size="13" fill="#333" font-family="-apple-system,BlinkMacSystemFont,sans-serif">比较低</text><path d="M644,620 C682,620 682,640 720,640" fill="none" stroke="#6F81DB" stroke-width="2"/><rect x="720" y="625" width="234" height="30" rx="6" fill="#fafafa" stroke="none"/><text x="837" y="645" text-anchor="middle" font-size="13" fill="#333" font-family="-apple-system,BlinkMacSystemFont,sans-serif">一般都是刚开始成立项目的时候要做</text><path d="M698.52,760 C619.26,760 619.26,820 540,820" fill="none" stroke="#6F81DB" stroke-width="2"/><rect x="540" y="805" width="80" height="30" rx="6" fill="#fafafa" stroke="none"/><text x="580" y="825" text-anchor="middle" font-size="13" fill="#333" font-family="-apple-system,BlinkMacSystemFont,sans-serif">关注重点</text><path d="M620,820 C670,820 670,680 720,680" fill="none" stroke="#6F81DB" stroke-width="2"/><rect x="720" y="665" width="338" height="30" rx="6" fill="#fafafa" stroke="none"/><text x="889" y="685" text-anchor="middle" font-size="13" fill="#333" font-family="-apple-system,BlinkMacSystemFont,sans-serif">竞品适用的客户群体，与我们的客户群体是相似的吗？</text><path d="M620,820 C670,820 670,720 720,720" fill="none" stroke="#6F81DB" stroke-width="2"/><rect x="720" y="705" width="390" height="30" rx="6" fill="#fafafa" stroke="none"/><text x="915" y="725" text-anchor="middle" font-size="13" fill="#333" font-family="-apple-system,BlinkMacSystemFont,sans-serif">竞品主打的用户场景与我们相似吗？我们有参考学习的价值吗？</text><path d="M620,820 C670,820 670,760 720,760" fill="none" stroke="#6F81DB" stroke-width="2"/><rect x="720" y="745" width="442" height="30" rx="6" fill="#fafafa" stroke="none"/><text x="941" y="765" text-anchor="middle" font-size="13" fill="#333" font-family="-apple-system,BlinkMacSystemFont,sans-serif">竞品的口碑好吗？目前的用户量多吗？是否值得我们花钱购买竞品账号？</text><path d="M620,820 C670,820 670,800 720,800" fill="none" stroke="#6F81DB" stroke-width="2"/><rect x="720" y="785" width="442" height="30" rx="6" fill="#fafafa" stroke="none"/><text x="941" y="805" text-anchor="middle" font-size="13" fill="#333" font-family="-apple-system,BlinkMacSystemFont,sans-serif">竞品的账号的获取方式？对公支付还是私账，是否容易报销？价格是多少</text><path d="M620,820 C670,820 670,880 720,880" fill="none" stroke="#6F81DB" stroke-width="2"/><rect x="720" y="865" width="221" height="30" rx="6" fill="#fafafa" stroke="none"/><text x="830.5" y="885" text-anchor="middle" font-size="13" fill="#333" font-family="-apple-system,BlinkMacSystemFont,sans-serif">竞品的知名度、潜力或者发展情况</text><path d="M941,880 C920.5,880 920.5,840 900,840" fill="none" stroke="#6F81DB" stroke-width="2"/><rect x="900" y="825" width="80" height="30" rx="6" fill="#fafafa" stroke="none"/><text x="940" y="845" text-anchor="middle" font-size="13" fill="#333" font-family="-apple-system,BlinkMacSystemFont,sans-serif">蒸蒸日上</text><path d="M941,880 C920.5,880 920.5,880 900,880" fill="none" stroke="#6F81DB" stroke-width="2"/><rect x="900" y="865" width="130" height="30" rx="6" fill="#fafafa" stroke="none"/><text x="965" y="885" text-anchor="middle" font-size="13" fill="#333" font-family="-apple-system,BlinkMacSystemFont,sans-serif">还是快要倒闭了？</text><path d="M941,880 C920.5,880 920.5,920 900,920" fill="none" stroke="#6F81DB" stroke-width="2"/><rect x="900" y="905" width="273" height="30" rx="6" fill="#fafafa" stroke="none"/><text x="1036.5" y="925" text-anchor="middle" font-size="13" fill="#333" font-family="-apple-system,BlinkMacSystemFont,sans-serif">可以收集一些最近的融资情况和公开新闻等</text><path d="M620,820 C670,820 670,960 720,960" fill="none" stroke="#6F81DB" stroke-width="2"/><rect x="720" y="945" width="104" height="30" rx="6" fill="#fafafa" stroke="none"/><text x="772" y="965" text-anchor="middle" font-size="13" fill="#333" font-family="-apple-system,BlinkMacSystemFont,sans-serif">是否直接竞品</text><path d="M336,440 C348,440 348,1140 360,1140" fill="none" stroke="#6F81DB" stroke-width="2"/><rect x="360" y="1125" width="364.52" height="30" rx="6" fill="#fafafa" stroke="none"/><text x="542.26" y="1145" text-anchor="middle" font-size="13" fill="#333" font-family="-apple-system,BlinkMacSystemFont,sans-serif">5.调研市场机会，是否要做新产品或者新产品如何错位竞争</text><path d="M724.52,1140 C632.26,1140 632.26,1000 540,1000" fill="none" stroke="#6F81DB" stroke-width="2"/><rect x="540" y="985" width="84.75999999999999" height="30" rx="6" fill="#fafafa" stroke="none"/><text x="582.38" y="1005" text-anchor="middle" font-size="13" fill="#333" font-family="-apple-system,BlinkMacSystemFont,sans-serif">目标/目的</text><path d="M624.76,1000 C672.38,1000 672.38,1000 720,1000" fill="none" stroke="#6F81DB" stroke-width="2"/><rect x="720" y="985" width="403" height="30" rx="6" fill="#fafafa" stroke="none"/><text x="921.5" y="1005" text-anchor="middle" font-size="13" fill="#333" font-family="-apple-system,BlinkMacSystemFont,sans-serif">研究市面上的成熟产品，判断是否有创业机会或者开拓新的产品线</text><path d="M724.52,1140 C632.26,1140 632.26,1060 540,1060" fill="none" stroke="#6F81DB" stroke-width="2"/><rect x="540" y="1045" width="104" height="30" rx="6" fill="#fafafa" stroke="none"/><text x="592" y="1065" text-anchor="middle" font-size="13" fill="#333" font-family="-apple-system,BlinkMacSystemFont,sans-serif">需要做的频率</text><path d="M644,1060 C682,1060 682,1040 720,1040" fill="none" stroke="#6F81DB" stroke-width="2"/><rect x="720" y="1025" width="80" height="30" rx="6" fill="#fafafa" stroke="none"/><text x="760" y="1045" text-anchor="middle" font-size="13" fill="#333" font-family="-apple-system,BlinkMacSystemFont,sans-serif">非常低</text><path d="M644,1060 C682,1060 682,1080 720,1080" fill="none" stroke="#6F81DB" stroke-width="2"/><rect x="720" y="1065" width="416" height="30" rx="6" fill="#fafafa" stroke="none"/><text x="928" y="1085" text-anchor="middle" font-size="13" fill="#333" font-family="-apple-system,BlinkMacSystemFont,sans-serif">一般只有项目刚成立的时候做，而且是项目负责人或者发起人做的多</text><path d="M724.52,1140 C632.26,1140 632.26,1180 540,1180" fill="none" stroke="#6F81DB" stroke-width="2"/><rect x="540" y="1165" width="80" height="30" rx="6" fill="#fafafa" stroke="none"/><text x="580" y="1185" text-anchor="middle" font-size="13" fill="#333" font-family="-apple-system,BlinkMacSystemFont,sans-serif">关注重点</text><path d="M620,1180 C670,1180 670,1120 720,1120" fill="none" stroke="#6F81DB" stroke-width="2"/><rect x="720" y="1105" width="442" height="30" rx="6" fill="#fafafa" stroke="none"/><text x="941" y="1125" text-anchor="middle" font-size="13" fill="#333" font-family="-apple-system,BlinkMacSystemFont,sans-serif">竞品的宣传方式，切入市场的方式，切中哪些用户群体？什么运营模式？</text><path d="M620,1180 C670,1180 670,1160 720,1160" fill="none" stroke="#6F81DB" stroke-width="2"/><rect x="720" y="1145" width="247" height="30" rx="6" fill="#fafafa" stroke="none"/><text x="843.5" y="1165" text-anchor="middle" font-size="13" fill="#333" font-family="-apple-system,BlinkMacSystemFont,sans-serif">竞品定价，产品定位和宏观规划的方向</text><path d="M620,1180 C670,1180 670,1200 720,1200" fill="none" stroke="#6F81DB" stroke-width="2"/><rect x="720" y="1185" width="273" height="30" rx="6" fill="#fafafa" stroke="none"/><text x="856.5" y="1205" text-anchor="middle" font-size="13" fill="#333" font-family="-apple-system,BlinkMacSystemFont,sans-serif">当前的用户数，投融资情况，产品发展历程</text><path d="M620,1180 C670,1180 670,1240 720,1240" fill="none" stroke="#6F81DB" stroke-width="2"/><rect x="720" y="1225" width="221" height="30" rx="6" fill="#fafafa" stroke="none"/><text x="830.5" y="1245" text-anchor="middle" font-size="13" fill="#333" font-family="-apple-system,BlinkMacSystemFont,sans-serif">盈利情况，增长情况，市场占有量</text><path d="M724.52,1140 C632.26,1140 632.26,1280 540,1280" fill="none" stroke="#6F81DB" stroke-width="2"/><rect x="540" y="1265" width="158.08" height="30" rx="6" fill="#fafafa" stroke="none"/><text x="619.04" y="1285" text-anchor="middle" font-size="13" fill="#333" font-family="-apple-system,BlinkMacSystemFont,sans-serif">参考“易芽跨境.xmind”</text>
</svg>