<svg xmlns="http://www.w3.org/2000/svg" xmlns:xlink="http://www.w3.org/1999/xlink"
  viewBox="-136 -759 896.76 1518" width="896.76" height="1518"
  style="background:#fff; font-family:-apple-system,BlinkMacSystemFont,'Segoe UI',Roboto,sans-serif;">
<defs></defs>
<rect x="-136" y="-759" width="896.76" height="1518" fill="#fff"/>
<rect x="-52" y="-18" width="104" height="36" rx="8" fill="#EFF0F0" stroke="none"/><text x="0" y="6" text-anchor="middle" font-size="16" font-weight="bold" fill="#333" font-family="-apple-system,BlinkMacSystemFont,sans-serif">基础资料</text><path d="M52,0 C142,0 142,-500 232,-500" fill="none" stroke="#A287E1" stroke-width="2"/><rect x="180" y="-515" width="80" height="30" rx="6" fill="#fafafa" stroke="none"/><text x="220" y="-495" text-anchor="middle" font-size="13" fill="#333" font-family="-apple-system,BlinkMacSystemFont,sans-serif">商品资料</text><path d="M260,-500 C310,-500 310,-540 360,-540" fill="none" stroke="#A287E1" stroke-width="2"/><rect x="360" y="-555" width="80" height="30" rx="6" fill="#fafafa" stroke="none"/><text x="400" y="-535" text-anchor="middle" font-size="13" fill="#333" font-family="-apple-system,BlinkMacSystemFont,sans-serif">商品信息</text><path d="M440,-540 C490,-540 490,-660 540,-660" fill="none" stroke="#A287E1" stroke-width="2"/><rect x="540" y="-675" width="80" height="30" rx="6" fill="#fafafa" stroke="none"/><text x="580" y="-655" text-anchor="middle" font-size="13" fill="#333" font-family="-apple-system,BlinkMacSystemFont,sans-serif">基本信息</text><path d="M440,-540 C490,-540 490,-620 540,-620" fill="none" stroke="#A287E1" stroke-width="2"/><rect x="540" y="-635" width="80" height="30" rx="6" fill="#fafafa" stroke="none"/><text x="580" y="-615" text-anchor="middle" font-size="13" fill="#333" font-family="-apple-system,BlinkMacSystemFont,sans-serif">商品特性</text><path d="M440,-540 C490,-540 490,-580 540,-580" fill="none" stroke="#A287E1" stroke-width="2"/><rect x="540" y="-595" width="80" height="30" rx="6" fill="#fafafa" stroke="none"/><text x="580" y="-575" text-anchor="middle" font-size="13" fill="#333" font-family="-apple-system,BlinkMacSystemFont,sans-serif">商品条码</text><path d="M440,-540 C490,-540 490,-540 540,-540" fill="none" stroke="#A287E1" stroke-width="2"/><rect x="540" y="-555" width="80" height="30" rx="6" fill="#fafafa" stroke="none"/><text x="580" y="-535" text-anchor="middle" font-size="13" fill="#333" font-family="-apple-system,BlinkMacSystemFont,sans-serif">价格设置</text><path d="M440,-540 C490,-540 490,-500 540,-500" fill="none" stroke="#A287E1" stroke-width="2"/><rect x="540" y="-515" width="80" height="30" rx="6" fill="#fafafa" stroke="none"/><text x="580" y="-495" text-anchor="middle" font-size="13" fill="#333" font-family="-apple-system,BlinkMacSystemFont,sans-serif">库存预警</text><path d="M440,-540 C490,-540 490,-460 540,-460" fill="none" stroke="#A287E1" stroke-width="2"/><rect x="540" y="-475" width="80" height="30" rx="6" fill="#fafafa" stroke="none"/><text x="580" y="-455" text-anchor="middle" font-size="13" fill="#333" font-family="-apple-system,BlinkMacSystemFont,sans-serif">财务信息</text><path d="M440,-540 C490,-540 490,-420 540,-420" fill="none" stroke="#A287E1" stroke-width="2"/><rect x="540" y="-435" width="80" height="30" rx="6" fill="#fafafa" stroke="none"/><text x="580" y="-415" text-anchor="middle" font-size="13" fill="#333" font-family="-apple-system,BlinkMacSystemFont,sans-serif">其他信息</text><path d="M260,-500 C310,-500 310,-380 360,-380" fill="none" stroke="#A287E1" stroke-width="2"/><rect x="360" y="-395" width="80" height="30" rx="6" fill="#fafafa" stroke="none"/><text x="400" y="-375" text-anchor="middle" font-size="13" fill="#333" font-family="-apple-system,BlinkMacSystemFont,sans-serif">计量单位</text><path d="M260,-500 C310,-500 310,-340 360,-340" fill="none" stroke="#A287E1" stroke-width="2"/><rect x="360" y="-355" width="80" height="30" rx="6" fill="#fafafa" stroke="none"/><text x="400" y="-335" text-anchor="middle" font-size="13" fill="#333" font-family="-apple-system,BlinkMacSystemFont,sans-serif">辅助属性</text><path d="M52,0 C142,0 142,-60 232,-60" fill="none" stroke="#DFB85D" stroke-width="2"/><rect x="180" y="-75" width="80" height="30" rx="6" fill="#fafafa" stroke="none"/><text x="220" y="-55" text-anchor="middle" font-size="13" fill="#333" font-family="-apple-system,BlinkMacSystemFont,sans-serif">价格设置</text><path d="M260,-60 C310,-60 310,-300 360,-300" fill="none" stroke="#DFB85D" stroke-width="2"/><rect x="360" y="-315" width="104" height="30" rx="6" fill="#fafafa" stroke="none"/><text x="412" y="-295" text-anchor="middle" font-size="13" fill="#333" font-family="-apple-system,BlinkMacSystemFont,sans-serif">商品价格资料</text><path d="M260,-60 C310,-60 310,-120 360,-120" fill="none" stroke="#DFB85D" stroke-width="2"/><rect x="360" y="-135" width="104" height="30" rx="6" fill="#fafafa" stroke="none"/><text x="412" y="-115" text-anchor="middle" font-size="13" fill="#333" font-family="-apple-system,BlinkMacSystemFont,sans-serif">客户价格资料</text><path d="M464,-120 C502,-120 502,-260 540,-260" fill="none" stroke="#DFB85D" stroke-width="2"/><rect x="540" y="-275" width="110.75999999999999" height="30" rx="6" fill="#fafafa" stroke="none"/><text x="595.38" y="-255" text-anchor="middle" font-size="13" fill="#333" font-family="-apple-system,BlinkMacSystemFont,sans-serif">客户分类+商品</text><path d="M464,-120 C502,-120 502,-220 540,-220" fill="none" stroke="#DFB85D" stroke-width="2"/><rect x="540" y="-235" width="136.76" height="30" rx="6" fill="#fafafa" stroke="none"/><text x="608.38" y="-215" text-anchor="middle" font-size="13" fill="#333" font-family="-apple-system,BlinkMacSystemFont,sans-serif">客户分类+商品类别</text><path d="M464,-120 C502,-120 502,-180 540,-180" fill="none" stroke="#DFB85D" stroke-width="2"/><rect x="540" y="-195" width="136.76" height="30" rx="6" fill="#fafafa" stroke="none"/><text x="608.38" y="-175" text-anchor="middle" font-size="13" fill="#333" font-family="-apple-system,BlinkMacSystemFont,sans-serif">客户分类+商品品牌</text><path d="M464,-120 C502,-120 502,-140 540,-140" fill="none" stroke="#DFB85D" stroke-width="2"/><rect x="540" y="-155" width="84.75999999999999" height="30" rx="6" fill="#fafafa" stroke="none"/><text x="582.38" y="-135" text-anchor="middle" font-size="13" fill="#333" font-family="-apple-system,BlinkMacSystemFont,sans-serif">客户+商品</text><path d="M464,-120 C502,-120 502,-100 540,-100" fill="none" stroke="#DFB85D" stroke-width="2"/><rect x="540" y="-115" width="84.75999999999999" height="30" rx="6" fill="#fafafa" stroke="none"/><text x="582.38" y="-95" text-anchor="middle" font-size="13" fill="#333" font-family="-apple-system,BlinkMacSystemFont,sans-serif">商品+客户</text><path d="M464,-120 C502,-120 502,-60 540,-60" fill="none" stroke="#DFB85D" stroke-width="2"/><rect x="540" y="-75" width="110.75999999999999" height="30" rx="6" fill="#fafafa" stroke="none"/><text x="595.38" y="-55" text-anchor="middle" font-size="13" fill="#333" font-family="-apple-system,BlinkMacSystemFont,sans-serif">客户+商品类别</text><path d="M464,-120 C502,-120 502,-20 540,-20" fill="none" stroke="#DFB85D" stroke-width="2"/><rect x="540" y="-35" width="110.75999999999999" height="30" rx="6" fill="#fafafa" stroke="none"/><text x="595.38" y="-15" text-anchor="middle" font-size="13" fill="#333" font-family="-apple-system,BlinkMacSystemFont,sans-serif">客户+商品品牌</text><path d="M464,-120 C502,-120 502,20 540,20" fill="none" stroke="#DFB85D" stroke-width="2"/><rect x="540" y="5" width="136.76" height="30" rx="6" fill="#fafafa" stroke="none"/><text x="608.38" y="25" text-anchor="middle" font-size="13" fill="#333" font-family="-apple-system,BlinkMacSystemFont,sans-serif">客户价格等级+商品</text><path d="M260,-60 C310,-60 310,120 360,120" fill="none" stroke="#DFB85D" stroke-width="2"/><rect x="360" y="105" width="117" height="30" rx="6" fill="#fafafa" stroke="none"/><text x="418.5" y="125" text-anchor="middle" font-size="13" fill="#333" font-family="-apple-system,BlinkMacSystemFont,sans-serif">供应商价格资料</text><path d="M477,120 C508.5,120 508.5,60 540,60" fill="none" stroke="#DFB85D" stroke-width="2"/><rect x="540" y="45" width="97.75999999999999" height="30" rx="6" fill="#fafafa" stroke="none"/><text x="588.88" y="65" text-anchor="middle" font-size="13" fill="#333" font-family="-apple-system,BlinkMacSystemFont,sans-serif">供应商+商品</text><path d="M477,120 C508.5,120 508.5,100 540,100" fill="none" stroke="#DFB85D" stroke-width="2"/><rect x="540" y="85" width="97.75999999999999" height="30" rx="6" fill="#fafafa" stroke="none"/><text x="588.88" y="105" text-anchor="middle" font-size="13" fill="#333" font-family="-apple-system,BlinkMacSystemFont,sans-serif">商品+供应商</text><path d="M477,120 C508.5,120 508.5,140 540,140" fill="none" stroke="#DFB85D" stroke-width="2"/><rect x="540" y="125" width="123.75999999999999" height="30" rx="6" fill="#fafafa" stroke="none"/><text x="601.88" y="145" text-anchor="middle" font-size="13" fill="#333" font-family="-apple-system,BlinkMacSystemFont,sans-serif">供应商+商品类别</text><path d="M477,120 C508.5,120 508.5,180 540,180" fill="none" stroke="#DFB85D" stroke-width="2"/><rect x="540" y="165" width="123.75999999999999" height="30" rx="6" fill="#fafafa" stroke="none"/><text x="601.88" y="185" text-anchor="middle" font-size="13" fill="#333" font-family="-apple-system,BlinkMacSystemFont,sans-serif">供应商+商品品牌</text><path d="M52,0 C142,0 142,440 232,440" fill="none" stroke="#77C386" stroke-width="2"/><rect x="180" y="425" width="80" height="30" rx="6" fill="#fafafa" stroke="none"/><text x="220" y="445" text-anchor="middle" font-size="13" fill="#333" font-family="-apple-system,BlinkMacSystemFont,sans-serif">业务资料</text><path d="M260,440 C310,440 310,260 360,260" fill="none" stroke="#77C386" stroke-width="2"/><rect x="360" y="245" width="80" height="30" rx="6" fill="#fafafa" stroke="none"/><text x="400" y="265" text-anchor="middle" font-size="13" fill="#333" font-family="-apple-system,BlinkMacSystemFont,sans-serif">客户</text><path d="M440,260 C490,260 490,220 540,220" fill="none" stroke="#77C386" stroke-width="2"/><rect x="540" y="205" width="80" height="30" rx="6" fill="#EFF0F0" stroke="none"/><text x="580" y="225" text-anchor="middle" font-size="13" fill="#333" font-family="-apple-system,BlinkMacSystemFont,sans-serif">基本信息</text><path d="M440,260 C490,260 490,260 540,260" fill="none" stroke="#77C386" stroke-width="2"/><rect x="540" y="245" width="80" height="30" rx="6" fill="#EFF0F0" stroke="none"/><text x="580" y="265" text-anchor="middle" font-size="13" fill="#333" font-family="-apple-system,BlinkMacSystemFont,sans-serif">财务信息</text><path d="M440,260 C490,260 490,300 540,300" fill="none" stroke="#77C386" stroke-width="2"/><rect x="540" y="285" width="80" height="30" rx="6" fill="#EFF0F0" stroke="none"/><text x="580" y="305" text-anchor="middle" font-size="13" fill="#333" font-family="-apple-system,BlinkMacSystemFont,sans-serif">联系人</text><path d="M260,440 C310,440 310,380 360,380" fill="none" stroke="#77C386" stroke-width="2"/><rect x="360" y="365" width="80" height="30" rx="6" fill="#fafafa" stroke="none"/><text x="400" y="385" text-anchor="middle" font-size="13" fill="#333" font-family="-apple-system,BlinkMacSystemFont,sans-serif">供应商</text><path d="M440,380 C490,380 490,340 540,340" fill="none" stroke="#77C386" stroke-width="2"/><rect x="540" y="325" width="80" height="30" rx="6" fill="#EFF0F0" stroke="none"/><text x="580" y="345" text-anchor="middle" font-size="13" fill="#333" font-family="-apple-system,BlinkMacSystemFont,sans-serif">基本信息</text><path d="M440,380 C490,380 490,380 540,380" fill="none" stroke="#77C386" stroke-width="2"/><rect x="540" y="365" width="80" height="30" rx="6" fill="#EFF0F0" stroke="none"/><text x="580" y="385" text-anchor="middle" font-size="13" fill="#333" font-family="-apple-system,BlinkMacSystemFont,sans-serif">财务信息</text><path d="M440,380 C490,380 490,420 540,420" fill="none" stroke="#77C386" stroke-width="2"/><rect x="540" y="405" width="80" height="30" rx="6" fill="#EFF0F0" stroke="none"/><text x="580" y="425" text-anchor="middle" font-size="13" fill="#333" font-family="-apple-system,BlinkMacSystemFont,sans-serif">联系人</text><path d="M260,440 C310,440 310,480 360,480" fill="none" stroke="#77C386" stroke-width="2"/><rect x="360" y="465" width="80" height="30" rx="6" fill="#fafafa" stroke="none"/><text x="400" y="485" text-anchor="middle" font-size="13" fill="#333" font-family="-apple-system,BlinkMacSystemFont,sans-serif">仓库</text><path d="M440,480 C490,480 490,460 540,460" fill="none" stroke="#77C386" stroke-width="2"/><rect x="540" y="445" width="80" height="30" rx="6" fill="#EFF0F0" stroke="none"/><text x="580" y="465" text-anchor="middle" font-size="13" fill="#333" font-family="-apple-system,BlinkMacSystemFont,sans-serif">基本信息</text><path d="M440,480 C490,480 490,500 540,500" fill="none" stroke="#77C386" stroke-width="2"/><rect x="540" y="485" width="80" height="30" rx="6" fill="#fafafa" stroke="none"/><text x="580" y="505" text-anchor="middle" font-size="13" fill="#333" font-family="-apple-system,BlinkMacSystemFont,sans-serif">仓位</text><path d="M260,440 C310,440 310,580 360,580" fill="none" stroke="#77C386" stroke-width="2"/><rect x="360" y="565" width="80" height="30" rx="6" fill="#fafafa" stroke="none"/><text x="400" y="585" text-anchor="middle" font-size="13" fill="#333" font-family="-apple-system,BlinkMacSystemFont,sans-serif">物流公司</text><path d="M440,580 C490,580 490,540 540,540" fill="none" stroke="#77C386" stroke-width="2"/><rect x="540" y="525" width="80" height="30" rx="6" fill="#fafafa" stroke="none"/><text x="580" y="545" text-anchor="middle" font-size="13" fill="#333" font-family="-apple-system,BlinkMacSystemFont,sans-serif">编码</text><path d="M440,580 C490,580 490,580 540,580" fill="none" stroke="#77C386" stroke-width="2"/><rect x="540" y="565" width="80" height="30" rx="6" fill="#fafafa" stroke="none"/><text x="580" y="585" text-anchor="middle" font-size="13" fill="#333" font-family="-apple-system,BlinkMacSystemFont,sans-serif">名称</text><path d="M440,580 C490,580 490,620 540,620" fill="none" stroke="#77C386" stroke-width="2"/><rect x="540" y="605" width="80" height="30" rx="6" fill="#fafafa" stroke="none"/><text x="580" y="625" text-anchor="middle" font-size="13" fill="#333" font-family="-apple-system,BlinkMacSystemFont,sans-serif">地址信息</text><path d="M260,440 C310,440 310,660 360,660" fill="none" stroke="#77C386" stroke-width="2"/><rect x="360" y="645" width="80" height="30" rx="6" fill="#fafafa" stroke="none"/><text x="400" y="665" text-anchor="middle" font-size="13" fill="#333" font-family="-apple-system,BlinkMacSystemFont,sans-serif">辅助资料</text><path d="M440,660 C490,660 490,660 540,660" fill="none" stroke="#77C386" stroke-width="2"/><rect x="540" y="645" width="80" height="30" rx="6" fill="#fafafa" stroke="none"/><text x="580" y="665" text-anchor="middle" font-size="13" fill="#333" font-family="-apple-system,BlinkMacSystemFont,sans-serif">数据字典</text>
</svg>