<svg xmlns="http://www.w3.org/2000/svg" xmlns:xlink="http://www.w3.org/1999/xlink"
  viewBox="-192 -1282 1475 2461" width="1475" height="2461"
  style="background:#fff; font-family:-apple-system,BlinkMacSystemFont,'Segoe UI',Roboto,sans-serif;">
<defs></defs>
<rect x="-192" y="-1282" width="1475" height="2461" fill="#fff"/>
<rect x="-108" y="-18" width="216" height="36" rx="8" fill="#EFF0F0" stroke="none"/><text x="0" y="6" text-anchor="middle" font-size="16" font-weight="bold" fill="#333" font-family="-apple-system,BlinkMacSystemFont,sans-serif">海管家产品主要功能清单</text><path d="M108,0 C198,0 198,-280 288,-280" fill="none" stroke="#77C386" stroke-width="2"/><rect x="180" y="-295" width="80" height="30" rx="6" fill="#fafafa" stroke="none"/><text x="220" y="-275" text-anchor="middle" font-size="13" fill="#333" font-family="-apple-system,BlinkMacSystemFont,sans-serif">管理端</text><path d="M260,-280 C310,-280 310,-760 360,-760" fill="none" stroke="#77C386" stroke-width="2"/><rect x="360" y="-775" width="117" height="30" rx="6" fill="#fafafa" stroke="none"/><text x="418.5" y="-755" text-anchor="middle" font-size="13" fill="#333" font-family="-apple-system,BlinkMacSystemFont,sans-serif">基础数据的维护</text><path d="M477,-760 C508.5,-760 508.5,-1060 540,-1060" fill="none" stroke="#A287E1" stroke-width="2"/><rect x="540" y="-1075" width="80" height="30" rx="6" fill="#fafafa" stroke="none"/><text x="580" y="-1055" text-anchor="middle" font-size="13" fill="#333" font-family="-apple-system,BlinkMacSystemFont,sans-serif">员工权限</text><path d="M620,-1060 C670,-1060 670,-1080 720,-1080" fill="none" stroke="#A287E1" stroke-width="2"/><rect x="720" y="-1095" width="195" height="30" rx="6" fill="#fafafa" stroke="none"/><text x="817.5" y="-1075" text-anchor="middle" font-size="13" fill="#333" font-family="-apple-system,BlinkMacSystemFont,sans-serif">一开始可以用管理员账号体验</text><path d="M620,-1060 C670,-1060 670,-1040 720,-1040" fill="none" stroke="#A287E1" stroke-width="2"/><rect x="720" y="-1055" width="352.03999999999996" height="30" rx="6" fill="#fafafa" stroke="none"/><text x="896.02" y="-1035" text-anchor="middle" font-size="13" fill="#333" font-family="-apple-system,BlinkMacSystemFont,sans-serif">可以借鉴学习别人的RBAC是怎么设计的，养成业务敏感度</text><path d="M477,-760 C508.5,-760 508.5,-860 540,-860" fill="none" stroke="#A287E1" stroke-width="2"/><rect x="540" y="-875" width="143.51999999999998" height="30" rx="6" fill="#fafafa" stroke="none"/><text x="611.76" y="-855" text-anchor="middle" font-size="13" fill="#333" font-family="-apple-system,BlinkMacSystemFont,sans-serif">基础设置-&gt;业务设置</text><path d="M683.52,-860 C701.76,-860 701.76,-1000 720,-1000" fill="none" stroke="#A287E1" stroke-width="2"/><rect x="720" y="-1015" width="80" height="30" rx="6" fill="#fafafa" stroke="none"/><text x="760" y="-995" text-anchor="middle" font-size="13" fill="#333" font-family="-apple-system,BlinkMacSystemFont,sans-serif">收货仓库</text><path d="M683.52,-860 C701.76,-860 701.76,-960 720,-960" fill="none" stroke="#A287E1" stroke-width="2"/><rect x="720" y="-975" width="80" height="30" rx="6" fill="#fafafa" stroke="none"/><text x="760" y="-955" text-anchor="middle" font-size="13" fill="#333" font-family="-apple-system,BlinkMacSystemFont,sans-serif">目的地</text><path d="M683.52,-860 C701.76,-860 701.76,-920 720,-920" fill="none" stroke="#A287E1" stroke-width="2"/><rect x="720" y="-935" width="80" height="30" rx="6" fill="#fafafa" stroke="none"/><text x="760" y="-915" text-anchor="middle" font-size="13" fill="#333" font-family="-apple-system,BlinkMacSystemFont,sans-serif">货物类型</text><path d="M683.52,-860 C701.76,-860 701.76,-880 720,-880" fill="none" stroke="#A287E1" stroke-width="2"/><rect x="720" y="-895" width="80" height="30" rx="6" fill="#fafafa" stroke="none"/><text x="760" y="-875" text-anchor="middle" font-size="13" fill="#333" font-family="-apple-system,BlinkMacSystemFont,sans-serif">增值服务</text><path d="M683.52,-860 C701.76,-860 701.76,-840 720,-840" fill="none" stroke="#A287E1" stroke-width="2"/><rect x="720" y="-855" width="80" height="30" rx="6" fill="#fafafa" stroke="none"/><text x="760" y="-835" text-anchor="middle" font-size="13" fill="#333" font-family="-apple-system,BlinkMacSystemFont,sans-serif">地址类型</text><path d="M683.52,-860 C701.76,-860 701.76,-800 720,-800" fill="none" stroke="#A287E1" stroke-width="2"/><rect x="720" y="-815" width="80" height="30" rx="6" fill="#fafafa" stroke="none"/><text x="760" y="-795" text-anchor="middle" font-size="13" fill="#333" font-family="-apple-system,BlinkMacSystemFont,sans-serif">路由模板</text><path d="M683.52,-860 C701.76,-860 701.76,-760 720,-760" fill="none" stroke="#A287E1" stroke-width="2"/><rect x="720" y="-775" width="80" height="30" rx="6" fill="#fafafa" stroke="none"/><text x="760" y="-755" text-anchor="middle" font-size="13" fill="#333" font-family="-apple-system,BlinkMacSystemFont,sans-serif">订单设置</text><path d="M683.52,-860 C701.76,-860 701.76,-720 720,-720" fill="none" stroke="#A287E1" stroke-width="2"/><rect x="720" y="-735" width="234" height="30" rx="6" fill="transparent" stroke="#BFBFBF"/><text x="837" y="-715" text-anchor="middle" font-size="13" fill="#333" font-family="-apple-system,BlinkMacSystemFont,sans-serif">在体验的时候，需要用到的时候创建</text><path d="M477,-760 C508.5,-760 508.5,-580 540,-580" fill="none" stroke="#A287E1" stroke-width="2"/><rect x="540" y="-595" width="143.51999999999998" height="30" rx="6" fill="#fafafa" stroke="none"/><text x="611.76" y="-575" text-anchor="middle" font-size="13" fill="#333" font-family="-apple-system,BlinkMacSystemFont,sans-serif">基础设置-&gt;财务设置</text><path d="M683.52,-580 C701.76,-580 701.76,-680 720,-680" fill="none" stroke="#A287E1" stroke-width="2"/><rect x="720" y="-695" width="80" height="30" rx="6" fill="#fafafa" stroke="none"/><text x="760" y="-675" text-anchor="middle" font-size="13" fill="#333" font-family="-apple-system,BlinkMacSystemFont,sans-serif">收款账户</text><path d="M683.52,-580 C701.76,-580 701.76,-640 720,-640" fill="none" stroke="#A287E1" stroke-width="2"/><rect x="720" y="-655" width="80" height="30" rx="6" fill="#fafafa" stroke="none"/><text x="760" y="-635" text-anchor="middle" font-size="13" fill="#333" font-family="-apple-system,BlinkMacSystemFont,sans-serif">汇率币别</text><path d="M683.52,-580 C701.76,-580 701.76,-600 720,-600" fill="none" stroke="#A287E1" stroke-width="2"/><rect x="720" y="-615" width="80" height="30" rx="6" fill="#fafafa" stroke="none"/><text x="760" y="-595" text-anchor="middle" font-size="13" fill="#333" font-family="-apple-system,BlinkMacSystemFont,sans-serif">费用类目</text><path d="M683.52,-580 C701.76,-580 701.76,-560 720,-560" fill="none" stroke="#A287E1" stroke-width="2"/><rect x="720" y="-575" width="80" height="30" rx="6" fill="#fafafa" stroke="none"/><text x="760" y="-555" text-anchor="middle" font-size="13" fill="#333" font-family="-apple-system,BlinkMacSystemFont,sans-serif">充值项</text><path d="M683.52,-580 C701.76,-580 701.76,-520 720,-520" fill="none" stroke="#A287E1" stroke-width="2"/><rect x="720" y="-535" width="80" height="30" rx="6" fill="#fafafa" stroke="none"/><text x="760" y="-515" text-anchor="middle" font-size="13" fill="#333" font-family="-apple-system,BlinkMacSystemFont,sans-serif">结算方式</text><path d="M683.52,-580 C701.76,-580 701.76,-480 720,-480" fill="none" stroke="#A287E1" stroke-width="2"/><rect x="720" y="-495" width="234" height="30" rx="6" fill="transparent" stroke="#BFBFBF"/><text x="837" y="-475" text-anchor="middle" font-size="13" fill="#333" font-family="-apple-system,BlinkMacSystemFont,sans-serif">在体验的时候，需要用到的时候创建</text><path d="M477,-760 C508.5,-760 508.5,-440 540,-440" fill="none" stroke="#A287E1" stroke-width="2"/><rect x="540" y="-455" width="143.51999999999998" height="30" rx="6" fill="#fafafa" stroke="none"/><text x="611.76" y="-435" text-anchor="middle" font-size="13" fill="#333" font-family="-apple-system,BlinkMacSystemFont,sans-serif">基础设置-&gt;商品管理</text><path d="M683.52,-440 C701.76,-440 701.76,-440 720,-440" fill="none" stroke="#A287E1" stroke-width="2"/><rect x="720" y="-455" width="80" height="30" rx="6" fill="#fafafa" stroke="none"/><text x="760" y="-435" text-anchor="middle" font-size="13" fill="#333" font-family="-apple-system,BlinkMacSystemFont,sans-serif">商品管理</text><path d="M800,-440 C850,-440 850,-440 900,-440" fill="none" stroke="#A287E1" stroke-width="2"/><rect x="900" y="-455" width="299" height="30" rx="6" fill="#fafafa" stroke="none"/><text x="1049.5" y="-435" text-anchor="middle" font-size="13" fill="#333" font-family="-apple-system,BlinkMacSystemFont,sans-serif">提前维护好一两个，这个是核心高频的基础数据</text><path d="M260,-280 C310,-280 310,-200 360,-200" fill="none" stroke="#77C386" stroke-width="2"/><rect x="360" y="-215" width="143" height="30" rx="6" fill="#fafafa" stroke="none"/><text x="431.5" y="-195" text-anchor="middle" font-size="13" fill="#333" font-family="-apple-system,BlinkMacSystemFont,sans-serif">其他的业务数据维护</text><path d="M503,-200 C521.5,-200 521.5,-400 540,-400" fill="none" stroke="#E48484" stroke-width="2"/><rect x="540" y="-415" width="80" height="30" rx="6" fill="#fafafa" stroke="none"/><text x="580" y="-395" text-anchor="middle" font-size="13" fill="#333" font-family="-apple-system,BlinkMacSystemFont,sans-serif">客户管理</text><path d="M620,-400 C670,-400 670,-400 720,-400" fill="none" stroke="#6F81DB" stroke-width="2"/><rect x="720" y="-415" width="80" height="30" rx="6" fill="#fafafa" stroke="none"/><text x="760" y="-395" text-anchor="middle" font-size="13" fill="#333" font-family="-apple-system,BlinkMacSystemFont,sans-serif">客户管理</text><path d="M800,-400 C850,-400 850,-400 900,-400" fill="none" stroke="#6F81DB" stroke-width="2"/><rect x="900" y="-415" width="117" height="30" rx="6" fill="#fafafa" stroke="none"/><text x="958.5" y="-395" text-anchor="middle" font-size="13" fill="#333" font-family="-apple-system,BlinkMacSystemFont,sans-serif">提前维护好客户</text><path d="M503,-200 C521.5,-200 521.5,-360 540,-360" fill="none" stroke="#E48484" stroke-width="2"/><rect x="540" y="-375" width="91" height="30" rx="6" fill="#fafafa" stroke="none"/><text x="585.5" y="-355" text-anchor="middle" font-size="13" fill="#333" font-family="-apple-system,BlinkMacSystemFont,sans-serif">供应商管理</text><path d="M631,-360 C675.5,-360 675.5,-360 720,-360" fill="none" stroke="#DFB85D" stroke-width="2"/><rect x="720" y="-375" width="91" height="30" rx="6" fill="#fafafa" stroke="none"/><text x="765.5" y="-355" text-anchor="middle" font-size="13" fill="#333" font-family="-apple-system,BlinkMacSystemFont,sans-serif">供应商管理</text><path d="M811,-360 C855.5,-360 855.5,-360 900,-360" fill="none" stroke="#DFB85D" stroke-width="2"/><rect x="900" y="-375" width="130" height="30" rx="6" fill="#fafafa" stroke="none"/><text x="965" y="-355" text-anchor="middle" font-size="13" fill="#333" font-family="-apple-system,BlinkMacSystemFont,sans-serif">提前维护好供应商</text><path d="M503,-200 C521.5,-200 521.5,-220 540,-220" fill="none" stroke="#E48484" stroke-width="2"/><rect x="540" y="-235" width="80" height="30" rx="6" fill="#fafafa" stroke="none"/><text x="580" y="-215" text-anchor="middle" font-size="13" fill="#333" font-family="-apple-system,BlinkMacSystemFont,sans-serif">收货渠道</text><path d="M620,-220 C670,-220 670,-320 720,-320" fill="none" stroke="#6EC4C4" stroke-width="2"/><rect x="720" y="-335" width="80" height="30" rx="6" fill="#fafafa" stroke="none"/><text x="760" y="-315" text-anchor="middle" font-size="13" fill="#333" font-family="-apple-system,BlinkMacSystemFont,sans-serif">渠道管理</text><path d="M620,-220 C670,-220 670,-280 720,-280" fill="none" stroke="#6EC4C4" stroke-width="2"/><rect x="720" y="-295" width="80" height="30" rx="6" fill="#fafafa" stroke="none"/><text x="760" y="-275" text-anchor="middle" font-size="13" fill="#333" font-family="-apple-system,BlinkMacSystemFont,sans-serif">报价管理</text><path d="M620,-220 C670,-220 670,-240 720,-240" fill="none" stroke="#6EC4C4" stroke-width="2"/><rect x="720" y="-255" width="91" height="30" rx="6" fill="#fafafa" stroke="none"/><text x="765.5" y="-235" text-anchor="middle" font-size="13" fill="#333" font-family="-apple-system,BlinkMacSystemFont,sans-serif">附加费设置</text><path d="M620,-220 C670,-220 670,-200 720,-200" fill="none" stroke="#6EC4C4" stroke-width="2"/><rect x="720" y="-215" width="91" height="30" rx="6" fill="#fafafa" stroke="none"/><text x="765.5" y="-195" text-anchor="middle" font-size="13" fill="#333" font-family="-apple-system,BlinkMacSystemFont,sans-serif">报价客户组</text><path d="M620,-220 C670,-220 670,-160 720,-160" fill="none" stroke="#6EC4C4" stroke-width="2"/><rect x="720" y="-175" width="80" height="30" rx="6" fill="#fafafa" stroke="none"/><text x="760" y="-155" text-anchor="middle" font-size="13" fill="#333" font-family="-apple-system,BlinkMacSystemFont,sans-serif">偏远查询</text><path d="M620,-220 C670,-220 670,-120 720,-120" fill="none" stroke="#6EC4C4" stroke-width="2"/><rect x="720" y="-135" width="80" height="30" rx="6" fill="#fafafa" stroke="none"/><text x="760" y="-115" text-anchor="middle" font-size="13" fill="#333" font-family="-apple-system,BlinkMacSystemFont,sans-serif">试算记录</text><path d="M503,-200 C521.5,-200 521.5,-60 540,-60" fill="none" stroke="#E48484" stroke-width="2"/><rect x="540" y="-75" width="91" height="30" rx="6" fill="#fafafa" stroke="none"/><text x="585.5" y="-55" text-anchor="middle" font-size="13" fill="#333" font-family="-apple-system,BlinkMacSystemFont,sans-serif">供应商渠道</text><path d="M631,-60 C675.5,-60 675.5,-80 720,-80" fill="none" stroke="#77C386" stroke-width="2"/><rect x="720" y="-95" width="80" height="30" rx="6" fill="#fafafa" stroke="none"/><text x="760" y="-75" text-anchor="middle" font-size="13" fill="#333" font-family="-apple-system,BlinkMacSystemFont,sans-serif">渠道管理</text><path d="M631,-60 C675.5,-60 675.5,-40 720,-40" fill="none" stroke="#77C386" stroke-width="2"/><rect x="720" y="-55" width="80" height="30" rx="6" fill="#fafafa" stroke="none"/><text x="760" y="-35" text-anchor="middle" font-size="13" fill="#333" font-family="-apple-system,BlinkMacSystemFont,sans-serif">对接互联</text><path d="M503,-200 C521.5,-200 521.5,0 540,0" fill="none" stroke="#E48484" stroke-width="2"/><rect x="540" y="-15" width="80" height="30" rx="6" fill="#fafafa" stroke="none"/><text x="580" y="5" text-anchor="middle" font-size="13" fill="#333" font-family="-apple-system,BlinkMacSystemFont,sans-serif">快递打单</text><path d="M620,0 C670,0 670,0 720,0" fill="none" stroke="#E48484" stroke-width="2"/><rect x="720" y="-15" width="80" height="30" rx="6" fill="#fafafa" stroke="none"/><text x="760" y="5" text-anchor="middle" font-size="13" fill="#333" font-family="-apple-system,BlinkMacSystemFont,sans-serif">快递打单</text><path d="M260,-280 C310,-280 310,160 360,160" fill="none" stroke="#77C386" stroke-width="2"/><rect x="360" y="145" width="80" height="30" rx="6" fill="#fafafa" stroke="none"/><text x="400" y="165" text-anchor="middle" font-size="13" fill="#333" font-family="-apple-system,BlinkMacSystemFont,sans-serif">业务单据</text><path d="M440,160 C490,160 490,60 540,60" fill="none" stroke="#6EC4C4" stroke-width="2"/><rect x="540" y="45" width="84.75999999999999" height="30" rx="6" fill="#fafafa" stroke="none"/><text x="582.38" y="65" text-anchor="middle" font-size="13" fill="#333" font-family="-apple-system,BlinkMacSystemFont,sans-serif">专线/集运</text><path d="M624.76,60 C672.38,60 672.38,40 720,40" fill="none" stroke="#6EC4C4" stroke-width="2"/><rect x="720" y="25" width="80" height="30" rx="6" fill="#fafafa" stroke="none"/><text x="760" y="45" text-anchor="middle" font-size="13" fill="#333" font-family="-apple-system,BlinkMacSystemFont,sans-serif">集货订单</text><path d="M624.76,60 C672.38,60 672.38,80 720,80" fill="none" stroke="#6EC4C4" stroke-width="2"/><rect x="720" y="65" width="80" height="30" rx="6" fill="#fafafa" stroke="none"/><text x="760" y="85" text-anchor="middle" font-size="13" fill="#333" font-family="-apple-system,BlinkMacSystemFont,sans-serif">专线订单</text><path d="M440,160 C490,160 490,120 540,120" fill="none" stroke="#6EC4C4" stroke-width="2"/><rect x="540" y="105" width="80" height="30" rx="6" fill="#fafafa" stroke="none"/><text x="580" y="125" text-anchor="middle" font-size="13" fill="#333" font-family="-apple-system,BlinkMacSystemFont,sans-serif">FBA物流</text><path d="M620,120 C670,120 670,120 720,120" fill="none" stroke="#6EC4C4" stroke-width="2"/><rect x="720" y="105" width="80" height="30" rx="6" fill="#fafafa" stroke="none"/><text x="760" y="125" text-anchor="middle" font-size="13" fill="#333" font-family="-apple-system,BlinkMacSystemFont,sans-serif">FBA订单</text><path d="M440,160 C490,160 490,220 540,220" fill="none" stroke="#6EC4C4" stroke-width="2"/><rect x="540" y="205" width="91" height="30" rx="6" fill="#fafafa" stroke="none"/><text x="585.5" y="225" text-anchor="middle" font-size="13" fill="#333" font-family="-apple-system,BlinkMacSystemFont,sans-serif">运输单管理</text><path d="M631,220 C675.5,220 675.5,160 720,160" fill="none" stroke="#6EC4C4" stroke-width="2"/><rect x="720" y="145" width="80" height="30" rx="6" fill="#fafafa" stroke="none"/><text x="760" y="165" text-anchor="middle" font-size="13" fill="#333" font-family="-apple-system,BlinkMacSystemFont,sans-serif">海运头程</text><path d="M631,220 C675.5,220 675.5,200 720,200" fill="none" stroke="#6EC4C4" stroke-width="2"/><rect x="720" y="185" width="80" height="30" rx="6" fill="#fafafa" stroke="none"/><text x="760" y="205" text-anchor="middle" font-size="13" fill="#333" font-family="-apple-system,BlinkMacSystemFont,sans-serif">空运头程</text><path d="M631,220 C675.5,220 675.5,240 720,240" fill="none" stroke="#6EC4C4" stroke-width="2"/><rect x="720" y="225" width="80" height="30" rx="6" fill="#fafafa" stroke="none"/><text x="760" y="245" text-anchor="middle" font-size="13" fill="#333" font-family="-apple-system,BlinkMacSystemFont,sans-serif">陆运头程</text><path d="M631,220 C675.5,220 675.5,280 720,280" fill="none" stroke="#6EC4C4" stroke-width="2"/><rect x="720" y="265" width="80" height="30" rx="6" fill="#fafafa" stroke="none"/><text x="760" y="285" text-anchor="middle" font-size="13" fill="#333" font-family="-apple-system,BlinkMacSystemFont,sans-serif">铁路头程</text><path d="M260,-280 C310,-280 310,420 360,420" fill="none" stroke="#77C386" stroke-width="2"/><rect x="360" y="405" width="80" height="30" rx="6" fill="#fafafa" stroke="none"/><text x="400" y="425" text-anchor="middle" font-size="13" fill="#333" font-family="-apple-system,BlinkMacSystemFont,sans-serif">计费相关</text><path d="M440,420 C490,420 490,360 540,360" fill="none" stroke="#DFB85D" stroke-width="2"/><rect x="540" y="345" width="80" height="30" rx="6" fill="#fafafa" stroke="none"/><text x="580" y="365" text-anchor="middle" font-size="13" fill="#333" font-family="-apple-system,BlinkMacSystemFont,sans-serif">财务收入</text><path d="M620,360 C670,360 670,320 720,320" fill="none" stroke="#DFB85D" stroke-width="2"/><rect x="720" y="305" width="80" height="30" rx="6" fill="#fafafa" stroke="none"/><text x="760" y="325" text-anchor="middle" font-size="13" fill="#333" font-family="-apple-system,BlinkMacSystemFont,sans-serif">应收账单</text><path d="M620,360 C670,360 670,360 720,360" fill="none" stroke="#DFB85D" stroke-width="2"/><rect x="720" y="345" width="80" height="30" rx="6" fill="#fafafa" stroke="none"/><text x="760" y="365" text-anchor="middle" font-size="13" fill="#333" font-family="-apple-system,BlinkMacSystemFont,sans-serif">充值审核</text><path d="M620,360 C670,360 670,400 720,400" fill="none" stroke="#DFB85D" stroke-width="2"/><rect x="720" y="385" width="80" height="30" rx="6" fill="#fafafa" stroke="none"/><text x="760" y="405" text-anchor="middle" font-size="13" fill="#333" font-family="-apple-system,BlinkMacSystemFont,sans-serif">账户明细</text><path d="M440,420 C490,420 490,440 540,440" fill="none" stroke="#DFB85D" stroke-width="2"/><rect x="540" y="425" width="80" height="30" rx="6" fill="#fafafa" stroke="none"/><text x="580" y="445" text-anchor="middle" font-size="13" fill="#333" font-family="-apple-system,BlinkMacSystemFont,sans-serif">财务成本</text><path d="M620,440 C670,440 670,440 720,440" fill="none" stroke="#DFB85D" stroke-width="2"/><rect x="720" y="425" width="80" height="30" rx="6" fill="#fafafa" stroke="none"/><text x="760" y="445" text-anchor="middle" font-size="13" fill="#333" font-family="-apple-system,BlinkMacSystemFont,sans-serif">应付账单</text><path d="M440,420 C490,420 490,500 540,500" fill="none" stroke="#DFB85D" stroke-width="2"/><rect x="540" y="485" width="80" height="30" rx="6" fill="#fafafa" stroke="none"/><text x="580" y="505" text-anchor="middle" font-size="13" fill="#333" font-family="-apple-system,BlinkMacSystemFont,sans-serif">财务报表</text><path d="M620,500 C670,500 670,480 720,480" fill="none" stroke="#DFB85D" stroke-width="2"/><rect x="720" y="465" width="80" height="30" rx="6" fill="#fafafa" stroke="none"/><text x="760" y="485" text-anchor="middle" font-size="13" fill="#333" font-family="-apple-system,BlinkMacSystemFont,sans-serif">财务报表</text><path d="M620,500 C670,500 670,520 720,520" fill="none" stroke="#DFB85D" stroke-width="2"/><rect x="720" y="505" width="80" height="30" rx="6" fill="#fafafa" stroke="none"/><text x="760" y="525" text-anchor="middle" font-size="13" fill="#333" font-family="-apple-system,BlinkMacSystemFont,sans-serif">收付流水</text><path d="M108,0 C198,0 198,820 288,820" fill="none" stroke="#6F81DB" stroke-width="2"/><rect x="180" y="805" width="80" height="30" rx="6" fill="#fafafa" stroke="none"/><text x="220" y="825" text-anchor="middle" font-size="13" fill="#333" font-family="-apple-system,BlinkMacSystemFont,sans-serif">用户端</text><path d="M260,820 C310,820 310,560 360,560" fill="none" stroke="#6F81DB" stroke-width="2"/><rect x="360" y="545" width="80" height="30" rx="6" fill="#fafafa" stroke="none"/><text x="400" y="565" text-anchor="middle" font-size="13" fill="#333" font-family="-apple-system,BlinkMacSystemFont,sans-serif">运费试算</text><path d="M260,820 C310,820 310,600 360,600" fill="none" stroke="#6F81DB" stroke-width="2"/><rect x="360" y="585" width="80" height="30" rx="6" fill="#fafafa" stroke="none"/><text x="400" y="605" text-anchor="middle" font-size="13" fill="#333" font-family="-apple-system,BlinkMacSystemFont,sans-serif">仓库地址</text><path d="M260,820 C310,820 310,660 360,660" fill="none" stroke="#6F81DB" stroke-width="2"/><rect x="360" y="645" width="84.75999999999999" height="30" rx="6" fill="#fafafa" stroke="none"/><text x="402.38" y="665" text-anchor="middle" font-size="13" fill="#333" font-family="-apple-system,BlinkMacSystemFont,sans-serif">专线/集运</text><path d="M444.76,660 C492.38,660 492.38,640 540,640" fill="none" stroke="#6F81DB" stroke-width="2"/><rect x="540" y="625" width="80" height="30" rx="6" fill="#fafafa" stroke="none"/><text x="580" y="645" text-anchor="middle" font-size="13" fill="#333" font-family="-apple-system,BlinkMacSystemFont,sans-serif">集货管理</text><path d="M444.76,660 C492.38,660 492.38,680 540,680" fill="none" stroke="#6F81DB" stroke-width="2"/><rect x="540" y="665" width="80" height="30" rx="6" fill="#fafafa" stroke="none"/><text x="580" y="685" text-anchor="middle" font-size="13" fill="#333" font-family="-apple-system,BlinkMacSystemFont,sans-serif">订单管理</text><path d="M260,820 C310,820 310,720 360,720" fill="none" stroke="#6F81DB" stroke-width="2"/><rect x="360" y="705" width="80" height="30" rx="6" fill="#fafafa" stroke="none"/><text x="400" y="725" text-anchor="middle" font-size="13" fill="#333" font-family="-apple-system,BlinkMacSystemFont,sans-serif">FBA物流</text><path d="M440,720 C490,720 490,720 540,720" fill="none" stroke="#6F81DB" stroke-width="2"/><rect x="540" y="705" width="80" height="30" rx="6" fill="#fafafa" stroke="none"/><text x="580" y="725" text-anchor="middle" font-size="13" fill="#333" font-family="-apple-system,BlinkMacSystemFont,sans-serif">订单管理</text><path d="M260,820 C310,820 310,800 360,800" fill="none" stroke="#6F81DB" stroke-width="2"/><rect x="360" y="785" width="80" height="30" rx="6" fill="#fafafa" stroke="none"/><text x="400" y="805" text-anchor="middle" font-size="13" fill="#333" font-family="-apple-system,BlinkMacSystemFont,sans-serif">财务管理</text><path d="M440,800 C490,800 490,760 540,760" fill="none" stroke="#6F81DB" stroke-width="2"/><rect x="540" y="745" width="80" height="30" rx="6" fill="#fafafa" stroke="none"/><text x="580" y="765" text-anchor="middle" font-size="13" fill="#333" font-family="-apple-system,BlinkMacSystemFont,sans-serif">我的账单</text><path d="M440,800 C490,800 490,800 540,800" fill="none" stroke="#6F81DB" stroke-width="2"/><rect x="540" y="785" width="80" height="30" rx="6" fill="#fafafa" stroke="none"/><text x="580" y="805" text-anchor="middle" font-size="13" fill="#333" font-family="-apple-system,BlinkMacSystemFont,sans-serif">账户充值</text><path d="M440,800 C490,800 490,840 540,840" fill="none" stroke="#6F81DB" stroke-width="2"/><rect x="540" y="825" width="80" height="30" rx="6" fill="#fafafa" stroke="none"/><text x="580" y="845" text-anchor="middle" font-size="13" fill="#333" font-family="-apple-system,BlinkMacSystemFont,sans-serif">账户明细</text><path d="M260,820 C310,820 310,880 360,880" fill="none" stroke="#6F81DB" stroke-width="2"/><rect x="360" y="865" width="80" height="30" rx="6" fill="#fafafa" stroke="none"/><text x="400" y="885" text-anchor="middle" font-size="13" fill="#333" font-family="-apple-system,BlinkMacSystemFont,sans-serif">账户管理</text><path d="M440,880 C490,880 490,880 540,880" fill="none" stroke="#6F81DB" stroke-width="2"/><rect x="540" y="865" width="80" height="30" rx="6" fill="#fafafa" stroke="none"/><text x="580" y="885" text-anchor="middle" font-size="13" fill="#333" font-family="-apple-system,BlinkMacSystemFont,sans-serif">我的信息</text><path d="M260,820 C310,820 310,1000 360,1000" fill="none" stroke="#6F81DB" stroke-width="2"/><rect x="360" y="985" width="104" height="30" rx="6" fill="#fafafa" stroke="none"/><text x="412" y="1005" text-anchor="middle" font-size="13" fill="#333" font-family="-apple-system,BlinkMacSystemFont,sans-serif">常用信息管理</text><path d="M464,1000 C502,1000 502,920 540,920" fill="none" stroke="#6F81DB" stroke-width="2"/><rect x="540" y="905" width="104" height="30" rx="6" fill="#fafafa" stroke="none"/><text x="592" y="925" text-anchor="middle" font-size="13" fill="#333" font-family="-apple-system,BlinkMacSystemFont,sans-serif">常用收件信息</text><path d="M464,1000 C502,1000 502,960 540,960" fill="none" stroke="#6F81DB" stroke-width="2"/><rect x="540" y="945" width="104" height="30" rx="6" fill="#fafafa" stroke="none"/><text x="592" y="965" text-anchor="middle" font-size="13" fill="#333" font-family="-apple-system,BlinkMacSystemFont,sans-serif">常用寄件信息</text><path d="M464,1000 C502,1000 502,1000 540,1000" fill="none" stroke="#6F81DB" stroke-width="2"/><rect x="540" y="985" width="117" height="30" rx="6" fill="#fafafa" stroke="none"/><text x="598.5" y="1005" text-anchor="middle" font-size="13" fill="#333" font-family="-apple-system,BlinkMacSystemFont,sans-serif">常用通知人信息</text><path d="M464,1000 C502,1000 502,1040 540,1040" fill="none" stroke="#6F81DB" stroke-width="2"/><rect x="540" y="1025" width="104" height="30" rx="6" fill="#fafafa" stroke="none"/><text x="592" y="1045" text-anchor="middle" font-size="13" fill="#333" font-family="-apple-system,BlinkMacSystemFont,sans-serif">常用揽件信息</text><path d="M464,1000 C502,1000 502,1080 540,1080" fill="none" stroke="#6F81DB" stroke-width="2"/><rect x="540" y="1065" width="104" height="30" rx="6" fill="#fafafa" stroke="none"/><text x="592" y="1085" text-anchor="middle" font-size="13" fill="#333" font-family="-apple-system,BlinkMacSystemFont,sans-serif">常用商品信息</text>
</svg>