<svg xmlns="http://www.w3.org/2000/svg" xmlns:xlink="http://www.w3.org/1999/xlink"
  viewBox="-168 -699 1318 1398" width="1318" height="1398"
  style="background:#fff; font-family:-apple-system,BlinkMacSystemFont,'Segoe UI',Roboto,sans-serif;">
<defs></defs>
<rect x="-168" y="-699" width="1318" height="1398" fill="#fff"/>
<rect x="-84" y="-18" width="168" height="36" rx="8" fill="#EFF0F0" stroke="none"/><text x="0" y="6" text-anchor="middle" font-size="16" font-weight="bold" fill="#333" font-family="-apple-system,BlinkMacSystemFont,sans-serif">产品方法论的分享</text><path d="M84,0 C174,0 174,-520 264,-520" fill="none" stroke="#A287E1" stroke-width="2"/><rect x="180" y="-535" width="80" height="30" rx="6" fill="#fafafa" stroke="none"/><text x="220" y="-515" text-anchor="middle" font-size="13" fill="#333" font-family="-apple-system,BlinkMacSystemFont,sans-serif">需求分析</text><path d="M260,-520 C310,-520 310,-600 360,-600" fill="none" stroke="#A287E1" stroke-width="2"/><rect x="360" y="-615" width="403" height="30" rx="6" fill="#fafafa" stroke="none"/><text x="561.5" y="-595" text-anchor="middle" font-size="13" fill="#333" font-family="-apple-system,BlinkMacSystemFont,sans-serif">大概的背景是什么？为什么要做这个产品？为什么要做这个需求？</text><path d="M260,-520 C310,-520 310,-560 360,-560" fill="none" stroke="#A287E1" stroke-width="2"/><rect x="360" y="-575" width="80" height="30" rx="6" fill="#fafafa" stroke="none"/><text x="400" y="-555" text-anchor="middle" font-size="13" fill="#333" font-family="-apple-system,BlinkMacSystemFont,sans-serif">用户是谁</text><path d="M260,-520 C310,-520 310,-520 360,-520" fill="none" stroke="#A287E1" stroke-width="2"/><rect x="360" y="-535" width="91" height="30" rx="6" fill="#fafafa" stroke="none"/><text x="405.5" y="-515" text-anchor="middle" font-size="13" fill="#333" font-family="-apple-system,BlinkMacSystemFont,sans-serif">场景有哪些</text><path d="M260,-520 C310,-520 310,-480 360,-480" fill="none" stroke="#A287E1" stroke-width="2"/><rect x="360" y="-495" width="351" height="30" rx="6" fill="#fafafa" stroke="none"/><text x="535.5" y="-475" text-anchor="middle" font-size="13" fill="#333" font-family="-apple-system,BlinkMacSystemFont,sans-serif">在不同的场景下用户的诉求是什么？用户的现状是什么？</text><path d="M260,-520 C310,-520 310,-440 360,-440" fill="none" stroke="#A287E1" stroke-width="2"/><rect x="360" y="-455" width="247" height="30" rx="6" fill="#fafafa" stroke="none"/><text x="483.5" y="-435" text-anchor="middle" font-size="13" fill="#333" font-family="-apple-system,BlinkMacSystemFont,sans-serif">用户期望想要获得什么，想要怎么解决</text><path d="M84,0 C174,0 174,-80 264,-80" fill="none" stroke="#6F81DB" stroke-width="2"/><rect x="180" y="-95" width="104" height="30" rx="6" fill="#fafafa" stroke="none"/><text x="232" y="-75" text-anchor="middle" font-size="13" fill="#333" font-family="-apple-system,BlinkMacSystemFont,sans-serif">初步方案设计</text><path d="M284,-80 C322,-80 322,-360 360,-360" fill="none" stroke="#6F81DB" stroke-width="2"/><rect x="360" y="-375" width="80" height="30" rx="6" fill="#fafafa" stroke="none"/><text x="400" y="-355" text-anchor="middle" font-size="13" fill="#333" font-family="-apple-system,BlinkMacSystemFont,sans-serif">业务设计</text><path d="M440,-360 C490,-360 490,-400 540,-400" fill="none" stroke="#6F81DB" stroke-width="2"/><rect x="540" y="-415" width="143" height="30" rx="6" fill="#fafafa" stroke="none"/><text x="611.5" y="-395" text-anchor="middle" font-size="13" fill="#333" font-family="-apple-system,BlinkMacSystemFont,sans-serif">业务流程图是什么？</text><path d="M440,-360 C490,-360 490,-360 540,-360" fill="none" stroke="#6F81DB" stroke-width="2"/><rect x="540" y="-375" width="260.52" height="30" rx="6" fill="#fafafa" stroke="none"/><text x="670.26" y="-355" text-anchor="middle" font-size="13" fill="#333" font-family="-apple-system,BlinkMacSystemFont,sans-serif">业务层面的“主支辅异”流程分别有哪些？</text><path d="M440,-360 C490,-360 490,-320 540,-320" fill="none" stroke="#6F81DB" stroke-width="2"/><rect x="540" y="-335" width="104" height="30" rx="6" fill="#fafafa" stroke="none"/><text x="592" y="-315" text-anchor="middle" font-size="13" fill="#333" font-family="-apple-system,BlinkMacSystemFont,sans-serif">业务逻辑梳理</text><path d="M284,-80 C322,-80 322,-240 360,-240" fill="none" stroke="#6F81DB" stroke-width="2"/><rect x="360" y="-255" width="80" height="30" rx="6" fill="#fafafa" stroke="none"/><text x="400" y="-235" text-anchor="middle" font-size="13" fill="#333" font-family="-apple-system,BlinkMacSystemFont,sans-serif">应用设计</text><path d="M440,-240 C490,-240 490,-280 540,-280" fill="none" stroke="#6F81DB" stroke-width="2"/><rect x="540" y="-295" width="169" height="30" rx="6" fill="#fafafa" stroke="none"/><text x="624.5" y="-275" text-anchor="middle" font-size="13" fill="#333" font-family="-apple-system,BlinkMacSystemFont,sans-serif">系统流程图是怎么样的？</text><path d="M440,-240 C490,-240 490,-240 540,-240" fill="none" stroke="#6F81DB" stroke-width="2"/><rect x="540" y="-255" width="260.52" height="30" rx="6" fill="#fafafa" stroke="none"/><text x="670.26" y="-235" text-anchor="middle" font-size="13" fill="#333" font-family="-apple-system,BlinkMacSystemFont,sans-serif">系统层面的“主支辅异”流程分别有哪些？</text><path d="M800.52,-240 C760.26,-240 760.26,-240 720,-240" fill="none" stroke="#6F81DB" stroke-width="2"/><rect x="720" y="-255" width="221.51999999999998" height="30" rx="6" fill="#fafafa" stroke="none"/><text x="830.76" y="-235" text-anchor="middle" font-size="13" fill="#333" font-family="-apple-system,BlinkMacSystemFont,sans-serif">后续会补充讲解什么是“主支辅异”</text><path d="M440,-240 C490,-240 490,-200 540,-200" fill="none" stroke="#6F81DB" stroke-width="2"/><rect x="540" y="-215" width="104" height="30" rx="6" fill="#fafafa" stroke="none"/><text x="592" y="-195" text-anchor="middle" font-size="13" fill="#333" font-family="-apple-system,BlinkMacSystemFont,sans-serif">系统逻辑梳理</text><path d="M284,-80 C322,-80 322,-60 360,-60" fill="none" stroke="#6F81DB" stroke-width="2"/><rect x="360" y="-75" width="80" height="30" rx="6" fill="#fafafa" stroke="none"/><text x="400" y="-55" text-anchor="middle" font-size="13" fill="#333" font-family="-apple-system,BlinkMacSystemFont,sans-serif">产品设计</text><path d="M440,-60 C490,-60 490,-160 540,-160" fill="none" stroke="#6F81DB" stroke-width="2"/><rect x="540" y="-175" width="286" height="30" rx="6" fill="#fafafa" stroke="none"/><text x="683" y="-155" text-anchor="middle" font-size="13" fill="#333" font-family="-apple-system,BlinkMacSystemFont,sans-serif">有多少个模块？多少个页面？多少个功能点？</text><path d="M440,-60 C490,-60 490,-120 540,-120" fill="none" stroke="#6F81DB" stroke-width="2"/><rect x="540" y="-135" width="247" height="30" rx="6" fill="#fafafa" stroke="none"/><text x="663.5" y="-115" text-anchor="middle" font-size="13" fill="#333" font-family="-apple-system,BlinkMacSystemFont,sans-serif">一些特别要注意的需求和逻辑是什么？</text><path d="M440,-60 C490,-60 490,-80 540,-80" fill="none" stroke="#6F81DB" stroke-width="2"/><rect x="540" y="-95" width="208" height="30" rx="6" fill="#fafafa" stroke="none"/><text x="644" y="-75" text-anchor="middle" font-size="13" fill="#333" font-family="-apple-system,BlinkMacSystemFont,sans-serif">相关的公式、计算方式是什么？</text><path d="M440,-60 C490,-60 490,0 540,0" fill="none" stroke="#6F81DB" stroke-width="2"/><rect x="540" y="-15" width="260" height="30" rx="6" fill="#fafafa" stroke="none"/><text x="670" y="5" text-anchor="middle" font-size="13" fill="#333" font-family="-apple-system,BlinkMacSystemFont,sans-serif">一些可能会忽视的的需求和逻辑是什么？</text><path d="M800,0 C760,0 760,-40 720,-40" fill="none" stroke="#6F81DB" stroke-width="2"/><rect x="720" y="-55" width="117" height="30" rx="6" fill="#fafafa" stroke="none"/><text x="778.5" y="-35" text-anchor="middle" font-size="13" fill="#333" font-family="-apple-system,BlinkMacSystemFont,sans-serif">数据方面的需求</text><path d="M800,0 C760,0 760,0 720,0" fill="none" stroke="#6F81DB" stroke-width="2"/><rect x="720" y="-15" width="130" height="30" rx="6" fill="#fafafa" stroke="none"/><text x="785" y="5" text-anchor="middle" font-size="13" fill="#333" font-family="-apple-system,BlinkMacSystemFont,sans-serif">稳定性方面的需求</text><path d="M800,0 C760,0 760,40 720,40" fill="none" stroke="#6F81DB" stroke-width="2"/><rect x="720" y="25" width="130" height="30" rx="6" fill="#fafafa" stroke="none"/><text x="785" y="45" text-anchor="middle" font-size="13" fill="#333" font-family="-apple-system,BlinkMacSystemFont,sans-serif">拓展性方面的需求</text><path d="M284,-80 C322,-80 322,160 360,160" fill="none" stroke="#6F81DB" stroke-width="2"/><rect x="360" y="145" width="130" height="30" rx="6" fill="#fafafa" stroke="none"/><text x="425" y="165" text-anchor="middle" font-size="13" fill="#333" font-family="-apple-system,BlinkMacSystemFont,sans-serif">其他一些头脑风暴</text><path d="M490,160 C515,160 515,80 540,80" fill="none" stroke="#6F81DB" stroke-width="2"/><rect x="540" y="65" width="104" height="30" rx="6" fill="#fafafa" stroke="none"/><text x="592" y="85" text-anchor="middle" font-size="13" fill="#333" font-family="-apple-system,BlinkMacSystemFont,sans-serif">初步方案推演</text><path d="M490,160 C515,160 515,120 540,120" fill="none" stroke="#6F81DB" stroke-width="2"/><rect x="540" y="105" width="143" height="30" rx="6" fill="#fafafa" stroke="none"/><text x="611.5" y="125" text-anchor="middle" font-size="13" fill="#333" font-family="-apple-system,BlinkMacSystemFont,sans-serif">大体可行性方案分析</text><path d="M490,160 C515,160 515,160 540,160" fill="none" stroke="#6F81DB" stroke-width="2"/><rect x="540" y="145" width="117" height="30" rx="6" fill="#fafafa" stroke="none"/><text x="598.5" y="165" text-anchor="middle" font-size="13" fill="#333" font-family="-apple-system,BlinkMacSystemFont,sans-serif">竞品资料的收集</text><path d="M490,160 C515,160 515,200 540,200" fill="none" stroke="#6F81DB" stroke-width="2"/><rect x="540" y="185" width="182" height="30" rx="6" fill="#fafafa" stroke="none"/><text x="631" y="205" text-anchor="middle" font-size="13" fill="#333" font-family="-apple-system,BlinkMacSystemFont,sans-serif">待确认的事项和内容是什么</text><path d="M490,160 C515,160 515,240 540,240" fill="none" stroke="#6F81DB" stroke-width="2"/><rect x="540" y="225" width="80" height="30" rx="6" fill="#fafafa" stroke="none"/><text x="580" y="245" text-anchor="middle" font-size="13" fill="#333" font-family="-apple-system,BlinkMacSystemFont,sans-serif">……</text><path d="M84,0 C174,0 174,380 264,380" fill="none" stroke="#6EC4C4" stroke-width="2"/><rect x="180" y="365" width="80" height="30" rx="6" fill="#fafafa" stroke="none"/><text x="220" y="385" text-anchor="middle" font-size="13" fill="#333" font-family="-apple-system,BlinkMacSystemFont,sans-serif">功能结构</text><path d="M260,380 C310,380 310,320 360,320" fill="none" stroke="#6EC4C4" stroke-width="2"/><rect x="360" y="305" width="80" height="30" rx="6" fill="#fafafa" stroke="none"/><text x="400" y="325" text-anchor="middle" font-size="13" fill="#333" font-family="-apple-system,BlinkMacSystemFont,sans-serif">模块1</text><path d="M440,320 C490,320 490,280 540,280" fill="none" stroke="#6EC4C4" stroke-width="2"/><rect x="540" y="265" width="80" height="30" rx="6" fill="#fafafa" stroke="none"/><text x="580" y="285" text-anchor="middle" font-size="13" fill="#333" font-family="-apple-system,BlinkMacSystemFont,sans-serif">功能1</text><path d="M620,280 C670,280 670,280 720,280" fill="none" stroke="#6EC4C4" stroke-width="2"/><rect x="720" y="265" width="117" height="30" rx="6" fill="#fafafa" stroke="none"/><text x="778.5" y="285" text-anchor="middle" font-size="13" fill="#333" font-family="-apple-system,BlinkMacSystemFont,sans-serif">优先级、重要性</text><path d="M440,320 C490,320 490,320 540,320" fill="none" stroke="#6EC4C4" stroke-width="2"/><rect x="540" y="305" width="80" height="30" rx="6" fill="#fafafa" stroke="none"/><text x="580" y="325" text-anchor="middle" font-size="13" fill="#333" font-family="-apple-system,BlinkMacSystemFont,sans-serif">功能2</text><path d="M620,320 C670,320 670,320 720,320" fill="none" stroke="#6EC4C4" stroke-width="2"/><rect x="720" y="305" width="117" height="30" rx="6" fill="#EFF0F0" stroke="none"/><text x="778.5" y="325" text-anchor="middle" font-size="13" fill="#333" font-family="-apple-system,BlinkMacSystemFont,sans-serif">优先级、重要性</text><path d="M440,320 C490,320 490,360 540,360" fill="none" stroke="#6EC4C4" stroke-width="2"/><rect x="540" y="345" width="80" height="30" rx="6" fill="#fafafa" stroke="none"/><text x="580" y="365" text-anchor="middle" font-size="13" fill="#333" font-family="-apple-system,BlinkMacSystemFont,sans-serif">功能3</text><path d="M620,360 C670,360 670,360 720,360" fill="none" stroke="#6EC4C4" stroke-width="2"/><rect x="720" y="345" width="117" height="30" rx="6" fill="#EFF0F0" stroke="none"/><text x="778.5" y="365" text-anchor="middle" font-size="13" fill="#333" font-family="-apple-system,BlinkMacSystemFont,sans-serif">优先级、重要性</text><path d="M260,380 C310,380 310,420 360,420" fill="none" stroke="#6EC4C4" stroke-width="2"/><rect x="360" y="405" width="80" height="30" rx="6" fill="#fafafa" stroke="none"/><text x="400" y="425" text-anchor="middle" font-size="13" fill="#333" font-family="-apple-system,BlinkMacSystemFont,sans-serif">模块2</text><path d="M440,420 C490,420 490,400 540,400" fill="none" stroke="#6EC4C4" stroke-width="2"/><rect x="540" y="385" width="80" height="30" rx="6" fill="#EFF0F0" stroke="none"/><text x="580" y="405" text-anchor="middle" font-size="13" fill="#333" font-family="-apple-system,BlinkMacSystemFont,sans-serif">功能1</text><path d="M620,400 C670,400 670,400 720,400" fill="none" stroke="#6EC4C4" stroke-width="2"/><rect x="720" y="385" width="117" height="30" rx="6" fill="#EFF0F0" stroke="none"/><text x="778.5" y="405" text-anchor="middle" font-size="13" fill="#333" font-family="-apple-system,BlinkMacSystemFont,sans-serif">优先级、重要性</text><path d="M440,420 C490,420 490,440 540,440" fill="none" stroke="#6EC4C4" stroke-width="2"/><rect x="540" y="425" width="80" height="30" rx="6" fill="#EFF0F0" stroke="none"/><text x="580" y="445" text-anchor="middle" font-size="13" fill="#333" font-family="-apple-system,BlinkMacSystemFont,sans-serif">功能2</text><path d="M620,440 C670,440 670,440 720,440" fill="none" stroke="#6EC4C4" stroke-width="2"/><rect x="720" y="425" width="117" height="30" rx="6" fill="#EFF0F0" stroke="none"/><text x="778.5" y="445" text-anchor="middle" font-size="13" fill="#333" font-family="-apple-system,BlinkMacSystemFont,sans-serif">优先级、重要性</text><path d="M260,380 C310,380 310,480 360,480" fill="none" stroke="#6EC4C4" stroke-width="2"/><rect x="360" y="465" width="80" height="30" rx="6" fill="#fafafa" stroke="none"/><text x="400" y="485" text-anchor="middle" font-size="13" fill="#333" font-family="-apple-system,BlinkMacSystemFont,sans-serif">模块3</text><path d="M440,480 C490,480 490,480 540,480" fill="none" stroke="#6EC4C4" stroke-width="2"/><rect x="540" y="465" width="80" height="30" rx="6" fill="#EFF0F0" stroke="none"/><text x="580" y="485" text-anchor="middle" font-size="13" fill="#333" font-family="-apple-system,BlinkMacSystemFont,sans-serif">功能1</text><path d="M620,480 C670,480 670,480 720,480" fill="none" stroke="#6EC4C4" stroke-width="2"/><rect x="720" y="465" width="117" height="30" rx="6" fill="#EFF0F0" stroke="none"/><text x="778.5" y="485" text-anchor="middle" font-size="13" fill="#333" font-family="-apple-system,BlinkMacSystemFont,sans-serif">优先级、重要性</text><path d="M84,0 C174,0 174,560 264,560" fill="none" stroke="#DFB85D" stroke-width="2"/><rect x="180" y="545" width="80" height="30" rx="6" fill="#fafafa" stroke="none"/><text x="220" y="565" text-anchor="middle" font-size="13" fill="#333" font-family="-apple-system,BlinkMacSystemFont,sans-serif">信息结构</text><path d="M260,560 C310,560 310,520 360,520" fill="none" stroke="#DFB85D" stroke-width="2"/><rect x="360" y="505" width="91.52" height="30" rx="6" fill="#fafafa" stroke="none"/><text x="405.76" y="525" text-anchor="middle" font-size="13" fill="#333" font-family="-apple-system,BlinkMacSystemFont,sans-serif">模块/页面1</text><path d="M451.52,520 C495.76,520 495.76,520 540,520" fill="none" stroke="#DFB85D" stroke-width="2"/><rect x="540" y="505" width="80" height="30" rx="6" fill="#fafafa" stroke="none"/><text x="580" y="525" text-anchor="middle" font-size="13" fill="#333" font-family="-apple-system,BlinkMacSystemFont,sans-serif">字段说明</text><path d="M260,560 C310,560 310,560 360,560" fill="none" stroke="#DFB85D" stroke-width="2"/><rect x="360" y="545" width="91.52" height="30" rx="6" fill="#fafafa" stroke="none"/><text x="405.76" y="565" text-anchor="middle" font-size="13" fill="#333" font-family="-apple-system,BlinkMacSystemFont,sans-serif">模块/页面2</text><path d="M451.52,560 C495.76,560 495.76,560 540,560" fill="none" stroke="#DFB85D" stroke-width="2"/><rect x="540" y="545" width="80" height="30" rx="6" fill="#EFF0F0" stroke="none"/><text x="580" y="565" text-anchor="middle" font-size="13" fill="#333" font-family="-apple-system,BlinkMacSystemFont,sans-serif">字段说明</text><path d="M260,560 C310,560 310,600 360,600" fill="none" stroke="#DFB85D" stroke-width="2"/><rect x="360" y="585" width="91.52" height="30" rx="6" fill="#fafafa" stroke="none"/><text x="405.76" y="605" text-anchor="middle" font-size="13" fill="#333" font-family="-apple-system,BlinkMacSystemFont,sans-serif">模块/页面3</text><path d="M451.52,600 C495.76,600 495.76,600 540,600" fill="none" stroke="#DFB85D" stroke-width="2"/><rect x="540" y="585" width="80" height="30" rx="6" fill="#EFF0F0" stroke="none"/><text x="580" y="605" text-anchor="middle" font-size="13" fill="#333" font-family="-apple-system,BlinkMacSystemFont,sans-serif">字段说明</text>
</svg>