<svg xmlns="http://www.w3.org/2000/svg" xmlns:xlink="http://www.w3.org/1999/xlink"
  viewBox="-200 -1179 1817 2358" width="1817" height="2358"
  style="background:#fff; font-family:-apple-system,BlinkMacSystemFont,'Segoe UI',Roboto,sans-serif;">
<defs></defs>
<rect x="-200" y="-1179" width="1817" height="2358" fill="#fff"/>
<rect x="-116" y="-18" width="232" height="36" rx="8" fill="#EFF0F0" stroke="none"/><text x="0" y="6" text-anchor="middle" font-size="16" font-weight="bold" fill="#333" font-family="-apple-system,BlinkMacSystemFont,sans-serif">上架的产品结构图（一期）</text><path d="M116,0 C206,0 206,-940 296,-940" fill="none" stroke="#DFB85D" stroke-width="2"/><rect x="180" y="-955" width="110.75999999999999" height="30" rx="6" fill="#EFF0F0" stroke="none"/><text x="235.38" y="-935" text-anchor="middle" font-size="13" fill="#333" font-family="-apple-system,BlinkMacSystemFont,sans-serif">需求背景&amp;分析</text><path d="M290.76,-940 C325.38,-940 325.38,-1060 360,-1060" fill="none" stroke="#DFB85D" stroke-width="2"/><rect x="360" y="-1075" width="463.32" height="30" rx="6" fill="#fafafa" stroke="none"/><text x="591.66" y="-1055" text-anchor="middle" font-size="13" fill="#333" font-family="-apple-system,BlinkMacSystemFont,sans-serif">需要搭建一套SaaS版的海外仓WMS，提供给海外仓服务商做仓储信息化的管控</text><path d="M823.3199999999999,-1060 C681.66,-1060 681.66,-1080 540,-1080" fill="none" stroke="#DFB85D" stroke-width="2"/><rect x="540" y="-1095" width="390" height="30" rx="6" fill="#fafafa" stroke="none"/><text x="735" y="-1075" text-anchor="middle" font-size="13" fill="#333" font-family="-apple-system,BlinkMacSystemFont,sans-serif">有很多长尾的海外仓服务商有仓库没有系统，仓库管理效率低下</text><path d="M823.3199999999999,-1060 C681.66,-1060 681.66,-1040 540,-1040" fill="none" stroke="#DFB85D" stroke-width="2"/><rect x="540" y="-1055" width="820.04" height="30" rx="6" fill="#fafafa" stroke="none"/><text x="950.02" y="-1035" text-anchor="middle" font-size="13" fill="#333" font-family="-apple-system,BlinkMacSystemFont,sans-serif">市面上的一些海外仓WMS不太好用，要么太复杂，太贵，要么太简陋，不满足业务要求，产品定位就是先切入长尾~腰部以下的海外仓服务商</text><path d="M290.76,-940 C325.38,-940 325.38,-1000 360,-1000" fill="none" stroke="#DFB85D" stroke-width="2"/><rect x="360" y="-1015" width="731.1199999999999" height="30" rx="6" fill="#fafafa" stroke="none"/><text x="725.56" y="-995" text-anchor="middle" font-size="13" fill="#333" font-family="-apple-system,BlinkMacSystemFont,sans-serif">从0到1搭建一套WMS，既要考虑WMS本身的业务闭环和产品结构，还需要考虑到上下游之间的业务串联，所以会有OTWB的说法</text><path d="M290.76,-940 C325.38,-940 325.38,-880 360,-880" fill="none" stroke="#DFB85D" stroke-width="2"/><rect x="360" y="-895" width="703.56" height="30" rx="6" fill="#fafafa" stroke="none"/><text x="711.78" y="-875" text-anchor="middle" font-size="13" fill="#333" font-family="-apple-system,BlinkMacSystemFont,sans-serif">WMS的第一期应该是遵循MVP原则，先搭建基本的框架，然后从基础数据入手，从主线流程入手，先确保单个场景能闭环</text><path d="M1063.56,-880 C801.78,-880 801.78,-960 540,-960" fill="none" stroke="#DFB85D" stroke-width="2"/><rect x="540" y="-975" width="188.76" height="30" rx="6" fill="#fafafa" stroke="none"/><text x="634.38" y="-955" text-anchor="middle" font-size="13" fill="#333" font-family="-apple-system,BlinkMacSystemFont,sans-serif">场景1：仓库基础资料的维护</text><path d="M1063.56,-880 C801.78,-880 801.78,-920 540,-920" fill="none" stroke="#DFB85D" stroke-width="2"/><rect x="540" y="-935" width="253.76" height="30" rx="6" fill="#fafafa" stroke="none"/><text x="666.88" y="-915" text-anchor="middle" font-size="13" fill="#333" font-family="-apple-system,BlinkMacSystemFont,sans-serif">场景2：仓库入库收货、上架、增加库存</text><path d="M1063.56,-880 C801.78,-880 801.78,-880 540,-880" fill="none" stroke="#DFB85D" stroke-width="2"/><rect x="540" y="-895" width="292.76" height="30" rx="6" fill="#fafafa" stroke="none"/><text x="686.38" y="-875" text-anchor="middle" font-size="13" fill="#333" font-family="-apple-system,BlinkMacSystemFont,sans-serif">场景3：仓库分波、拣货、复核出库、扣减库存</text><path d="M1063.56,-880 C801.78,-880 801.78,-840 540,-840" fill="none" stroke="#DFB85D" stroke-width="2"/><rect x="540" y="-855" width="344.76" height="30" rx="6" fill="#fafafa" stroke="none"/><text x="712.38" y="-835" text-anchor="middle" font-size="13" fill="#333" font-family="-apple-system,BlinkMacSystemFont,sans-serif">场景4：入库的取消，出库的取消，批量入库，批量出库</text><path d="M1063.56,-880 C801.78,-880 801.78,-800 540,-800" fill="none" stroke="#DFB85D" stroke-width="2"/><rect x="540" y="-815" width="80" height="30" rx="6" fill="#fafafa" stroke="none"/><text x="580" y="-795" text-anchor="middle" font-size="13" fill="#333" font-family="-apple-system,BlinkMacSystemFont,sans-serif">……</text><path d="M116,0 C206,0 206,-360 296,-360" fill="none" stroke="#77C386" stroke-width="2"/><rect x="180" y="-375" width="104" height="30" rx="6" fill="#EFF0F0" stroke="none"/><text x="232" y="-355" text-anchor="middle" font-size="13" fill="#333" font-family="-apple-system,BlinkMacSystemFont,sans-serif">初步方案设计</text><path d="M284,-360 C322,-360 322,-680 360,-680" fill="none" stroke="#77C386" stroke-width="2"/><rect x="360" y="-695" width="80" height="30" rx="6" fill="#fafafa" stroke="none"/><text x="400" y="-675" text-anchor="middle" font-size="13" fill="#333" font-family="-apple-system,BlinkMacSystemFont,sans-serif">业务设计</text><path d="M440,-680 C490,-680 490,-760 540,-760" fill="none" stroke="#77C386" stroke-width="2"/><rect x="540" y="-775" width="182" height="30" rx="6" fill="#fafafa" stroke="none"/><text x="631" y="-755" text-anchor="middle" font-size="13" fill="#333" font-family="-apple-system,BlinkMacSystemFont,sans-serif">上架会有几个核心的步骤？</text><path d="M440,-680 C490,-680 490,-720 540,-720" fill="none" stroke="#77C386" stroke-width="2"/><rect x="540" y="-735" width="429" height="30" rx="6" fill="#fafafa" stroke="none"/><text x="754.5" y="-715" text-anchor="middle" font-size="13" fill="#333" font-family="-apple-system,BlinkMacSystemFont,sans-serif">仓库员工上架的时候是怎么找到库位的？具体执行的操作是怎么样的？</text><path d="M440,-680 C490,-680 490,-680 540,-680" fill="none" stroke="#77C386" stroke-width="2"/><rect x="540" y="-695" width="183.56" height="30" rx="6" fill="#fafafa" stroke="none"/><text x="631.78" y="-675" text-anchor="middle" font-size="13" fill="#333" font-family="-apple-system,BlinkMacSystemFont,sans-serif">上架的方式是Web还是PDA？</text><path d="M440,-680 C490,-680 490,-640 540,-640" fill="none" stroke="#77C386" stroke-width="2"/><rect x="540" y="-655" width="286" height="30" rx="6" fill="#fafafa" stroke="none"/><text x="683" y="-635" text-anchor="middle" font-size="13" fill="#333" font-family="-apple-system,BlinkMacSystemFont,sans-serif">待上架数量和实际上架数量不相等怎么处理？</text><path d="M440,-680 C490,-680 490,-600 540,-600" fill="none" stroke="#77C386" stroke-width="2"/><rect x="540" y="-615" width="143" height="30" rx="6" fill="#fafafa" stroke="none"/><text x="611.5" y="-595" text-anchor="middle" font-size="13" fill="#333" font-family="-apple-system,BlinkMacSystemFont,sans-serif">需要做上架推荐吗？</text><path d="M284,-360 C322,-360 322,-440 360,-440" fill="none" stroke="#77C386" stroke-width="2"/><rect x="360" y="-455" width="80" height="30" rx="6" fill="#fafafa" stroke="none"/><text x="400" y="-435" text-anchor="middle" font-size="13" fill="#333" font-family="-apple-system,BlinkMacSystemFont,sans-serif">应用设计</text><path d="M440,-440 C490,-440 490,-520 540,-520" fill="none" stroke="#77C386" stroke-width="2"/><rect x="540" y="-535" width="143" height="30" rx="6" fill="#fafafa" stroke="none"/><text x="611.5" y="-515" text-anchor="middle" font-size="13" fill="#333" font-family="-apple-system,BlinkMacSystemFont,sans-serif">上架单有什么状态？</text><path d="M683,-520 C701.5,-520 701.5,-560 720,-560" fill="none" stroke="#77C386" stroke-width="2"/><rect x="720" y="-575" width="80" height="30" rx="6" fill="#fafafa" stroke="none"/><text x="760" y="-555" text-anchor="middle" font-size="13" fill="#333" font-family="-apple-system,BlinkMacSystemFont,sans-serif">待上架</text><path d="M683,-520 C701.5,-520 701.5,-520 720,-520" fill="none" stroke="#77C386" stroke-width="2"/><rect x="720" y="-535" width="80" height="30" rx="6" fill="#fafafa" stroke="none"/><text x="760" y="-515" text-anchor="middle" font-size="13" fill="#333" font-family="-apple-system,BlinkMacSystemFont,sans-serif">上架中</text><path d="M683,-520 C701.5,-520 701.5,-480 720,-480" fill="none" stroke="#77C386" stroke-width="2"/><rect x="720" y="-495" width="80" height="30" rx="6" fill="#fafafa" stroke="none"/><text x="760" y="-475" text-anchor="middle" font-size="13" fill="#333" font-family="-apple-system,BlinkMacSystemFont,sans-serif">已上架</text><path d="M440,-440 C490,-440 490,-420 540,-420" fill="none" stroke="#77C386" stroke-width="2"/><rect x="540" y="-435" width="280.28" height="30" rx="6" fill="#fafafa" stroke="none"/><text x="680.14" y="-415" text-anchor="middle" font-size="13" fill="#333" font-family="-apple-system,BlinkMacSystemFont,sans-serif">上架单和ASN入库单的联动关系是怎么样的？</text><path d="M820.28,-420 C770.14,-420 770.14,-440 720,-440" fill="none" stroke="#77C386" stroke-width="2"/><rect x="720" y="-455" width="319.28" height="30" rx="6" fill="#fafafa" stroke="none"/><text x="879.64" y="-435" text-anchor="middle" font-size="13" fill="#333" font-family="-apple-system,BlinkMacSystemFont,sans-serif">当有部分内容上架之后，ASN入库单变成什么状态？</text><path d="M820.28,-420 C770.14,-420 770.14,-400 720,-400" fill="none" stroke="#77C386" stroke-width="2"/><rect x="720" y="-415" width="319.28" height="30" rx="6" fill="#fafafa" stroke="none"/><text x="879.64" y="-395" text-anchor="middle" font-size="13" fill="#333" font-family="-apple-system,BlinkMacSystemFont,sans-serif">当所有内容都上架之后，ASN入库单变成什么状态？</text><path d="M440,-440 C490,-440 490,-340 540,-340" fill="none" stroke="#77C386" stroke-width="2"/><rect x="540" y="-355" width="247" height="30" rx="6" fill="#fafafa" stroke="none"/><text x="663.5" y="-335" text-anchor="middle" font-size="13" fill="#333" font-family="-apple-system,BlinkMacSystemFont,sans-serif">上架单和库存流水的关系是怎么样的？</text><path d="M787,-340 C753.5,-340 753.5,-360 720,-360" fill="none" stroke="#77C386" stroke-width="2"/><rect x="720" y="-375" width="169" height="30" rx="6" fill="#fafafa" stroke="none"/><text x="804.5" y="-355" text-anchor="middle" font-size="13" fill="#333" font-family="-apple-system,BlinkMacSystemFont,sans-serif">什么时候生成库存流水？</text><path d="M787,-340 C753.5,-340 753.5,-320 720,-320" fill="none" stroke="#77C386" stroke-width="2"/><rect x="720" y="-335" width="143" height="30" rx="6" fill="#fafafa" stroke="none"/><text x="791.5" y="-315" text-anchor="middle" font-size="13" fill="#333" font-family="-apple-system,BlinkMacSystemFont,sans-serif">什么时候生成批次？</text><path d="M284,-360 C322,-360 322,-180 360,-180" fill="none" stroke="#77C386" stroke-width="2"/><rect x="360" y="-195" width="80" height="30" rx="6" fill="#fafafa" stroke="none"/><text x="400" y="-175" text-anchor="middle" font-size="13" fill="#333" font-family="-apple-system,BlinkMacSystemFont,sans-serif">产品设计</text><path d="M440,-180 C490,-180 490,-280 540,-280" fill="none" stroke="#77C386" stroke-width="2"/><rect x="540" y="-295" width="234" height="30" rx="6" fill="#fafafa" stroke="none"/><text x="657" y="-275" text-anchor="middle" font-size="13" fill="#333" font-family="-apple-system,BlinkMacSystemFont,sans-serif">有多少模块，多少页面，多少功能点</text><path d="M440,-180 C490,-180 490,-240 540,-240" fill="none" stroke="#77C386" stroke-width="2"/><rect x="540" y="-255" width="339.55999999999995" height="30" rx="6" fill="#fafafa" stroke="none"/><text x="709.78" y="-235" text-anchor="middle" font-size="13" fill="#333" font-family="-apple-system,BlinkMacSystemFont,sans-serif">哪些是用Web，哪些是用PDA，哪些需要对接外部系统？</text><path d="M440,-180 C490,-180 490,-200 540,-200" fill="none" stroke="#77C386" stroke-width="2"/><rect x="540" y="-215" width="377" height="30" rx="6" fill="#fafafa" stroke="none"/><text x="728.5" y="-195" text-anchor="middle" font-size="13" fill="#333" font-family="-apple-system,BlinkMacSystemFont,sans-serif">存在什么名词解释，概念解释，逻辑公式等需要提前整理好的</text><path d="M440,-180 C490,-180 490,-120 540,-120" fill="none" stroke="#77C386" stroke-width="2"/><rect x="540" y="-135" width="156" height="30" rx="6" fill="#fafafa" stroke="none"/><text x="618" y="-115" text-anchor="middle" font-size="13" fill="#333" font-family="-apple-system,BlinkMacSystemFont,sans-serif">可能会忽视的一些需求</text><path d="M696,-120 C708,-120 708,-160 720,-160" fill="none" stroke="#77C386" stroke-width="2"/><rect x="720" y="-175" width="80" height="30" rx="6" fill="#fafafa" stroke="none"/><text x="760" y="-155" text-anchor="middle" font-size="13" fill="#333" font-family="-apple-system,BlinkMacSystemFont,sans-serif">稳定性</text><path d="M696,-120 C708,-120 708,-120 720,-120" fill="none" stroke="#77C386" stroke-width="2"/><rect x="720" y="-135" width="80" height="30" rx="6" fill="#fafafa" stroke="none"/><text x="760" y="-115" text-anchor="middle" font-size="13" fill="#333" font-family="-apple-system,BlinkMacSystemFont,sans-serif">批量处理</text><path d="M696,-120 C708,-120 708,-80 720,-80" fill="none" stroke="#77C386" stroke-width="2"/><rect x="720" y="-95" width="104" height="30" rx="6" fill="#fafafa" stroke="none"/><text x="772" y="-75" text-anchor="middle" font-size="13" fill="#333" font-family="-apple-system,BlinkMacSystemFont,sans-serif">异常问题定位</text><path d="M284,-360 C322,-360 322,0 360,0" fill="none" stroke="#77C386" stroke-width="2"/><rect x="360" y="-15" width="80" height="30" rx="6" fill="#fafafa" stroke="none"/><text x="400" y="5" text-anchor="middle" font-size="13" fill="#333" font-family="-apple-system,BlinkMacSystemFont,sans-serif">其他</text><path d="M440,0 C490,0 490,-40 540,-40" fill="none" stroke="#77C386" stroke-width="2"/><rect x="540" y="-55" width="507.52" height="30" rx="6" fill="#fafafa" stroke="none"/><text x="793.76" y="-35" text-anchor="middle" font-size="13" fill="#333" font-family="-apple-system,BlinkMacSystemFont,sans-serif">海外仓要考虑多语言设计，UI设计的时候要考虑这个，产品设计的时候也要考虑这个</text><path d="M440,0 C490,0 490,0 540,0" fill="none" stroke="#77C386" stroke-width="2"/><rect x="540" y="-15" width="650" height="30" rx="6" fill="#fafafa" stroke="none"/><text x="865" y="5" text-anchor="middle" font-size="13" fill="#333" font-family="-apple-system,BlinkMacSystemFont,sans-serif">海外仓的用户有一些是华人，有一些是当地人，产品设计，产品风格要尽可能接近当地的应用，降低上手难度</text><path d="M440,0 C490,0 490,40 540,40" fill="none" stroke="#77C386" stroke-width="2"/><rect x="540" y="25" width="449.28" height="30" rx="6" fill="#fafafa" stroke="none"/><text x="764.64" y="45" text-anchor="middle" font-size="13" fill="#333" font-family="-apple-system,BlinkMacSystemFont,sans-serif">WMS有很多复杂的配置和逻辑判断，海外仓是否要接入？在什么节点接入？</text><path d="M116,0 C206,0 206,580 296,580" fill="none" stroke="#DFB85D" stroke-width="2"/><rect x="180" y="565" width="80" height="30" rx="6" fill="#EFF0F0" stroke="none"/><text x="220" y="585" text-anchor="middle" font-size="13" fill="#333" font-family="-apple-system,BlinkMacSystemFont,sans-serif">上架</text><path d="M260,580 C310,580 310,140 360,140" fill="none" stroke="#DFB85D" stroke-width="2"/><rect x="360" y="125" width="80" height="30" rx="6" fill="#fafafa" stroke="none"/><text x="400" y="145" text-anchor="middle" font-size="13" fill="#333" font-family="-apple-system,BlinkMacSystemFont,sans-serif">功能结构</text><path d="M440,140 C490,140 490,80 540,80" fill="none" stroke="#DFB85D" stroke-width="2"/><rect x="540" y="65" width="91" height="30" rx="6" fill="#fafafa" stroke="none"/><text x="585.5" y="85" text-anchor="middle" font-size="13" fill="#333" font-family="-apple-system,BlinkMacSystemFont,sans-serif">打印上架单</text><path d="M440,140 C490,140 490,120 540,120" fill="none" stroke="#DFB85D" stroke-width="2"/><rect x="540" y="105" width="215.28000000000003" height="30" rx="6" fill="#fafafa" stroke="none"/><text x="647.64" y="125" text-anchor="middle" font-size="13" fill="#333" font-family="-apple-system,BlinkMacSystemFont,sans-serif">推送上架任务到PDA（主动查询）</text><path d="M440,140 C490,140 490,160 540,160" fill="none" stroke="#DFB85D" stroke-width="2"/><rect x="540" y="145" width="104" height="30" rx="6" fill="#fafafa" stroke="none"/><text x="592" y="165" text-anchor="middle" font-size="13" fill="#333" font-family="-apple-system,BlinkMacSystemFont,sans-serif">查看上架历史</text><path d="M644,160 C682,160 682,160 720,160" fill="none" stroke="#DFB85D" stroke-width="2"/><rect x="720" y="145" width="111.28" height="30" rx="6" fill="#fafafa" stroke="none"/><text x="775.64" y="165" text-anchor="middle" font-size="13" fill="#333" font-family="-apple-system,BlinkMacSystemFont,sans-serif">包含RMA的上架</text><path d="M440,140 C490,140 490,200 540,200" fill="none" stroke="#DFB85D" stroke-width="2"/><rect x="540" y="185" width="189.27999999999997" height="30" rx="6" fill="#fafafa" stroke="none"/><text x="634.64" y="205" text-anchor="middle" font-size="13" fill="#333" font-family="-apple-system,BlinkMacSystemFont,sans-serif">上架结束的点需要通知给OMS</text><path d="M260,580 C310,580 310,580 360,580" fill="none" stroke="#DFB85D" stroke-width="2"/><rect x="360" y="565" width="80" height="30" rx="6" fill="#fafafa" stroke="none"/><text x="400" y="585" text-anchor="middle" font-size="13" fill="#333" font-family="-apple-system,BlinkMacSystemFont,sans-serif">信息结构</text><path d="M440,580 C490,580 490,240 540,240" fill="none" stroke="#DFB85D" stroke-width="2"/><rect x="540" y="225" width="80" height="30" rx="6" fill="#fafafa" stroke="none"/><text x="580" y="245" text-anchor="middle" font-size="13" fill="#333" font-family="-apple-system,BlinkMacSystemFont,sans-serif">入库单号</text><path d="M620,240 C670,240 670,240 720,240" fill="none" stroke="#DFB85D" stroke-width="2"/><rect x="720" y="225" width="111.28" height="30" rx="6" fill="#fafafa" stroke="none"/><text x="775.64" y="245" text-anchor="middle" font-size="13" fill="#333" font-family="-apple-system,BlinkMacSystemFont,sans-serif">OMS的入库单号</text><path d="M440,580 C490,580 490,280 540,280" fill="none" stroke="#DFB85D" stroke-width="2"/><rect x="540" y="265" width="80" height="30" rx="6" fill="#fafafa" stroke="none"/><text x="580" y="285" text-anchor="middle" font-size="13" fill="#333" font-family="-apple-system,BlinkMacSystemFont,sans-serif">上架单号</text><path d="M620,280 C670,280 670,280 720,280" fill="none" stroke="#DFB85D" stroke-width="2"/><rect x="720" y="265" width="150.8" height="30" rx="6" fill="#fafafa" stroke="none"/><text x="795.4" y="285" text-anchor="middle" font-size="13" fill="#333" font-family="-apple-system,BlinkMacSystemFont,sans-serif">WMS内部生成的入库ID</text><path d="M440,580 C490,580 490,340 540,340" fill="none" stroke="#DFB85D" stroke-width="2"/><rect x="540" y="325" width="80" height="30" rx="6" fill="#fafafa" stroke="none"/><text x="580" y="345" text-anchor="middle" font-size="13" fill="#333" font-family="-apple-system,BlinkMacSystemFont,sans-serif">客户</text><path d="M620,340 C670,340 670,320 720,320" fill="none" stroke="#DFB85D" stroke-width="2"/><rect x="720" y="305" width="80" height="30" rx="6" fill="#fafafa" stroke="none"/><text x="760" y="325" text-anchor="middle" font-size="13" fill="#333" font-family="-apple-system,BlinkMacSystemFont,sans-serif">客户代码</text><path d="M620,340 C670,340 670,360 720,360" fill="none" stroke="#DFB85D" stroke-width="2"/><rect x="720" y="345" width="80" height="30" rx="6" fill="#fafafa" stroke="none"/><text x="760" y="365" text-anchor="middle" font-size="13" fill="#333" font-family="-apple-system,BlinkMacSystemFont,sans-serif">客户名称</text><path d="M440,580 C490,580 490,420 540,420" fill="none" stroke="#DFB85D" stroke-width="2"/><rect x="540" y="405" width="80" height="30" rx="6" fill="#fafafa" stroke="none"/><text x="580" y="425" text-anchor="middle" font-size="13" fill="#333" font-family="-apple-system,BlinkMacSystemFont,sans-serif">库存数量</text><path d="M620,420 C670,420 670,400 720,400" fill="none" stroke="#DFB85D" stroke-width="2"/><rect x="720" y="385" width="80" height="30" rx="6" fill="#fafafa" stroke="none"/><text x="760" y="405" text-anchor="middle" font-size="13" fill="#333" font-family="-apple-system,BlinkMacSystemFont,sans-serif">正品</text><path d="M620,420 C670,420 670,440 720,440" fill="none" stroke="#DFB85D" stroke-width="2"/><rect x="720" y="425" width="80" height="30" rx="6" fill="#fafafa" stroke="none"/><text x="760" y="445" text-anchor="middle" font-size="13" fill="#333" font-family="-apple-system,BlinkMacSystemFont,sans-serif">次品</text><path d="M440,580 C490,580 490,480 540,480" fill="none" stroke="#DFB85D" stroke-width="2"/><rect x="540" y="465" width="80" height="30" rx="6" fill="#fafafa" stroke="none"/><text x="580" y="485" text-anchor="middle" font-size="13" fill="#333" font-family="-apple-system,BlinkMacSystemFont,sans-serif">收货时间</text><path d="M440,580 C490,580 490,520 540,520" fill="none" stroke="#DFB85D" stroke-width="2"/><rect x="540" y="505" width="80" height="30" rx="6" fill="#fafafa" stroke="none"/><text x="580" y="525" text-anchor="middle" font-size="13" fill="#333" font-family="-apple-system,BlinkMacSystemFont,sans-serif">上架时间</text><path d="M440,580 C490,580 490,660 540,660" fill="none" stroke="#DFB85D" stroke-width="2"/><rect x="540" y="645" width="80" height="30" rx="6" fill="#fafafa" stroke="none"/><text x="580" y="665" text-anchor="middle" font-size="13" fill="#333" font-family="-apple-system,BlinkMacSystemFont,sans-serif">产品明细</text><path d="M620,660 C670,660 670,580 720,580" fill="none" stroke="#DFB85D" stroke-width="2"/><rect x="720" y="565" width="80" height="30" rx="6" fill="#fafafa" stroke="none"/><text x="760" y="585" text-anchor="middle" font-size="13" fill="#333" font-family="-apple-system,BlinkMacSystemFont,sans-serif">库存属性</text><path d="M800,580 C850,580 850,560 900,560" fill="none" stroke="#DFB85D" stroke-width="2"/><rect x="900" y="545" width="80" height="30" rx="6" fill="#fafafa" stroke="none"/><text x="940" y="565" text-anchor="middle" font-size="13" fill="#333" font-family="-apple-system,BlinkMacSystemFont,sans-serif">正品</text><path d="M800,580 C850,580 850,600 900,600" fill="none" stroke="#DFB85D" stroke-width="2"/><rect x="900" y="585" width="80" height="30" rx="6" fill="#fafafa" stroke="none"/><text x="940" y="605" text-anchor="middle" font-size="13" fill="#333" font-family="-apple-system,BlinkMacSystemFont,sans-serif">次品</text><path d="M620,660 C670,660 670,640 720,640" fill="none" stroke="#DFB85D" stroke-width="2"/><rect x="720" y="625" width="80" height="30" rx="6" fill="#fafafa" stroke="none"/><text x="760" y="645" text-anchor="middle" font-size="13" fill="#333" font-family="-apple-system,BlinkMacSystemFont,sans-serif">SKU</text><path d="M620,660 C670,660 670,680 720,680" fill="none" stroke="#DFB85D" stroke-width="2"/><rect x="720" y="665" width="80" height="30" rx="6" fill="#fafafa" stroke="none"/><text x="760" y="685" text-anchor="middle" font-size="13" fill="#333" font-family="-apple-system,BlinkMacSystemFont,sans-serif">产品名称</text><path d="M620,660 C670,660 670,720 720,720" fill="none" stroke="#DFB85D" stroke-width="2"/><rect x="720" y="705" width="91" height="30" rx="6" fill="#fafafa" stroke="none"/><text x="765.5" y="725" text-anchor="middle" font-size="13" fill="#333" font-family="-apple-system,BlinkMacSystemFont,sans-serif">待上架数量</text><path d="M620,660 C670,660 670,760 720,760" fill="none" stroke="#DFB85D" stroke-width="2"/><rect x="720" y="745" width="91" height="30" rx="6" fill="#fafafa" stroke="none"/><text x="765.5" y="765" text-anchor="middle" font-size="13" fill="#333" font-family="-apple-system,BlinkMacSystemFont,sans-serif">已上架数量</text><path d="M440,580 C490,580 490,860 540,860" fill="none" stroke="#DFB85D" stroke-width="2"/><rect x="540" y="845" width="80" height="30" rx="6" fill="#fafafa" stroke="none"/><text x="580" y="865" text-anchor="middle" font-size="13" fill="#333" font-family="-apple-system,BlinkMacSystemFont,sans-serif">操作日志</text><path d="M620,860 C670,860 670,800 720,800" fill="none" stroke="#DFB85D" stroke-width="2"/><rect x="720" y="785" width="195" height="30" rx="6" fill="#fafafa" stroke="none"/><text x="817.5" y="805" text-anchor="middle" font-size="13" fill="#333" font-family="-apple-system,BlinkMacSystemFont,sans-serif">入库需要记录一些细节的节点</text><path d="M620,860 C670,860 670,840 720,840" fill="none" stroke="#DFB85D" stroke-width="2"/><rect x="720" y="825" width="221" height="30" rx="6" fill="#fafafa" stroke="none"/><text x="830.5" y="845" text-anchor="middle" font-size="13" fill="#333" font-family="-apple-system,BlinkMacSystemFont,sans-serif">什么时候到仓了，什么时候入库了</text><path d="M620,860 C670,860 670,880 720,880" fill="none" stroke="#DFB85D" stroke-width="2"/><rect x="720" y="865" width="247" height="30" rx="6" fill="#fafafa" stroke="none"/><text x="843.5" y="885" text-anchor="middle" font-size="13" fill="#333" font-family="-apple-system,BlinkMacSystemFont,sans-serif">什么时候收货了，什么时候完成上架了</text><path d="M620,860 C670,860 670,920 720,920" fill="none" stroke="#DFB85D" stroke-width="2"/><rect x="720" y="905" width="80" height="30" rx="6" fill="#fafafa" stroke="none"/><text x="760" y="925" text-anchor="middle" font-size="13" fill="#333" font-family="-apple-system,BlinkMacSystemFont,sans-serif">……</text><path d="M260,580 C310,580 310,1020 360,1020" fill="none" stroke="#DFB85D" stroke-width="2"/><rect x="360" y="1005" width="104" height="30" rx="6" fill="#fafafa" stroke="none"/><text x="412" y="1025" text-anchor="middle" font-size="13" fill="#333" font-family="-apple-system,BlinkMacSystemFont,sans-serif">核心业务流程</text><path d="M464,1020 C502,1020 502,960 540,960" fill="none" stroke="#DFB85D" stroke-width="2"/><rect x="540" y="945" width="117" height="30" rx="6" fill="#fafafa" stroke="none"/><text x="598.5" y="965" text-anchor="middle" font-size="13" fill="#333" font-family="-apple-system,BlinkMacSystemFont,sans-serif">库存流水的增加</text><path d="M464,1020 C502,1020 502,1000 540,1000" fill="none" stroke="#DFB85D" stroke-width="2"/><rect x="540" y="985" width="117" height="30" rx="6" fill="#fafafa" stroke="none"/><text x="598.5" y="1005" text-anchor="middle" font-size="13" fill="#333" font-family="-apple-system,BlinkMacSystemFont,sans-serif">批次库存的定义</text><path d="M464,1020 C502,1020 502,1040 540,1040" fill="none" stroke="#DFB85D" stroke-width="2"/><rect x="540" y="1025" width="91" height="30" rx="6" fill="#fafafa" stroke="none"/><text x="585.5" y="1045" text-anchor="middle" font-size="13" fill="#333" font-family="-apple-system,BlinkMacSystemFont,sans-serif">上架的策略</text><path d="M464,1020 C502,1020 502,1080 540,1080" fill="none" stroke="#DFB85D" stroke-width="2"/><rect x="540" y="1065" width="117" height="30" rx="6" fill="#fafafa" stroke="none"/><text x="598.5" y="1085" text-anchor="middle" font-size="13" fill="#333" font-family="-apple-system,BlinkMacSystemFont,sans-serif">库存属性的考量</text>
</svg>