<svg xmlns="http://www.w3.org/2000/svg" xmlns:xlink="http://www.w3.org/1999/xlink"
  viewBox="-180.48000000000002 -1599 1801.3999999999992 3198" width="1801.3999999999992" height="3198"
  style="background:#fff; font-family:-apple-system,BlinkMacSystemFont,'Segoe UI',Roboto,sans-serif;">
<defs></defs>
<rect x="-180.48000000000002" y="-1599" width="1801.3999999999992" height="3198" fill="#fff"/>
<rect x="-96.48" y="-18" width="192.96" height="36" rx="8" fill="#EFF0F0" stroke="none"/><text x="0" y="6" text-anchor="middle" font-size="16" font-weight="bold" fill="#333" font-family="-apple-system,BlinkMacSystemFont,sans-serif">电商ERP对接的上下游</text><path d="M96.48,0 C186.48000000000002,0 186.48000000000002,-1180 276.48,-1180" fill="none" stroke="#A287E1" stroke-width="2"/><rect x="180" y="-1195" width="80" height="30" rx="6" fill="#fafafa" stroke="none"/><text x="220" y="-1175" text-anchor="middle" font-size="13" fill="#333" font-family="-apple-system,BlinkMacSystemFont,sans-serif">电商平台</text><path d="M260,-1180 C310,-1180 310,-1420 360,-1420" fill="none" stroke="#A287E1" stroke-width="2"/><rect x="360" y="-1435" width="80" height="30" rx="6" fill="#fafafa" stroke="none"/><text x="400" y="-1415" text-anchor="middle" font-size="13" fill="#333" font-family="-apple-system,BlinkMacSystemFont,sans-serif">国内</text><path d="M440,-1420 C490,-1420 490,-1500 540,-1500" fill="none" stroke="#A287E1" stroke-width="2"/><rect x="540" y="-1515" width="80" height="30" rx="6" fill="#fafafa" stroke="none"/><text x="580" y="-1495" text-anchor="middle" font-size="13" fill="#333" font-family="-apple-system,BlinkMacSystemFont,sans-serif">淘宝</text><path d="M620,-1500 C670,-1500 670,-1500 720,-1500" fill="none" stroke="#A287E1" stroke-width="2"/><rect x="720" y="-1515" width="816.9199999999992" height="30" rx="6" fill="#fafafa" stroke="none"/><text x="1128.4599999999996" y="-1495" text-anchor="middle" font-size="13" fill="#333" font-family="-apple-system,BlinkMacSystemFont,sans-serif">https://open.taobao.com/v2/doc?spm=a219a.15212433.0.0.1409669ayUtkew#/abilityToOpen?docType=1&amp;docId=120777&amp;treeId=779</text><path d="M440,-1420 C490,-1420 490,-1460 540,-1460" fill="none" stroke="#A287E1" stroke-width="2"/><rect x="540" y="-1475" width="80" height="30" rx="6" fill="#fafafa" stroke="none"/><text x="580" y="-1455" text-anchor="middle" font-size="13" fill="#333" font-family="-apple-system,BlinkMacSystemFont,sans-serif">拼多多</text><path d="M620,-1460 C670,-1460 670,-1460 720,-1460" fill="none" stroke="#A287E1" stroke-width="2"/><rect x="720" y="-1475" width="796.6399999999992" height="30" rx="6" fill="#fafafa" stroke="none"/><text x="1118.3199999999997" y="-1455" text-anchor="middle" font-size="13" fill="#333" font-family="-apple-system,BlinkMacSystemFont,sans-serif">https://open.pinduoduo.com/application/softwareService/list?role=softwareService&amp;activeKey=1&amp;alias=application_ERP</text><path d="M440,-1420 C490,-1420 490,-1420 540,-1420" fill="none" stroke="#A287E1" stroke-width="2"/><rect x="540" y="-1435" width="80" height="30" rx="6" fill="#fafafa" stroke="none"/><text x="580" y="-1415" text-anchor="middle" font-size="13" fill="#333" font-family="-apple-system,BlinkMacSystemFont,sans-serif">京东</text><path d="M620,-1420 C670,-1420 670,-1420 720,-1420" fill="none" stroke="#A287E1" stroke-width="2"/><rect x="720" y="-1435" width="323.4399999999998" height="30" rx="6" fill="#fafafa" stroke="none"/><text x="881.7199999999999" y="-1415" text-anchor="middle" font-size="13" fill="#333" font-family="-apple-system,BlinkMacSystemFont,sans-serif">https://open.jd.com/home/home/#/open/sanfang</text><path d="M440,-1420 C490,-1420 490,-1380 540,-1380" fill="none" stroke="#A287E1" stroke-width="2"/><rect x="540" y="-1395" width="80" height="30" rx="6" fill="#fafafa" stroke="none"/><text x="580" y="-1375" text-anchor="middle" font-size="13" fill="#333" font-family="-apple-system,BlinkMacSystemFont,sans-serif">抖音</text><path d="M620,-1380 C670,-1380 670,-1380 720,-1380" fill="none" stroke="#A287E1" stroke-width="2"/><rect x="720" y="-1395" width="620.8799999999994" height="30" rx="6" fill="#fafafa" stroke="none"/><text x="1030.4399999999996" y="-1375" text-anchor="middle" font-size="13" fill="#333" font-family="-apple-system,BlinkMacSystemFont,sans-serif">https://developer.open-douyin.com/docs/resource/zh-CN/thirdparty/overview/platform-intro</text><path d="M440,-1420 C490,-1420 490,-1340 540,-1340" fill="none" stroke="#A287E1" stroke-width="2"/><rect x="540" y="-1355" width="80" height="30" rx="6" fill="#fafafa" stroke="none"/><text x="580" y="-1335" text-anchor="middle" font-size="13" fill="#333" font-family="-apple-system,BlinkMacSystemFont,sans-serif">小红书</text><path d="M620,-1340 C670,-1340 670,-1340 720,-1340" fill="none" stroke="#A287E1" stroke-width="2"/><rect x="720" y="-1355" width="397.7999999999997" height="30" rx="6" fill="#fafafa" stroke="none"/><text x="918.8999999999999" y="-1335" text-anchor="middle" font-size="13" fill="#333" font-family="-apple-system,BlinkMacSystemFont,sans-serif">https://open.xiaohongshu.com/document/developer/file/32</text><path d="M260,-1180 C310,-1180 310,-1240 360,-1240" fill="none" stroke="#A287E1" stroke-width="2"/><rect x="360" y="-1255" width="80" height="30" rx="6" fill="#fafafa" stroke="none"/><text x="400" y="-1235" text-anchor="middle" font-size="13" fill="#333" font-family="-apple-system,BlinkMacSystemFont,sans-serif">跨境</text><path d="M440,-1240 C490,-1240 490,-1300 540,-1300" fill="none" stroke="#A287E1" stroke-width="2"/><rect x="540" y="-1315" width="80" height="30" rx="6" fill="#fafafa" stroke="none"/><text x="580" y="-1295" text-anchor="middle" font-size="13" fill="#333" font-family="-apple-system,BlinkMacSystemFont,sans-serif">亚马逊</text><path d="M620,-1300 C670,-1300 670,-1300 720,-1300" fill="none" stroke="#A287E1" stroke-width="2"/><rect x="720" y="-1315" width="465.39999999999964" height="30" rx="6" fill="#fafafa" stroke="none"/><text x="952.6999999999998" y="-1295" text-anchor="middle" font-size="13" fill="#333" font-family="-apple-system,BlinkMacSystemFont,sans-serif">https://developer-docs.amazon.com/sp-api/docs/orders-api-v0-model</text><path d="M440,-1240 C490,-1240 490,-1260 540,-1260" fill="none" stroke="#A287E1" stroke-width="2"/><rect x="540" y="-1275" width="80" height="30" rx="6" fill="#fafafa" stroke="none"/><text x="580" y="-1255" text-anchor="middle" font-size="13" fill="#333" font-family="-apple-system,BlinkMacSystemFont,sans-serif">eBay</text><path d="M620,-1260 C670,-1260 670,-1260 720,-1260" fill="none" stroke="#A287E1" stroke-width="2"/><rect x="720" y="-1275" width="445.11999999999966" height="30" rx="6" fill="#fafafa" stroke="none"/><text x="942.5599999999998" y="-1255" text-anchor="middle" font-size="13" fill="#333" font-family="-apple-system,BlinkMacSystemFont,sans-serif">https://developer.ebay.com/develop/apis/restful-apis/sell-apis</text><path d="M440,-1240 C490,-1240 490,-1220 540,-1220" fill="none" stroke="#A287E1" stroke-width="2"/><rect x="540" y="-1235" width="80" height="30" rx="6" fill="#fafafa" stroke="none"/><text x="580" y="-1215" text-anchor="middle" font-size="13" fill="#333" font-family="-apple-system,BlinkMacSystemFont,sans-serif">速卖通</text><path d="M620,-1220 C670,-1220 670,-1220 720,-1220" fill="none" stroke="#A287E1" stroke-width="2"/><rect x="720" y="-1235" width="458.63999999999965" height="30" rx="6" fill="#fafafa" stroke="none"/><text x="949.3199999999998" y="-1215" text-anchor="middle" font-size="13" fill="#333" font-family="-apple-system,BlinkMacSystemFont,sans-serif">https://developers.aliexpress.com/doc.htm?docId=108334&amp;docType=1</text><path d="M440,-1240 C490,-1240 490,-1180 540,-1180" fill="none" stroke="#A287E1" stroke-width="2"/><rect x="540" y="-1195" width="80" height="30" rx="6" fill="#fafafa" stroke="none"/><text x="580" y="-1175" text-anchor="middle" font-size="13" fill="#333" font-family="-apple-system,BlinkMacSystemFont,sans-serif">Shopee</text><path d="M620,-1180 C670,-1180 670,-1180 720,-1180" fill="none" stroke="#A287E1" stroke-width="2"/><rect x="720" y="-1195" width="478.9199999999996" height="30" rx="6" fill="#fafafa" stroke="none"/><text x="959.4599999999998" y="-1175" text-anchor="middle" font-size="13" fill="#333" font-family="-apple-system,BlinkMacSystemFont,sans-serif">https://open.shopee.com/documents?module=94&amp;type=1&amp;id=557&amp;version=2</text><path d="M260,-1180 C310,-1180 310,-1000 360,-1000" fill="none" stroke="#A287E1" stroke-width="2"/><rect x="360" y="-1015" width="91" height="30" rx="6" fill="#fafafa" stroke="none"/><text x="405.5" y="-995" text-anchor="middle" font-size="13" fill="#333" font-family="-apple-system,BlinkMacSystemFont,sans-serif">对接的内容</text><path d="M451,-1000 C495.5,-1000 495.5,-1140 540,-1140" fill="none" stroke="#A287E1" stroke-width="2"/><rect x="540" y="-1155" width="104" height="30" rx="6" fill="#fafafa" stroke="none"/><text x="592" y="-1135" text-anchor="middle" font-size="13" fill="#333" font-family="-apple-system,BlinkMacSystemFont,sans-serif">电商平台授权</text><path d="M451,-1000 C495.5,-1000 495.5,-1100 540,-1100" fill="none" stroke="#A287E1" stroke-width="2"/><rect x="540" y="-1115" width="80" height="30" rx="6" fill="#fafafa" stroke="none"/><text x="580" y="-1095" text-anchor="middle" font-size="13" fill="#333" font-family="-apple-system,BlinkMacSystemFont,sans-serif">店铺</text><path d="M451,-1000 C495.5,-1000 495.5,-1060 540,-1060" fill="none" stroke="#A287E1" stroke-width="2"/><rect x="540" y="-1075" width="80" height="30" rx="6" fill="#fafafa" stroke="none"/><text x="580" y="-1055" text-anchor="middle" font-size="13" fill="#333" font-family="-apple-system,BlinkMacSystemFont,sans-serif">商品</text><path d="M451,-1000 C495.5,-1000 495.5,-1020 540,-1020" fill="none" stroke="#A287E1" stroke-width="2"/><rect x="540" y="-1035" width="80" height="30" rx="6" fill="#fafafa" stroke="none"/><text x="580" y="-1015" text-anchor="middle" font-size="13" fill="#333" font-family="-apple-system,BlinkMacSystemFont,sans-serif">订单</text><path d="M451,-1000 C495.5,-1000 495.5,-980 540,-980" fill="none" stroke="#A287E1" stroke-width="2"/><rect x="540" y="-995" width="80" height="30" rx="6" fill="#fafafa" stroke="none"/><text x="580" y="-975" text-anchor="middle" font-size="13" fill="#333" font-family="-apple-system,BlinkMacSystemFont,sans-serif">库存</text><path d="M451,-1000 C495.5,-1000 495.5,-940 540,-940" fill="none" stroke="#A287E1" stroke-width="2"/><rect x="540" y="-955" width="80" height="30" rx="6" fill="#fafafa" stroke="none"/><text x="580" y="-935" text-anchor="middle" font-size="13" fill="#333" font-family="-apple-system,BlinkMacSystemFont,sans-serif">售后</text><path d="M451,-1000 C495.5,-1000 495.5,-900 540,-900" fill="none" stroke="#A287E1" stroke-width="2"/><rect x="540" y="-915" width="80" height="30" rx="6" fill="#fafafa" stroke="none"/><text x="580" y="-895" text-anchor="middle" font-size="13" fill="#333" font-family="-apple-system,BlinkMacSystemFont,sans-serif">财务</text><path d="M451,-1000 C495.5,-1000 495.5,-860 540,-860" fill="none" stroke="#A287E1" stroke-width="2"/><rect x="540" y="-875" width="80" height="30" rx="6" fill="#fafafa" stroke="none"/><text x="580" y="-855" text-anchor="middle" font-size="13" fill="#333" font-family="-apple-system,BlinkMacSystemFont,sans-serif">报表</text><path d="M96.48,0 C186.48000000000002,0 186.48000000000002,-560 276.48,-560" fill="none" stroke="#6F81DB" stroke-width="2"/><rect x="180" y="-575" width="80" height="30" rx="6" fill="#fafafa" stroke="none"/><text x="220" y="-555" text-anchor="middle" font-size="13" fill="#333" font-family="-apple-system,BlinkMacSystemFont,sans-serif">仓库</text><path d="M260,-560 C310,-560 310,-780 360,-780" fill="none" stroke="#6F81DB" stroke-width="2"/><rect x="360" y="-795" width="85.28" height="30" rx="6" fill="#fafafa" stroke="none"/><text x="402.64" y="-775" text-anchor="middle" font-size="13" fill="#333" font-family="-apple-system,BlinkMacSystemFont,sans-serif">国内仓WMS</text><path d="M445.28,-780 C492.64,-780 492.64,-820 540,-820" fill="none" stroke="#6F81DB" stroke-width="2"/><rect x="540" y="-835" width="80" height="30" rx="6" fill="#fafafa" stroke="none"/><text x="580" y="-815" text-anchor="middle" font-size="13" fill="#333" font-family="-apple-system,BlinkMacSystemFont,sans-serif">京东</text><path d="M445.28,-780 C492.64,-780 492.64,-780 540,-780" fill="none" stroke="#6F81DB" stroke-width="2"/><rect x="540" y="-795" width="80" height="30" rx="6" fill="#fafafa" stroke="none"/><text x="580" y="-775" text-anchor="middle" font-size="13" fill="#333" font-family="-apple-system,BlinkMacSystemFont,sans-serif">菜鸟</text><path d="M445.28,-780 C492.64,-780 492.64,-740 540,-740" fill="none" stroke="#6F81DB" stroke-width="2"/><rect x="540" y="-755" width="80" height="30" rx="6" fill="#fafafa" stroke="none"/><text x="580" y="-735" text-anchor="middle" font-size="13" fill="#333" font-family="-apple-system,BlinkMacSystemFont,sans-serif">顺丰</text><path d="M260,-560 C310,-560 310,-640 360,-640" fill="none" stroke="#6F81DB" stroke-width="2"/><rect x="360" y="-655" width="85.28" height="30" rx="6" fill="#fafafa" stroke="none"/><text x="402.64" y="-635" text-anchor="middle" font-size="13" fill="#333" font-family="-apple-system,BlinkMacSystemFont,sans-serif">海外仓WMS</text><path d="M445.28,-640 C492.64,-640 492.64,-700 540,-700" fill="none" stroke="#6F81DB" stroke-width="2"/><rect x="540" y="-715" width="80" height="30" rx="6" fill="#fafafa" stroke="none"/><text x="580" y="-695" text-anchor="middle" font-size="13" fill="#333" font-family="-apple-system,BlinkMacSystemFont,sans-serif">谷仓</text><path d="M445.28,-640 C492.64,-640 492.64,-660 540,-660" fill="none" stroke="#6F81DB" stroke-width="2"/><rect x="540" y="-675" width="80" height="30" rx="6" fill="#fafafa" stroke="none"/><text x="580" y="-655" text-anchor="middle" font-size="13" fill="#333" font-family="-apple-system,BlinkMacSystemFont,sans-serif">4px</text><path d="M445.28,-640 C492.64,-640 492.64,-620 540,-620" fill="none" stroke="#6F81DB" stroke-width="2"/><rect x="540" y="-635" width="80" height="30" rx="6" fill="#fafafa" stroke="none"/><text x="580" y="-615" text-anchor="middle" font-size="13" fill="#333" font-family="-apple-system,BlinkMacSystemFont,sans-serif">万邑通</text><path d="M445.28,-640 C492.64,-640 492.64,-580 540,-580" fill="none" stroke="#6F81DB" stroke-width="2"/><rect x="540" y="-595" width="117" height="30" rx="6" fill="#fafafa" stroke="none"/><text x="598.5" y="-575" text-anchor="middle" font-size="13" fill="#333" font-family="-apple-system,BlinkMacSystemFont,sans-serif">京东国际海外仓</text><path d="M260,-560 C310,-560 310,-420 360,-420" fill="none" stroke="#6F81DB" stroke-width="2"/><rect x="360" y="-435" width="91" height="30" rx="6" fill="#fafafa" stroke="none"/><text x="405.5" y="-415" text-anchor="middle" font-size="13" fill="#333" font-family="-apple-system,BlinkMacSystemFont,sans-serif">对接的内容</text><path d="M451,-420 C495.5,-420 495.5,-540 540,-540" fill="none" stroke="#6F81DB" stroke-width="2"/><rect x="540" y="-555" width="91" height="30" rx="6" fill="#fafafa" stroke="none"/><text x="585.5" y="-535" text-anchor="middle" font-size="13" fill="#333" font-family="-apple-system,BlinkMacSystemFont,sans-serif">仓库的授权</text><path d="M451,-420 C495.5,-420 495.5,-500 540,-500" fill="none" stroke="#6F81DB" stroke-width="2"/><rect x="540" y="-515" width="80" height="30" rx="6" fill="#fafafa" stroke="none"/><text x="580" y="-495" text-anchor="middle" font-size="13" fill="#333" font-family="-apple-system,BlinkMacSystemFont,sans-serif">仓库清单</text><path d="M451,-420 C495.5,-420 495.5,-460 540,-460" fill="none" stroke="#6F81DB" stroke-width="2"/><rect x="540" y="-475" width="80" height="30" rx="6" fill="#fafafa" stroke="none"/><text x="580" y="-455" text-anchor="middle" font-size="13" fill="#333" font-family="-apple-system,BlinkMacSystemFont,sans-serif">入库单</text><path d="M451,-420 C495.5,-420 495.5,-420 540,-420" fill="none" stroke="#6F81DB" stroke-width="2"/><rect x="540" y="-435" width="80" height="30" rx="6" fill="#fafafa" stroke="none"/><text x="580" y="-415" text-anchor="middle" font-size="13" fill="#333" font-family="-apple-system,BlinkMacSystemFont,sans-serif">出库单</text><path d="M451,-420 C495.5,-420 495.5,-380 540,-380" fill="none" stroke="#6F81DB" stroke-width="2"/><rect x="540" y="-395" width="80" height="30" rx="6" fill="#fafafa" stroke="none"/><text x="580" y="-375" text-anchor="middle" font-size="13" fill="#333" font-family="-apple-system,BlinkMacSystemFont,sans-serif">库存</text><path d="M451,-420 C495.5,-420 495.5,-340 540,-340" fill="none" stroke="#6F81DB" stroke-width="2"/><rect x="540" y="-355" width="80" height="30" rx="6" fill="#fafafa" stroke="none"/><text x="580" y="-335" text-anchor="middle" font-size="13" fill="#333" font-family="-apple-system,BlinkMacSystemFont,sans-serif">物流</text><path d="M451,-420 C495.5,-420 495.5,-300 540,-300" fill="none" stroke="#6F81DB" stroke-width="2"/><rect x="540" y="-315" width="80" height="30" rx="6" fill="#fafafa" stroke="none"/><text x="580" y="-295" text-anchor="middle" font-size="13" fill="#333" font-family="-apple-system,BlinkMacSystemFont,sans-serif">计费</text><path d="M96.48,0 C186.48000000000002,0 186.48000000000002,80 276.48,80" fill="none" stroke="#6EC4C4" stroke-width="2"/><rect x="180" y="65" width="80" height="30" rx="6" fill="#fafafa" stroke="none"/><text x="220" y="85" text-anchor="middle" font-size="13" fill="#333" font-family="-apple-system,BlinkMacSystemFont,sans-serif">物流</text><path d="M260,80 C310,80 310,-220 360,-220" fill="none" stroke="#6EC4C4" stroke-width="2"/><rect x="360" y="-235" width="80" height="30" rx="6" fill="#fafafa" stroke="none"/><text x="400" y="-215" text-anchor="middle" font-size="13" fill="#333" font-family="-apple-system,BlinkMacSystemFont,sans-serif">国内</text><path d="M440,-220 C490,-220 490,-260 540,-260" fill="none" stroke="#6EC4C4" stroke-width="2"/><rect x="540" y="-275" width="80" height="30" rx="6" fill="#fafafa" stroke="none"/><text x="580" y="-255" text-anchor="middle" font-size="13" fill="#333" font-family="-apple-system,BlinkMacSystemFont,sans-serif">菜鸟</text><path d="M440,-220 C490,-220 490,-220 540,-220" fill="none" stroke="#6EC4C4" stroke-width="2"/><rect x="540" y="-235" width="80" height="30" rx="6" fill="#fafafa" stroke="none"/><text x="580" y="-215" text-anchor="middle" font-size="13" fill="#333" font-family="-apple-system,BlinkMacSystemFont,sans-serif">京东</text><path d="M440,-220 C490,-220 490,-180 540,-180" fill="none" stroke="#6EC4C4" stroke-width="2"/><rect x="540" y="-195" width="80" height="30" rx="6" fill="#fafafa" stroke="none"/><text x="580" y="-175" text-anchor="middle" font-size="13" fill="#333" font-family="-apple-system,BlinkMacSystemFont,sans-serif">顺丰</text><path d="M260,80 C310,80 310,-60 360,-60" fill="none" stroke="#6EC4C4" stroke-width="2"/><rect x="360" y="-75" width="80" height="30" rx="6" fill="#fafafa" stroke="none"/><text x="400" y="-55" text-anchor="middle" font-size="13" fill="#333" font-family="-apple-system,BlinkMacSystemFont,sans-serif">跨境</text><path d="M440,-60 C490,-60 490,-140 540,-140" fill="none" stroke="#6EC4C4" stroke-width="2"/><rect x="540" y="-155" width="80" height="30" rx="6" fill="#fafafa" stroke="none"/><text x="580" y="-135" text-anchor="middle" font-size="13" fill="#333" font-family="-apple-system,BlinkMacSystemFont,sans-serif">云途</text><path d="M440,-60 C490,-60 490,-100 540,-100" fill="none" stroke="#6EC4C4" stroke-width="2"/><rect x="540" y="-115" width="80" height="30" rx="6" fill="#fafafa" stroke="none"/><text x="580" y="-95" text-anchor="middle" font-size="13" fill="#333" font-family="-apple-system,BlinkMacSystemFont,sans-serif">4px</text><path d="M440,-60 C490,-60 490,-60 540,-60" fill="none" stroke="#6EC4C4" stroke-width="2"/><rect x="540" y="-75" width="80" height="30" rx="6" fill="#fafafa" stroke="none"/><text x="580" y="-55" text-anchor="middle" font-size="13" fill="#333" font-family="-apple-system,BlinkMacSystemFont,sans-serif">UPS</text><path d="M440,-60 C490,-60 490,-20 540,-20" fill="none" stroke="#6EC4C4" stroke-width="2"/><rect x="540" y="-35" width="80" height="30" rx="6" fill="#fafafa" stroke="none"/><text x="580" y="-15" text-anchor="middle" font-size="13" fill="#333" font-family="-apple-system,BlinkMacSystemFont,sans-serif">FedEx</text><path d="M440,-60 C490,-60 490,20 540,20" fill="none" stroke="#6EC4C4" stroke-width="2"/><rect x="540" y="5" width="80" height="30" rx="6" fill="#fafafa" stroke="none"/><text x="580" y="25" text-anchor="middle" font-size="13" fill="#333" font-family="-apple-system,BlinkMacSystemFont,sans-serif">DHL</text><path d="M260,80 C310,80 310,140 360,140" fill="none" stroke="#6EC4C4" stroke-width="2"/><rect x="360" y="125" width="80" height="30" rx="6" fill="#fafafa" stroke="none"/><text x="400" y="145" text-anchor="middle" font-size="13" fill="#333" font-family="-apple-system,BlinkMacSystemFont,sans-serif">物流轨迹</text><path d="M440,140 C490,140 490,60 540,60" fill="none" stroke="#6EC4C4" stroke-width="2"/><rect x="540" y="45" width="80" height="30" rx="6" fill="#fafafa" stroke="none"/><text x="580" y="65" text-anchor="middle" font-size="13" fill="#333" font-family="-apple-system,BlinkMacSystemFont,sans-serif">快递100</text><path d="M440,140 C490,140 490,100 540,100" fill="none" stroke="#6EC4C4" stroke-width="2"/><rect x="540" y="85" width="80" height="30" rx="6" fill="#fafafa" stroke="none"/><text x="580" y="105" text-anchor="middle" font-size="13" fill="#333" font-family="-apple-system,BlinkMacSystemFont,sans-serif">菜鸟</text><path d="M440,140 C490,140 490,140 540,140" fill="none" stroke="#6EC4C4" stroke-width="2"/><rect x="540" y="125" width="80" height="30" rx="6" fill="#fafafa" stroke="none"/><text x="580" y="145" text-anchor="middle" font-size="13" fill="#333" font-family="-apple-system,BlinkMacSystemFont,sans-serif">快递鸟</text><path d="M440,140 C490,140 490,180 540,180" fill="none" stroke="#6EC4C4" stroke-width="2"/><rect x="540" y="165" width="80" height="30" rx="6" fill="#fafafa" stroke="none"/><text x="580" y="185" text-anchor="middle" font-size="13" fill="#333" font-family="-apple-system,BlinkMacSystemFont,sans-serif">17Track</text><path d="M440,140 C490,140 490,220 540,220" fill="none" stroke="#6EC4C4" stroke-width="2"/><rect x="540" y="205" width="80" height="30" rx="6" fill="#fafafa" stroke="none"/><text x="580" y="225" text-anchor="middle" font-size="13" fill="#333" font-family="-apple-system,BlinkMacSystemFont,sans-serif">51Track</text><path d="M260,80 C310,80 310,340 360,340" fill="none" stroke="#6EC4C4" stroke-width="2"/><rect x="360" y="325" width="91" height="30" rx="6" fill="#fafafa" stroke="none"/><text x="405.5" y="345" text-anchor="middle" font-size="13" fill="#333" font-family="-apple-system,BlinkMacSystemFont,sans-serif">对接的内容</text><path d="M451,340 C495.5,340 495.5,260 540,260" fill="none" stroke="#6EC4C4" stroke-width="2"/><rect x="540" y="245" width="91" height="30" rx="6" fill="#fafafa" stroke="none"/><text x="585.5" y="265" text-anchor="middle" font-size="13" fill="#333" font-family="-apple-system,BlinkMacSystemFont,sans-serif">物流的授权</text><path d="M451,340 C495.5,340 495.5,300 540,300" fill="none" stroke="#6EC4C4" stroke-width="2"/><rect x="540" y="285" width="80" height="30" rx="6" fill="#fafafa" stroke="none"/><text x="580" y="305" text-anchor="middle" font-size="13" fill="#333" font-family="-apple-system,BlinkMacSystemFont,sans-serif">物流服务</text><path d="M451,340 C495.5,340 495.5,340 540,340" fill="none" stroke="#6EC4C4" stroke-width="2"/><rect x="540" y="325" width="80" height="30" rx="6" fill="#fafafa" stroke="none"/><text x="580" y="345" text-anchor="middle" font-size="13" fill="#333" font-family="-apple-system,BlinkMacSystemFont,sans-serif">物流下单</text><path d="M451,340 C495.5,340 495.5,380 540,380" fill="none" stroke="#6EC4C4" stroke-width="2"/><rect x="540" y="365" width="80" height="30" rx="6" fill="#fafafa" stroke="none"/><text x="580" y="385" text-anchor="middle" font-size="13" fill="#333" font-family="-apple-system,BlinkMacSystemFont,sans-serif">物流轨迹</text><path d="M451,340 C495.5,340 495.5,420 540,420" fill="none" stroke="#6EC4C4" stroke-width="2"/><rect x="540" y="405" width="80" height="30" rx="6" fill="#fafafa" stroke="none"/><text x="580" y="425" text-anchor="middle" font-size="13" fill="#333" font-family="-apple-system,BlinkMacSystemFont,sans-serif">物流费用</text><path d="M96.48,0 C186.48000000000002,0 186.48000000000002,540 276.48,540" fill="none" stroke="#E48484" stroke-width="2"/><rect x="180" y="525" width="97.75999999999999" height="30" rx="6" fill="#fafafa" stroke="none"/><text x="228.88" y="545" text-anchor="middle" font-size="13" fill="#333" font-family="-apple-system,BlinkMacSystemFont,sans-serif">支付/收款类</text><path d="M277.76,540 C318.88,540 318.88,460 360,460" fill="none" stroke="#E48484" stroke-width="2"/><rect x="360" y="445" width="80" height="30" rx="6" fill="#fafafa" stroke="none"/><text x="400" y="465" text-anchor="middle" font-size="13" fill="#333" font-family="-apple-system,BlinkMacSystemFont,sans-serif">支付宝</text><path d="M277.76,540 C318.88,540 318.88,500 360,500" fill="none" stroke="#E48484" stroke-width="2"/><rect x="360" y="485" width="80" height="30" rx="6" fill="#fafafa" stroke="none"/><text x="400" y="505" text-anchor="middle" font-size="13" fill="#333" font-family="-apple-system,BlinkMacSystemFont,sans-serif">微信</text><path d="M277.76,540 C318.88,540 318.88,540 360,540" fill="none" stroke="#E48484" stroke-width="2"/><rect x="360" y="525" width="80" height="30" rx="6" fill="#fafafa" stroke="none"/><text x="400" y="545" text-anchor="middle" font-size="13" fill="#333" font-family="-apple-system,BlinkMacSystemFont,sans-serif">连连国际</text><path d="M277.76,540 C318.88,540 318.88,580 360,580" fill="none" stroke="#E48484" stroke-width="2"/><rect x="360" y="565" width="80" height="30" rx="6" fill="#fafafa" stroke="none"/><text x="400" y="585" text-anchor="middle" font-size="13" fill="#333" font-family="-apple-system,BlinkMacSystemFont,sans-serif">PayPal</text><path d="M277.76,540 C318.88,540 318.88,620 360,620" fill="none" stroke="#E48484" stroke-width="2"/><rect x="360" y="605" width="80.07999999999998" height="30" rx="6" fill="#fafafa" stroke="none"/><text x="400.03999999999996" y="625" text-anchor="middle" font-size="13" fill="#333" font-family="-apple-system,BlinkMacSystemFont,sans-serif">Payoneer</text><path d="M96.48,0 C186.48000000000002,0 186.48000000000002,820 276.48,820" fill="none" stroke="#E48484" stroke-width="2"/><rect x="180" y="805" width="97.75999999999999" height="30" rx="6" fill="#fafafa" stroke="none"/><text x="228.88" y="825" text-anchor="middle" font-size="13" fill="#333" font-family="-apple-system,BlinkMacSystemFont,sans-serif">财务/税务类</text><path d="M277.76,820 C318.88,820 318.88,660 360,660" fill="none" stroke="#E48484" stroke-width="2"/><rect x="360" y="645" width="80" height="30" rx="6" fill="#fafafa" stroke="none"/><text x="400" y="665" text-anchor="middle" font-size="13" fill="#333" font-family="-apple-system,BlinkMacSystemFont,sans-serif">金蝶</text><path d="M277.76,820 C318.88,820 318.88,700 360,700" fill="none" stroke="#E48484" stroke-width="2"/><rect x="360" y="685" width="80" height="30" rx="6" fill="#fafafa" stroke="none"/><text x="400" y="705" text-anchor="middle" font-size="13" fill="#333" font-family="-apple-system,BlinkMacSystemFont,sans-serif">用友</text><path d="M277.76,820 C318.88,820 318.88,740 360,740" fill="none" stroke="#E48484" stroke-width="2"/><rect x="360" y="725" width="80" height="30" rx="6" fill="#fafafa" stroke="none"/><text x="400" y="745" text-anchor="middle" font-size="13" fill="#333" font-family="-apple-system,BlinkMacSystemFont,sans-serif">SAP</text><path d="M277.76,820 C318.88,820 318.88,780 360,780" fill="none" stroke="#E48484" stroke-width="2"/><rect x="360" y="765" width="80" height="30" rx="6" fill="#fafafa" stroke="none"/><text x="400" y="785" text-anchor="middle" font-size="13" fill="#333" font-family="-apple-system,BlinkMacSystemFont,sans-serif">诺税通</text><path d="M277.76,820 C318.88,820 318.88,820 360,820" fill="none" stroke="#E48484" stroke-width="2"/><rect x="360" y="805" width="80" height="30" rx="6" fill="#fafafa" stroke="none"/><text x="400" y="825" text-anchor="middle" font-size="13" fill="#333" font-family="-apple-system,BlinkMacSystemFont,sans-serif">欧税通</text><path d="M277.76,820 C318.88,820 318.88,860 360,860" fill="none" stroke="#E48484" stroke-width="2"/><rect x="360" y="845" width="80" height="30" rx="6" fill="#fafafa" stroke="none"/><text x="400" y="865" text-anchor="middle" font-size="13" fill="#333" font-family="-apple-system,BlinkMacSystemFont,sans-serif">跨税云</text><path d="M277.76,820 C318.88,820 318.88,900 360,900" fill="none" stroke="#E48484" stroke-width="2"/><rect x="360" y="885" width="91" height="30" rx="6" fill="transparent" stroke="#BFBFBF"/><text x="405.5" y="905" text-anchor="middle" font-size="13" fill="#333" font-family="-apple-system,BlinkMacSystemFont,sans-serif">业财一体化</text><path d="M277.76,820 C318.88,820 318.88,940 360,940" fill="none" stroke="#E48484" stroke-width="2"/><rect x="360" y="925" width="80" height="30" rx="6" fill="transparent" stroke="#BFBFBF"/><text x="400" y="945" text-anchor="middle" font-size="13" fill="#333" font-family="-apple-system,BlinkMacSystemFont,sans-serif">开票</text><path d="M277.76,820 C318.88,820 318.88,980 360,980" fill="none" stroke="#E48484" stroke-width="2"/><rect x="360" y="965" width="80" height="30" rx="6" fill="transparent" stroke="#BFBFBF"/><text x="400" y="985" text-anchor="middle" font-size="13" fill="#333" font-family="-apple-system,BlinkMacSystemFont,sans-serif">税务合规</text><path d="M96.48,0 C186.48000000000002,0 186.48000000000002,1220 276.48,1220" fill="none" stroke="#DFB85D" stroke-width="2"/><rect x="180" y="1205" width="84.75999999999999" height="30" rx="6" fill="#fafafa" stroke="none"/><text x="222.38" y="1225" text-anchor="middle" font-size="13" fill="#333" font-family="-apple-system,BlinkMacSystemFont,sans-serif">工具/服务</text><path d="M264.76,1220 C312.38,1220 312.38,1040 360,1040" fill="none" stroke="#DFB85D" stroke-width="2"/><rect x="360" y="1025" width="80" height="30" rx="6" fill="#fafafa" stroke="none"/><text x="400" y="1045" text-anchor="middle" font-size="13" fill="#333" font-family="-apple-system,BlinkMacSystemFont,sans-serif">翻译工具</text><path d="M440,1040 C490,1040 490,1020 540,1020" fill="none" stroke="#DFB85D" stroke-width="2"/><rect x="540" y="1005" width="80" height="30" rx="6" fill="#fafafa" stroke="none"/><text x="580" y="1025" text-anchor="middle" font-size="13" fill="#333" font-family="-apple-system,BlinkMacSystemFont,sans-serif">标题翻译</text><path d="M440,1040 C490,1040 490,1060 540,1060" fill="none" stroke="#DFB85D" stroke-width="2"/><rect x="540" y="1045" width="80" height="30" rx="6" fill="#fafafa" stroke="none"/><text x="580" y="1065" text-anchor="middle" font-size="13" fill="#333" font-family="-apple-system,BlinkMacSystemFont,sans-serif">内容翻译</text><path d="M264.76,1220 C312.38,1220 312.38,1120 360,1120" fill="none" stroke="#DFB85D" stroke-width="2"/><rect x="360" y="1105" width="80" height="30" rx="6" fill="#fafafa" stroke="none"/><text x="400" y="1125" text-anchor="middle" font-size="13" fill="#333" font-family="-apple-system,BlinkMacSystemFont,sans-serif">图片抠图</text><path d="M440,1120 C490,1120 490,1100 540,1100" fill="none" stroke="#DFB85D" stroke-width="2"/><rect x="540" y="1085" width="80" height="30" rx="6" fill="#fafafa" stroke="none"/><text x="580" y="1105" text-anchor="middle" font-size="13" fill="#333" font-family="-apple-system,BlinkMacSystemFont,sans-serif">电商头图</text><path d="M440,1120 C490,1120 490,1140 540,1140" fill="none" stroke="#DFB85D" stroke-width="2"/><rect x="540" y="1125" width="130" height="30" rx="6" fill="#fafafa" stroke="none"/><text x="605" y="1145" text-anchor="middle" font-size="13" fill="#333" font-family="-apple-system,BlinkMacSystemFont,sans-serif">电商详情页描述图</text><path d="M264.76,1220 C312.38,1220 312.38,1200 360,1200" fill="none" stroke="#DFB85D" stroke-width="2"/><rect x="360" y="1185" width="104" height="30" rx="6" fill="#fafafa" stroke="none"/><text x="412" y="1205" text-anchor="middle" font-size="13" fill="#333" font-family="-apple-system,BlinkMacSystemFont,sans-serif">商品销量数据</text><path d="M464,1200 C502,1200 502,1180 540,1180" fill="none" stroke="#DFB85D" stroke-width="2"/><rect x="540" y="1165" width="104" height="30" rx="6" fill="#fafafa" stroke="none"/><text x="592" y="1185" text-anchor="middle" font-size="13" fill="#333" font-family="-apple-system,BlinkMacSystemFont,sans-serif">爬虫数据提供</text><path d="M464,1200 C502,1200 502,1220 540,1220" fill="none" stroke="#DFB85D" stroke-width="2"/><rect x="540" y="1205" width="104" height="30" rx="6" fill="#fafafa" stroke="none"/><text x="592" y="1225" text-anchor="middle" font-size="13" fill="#333" font-family="-apple-system,BlinkMacSystemFont,sans-serif">商品开发使用</text><path d="M264.76,1220 C312.38,1220 312.38,1260 360,1260" fill="none" stroke="#DFB85D" stroke-width="2"/><rect x="360" y="1245" width="80" height="30" rx="6" fill="#fafafa" stroke="none"/><text x="400" y="1265" text-anchor="middle" font-size="13" fill="#333" font-family="-apple-system,BlinkMacSystemFont,sans-serif">广告投放</text><path d="M440,1260 C490,1260 490,1260 540,1260" fill="none" stroke="#DFB85D" stroke-width="2"/><rect x="540" y="1245" width="146.64000000000001" height="30" rx="6" fill="#fafafa" stroke="none"/><text x="613.32" y="1265" text-anchor="middle" font-size="13" fill="#333" font-family="-apple-system,BlinkMacSystemFont,sans-serif">Facebook，Google等</text><path d="M264.76,1220 C312.38,1220 312.38,1340 360,1340" fill="none" stroke="#DFB85D" stroke-width="2"/><rect x="360" y="1325" width="80.07999999999998" height="30" rx="6" fill="#fafafa" stroke="none"/><text x="400.03999999999996" y="1345" text-anchor="middle" font-size="13" fill="#333" font-family="-apple-system,BlinkMacSystemFont,sans-serif">AI-Agent</text><path d="M440.08,1340 C490.03999999999996,1340 490.03999999999996,1300 540,1300" fill="none" stroke="#DFB85D" stroke-width="2"/><rect x="540" y="1285" width="80" height="30" rx="6" fill="#fafafa" stroke="none"/><text x="580" y="1305" text-anchor="middle" font-size="13" fill="#333" font-family="-apple-system,BlinkMacSystemFont,sans-serif">OpenAI</text><path d="M440.08,1340 C490.03999999999996,1340 490.03999999999996,1340 540,1340" fill="none" stroke="#DFB85D" stroke-width="2"/><rect x="540" y="1325" width="80" height="30" rx="6" fill="#fafafa" stroke="none"/><text x="580" y="1345" text-anchor="middle" font-size="13" fill="#333" font-family="-apple-system,BlinkMacSystemFont,sans-serif">文心一言</text><path d="M440.08,1340 C490.03999999999996,1340 490.03999999999996,1380 540,1380" fill="none" stroke="#DFB85D" stroke-width="2"/><rect x="540" y="1365" width="80" height="30" rx="6" fill="#fafafa" stroke="none"/><text x="580" y="1385" text-anchor="middle" font-size="13" fill="#333" font-family="-apple-system,BlinkMacSystemFont,sans-serif">通义千问</text><path d="M264.76,1220 C312.38,1220 312.38,1420 360,1420" fill="none" stroke="#DFB85D" stroke-width="2"/><rect x="360" y="1405" width="130" height="30" rx="6" fill="transparent" stroke="#BFBFBF"/><text x="425" y="1425" text-anchor="middle" font-size="13" fill="#333" font-family="-apple-system,BlinkMacSystemFont,sans-serif">云服务厂商，阿里</text><path d="M96.48,0 C186.48000000000002,0 186.48000000000002,1480 276.48,1480" fill="none" stroke="#E482D4" stroke-width="2"/><rect x="180" y="1465" width="80" height="30" rx="6" fill="#fafafa" stroke="none"/><text x="220" y="1485" text-anchor="middle" font-size="13" fill="#333" font-family="-apple-system,BlinkMacSystemFont,sans-serif">……</text><path d="M260,1480 C310,1480 310,1460 360,1460" fill="none" stroke="#E482D4" stroke-width="2"/><rect x="360" y="1445" width="254.28" height="30" rx="6" fill="#fafafa" stroke="none"/><text x="487.14" y="1465" text-anchor="middle" font-size="13" fill="#333" font-family="-apple-system,BlinkMacSystemFont,sans-serif">ERP很多功能模块都是要依赖第三方接口</text><path d="M260,1480 C310,1480 310,1500 360,1500" fill="none" stroke="#E482D4" stroke-width="2"/><rect x="360" y="1485" width="332.8" height="30" rx="6" fill="#fafafa" stroke="none"/><text x="526.4" y="1505" text-anchor="middle" font-size="13" fill="#333" font-family="-apple-system,BlinkMacSystemFont,sans-serif">所以很多时候电商ERP的产品也会吐槽自己是“缝合怪”</text>
</svg>