<svg xmlns="http://www.w3.org/2000/svg" xmlns:xlink="http://www.w3.org/1999/xlink"
  viewBox="-212.8 -1509.5625 2161.3199999999997 2668.5625" width="2161.3199999999997" height="2668.5625"
  style="background:#fff; font-family:-apple-system,BlinkMacSystemFont,'Segoe UI',Roboto,sans-serif;">
<defs></defs>
<rect x="-212.8" y="-1509.5625" width="2161.3199999999997" height="2668.5625" fill="#fff"/>
<rect x="-128.8" y="-18" width="257.6" height="36" rx="8" fill="#EFF0F0" stroke="none"/><text x="0" y="6" text-anchor="middle" font-size="16" font-weight="bold" fill="#333" font-family="-apple-system,BlinkMacSystemFont,sans-serif">SRM“采购执行”模块的产品结构</text><path d="M128.8,0 C218.8,0 218.8,-300 308.8,-300" fill="none" stroke="#6F81DB" stroke-width="2"/><rect x="180" y="-315" width="143" height="30" rx="6" fill="#fafafa" stroke="none"/><text x="251.5" y="-295" text-anchor="middle" font-size="13" fill="#333" font-family="-apple-system,BlinkMacSystemFont,sans-serif">采购端产品功能清单</text><path d="M323,-300 C341.5,-300 341.5,-820 360,-820" fill="none" stroke="#6F81DB" stroke-width="2"/><rect x="360" y="-835" width="80" height="30" rx="6" fill="#fafafa" stroke="none"/><text x="400" y="-815" text-anchor="middle" font-size="13" fill="#333" font-family="-apple-system,BlinkMacSystemFont,sans-serif">采购需求</text><path d="M440,-820 C490,-820 490,-1040 540,-1040" fill="none" stroke="#6F81DB" stroke-width="2"/><rect x="540" y="-1055" width="80" height="30" rx="6" fill="#fafafa" stroke="none"/><text x="580" y="-1035" text-anchor="middle" font-size="13" fill="#333" font-family="-apple-system,BlinkMacSystemFont,sans-serif">功能说明</text><path d="M620,-1040 C670,-1040 670,-1060 720,-1060" fill="none" stroke="#6F81DB" stroke-width="2"/><rect x="720" y="-1075" width="260" height="30" rx="6" fill="#fafafa" stroke="none"/><text x="850" y="-1055" text-anchor="middle" font-size="13" fill="#333" font-family="-apple-system,BlinkMacSystemFont,sans-serif">业务部门在这里提交自己的采购需求申请</text><path d="M620,-1040 C670,-1040 670,-1020 720,-1020" fill="none" stroke="#6F81DB" stroke-width="2"/><rect x="720" y="-1035" width="260" height="30" rx="6" fill="#fafafa" stroke="none"/><text x="850" y="-1015" text-anchor="middle" font-size="13" fill="#333" font-family="-apple-system,BlinkMacSystemFont,sans-serif">根据配置的审批流，进行采购需求的审批</text><path d="M440,-820 C490,-820 490,-820 540,-820" fill="none" stroke="#6F81DB" stroke-width="2"/><rect x="540" y="-835" width="80" height="30" rx="6" fill="#fafafa" stroke="none"/><text x="580" y="-815" text-anchor="middle" font-size="13" fill="#333" font-family="-apple-system,BlinkMacSystemFont,sans-serif">状态流</text><path d="M620,-820 C670,-820 670,-920 720,-920" fill="none" stroke="#6F81DB" stroke-width="2"/><rect x="720" y="-935" width="156" height="30" rx="6" fill="#fafafa" stroke="none"/><text x="798" y="-915" text-anchor="middle" font-size="13" fill="#333" font-family="-apple-system,BlinkMacSystemFont,sans-serif">采购申请的审批状态流</text><path d="M876,-920 C888,-920 888,-980 900,-980" fill="none" stroke="#6F81DB" stroke-width="2"/><rect x="900" y="-995" width="80" height="30" rx="6" fill="#fafafa" stroke="none"/><text x="940" y="-975" text-anchor="middle" font-size="13" fill="#333" font-family="-apple-system,BlinkMacSystemFont,sans-serif">待审批</text><path d="M876,-920 C888,-920 888,-940 900,-940" fill="none" stroke="#6F81DB" stroke-width="2"/><rect x="900" y="-955" width="80" height="30" rx="6" fill="#fafafa" stroke="none"/><text x="940" y="-935" text-anchor="middle" font-size="13" fill="#333" font-family="-apple-system,BlinkMacSystemFont,sans-serif">审批中</text><path d="M876,-920 C888,-920 888,-900 900,-900" fill="none" stroke="#6F81DB" stroke-width="2"/><rect x="900" y="-915" width="80" height="30" rx="6" fill="#fafafa" stroke="none"/><text x="940" y="-895" text-anchor="middle" font-size="13" fill="#333" font-family="-apple-system,BlinkMacSystemFont,sans-serif">审批通过</text><path d="M876,-920 C888,-920 888,-860 900,-860" fill="none" stroke="#6F81DB" stroke-width="2"/><rect x="900" y="-875" width="91" height="30" rx="6" fill="#fafafa" stroke="none"/><text x="945.5" y="-855" text-anchor="middle" font-size="13" fill="#333" font-family="-apple-system,BlinkMacSystemFont,sans-serif">审批未通过</text><path d="M620,-820 C670,-820 670,-740 720,-740" fill="none" stroke="#6F81DB" stroke-width="2"/><rect x="720" y="-755" width="156" height="30" rx="6" fill="#fafafa" stroke="none"/><text x="798" y="-735" text-anchor="middle" font-size="13" fill="#333" font-family="-apple-system,BlinkMacSystemFont,sans-serif">采购需求列表的状态流</text><path d="M876,-740 C888,-740 888,-820 900,-820" fill="none" stroke="#6F81DB" stroke-width="2"/><rect x="900" y="-835" width="80" height="30" rx="6" fill="#fafafa" stroke="none"/><text x="940" y="-815" text-anchor="middle" font-size="13" fill="#333" font-family="-apple-system,BlinkMacSystemFont,sans-serif">未处理</text><path d="M876,-740 C888,-740 888,-740 900,-740" fill="none" stroke="#6F81DB" stroke-width="2"/><rect x="900" y="-755" width="80" height="30" rx="6" fill="#fafafa" stroke="none"/><text x="940" y="-735" text-anchor="middle" font-size="13" fill="#333" font-family="-apple-system,BlinkMacSystemFont,sans-serif">已处理</text><path d="M980,-740 C1030,-740 1030,-780 1080,-780" fill="none" stroke="#6F81DB" stroke-width="2"/><rect x="1080" y="-795" width="80" height="30" rx="6" fill="#fafafa" stroke="none"/><text x="1120" y="-775" text-anchor="middle" font-size="13" fill="#333" font-family="-apple-system,BlinkMacSystemFont,sans-serif">已转订单</text><path d="M980,-740 C1030,-740 1030,-740 1080,-740" fill="none" stroke="#6F81DB" stroke-width="2"/><rect x="1080" y="-755" width="80" height="30" rx="6" fill="#fafafa" stroke="none"/><text x="1120" y="-735" text-anchor="middle" font-size="13" fill="#333" font-family="-apple-system,BlinkMacSystemFont,sans-serif">已转询价</text><path d="M980,-740 C1030,-740 1030,-700 1080,-700" fill="none" stroke="#6F81DB" stroke-width="2"/><rect x="1080" y="-715" width="91" height="30" rx="6" fill="#fafafa" stroke="none"/><text x="1125.5" y="-695" text-anchor="middle" font-size="13" fill="#333" font-family="-apple-system,BlinkMacSystemFont,sans-serif">已转招投标</text><path d="M876,-740 C888,-740 888,-660 900,-660" fill="none" stroke="#6F81DB" stroke-width="2"/><rect x="900" y="-675" width="80" height="30" rx="6" fill="#fafafa" stroke="none"/><text x="940" y="-655" text-anchor="middle" font-size="13" fill="#333" font-family="-apple-system,BlinkMacSystemFont,sans-serif">已挂起</text><path d="M440,-820 C490,-820 490,-600 540,-600" fill="none" stroke="#6F81DB" stroke-width="2"/><rect x="540" y="-615" width="91" height="30" rx="6" fill="#fafafa" stroke="none"/><text x="585.5" y="-595" text-anchor="middle" font-size="13" fill="#333" font-family="-apple-system,BlinkMacSystemFont,sans-serif">核心设计点</text><path d="M631,-600 C675.5,-600 675.5,-620 720,-620" fill="none" stroke="#6F81DB" stroke-width="2"/><rect x="720" y="-635" width="403.52" height="30" rx="6" fill="#fafafa" stroke="none"/><text x="921.76" y="-615" text-anchor="middle" font-size="13" fill="#333" font-family="-apple-system,BlinkMacSystemFont,sans-serif">1.采购需求需要和审批流挂钩，需要审批通过之后才可以响应需求</text><path d="M631,-600 C675.5,-600 675.5,-580 720,-580" fill="none" stroke="#6F81DB" stroke-width="2"/><rect x="720" y="-595" width="546.52" height="30" rx="6" fill="#fafafa" stroke="none"/><text x="993.26" y="-575" text-anchor="middle" font-size="13" fill="#333" font-family="-apple-system,BlinkMacSystemFont,sans-serif">2.采购需求可以进行任务分配，转给不同的采购人员去处理和跟进，这个设计可以自由发挥</text><path d="M323,-300 C341.5,-300 341.5,-200 360,-200" fill="none" stroke="#6F81DB" stroke-width="2"/><rect x="360" y="-215" width="80" height="30" rx="6" fill="#fafafa" stroke="none"/><text x="400" y="-195" text-anchor="middle" font-size="13" fill="#333" font-family="-apple-system,BlinkMacSystemFont,sans-serif">采购订单</text><path d="M440,-200 C490,-200 490,-520 540,-520" fill="none" stroke="#6F81DB" stroke-width="2"/><rect x="540" y="-535" width="80" height="30" rx="6" fill="#fafafa" stroke="none"/><text x="580" y="-515" text-anchor="middle" font-size="13" fill="#333" font-family="-apple-system,BlinkMacSystemFont,sans-serif">功能说明</text><path d="M620,-520 C670,-520 670,-540 720,-540" fill="none" stroke="#6F81DB" stroke-width="2"/><rect x="720" y="-555" width="429" height="30" rx="6" fill="#fafafa" stroke="none"/><text x="934.5" y="-535" text-anchor="middle" font-size="13" fill="#333" font-family="-apple-system,BlinkMacSystemFont,sans-serif">可以直接创建采购订单，也可以从采购需求，采购计划去生成采购订单</text><path d="M620,-520 C670,-520 670,-500 720,-500" fill="none" stroke="#6F81DB" stroke-width="2"/><rect x="720" y="-515" width="312" height="30" rx="6" fill="#fafafa" stroke="none"/><text x="876" y="-495" text-anchor="middle" font-size="13" fill="#333" font-family="-apple-system,BlinkMacSystemFont,sans-serif">采购订单是最核心的单据，串联起了整个采购业务</text><path d="M440,-200 C490,-200 490,-300 540,-300" fill="none" stroke="#6F81DB" stroke-width="2"/><rect x="540" y="-315" width="80" height="30" rx="6" fill="#fafafa" stroke="none"/><text x="580" y="-295" text-anchor="middle" font-size="13" fill="#333" font-family="-apple-system,BlinkMacSystemFont,sans-serif">状态流</text><path d="M620,-300 C670,-300 670,-400 720,-400" fill="none" stroke="#6F81DB" stroke-width="2"/><rect x="720" y="-415" width="80" height="30" rx="6" fill="#fafafa" stroke="none"/><text x="760" y="-395" text-anchor="middle" font-size="13" fill="#333" font-family="-apple-system,BlinkMacSystemFont,sans-serif">草稿</text><path d="M800,-400 C850,-400 850,-460 900,-460" fill="none" stroke="#6F81DB" stroke-width="2"/><rect x="900" y="-475" width="80" height="30" rx="6" fill="#fafafa" stroke="none"/><text x="940" y="-455" text-anchor="middle" font-size="13" fill="#333" font-family="-apple-system,BlinkMacSystemFont,sans-serif">待审批</text><path d="M800,-400 C850,-400 850,-420 900,-420" fill="none" stroke="#6F81DB" stroke-width="2"/><rect x="900" y="-435" width="80" height="30" rx="6" fill="#fafafa" stroke="none"/><text x="940" y="-415" text-anchor="middle" font-size="13" fill="#333" font-family="-apple-system,BlinkMacSystemFont,sans-serif">审批中</text><path d="M800,-400 C850,-400 850,-380 900,-380" fill="none" stroke="#6F81DB" stroke-width="2"/><rect x="900" y="-395" width="91" height="30" rx="6" fill="#fafafa" stroke="none"/><text x="945.5" y="-375" text-anchor="middle" font-size="13" fill="#333" font-family="-apple-system,BlinkMacSystemFont,sans-serif">审批未通过</text><path d="M800,-400 C850,-400 850,-340 900,-340" fill="none" stroke="#6F81DB" stroke-width="2"/><rect x="900" y="-355" width="80" height="30" rx="6" fill="#fafafa" stroke="none"/><text x="940" y="-335" text-anchor="middle" font-size="13" fill="#333" font-family="-apple-system,BlinkMacSystemFont,sans-serif">审批通过</text><path d="M620,-300 C670,-300 670,-300 720,-300" fill="none" stroke="#6F81DB" stroke-width="2"/><rect x="720" y="-315" width="104" height="30" rx="6" fill="#fafafa" stroke="none"/><text x="772" y="-295" text-anchor="middle" font-size="13" fill="#333" font-family="-apple-system,BlinkMacSystemFont,sans-serif">待供应商确认</text><path d="M620,-300 C670,-300 670,-260 720,-260" fill="none" stroke="#6F81DB" stroke-width="2"/><rect x="720" y="-275" width="104" height="30" rx="6" fill="#fafafa" stroke="none"/><text x="772" y="-255" text-anchor="middle" font-size="13" fill="#333" font-family="-apple-system,BlinkMacSystemFont,sans-serif">供应商已确认</text><path d="M824,-260 C862,-260 862,-260 900,-260" fill="none" stroke="#6F81DB" stroke-width="2"/><rect x="900" y="-275" width="104" height="30" rx="6" fill="#fafafa" stroke="none"/><text x="952" y="-255" text-anchor="middle" font-size="13" fill="#333" font-family="-apple-system,BlinkMacSystemFont,sans-serif">供应商已拒绝</text><path d="M620,-300 C670,-300 670,-220 720,-220" fill="none" stroke="#6F81DB" stroke-width="2"/><rect x="720" y="-235" width="80" height="30" rx="6" fill="#fafafa" stroke="none"/><text x="760" y="-215" text-anchor="middle" font-size="13" fill="#333" font-family="-apple-system,BlinkMacSystemFont,sans-serif">待发货</text><path d="M620,-300 C670,-300 670,-180 720,-180" fill="none" stroke="#6F81DB" stroke-width="2"/><rect x="720" y="-195" width="91" height="30" rx="6" fill="#fafafa" stroke="none"/><text x="765.5" y="-175" text-anchor="middle" font-size="13" fill="#333" font-family="-apple-system,BlinkMacSystemFont,sans-serif">仓库处理中</text><path d="M620,-300 C670,-300 670,-140 720,-140" fill="none" stroke="#6F81DB" stroke-width="2"/><rect x="720" y="-155" width="80" height="30" rx="6" fill="#fafafa" stroke="none"/><text x="760" y="-135" text-anchor="middle" font-size="13" fill="#333" font-family="-apple-system,BlinkMacSystemFont,sans-serif">已完成</text><path d="M440,-200 C490,-200 490,20 540,20" fill="none" stroke="#6F81DB" stroke-width="2"/><rect x="540" y="5" width="91" height="30" rx="6" fill="#fafafa" stroke="none"/><text x="585.5" y="25" text-anchor="middle" font-size="13" fill="#333" font-family="-apple-system,BlinkMacSystemFont,sans-serif">核心设计点</text><path d="M631,20 C675.5,20 675.5,-100 720,-100" fill="none" stroke="#6F81DB" stroke-width="2"/><rect x="720" y="-115" width="685.3599999999999" height="30" rx="6" fill="#fafafa" stroke="none"/><text x="1062.6799999999998" y="-95" text-anchor="middle" font-size="13" fill="#333" font-family="-apple-system,BlinkMacSystemFont,sans-serif">1.采购订单的状态流定义很重要，一方面取决于SRM自身的功能，另一方面也要取决于是否有对接下游的ERP或者WMS</text><path d="M631,20 C675.5,20 675.5,20 720,20" fill="none" stroke="#6F81DB" stroke-width="2"/><rect x="720" y="5" width="169.51999999999998" height="30" rx="6" fill="#fafafa" stroke="none"/><text x="804.76" y="25" text-anchor="middle" font-size="13" fill="#333" font-family="-apple-system,BlinkMacSystemFont,sans-serif">2.采购订单需要重点关注</text><path d="M889.52,20 C894.76,20 894.76,-60 900,-60" fill="none" stroke="#6F81DB" stroke-width="2"/><rect x="900" y="-75" width="80" height="30" rx="6" fill="#fafafa" stroke="none"/><text x="940" y="-55" text-anchor="middle" font-size="13" fill="#333" font-family="-apple-system,BlinkMacSystemFont,sans-serif">采购组织</text><path d="M889.52,20 C894.76,20 894.76,-20 900,-20" fill="none" stroke="#6F81DB" stroke-width="2"/><rect x="900" y="-35" width="80" height="30" rx="6" fill="#fafafa" stroke="none"/><text x="940" y="-15" text-anchor="middle" font-size="13" fill="#333" font-family="-apple-system,BlinkMacSystemFont,sans-serif">供应商</text><path d="M889.52,20 C894.76,20 894.76,20 900,20" fill="none" stroke="#6F81DB" stroke-width="2"/><rect x="900" y="5" width="80" height="30" rx="6" fill="#fafafa" stroke="none"/><text x="940" y="25" text-anchor="middle" font-size="13" fill="#333" font-family="-apple-system,BlinkMacSystemFont,sans-serif">收货仓库</text><path d="M889.52,20 C894.76,20 894.76,60 900,60" fill="none" stroke="#6F81DB" stroke-width="2"/><rect x="900" y="45" width="80" height="30" rx="6" fill="#fafafa" stroke="none"/><text x="940" y="65" text-anchor="middle" font-size="13" fill="#333" font-family="-apple-system,BlinkMacSystemFont,sans-serif">采购明细</text><path d="M889.52,20 C894.76,20 894.76,100 900,100" fill="none" stroke="#6F81DB" stroke-width="2"/><rect x="900" y="85" width="80" height="30" rx="6" fill="#fafafa" stroke="none"/><text x="940" y="105" text-anchor="middle" font-size="13" fill="#333" font-family="-apple-system,BlinkMacSystemFont,sans-serif">采购金额</text><path d="M631,20 C675.5,20 675.5,140 720,140" fill="none" stroke="#6F81DB" stroke-width="2"/><rect x="720" y="125" width="494.52" height="30" rx="6" fill="#fafafa" stroke="none"/><text x="967.26" y="145" text-anchor="middle" font-size="13" fill="#333" font-family="-apple-system,BlinkMacSystemFont,sans-serif">3.采购订单会联动很多单据，所以相关的系统流转关系和状态流转关系要重点关注</text><path d="M323,-300 C341.5,-300 341.5,320 360,320" fill="none" stroke="#6F81DB" stroke-width="2"/><rect x="360" y="305" width="91" height="30" rx="6" fill="#fafafa" stroke="none"/><text x="405.5" y="325" text-anchor="middle" font-size="13" fill="#333" font-family="-apple-system,BlinkMacSystemFont,sans-serif">采购入库单</text><path d="M451,320 C495.5,320 495.5,200 540,200" fill="none" stroke="#6F81DB" stroke-width="2"/><rect x="540" y="185" width="80" height="30" rx="6" fill="#EFF0F0" stroke="none"/><text x="580" y="205" text-anchor="middle" font-size="13" fill="#333" font-family="-apple-system,BlinkMacSystemFont,sans-serif">功能说明</text><path d="M620,200 C670,200 670,180 720,180" fill="none" stroke="#6F81DB" stroke-width="2"/><rect x="720" y="165" width="533" height="30" rx="6" fill="#EFF0F0" stroke="none"/><text x="986.5" y="185" text-anchor="middle" font-size="13" fill="#333" font-family="-apple-system,BlinkMacSystemFont,sans-serif">采购入库单一般是由供应商发货之后对应生成的，也可以采购订单直接生成对应的入库单</text><path d="M620,200 C670,200 670,220 720,220" fill="none" stroke="#6F81DB" stroke-width="2"/><rect x="720" y="205" width="507" height="30" rx="6" fill="#EFF0F0" stroke="none"/><text x="973.5" y="225" text-anchor="middle" font-size="13" fill="#333" font-family="-apple-system,BlinkMacSystemFont,sans-serif">采购入库单的关键是记录采购货品的库存情况，收了多少货，要支付多少钱给供应商</text><path d="M451,320 C495.5,320 495.5,320 540,320" fill="none" stroke="#6F81DB" stroke-width="2"/><rect x="540" y="305" width="80" height="30" rx="6" fill="#EFF0F0" stroke="none"/><text x="580" y="325" text-anchor="middle" font-size="13" fill="#333" font-family="-apple-system,BlinkMacSystemFont,sans-serif">状态流</text><path d="M620,320 C670,320 670,260 720,260" fill="none" stroke="#6F81DB" stroke-width="2"/><rect x="720" y="245" width="80" height="30" rx="6" fill="#EFF0F0" stroke="none"/><text x="760" y="265" text-anchor="middle" font-size="13" fill="#333" font-family="-apple-system,BlinkMacSystemFont,sans-serif">待收货</text><path d="M620,320 C670,320 670,300 720,300" fill="none" stroke="#6F81DB" stroke-width="2"/><rect x="720" y="285" width="80" height="30" rx="6" fill="#EFF0F0" stroke="none"/><text x="760" y="305" text-anchor="middle" font-size="13" fill="#333" font-family="-apple-system,BlinkMacSystemFont,sans-serif">收货中</text><path d="M620,320 C670,320 670,340 720,340" fill="none" stroke="#6F81DB" stroke-width="2"/><rect x="720" y="325" width="80" height="30" rx="6" fill="#EFF0F0" stroke="none"/><text x="760" y="345" text-anchor="middle" font-size="13" fill="#333" font-family="-apple-system,BlinkMacSystemFont,sans-serif">已收货</text><path d="M620,320 C670,320 670,380 720,380" fill="none" stroke="#6F81DB" stroke-width="2"/><rect x="720" y="365" width="80" height="30" rx="6" fill="#EFF0F0" stroke="none"/><text x="760" y="385" text-anchor="middle" font-size="13" fill="#333" font-family="-apple-system,BlinkMacSystemFont,sans-serif">已完成</text><path d="M451,320 C495.5,320 495.5,440 540,440" fill="none" stroke="#6F81DB" stroke-width="2"/><rect x="540" y="425" width="91" height="30" rx="6" fill="#EFF0F0" stroke="none"/><text x="585.5" y="445" text-anchor="middle" font-size="13" fill="#333" font-family="-apple-system,BlinkMacSystemFont,sans-serif">核心设计点</text><path d="M631,440 C675.5,440 675.5,420 720,420" fill="none" stroke="#6F81DB" stroke-width="2"/><rect x="720" y="405" width="806.52" height="30" rx="6" fill="#EFF0F0" stroke="none"/><text x="1123.26" y="425" text-anchor="middle" font-size="13" fill="#333" font-family="-apple-system,BlinkMacSystemFont,sans-serif">1.采购入库单可以简单，也可以复杂。如果简单，则只需要记录采购入库的结果即可，如果复杂，则可以展示采购入库单的具体作业过程</text><path d="M631,440 C675.5,440 675.5,460 720,460" fill="none" stroke="#6F81DB" stroke-width="2"/><rect x="720" y="445" width="637.52" height="30" rx="6" fill="#EFF0F0" stroke="none"/><text x="1038.76" y="465" text-anchor="middle" font-size="13" fill="#333" font-family="-apple-system,BlinkMacSystemFont,sans-serif">2.采购入库单是库存增加的凭证，也是采购付款的凭证，入库了多少，就要通知财务按入库数量去付款结算</text><path d="M128.8,0 C218.8,0 218.8,780 308.8,780" fill="none" stroke="#6EC4C4" stroke-width="2"/><rect x="180" y="765" width="156" height="30" rx="6" fill="#fafafa" stroke="none"/><text x="258" y="785" text-anchor="middle" font-size="13" fill="#333" font-family="-apple-system,BlinkMacSystemFont,sans-serif">供应商端产品功能清单</text><path d="M336,780 C348,780 348,660 360,660" fill="none" stroke="#6EC4C4" stroke-width="2"/><rect x="360" y="645" width="80" height="30" rx="6" fill="#fafafa" stroke="none"/><text x="400" y="665" text-anchor="middle" font-size="13" fill="#333" font-family="-apple-system,BlinkMacSystemFont,sans-serif">销售订单</text><path d="M440,660 C490,660 490,520 540,520" fill="none" stroke="#6EC4C4" stroke-width="2"/><rect x="540" y="505" width="80" height="30" rx="6" fill="#EFF0F0" stroke="none"/><text x="580" y="525" text-anchor="middle" font-size="13" fill="#333" font-family="-apple-system,BlinkMacSystemFont,sans-serif">功能说明</text><path d="M620,520 C670,520 670,500 720,500" fill="none" stroke="#6EC4C4" stroke-width="2"/><rect x="720" y="485" width="507" height="30" rx="6" fill="#EFF0F0" stroke="none"/><text x="973.5" y="505" text-anchor="middle" font-size="13" fill="#333" font-family="-apple-system,BlinkMacSystemFont,sans-serif">当采购方生成了采购订单之后，会提交给供应商确认，此时就会生成对应的销售订单</text><path d="M620,520 C670,520 670,540 720,540" fill="none" stroke="#6EC4C4" stroke-width="2"/><rect x="720" y="525" width="507" height="30" rx="6" fill="#EFF0F0" stroke="none"/><text x="973.5" y="545" text-anchor="middle" font-size="13" fill="#333" font-family="-apple-system,BlinkMacSystemFont,sans-serif">供应商端的销售订单一般比较简单，因为供应商不会在这里做很精细化的管控和处理</text><path d="M440,660 C490,660 490,640 540,640" fill="none" stroke="#6EC4C4" stroke-width="2"/><rect x="540" y="625" width="80" height="30" rx="6" fill="#EFF0F0" stroke="none"/><text x="580" y="645" text-anchor="middle" font-size="13" fill="#333" font-family="-apple-system,BlinkMacSystemFont,sans-serif">状态流</text><path d="M620,640 C670,640 670,580 720,580" fill="none" stroke="#6EC4C4" stroke-width="2"/><rect x="720" y="565" width="80" height="30" rx="6" fill="#EFF0F0" stroke="none"/><text x="760" y="585" text-anchor="middle" font-size="13" fill="#333" font-family="-apple-system,BlinkMacSystemFont,sans-serif">待确认</text><path d="M620,640 C670,640 670,620 720,620" fill="none" stroke="#6EC4C4" stroke-width="2"/><rect x="720" y="605" width="80" height="30" rx="6" fill="#EFF0F0" stroke="none"/><text x="760" y="625" text-anchor="middle" font-size="13" fill="#333" font-family="-apple-system,BlinkMacSystemFont,sans-serif">已确认</text><path d="M800,620 C850,620 850,620 900,620" fill="none" stroke="#6EC4C4" stroke-width="2"/><rect x="900" y="605" width="80" height="30" rx="6" fill="#EFF0F0" stroke="none"/><text x="940" y="625" text-anchor="middle" font-size="13" fill="#333" font-family="-apple-system,BlinkMacSystemFont,sans-serif">已拒绝</text><path d="M620,640 C670,640 670,660 720,660" fill="none" stroke="#6EC4C4" stroke-width="2"/><rect x="720" y="645" width="80" height="30" rx="6" fill="#EFF0F0" stroke="none"/><text x="760" y="665" text-anchor="middle" font-size="13" fill="#333" font-family="-apple-system,BlinkMacSystemFont,sans-serif">部分发货</text><path d="M620,640 C670,640 670,700 720,700" fill="none" stroke="#6EC4C4" stroke-width="2"/><rect x="720" y="685" width="80" height="30" rx="6" fill="#EFF0F0" stroke="none"/><text x="760" y="705" text-anchor="middle" font-size="13" fill="#333" font-family="-apple-system,BlinkMacSystemFont,sans-serif">全部发货</text><path d="M440,660 C490,660 490,780 540,780" fill="none" stroke="#6EC4C4" stroke-width="2"/><rect x="540" y="765" width="91" height="30" rx="6" fill="#EFF0F0" stroke="none"/><text x="585.5" y="785" text-anchor="middle" font-size="13" fill="#333" font-family="-apple-system,BlinkMacSystemFont,sans-serif">核心设计点</text><path d="M631,780 C675.5,780 675.5,740 720,740" fill="none" stroke="#6EC4C4" stroke-width="2"/><rect x="720" y="725" width="559.52" height="30" rx="6" fill="#EFF0F0" stroke="none"/><text x="999.76" y="745" text-anchor="middle" font-size="13" fill="#333" font-family="-apple-system,BlinkMacSystemFont,sans-serif">1.采购方的采购订单，对于供应商来说就是销售订单，所以两者的数据和信息是差不多一致的</text><path d="M631,780 C675.5,780 675.5,780 720,780" fill="none" stroke="#6EC4C4" stroke-width="2"/><rect x="720" y="765" width="1001.52" height="30" rx="6" fill="#EFF0F0" stroke="none"/><text x="1220.76" y="785" text-anchor="middle" font-size="13" fill="#333" font-family="-apple-system,BlinkMacSystemFont,sans-serif">2.供应商对销售订单的操作核心是确认是否能满足供货，然后根据销售订单的要求完成履约发货，所以状态流的设计也可以结合业务要求去改进，确保协同信息的传递高效</text><path d="M631,780 C675.5,780 675.5,820 720,820" fill="none" stroke="#6EC4C4" stroke-width="2"/><rect x="720" y="805" width="260" height="30" rx="6" fill="#fafafa" stroke="none"/><text x="850" y="825" text-anchor="middle" font-size="13" fill="#333" font-family="-apple-system,BlinkMacSystemFont,sans-serif">也可以采购订单直接生成对应的入库单，</text><path d="M336,780 C348,780 348,960 360,960" fill="none" stroke="#6EC4C4" stroke-width="2"/><rect x="360" y="945" width="91" height="30" rx="6" fill="#fafafa" stroke="none"/><text x="405.5" y="965" text-anchor="middle" font-size="13" fill="#333" font-family="-apple-system,BlinkMacSystemFont,sans-serif">发货通知单</text><path d="M451,960 C495.5,960 495.5,880 540,880" fill="none" stroke="#6EC4C4" stroke-width="2"/><rect x="540" y="865" width="80" height="30" rx="6" fill="#EFF0F0" stroke="none"/><text x="580" y="885" text-anchor="middle" font-size="13" fill="#333" font-family="-apple-system,BlinkMacSystemFont,sans-serif">功能说明</text><path d="M620,880 C670,880 670,860 720,860" fill="none" stroke="#6EC4C4" stroke-width="2"/><rect x="720" y="845" width="494" height="30" rx="6" fill="#EFF0F0" stroke="none"/><text x="967" y="865" text-anchor="middle" font-size="13" fill="#333" font-family="-apple-system,BlinkMacSystemFont,sans-serif">当销售订单确认了之后，接下来就是要发货，则需要根据销售订单生成发货通知单</text><path d="M620,880 C670,880 670,900 720,900" fill="none" stroke="#6EC4C4" stroke-width="2"/><rect x="720" y="885" width="702" height="30" rx="6" fill="#EFF0F0" stroke="none"/><text x="1071" y="905" text-anchor="middle" font-size="13" fill="#333" font-family="-apple-system,BlinkMacSystemFont,sans-serif">发货通知单会同步推送给采购端，生成对应的采购入库单，便于让采购方知道有哪些货物要送过去，分成了几个发货单</text><path d="M451,960 C495.5,960 495.5,960 540,960" fill="none" stroke="#6EC4C4" stroke-width="2"/><rect x="540" y="945" width="80" height="30" rx="6" fill="#EFF0F0" stroke="none"/><text x="580" y="965" text-anchor="middle" font-size="13" fill="#333" font-family="-apple-system,BlinkMacSystemFont,sans-serif">状态流</text><path d="M620,960 C670,960 670,940 720,940" fill="none" stroke="#6EC4C4" stroke-width="2"/><rect x="720" y="925" width="80" height="30" rx="6" fill="#EFF0F0" stroke="none"/><text x="760" y="945" text-anchor="middle" font-size="13" fill="#333" font-family="-apple-system,BlinkMacSystemFont,sans-serif">已发货</text><path d="M620,960 C670,960 670,980 720,980" fill="none" stroke="#6EC4C4" stroke-width="2"/><rect x="720" y="965" width="80" height="30" rx="6" fill="#EFF0F0" stroke="none"/><text x="760" y="985" text-anchor="middle" font-size="13" fill="#333" font-family="-apple-system,BlinkMacSystemFont,sans-serif">已入库</text><path d="M451,960 C495.5,960 495.5,1040 540,1040" fill="none" stroke="#6EC4C4" stroke-width="2"/><rect x="540" y="1025" width="91" height="30" rx="6" fill="#EFF0F0" stroke="none"/><text x="585.5" y="1045" text-anchor="middle" font-size="13" fill="#333" font-family="-apple-system,BlinkMacSystemFont,sans-serif">核心设计点</text><path d="M631,1040 C675.5,1040 675.5,1020 720,1020" fill="none" stroke="#6EC4C4" stroke-width="2"/><rect x="720" y="1005" width="481.52" height="30" rx="6" fill="#EFF0F0" stroke="none"/><text x="960.76" y="1025" text-anchor="middle" font-size="13" fill="#333" font-family="-apple-system,BlinkMacSystemFont,sans-serif">1.发货通知单比较简单，其实就是销售出库单，只需要记录出库数量和时间即可</text><path d="M631,1040 C675.5,1040 675.5,1060 720,1060" fill="none" stroke="#6EC4C4" stroke-width="2"/><rect x="720" y="1045" width="1144.52" height="30" rx="6" fill="#fafafa" stroke="none"/><text x="1292.26" y="1065" text-anchor="middle" font-size="13" fill="#333" font-family="-apple-system,BlinkMacSystemFont,sans-serif">2.发货通知单可以和采购入库单进行联动，把相关的状态流设计的更复杂和全面一些，但是一般来说简单一些好。因为货物发出之后，对于采购方来说会更关注货物到哪里了，收货的情况怎么样等</text>
</svg>