<svg xmlns="http://www.w3.org/2000/svg" xmlns:xlink="http://www.w3.org/1999/xlink"
  viewBox="-208 -959 1568 1918" width="1568" height="1918"
  style="background:#fff; font-family:-apple-system,BlinkMacSystemFont,'Segoe UI',Roboto,sans-serif;">
<defs></defs>
<rect x="-208" y="-959" width="1568" height="1918" fill="#fff"/>
<rect x="-124" y="-18" width="248" height="36" rx="8" fill="#EFF0F0" stroke="none"/><text x="0" y="6" text-anchor="middle" font-size="16" font-weight="bold" fill="#333" font-family="-apple-system,BlinkMacSystemFont,sans-serif">七色米系统功能模块设计拆解</text><path d="M124,0 C214,0 214,-660 304,-660" fill="none" stroke="#A287E1" stroke-width="2"/><rect x="180" y="-675" width="80" height="30" rx="6" fill="#fafafa" stroke="none"/><text x="220" y="-655" text-anchor="middle" font-size="13" fill="#333" font-family="-apple-system,BlinkMacSystemFont,sans-serif">资料</text><path d="M260,-660 C310,-660 310,-800 360,-800" fill="none" stroke="#A287E1" stroke-width="2"/><rect x="360" y="-815" width="80" height="30" rx="6" fill="#fafafa" stroke="none"/><text x="400" y="-795" text-anchor="middle" font-size="13" fill="#333" font-family="-apple-system,BlinkMacSystemFont,sans-serif">商品</text><path d="M440,-800 C490,-800 490,-800 540,-800" fill="none" stroke="#A287E1" stroke-width="2"/><rect x="540" y="-815" width="325" height="30" rx="6" fill="#fafafa" stroke="none"/><text x="702.5" y="-795" text-anchor="middle" font-size="13" fill="#333" font-family="-apple-system,BlinkMacSystemFont,sans-serif">基础的商品资料，也是进销存要管理的最基础的对象</text><path d="M865,-800 C792.5,-800 792.5,-860 720,-860" fill="none" stroke="#A287E1" stroke-width="2"/><rect x="720" y="-875" width="80" height="30" rx="6" fill="#fafafa" stroke="none"/><text x="760" y="-855" text-anchor="middle" font-size="13" fill="#333" font-family="-apple-system,BlinkMacSystemFont,sans-serif">商品管理</text><path d="M865,-800 C792.5,-800 792.5,-820 720,-820" fill="none" stroke="#A287E1" stroke-width="2"/><rect x="720" y="-835" width="80" height="30" rx="6" fill="#fafafa" stroke="none"/><text x="760" y="-815" text-anchor="middle" font-size="13" fill="#333" font-family="-apple-system,BlinkMacSystemFont,sans-serif">商品分类</text><path d="M865,-800 C792.5,-800 792.5,-780 720,-780" fill="none" stroke="#A287E1" stroke-width="2"/><rect x="720" y="-795" width="80" height="30" rx="6" fill="#fafafa" stroke="none"/><text x="760" y="-775" text-anchor="middle" font-size="13" fill="#333" font-family="-apple-system,BlinkMacSystemFont,sans-serif">商品属性</text><path d="M865,-800 C792.5,-800 792.5,-740 720,-740" fill="none" stroke="#A287E1" stroke-width="2"/><rect x="720" y="-755" width="80" height="30" rx="6" fill="#fafafa" stroke="none"/><text x="760" y="-735" text-anchor="middle" font-size="13" fill="#333" font-family="-apple-system,BlinkMacSystemFont,sans-serif">商品单位</text><path d="M260,-660 C310,-660 310,-700 360,-700" fill="none" stroke="#A287E1" stroke-width="2"/><rect x="360" y="-715" width="80" height="30" rx="6" fill="#fafafa" stroke="none"/><text x="400" y="-695" text-anchor="middle" font-size="13" fill="#333" font-family="-apple-system,BlinkMacSystemFont,sans-serif">网店商品</text><path d="M440,-700 C490,-700 490,-700 540,-700" fill="none" stroke="#A287E1" stroke-width="2"/><rect x="540" y="-715" width="247" height="30" rx="6" fill="#fafafa" stroke="none"/><text x="663.5" y="-695" text-anchor="middle" font-size="13" fill="#333" font-family="-apple-system,BlinkMacSystemFont,sans-serif">不是我们重点要考虑的方向，可以跳过</text><path d="M260,-660 C310,-660 310,-560 360,-560" fill="none" stroke="#A287E1" stroke-width="2"/><rect x="360" y="-575" width="80" height="30" rx="6" fill="#fafafa" stroke="none"/><text x="400" y="-555" text-anchor="middle" font-size="13" fill="#333" font-family="-apple-system,BlinkMacSystemFont,sans-serif">往来单位</text><path d="M440,-560 C490,-560 490,-560 540,-560" fill="none" stroke="#A287E1" stroke-width="2"/><rect x="540" y="-575" width="403.52" height="30" rx="6" fill="#fafafa" stroke="none"/><text x="741.76" y="-555" text-anchor="middle" font-size="13" fill="#333" font-family="-apple-system,BlinkMacSystemFont,sans-serif">在供应链领域中存在着复杂的“网链结构”，所以会有很多往来单位</text><path d="M943.52,-560 C831.76,-560 831.76,-640 720,-640" fill="none" stroke="#A287E1" stroke-width="2"/><rect x="720" y="-655" width="80" height="30" rx="6" fill="#fafafa" stroke="none"/><text x="760" y="-635" text-anchor="middle" font-size="13" fill="#333" font-family="-apple-system,BlinkMacSystemFont,sans-serif">供应商</text><path d="M800,-640 C850,-640 850,-660 900,-660" fill="none" stroke="#A287E1" stroke-width="2"/><rect x="900" y="-675" width="91" height="30" rx="6" fill="#fafafa" stroke="none"/><text x="945.5" y="-655" text-anchor="middle" font-size="13" fill="#333" font-family="-apple-system,BlinkMacSystemFont,sans-serif">供应商管理</text><path d="M800,-640 C850,-640 850,-620 900,-620" fill="none" stroke="#A287E1" stroke-width="2"/><rect x="900" y="-635" width="91" height="30" rx="6" fill="#fafafa" stroke="none"/><text x="945.5" y="-615" text-anchor="middle" font-size="13" fill="#333" font-family="-apple-system,BlinkMacSystemFont,sans-serif">供应商分类</text><path d="M943.52,-560 C831.76,-560 831.76,-540 720,-540" fill="none" stroke="#A287E1" stroke-width="2"/><rect x="720" y="-555" width="80" height="30" rx="6" fill="#fafafa" stroke="none"/><text x="760" y="-535" text-anchor="middle" font-size="13" fill="#333" font-family="-apple-system,BlinkMacSystemFont,sans-serif">客户</text><path d="M800,-540 C850,-540 850,-580 900,-580" fill="none" stroke="#A287E1" stroke-width="2"/><rect x="900" y="-595" width="80" height="30" rx="6" fill="#fafafa" stroke="none"/><text x="940" y="-575" text-anchor="middle" font-size="13" fill="#333" font-family="-apple-system,BlinkMacSystemFont,sans-serif">客户管理</text><path d="M800,-540 C850,-540 850,-540 900,-540" fill="none" stroke="#A287E1" stroke-width="2"/><rect x="900" y="-555" width="80" height="30" rx="6" fill="#fafafa" stroke="none"/><text x="940" y="-535" text-anchor="middle" font-size="13" fill="#333" font-family="-apple-system,BlinkMacSystemFont,sans-serif">客户分类</text><path d="M800,-540 C850,-540 850,-500 900,-500" fill="none" stroke="#A287E1" stroke-width="2"/><rect x="900" y="-515" width="91" height="30" rx="6" fill="#fafafa" stroke="none"/><text x="945.5" y="-495" text-anchor="middle" font-size="13" fill="#333" font-family="-apple-system,BlinkMacSystemFont,sans-serif">客户等级价</text><path d="M943.52,-560 C831.76,-560 831.76,-460 720,-460" fill="none" stroke="#A287E1" stroke-width="2"/><rect x="720" y="-475" width="156" height="30" rx="6" fill="#fafafa" stroke="none"/><text x="798" y="-455" text-anchor="middle" font-size="13" fill="#333" font-family="-apple-system,BlinkMacSystemFont,sans-serif">仓库、物流商等也算是</text><path d="M124,0 C214,0 214,-100 304,-100" fill="none" stroke="#6EC4C4" stroke-width="2"/><rect x="180" y="-115" width="80" height="30" rx="6" fill="#fafafa" stroke="none"/><text x="220" y="-95" text-anchor="middle" font-size="13" fill="#333" font-family="-apple-system,BlinkMacSystemFont,sans-serif">库存</text><path d="M260,-100 C310,-100 310,-360 360,-360" fill="none" stroke="#6EC4C4" stroke-width="2"/><rect x="360" y="-375" width="80" height="30" rx="6" fill="#fafafa" stroke="none"/><text x="400" y="-355" text-anchor="middle" font-size="13" fill="#333" font-family="-apple-system,BlinkMacSystemFont,sans-serif">进货</text><path d="M440,-360 C490,-360 490,-360 540,-360" fill="none" stroke="#6EC4C4" stroke-width="2"/><rect x="540" y="-375" width="403.52" height="30" rx="6" fill="#fafafa" stroke="none"/><text x="741.76" y="-355" text-anchor="middle" font-size="13" fill="#333" font-family="-apple-system,BlinkMacSystemFont,sans-serif">类似于采购模块，只不过比较简单，所以放在了“库存”这个目录下</text><path d="M943.52,-360 C831.76,-360 831.76,-420 720,-420" fill="none" stroke="#6EC4C4" stroke-width="2"/><rect x="720" y="-435" width="80" height="30" rx="6" fill="#fafafa" stroke="none"/><text x="760" y="-415" text-anchor="middle" font-size="13" fill="#333" font-family="-apple-system,BlinkMacSystemFont,sans-serif">进货预定</text><path d="M800,-420 C850,-420 850,-420 900,-420" fill="none" stroke="#6EC4C4" stroke-width="2"/><rect x="900" y="-435" width="80" height="30" rx="6" fill="#fafafa" stroke="none"/><text x="940" y="-415" text-anchor="middle" font-size="13" fill="#333" font-family="-apple-system,BlinkMacSystemFont,sans-serif">采购计划</text><path d="M943.52,-360 C831.76,-360 831.76,-380 720,-380" fill="none" stroke="#6EC4C4" stroke-width="2"/><rect x="720" y="-395" width="80" height="30" rx="6" fill="#fafafa" stroke="none"/><text x="760" y="-375" text-anchor="middle" font-size="13" fill="#333" font-family="-apple-system,BlinkMacSystemFont,sans-serif">以销定购</text><path d="M943.52,-360 C831.76,-360 831.76,-340 720,-340" fill="none" stroke="#6EC4C4" stroke-width="2"/><rect x="720" y="-355" width="80" height="30" rx="6" fill="#fafafa" stroke="none"/><text x="760" y="-335" text-anchor="middle" font-size="13" fill="#333" font-family="-apple-system,BlinkMacSystemFont,sans-serif">进货</text><path d="M943.52,-360 C831.76,-360 831.76,-300 720,-300" fill="none" stroke="#6EC4C4" stroke-width="2"/><rect x="720" y="-315" width="80" height="30" rx="6" fill="#fafafa" stroke="none"/><text x="760" y="-295" text-anchor="middle" font-size="13" fill="#333" font-family="-apple-system,BlinkMacSystemFont,sans-serif">进货退货</text><path d="M800,-300 C850,-300 850,-300 900,-300" fill="none" stroke="#6EC4C4" stroke-width="2"/><rect x="900" y="-315" width="117" height="30" rx="6" fill="#fafafa" stroke="none"/><text x="958.5" y="-295" text-anchor="middle" font-size="13" fill="#333" font-family="-apple-system,BlinkMacSystemFont,sans-serif">类似于采购退货</text><path d="M260,-100 C310,-100 310,-100 360,-100" fill="none" stroke="#6EC4C4" stroke-width="2"/><rect x="360" y="-115" width="80" height="30" rx="6" fill="#fafafa" stroke="none"/><text x="400" y="-95" text-anchor="middle" font-size="13" fill="#333" font-family="-apple-system,BlinkMacSystemFont,sans-serif">库存</text><path d="M440,-100 C490,-100 490,-100 540,-100" fill="none" stroke="#6EC4C4" stroke-width="2"/><rect x="540" y="-115" width="533" height="30" rx="6" fill="#fafafa" stroke="none"/><text x="806.5" y="-95" text-anchor="middle" font-size="13" fill="#333" font-family="-apple-system,BlinkMacSystemFont,sans-serif">库存处理的模块，包含了常见的一些库内操作，因为库内操作大多数都是和库存有关系的</text><path d="M1073,-100 C896.5,-100 896.5,-260 720,-260" fill="none" stroke="#6EC4C4" stroke-width="2"/><rect x="720" y="-275" width="80" height="30" rx="6" fill="#fafafa" stroke="none"/><text x="760" y="-255" text-anchor="middle" font-size="13" fill="#333" font-family="-apple-system,BlinkMacSystemFont,sans-serif">盘点</text><path d="M1073,-100 C896.5,-100 896.5,-220 720,-220" fill="none" stroke="#6EC4C4" stroke-width="2"/><rect x="720" y="-235" width="80" height="30" rx="6" fill="#fafafa" stroke="none"/><text x="760" y="-215" text-anchor="middle" font-size="13" fill="#333" font-family="-apple-system,BlinkMacSystemFont,sans-serif">调拨</text><path d="M1073,-100 C896.5,-100 896.5,-180 720,-180" fill="none" stroke="#6EC4C4" stroke-width="2"/><rect x="720" y="-195" width="80" height="30" rx="6" fill="#fafafa" stroke="none"/><text x="760" y="-175" text-anchor="middle" font-size="13" fill="#333" font-family="-apple-system,BlinkMacSystemFont,sans-serif">组装拆卸</text><path d="M1073,-100 C896.5,-100 896.5,-140 720,-140" fill="none" stroke="#6EC4C4" stroke-width="2"/><rect x="720" y="-155" width="80" height="30" rx="6" fill="#fafafa" stroke="none"/><text x="760" y="-135" text-anchor="middle" font-size="13" fill="#333" font-family="-apple-system,BlinkMacSystemFont,sans-serif">出库</text><path d="M1073,-100 C896.5,-100 896.5,-100 720,-100" fill="none" stroke="#6EC4C4" stroke-width="2"/><rect x="720" y="-115" width="80" height="30" rx="6" fill="#fafafa" stroke="none"/><text x="760" y="-95" text-anchor="middle" font-size="13" fill="#333" font-family="-apple-system,BlinkMacSystemFont,sans-serif">入库</text><path d="M1073,-100 C896.5,-100 896.5,-60 720,-60" fill="none" stroke="#6EC4C4" stroke-width="2"/><rect x="720" y="-75" width="80" height="30" rx="6" fill="#fafafa" stroke="none"/><text x="760" y="-55" text-anchor="middle" font-size="13" fill="#333" font-family="-apple-system,BlinkMacSystemFont,sans-serif">借出</text><path d="M1073,-100 C896.5,-100 896.5,-20 720,-20" fill="none" stroke="#6EC4C4" stroke-width="2"/><rect x="720" y="-35" width="80" height="30" rx="6" fill="#fafafa" stroke="none"/><text x="760" y="-15" text-anchor="middle" font-size="13" fill="#333" font-family="-apple-system,BlinkMacSystemFont,sans-serif">借入</text><path d="M1073,-100 C896.5,-100 896.5,20 720,20" fill="none" stroke="#6EC4C4" stroke-width="2"/><rect x="720" y="5" width="80" height="30" rx="6" fill="#fafafa" stroke="none"/><text x="760" y="25" text-anchor="middle" font-size="13" fill="#333" font-family="-apple-system,BlinkMacSystemFont,sans-serif">配送</text><path d="M1073,-100 C896.5,-100 896.5,60 720,60" fill="none" stroke="#6EC4C4" stroke-width="2"/><rect x="720" y="45" width="117" height="30" rx="6" fill="transparent" stroke="#BFBFBF"/><text x="778.5" y="65" text-anchor="middle" font-size="13" fill="#333" font-family="-apple-system,BlinkMacSystemFont,sans-serif">重点关注这两个</text><path d="M260,-100 C310,-100 310,160 360,160" fill="none" stroke="#6EC4C4" stroke-width="2"/><rect x="360" y="145" width="80" height="30" rx="6" fill="#fafafa" stroke="none"/><text x="400" y="165" text-anchor="middle" font-size="13" fill="#333" font-family="-apple-system,BlinkMacSystemFont,sans-serif">查询</text><path d="M440,160 C490,160 490,160 540,160" fill="none" stroke="#6EC4C4" stroke-width="2"/><rect x="540" y="145" width="364" height="30" rx="6" fill="#fafafa" stroke="none"/><text x="722" y="165" text-anchor="middle" font-size="13" fill="#333" font-family="-apple-system,BlinkMacSystemFont,sans-serif">库存及其相关的业务数据的查询，单独抽出来了一个小模块</text><path d="M904,160 C812,160 812,100 720,100" fill="none" stroke="#6EC4C4" stroke-width="2"/><rect x="720" y="85" width="80" height="30" rx="6" fill="#fafafa" stroke="none"/><text x="760" y="105" text-anchor="middle" font-size="13" fill="#333" font-family="-apple-system,BlinkMacSystemFont,sans-serif">库存查询</text><path d="M904,160 C812,160 812,140 720,140" fill="none" stroke="#6EC4C4" stroke-width="2"/><rect x="720" y="125" width="91" height="30" rx="6" fill="#fafafa" stroke="none"/><text x="765.5" y="145" text-anchor="middle" font-size="13" fill="#333" font-family="-apple-system,BlinkMacSystemFont,sans-serif">订单跟踪表</text><path d="M904,160 C812,160 812,180 720,180" fill="none" stroke="#6EC4C4" stroke-width="2"/><rect x="720" y="165" width="117" height="30" rx="6" fill="#fafafa" stroke="none"/><text x="778.5" y="185" text-anchor="middle" font-size="13" fill="#333" font-family="-apple-system,BlinkMacSystemFont,sans-serif">保质期批次清单</text><path d="M904,160 C812,160 812,220 720,220" fill="none" stroke="#6EC4C4" stroke-width="2"/><rect x="720" y="205" width="91" height="30" rx="6" fill="#fafafa" stroke="none"/><text x="765.5" y="225" text-anchor="middle" font-size="13" fill="#333" font-family="-apple-system,BlinkMacSystemFont,sans-serif">批次跟踪表</text><path d="M124,0 C214,0 214,440 304,440" fill="none" stroke="#6F81DB" stroke-width="2"/><rect x="180" y="425" width="80" height="30" rx="6" fill="#fafafa" stroke="none"/><text x="220" y="445" text-anchor="middle" font-size="13" fill="#333" font-family="-apple-system,BlinkMacSystemFont,sans-serif">销售</text><path d="M260,440 C310,440 310,380 360,380" fill="none" stroke="#6F81DB" stroke-width="2"/><rect x="360" y="365" width="80" height="30" rx="6" fill="#fafafa" stroke="none"/><text x="400" y="385" text-anchor="middle" font-size="13" fill="#333" font-family="-apple-system,BlinkMacSystemFont,sans-serif">销售</text><path d="M440,380 C490,380 490,260 540,260" fill="none" stroke="#6F81DB" stroke-width="2"/><rect x="540" y="245" width="80" height="30" rx="6" fill="#fafafa" stroke="none"/><text x="580" y="265" text-anchor="middle" font-size="13" fill="#333" font-family="-apple-system,BlinkMacSystemFont,sans-serif">网店预定</text><path d="M440,380 C490,380 490,300 540,300" fill="none" stroke="#6F81DB" stroke-width="2"/><rect x="540" y="285" width="80" height="30" rx="6" fill="#fafafa" stroke="none"/><text x="580" y="305" text-anchor="middle" font-size="13" fill="#333" font-family="-apple-system,BlinkMacSystemFont,sans-serif">销售预定</text><path d="M440,380 C490,380 490,340 540,340" fill="none" stroke="#6F81DB" stroke-width="2"/><rect x="540" y="325" width="80" height="30" rx="6" fill="#fafafa" stroke="none"/><text x="580" y="345" text-anchor="middle" font-size="13" fill="#333" font-family="-apple-system,BlinkMacSystemFont,sans-serif">销售</text><path d="M440,380 C490,380 490,380 540,380" fill="none" stroke="#6F81DB" stroke-width="2"/><rect x="540" y="365" width="80" height="30" rx="6" fill="#fafafa" stroke="none"/><text x="580" y="385" text-anchor="middle" font-size="13" fill="#333" font-family="-apple-system,BlinkMacSystemFont,sans-serif">销售退货</text><path d="M440,380 C490,380 490,420 540,420" fill="none" stroke="#6F81DB" stroke-width="2"/><rect x="540" y="405" width="80" height="30" rx="6" fill="#fafafa" stroke="none"/><text x="580" y="425" text-anchor="middle" font-size="13" fill="#333" font-family="-apple-system,BlinkMacSystemFont,sans-serif">销售换货</text><path d="M440,380 C490,380 490,460 540,460" fill="none" stroke="#6F81DB" stroke-width="2"/><rect x="540" y="445" width="80" height="30" rx="6" fill="#fafafa" stroke="none"/><text x="580" y="465" text-anchor="middle" font-size="13" fill="#333" font-family="-apple-system,BlinkMacSystemFont,sans-serif">零售收银</text><path d="M440,380 C490,380 490,500 540,500" fill="none" stroke="#6F81DB" stroke-width="2"/><rect x="540" y="485" width="117" height="30" rx="6" fill="transparent" stroke="#BFBFBF"/><text x="598.5" y="505" text-anchor="middle" font-size="13" fill="#333" font-family="-apple-system,BlinkMacSystemFont,sans-serif">重点关注这两个</text><path d="M260,440 C310,440 310,540 360,540" fill="none" stroke="#6F81DB" stroke-width="2"/><rect x="360" y="525" width="80" height="30" rx="6" fill="#fafafa" stroke="none"/><text x="400" y="545" text-anchor="middle" font-size="13" fill="#333" font-family="-apple-system,BlinkMacSystemFont,sans-serif">促销活动</text><path d="M440,540 C490,540 490,540 540,540" fill="none" stroke="#6F81DB" stroke-width="2"/><rect x="540" y="525" width="247" height="30" rx="6" fill="#fafafa" stroke="none"/><text x="663.5" y="545" text-anchor="middle" font-size="13" fill="#333" font-family="-apple-system,BlinkMacSystemFont,sans-serif">不是我们重点要考虑的方向，可以跳过</text><path d="M260,440 C310,440 310,580 360,580" fill="none" stroke="#6F81DB" stroke-width="2"/><rect x="360" y="565" width="80" height="30" rx="6" fill="#fafafa" stroke="none"/><text x="400" y="585" text-anchor="middle" font-size="13" fill="#333" font-family="-apple-system,BlinkMacSystemFont,sans-serif">营销</text><path d="M440,580 C490,580 490,580 540,580" fill="none" stroke="#6F81DB" stroke-width="2"/><rect x="540" y="565" width="247" height="30" rx="6" fill="#fafafa" stroke="none"/><text x="663.5" y="585" text-anchor="middle" font-size="13" fill="#333" font-family="-apple-system,BlinkMacSystemFont,sans-serif">不是我们重点要考虑的方向，可以跳过</text><path d="M260,440 C310,440 310,620 360,620" fill="none" stroke="#6F81DB" stroke-width="2"/><rect x="360" y="605" width="80" height="30" rx="6" fill="#fafafa" stroke="none"/><text x="400" y="625" text-anchor="middle" font-size="13" fill="#333" font-family="-apple-system,BlinkMacSystemFont,sans-serif">拜访</text><path d="M440,620 C490,620 490,620 540,620" fill="none" stroke="#6F81DB" stroke-width="2"/><rect x="540" y="605" width="247" height="30" rx="6" fill="#fafafa" stroke="none"/><text x="663.5" y="625" text-anchor="middle" font-size="13" fill="#333" font-family="-apple-system,BlinkMacSystemFont,sans-serif">不是我们重点要考虑的方向，可以跳过</text><path d="M124,0 C214,0 214,700 304,700" fill="none" stroke="#DFB85D" stroke-width="2"/><rect x="180" y="685" width="80" height="30" rx="6" fill="#fafafa" stroke="none"/><text x="220" y="705" text-anchor="middle" font-size="13" fill="#333" font-family="-apple-system,BlinkMacSystemFont,sans-serif">设置</text><path d="M260,700 C310,700 310,660 360,660" fill="none" stroke="#DFB85D" stroke-width="2"/><rect x="360" y="645" width="80" height="30" rx="6" fill="#fafafa" stroke="none"/><text x="400" y="665" text-anchor="middle" font-size="13" fill="#333" font-family="-apple-system,BlinkMacSystemFont,sans-serif">参数设置</text><path d="M440,660 C490,660 490,660 540,660" fill="none" stroke="#DFB85D" stroke-width="2"/><rect x="540" y="645" width="494" height="30" rx="6" fill="#fafafa" stroke="none"/><text x="787" y="665" text-anchor="middle" font-size="13" fill="#333" font-family="-apple-system,BlinkMacSystemFont,sans-serif">想要成为资深的使用者或者了解一些深度的内容，一定要去看一些参数配置的模块</text><path d="M260,700 C310,700 310,700 360,700" fill="none" stroke="#DFB85D" stroke-width="2"/><rect x="360" y="685" width="80" height="30" rx="6" fill="#fafafa" stroke="none"/><text x="400" y="705" text-anchor="middle" font-size="13" fill="#333" font-family="-apple-system,BlinkMacSystemFont,sans-serif">店铺管理</text><path d="M440,700 C490,700 490,700 540,700" fill="none" stroke="#DFB85D" stroke-width="2"/><rect x="540" y="685" width="455" height="30" rx="6" fill="#fafafa" stroke="none"/><text x="767.5" y="705" text-anchor="middle" font-size="13" fill="#333" font-family="-apple-system,BlinkMacSystemFont,sans-serif">基础资料维护相关的内容，需要提前了解一下，可能是某些业务的前置条件</text><path d="M260,700 C310,700 310,740 360,740" fill="none" stroke="#DFB85D" stroke-width="2"/><rect x="360" y="725" width="80" height="30" rx="6" fill="#fafafa" stroke="none"/><text x="400" y="745" text-anchor="middle" font-size="13" fill="#333" font-family="-apple-system,BlinkMacSystemFont,sans-serif">账户信息</text><path d="M440,740 C490,740 490,740 540,740" fill="none" stroke="#DFB85D" stroke-width="2"/><rect x="540" y="725" width="234" height="30" rx="6" fill="#fafafa" stroke="none"/><text x="657" y="745" text-anchor="middle" font-size="13" fill="#333" font-family="-apple-system,BlinkMacSystemFont,sans-serif">和财务、账户类挂钩，可以了解一下</text><path d="M124,0 C214,0 214,780 304,780" fill="none" stroke="#77C386" stroke-width="2"/><rect x="180" y="765" width="80" height="30" rx="6" fill="#fafafa" stroke="none"/><text x="220" y="785" text-anchor="middle" font-size="13" fill="#333" font-family="-apple-system,BlinkMacSystemFont,sans-serif">财务</text><path d="M124,0 C214,0 214,820 304,820" fill="none" stroke="#E48484" stroke-width="2"/><rect x="180" y="805" width="80" height="30" rx="6" fill="#fafafa" stroke="none"/><text x="220" y="825" text-anchor="middle" font-size="13" fill="#333" font-family="-apple-system,BlinkMacSystemFont,sans-serif">分析</text><path d="M124,0 C214,0 214,860 304,860" fill="none" stroke="#BFBFBF" stroke-width="2"/><rect x="180" y="845" width="247" height="30" rx="6" fill="transparent" stroke="#BFBFBF"/><text x="303.5" y="865" text-anchor="middle" font-size="13" fill="#333" font-family="-apple-system,BlinkMacSystemFont,sans-serif">不是我们重点要考虑的方向，可以跳过</text>
</svg>