<svg xmlns="http://www.w3.org/2000/svg" xmlns:xlink="http://www.w3.org/1999/xlink"
  viewBox="-160 -1418 1884.32 2717" width="1884.32" height="2717"
  style="background:#fff; font-family:-apple-system,BlinkMacSystemFont,'Segoe UI',Roboto,sans-serif;">
<defs></defs>
<rect x="-160" y="-1418" width="1884.32" height="2717" fill="#fff"/>
<rect x="-76" y="-18" width="152" height="36" rx="8" fill="#EFF0F0" stroke="none"/><text x="0" y="6" text-anchor="middle" font-size="16" font-weight="bold" fill="#333" font-family="-apple-system,BlinkMacSystemFont,sans-serif">采购产品结构图</text><path d="M76,0 C166,0 166,-780 256,-780" fill="none" stroke="#A287E1" stroke-width="2"/><rect x="180" y="-795" width="80" height="30" rx="6" fill="#fafafa" stroke="none"/><text x="220" y="-775" text-anchor="middle" font-size="13" fill="#333" font-family="-apple-system,BlinkMacSystemFont,sans-serif">采购计划</text><path d="M260,-780 C310,-780 310,-1160 360,-1160" fill="none" stroke="#A287E1" stroke-width="2"/><rect x="360" y="-1175" width="117" height="30" rx="6" fill="#fafafa" stroke="none"/><text x="418.5" y="-1155" text-anchor="middle" font-size="13" fill="#333" font-family="-apple-system,BlinkMacSystemFont,sans-serif">需求分析、背景</text><path d="M477,-1160 C508.5,-1160 508.5,-1200 540,-1200" fill="none" stroke="#A287E1" stroke-width="2"/><rect x="540" y="-1215" width="559.52" height="30" rx="6" fill="#fafafa" stroke="none"/><text x="819.76" y="-1195" text-anchor="middle" font-size="13" fill="#333" font-family="-apple-system,BlinkMacSystemFont,sans-serif">业务会根据一些BI数据，线下的数据等了解到当前的库存情况，从而制定出接下来的采购计划</text><path d="M477,-1160 C508.5,-1160 508.5,-1160 540,-1160" fill="none" stroke="#A287E1" stroke-width="2"/><rect x="540" y="-1175" width="1100.32" height="30" rx="6" fill="#fafafa" stroke="none"/><text x="1090.1599999999999" y="-1155" text-anchor="middle" font-size="13" fill="#333" font-family="-apple-system,BlinkMacSystemFont,sans-serif">正常情况下，应该是采购需求-&gt;采购需求汇总-&gt;采购计划，但是由于采购需求和采购需求汇总，这些可以通过线下去做，通过在线协作的方式来处理，所以在ERP的系统中就没有做这个模块</text><path d="M477,-1160 C508.5,-1160 508.5,-1120 540,-1120" fill="none" stroke="#A287E1" stroke-width="2"/><rect x="540" y="-1135" width="923" height="30" rx="6" fill="#fafafa" stroke="none"/><text x="1001.5" y="-1115" text-anchor="middle" font-size="13" fill="#333" font-family="-apple-system,BlinkMacSystemFont,sans-serif">采购计划是对未来采购的一个大概规划，要采购什么商品，多少数量，预计什么时候要货，找什么供应商，谁去采购，这些计划越详细，采购的管控就越精准</text><path d="M260,-780 C310,-780 310,-940 360,-940" fill="none" stroke="#A287E1" stroke-width="2"/><rect x="360" y="-955" width="104" height="30" rx="6" fill="#fafafa" stroke="none"/><text x="412" y="-935" text-anchor="middle" font-size="13" fill="#333" font-family="-apple-system,BlinkMacSystemFont,sans-serif">初步方案设计</text><path d="M464,-940 C502,-940 502,-1020 540,-1020" fill="none" stroke="#A287E1" stroke-width="2"/><rect x="540" y="-1035" width="80" height="30" rx="6" fill="#fafafa" stroke="none"/><text x="580" y="-1015" text-anchor="middle" font-size="13" fill="#333" font-family="-apple-system,BlinkMacSystemFont,sans-serif">业务设计</text><path d="M620,-1020 C670,-1020 670,-1080 720,-1080" fill="none" stroke="#A287E1" stroke-width="2"/><rect x="720" y="-1095" width="286" height="30" rx="6" fill="#fafafa" stroke="none"/><text x="863" y="-1075" text-anchor="middle" font-size="13" fill="#333" font-family="-apple-system,BlinkMacSystemFont,sans-serif">调研谁会提交采购需求，这些需求是怎么来的</text><path d="M620,-1020 C670,-1020 670,-1040 720,-1040" fill="none" stroke="#A287E1" stroke-width="2"/><rect x="720" y="-1055" width="390" height="30" rx="6" fill="#fafafa" stroke="none"/><text x="915" y="-1035" text-anchor="middle" font-size="13" fill="#333" font-family="-apple-system,BlinkMacSystemFont,sans-serif">调研谁来汇总这些需求，多久汇总一次，汇总后的需求怎么处理</text><path d="M620,-1020 C670,-1020 670,-1000 720,-1000" fill="none" stroke="#A287E1" stroke-width="2"/><rect x="720" y="-1015" width="416" height="30" rx="6" fill="#fafafa" stroke="none"/><text x="928" y="-995" text-anchor="middle" font-size="13" fill="#333" font-family="-apple-system,BlinkMacSystemFont,sans-serif">调研采购计划怎么指定，多久制定一次，制定好的计划怎么跟进处理</text><path d="M620,-1020 C670,-1020 670,-960 720,-960" fill="none" stroke="#A287E1" stroke-width="2"/><rect x="720" y="-975" width="299" height="30" rx="6" fill="#fafafa" stroke="none"/><text x="869.5" y="-955" text-anchor="middle" font-size="13" fill="#333" font-family="-apple-system,BlinkMacSystemFont,sans-serif">调研采购计划在实际的采购业务中是怎么使用的</text><path d="M464,-940 C502,-940 502,-860 540,-860" fill="none" stroke="#A287E1" stroke-width="2"/><rect x="540" y="-875" width="80" height="30" rx="6" fill="#fafafa" stroke="none"/><text x="580" y="-855" text-anchor="middle" font-size="13" fill="#333" font-family="-apple-system,BlinkMacSystemFont,sans-serif">应用设计</text><path d="M620,-860 C670,-860 670,-920 720,-920" fill="none" stroke="#A287E1" stroke-width="2"/><rect x="720" y="-935" width="429" height="30" rx="6" fill="#fafafa" stroke="none"/><text x="934.5" y="-915" text-anchor="middle" font-size="13" fill="#333" font-family="-apple-system,BlinkMacSystemFont,sans-serif">从系统的角度，从产品设计的角度，去思考采购计划的系统交互流程图</text><path d="M620,-860 C670,-860 670,-880 720,-880" fill="none" stroke="#A287E1" stroke-width="2"/><rect x="720" y="-895" width="390" height="30" rx="6" fill="#fafafa" stroke="none"/><text x="915" y="-875" text-anchor="middle" font-size="13" fill="#333" font-family="-apple-system,BlinkMacSystemFont,sans-serif">有几个单据，单据之间的关系是怎么样的，每个单据有什么状态</text><path d="M620,-860 C670,-860 670,-840 720,-840" fill="none" stroke="#A287E1" stroke-width="2"/><rect x="720" y="-855" width="390" height="30" rx="6" fill="#fafafa" stroke="none"/><text x="915" y="-835" text-anchor="middle" font-size="13" fill="#333" font-family="-apple-system,BlinkMacSystemFont,sans-serif">定义好单据的作用和场景，定义好一些数据交互的流程和规范等</text><path d="M620,-860 C670,-860 670,-800 720,-800" fill="none" stroke="#A287E1" stroke-width="2"/><rect x="720" y="-815" width="260" height="30" rx="6" fill="#fafafa" stroke="none"/><text x="850" y="-795" text-anchor="middle" font-size="13" fill="#333" font-family="-apple-system,BlinkMacSystemFont,sans-serif">针对主支辅异来输出大致的应用设计方案</text><path d="M260,-780 C310,-780 310,-640 360,-640" fill="none" stroke="#A287E1" stroke-width="2"/><rect x="360" y="-655" width="104" height="30" rx="6" fill="#fafafa" stroke="none"/><text x="412" y="-635" text-anchor="middle" font-size="13" fill="#333" font-family="-apple-system,BlinkMacSystemFont,sans-serif">产品功能结构</text><path d="M464,-640 C502,-640 502,-760 540,-760" fill="none" stroke="#A287E1" stroke-width="2"/><rect x="540" y="-775" width="143" height="30" rx="6" fill="#fafafa" stroke="none"/><text x="611.5" y="-755" text-anchor="middle" font-size="13" fill="#333" font-family="-apple-system,BlinkMacSystemFont,sans-serif">采购计划的增删改查</text><path d="M464,-640 C502,-640 502,-720 540,-720" fill="none" stroke="#A287E1" stroke-width="2"/><rect x="540" y="-735" width="182" height="30" rx="6" fill="#fafafa" stroke="none"/><text x="631" y="-715" text-anchor="middle" font-size="13" fill="#333" font-family="-apple-system,BlinkMacSystemFont,sans-serif">采购计划的变更和变更记录</text><path d="M464,-640 C502,-640 502,-640 540,-640" fill="none" stroke="#A287E1" stroke-width="2"/><rect x="540" y="-655" width="143" height="30" rx="6" fill="#fafafa" stroke="none"/><text x="611.5" y="-635" text-anchor="middle" font-size="13" fill="#333" font-family="-apple-system,BlinkMacSystemFont,sans-serif">采购计划的关联生成</text><path d="M683,-640 C701.5,-640 701.5,-680 720,-680" fill="none" stroke="#A287E1" stroke-width="2"/><rect x="720" y="-695" width="104" height="30" rx="6" fill="#fafafa" stroke="none"/><text x="772" y="-675" text-anchor="middle" font-size="13" fill="#333" font-family="-apple-system,BlinkMacSystemFont,sans-serif">生成采购订单</text><path d="M683,-640 C701.5,-640 701.5,-640 720,-640" fill="none" stroke="#A287E1" stroke-width="2"/><rect x="720" y="-655" width="104" height="30" rx="6" fill="#fafafa" stroke="none"/><text x="772" y="-635" text-anchor="middle" font-size="13" fill="#333" font-family="-apple-system,BlinkMacSystemFont,sans-serif">生成发货计划</text><path d="M683,-640 C701.5,-640 701.5,-600 720,-600" fill="none" stroke="#A287E1" stroke-width="2"/><rect x="720" y="-615" width="104" height="30" rx="6" fill="#fafafa" stroke="none"/><text x="772" y="-595" text-anchor="middle" font-size="13" fill="#333" font-family="-apple-system,BlinkMacSystemFont,sans-serif">生成其他单据</text><path d="M464,-640 C502,-640 502,-560 540,-560" fill="none" stroke="#A287E1" stroke-width="2"/><rect x="540" y="-575" width="156" height="30" rx="6" fill="#fafafa" stroke="none"/><text x="618" y="-555" text-anchor="middle" font-size="13" fill="#333" font-family="-apple-system,BlinkMacSystemFont,sans-serif">采购计划的打印和导出</text><path d="M464,-640 C502,-640 502,-520 540,-520" fill="none" stroke="#A287E1" stroke-width="2"/><rect x="540" y="-535" width="104" height="30" rx="6" fill="#fafafa" stroke="none"/><text x="592" y="-515" text-anchor="middle" font-size="13" fill="#333" font-family="-apple-system,BlinkMacSystemFont,sans-serif">采购计划看板</text><path d="M260,-780 C310,-780 310,-420 360,-420" fill="none" stroke="#A287E1" stroke-width="2"/><rect x="360" y="-435" width="104" height="30" rx="6" fill="#fafafa" stroke="none"/><text x="412" y="-415" text-anchor="middle" font-size="13" fill="#333" font-family="-apple-system,BlinkMacSystemFont,sans-serif">产品信息结构</text><path d="M464,-420 C502,-420 502,-480 540,-480" fill="none" stroke="#A287E1" stroke-width="2"/><rect x="540" y="-495" width="104" height="30" rx="6" fill="#fafafa" stroke="none"/><text x="592" y="-475" text-anchor="middle" font-size="13" fill="#333" font-family="-apple-system,BlinkMacSystemFont,sans-serif">基础信息字段</text><path d="M464,-420 C502,-420 502,-440 540,-440" fill="none" stroke="#A287E1" stroke-width="2"/><rect x="540" y="-455" width="80" height="30" rx="6" fill="#fafafa" stroke="none"/><text x="580" y="-435" text-anchor="middle" font-size="13" fill="#333" font-family="-apple-system,BlinkMacSystemFont,sans-serif">状态定义</text><path d="M464,-420 C502,-420 502,-400 540,-400" fill="none" stroke="#A287E1" stroke-width="2"/><rect x="540" y="-415" width="104" height="30" rx="6" fill="#fafafa" stroke="none"/><text x="592" y="-395" text-anchor="middle" font-size="13" fill="#333" font-family="-apple-system,BlinkMacSystemFont,sans-serif">产品明细字段</text><path d="M464,-420 C502,-420 502,-360 540,-360" fill="none" stroke="#A287E1" stroke-width="2"/><rect x="540" y="-375" width="104" height="30" rx="6" fill="#fafafa" stroke="none"/><text x="592" y="-355" text-anchor="middle" font-size="13" fill="#333" font-family="-apple-system,BlinkMacSystemFont,sans-serif">参考竞品即可</text><path d="M76,0 C166,0 166,240 256,240" fill="none" stroke="#6F81DB" stroke-width="2"/><rect x="180" y="225" width="80" height="30" rx="6" fill="#fafafa" stroke="none"/><text x="220" y="245" text-anchor="middle" font-size="13" fill="#333" font-family="-apple-system,BlinkMacSystemFont,sans-serif">采购订单</text><path d="M260,240 C310,240 310,-220 360,-220" fill="none" stroke="#6F81DB" stroke-width="2"/><rect x="360" y="-235" width="117" height="30" rx="6" fill="#fafafa" stroke="none"/><text x="418.5" y="-215" text-anchor="middle" font-size="13" fill="#333" font-family="-apple-system,BlinkMacSystemFont,sans-serif">需求分析、背景</text><path d="M477,-220 C508.5,-220 508.5,-320 540,-320" fill="none" stroke="#6F81DB" stroke-width="2"/><rect x="540" y="-335" width="403" height="30" rx="6" fill="#fafafa" stroke="none"/><text x="741.5" y="-315" text-anchor="middle" font-size="13" fill="#333" font-family="-apple-system,BlinkMacSystemFont,sans-serif">采购订单是和供应商协同的重要凭证，也是采购管理中的重要单据</text><path d="M477,-220 C508.5,-220 508.5,-280 540,-280" fill="none" stroke="#6F81DB" stroke-width="2"/><rect x="540" y="-295" width="351" height="30" rx="6" fill="#fafafa" stroke="none"/><text x="715.5" y="-275" text-anchor="middle" font-size="13" fill="#333" font-family="-apple-system,BlinkMacSystemFont,sans-serif">采购订单可以单独创建，也可以从采购计划生成采购订单</text><path d="M477,-220 C508.5,-220 508.5,-180 540,-180" fill="none" stroke="#6F81DB" stroke-width="2"/><rect x="540" y="-195" width="494" height="30" rx="6" fill="#fafafa" stroke="none"/><text x="787" y="-175" text-anchor="middle" font-size="13" fill="#333" font-family="-apple-system,BlinkMacSystemFont,sans-serif">采购订单承载的内容和场景是最多的，所以要分析清楚采购订单会涉及到哪些业务</text><path d="M1034,-180 C877,-180 877,-240 720,-240" fill="none" stroke="#6F81DB" stroke-width="2"/><rect x="720" y="-255" width="80" height="30" rx="6" fill="#fafafa" stroke="none"/><text x="760" y="-235" text-anchor="middle" font-size="13" fill="#333" font-family="-apple-system,BlinkMacSystemFont,sans-serif">采购员</text><path d="M1034,-180 C877,-180 877,-200 720,-200" fill="none" stroke="#6F81DB" stroke-width="2"/><rect x="720" y="-215" width="80" height="30" rx="6" fill="#fafafa" stroke="none"/><text x="760" y="-195" text-anchor="middle" font-size="13" fill="#333" font-family="-apple-system,BlinkMacSystemFont,sans-serif">采购主管</text><path d="M1034,-180 C877,-180 877,-160 720,-160" fill="none" stroke="#6F81DB" stroke-width="2"/><rect x="720" y="-175" width="80" height="30" rx="6" fill="#fafafa" stroke="none"/><text x="760" y="-155" text-anchor="middle" font-size="13" fill="#333" font-family="-apple-system,BlinkMacSystemFont,sans-serif">仓库</text><path d="M1034,-180 C877,-180 877,-120 720,-120" fill="none" stroke="#6F81DB" stroke-width="2"/><rect x="720" y="-135" width="80" height="30" rx="6" fill="#fafafa" stroke="none"/><text x="760" y="-115" text-anchor="middle" font-size="13" fill="#333" font-family="-apple-system,BlinkMacSystemFont,sans-serif">财务</text><path d="M260,240 C310,240 310,140 360,140" fill="none" stroke="#6F81DB" stroke-width="2"/><rect x="360" y="125" width="104" height="30" rx="6" fill="#fafafa" stroke="none"/><text x="412" y="145" text-anchor="middle" font-size="13" fill="#333" font-family="-apple-system,BlinkMacSystemFont,sans-serif">初步方案设计</text><path d="M464,140 C502,140 502,40 540,40" fill="none" stroke="#6F81DB" stroke-width="2"/><rect x="540" y="25" width="80" height="30" rx="6" fill="#fafafa" stroke="none"/><text x="580" y="45" text-anchor="middle" font-size="13" fill="#333" font-family="-apple-system,BlinkMacSystemFont,sans-serif">业务设计</text><path d="M620,40 C670,40 670,-80 720,-80" fill="none" stroke="#6F81DB" stroke-width="2"/><rect x="720" y="-95" width="338" height="30" rx="6" fill="#fafafa" stroke="none"/><text x="889" y="-75" text-anchor="middle" font-size="13" fill="#333" font-family="-apple-system,BlinkMacSystemFont,sans-serif">采购订单怎么创建？采购订单创建后怎么触达给供应商</text><path d="M620,40 C670,40 670,-40 720,-40" fill="none" stroke="#6F81DB" stroke-width="2"/><rect x="720" y="-55" width="273" height="30" rx="6" fill="#fafafa" stroke="none"/><text x="856.5" y="-35" text-anchor="middle" font-size="13" fill="#333" font-family="-apple-system,BlinkMacSystemFont,sans-serif">供应商发货后，怎么和采购订单联动，响应</text><path d="M620,40 C670,40 670,0 720,0" fill="none" stroke="#6F81DB" stroke-width="2"/><rect x="720" y="-15" width="455" height="30" rx="6" fill="#fafafa" stroke="none"/><text x="947.5" y="5" text-anchor="middle" font-size="13" fill="#333" font-family="-apple-system,BlinkMacSystemFont,sans-serif">采购下单的流程是怎么样的？是否需要采购领导审批，是否需要财务审批？</text><path d="M620,40 C670,40 670,40 720,40" fill="none" stroke="#6F81DB" stroke-width="2"/><rect x="720" y="25" width="195" height="30" rx="6" fill="#fafafa" stroke="none"/><text x="817.5" y="45" text-anchor="middle" font-size="13" fill="#333" font-family="-apple-system,BlinkMacSystemFont,sans-serif">采购对账的流程是怎么样的？</text><path d="M620,40 C670,40 670,80 720,80" fill="none" stroke="#6F81DB" stroke-width="2"/><rect x="720" y="65" width="338" height="30" rx="6" fill="#fafafa" stroke="none"/><text x="889" y="85" text-anchor="middle" font-size="13" fill="#333" font-family="-apple-system,BlinkMacSystemFont,sans-serif">采购送货到仓之后，多收，少收，货不对板怎么处理？</text><path d="M620,40 C670,40 670,120 720,120" fill="none" stroke="#6F81DB" stroke-width="2"/><rect x="720" y="105" width="156" height="30" rx="6" fill="#fafafa" stroke="none"/><text x="798" y="125" text-anchor="middle" font-size="13" fill="#333" font-family="-apple-system,BlinkMacSystemFont,sans-serif">采购的赠品怎么处理？</text><path d="M620,40 C670,40 670,160 720,160" fill="none" stroke="#6F81DB" stroke-width="2"/><rect x="720" y="145" width="235.04000000000002" height="30" rx="6" fill="#fafafa" stroke="none"/><text x="837.52" y="165" text-anchor="middle" font-size="13" fill="#333" font-family="-apple-system,BlinkMacSystemFont,sans-serif">电商采购（1688）的模式怎么处理？</text><path d="M464,140 C502,140 502,280 540,280" fill="none" stroke="#6F81DB" stroke-width="2"/><rect x="540" y="265" width="80" height="30" rx="6" fill="#fafafa" stroke="none"/><text x="580" y="285" text-anchor="middle" font-size="13" fill="#333" font-family="-apple-system,BlinkMacSystemFont,sans-serif">应用设计</text><path d="M620,280 C670,280 670,200 720,200" fill="none" stroke="#6F81DB" stroke-width="2"/><rect x="720" y="185" width="273" height="30" rx="6" fill="#fafafa" stroke="none"/><text x="856.5" y="205" text-anchor="middle" font-size="13" fill="#333" font-family="-apple-system,BlinkMacSystemFont,sans-serif">采购单和外部供应商的交互流程怎么设计？</text><path d="M620,280 C670,280 670,240 720,240" fill="none" stroke="#6F81DB" stroke-width="2"/><rect x="720" y="225" width="196.04" height="30" rx="6" fill="#fafafa" stroke="none"/><text x="818.02" y="245" text-anchor="middle" font-size="13" fill="#333" font-family="-apple-system,BlinkMacSystemFont,sans-serif">1688采购这种场景怎么处理？</text><path d="M620,280 C670,280 670,280 720,280" fill="none" stroke="#6F81DB" stroke-width="2"/><rect x="720" y="265" width="390" height="30" rx="6" fill="#fafafa" stroke="none"/><text x="915" y="285" text-anchor="middle" font-size="13" fill="#333" font-family="-apple-system,BlinkMacSystemFont,sans-serif">有几个单据，单据之间的关系是怎么样的，每个单据有什么状态</text><path d="M620,280 C670,280 670,320 720,320" fill="none" stroke="#6F81DB" stroke-width="2"/><rect x="720" y="305" width="390" height="30" rx="6" fill="#fafafa" stroke="none"/><text x="915" y="325" text-anchor="middle" font-size="13" fill="#333" font-family="-apple-system,BlinkMacSystemFont,sans-serif">定义好单据的作用和场景，定义好一些数据交互的流程和规范等</text><path d="M620,280 C670,280 670,360 720,360" fill="none" stroke="#6F81DB" stroke-width="2"/><rect x="720" y="345" width="260" height="30" rx="6" fill="#fafafa" stroke="none"/><text x="850" y="365" text-anchor="middle" font-size="13" fill="#333" font-family="-apple-system,BlinkMacSystemFont,sans-serif">针对主支辅异来输出大致的应用设计方案</text><path d="M260,240 C310,240 310,520 360,520" fill="none" stroke="#6F81DB" stroke-width="2"/><rect x="360" y="505" width="104" height="30" rx="6" fill="#fafafa" stroke="none"/><text x="412" y="525" text-anchor="middle" font-size="13" fill="#333" font-family="-apple-system,BlinkMacSystemFont,sans-serif">产品功能结构</text><path d="M464,520 C502,520 502,400 540,400" fill="none" stroke="#6F81DB" stroke-width="2"/><rect x="540" y="385" width="143" height="30" rx="6" fill="#fafafa" stroke="none"/><text x="611.5" y="405" text-anchor="middle" font-size="13" fill="#333" font-family="-apple-system,BlinkMacSystemFont,sans-serif">采购订单的增删改查</text><path d="M464,520 C502,520 502,440 540,440" fill="none" stroke="#6F81DB" stroke-width="2"/><rect x="540" y="425" width="182" height="30" rx="6" fill="#fafafa" stroke="none"/><text x="631" y="445" text-anchor="middle" font-size="13" fill="#333" font-family="-apple-system,BlinkMacSystemFont,sans-serif">采购订单的变更和变更记录</text><path d="M464,520 C502,520 502,540 540,540" fill="none" stroke="#6F81DB" stroke-width="2"/><rect x="540" y="525" width="143" height="30" rx="6" fill="#fafafa" stroke="none"/><text x="611.5" y="545" text-anchor="middle" font-size="13" fill="#333" font-family="-apple-system,BlinkMacSystemFont,sans-serif">采购订单的关联生成</text><path d="M683,540 C701.5,540 701.5,480 720,480" fill="none" stroke="#6F81DB" stroke-width="2"/><rect x="720" y="465" width="117" height="30" rx="6" fill="#fafafa" stroke="none"/><text x="778.5" y="485" text-anchor="middle" font-size="13" fill="#333" font-family="-apple-system,BlinkMacSystemFont,sans-serif">生成采购入库单</text><path d="M683,540 C701.5,540 701.5,520 720,520" fill="none" stroke="#6F81DB" stroke-width="2"/><rect x="720" y="505" width="117" height="30" rx="6" fill="#fafafa" stroke="none"/><text x="778.5" y="525" text-anchor="middle" font-size="13" fill="#333" font-family="-apple-system,BlinkMacSystemFont,sans-serif">生成采购变更单</text><path d="M683,540 C701.5,540 701.5,560 720,560" fill="none" stroke="#6F81DB" stroke-width="2"/><rect x="720" y="545" width="91" height="30" rx="6" fill="#fafafa" stroke="none"/><text x="765.5" y="565" text-anchor="middle" font-size="13" fill="#333" font-family="-apple-system,BlinkMacSystemFont,sans-serif">生成收货单</text><path d="M683,540 C701.5,540 701.5,600 720,600" fill="none" stroke="#6F81DB" stroke-width="2"/><rect x="720" y="585" width="104" height="30" rx="6" fill="#fafafa" stroke="none"/><text x="772" y="605" text-anchor="middle" font-size="13" fill="#333" font-family="-apple-system,BlinkMacSystemFont,sans-serif">生成其他单据</text><path d="M464,520 C502,520 502,640 540,640" fill="none" stroke="#6F81DB" stroke-width="2"/><rect x="540" y="625" width="156" height="30" rx="6" fill="#fafafa" stroke="none"/><text x="618" y="645" text-anchor="middle" font-size="13" fill="#333" font-family="-apple-system,BlinkMacSystemFont,sans-serif">采购订单的打印和导出</text><path d="M260,240 C310,240 310,740 360,740" fill="none" stroke="#6F81DB" stroke-width="2"/><rect x="360" y="725" width="104" height="30" rx="6" fill="#fafafa" stroke="none"/><text x="412" y="745" text-anchor="middle" font-size="13" fill="#333" font-family="-apple-system,BlinkMacSystemFont,sans-serif">产品信息结构</text><path d="M464,740 C502,740 502,680 540,680" fill="none" stroke="#6F81DB" stroke-width="2"/><rect x="540" y="665" width="104" height="30" rx="6" fill="#fafafa" stroke="none"/><text x="592" y="685" text-anchor="middle" font-size="13" fill="#333" font-family="-apple-system,BlinkMacSystemFont,sans-serif">基础信息字段</text><path d="M464,740 C502,740 502,720 540,720" fill="none" stroke="#6F81DB" stroke-width="2"/><rect x="540" y="705" width="80" height="30" rx="6" fill="#fafafa" stroke="none"/><text x="580" y="725" text-anchor="middle" font-size="13" fill="#333" font-family="-apple-system,BlinkMacSystemFont,sans-serif">状态定义</text><path d="M464,740 C502,740 502,760 540,760" fill="none" stroke="#6F81DB" stroke-width="2"/><rect x="540" y="745" width="104" height="30" rx="6" fill="#fafafa" stroke="none"/><text x="592" y="765" text-anchor="middle" font-size="13" fill="#333" font-family="-apple-system,BlinkMacSystemFont,sans-serif">产品明细字段</text><path d="M464,740 C502,740 502,800 540,800" fill="none" stroke="#6F81DB" stroke-width="2"/><rect x="540" y="785" width="104" height="30" rx="6" fill="#fafafa" stroke="none"/><text x="592" y="805" text-anchor="middle" font-size="13" fill="#333" font-family="-apple-system,BlinkMacSystemFont,sans-serif">参考竞品即可</text><path d="M76,0 C166,0 166,920 256,920" fill="none" stroke="#6EC4C4" stroke-width="2"/><rect x="180" y="905" width="91" height="30" rx="6" fill="#fafafa" stroke="none"/><text x="225.5" y="925" text-anchor="middle" font-size="13" fill="#333" font-family="-apple-system,BlinkMacSystemFont,sans-serif">采购入库单</text><path d="M271,920 C315.5,920 315.5,840 360,840" fill="none" stroke="#6EC4C4" stroke-width="2"/><rect x="360" y="825" width="117" height="30" rx="6" fill="#fafafa" stroke="none"/><text x="418.5" y="845" text-anchor="middle" font-size="13" fill="#333" font-family="-apple-system,BlinkMacSystemFont,sans-serif">需求分析、背景</text><path d="M271,920 C315.5,920 315.5,880 360,880" fill="none" stroke="#6EC4C4" stroke-width="2"/><rect x="360" y="865" width="104" height="30" rx="6" fill="#fafafa" stroke="none"/><text x="412" y="885" text-anchor="middle" font-size="13" fill="#333" font-family="-apple-system,BlinkMacSystemFont,sans-serif">初步方案设计</text><path d="M271,920 C315.5,920 315.5,920 360,920" fill="none" stroke="#6EC4C4" stroke-width="2"/><rect x="360" y="905" width="104" height="30" rx="6" fill="#fafafa" stroke="none"/><text x="412" y="925" text-anchor="middle" font-size="13" fill="#333" font-family="-apple-system,BlinkMacSystemFont,sans-serif">产品功能结构</text><path d="M271,920 C315.5,920 315.5,960 360,960" fill="none" stroke="#6EC4C4" stroke-width="2"/><rect x="360" y="945" width="104" height="30" rx="6" fill="#fafafa" stroke="none"/><text x="412" y="965" text-anchor="middle" font-size="13" fill="#333" font-family="-apple-system,BlinkMacSystemFont,sans-serif">产品信息结构</text><path d="M271,920 C315.5,920 315.5,1000 360,1000" fill="none" stroke="#6EC4C4" stroke-width="2"/><rect x="360" y="985" width="234" height="30" rx="6" fill="#fafafa" stroke="none"/><text x="477" y="1005" text-anchor="middle" font-size="13" fill="#333" font-family="-apple-system,BlinkMacSystemFont,sans-serif">省略，可参考上方的内容框架和竞品</text><path d="M76,0 C166,0 166,1120 256,1120" fill="none" stroke="#DFB85D" stroke-width="2"/><rect x="180" y="1105" width="91" height="30" rx="6" fill="#fafafa" stroke="none"/><text x="225.5" y="1125" text-anchor="middle" font-size="13" fill="#333" font-family="-apple-system,BlinkMacSystemFont,sans-serif">采购退货单</text><path d="M271,1120 C315.5,1120 315.5,1040 360,1040" fill="none" stroke="#DFB85D" stroke-width="2"/><rect x="360" y="1025" width="117" height="30" rx="6" fill="#fafafa" stroke="none"/><text x="418.5" y="1045" text-anchor="middle" font-size="13" fill="#333" font-family="-apple-system,BlinkMacSystemFont,sans-serif">需求分析、背景</text><path d="M271,1120 C315.5,1120 315.5,1080 360,1080" fill="none" stroke="#DFB85D" stroke-width="2"/><rect x="360" y="1065" width="104" height="30" rx="6" fill="#fafafa" stroke="none"/><text x="412" y="1085" text-anchor="middle" font-size="13" fill="#333" font-family="-apple-system,BlinkMacSystemFont,sans-serif">初步方案设计</text><path d="M271,1120 C315.5,1120 315.5,1120 360,1120" fill="none" stroke="#DFB85D" stroke-width="2"/><rect x="360" y="1105" width="104" height="30" rx="6" fill="#fafafa" stroke="none"/><text x="412" y="1125" text-anchor="middle" font-size="13" fill="#333" font-family="-apple-system,BlinkMacSystemFont,sans-serif">产品功能结构</text><path d="M271,1120 C315.5,1120 315.5,1160 360,1160" fill="none" stroke="#DFB85D" stroke-width="2"/><rect x="360" y="1145" width="104" height="30" rx="6" fill="#fafafa" stroke="none"/><text x="412" y="1165" text-anchor="middle" font-size="13" fill="#333" font-family="-apple-system,BlinkMacSystemFont,sans-serif">产品信息结构</text><path d="M271,1120 C315.5,1120 315.5,1200 360,1200" fill="none" stroke="#DFB85D" stroke-width="2"/><rect x="360" y="1185" width="234" height="30" rx="6" fill="#fafafa" stroke="none"/><text x="477" y="1205" text-anchor="middle" font-size="13" fill="#333" font-family="-apple-system,BlinkMacSystemFont,sans-serif">省略，可参考上方的内容框架和竞品</text>
</svg>