<svg xmlns="http://www.w3.org/2000/svg" xmlns:xlink="http://www.w3.org/1999/xlink"
  viewBox="-148.48000000000002 -1259 1771.48 2518" width="1771.48" height="2518"
  style="background:#fff; font-family:-apple-system,BlinkMacSystemFont,'Segoe UI',Roboto,sans-serif;">
<defs></defs>
<rect x="-148.48000000000002" y="-1259" width="1771.48" height="2518" fill="#fff"/>
<rect x="-64.48" y="-18" width="128.96" height="36" rx="8" fill="#EFF0F0" stroke="none"/><text x="0" y="6" text-anchor="middle" font-size="16" font-weight="bold" fill="#333" font-family="-apple-system,BlinkMacSystemFont,sans-serif">WMS业务介绍</text><path d="M64.48,0 C154.48000000000002,0 154.48000000000002,-800 244.48000000000002,-800" fill="none" stroke="#A287E1" stroke-width="2"/><rect x="180" y="-815" width="85.28" height="30" rx="6" fill="#fafafa" stroke="none"/><text x="222.64" y="-795" text-anchor="middle" font-size="13" fill="#333" font-family="-apple-system,BlinkMacSystemFont,sans-serif">WMS的背景</text><path d="M265.28,-800 C312.64,-800 312.64,-1060 360,-1060" fill="none" stroke="#A287E1" stroke-width="2"/><rect x="360" y="-1075" width="124.28000000000002" height="30" rx="6" fill="#fafafa" stroke="none"/><text x="422.14" y="-1055" text-anchor="middle" font-size="13" fill="#333" font-family="-apple-system,BlinkMacSystemFont,sans-serif">为什么需要WMS？</text><path d="M484.28000000000003,-1060 C512.14,-1060 512.14,-1160 540,-1160" fill="none" stroke="#A287E1" stroke-width="2"/><rect x="540" y="-1175" width="833.56" height="30" rx="6" fill="#fafafa" stroke="none"/><text x="956.78" y="-1155" text-anchor="middle" font-size="13" fill="#333" font-family="-apple-system,BlinkMacSystemFont,sans-serif">WMS是仓储管理系统，有仓库，有货物要管，那么就需要有WMS。如果是小型的门店或者仓库，没有涉及到复杂业务的，可以直接用进销存来管</text><path d="M484.28000000000003,-1060 C512.14,-1060 512.14,-1060 540,-1060" fill="none" stroke="#A287E1" stroke-width="2"/><rect x="540" y="-1075" width="442" height="30" rx="6" fill="#fafafa" stroke="none"/><text x="761" y="-1055" text-anchor="middle" font-size="13" fill="#333" font-family="-apple-system,BlinkMacSystemFont,sans-serif">进销存也可以有库位管理，只不过是很简单的库位记录，精细化归类而已</text><path d="M982,-1060 C851,-1060 851,-1120 720,-1120" fill="none" stroke="#A287E1" stroke-width="2"/><rect x="720" y="-1135" width="397.28" height="30" rx="6" fill="#fafafa" stroke="none"/><text x="918.64" y="-1115" text-anchor="middle" font-size="13" fill="#333" font-family="-apple-system,BlinkMacSystemFont,sans-serif">不要以为进销存就不能有库位，有了库位的就是WMS，这个是误区</text><path d="M982,-1060 C851,-1060 851,-1080 720,-1080" fill="none" stroke="#A287E1" stroke-width="2"/><rect x="720" y="-1095" width="444.0799999999999" height="30" rx="6" fill="#fafafa" stroke="none"/><text x="942.04" y="-1075" text-anchor="middle" font-size="13" fill="#333" font-family="-apple-system,BlinkMacSystemFont,sans-serif">也不要以为仓库管理只能用WMS，其实ERP的“仓储模块”也可以用来管仓库</text><path d="M982,-1060 C851,-1060 851,-1040 720,-1040" fill="none" stroke="#A287E1" stroke-width="2"/><rect x="720" y="-1055" width="566.28" height="30" rx="6" fill="#fafafa" stroke="none"/><text x="1003.14" y="-1035" text-anchor="middle" font-size="13" fill="#333" font-family="-apple-system,BlinkMacSystemFont,sans-serif">西餐中有各种各样的刀具，可以用来剔骨，切蔬菜，切面包，削皮等，WMS就类似于其中的一种</text><path d="M982,-1060 C851,-1060 851,-1000 720,-1000" fill="none" stroke="#A287E1" stroke-width="2"/><rect x="720" y="-1015" width="410.28" height="30" rx="6" fill="#fafafa" stroke="none"/><text x="925.14" y="-995" text-anchor="middle" font-size="13" fill="#333" font-family="-apple-system,BlinkMacSystemFont,sans-serif">中餐中一般就一把刀，前切后斩，覆盖绝大多数场景，就类似于ERP</text><path d="M484.28000000000003,-1060 C512.14,-1060 512.14,-960 540,-960" fill="none" stroke="#A287E1" stroke-width="2"/><rect x="540" y="-975" width="436.28" height="30" rx="6" fill="#fafafa" stroke="none"/><text x="758.14" y="-955" text-anchor="middle" font-size="13" fill="#333" font-family="-apple-system,BlinkMacSystemFont,sans-serif">WMS更专注于仓库层面的管控，可以达到非常精细化程度的存货管理要求</text><path d="M265.28,-800 C312.64,-800 312.64,-680 360,-680" fill="none" stroke="#A287E1" stroke-width="2"/><rect x="360" y="-695" width="85.28" height="30" rx="6" fill="#fafafa" stroke="none"/><text x="402.64" y="-675" text-anchor="middle" font-size="13" fill="#333" font-family="-apple-system,BlinkMacSystemFont,sans-serif">WMS的分类</text><path d="M445.28,-680 C492.64,-680 492.64,-900 540,-900" fill="none" stroke="#A287E1" stroke-width="2"/><rect x="540" y="-915" width="436.28" height="30" rx="6" fill="#fafafa" stroke="none"/><text x="758.14" y="-895" text-anchor="middle" font-size="13" fill="#333" font-family="-apple-system,BlinkMacSystemFont,sans-serif">对于WMS来说，有很多种分类方式，不同的分类方式下的仓库也会有区别</text><path d="M976.28,-900 C848.14,-900 848.14,-920 720,-920" fill="none" stroke="#A287E1" stroke-width="2"/><rect x="720" y="-935" width="410.79999999999995" height="30" rx="6" fill="#fafafa" stroke="none"/><text x="925.4" y="-915" text-anchor="middle" font-size="13" fill="#333" font-family="-apple-system,BlinkMacSystemFont,sans-serif">1.抓住WMS的内核和本质，是围绕货物的入，出，库内的管理来做的</text><path d="M976.28,-900 C848.14,-900 848.14,-880 720,-880" fill="none" stroke="#A287E1" stroke-width="2"/><rect x="720" y="-895" width="573.56" height="30" rx="6" fill="#fafafa" stroke="none"/><text x="1006.78" y="-875" text-anchor="middle" font-size="13" fill="#333" font-family="-apple-system,BlinkMacSystemFont,sans-serif">2.可以先从常见的，有相关学习资料的电商仓/海外仓入手学习，后续再迁移到其他方向的WMS中</text><path d="M445.28,-680 C492.64,-680 492.64,-820 540,-820" fill="none" stroke="#A287E1" stroke-width="2"/><rect x="540" y="-835" width="169" height="30" rx="6" fill="#fafafa" stroke="none"/><text x="624.5" y="-815" text-anchor="middle" font-size="13" fill="#333" font-family="-apple-system,BlinkMacSystemFont,sans-serif">仓库分布国内或者海外的</text><path d="M709,-820 C714.5,-820 714.5,-840 720,-840" fill="none" stroke="#A287E1" stroke-width="2"/><rect x="720" y="-855" width="80" height="30" rx="6" fill="#fafafa" stroke="none"/><text x="760" y="-835" text-anchor="middle" font-size="13" fill="#333" font-family="-apple-system,BlinkMacSystemFont,sans-serif">国内仓</text><path d="M709,-820 C714.5,-820 714.5,-800 720,-800" fill="none" stroke="#A287E1" stroke-width="2"/><rect x="720" y="-815" width="80" height="30" rx="6" fill="#fafafa" stroke="none"/><text x="760" y="-795" text-anchor="middle" font-size="13" fill="#333" font-family="-apple-system,BlinkMacSystemFont,sans-serif">海外仓</text><path d="M445.28,-680 C492.64,-680 492.64,-680 540,-680" fill="none" stroke="#A287E1" stroke-width="2"/><rect x="540" y="-695" width="195" height="30" rx="6" fill="#fafafa" stroke="none"/><text x="637.5" y="-675" text-anchor="middle" font-size="13" fill="#333" font-family="-apple-system,BlinkMacSystemFont,sans-serif">仓库管理的货品是什么类型的</text><path d="M735,-680 C727.5,-680 727.5,-760 720,-760" fill="none" stroke="#A287E1" stroke-width="2"/><rect x="720" y="-775" width="80" height="30" rx="6" fill="#fafafa" stroke="none"/><text x="760" y="-755" text-anchor="middle" font-size="13" fill="#333" font-family="-apple-system,BlinkMacSystemFont,sans-serif">原料仓</text><path d="M735,-680 C727.5,-680 727.5,-720 720,-720" fill="none" stroke="#A287E1" stroke-width="2"/><rect x="720" y="-735" width="80" height="30" rx="6" fill="#fafafa" stroke="none"/><text x="760" y="-715" text-anchor="middle" font-size="13" fill="#333" font-family="-apple-system,BlinkMacSystemFont,sans-serif">半成品仓</text><path d="M735,-680 C727.5,-680 727.5,-680 720,-680" fill="none" stroke="#A287E1" stroke-width="2"/><rect x="720" y="-695" width="80" height="30" rx="6" fill="#fafafa" stroke="none"/><text x="760" y="-675" text-anchor="middle" font-size="13" fill="#333" font-family="-apple-system,BlinkMacSystemFont,sans-serif">成品仓</text><path d="M735,-680 C727.5,-680 727.5,-640 720,-640" fill="none" stroke="#A287E1" stroke-width="2"/><rect x="720" y="-655" width="80" height="30" rx="6" fill="#fafafa" stroke="none"/><text x="760" y="-635" text-anchor="middle" font-size="13" fill="#333" font-family="-apple-system,BlinkMacSystemFont,sans-serif">冷冻仓</text><path d="M735,-680 C727.5,-680 727.5,-600 720,-600" fill="none" stroke="#A287E1" stroke-width="2"/><rect x="720" y="-615" width="80" height="30" rx="6" fill="#fafafa" stroke="none"/><text x="760" y="-595" text-anchor="middle" font-size="13" fill="#333" font-family="-apple-system,BlinkMacSystemFont,sans-serif">……</text><path d="M445.28,-680 C492.64,-680 492.64,-500 540,-500" fill="none" stroke="#A287E1" stroke-width="2"/><rect x="540" y="-515" width="143" height="30" rx="6" fill="#fafafa" stroke="none"/><text x="611.5" y="-495" text-anchor="middle" font-size="13" fill="#333" font-family="-apple-system,BlinkMacSystemFont,sans-serif">仓库主要满足的业务</text><path d="M683,-500 C701.5,-500 701.5,-560 720,-560" fill="none" stroke="#A287E1" stroke-width="2"/><rect x="720" y="-575" width="130.51999999999998" height="30" rx="6" fill="#fafafa" stroke="none"/><text x="785.26" y="-555" text-anchor="middle" font-size="13" fill="#333" font-family="-apple-system,BlinkMacSystemFont,sans-serif">电商业务-&gt;电商仓</text><path d="M683,-500 C701.5,-500 701.5,-520 720,-520" fill="none" stroke="#A287E1" stroke-width="2"/><rect x="720" y="-535" width="130.51999999999998" height="30" rx="6" fill="#fafafa" stroke="none"/><text x="785.26" y="-515" text-anchor="middle" font-size="13" fill="#333" font-family="-apple-system,BlinkMacSystemFont,sans-serif">加工生产-&gt;生产仓</text><path d="M683,-500 C701.5,-500 701.5,-480 720,-480" fill="none" stroke="#A287E1" stroke-width="2"/><rect x="720" y="-495" width="156.51999999999998" height="30" rx="6" fill="#fafafa" stroke="none"/><text x="798.26" y="-475" text-anchor="middle" font-size="13" fill="#333" font-family="-apple-system,BlinkMacSystemFont,sans-serif">大宗货物-&gt;大宗商品仓</text><path d="M683,-500 C701.5,-500 701.5,-440 720,-440" fill="none" stroke="#A287E1" stroke-width="2"/><rect x="720" y="-455" width="182.52" height="30" rx="6" fill="#fafafa" stroke="none"/><text x="811.26" y="-435" text-anchor="middle" font-size="13" fill="#333" font-family="-apple-system,BlinkMacSystemFont,sans-serif">物流包裹暂存-&gt;物流中转仓</text><path d="M64.48,0 C154.48000000000002,0 154.48000000000002,160 244.48000000000002,160" fill="none" stroke="#6F81DB" stroke-width="2"/><rect x="180" y="145" width="137.28" height="30" rx="6" fill="#fafafa" stroke="none"/><text x="248.64" y="165" text-anchor="middle" font-size="13" fill="#333" font-family="-apple-system,BlinkMacSystemFont,sans-serif">WMS系统的功能模块</text><path d="M317.28,160 C338.64,160 338.64,-400 360,-400" fill="none" stroke="#6F81DB" stroke-width="2"/><rect x="360" y="-415" width="592.28" height="30" rx="6" fill="#fafafa" stroke="none"/><text x="656.14" y="-395" text-anchor="middle" font-size="13" fill="#333" font-family="-apple-system,BlinkMacSystemFont,sans-serif">了解WMS系统一般有多少功能模块，大概是长什么样子？不同的功能模块是为了解决什么业务场景的</text><path d="M317.28,160 C338.64,160 338.64,180 360,180" fill="none" stroke="#6F81DB" stroke-width="2"/><rect x="360" y="165" width="111.28" height="30" rx="6" fill="#fafafa" stroke="none"/><text x="415.64" y="185" text-anchor="middle" font-size="13" fill="#333" font-family="-apple-system,BlinkMacSystemFont,sans-serif">WMS的核心模块</text><path d="M471.28,180 C505.64,180 505.64,-320 540,-320" fill="none" stroke="#6F81DB" stroke-width="2"/><rect x="540" y="-335" width="80" height="30" rx="6" fill="#fafafa" stroke="none"/><text x="580" y="-315" text-anchor="middle" font-size="13" fill="#333" font-family="-apple-system,BlinkMacSystemFont,sans-serif">入库模块</text><path d="M620,-320 C670,-320 670,-360 720,-360" fill="none" stroke="#6F81DB" stroke-width="2"/><rect x="720" y="-375" width="80" height="30" rx="6" fill="#fafafa" stroke="none"/><text x="760" y="-355" text-anchor="middle" font-size="13" fill="#333" font-family="-apple-system,BlinkMacSystemFont,sans-serif">收货</text><path d="M620,-320 C670,-320 670,-320 720,-320" fill="none" stroke="#6F81DB" stroke-width="2"/><rect x="720" y="-335" width="80" height="30" rx="6" fill="#fafafa" stroke="none"/><text x="760" y="-315" text-anchor="middle" font-size="13" fill="#333" font-family="-apple-system,BlinkMacSystemFont,sans-serif">质检</text><path d="M620,-320 C670,-320 670,-280 720,-280" fill="none" stroke="#6F81DB" stroke-width="2"/><rect x="720" y="-295" width="80" height="30" rx="6" fill="#fafafa" stroke="none"/><text x="760" y="-275" text-anchor="middle" font-size="13" fill="#333" font-family="-apple-system,BlinkMacSystemFont,sans-serif">上架</text><path d="M471.28,180 C505.64,180 505.64,-160 540,-160" fill="none" stroke="#6F81DB" stroke-width="2"/><rect x="540" y="-175" width="80" height="30" rx="6" fill="#fafafa" stroke="none"/><text x="580" y="-155" text-anchor="middle" font-size="13" fill="#333" font-family="-apple-system,BlinkMacSystemFont,sans-serif">出库模块</text><path d="M620,-160 C670,-160 670,-240 720,-240" fill="none" stroke="#6F81DB" stroke-width="2"/><rect x="720" y="-255" width="80" height="30" rx="6" fill="#fafafa" stroke="none"/><text x="760" y="-235" text-anchor="middle" font-size="13" fill="#333" font-family="-apple-system,BlinkMacSystemFont,sans-serif">波次</text><path d="M620,-160 C670,-160 670,-200 720,-200" fill="none" stroke="#6F81DB" stroke-width="2"/><rect x="720" y="-215" width="80" height="30" rx="6" fill="#fafafa" stroke="none"/><text x="760" y="-195" text-anchor="middle" font-size="13" fill="#333" font-family="-apple-system,BlinkMacSystemFont,sans-serif">拣货</text><path d="M620,-160 C670,-160 670,-160 720,-160" fill="none" stroke="#6F81DB" stroke-width="2"/><rect x="720" y="-175" width="80" height="30" rx="6" fill="#fafafa" stroke="none"/><text x="760" y="-155" text-anchor="middle" font-size="13" fill="#333" font-family="-apple-system,BlinkMacSystemFont,sans-serif">二次分拣</text><path d="M620,-160 C670,-160 670,-120 720,-120" fill="none" stroke="#6F81DB" stroke-width="2"/><rect x="720" y="-135" width="80" height="30" rx="6" fill="#fafafa" stroke="none"/><text x="760" y="-115" text-anchor="middle" font-size="13" fill="#333" font-family="-apple-system,BlinkMacSystemFont,sans-serif">复核</text><path d="M620,-160 C670,-160 670,-80 720,-80" fill="none" stroke="#6F81DB" stroke-width="2"/><rect x="720" y="-95" width="80" height="30" rx="6" fill="#fafafa" stroke="none"/><text x="760" y="-75" text-anchor="middle" font-size="13" fill="#333" font-family="-apple-system,BlinkMacSystemFont,sans-serif">称重</text><path d="M471.28,180 C505.64,180 505.64,40 540,40" fill="none" stroke="#6F81DB" stroke-width="2"/><rect x="540" y="25" width="80" height="30" rx="6" fill="#fafafa" stroke="none"/><text x="580" y="45" text-anchor="middle" font-size="13" fill="#333" font-family="-apple-system,BlinkMacSystemFont,sans-serif">库内模块</text><path d="M620,40 C670,40 670,-40 720,-40" fill="none" stroke="#6F81DB" stroke-width="2"/><rect x="720" y="-55" width="80" height="30" rx="6" fill="#fafafa" stroke="none"/><text x="760" y="-35" text-anchor="middle" font-size="13" fill="#333" font-family="-apple-system,BlinkMacSystemFont,sans-serif">库存查询</text><path d="M620,40 C670,40 670,0 720,0" fill="none" stroke="#6F81DB" stroke-width="2"/><rect x="720" y="-15" width="80" height="30" rx="6" fill="#fafafa" stroke="none"/><text x="760" y="5" text-anchor="middle" font-size="13" fill="#333" font-family="-apple-system,BlinkMacSystemFont,sans-serif">库存调整</text><path d="M620,40 C670,40 670,40 720,40" fill="none" stroke="#6F81DB" stroke-width="2"/><rect x="720" y="25" width="84.75999999999999" height="30" rx="6" fill="#fafafa" stroke="none"/><text x="762.38" y="45" text-anchor="middle" font-size="13" fill="#333" font-family="-apple-system,BlinkMacSystemFont,sans-serif">移库/移位</text><path d="M620,40 C670,40 670,80 720,80" fill="none" stroke="#6F81DB" stroke-width="2"/><rect x="720" y="65" width="80" height="30" rx="6" fill="#fafafa" stroke="none"/><text x="760" y="85" text-anchor="middle" font-size="13" fill="#333" font-family="-apple-system,BlinkMacSystemFont,sans-serif">盘点</text><path d="M620,40 C670,40 670,120 720,120" fill="none" stroke="#6F81DB" stroke-width="2"/><rect x="720" y="105" width="80" height="30" rx="6" fill="#fafafa" stroke="none"/><text x="760" y="125" text-anchor="middle" font-size="13" fill="#333" font-family="-apple-system,BlinkMacSystemFont,sans-serif">补货</text><path d="M471.28,180 C505.64,180 505.64,440 540,440" fill="none" stroke="#6F81DB" stroke-width="2"/><rect x="540" y="425" width="136.76" height="30" rx="6" fill="#fafafa" stroke="none"/><text x="608.38" y="445" text-anchor="middle" font-size="13" fill="#333" font-family="-apple-system,BlinkMacSystemFont,sans-serif">基础资料/配置信息</text><path d="M676.76,440 C698.38,440 698.38,160 720,160" fill="none" stroke="#6F81DB" stroke-width="2"/><rect x="720" y="145" width="80" height="30" rx="6" fill="#fafafa" stroke="none"/><text x="760" y="165" text-anchor="middle" font-size="13" fill="#333" font-family="-apple-system,BlinkMacSystemFont,sans-serif">仓库资料</text><path d="M676.76,440 C698.38,440 698.38,200 720,200" fill="none" stroke="#6F81DB" stroke-width="2"/><rect x="720" y="185" width="80" height="30" rx="6" fill="#fafafa" stroke="none"/><text x="760" y="205" text-anchor="middle" font-size="13" fill="#333" font-family="-apple-system,BlinkMacSystemFont,sans-serif">货主资料</text><path d="M676.76,440 C698.38,440 698.38,240 720,240" fill="none" stroke="#6F81DB" stroke-width="2"/><rect x="720" y="225" width="130" height="30" rx="6" fill="#fafafa" stroke="none"/><text x="785" y="245" text-anchor="middle" font-size="13" fill="#333" font-family="-apple-system,BlinkMacSystemFont,sans-serif">产品（商品）资料</text><path d="M676.76,440 C698.38,440 698.38,360 720,360" fill="none" stroke="#6F81DB" stroke-width="2"/><rect x="720" y="345" width="104" height="30" rx="6" fill="#fafafa" stroke="none"/><text x="772" y="365" text-anchor="middle" font-size="13" fill="#333" font-family="-apple-system,BlinkMacSystemFont,sans-serif">仓库基础信息</text><path d="M824,360 C862,360 862,280 900,280" fill="none" stroke="#6F81DB" stroke-width="2"/><rect x="900" y="265" width="80" height="30" rx="6" fill="#fafafa" stroke="none"/><text x="940" y="285" text-anchor="middle" font-size="13" fill="#333" font-family="-apple-system,BlinkMacSystemFont,sans-serif">仓库</text><path d="M824,360 C862,360 862,320 900,320" fill="none" stroke="#6F81DB" stroke-width="2"/><rect x="900" y="305" width="80" height="30" rx="6" fill="#fafafa" stroke="none"/><text x="940" y="325" text-anchor="middle" font-size="13" fill="#333" font-family="-apple-system,BlinkMacSystemFont,sans-serif">库位</text><path d="M824,360 C862,360 862,360 900,360" fill="none" stroke="#6F81DB" stroke-width="2"/><rect x="900" y="345" width="80" height="30" rx="6" fill="#fafafa" stroke="none"/><text x="940" y="365" text-anchor="middle" font-size="13" fill="#333" font-family="-apple-system,BlinkMacSystemFont,sans-serif">库区</text><path d="M824,360 C862,360 862,400 900,400" fill="none" stroke="#6F81DB" stroke-width="2"/><rect x="900" y="385" width="80" height="30" rx="6" fill="#fafafa" stroke="none"/><text x="940" y="405" text-anchor="middle" font-size="13" fill="#333" font-family="-apple-system,BlinkMacSystemFont,sans-serif">容器</text><path d="M824,360 C862,360 862,440 900,440" fill="none" stroke="#6F81DB" stroke-width="2"/><rect x="900" y="425" width="80" height="30" rx="6" fill="#fafafa" stroke="none"/><text x="940" y="445" text-anchor="middle" font-size="13" fill="#333" font-family="-apple-system,BlinkMacSystemFont,sans-serif">播种墙</text><path d="M676.76,440 C698.38,440 698.38,600 720,600" fill="none" stroke="#6F81DB" stroke-width="2"/><rect x="720" y="585" width="104" height="30" rx="6" fill="#fafafa" stroke="none"/><text x="772" y="605" text-anchor="middle" font-size="13" fill="#333" font-family="-apple-system,BlinkMacSystemFont,sans-serif">各种业务规则</text><path d="M824,600 C862,600 862,480 900,480" fill="none" stroke="#6F81DB" stroke-width="2"/><rect x="900" y="465" width="80" height="30" rx="6" fill="#fafafa" stroke="none"/><text x="940" y="485" text-anchor="middle" font-size="13" fill="#333" font-family="-apple-system,BlinkMacSystemFont,sans-serif">上架规则</text><path d="M824,600 C862,600 862,520 900,520" fill="none" stroke="#6F81DB" stroke-width="2"/><rect x="900" y="505" width="80" height="30" rx="6" fill="#fafafa" stroke="none"/><text x="940" y="525" text-anchor="middle" font-size="13" fill="#333" font-family="-apple-system,BlinkMacSystemFont,sans-serif">波次规则</text><path d="M824,600 C862,600 862,560 900,560" fill="none" stroke="#6F81DB" stroke-width="2"/><rect x="900" y="545" width="80" height="30" rx="6" fill="#fafafa" stroke="none"/><text x="940" y="565" text-anchor="middle" font-size="13" fill="#333" font-family="-apple-system,BlinkMacSystemFont,sans-serif">批次规则</text><path d="M824,600 C862,600 862,640 900,640" fill="none" stroke="#6F81DB" stroke-width="2"/><rect x="900" y="625" width="104" height="30" rx="6" fill="#fafafa" stroke="none"/><text x="952" y="645" text-anchor="middle" font-size="13" fill="#333" font-family="-apple-system,BlinkMacSystemFont,sans-serif">库存周转规则</text><path d="M1004,640 C1042,640 1042,600 1080,600" fill="none" stroke="#6F81DB" stroke-width="2"/><rect x="1080" y="585" width="80" height="30" rx="6" fill="#fafafa" stroke="none"/><text x="1120" y="605" text-anchor="middle" font-size="13" fill="#333" font-family="-apple-system,BlinkMacSystemFont,sans-serif">先进先出</text><path d="M1004,640 C1042,640 1042,640 1080,640" fill="none" stroke="#6F81DB" stroke-width="2"/><rect x="1080" y="625" width="80" height="30" rx="6" fill="#fafafa" stroke="none"/><text x="1120" y="645" text-anchor="middle" font-size="13" fill="#333" font-family="-apple-system,BlinkMacSystemFont,sans-serif">效期优先</text><path d="M1004,640 C1042,640 1042,680 1080,680" fill="none" stroke="#6F81DB" stroke-width="2"/><rect x="1080" y="665" width="104" height="30" rx="6" fill="#fafafa" stroke="none"/><text x="1132" y="685" text-anchor="middle" font-size="13" fill="#333" font-family="-apple-system,BlinkMacSystemFont,sans-serif">指定批次优先</text><path d="M824,600 C862,600 862,720 900,720" fill="none" stroke="#6F81DB" stroke-width="2"/><rect x="900" y="705" width="104" height="30" rx="6" fill="#fafafa" stroke="none"/><text x="952" y="725" text-anchor="middle" font-size="13" fill="#333" font-family="-apple-system,BlinkMacSystemFont,sans-serif">库存分配规则</text><path d="M1004,720 C1042,720 1042,720 1080,720" fill="none" stroke="#6F81DB" stroke-width="2"/><rect x="1080" y="705" width="208.51999999999998" height="30" rx="6" fill="#fafafa" stroke="none"/><text x="1184.26" y="725" text-anchor="middle" font-size="13" fill="#333" font-family="-apple-system,BlinkMacSystemFont,sans-serif">批次-库位-库存的推荐分配规则</text><path d="M64.48,0 C154.48000000000002,0 154.48000000000002,840 244.48000000000002,840" fill="none" stroke="#6EC4C4" stroke-width="2"/><rect x="180" y="825" width="124.28" height="30" rx="6" fill="#fafafa" stroke="none"/><text x="242.14" y="845" text-anchor="middle" font-size="13" fill="#333" font-family="-apple-system,BlinkMacSystemFont,sans-serif">WMS系统的重难点</text><path d="M304.28,840 C332.14,840 332.14,760 360,760" fill="none" stroke="#6EC4C4" stroke-width="2"/><rect x="360" y="745" width="702.52" height="30" rx="6" fill="#fafafa" stroke="none"/><text x="711.26" y="765" text-anchor="middle" font-size="13" fill="#333" font-family="-apple-system,BlinkMacSystemFont,sans-serif">1.业务概念，名词很多，而且和实际业务结合的很密切，如果没有去过现场，很难理解这些业务概念和业务流程的运转</text><path d="M304.28,840 C332.14,840 332.14,800 360,800" fill="none" stroke="#6EC4C4" stroke-width="2"/><rect x="360" y="785" width="540.8" height="30" rx="6" fill="#fafafa" stroke="none"/><text x="630.4" y="805" text-anchor="middle" font-size="13" fill="#333" font-family="-apple-system,BlinkMacSystemFont,sans-serif">2.管理很精细化，所以WMS可配置化的东西太多，导致很多模块的关联性很多，需要全局观</text><path d="M304.28,840 C332.14,840 332.14,840 360,840" fill="none" stroke="#6EC4C4" stroke-width="2"/><rect x="360" y="825" width="988.52" height="30" rx="6" fill="#fafafa" stroke="none"/><text x="854.26" y="845" text-anchor="middle" font-size="13" fill="#333" font-family="-apple-system,BlinkMacSystemFont,sans-serif">3.对于初学者，可借鉴的竞品比较少，如果公司没有对应的条件，没有合适的业务去磨合，那么学习和工作中的难度都很大，而如果有好的环境和条件，则学习进步很快</text><path d="M304.28,840 C332.14,840 332.14,880 360,880" fill="none" stroke="#6EC4C4" stroke-width="2"/><rect x="360" y="865" width="657.8" height="30" rx="6" fill="#fafafa" stroke="none"/><text x="688.9" y="885" text-anchor="middle" font-size="13" fill="#333" font-family="-apple-system,BlinkMacSystemFont,sans-serif">4.WMS的业务逻辑性很强，里面有很多计算型的数据推演，很多配置类的规则等，需要仔细梳理清楚其中的规则</text><path d="M304.28,840 C332.14,840 332.14,920 360,920" fill="none" stroke="#6EC4C4" stroke-width="2"/><rect x="360" y="905" width="834.0799999999999" height="30" rx="6" fill="#fafafa" stroke="none"/><text x="777.04" y="925" text-anchor="middle" font-size="13" fill="#333" font-family="-apple-system,BlinkMacSystemFont,sans-serif">5.各个仓库的业务规则不太一样，WMS需要强大而且灵活，快速响应用户的需求，而且WMS还和其他上下游系统关联性很强，不是想改就能改的</text><path d="M64.48,0 C154.48000000000002,0 154.48000000000002,1060 244.48000000000002,1060" fill="none" stroke="#77C386" stroke-width="2"/><rect x="180" y="1045" width="202.28" height="30" rx="6" fill="#fafafa" stroke="none"/><text x="281.14" y="1065" text-anchor="middle" font-size="13" fill="#333" font-family="-apple-system,BlinkMacSystemFont,sans-serif">WMS的几节课教会了大家什么？</text><path d="M382.28,1060 C371.14,1060 371.14,960 360,960" fill="none" stroke="#77C386" stroke-width="2"/><rect x="360" y="945" width="351" height="30" rx="6" fill="#fafafa" stroke="none"/><text x="535.5" y="965" text-anchor="middle" font-size="13" fill="#333" font-family="-apple-system,BlinkMacSystemFont,sans-serif">通过这么几节课的学习，大家学到了什么？提升了什么？</text><path d="M382.28,1060 C371.14,1060 371.14,1000 360,1000" fill="none" stroke="#77C386" stroke-width="2"/><rect x="360" y="985" width="794.04" height="30" rx="6" fill="#fafafa" stroke="none"/><text x="757.02" y="1005" text-anchor="middle" font-size="13" fill="#333" font-family="-apple-system,BlinkMacSystemFont,sans-serif">1.对仓库有了一个更具象化的概念，知道了仓库有什么类型，有什么业务，里面大概长什么样子，对“实物管控”有了一个更深刻的理解</text><path d="M382.28,1060 C371.14,1060 371.14,1040 360,1040" fill="none" stroke="#77C386" stroke-width="2"/><rect x="360" y="1025" width="717.0799999999999" height="30" rx="6" fill="#fafafa" stroke="none"/><text x="718.54" y="1045" text-anchor="middle" font-size="13" fill="#333" font-family="-apple-system,BlinkMacSystemFont,sans-serif">2.对WMS的要负责的业务场景和功能模块有了更深的理解，知道了这些单据的流转是怎么样的，也知道了WMS原来这么复杂</text><path d="M382.28,1060 C371.14,1060 371.14,1080 360,1080" fill="none" stroke="#77C386" stroke-width="2"/><rect x="360" y="1065" width="501.28" height="30" rx="6" fill="#fafafa" stroke="none"/><text x="610.64" y="1085" text-anchor="middle" font-size="13" fill="#333" font-family="-apple-system,BlinkMacSystemFont,sans-serif">3.对更复杂的B端产品方案应该如何设计，如何表达自己的产品逻辑有了更深的感触</text><path d="M382.28,1060 C371.14,1060 371.14,1120 360,1120" fill="none" stroke="#77C386" stroke-width="2"/><rect x="360" y="1105" width="936.52" height="30" rx="6" fill="#fafafa" stroke="none"/><text x="828.26" y="1125" text-anchor="middle" font-size="13" fill="#333" font-family="-apple-system,BlinkMacSystemFont,sans-serif">4.进一步加深了对供应链类产品的认识和理解，供应链业务有很多，供应链系统也有很多，所有都学一遍不太可能，关键是要触类旁通，把基础的知识掌握牢固</text><path d="M382.28,1060 C371.14,1060 371.14,1160 360,1160" fill="none" stroke="#77C386" stroke-width="2"/><rect x="360" y="1145" width="80" height="30" rx="6" fill="#fafafa" stroke="none"/><text x="400" y="1165" text-anchor="middle" font-size="13" fill="#333" font-family="-apple-system,BlinkMacSystemFont,sans-serif">……</text>
</svg>