<svg xmlns="http://www.w3.org/2000/svg" xmlns:xlink="http://www.w3.org/1999/xlink"
  viewBox="-188.48 -1041.25 897.48 2080.25" width="897.48" height="2080.25"
  style="background:#fff; font-family:-apple-system,BlinkMacSystemFont,'Segoe UI',Roboto,sans-serif;">
<defs></defs>
<rect x="-188.48" y="-1041.25" width="897.48" height="2080.25" fill="#fff"/>
<rect x="-104.47999999999999" y="-18" width="208.95999999999998" height="36" rx="8" fill="#EFF0F0" stroke="none"/><text x="0" y="6" text-anchor="middle" font-size="16" font-weight="bold" fill="#333" font-family="-apple-system,BlinkMacSystemFont,sans-serif">国内电商ERP的功能清单</text><path d="M104.47999999999999,0 C194.48000000000002,0 194.48000000000002,-820 284.48,-820" fill="none" stroke="#A287E1" stroke-width="2"/><rect x="180" y="-835" width="80" height="30" rx="6" fill="#fafafa" stroke="none"/><text x="220" y="-815" text-anchor="middle" font-size="13" fill="#333" font-family="-apple-system,BlinkMacSystemFont,sans-serif">商品管理</text><path d="M260,-820 C310,-820 310,-940 360,-940" fill="none" stroke="#A287E1" stroke-width="2"/><rect x="360" y="-955" width="80" height="30" rx="6" fill="#fafafa" stroke="none"/><text x="400" y="-935" text-anchor="middle" font-size="13" fill="#333" font-family="-apple-system,BlinkMacSystemFont,sans-serif">商品管理</text><path d="M260,-820 C310,-820 310,-900 360,-900" fill="none" stroke="#A287E1" stroke-width="2"/><rect x="360" y="-915" width="104" height="30" rx="6" fill="#fafafa" stroke="none"/><text x="412" y="-895" text-anchor="middle" font-size="13" fill="#333" font-family="-apple-system,BlinkMacSystemFont,sans-serif">组合商品管理</text><path d="M260,-820 C310,-820 310,-860 360,-860" fill="none" stroke="#A287E1" stroke-width="2"/><rect x="360" y="-875" width="80" height="30" rx="6" fill="#fafafa" stroke="none"/><text x="400" y="-855" text-anchor="middle" font-size="13" fill="#333" font-family="-apple-system,BlinkMacSystemFont,sans-serif">商品刊登</text><path d="M260,-820 C310,-820 310,-820 360,-820" fill="none" stroke="#A287E1" stroke-width="2"/><rect x="360" y="-835" width="104" height="30" rx="6" fill="#fafafa" stroke="none"/><text x="412" y="-815" text-anchor="middle" font-size="13" fill="#333" font-family="-apple-system,BlinkMacSystemFont,sans-serif">店铺商品管理</text><path d="M260,-820 C310,-820 310,-780 360,-780" fill="none" stroke="#A287E1" stroke-width="2"/><rect x="360" y="-795" width="104" height="30" rx="6" fill="#fafafa" stroke="none"/><text x="412" y="-775" text-anchor="middle" font-size="13" fill="#333" font-family="-apple-system,BlinkMacSystemFont,sans-serif">商品分类管理</text><path d="M260,-820 C310,-820 310,-740 360,-740" fill="none" stroke="#A287E1" stroke-width="2"/><rect x="360" y="-755" width="104" height="30" rx="6" fill="#fafafa" stroke="none"/><text x="412" y="-735" text-anchor="middle" font-size="13" fill="#333" font-family="-apple-system,BlinkMacSystemFont,sans-serif">商品品牌管理</text><path d="M260,-820 C310,-820 310,-700 360,-700" fill="none" stroke="#A287E1" stroke-width="2"/><rect x="360" y="-715" width="104" height="30" rx="6" fill="#fafafa" stroke="none"/><text x="412" y="-695" text-anchor="middle" font-size="13" fill="#333" font-family="-apple-system,BlinkMacSystemFont,sans-serif">商品素材管理</text><path d="M104.47999999999999,0 C194.48000000000002,0 194.48000000000002,-540 284.48,-540" fill="none" stroke="#A287E1" stroke-width="2"/><rect x="180" y="-555" width="80" height="30" rx="6" fill="#fafafa" stroke="none"/><text x="220" y="-535" text-anchor="middle" font-size="13" fill="#333" font-family="-apple-system,BlinkMacSystemFont,sans-serif">采购管理</text><path d="M260,-540 C310,-540 310,-660 360,-660" fill="none" stroke="#A287E1" stroke-width="2"/><rect x="360" y="-675" width="80" height="30" rx="6" fill="#fafafa" stroke="none"/><text x="400" y="-655" text-anchor="middle" font-size="13" fill="#333" font-family="-apple-system,BlinkMacSystemFont,sans-serif">采购建议</text><path d="M260,-540 C310,-540 310,-620 360,-620" fill="none" stroke="#A287E1" stroke-width="2"/><rect x="360" y="-635" width="80" height="30" rx="6" fill="#fafafa" stroke="none"/><text x="400" y="-615" text-anchor="middle" font-size="13" fill="#333" font-family="-apple-system,BlinkMacSystemFont,sans-serif">采购计划</text><path d="M260,-540 C310,-540 310,-580 360,-580" fill="none" stroke="#A287E1" stroke-width="2"/><rect x="360" y="-595" width="80" height="30" rx="6" fill="#fafafa" stroke="none"/><text x="400" y="-575" text-anchor="middle" font-size="13" fill="#333" font-family="-apple-system,BlinkMacSystemFont,sans-serif">采购订单</text><path d="M260,-540 C310,-540 310,-540 360,-540" fill="none" stroke="#A287E1" stroke-width="2"/><rect x="360" y="-555" width="91" height="30" rx="6" fill="#fafafa" stroke="none"/><text x="405.5" y="-535" text-anchor="middle" font-size="13" fill="#333" font-family="-apple-system,BlinkMacSystemFont,sans-serif">采购入库单</text><path d="M260,-540 C310,-540 310,-500 360,-500" fill="none" stroke="#A287E1" stroke-width="2"/><rect x="360" y="-515" width="80" height="30" rx="6" fill="#fafafa" stroke="none"/><text x="400" y="-495" text-anchor="middle" font-size="13" fill="#333" font-family="-apple-system,BlinkMacSystemFont,sans-serif">采购退货</text><path d="M260,-540 C310,-540 310,-460 360,-460" fill="none" stroke="#A287E1" stroke-width="2"/><rect x="360" y="-475" width="91" height="30" rx="6" fill="#fafafa" stroke="none"/><text x="405.5" y="-455" text-anchor="middle" font-size="13" fill="#333" font-family="-apple-system,BlinkMacSystemFont,sans-serif">供应商管理</text><path d="M260,-540 C310,-540 310,-420 360,-420" fill="none" stroke="#A287E1" stroke-width="2"/><rect x="360" y="-435" width="104" height="30" rx="6" fill="#fafafa" stroke="none"/><text x="412" y="-415" text-anchor="middle" font-size="13" fill="#333" font-family="-apple-system,BlinkMacSystemFont,sans-serif">供货关系管理</text><path d="M104.47999999999999,0 C194.48000000000002,0 194.48000000000002,-240 284.48,-240" fill="none" stroke="#DFB85D" stroke-width="2"/><rect x="180" y="-255" width="80" height="30" rx="6" fill="#fafafa" stroke="none"/><text x="220" y="-235" text-anchor="middle" font-size="13" fill="#333" font-family="-apple-system,BlinkMacSystemFont,sans-serif">订单管理</text><path d="M260,-240 C310,-240 310,-380 360,-380" fill="none" stroke="#DFB85D" stroke-width="2"/><rect x="360" y="-395" width="80" height="30" rx="6" fill="#fafafa" stroke="none"/><text x="400" y="-375" text-anchor="middle" font-size="13" fill="#333" font-family="-apple-system,BlinkMacSystemFont,sans-serif">订单管理</text><path d="M260,-240 C310,-240 310,-340 360,-340" fill="none" stroke="#DFB85D" stroke-width="2"/><rect x="360" y="-355" width="80" height="30" rx="6" fill="#fafafa" stroke="none"/><text x="400" y="-335" text-anchor="middle" font-size="13" fill="#333" font-family="-apple-system,BlinkMacSystemFont,sans-serif">订单审核</text><path d="M260,-240 C310,-240 310,-300 360,-300" fill="none" stroke="#DFB85D" stroke-width="2"/><rect x="360" y="-315" width="80" height="30" rx="6" fill="#fafafa" stroke="none"/><text x="400" y="-295" text-anchor="middle" font-size="13" fill="#333" font-family="-apple-system,BlinkMacSystemFont,sans-serif">订单发货</text><path d="M260,-240 C310,-240 310,-260 360,-260" fill="none" stroke="#DFB85D" stroke-width="2"/><rect x="360" y="-275" width="80" height="30" rx="6" fill="#fafafa" stroke="none"/><text x="400" y="-255" text-anchor="middle" font-size="13" fill="#333" font-family="-apple-system,BlinkMacSystemFont,sans-serif">订单规则</text><path d="M260,-240 C310,-240 310,-220 360,-220" fill="none" stroke="#DFB85D" stroke-width="2"/><rect x="360" y="-235" width="80" height="30" rx="6" fill="#fafafa" stroke="none"/><text x="400" y="-215" text-anchor="middle" font-size="13" fill="#333" font-family="-apple-system,BlinkMacSystemFont,sans-serif">异常订单</text><path d="M260,-240 C310,-240 310,-180 360,-180" fill="none" stroke="#DFB85D" stroke-width="2"/><rect x="360" y="-195" width="80" height="30" rx="6" fill="#fafafa" stroke="none"/><text x="400" y="-175" text-anchor="middle" font-size="13" fill="#333" font-family="-apple-system,BlinkMacSystemFont,sans-serif">预售订单</text><path d="M260,-240 C310,-240 310,-140 360,-140" fill="none" stroke="#DFB85D" stroke-width="2"/><rect x="360" y="-155" width="91" height="30" rx="6" fill="#fafafa" stroke="none"/><text x="405.5" y="-135" text-anchor="middle" font-size="13" fill="#333" font-family="-apple-system,BlinkMacSystemFont,sans-serif">销售出库单</text><path d="M260,-240 C310,-240 310,-100 360,-100" fill="none" stroke="#DFB85D" stroke-width="2"/><rect x="360" y="-115" width="80" height="30" rx="6" fill="#fafafa" stroke="none"/><text x="400" y="-95" text-anchor="middle" font-size="13" fill="#333" font-family="-apple-system,BlinkMacSystemFont,sans-serif"></text><path d="M104.47999999999999,0 C194.48000000000002,0 194.48000000000002,40 284.48,40" fill="none" stroke="#77C386" stroke-width="2"/><rect x="180" y="25" width="80" height="30" rx="6" fill="#fafafa" stroke="none"/><text x="220" y="45" text-anchor="middle" font-size="13" fill="#333" font-family="-apple-system,BlinkMacSystemFont,sans-serif">物流管理</text><path d="M260,40 C310,40 310,-60 360,-60" fill="none" stroke="#77C386" stroke-width="2"/><rect x="360" y="-75" width="91" height="30" rx="6" fill="#fafafa" stroke="none"/><text x="405.5" y="-55" text-anchor="middle" font-size="13" fill="#333" font-family="-apple-system,BlinkMacSystemFont,sans-serif">物流商授权</text><path d="M260,40 C310,40 310,-20 360,-20" fill="none" stroke="#77C386" stroke-width="2"/><rect x="360" y="-35" width="104" height="30" rx="6" fill="#fafafa" stroke="none"/><text x="412" y="-15" text-anchor="middle" font-size="13" fill="#333" font-family="-apple-system,BlinkMacSystemFont,sans-serif">物流渠道管理</text><path d="M260,40 C310,40 310,20 360,20" fill="none" stroke="#77C386" stroke-width="2"/><rect x="360" y="5" width="104" height="30" rx="6" fill="#fafafa" stroke="none"/><text x="412" y="25" text-anchor="middle" font-size="13" fill="#333" font-family="-apple-system,BlinkMacSystemFont,sans-serif">物流规则管理</text><path d="M260,40 C310,40 310,60 360,60" fill="none" stroke="#77C386" stroke-width="2"/><rect x="360" y="45" width="80" height="30" rx="6" fill="#fafafa" stroke="none"/><text x="400" y="65" text-anchor="middle" font-size="13" fill="#333" font-family="-apple-system,BlinkMacSystemFont,sans-serif">地址管理</text><path d="M260,40 C310,40 310,100 360,100" fill="none" stroke="#77C386" stroke-width="2"/><rect x="360" y="85" width="80" height="30" rx="6" fill="#fafafa" stroke="none"/><text x="400" y="105" text-anchor="middle" font-size="13" fill="#333" font-family="-apple-system,BlinkMacSystemFont,sans-serif">运费模板</text><path d="M260,40 C310,40 310,140 360,140" fill="none" stroke="#77C386" stroke-width="2"/><rect x="360" y="125" width="130" height="30" rx="6" fill="#fafafa" stroke="none"/><text x="425" y="145" text-anchor="middle" font-size="13" fill="#333" font-family="-apple-system,BlinkMacSystemFont,sans-serif">物流面单打印配置</text><path d="M104.47999999999999,0 C194.48000000000002,0 194.48000000000002,340 284.48,340" fill="none" stroke="#E48484" stroke-width="2"/><rect x="180" y="325" width="80" height="30" rx="6" fill="#fafafa" stroke="none"/><text x="220" y="345" text-anchor="middle" font-size="13" fill="#333" font-family="-apple-system,BlinkMacSystemFont,sans-serif">仓储管理</text><path d="M260,340 C310,340 310,180 360,180" fill="none" stroke="#E48484" stroke-width="2"/><rect x="360" y="165" width="182" height="30" rx="6" fill="#fafafa" stroke="none"/><text x="451" y="185" text-anchor="middle" font-size="13" fill="#333" font-family="-apple-system,BlinkMacSystemFont,sans-serif">仓库授权、对接、业务配置</text><path d="M260,340 C310,340 310,320 360,320" fill="none" stroke="#E48484" stroke-width="2"/><rect x="360" y="305" width="104" height="30" rx="6" fill="#fafafa" stroke="none"/><text x="412" y="325" text-anchor="middle" font-size="13" fill="#333" font-family="-apple-system,BlinkMacSystemFont,sans-serif">自营仓库管理</text><path d="M464,320 C502,320 502,220 540,220" fill="none" stroke="#E48484" stroke-width="2"/><rect x="540" y="205" width="80" height="30" rx="6" fill="#fafafa" stroke="none"/><text x="580" y="225" text-anchor="middle" font-size="13" fill="#333" font-family="-apple-system,BlinkMacSystemFont,sans-serif">入库</text><path d="M464,320 C502,320 502,260 540,260" fill="none" stroke="#E48484" stroke-width="2"/><rect x="540" y="245" width="80" height="30" rx="6" fill="#fafafa" stroke="none"/><text x="580" y="265" text-anchor="middle" font-size="13" fill="#333" font-family="-apple-system,BlinkMacSystemFont,sans-serif">出库</text><path d="M464,320 C502,320 502,300 540,300" fill="none" stroke="#E48484" stroke-width="2"/><rect x="540" y="285" width="80" height="30" rx="6" fill="#fafafa" stroke="none"/><text x="580" y="305" text-anchor="middle" font-size="13" fill="#333" font-family="-apple-system,BlinkMacSystemFont,sans-serif">盘点</text><path d="M464,320 C502,320 502,340 540,340" fill="none" stroke="#E48484" stroke-width="2"/><rect x="540" y="325" width="80" height="30" rx="6" fill="#fafafa" stroke="none"/><text x="580" y="345" text-anchor="middle" font-size="13" fill="#333" font-family="-apple-system,BlinkMacSystemFont,sans-serif">调拨</text><path d="M464,320 C502,320 502,380 540,380" fill="none" stroke="#E48484" stroke-width="2"/><rect x="540" y="365" width="80" height="30" rx="6" fill="#fafafa" stroke="none"/><text x="580" y="385" text-anchor="middle" font-size="13" fill="#333" font-family="-apple-system,BlinkMacSystemFont,sans-serif">库区库位</text><path d="M464,320 C502,320 502,420 540,420" fill="none" stroke="#E48484" stroke-width="2"/><rect x="540" y="405" width="80" height="30" rx="6" fill="#fafafa" stroke="none"/><text x="580" y="425" text-anchor="middle" font-size="13" fill="#333" font-family="-apple-system,BlinkMacSystemFont,sans-serif">库存查询</text><path d="M260,340 C310,340 310,480 360,480" fill="none" stroke="#E48484" stroke-width="2"/><rect x="360" y="465" width="80" height="30" rx="6" fill="#fafafa" stroke="none"/><text x="400" y="485" text-anchor="middle" font-size="13" fill="#333" font-family="-apple-system,BlinkMacSystemFont,sans-serif">三方仓库</text><path d="M440,480 C490,480 490,460 540,460" fill="none" stroke="#E48484" stroke-width="2"/><rect x="540" y="445" width="80" height="30" rx="6" fill="#fafafa" stroke="none"/><text x="580" y="465" text-anchor="middle" font-size="13" fill="#333" font-family="-apple-system,BlinkMacSystemFont,sans-serif">库存查询</text><path d="M440,480 C490,480 490,500 540,500" fill="none" stroke="#E48484" stroke-width="2"/><rect x="540" y="485" width="80" height="30" rx="6" fill="#fafafa" stroke="none"/><text x="580" y="505" text-anchor="middle" font-size="13" fill="#333" font-family="-apple-system,BlinkMacSystemFont,sans-serif">业务配置</text><path d="M104.47999999999999,0 C194.48000000000002,0 194.48000000000002,620 284.48,620" fill="none" stroke="#E482D4" stroke-width="2"/><rect x="180" y="605" width="80" height="30" rx="6" fill="#fafafa" stroke="none"/><text x="220" y="625" text-anchor="middle" font-size="13" fill="#333" font-family="-apple-system,BlinkMacSystemFont,sans-serif">财务管理</text><path d="M260,620 C310,620 310,540 360,540" fill="none" stroke="#E482D4" stroke-width="2"/><rect x="360" y="525" width="80" height="30" rx="6" fill="#fafafa" stroke="none"/><text x="400" y="545" text-anchor="middle" font-size="13" fill="#333" font-family="-apple-system,BlinkMacSystemFont,sans-serif">账户管理</text><path d="M260,620 C310,620 310,580 360,580" fill="none" stroke="#E482D4" stroke-width="2"/><rect x="360" y="565" width="80" height="30" rx="6" fill="#fafafa" stroke="none"/><text x="400" y="585" text-anchor="middle" font-size="13" fill="#333" font-family="-apple-system,BlinkMacSystemFont,sans-serif">财务对账</text><path d="M260,620 C310,620 310,620 360,620" fill="none" stroke="#E482D4" stroke-width="2"/><rect x="360" y="605" width="80" height="30" rx="6" fill="#fafafa" stroke="none"/><text x="400" y="625" text-anchor="middle" font-size="13" fill="#333" font-family="-apple-system,BlinkMacSystemFont,sans-serif">资金管理</text><path d="M260,620 C310,620 310,660 360,660" fill="none" stroke="#E482D4" stroke-width="2"/><rect x="360" y="645" width="80" height="30" rx="6" fill="#fafafa" stroke="none"/><text x="400" y="665" text-anchor="middle" font-size="13" fill="#333" font-family="-apple-system,BlinkMacSystemFont,sans-serif">收付款</text><path d="M260,620 C310,620 310,700 360,700" fill="none" stroke="#E482D4" stroke-width="2"/><rect x="360" y="685" width="80" height="30" rx="6" fill="#fafafa" stroke="none"/><text x="400" y="705" text-anchor="middle" font-size="13" fill="#333" font-family="-apple-system,BlinkMacSystemFont,sans-serif">发票</text><path d="M104.47999999999999,0 C194.48000000000002,0 194.48000000000002,840 284.48,840" fill="none" stroke="#69B1E4" stroke-width="2"/><rect x="180" y="825" width="80" height="30" rx="6" fill="#fafafa" stroke="none"/><text x="220" y="845" text-anchor="middle" font-size="13" fill="#333" font-family="-apple-system,BlinkMacSystemFont,sans-serif">报表管理</text><path d="M260,840 C310,840 310,740 360,740" fill="none" stroke="#69B1E4" stroke-width="2"/><rect x="360" y="725" width="104" height="30" rx="6" fill="#fafafa" stroke="none"/><text x="412" y="745" text-anchor="middle" font-size="13" fill="#333" font-family="-apple-system,BlinkMacSystemFont,sans-serif">店铺运营分析</text><path d="M260,840 C310,840 310,780 360,780" fill="none" stroke="#69B1E4" stroke-width="2"/><rect x="360" y="765" width="80" height="30" rx="6" fill="#fafafa" stroke="none"/><text x="400" y="785" text-anchor="middle" font-size="13" fill="#333" font-family="-apple-system,BlinkMacSystemFont,sans-serif">销量报表</text><path d="M260,840 C310,840 310,820 360,820" fill="none" stroke="#69B1E4" stroke-width="2"/><rect x="360" y="805" width="80" height="30" rx="6" fill="#fafafa" stroke="none"/><text x="400" y="825" text-anchor="middle" font-size="13" fill="#333" font-family="-apple-system,BlinkMacSystemFont,sans-serif">商品报表</text><path d="M260,840 C310,840 310,860 360,860" fill="none" stroke="#69B1E4" stroke-width="2"/><rect x="360" y="845" width="80" height="30" rx="6" fill="#fafafa" stroke="none"/><text x="400" y="865" text-anchor="middle" font-size="13" fill="#333" font-family="-apple-system,BlinkMacSystemFont,sans-serif">库存报表</text><path d="M260,840 C310,840 310,900 360,900" fill="none" stroke="#69B1E4" stroke-width="2"/><rect x="360" y="885" width="80" height="30" rx="6" fill="#fafafa" stroke="none"/><text x="400" y="905" text-anchor="middle" font-size="13" fill="#333" font-family="-apple-system,BlinkMacSystemFont,sans-serif">采购报表</text><path d="M260,840 C310,840 310,940 360,940" fill="none" stroke="#69B1E4" stroke-width="2"/><rect x="360" y="925" width="80" height="30" rx="6" fill="#fafafa" stroke="none"/><text x="400" y="945" text-anchor="middle" font-size="13" fill="#333" font-family="-apple-system,BlinkMacSystemFont,sans-serif">……</text>
</svg>