<svg xmlns="http://www.w3.org/2000/svg" xmlns:xlink="http://www.w3.org/1999/xlink"
  viewBox="-212.48 -1499.375 2088.48 3269" width="2088.48" height="3269"
  style="background:#fff; font-family:-apple-system,BlinkMacSystemFont,'Segoe UI',Roboto,sans-serif;">
<defs></defs>
<rect x="-212.48" y="-1499.375" width="2088.48" height="3269" fill="#fff"/>
<rect x="-128.48" y="-18" width="256.96" height="36" rx="8" fill="#EFF0F0" stroke="none"/><text x="0" y="6" text-anchor="middle" font-size="16" font-weight="bold" fill="#333" font-family="-apple-system,BlinkMacSystemFont,sans-serif">跨境电商和国内电商ERP的区别</text><path d="M128.48,0 C218.48000000000002,0 218.48000000000002,-1320 308.48,-1320" fill="none" stroke="#DFB85D" stroke-width="2"/><rect x="180" y="-1335" width="104" height="30" rx="6" fill="#fafafa" stroke="none"/><text x="232" y="-1315" text-anchor="middle" font-size="13" fill="#333" font-family="-apple-system,BlinkMacSystemFont,sans-serif">核心结论提炼</text><path d="M284,-1320 C322,-1320 322,-1360 360,-1360" fill="none" stroke="#DFB85D" stroke-width="2"/><rect x="360" y="-1375" width="364.52" height="30" rx="6" fill="#fafafa" stroke="none"/><text x="542.26" y="-1355" text-anchor="middle" font-size="13" fill="#333" font-family="-apple-system,BlinkMacSystemFont,sans-serif">1.产品（信息化系统）的差异，本质上是业务的差异造成的</text><path d="M284,-1320 C322,-1320 322,-1320 360,-1320" fill="none" stroke="#DFB85D" stroke-width="2"/><rect x="360" y="-1335" width="403.52" height="30" rx="6" fill="#fafafa" stroke="none"/><text x="561.76" y="-1315" text-anchor="middle" font-size="13" fill="#333" font-family="-apple-system,BlinkMacSystemFont,sans-serif">2.产品（信息化系统）功能上的对比，本质上也是业务需求的对比</text><path d="M284,-1320 C322,-1320 322,-1280 360,-1280" fill="none" stroke="#DFB85D" stroke-width="2"/><rect x="360" y="-1295" width="767.52" height="30" rx="6" fill="#fafafa" stroke="none"/><text x="743.76" y="-1275" text-anchor="middle" font-size="13" fill="#333" font-family="-apple-system,BlinkMacSystemFont,sans-serif">3.要理解产品（信息化系统）的差异，得要先理解产品所解决的业务场景的差异，也就是要先理解跨境电商和国内电商的业务差异</text><path d="M128.48,0 C218.48000000000002,0 218.48000000000002,-660 308.48,-660" fill="none" stroke="#69B1E4" stroke-width="2"/><rect x="180" y="-675" width="117" height="30" rx="6" fill="#fafafa" stroke="none"/><text x="238.5" y="-655" text-anchor="middle" font-size="13" fill="#333" font-family="-apple-system,BlinkMacSystemFont,sans-serif">业务方面的区别</text><path d="M297,-660 C328.5,-660 328.5,-980 360,-980" fill="none" stroke="#69B1E4" stroke-width="2"/><rect x="360" y="-995" width="130" height="30" rx="6" fill="#fafafa" stroke="none"/><text x="425" y="-975" text-anchor="middle" font-size="13" fill="#333" font-family="-apple-system,BlinkMacSystemFont,sans-serif">从订单交易的角度</text><path d="M490,-980 C515,-980 515,-1100 540,-1100" fill="none" stroke="#A287E1" stroke-width="2"/><rect x="540" y="-1115" width="540.28" height="30" rx="6" fill="#fafafa" stroke="none"/><text x="810.14" y="-1095" text-anchor="middle" font-size="13" fill="#333" font-family="-apple-system,BlinkMacSystemFont,sans-serif">跨境电商ERP服务的跨境电商的业务，也就是电商平台是在境外，货物要发到境外的消费者</text><path d="M1080.28,-1100 C900.14,-1100 900.14,-1240 720,-1240" fill="none" stroke="#A287E1" stroke-width="2"/><rect x="720" y="-1255" width="80" height="30" rx="6" fill="#fafafa" stroke="none"/><text x="760" y="-1235" text-anchor="middle" font-size="13" fill="#333" font-family="-apple-system,BlinkMacSystemFont,sans-serif">亚马逊</text><path d="M1080.28,-1100 C900.14,-1100 900.14,-1200 720,-1200" fill="none" stroke="#A287E1" stroke-width="2"/><rect x="720" y="-1215" width="80" height="30" rx="6" fill="#fafafa" stroke="none"/><text x="760" y="-1195" text-anchor="middle" font-size="13" fill="#333" font-family="-apple-system,BlinkMacSystemFont,sans-serif">沃尔玛</text><path d="M1080.28,-1100 C900.14,-1100 900.14,-1160 720,-1160" fill="none" stroke="#A287E1" stroke-width="2"/><rect x="720" y="-1175" width="80" height="30" rx="6" fill="#fafafa" stroke="none"/><text x="760" y="-1155" text-anchor="middle" font-size="13" fill="#333" font-family="-apple-system,BlinkMacSystemFont,sans-serif">速卖通</text><path d="M1080.28,-1100 C900.14,-1100 900.14,-1120 720,-1120" fill="none" stroke="#A287E1" stroke-width="2"/><rect x="720" y="-1135" width="80" height="30" rx="6" fill="#fafafa" stroke="none"/><text x="760" y="-1115" text-anchor="middle" font-size="13" fill="#333" font-family="-apple-system,BlinkMacSystemFont,sans-serif">eBay</text><path d="M1080.28,-1100 C900.14,-1100 900.14,-1080 720,-1080" fill="none" stroke="#A287E1" stroke-width="2"/><rect x="720" y="-1095" width="80" height="30" rx="6" fill="#fafafa" stroke="none"/><text x="760" y="-1075" text-anchor="middle" font-size="13" fill="#333" font-family="-apple-system,BlinkMacSystemFont,sans-serif">Wish</text><path d="M1080.28,-1100 C900.14,-1100 900.14,-1040 720,-1040" fill="none" stroke="#A287E1" stroke-width="2"/><rect x="720" y="-1055" width="80" height="30" rx="6" fill="#fafafa" stroke="none"/><text x="760" y="-1035" text-anchor="middle" font-size="13" fill="#333" font-family="-apple-system,BlinkMacSystemFont,sans-serif">Shopee</text><path d="M1080.28,-1100 C900.14,-1100 900.14,-1000 720,-1000" fill="none" stroke="#A287E1" stroke-width="2"/><rect x="720" y="-1015" width="80" height="30" rx="6" fill="#fafafa" stroke="none"/><text x="760" y="-995" text-anchor="middle" font-size="13" fill="#333" font-family="-apple-system,BlinkMacSystemFont,sans-serif">Lazada</text><path d="M1080.28,-1100 C900.14,-1100 900.14,-960 720,-960" fill="none" stroke="#A287E1" stroke-width="2"/><rect x="720" y="-975" width="80" height="30" rx="6" fill="#fafafa" stroke="none"/><text x="760" y="-955" text-anchor="middle" font-size="13" fill="#333" font-family="-apple-system,BlinkMacSystemFont,sans-serif">……</text><path d="M490,-980 C515,-980 515,-840 540,-840" fill="none" stroke="#A287E1" stroke-width="2"/><rect x="540" y="-855" width="514.28" height="30" rx="6" fill="#fafafa" stroke="none"/><text x="797.14" y="-835" text-anchor="middle" font-size="13" fill="#333" font-family="-apple-system,BlinkMacSystemFont,sans-serif">国内电商ERP则服务的是国内的电商业务，电商平台是国内的，货物发到国内的消费者</text><path d="M1054.28,-840 C887.14,-840 887.14,-920 720,-920" fill="none" stroke="#A287E1" stroke-width="2"/><rect x="720" y="-935" width="80" height="30" rx="6" fill="#fafafa" stroke="none"/><text x="760" y="-915" text-anchor="middle" font-size="13" fill="#333" font-family="-apple-system,BlinkMacSystemFont,sans-serif">京东</text><path d="M1054.28,-840 C887.14,-840 887.14,-880 720,-880" fill="none" stroke="#A287E1" stroke-width="2"/><rect x="720" y="-895" width="80" height="30" rx="6" fill="#fafafa" stroke="none"/><text x="760" y="-875" text-anchor="middle" font-size="13" fill="#333" font-family="-apple-system,BlinkMacSystemFont,sans-serif">淘宝</text><path d="M1054.28,-840 C887.14,-840 887.14,-840 720,-840" fill="none" stroke="#A287E1" stroke-width="2"/><rect x="720" y="-855" width="80" height="30" rx="6" fill="#fafafa" stroke="none"/><text x="760" y="-835" text-anchor="middle" font-size="13" fill="#333" font-family="-apple-system,BlinkMacSystemFont,sans-serif">拼多多</text><path d="M1054.28,-840 C887.14,-840 887.14,-800 720,-800" fill="none" stroke="#A287E1" stroke-width="2"/><rect x="720" y="-815" width="80" height="30" rx="6" fill="#fafafa" stroke="none"/><text x="760" y="-795" text-anchor="middle" font-size="13" fill="#333" font-family="-apple-system,BlinkMacSystemFont,sans-serif">抖音电商</text><path d="M1054.28,-840 C887.14,-840 887.14,-760 720,-760" fill="none" stroke="#A287E1" stroke-width="2"/><rect x="720" y="-775" width="80" height="30" rx="6" fill="#fafafa" stroke="none"/><text x="760" y="-755" text-anchor="middle" font-size="13" fill="#333" font-family="-apple-system,BlinkMacSystemFont,sans-serif">……</text><path d="M490,-980 C515,-980 515,-720 540,-720" fill="none" stroke="#A287E1" stroke-width="2"/><rect x="540" y="-735" width="520" height="30" rx="6" fill="#fafafa" stroke="none"/><text x="800" y="-715" text-anchor="middle" font-size="13" fill="#333" font-family="-apple-system,BlinkMacSystemFont,sans-serif">请问：如果是在香港或者台湾地区的电商平台入驻开店，算是跨境电商还是国内电商？</text><path d="M297,-660 C328.5,-660 328.5,-540 360,-540" fill="none" stroke="#69B1E4" stroke-width="2"/><rect x="360" y="-555" width="143" height="30" rx="6" fill="#fafafa" stroke="none"/><text x="431.5" y="-535" text-anchor="middle" font-size="13" fill="#333" font-family="-apple-system,BlinkMacSystemFont,sans-serif">从货物实体流的角度</text><path d="M503,-540 C521.5,-540 521.5,-620 540,-620" fill="none" stroke="#6F81DB" stroke-width="2"/><rect x="540" y="-635" width="416" height="30" rx="6" fill="#fafafa" stroke="none"/><text x="748" y="-615" text-anchor="middle" font-size="13" fill="#333" font-family="-apple-system,BlinkMacSystemFont,sans-serif">跨境电商货物要从国内出口，到目的国进口，涉及到两地的关税问题</text><path d="M956,-620 C838,-620 838,-680 720,-680" fill="none" stroke="#6F81DB" stroke-width="2"/><rect x="720" y="-695" width="91" height="30" rx="6" fill="#fafafa" stroke="none"/><text x="765.5" y="-675" text-anchor="middle" font-size="13" fill="#333" font-family="-apple-system,BlinkMacSystemFont,sans-serif">物流链路长</text><path d="M956,-620 C838,-620 838,-640 720,-640" fill="none" stroke="#6F81DB" stroke-width="2"/><rect x="720" y="-655" width="91" height="30" rx="6" fill="#fafafa" stroke="none"/><text x="765.5" y="-635" text-anchor="middle" font-size="13" fill="#333" font-family="-apple-system,BlinkMacSystemFont,sans-serif">时间周期长</text><path d="M956,-620 C838,-620 838,-600 720,-600" fill="none" stroke="#6F81DB" stroke-width="2"/><rect x="720" y="-615" width="80" height="30" rx="6" fill="#fafafa" stroke="none"/><text x="760" y="-595" text-anchor="middle" font-size="13" fill="#333" font-family="-apple-system,BlinkMacSystemFont,sans-serif">有关税</text><path d="M956,-620 C838,-620 838,-560 720,-560" fill="none" stroke="#6F81DB" stroke-width="2"/><rect x="720" y="-575" width="143" height="30" rx="6" fill="#fafafa" stroke="none"/><text x="791.5" y="-555" text-anchor="middle" font-size="13" fill="#333" font-family="-apple-system,BlinkMacSystemFont,sans-serif">受限于物流运输方式</text><path d="M503,-540 C521.5,-540 521.5,-460 540,-460" fill="none" stroke="#6F81DB" stroke-width="2"/><rect x="540" y="-475" width="221" height="30" rx="6" fill="#fafafa" stroke="none"/><text x="650.5" y="-455" text-anchor="middle" font-size="13" fill="#333" font-family="-apple-system,BlinkMacSystemFont,sans-serif">国内电商不涉及进出口的关税问题</text><path d="M761,-460 C740.5,-460 740.5,-520 720,-520" fill="none" stroke="#6F81DB" stroke-width="2"/><rect x="720" y="-535" width="91" height="30" rx="6" fill="#EFF0F0" stroke="none"/><text x="765.5" y="-515" text-anchor="middle" font-size="13" fill="#333" font-family="-apple-system,BlinkMacSystemFont,sans-serif">物流链路短</text><path d="M761,-460 C740.5,-460 740.5,-480 720,-480" fill="none" stroke="#6F81DB" stroke-width="2"/><rect x="720" y="-495" width="91" height="30" rx="6" fill="#EFF0F0" stroke="none"/><text x="765.5" y="-475" text-anchor="middle" font-size="13" fill="#333" font-family="-apple-system,BlinkMacSystemFont,sans-serif">时间周期短</text><path d="M761,-460 C740.5,-460 740.5,-440 720,-440" fill="none" stroke="#6F81DB" stroke-width="2"/><rect x="720" y="-455" width="80" height="30" rx="6" fill="#EFF0F0" stroke="none"/><text x="760" y="-435" text-anchor="middle" font-size="13" fill="#333" font-family="-apple-system,BlinkMacSystemFont,sans-serif">无关税</text><path d="M761,-460 C740.5,-460 740.5,-400 720,-400" fill="none" stroke="#6F81DB" stroke-width="2"/><rect x="720" y="-415" width="156" height="30" rx="6" fill="#EFF0F0" stroke="none"/><text x="798" y="-395" text-anchor="middle" font-size="13" fill="#333" font-family="-apple-system,BlinkMacSystemFont,sans-serif">不受限于物流运输方式</text><path d="M297,-660 C328.5,-660 328.5,-340 360,-340" fill="none" stroke="#69B1E4" stroke-width="2"/><rect x="360" y="-355" width="169" height="30" rx="6" fill="#fafafa" stroke="none"/><text x="444.5" y="-335" text-anchor="middle" font-size="13" fill="#333" font-family="-apple-system,BlinkMacSystemFont,sans-serif">从销售的产品类别的角度</text><path d="M529,-340 C534.5,-340 534.5,-360 540,-360" fill="none" stroke="#6EC4C4" stroke-width="2"/><rect x="540" y="-375" width="955.76" height="30" rx="6" fill="#fafafa" stroke="none"/><text x="1017.88" y="-355" text-anchor="middle" font-size="13" fill="#333" font-family="-apple-system,BlinkMacSystemFont,sans-serif">跨境电商涉及到不同国家/地区，背后的消费者的消费观念和文化差异不太一样，所以跨境电商卖家一般来说都是会选择做一些垂类，专门针对某个地区的某些人群</text><path d="M1495.76,-360 C1107.88,-360 1107.88,-360 720,-360" fill="none" stroke="#6EC4C4" stroke-width="2"/><rect x="720" y="-375" width="325" height="30" rx="6" fill="#fafafa" stroke="none"/><text x="882.5" y="-355" text-anchor="middle" font-size="13" fill="#333" font-family="-apple-system,BlinkMacSystemFont,sans-serif">北美地区比较青睐园艺家居、汽摩配件，特色服装等</text><path d="M529,-340 C534.5,-340 534.5,-320 540,-320" fill="none" stroke="#6EC4C4" stroke-width="2"/><rect x="540" y="-335" width="598" height="30" rx="6" fill="#fafafa" stroke="none"/><text x="839" y="-315" text-anchor="middle" font-size="13" fill="#333" font-family="-apple-system,BlinkMacSystemFont,sans-serif">国内电商面向的消费者的消费观念、文化差异接近，所以相对来说商品的品类会趋同，更多元化一些</text><path d="M297,-660 C328.5,-660 328.5,-260 360,-260" fill="none" stroke="#69B1E4" stroke-width="2"/><rect x="360" y="-275" width="130" height="30" rx="6" fill="#fafafa" stroke="none"/><text x="425" y="-255" text-anchor="middle" font-size="13" fill="#333" font-family="-apple-system,BlinkMacSystemFont,sans-serif">从产品履约的角度</text><path d="M490,-260 C515,-260 515,-280 540,-280" fill="none" stroke="#77C386" stroke-width="2"/><rect x="540" y="-295" width="403" height="30" rx="6" fill="#fafafa" stroke="none"/><text x="741.5" y="-275" text-anchor="middle" font-size="13" fill="#333" font-family="-apple-system,BlinkMacSystemFont,sans-serif">跨境电商的产品履约涉及到不同的物流方式，物流商，物流规则等</text><path d="M490,-260 C515,-260 515,-240 540,-240" fill="none" stroke="#77C386" stroke-width="2"/><rect x="540" y="-255" width="351" height="30" rx="6" fill="#fafafa" stroke="none"/><text x="715.5" y="-235" text-anchor="middle" font-size="13" fill="#333" font-family="-apple-system,BlinkMacSystemFont,sans-serif">国内电商的产品履约方式相对简单，也没太多复杂的规则</text><path d="M297,-660 C328.5,-660 328.5,-180 360,-180" fill="none" stroke="#69B1E4" stroke-width="2"/><rect x="360" y="-195" width="130" height="30" rx="6" fill="#fafafa" stroke="none"/><text x="425" y="-175" text-anchor="middle" font-size="13" fill="#333" font-family="-apple-system,BlinkMacSystemFont,sans-serif">从交易结算的角度</text><path d="M490,-180 C515,-180 515,-200 540,-200" fill="none" stroke="#E48484" stroke-width="2"/><rect x="540" y="-215" width="663" height="30" rx="6" fill="#fafafa" stroke="none"/><text x="871.5" y="-195" text-anchor="middle" font-size="13" fill="#333" font-family="-apple-system,BlinkMacSystemFont,sans-serif">跨境电商涉及到多个不同国家的主体交易，国内企业对境外企业，国内企业对境外个人或者国内个人对境外个人</text><path d="M490,-180 C515,-180 515,-160 540,-160" fill="none" stroke="#E48484" stroke-width="2"/><rect x="540" y="-175" width="533" height="30" rx="6" fill="#fafafa" stroke="none"/><text x="806.5" y="-155" text-anchor="middle" font-size="13" fill="#333" font-family="-apple-system,BlinkMacSystemFont,sans-serif">国内电商涉及的交易主体比较少，国内企业对企业，国内企业对个人或者国内个人对个人</text><path d="M297,-660 C328.5,-660 328.5,-100 360,-100" fill="none" stroke="#69B1E4" stroke-width="2"/><rect x="360" y="-115" width="208" height="30" rx="6" fill="#fafafa" stroke="none"/><text x="464" y="-95" text-anchor="middle" font-size="13" fill="#333" font-family="-apple-system,BlinkMacSystemFont,sans-serif">从文化、法律、风俗习惯的角度</text><path d="M568,-100 C554,-100 554,-120 540,-120" fill="none" stroke="#E482D4" stroke-width="2"/><rect x="540" y="-135" width="578.76" height="30" rx="6" fill="#fafafa" stroke="none"/><text x="829.38" y="-115" text-anchor="middle" font-size="13" fill="#333" font-family="-apple-system,BlinkMacSystemFont,sans-serif">跨境电商涉及到不同国家/地区的电商平台，对应的规则、习惯也不一样，所以要适应对方的要求</text><path d="M568,-100 C554,-100 554,-80 540,-80" fill="none" stroke="#E482D4" stroke-width="2"/><rect x="540" y="-95" width="338" height="30" rx="6" fill="#fafafa" stroke="none"/><text x="709" y="-75" text-anchor="middle" font-size="13" fill="#333" font-family="-apple-system,BlinkMacSystemFont,sans-serif">国内电商则相对来说规则明确清晰，这一块不容易翻车</text><path d="M128.48,0 C218.48000000000002,0 218.48000000000002,340 308.48,340" fill="none" stroke="#6EC4C4" stroke-width="2"/><rect x="180" y="325" width="143" height="30" rx="6" fill="#fafafa" stroke="none"/><text x="251.5" y="345" text-anchor="middle" font-size="13" fill="#333" font-family="-apple-system,BlinkMacSystemFont,sans-serif">产品功能方面的区别</text><path d="M323,340 C341.5,340 341.5,40 360,40" fill="none" stroke="#6EC4C4" stroke-width="2"/><rect x="360" y="25" width="130.51999999999998" height="30" rx="6" fill="#fafafa" stroke="none"/><text x="425.26" y="45" text-anchor="middle" font-size="13" fill="#333" font-family="-apple-system,BlinkMacSystemFont,sans-serif">1.平台对接和授权</text><path d="M490.52,40 C515.26,40 515.26,0 540,0" fill="none" stroke="#6EC4C4" stroke-width="2"/><rect x="540" y="-15" width="80" height="30" rx="6" fill="#fafafa" stroke="none"/><text x="580" y="5" text-anchor="middle" font-size="13" fill="#333" font-family="-apple-system,BlinkMacSystemFont,sans-serif">跨境</text><path d="M620,0 C670,0 670,-40 720,-40" fill="none" stroke="#6EC4C4" stroke-width="2"/><rect x="720" y="-55" width="150.28000000000003" height="30" rx="6" fill="#fafafa" stroke="none"/><text x="795.14" y="-35" text-anchor="middle" font-size="13" fill="#333" font-family="-apple-system,BlinkMacSystemFont,sans-serif">一般是英文的API文档</text><path d="M620,0 C670,0 670,0 720,0" fill="none" stroke="#6EC4C4" stroke-width="2"/><rect x="720" y="-15" width="351" height="30" rx="6" fill="#fafafa" stroke="none"/><text x="895.5" y="5" text-anchor="middle" font-size="13" fill="#333" font-family="-apple-system,BlinkMacSystemFont,sans-serif">对接难度较大，一些业务规则，接口逻辑等不是特别清晰</text><path d="M620,0 C670,0 670,40 720,40" fill="none" stroke="#6EC4C4" stroke-width="2"/><rect x="720" y="25" width="338" height="30" rx="6" fill="#fafafa" stroke="none"/><text x="889" y="45" text-anchor="middle" font-size="13" fill="#333" font-family="-apple-system,BlinkMacSystemFont,sans-serif">遇到一些困难要解决起来比较麻烦，因为沟通比较困难</text><path d="M490.52,40 C515.26,40 515.26,100 540,100" fill="none" stroke="#6EC4C4" stroke-width="2"/><rect x="540" y="85" width="80" height="30" rx="6" fill="#fafafa" stroke="none"/><text x="580" y="105" text-anchor="middle" font-size="13" fill="#333" font-family="-apple-system,BlinkMacSystemFont,sans-serif">国内</text><path d="M620,100 C670,100 670,80 720,80" fill="none" stroke="#6EC4C4" stroke-width="2"/><rect x="720" y="65" width="111.28" height="30" rx="6" fill="#fafafa" stroke="none"/><text x="775.64" y="85" text-anchor="middle" font-size="13" fill="#333" font-family="-apple-system,BlinkMacSystemFont,sans-serif">中文的API文档</text><path d="M620,100 C670,100 670,120 720,120" fill="none" stroke="#6EC4C4" stroke-width="2"/><rect x="720" y="105" width="390" height="30" rx="6" fill="#fafafa" stroke="none"/><text x="915" y="125" text-anchor="middle" font-size="13" fill="#333" font-family="-apple-system,BlinkMacSystemFont,sans-serif">对接难度较低，不行还可以加客服、技术支持的联系方式等解决</text><path d="M323,340 C341.5,340 341.5,200 360,200" fill="none" stroke="#6EC4C4" stroke-width="2"/><rect x="360" y="185" width="130.51999999999998" height="30" rx="6" fill="#fafafa" stroke="none"/><text x="425.26" y="205" text-anchor="middle" font-size="13" fill="#333" font-family="-apple-system,BlinkMacSystemFont,sans-serif">2.电商平台的规则</text><path d="M490.52,200 C515.26,200 515.26,180 540,180" fill="none" stroke="#6EC4C4" stroke-width="2"/><rect x="540" y="165" width="80" height="30" rx="6" fill="#fafafa" stroke="none"/><text x="580" y="185" text-anchor="middle" font-size="13" fill="#333" font-family="-apple-system,BlinkMacSystemFont,sans-serif">跨境</text><path d="M620,180 C670,180 670,160 720,160" fill="none" stroke="#6EC4C4" stroke-width="2"/><rect x="720" y="145" width="195" height="30" rx="6" fill="#fafafa" stroke="none"/><text x="817.5" y="165" text-anchor="middle" font-size="13" fill="#333" font-family="-apple-system,BlinkMacSystemFont,sans-serif">不同的电商平台规则很不一样</text><path d="M620,180 C670,180 670,200 720,200" fill="none" stroke="#6EC4C4" stroke-width="2"/><rect x="720" y="185" width="423.28000000000003" height="30" rx="6" fill="#fafafa" stroke="none"/><text x="931.64" y="205" text-anchor="middle" font-size="13" fill="#333" font-family="-apple-system,BlinkMacSystemFont,sans-serif">所以跨境电商ERP要兼容不同的电商平台规则，要多做很多个菜单入口</text><path d="M1143.28,200 C1021.64,200 1021.64,200 900,200" fill="none" stroke="#6EC4C4" stroke-width="2"/><rect x="900" y="185" width="80" height="30" rx="6" fill="#fafafa" stroke="none"/><text x="940" y="205" text-anchor="middle" font-size="13" fill="#333" font-family="-apple-system,BlinkMacSystemFont,sans-serif"></text><path d="M490.52,200 C515.26,200 515.26,240 540,240" fill="none" stroke="#6EC4C4" stroke-width="2"/><rect x="540" y="225" width="80" height="30" rx="6" fill="#fafafa" stroke="none"/><text x="580" y="245" text-anchor="middle" font-size="13" fill="#333" font-family="-apple-system,BlinkMacSystemFont,sans-serif">国内</text><path d="M620,240 C670,240 670,240 720,240" fill="none" stroke="#6EC4C4" stroke-width="2"/><rect x="720" y="225" width="390" height="30" rx="6" fill="#fafafa" stroke="none"/><text x="915" y="245" text-anchor="middle" font-size="13" fill="#333" font-family="-apple-system,BlinkMacSystemFont,sans-serif">国内的电商平台规则基本上大家都互相借鉴，所以大体是一样的</text><path d="M323,340 C341.5,340 341.5,320 360,320" fill="none" stroke="#6EC4C4" stroke-width="2"/><rect x="360" y="305" width="91.52" height="30" rx="6" fill="#fafafa" stroke="none"/><text x="405.76" y="325" text-anchor="middle" font-size="13" fill="#333" font-family="-apple-system,BlinkMacSystemFont,sans-serif">3.商品管理</text><path d="M451.52,320 C495.76,320 495.76,300 540,300" fill="none" stroke="#6EC4C4" stroke-width="2"/><rect x="540" y="285" width="80" height="30" rx="6" fill="#fafafa" stroke="none"/><text x="580" y="305" text-anchor="middle" font-size="13" fill="#333" font-family="-apple-system,BlinkMacSystemFont,sans-serif">跨境</text><path d="M620,300 C670,300 670,280 720,280" fill="none" stroke="#6EC4C4" stroke-width="2"/><rect x="720" y="265" width="559" height="30" rx="6" fill="#fafafa" stroke="none"/><text x="999.5" y="285" text-anchor="middle" font-size="13" fill="#333" font-family="-apple-system,BlinkMacSystemFont,sans-serif">商品资料模块中会涉及到海关编码，申报名称，申报价格，原产地等信息，因为会涉及到出口</text><path d="M620,300 C670,300 670,320 720,320" fill="none" stroke="#6EC4C4" stroke-width="2"/><rect x="720" y="305" width="429" height="30" rx="6" fill="#fafafa" stroke="none"/><text x="934.5" y="325" text-anchor="middle" font-size="13" fill="#333" font-family="-apple-system,BlinkMacSystemFont,sans-serif">跨境的商品可能还涉及到多语言的翻译问题，需要对接很多外部的插件</text><path d="M451.52,320 C495.76,320 495.76,360 540,360" fill="none" stroke="#6EC4C4" stroke-width="2"/><rect x="540" y="345" width="80" height="30" rx="6" fill="#fafafa" stroke="none"/><text x="580" y="365" text-anchor="middle" font-size="13" fill="#333" font-family="-apple-system,BlinkMacSystemFont,sans-serif">国内</text><path d="M620,360 C670,360 670,360 720,360" fill="none" stroke="#6EC4C4" stroke-width="2"/><rect x="720" y="345" width="312" height="30" rx="6" fill="#fafafa" stroke="none"/><text x="876" y="365" text-anchor="middle" font-size="13" fill="#333" font-family="-apple-system,BlinkMacSystemFont,sans-serif">商品资料一般没有这些信息，相对来说会简单一些</text><path d="M323,340 C341.5,340 341.5,460 360,460" fill="none" stroke="#6EC4C4" stroke-width="2"/><rect x="360" y="445" width="122.07" height="30" rx="6" fill="#fafafa" stroke="none"/><text x="421.03499999999997" y="465" text-anchor="middle" font-size="13" fill="#333" font-family="-apple-system,BlinkMacSystemFont,sans-serif">4. 订单履约发货</text><path d="M482.07,460 C511.03499999999997,460 511.03499999999997,440 540,440" fill="none" stroke="#6EC4C4" stroke-width="2"/><rect x="540" y="425" width="80" height="30" rx="6" fill="#fafafa" stroke="none"/><text x="580" y="445" text-anchor="middle" font-size="13" fill="#333" font-family="-apple-system,BlinkMacSystemFont,sans-serif">跨境</text><path d="M620,440 C670,440 670,400 720,400" fill="none" stroke="#6EC4C4" stroke-width="2"/><rect x="720" y="385" width="299" height="30" rx="6" fill="#fafafa" stroke="none"/><text x="869.5" y="405" text-anchor="middle" font-size="13" fill="#333" font-family="-apple-system,BlinkMacSystemFont,sans-serif">有海外仓发货，国内直邮等多种方式发给消费者</text><path d="M620,440 C670,440 670,440 720,440" fill="none" stroke="#6EC4C4" stroke-width="2"/><rect x="720" y="425" width="234" height="30" rx="6" fill="#fafafa" stroke="none"/><text x="837" y="445" text-anchor="middle" font-size="13" fill="#333" font-family="-apple-system,BlinkMacSystemFont,sans-serif">涉及到不同的仓库，国内仓，海外仓</text><path d="M620,440 C670,440 670,480 720,480" fill="none" stroke="#6EC4C4" stroke-width="2"/><rect x="720" y="465" width="351" height="30" rx="6" fill="#fafafa" stroke="none"/><text x="895.5" y="485" text-anchor="middle" font-size="13" fill="#333" font-family="-apple-system,BlinkMacSystemFont,sans-serif">涉及到不同的物流，头程物流，尾程物流，直邮的物流等</text><path d="M482.07,460 C511.03499999999997,460 511.03499999999997,520 540,520" fill="none" stroke="#6EC4C4" stroke-width="2"/><rect x="540" y="505" width="80" height="30" rx="6" fill="#fafafa" stroke="none"/><text x="580" y="525" text-anchor="middle" font-size="13" fill="#333" font-family="-apple-system,BlinkMacSystemFont,sans-serif">国内</text><path d="M620,520 C670,520 670,520 720,520" fill="none" stroke="#6EC4C4" stroke-width="2"/><rect x="720" y="505" width="208" height="30" rx="6" fill="#fafafa" stroke="none"/><text x="824" y="525" text-anchor="middle" font-size="13" fill="#333" font-family="-apple-system,BlinkMacSystemFont,sans-serif">一般都是快递的方式发给消费者</text><path d="M323,340 C341.5,340 341.5,600 360,600" fill="none" stroke="#6EC4C4" stroke-width="2"/><rect x="360" y="585" width="91.52" height="30" rx="6" fill="#fafafa" stroke="none"/><text x="405.76" y="605" text-anchor="middle" font-size="13" fill="#333" font-family="-apple-system,BlinkMacSystemFont,sans-serif">5.财务对账</text><path d="M451.52,600 C495.76,600 495.76,580 540,580" fill="none" stroke="#6EC4C4" stroke-width="2"/><rect x="540" y="565" width="80" height="30" rx="6" fill="#fafafa" stroke="none"/><text x="580" y="585" text-anchor="middle" font-size="13" fill="#333" font-family="-apple-system,BlinkMacSystemFont,sans-serif">跨境</text><path d="M620,580 C670,580 670,560 720,560" fill="none" stroke="#6EC4C4" stroke-width="2"/><rect x="720" y="545" width="611" height="30" rx="6" fill="#fafafa" stroke="none"/><text x="1025.5" y="565" text-anchor="middle" font-size="13" fill="#333" font-family="-apple-system,BlinkMacSystemFont,sans-serif">订单的交易金额会涉及到汇率的转换，也涉及到不同的结算账号之间的处理（较低摩擦成本和风险等）</text><path d="M620,580 C670,580 670,600 720,600" fill="none" stroke="#6EC4C4" stroke-width="2"/><rect x="720" y="585" width="234" height="30" rx="6" fill="#fafafa" stroke="none"/><text x="837" y="605" text-anchor="middle" font-size="13" fill="#333" font-family="-apple-system,BlinkMacSystemFont,sans-serif">还会涉及到一些出口退税相关的内容</text><path d="M451.52,600 C495.76,600 495.76,640 540,640" fill="none" stroke="#6EC4C4" stroke-width="2"/><rect x="540" y="625" width="80" height="30" rx="6" fill="#fafafa" stroke="none"/><text x="580" y="645" text-anchor="middle" font-size="13" fill="#333" font-family="-apple-system,BlinkMacSystemFont,sans-serif">国内</text><path d="M620,640 C670,640 670,640 720,640" fill="none" stroke="#6EC4C4" stroke-width="2"/><rect x="720" y="625" width="351" height="30" rx="6" fill="#fafafa" stroke="none"/><text x="895.5" y="645" text-anchor="middle" font-size="13" fill="#333" font-family="-apple-system,BlinkMacSystemFont,sans-serif">订单交易不涉及多币种，不涉及汇率，也没有出口退税等</text><path d="M323,340 C341.5,340 341.5,700 360,700" fill="none" stroke="#6EC4C4" stroke-width="2"/><rect x="360" y="685" width="150.28" height="30" rx="6" fill="#fafafa" stroke="none"/><text x="435.14" y="705" text-anchor="middle" font-size="13" fill="#333" font-family="-apple-system,BlinkMacSystemFont,sans-serif">6.客服消息/客户运营</text><path d="M510.28,700 C525.14,700 525.14,680 540,680" fill="none" stroke="#6EC4C4" stroke-width="2"/><rect x="540" y="665" width="80" height="30" rx="6" fill="#fafafa" stroke="none"/><text x="580" y="685" text-anchor="middle" font-size="13" fill="#333" font-family="-apple-system,BlinkMacSystemFont,sans-serif">跨境</text><path d="M620,680 C670,680 670,680 720,680" fill="none" stroke="#6EC4C4" stroke-width="2"/><rect x="720" y="665" width="598" height="30" rx="6" fill="#fafafa" stroke="none"/><text x="1019" y="685" text-anchor="middle" font-size="13" fill="#333" font-family="-apple-system,BlinkMacSystemFont,sans-serif">这一块比较难做，因为海外的电商玩法和国内不一样，会涉及到一些隐私保护，平台规则限制等影响</text><path d="M510.28,700 C525.14,700 525.14,720 540,720" fill="none" stroke="#6EC4C4" stroke-width="2"/><rect x="540" y="705" width="80" height="30" rx="6" fill="#fafafa" stroke="none"/><text x="580" y="725" text-anchor="middle" font-size="13" fill="#333" font-family="-apple-system,BlinkMacSystemFont,sans-serif">国内</text><path d="M620,720 C670,720 670,720 720,720" fill="none" stroke="#6EC4C4" stroke-width="2"/><rect x="720" y="705" width="299" height="30" rx="6" fill="#fafafa" stroke="none"/><text x="869.5" y="725" text-anchor="middle" font-size="13" fill="#333" font-family="-apple-system,BlinkMacSystemFont,sans-serif">这一块相对简单一些，相关的业务也比较成熟等</text><path d="M128.48,0 C218.48000000000002,0 218.48000000000002,1060 308.48,1060" fill="none" stroke="#DFB85D" stroke-width="2"/><rect x="180" y="1045" width="117" height="30" rx="6" fill="#fafafa" stroke="none"/><text x="238.5" y="1065" text-anchor="middle" font-size="13" fill="#333" font-family="-apple-system,BlinkMacSystemFont,sans-serif">相似的功能模块</text><path d="M297,1060 C328.5,1060 328.5,780 360,780" fill="none" stroke="#DFB85D" stroke-width="2"/><rect x="360" y="765" width="91.52" height="30" rx="6" fill="#fafafa" stroke="none"/><text x="405.76" y="785" text-anchor="middle" font-size="13" fill="#333" font-family="-apple-system,BlinkMacSystemFont,sans-serif">1.商品管理</text><path d="M451.52,780 C495.76,780 495.76,760 540,760" fill="none" stroke="#DFB85D" stroke-width="2"/><rect x="540" y="745" width="143" height="30" rx="6" fill="#fafafa" stroke="none"/><text x="611.5" y="765" text-anchor="middle" font-size="13" fill="#333" font-family="-apple-system,BlinkMacSystemFont,sans-serif">都需要维护商品资料</text><path d="M451.52,780 C495.76,780 495.76,800 540,800" fill="none" stroke="#DFB85D" stroke-width="2"/><rect x="540" y="785" width="182" height="30" rx="6" fill="#fafafa" stroke="none"/><text x="631" y="805" text-anchor="middle" font-size="13" fill="#333" font-family="-apple-system,BlinkMacSystemFont,sans-serif">商品资料的供应链中的血液</text><path d="M297,1060 C328.5,1060 328.5,880 360,880" fill="none" stroke="#DFB85D" stroke-width="2"/><rect x="360" y="865" width="91.52" height="30" rx="6" fill="#fafafa" stroke="none"/><text x="405.76" y="885" text-anchor="middle" font-size="13" fill="#333" font-family="-apple-system,BlinkMacSystemFont,sans-serif">2.采购管理</text><path d="M451.52,880 C495.76,880 495.76,840 540,840" fill="none" stroke="#DFB85D" stroke-width="2"/><rect x="540" y="825" width="143" height="30" rx="6" fill="#fafafa" stroke="none"/><text x="611.5" y="845" text-anchor="middle" font-size="13" fill="#333" font-family="-apple-system,BlinkMacSystemFont,sans-serif">都会涉及到采购业务</text><path d="M451.52,880 C495.76,880 495.76,880 540,880" fill="none" stroke="#DFB85D" stroke-width="2"/><rect x="540" y="865" width="481" height="30" rx="6" fill="#fafafa" stroke="none"/><text x="780.5" y="885" text-anchor="middle" font-size="13" fill="#333" font-family="-apple-system,BlinkMacSystemFont,sans-serif">跨境的采购一般也是先国内采购，然后再备货的海外仓或者直邮发到境外消费者</text><path d="M451.52,880 C495.76,880 495.76,920 540,920" fill="none" stroke="#DFB85D" stroke-width="2"/><rect x="540" y="905" width="481" height="30" rx="6" fill="#fafafa" stroke="none"/><text x="780.5" y="925" text-anchor="middle" font-size="13" fill="#333" font-family="-apple-system,BlinkMacSystemFont,sans-serif">国内的采购则直接采购到电商履约仓库，然后从仓库中直接发货到国内的消费者</text><path d="M297,1060 C328.5,1060 328.5,980 360,980" fill="none" stroke="#DFB85D" stroke-width="2"/><rect x="360" y="965" width="91.52" height="30" rx="6" fill="#fafafa" stroke="none"/><text x="405.76" y="985" text-anchor="middle" font-size="13" fill="#333" font-family="-apple-system,BlinkMacSystemFont,sans-serif">3.订单管理</text><path d="M451.52,980 C495.76,980 495.76,960 540,960" fill="none" stroke="#DFB85D" stroke-width="2"/><rect x="540" y="945" width="410.28" height="30" rx="6" fill="#fafafa" stroke="none"/><text x="745.14" y="965" text-anchor="middle" font-size="13" fill="#333" font-family="-apple-system,BlinkMacSystemFont,sans-serif">都会涉及到订单业务，订单业务是ERP的核心，无论是跨境还是国内</text><path d="M451.52,980 C495.76,980 495.76,1000 540,1000" fill="none" stroke="#DFB85D" stroke-width="2"/><rect x="540" y="985" width="533" height="30" rx="6" fill="#fafafa" stroke="none"/><text x="806.5" y="1005" text-anchor="middle" font-size="13" fill="#333" font-family="-apple-system,BlinkMacSystemFont,sans-serif">订单的处理逻辑大体上的一样的，主要包含拉单，编辑单据，审核单据，下推仓库履约等</text><path d="M297,1060 C328.5,1060 328.5,1080 360,1080" fill="none" stroke="#DFB85D" stroke-width="2"/><rect x="360" y="1065" width="91.52" height="30" rx="6" fill="#fafafa" stroke="none"/><text x="405.76" y="1085" text-anchor="middle" font-size="13" fill="#333" font-family="-apple-system,BlinkMacSystemFont,sans-serif">4.仓储管理</text><path d="M451.52,1080 C495.76,1080 495.76,1040 540,1040" fill="none" stroke="#DFB85D" stroke-width="2"/><rect x="540" y="1025" width="182" height="30" rx="6" fill="#fafafa" stroke="none"/><text x="631" y="1045" text-anchor="middle" font-size="13" fill="#333" font-family="-apple-system,BlinkMacSystemFont,sans-serif">都会涉及到仓储相关的业务</text><path d="M451.52,1080 C495.76,1080 495.76,1080 540,1080" fill="none" stroke="#DFB85D" stroke-width="2"/><rect x="540" y="1065" width="273" height="30" rx="6" fill="#fafafa" stroke="none"/><text x="676.5" y="1085" text-anchor="middle" font-size="13" fill="#333" font-family="-apple-system,BlinkMacSystemFont,sans-serif">跨境电商会涉及到海外仓，相对更复杂一些</text><path d="M451.52,1080 C495.76,1080 495.76,1120 540,1120" fill="none" stroke="#DFB85D" stroke-width="2"/><rect x="540" y="1105" width="364" height="30" rx="6" fill="#fafafa" stroke="none"/><text x="722" y="1125" text-anchor="middle" font-size="13" fill="#333" font-family="-apple-system,BlinkMacSystemFont,sans-serif">国内电商仓大多数都接入了奇门，对接难度相对会更低一些</text><path d="M297,1060 C328.5,1060 328.5,1200 360,1200" fill="none" stroke="#DFB85D" stroke-width="2"/><rect x="360" y="1185" width="91.52" height="30" rx="6" fill="#fafafa" stroke="none"/><text x="405.76" y="1205" text-anchor="middle" font-size="13" fill="#333" font-family="-apple-system,BlinkMacSystemFont,sans-serif">5.物流管理</text><path d="M451.52,1200 C495.76,1200 495.76,1160 540,1160" fill="none" stroke="#DFB85D" stroke-width="2"/><rect x="540" y="1145" width="182" height="30" rx="6" fill="#fafafa" stroke="none"/><text x="631" y="1165" text-anchor="middle" font-size="13" fill="#333" font-family="-apple-system,BlinkMacSystemFont,sans-serif">都会涉及到物流相关的业务</text><path d="M451.52,1200 C495.76,1200 495.76,1200 540,1200" fill="none" stroke="#DFB85D" stroke-width="2"/><rect x="540" y="1185" width="416" height="30" rx="6" fill="#fafafa" stroke="none"/><text x="748" y="1205" text-anchor="middle" font-size="13" fill="#333" font-family="-apple-system,BlinkMacSystemFont,sans-serif">跨境电商会涉及到头程物流、尾程物流、直邮物流，相对更复杂一些</text><path d="M451.52,1200 C495.76,1200 495.76,1240 540,1240" fill="none" stroke="#DFB85D" stroke-width="2"/><rect x="540" y="1225" width="468" height="30" rx="6" fill="#fafafa" stroke="none"/><text x="774" y="1245" text-anchor="middle" font-size="13" fill="#333" font-family="-apple-system,BlinkMacSystemFont,sans-serif">国内电商的物流一般会涉及到加密电子面单的内容，但是整体逻辑是更简单的</text><path d="M297,1060 C328.5,1060 328.5,1300 360,1300" fill="none" stroke="#DFB85D" stroke-width="2"/><rect x="360" y="1285" width="91.52" height="30" rx="6" fill="#fafafa" stroke="none"/><text x="405.76" y="1305" text-anchor="middle" font-size="13" fill="#333" font-family="-apple-system,BlinkMacSystemFont,sans-serif">6.库存管理</text><path d="M451.52,1300 C495.76,1300 495.76,1280 540,1280" fill="none" stroke="#DFB85D" stroke-width="2"/><rect x="540" y="1265" width="156" height="30" rx="6" fill="#fafafa" stroke="none"/><text x="618" y="1285" text-anchor="middle" font-size="13" fill="#333" font-family="-apple-system,BlinkMacSystemFont,sans-serif">都会涉及到库存的管理</text><path d="M451.52,1300 C495.76,1300 495.76,1320 540,1320" fill="none" stroke="#DFB85D" stroke-width="2"/><rect x="540" y="1305" width="416" height="30" rx="6" fill="#fafafa" stroke="none"/><text x="748" y="1325" text-anchor="middle" font-size="13" fill="#333" font-family="-apple-system,BlinkMacSystemFont,sans-serif">电商业务中，库存是一个很大的成本，库存管理是一个很重要的模块</text><path d="M297,1060 C328.5,1060 328.5,1360 360,1360" fill="none" stroke="#DFB85D" stroke-width="2"/><rect x="360" y="1345" width="91.52" height="30" rx="6" fill="#fafafa" stroke="none"/><text x="405.76" y="1365" text-anchor="middle" font-size="13" fill="#333" font-family="-apple-system,BlinkMacSystemFont,sans-serif">7.财务结算</text><path d="M451.52,1360 C495.76,1360 495.76,1360 540,1360" fill="none" stroke="#DFB85D" stroke-width="2"/><rect x="540" y="1345" width="208" height="30" rx="6" fill="#fafafa" stroke="none"/><text x="644" y="1365" text-anchor="middle" font-size="13" fill="#333" font-family="-apple-system,BlinkMacSystemFont,sans-serif">都会涉及到财务结算相关的内容</text>
</svg>