<svg xmlns="http://www.w3.org/2000/svg" xmlns:xlink="http://www.w3.org/1999/xlink"
  viewBox="-156.48000000000002 -639 1344.48 1278" width="1344.48" height="1278"
  style="background:#fff; font-family:-apple-system,BlinkMacSystemFont,'Segoe UI',Roboto,sans-serif;">
<defs></defs>
<rect x="-156.48000000000002" y="-639" width="1344.48" height="1278" fill="#fff"/>
<rect x="-72.48" y="-18" width="144.96" height="36" rx="8" fill="#EFF0F0" stroke="none"/><text x="0" y="6" text-anchor="middle" font-size="16" font-weight="bold" fill="#333" font-family="-apple-system,BlinkMacSystemFont,sans-serif">API对接类需求</text><path d="M72.48,0 C162.48000000000002,0 162.48000000000002,-420 252.48000000000002,-420" fill="none" stroke="#A287E1" stroke-width="2"/><rect x="180" y="-435" width="80" height="30" rx="6" fill="#fafafa" stroke="none"/><text x="220" y="-415" text-anchor="middle" font-size="13" fill="#333" font-family="-apple-system,BlinkMacSystemFont,sans-serif">明确目的</text><path d="M260,-420 C310,-420 310,-520 360,-520" fill="none" stroke="#A287E1" stroke-width="2"/><rect x="360" y="-535" width="228.28" height="30" rx="6" fill="#fafafa" stroke="none"/><text x="474.14" y="-515" text-anchor="middle" font-size="13" fill="#333" font-family="-apple-system,BlinkMacSystemFont,sans-serif">对接这个API是为了解决什么问题？</text><path d="M588.28,-520 C564.14,-520 564.14,-540 540,-540" fill="none" stroke="#A287E1" stroke-width="2"/><rect x="540" y="-555" width="130" height="30" rx="6" fill="#fafafa" stroke="none"/><text x="605" y="-535" text-anchor="middle" font-size="13" fill="#333" font-family="-apple-system,BlinkMacSystemFont,sans-serif">为什么需要对接？</text><path d="M588.28,-520 C564.14,-520 564.14,-500 540,-500" fill="none" stroke="#A287E1" stroke-width="2"/><rect x="540" y="-515" width="156" height="30" rx="6" fill="#fafafa" stroke="none"/><text x="618" y="-495" text-anchor="middle" font-size="13" fill="#333" font-family="-apple-system,BlinkMacSystemFont,sans-serif">对方能提供什么服务？</text><path d="M260,-420 C310,-420 310,-440 360,-440" fill="none" stroke="#A287E1" stroke-width="2"/><rect x="360" y="-455" width="143" height="30" rx="6" fill="#fafafa" stroke="none"/><text x="431.5" y="-435" text-anchor="middle" font-size="13" fill="#333" font-family="-apple-system,BlinkMacSystemFont,sans-serif">确认对接的一些边界</text><path d="M503,-440 C521.5,-440 521.5,-460 540,-460" fill="none" stroke="#A287E1" stroke-width="2"/><rect x="540" y="-475" width="182" height="30" rx="6" fill="#fafafa" stroke="none"/><text x="631" y="-455" text-anchor="middle" font-size="13" fill="#333" font-family="-apple-system,BlinkMacSystemFont,sans-serif">需要获取对方的什么服务？</text><path d="M503,-440 C521.5,-440 521.5,-420 540,-420" fill="none" stroke="#A287E1" stroke-width="2"/><rect x="540" y="-435" width="169" height="30" rx="6" fill="#fafafa" stroke="none"/><text x="624.5" y="-415" text-anchor="middle" font-size="13" fill="#333" font-family="-apple-system,BlinkMacSystemFont,sans-serif">一共要对接多少个接口？</text><path d="M709,-420 C714.5,-420 714.5,-420 720,-420" fill="none" stroke="#A287E1" stroke-width="2"/><rect x="720" y="-435" width="80.07999999999998" height="30" rx="6" fill="#fafafa" stroke="none"/><text x="760.04" y="-415" text-anchor="middle" font-size="13" fill="#333" font-family="-apple-system,BlinkMacSystemFont,sans-serif">EndPoint</text><path d="M260,-420 C310,-420 310,-340 360,-340" fill="none" stroke="#A287E1" stroke-width="2"/><rect x="360" y="-355" width="156" height="30" rx="6" fill="#fafafa" stroke="none"/><text x="438" y="-335" text-anchor="middle" font-size="13" fill="#333" font-family="-apple-system,BlinkMacSystemFont,sans-serif">列出要对接的接口清单</text><path d="M516,-340 C528,-340 528,-340 540,-340" fill="none" stroke="#A287E1" stroke-width="2"/><rect x="540" y="-355" width="208" height="30" rx="6" fill="#fafafa" stroke="none"/><text x="644" y="-335" text-anchor="middle" font-size="13" fill="#333" font-family="-apple-system,BlinkMacSystemFont,sans-serif">对一些核心接口做一些注释说明</text><path d="M748,-340 C734,-340 734,-380 720,-380" fill="none" stroke="#A287E1" stroke-width="2"/><rect x="720" y="-395" width="80" height="30" rx="6" fill="#fafafa" stroke="none"/><text x="760" y="-375" text-anchor="middle" font-size="13" fill="#333" font-family="-apple-system,BlinkMacSystemFont,sans-serif">字段映射</text><path d="M748,-340 C734,-340 734,-340 720,-340" fill="none" stroke="#A287E1" stroke-width="2"/><rect x="720" y="-355" width="104" height="30" rx="6" fill="#fafafa" stroke="none"/><text x="772" y="-335" text-anchor="middle" font-size="13" fill="#333" font-family="-apple-system,BlinkMacSystemFont,sans-serif">字段逻辑说明</text><path d="M748,-340 C734,-340 734,-300 720,-300" fill="none" stroke="#A287E1" stroke-width="2"/><rect x="720" y="-315" width="91" height="30" rx="6" fill="#fafafa" stroke="none"/><text x="765.5" y="-295" text-anchor="middle" font-size="13" fill="#333" font-family="-apple-system,BlinkMacSystemFont,sans-serif">对接的说明</text><path d="M72.48,0 C162.48000000000002,0 162.48000000000002,-120 252.48000000000002,-120" fill="none" stroke="#6F81DB" stroke-width="2"/><rect x="180" y="-135" width="163.28" height="30" rx="6" fill="#fafafa" stroke="none"/><text x="261.64" y="-115" text-anchor="middle" font-size="13" fill="#333" font-family="-apple-system,BlinkMacSystemFont,sans-serif">API对接的一些资料整理</text><path d="M343.28,-120 C351.64,-120 351.64,-260 360,-260" fill="none" stroke="#6F81DB" stroke-width="2"/><rect x="360" y="-275" width="125.32000000000001" height="30" rx="6" fill="#fafafa" stroke="none"/><text x="422.66" y="-255" text-anchor="middle" font-size="13" fill="#333" font-family="-apple-system,BlinkMacSystemFont,sans-serif">API地址/API文档</text><path d="M485.32,-260 C512.66,-260 512.66,-260 540,-260" fill="none" stroke="#6F81DB" stroke-width="2"/><rect x="540" y="-275" width="221" height="30" rx="6" fill="#fafafa" stroke="none"/><text x="650.5" y="-255" text-anchor="middle" font-size="13" fill="#333" font-family="-apple-system,BlinkMacSystemFont,sans-serif">产品要提前整理好相关信息给研发</text><path d="M343.28,-120 C351.64,-120 351.64,-160 360,-160" fill="none" stroke="#6F81DB" stroke-width="2"/><rect x="360" y="-175" width="143" height="30" rx="6" fill="#fafafa" stroke="none"/><text x="431.5" y="-155" text-anchor="middle" font-size="13" fill="#333" font-family="-apple-system,BlinkMacSystemFont,sans-serif">对接的一些前置准备</text><path d="M503,-160 C521.5,-160 521.5,-220 540,-220" fill="none" stroke="#6F81DB" stroke-width="2"/><rect x="540" y="-235" width="130" height="30" rx="6" fill="#fafafa" stroke="none"/><text x="605" y="-215" text-anchor="middle" font-size="13" fill="#333" font-family="-apple-system,BlinkMacSystemFont,sans-serif">沙盒环境账号密码</text><path d="M503,-160 C521.5,-160 521.5,-180 540,-180" fill="none" stroke="#6F81DB" stroke-width="2"/><rect x="540" y="-195" width="130" height="30" rx="6" fill="#fafafa" stroke="none"/><text x="605" y="-175" text-anchor="middle" font-size="13" fill="#333" font-family="-apple-system,BlinkMacSystemFont,sans-serif">生产环境账号密码</text><path d="M503,-160 C521.5,-160 521.5,-140 540,-140" fill="none" stroke="#6F81DB" stroke-width="2"/><rect x="540" y="-155" width="162.76" height="30" rx="6" fill="#fafafa" stroke="none"/><text x="621.38" y="-135" text-anchor="middle" font-size="13" fill="#333" font-family="-apple-system,BlinkMacSystemFont,sans-serif">提前注册/认证为开发者</text><path d="M503,-160 C521.5,-160 521.5,-100 540,-100" fill="none" stroke="#6F81DB" stroke-width="2"/><rect x="540" y="-115" width="143" height="30" rx="6" fill="#fafafa" stroke="none"/><text x="611.5" y="-95" text-anchor="middle" font-size="13" fill="#333" font-family="-apple-system,BlinkMacSystemFont,sans-serif">可以提前拉好交流群</text><path d="M343.28,-120 C351.64,-120 351.64,-20 360,-20" fill="none" stroke="#6F81DB" stroke-width="2"/><rect x="360" y="-35" width="91" height="30" rx="6" fill="#fafafa" stroke="none"/><text x="405.5" y="-15" text-anchor="middle" font-size="13" fill="#333" font-family="-apple-system,BlinkMacSystemFont,sans-serif">对接的流程</text><path d="M451,-20 C495.5,-20 495.5,-60 540,-60" fill="none" stroke="#6F81DB" stroke-width="2"/><rect x="540" y="-75" width="182" height="30" rx="6" fill="#fafafa" stroke="none"/><text x="631" y="-55" text-anchor="middle" font-size="13" fill="#333" font-family="-apple-system,BlinkMacSystemFont,sans-serif">先对接什么？后对接什么？</text><path d="M722,-60 C721,-60 721,-60 720,-60" fill="none" stroke="#6F81DB" stroke-width="2"/><rect x="720" y="-75" width="325" height="30" rx="6" fill="#fafafa" stroke="none"/><text x="882.5" y="-55" text-anchor="middle" font-size="13" fill="#333" font-family="-apple-system,BlinkMacSystemFont,sans-serif">需要先看哪一部分，再看哪一部分？缩短研发的时间</text><path d="M451,-20 C495.5,-20 495.5,-20 540,-20" fill="none" stroke="#6F81DB" stroke-width="2"/><rect x="540" y="-35" width="260" height="30" rx="6" fill="#fafafa" stroke="none"/><text x="670" y="-15" text-anchor="middle" font-size="13" fill="#333" font-family="-apple-system,BlinkMacSystemFont,sans-serif">对接了某个接口后和实际的业务怎么打通</text><path d="M800,-20 C760,-20 760,-20 720,-20" fill="none" stroke="#6F81DB" stroke-width="2"/><rect x="720" y="-35" width="143" height="30" rx="6" fill="#fafafa" stroke="none"/><text x="791.5" y="-15" text-anchor="middle" font-size="13" fill="#333" font-family="-apple-system,BlinkMacSystemFont,sans-serif">怎么验证，怎么测试</text><path d="M451,-20 C495.5,-20 495.5,20 540,20" fill="none" stroke="#6F81DB" stroke-width="2"/><rect x="540" y="5" width="416" height="30" rx="6" fill="#fafafa" stroke="none"/><text x="748" y="25" text-anchor="middle" font-size="13" fill="#333" font-family="-apple-system,BlinkMacSystemFont,sans-serif">对接完成之后，什么时候上线，什么时候切换生产环境的账号和密码</text><path d="M72.48,0 C162.48000000000002,0 162.48000000000002,300 252.48000000000002,300" fill="none" stroke="#DFB85D" stroke-width="2"/><rect x="180" y="285" width="143" height="30" rx="6" fill="#fafafa" stroke="none"/><text x="251.5" y="305" text-anchor="middle" font-size="13" fill="#333" font-family="-apple-system,BlinkMacSystemFont,sans-serif">对接的需求文档编写</text><path d="M323,300 C341.5,300 341.5,100 360,100" fill="none" stroke="#DFB85D" stroke-width="2"/><rect x="360" y="85" width="117" height="30" rx="6" fill="#fafafa" stroke="none"/><text x="418.5" y="105" text-anchor="middle" font-size="13" fill="#333" font-family="-apple-system,BlinkMacSystemFont,sans-serif">业务系统的部分</text><path d="M477,100 C508.5,100 508.5,60 540,60" fill="none" stroke="#DFB85D" stroke-width="2"/><rect x="540" y="45" width="195" height="30" rx="6" fill="#fafafa" stroke="none"/><text x="637.5" y="65" text-anchor="middle" font-size="13" fill="#333" font-family="-apple-system,BlinkMacSystemFont,sans-serif">描述业务系统需要做什么事情</text><path d="M477,100 C508.5,100 508.5,100 540,100" fill="none" stroke="#DFB85D" stroke-width="2"/><rect x="540" y="85" width="228.27999999999997" height="30" rx="6" fill="#fafafa" stroke="none"/><text x="654.14" y="105" text-anchor="middle" font-size="13" fill="#333" font-family="-apple-system,BlinkMacSystemFont,sans-serif">为了完成这些事情需要请求什么API</text><path d="M477,100 C508.5,100 508.5,140 540,140" fill="none" stroke="#DFB85D" stroke-width="2"/><rect x="540" y="125" width="267.28" height="30" rx="6" fill="#fafafa" stroke="none"/><text x="673.64" y="145" text-anchor="middle" font-size="13" fill="#333" font-family="-apple-system,BlinkMacSystemFont,sans-serif">API请求之后，业务系统怎么继续走完流程</text><path d="M323,300 C341.5,300 341.5,360 360,360" fill="none" stroke="#DFB85D" stroke-width="2"/><rect x="360" y="345" width="104" height="30" rx="6" fill="#fafafa" stroke="none"/><text x="412" y="365" text-anchor="middle" font-size="13" fill="#333" font-family="-apple-system,BlinkMacSystemFont,sans-serif">接口对接部分</text><path d="M464,360 C502,360 502,180 540,180" fill="none" stroke="#DFB85D" stroke-width="2"/><rect x="540" y="165" width="247.90999999999997" height="30" rx="6" fill="#fafafa" stroke="none"/><text x="663.9549999999999" y="185" text-anchor="middle" font-size="13" fill="#333" font-family="-apple-system,BlinkMacSystemFont,sans-serif">对接什么接口？API EndPoint是哪个？</text><path d="M787.91,180 C753.9549999999999,180 753.9549999999999,180 720,180" fill="none" stroke="#DFB85D" stroke-width="2"/><rect x="720" y="165" width="247" height="30" rx="6" fill="#fafafa" stroke="none"/><text x="843.5" y="185" text-anchor="middle" font-size="13" fill="#333" font-family="-apple-system,BlinkMacSystemFont,sans-serif">业务系统的哪个功能需要调用该接口？</text><path d="M464,360 C502,360 502,240 540,240" fill="none" stroke="#DFB85D" stroke-width="2"/><rect x="540" y="225" width="143" height="30" rx="6" fill="#fafafa" stroke="none"/><text x="611.5" y="245" text-anchor="middle" font-size="13" fill="#333" font-family="-apple-system,BlinkMacSystemFont,sans-serif">接口调用的入参说明</text><path d="M683,240 C701.5,240 701.5,220 720,220" fill="none" stroke="#DFB85D" stroke-width="2"/><rect x="720" y="205" width="169" height="30" rx="6" fill="#fafafa" stroke="none"/><text x="804.5" y="225" text-anchor="middle" font-size="13" fill="#333" font-family="-apple-system,BlinkMacSystemFont,sans-serif">传系统中的什么字段过去</text><path d="M683,240 C701.5,240 701.5,260 720,260" fill="none" stroke="#DFB85D" stroke-width="2"/><rect x="720" y="245" width="221" height="30" rx="6" fill="#fafafa" stroke="none"/><text x="830.5" y="265" text-anchor="middle" font-size="13" fill="#333" font-family="-apple-system,BlinkMacSystemFont,sans-serif">系统的字段和入参字段的映射说明</text><path d="M464,360 C502,360 502,320 540,320" fill="none" stroke="#DFB85D" stroke-width="2"/><rect x="540" y="305" width="143" height="30" rx="6" fill="#fafafa" stroke="none"/><text x="611.5" y="325" text-anchor="middle" font-size="13" fill="#333" font-family="-apple-system,BlinkMacSystemFont,sans-serif">接口调用的出参说明</text><path d="M683,320 C701.5,320 701.5,300 720,300" fill="none" stroke="#DFB85D" stroke-width="2"/><rect x="720" y="285" width="169" height="30" rx="6" fill="#fafafa" stroke="none"/><text x="804.5" y="305" text-anchor="middle" font-size="13" fill="#333" font-family="-apple-system,BlinkMacSystemFont,sans-serif">接收回来的字段怎么处理</text><path d="M683,320 C701.5,320 701.5,340 720,340" fill="none" stroke="#DFB85D" stroke-width="2"/><rect x="720" y="325" width="247" height="30" rx="6" fill="#fafafa" stroke="none"/><text x="843.5" y="345" text-anchor="middle" font-size="13" fill="#333" font-family="-apple-system,BlinkMacSystemFont,sans-serif">接口返回的字段和系统的字段映射说明</text><path d="M464,360 C502,360 502,380 540,380" fill="none" stroke="#DFB85D" stroke-width="2"/><rect x="540" y="365" width="117" height="30" rx="6" fill="#fafafa" stroke="none"/><text x="598.5" y="385" text-anchor="middle" font-size="13" fill="#333" font-family="-apple-system,BlinkMacSystemFont,sans-serif">接口调用的时机</text><path d="M657,380 C688.5,380 688.5,380 720,380" fill="none" stroke="#DFB85D" stroke-width="2"/><rect x="720" y="365" width="130" height="30" rx="6" fill="#fafafa" stroke="none"/><text x="785" y="385" text-anchor="middle" font-size="13" fill="#333" font-family="-apple-system,BlinkMacSystemFont,sans-serif">什么时候调用接口</text><path d="M464,360 C502,360 502,420 540,420" fill="none" stroke="#DFB85D" stroke-width="2"/><rect x="540" y="405" width="117" height="30" rx="6" fill="#fafafa" stroke="none"/><text x="598.5" y="425" text-anchor="middle" font-size="13" fill="#333" font-family="-apple-system,BlinkMacSystemFont,sans-serif">接口调用的次数</text><path d="M657,420 C688.5,420 688.5,420 720,420" fill="none" stroke="#DFB85D" stroke-width="2"/><rect x="720" y="405" width="312" height="30" rx="6" fill="#fafafa" stroke="none"/><text x="876" y="425" text-anchor="middle" font-size="13" fill="#333" font-family="-apple-system,BlinkMacSystemFont,sans-serif">多久调用一次，定时任务？还是在某个场景下触发</text><path d="M464,360 C502,360 502,500 540,500" fill="none" stroke="#DFB85D" stroke-width="2"/><rect x="540" y="485" width="117" height="30" rx="6" fill="#fafafa" stroke="none"/><text x="598.5" y="505" text-anchor="middle" font-size="13" fill="#333" font-family="-apple-system,BlinkMacSystemFont,sans-serif">一些异常的处理</text><path d="M657,500 C688.5,500 688.5,460 720,460" fill="none" stroke="#DFB85D" stroke-width="2"/><rect x="720" y="445" width="201.76" height="30" rx="6" fill="#fafafa" stroke="none"/><text x="820.88" y="465" text-anchor="middle" font-size="13" fill="#333" font-family="-apple-system,BlinkMacSystemFont,sans-serif">调用出错/接口不通，怎么监控</text><path d="M657,500 C688.5,500 688.5,500 720,500" fill="none" stroke="#DFB85D" stroke-width="2"/><rect x="720" y="485" width="195" height="30" rx="6" fill="#fafafa" stroke="none"/><text x="817.5" y="505" text-anchor="middle" font-size="13" fill="#333" font-family="-apple-system,BlinkMacSystemFont,sans-serif">返回数据有问题，怎么处理？</text><path d="M657,500 C688.5,500 688.5,540 720,540" fill="none" stroke="#DFB85D" stroke-width="2"/><rect x="720" y="525" width="169" height="30" rx="6" fill="#fafafa" stroke="none"/><text x="804.5" y="545" text-anchor="middle" font-size="13" fill="#333" font-family="-apple-system,BlinkMacSystemFont,sans-serif">其他异常问题，处理方式</text>
</svg>