<svg xmlns="http://www.w3.org/2000/svg" xmlns:xlink="http://www.w3.org/1999/xlink"
  viewBox="-369.5 -850.359375 2059.2699999999995 2118" width="2059.2699999999995" height="2118"
  style="background:#fff; font-family:-apple-system,BlinkMacSystemFont,'Segoe UI',Roboto,sans-serif;">
<defs></defs>
<rect x="-369.5" y="-850.359375" width="2059.2699999999995" height="2118" fill="#fff"/>
<rect x="-285.5" y="190.640625" width="264" height="36" rx="8" fill="rgb(245, 245, 245)" stroke="none"/><text x="-153.5" y="214.640625" text-anchor="middle" font-size="16" font-weight="bold" fill="#333" font-family="-apple-system,BlinkMacSystemFont,sans-serif">跨境物流头程与尾程的业务知识</text><path d="M-21.5,208.640625 C68.5,208.640625 68.5,-611.359375 158.5,-611.359375" fill="none" stroke="#DFB85D" stroke-width="2"/><rect x="26.5" y="-626.359375" width="117" height="30" rx="6" fill="#fafafa" stroke="none"/><text x="85" y="-606.359375" text-anchor="middle" font-size="13" fill="#333" font-family="-apple-system,BlinkMacSystemFont,sans-serif">跨境物流的定义</text><path d="M143.5,-611.359375 C175,-611.359375 175,-751.359375 206.5,-751.359375" fill="none" stroke="#DFB85D" stroke-width="2"/><rect x="206.5" y="-766.359375" width="858" height="30" rx="6" fill="#fafafa" stroke="none"/><text x="635.5" y="-746.359375" text-anchor="middle" font-size="13" fill="#333" font-family="-apple-system,BlinkMacSystemFont,sans-serif">指第三方跨境物流服务公司通过整合全球物流资源，为跨境电商企业提供商品的仓储、运输、配送综合式物流及进出口清关、本地化售后等服务。</text><path d="M143.5,-611.359375 C175,-611.359375 175,-651.359375 206.5,-651.359375" fill="none" stroke="#DFB85D" stroke-width="2"/><rect x="206.5" y="-666.359375" width="80" height="30" rx="6" fill="#fafafa" stroke="none"/><text x="246.5" y="-646.359375" text-anchor="middle" font-size="13" fill="#333" font-family="-apple-system,BlinkMacSystemFont,sans-serif"></text><path d="M286.5,-651.359375 C336.5,-651.359375 336.5,-691.359375 386.5,-691.359375" fill="none" stroke="#DFB85D" stroke-width="2"/><rect x="386.5" y="-706.359375" width="923.52" height="30" rx="6" fill="#fafafa" stroke="none"/><text x="848.26" y="-686.359375" text-anchor="middle" font-size="13" fill="#333" font-family="-apple-system,BlinkMacSystemFont,sans-serif">邮政网络模式是指邮政公司通过自行揽收或第三方物流服务商揽收后再交由邮政企业负责出关、国际运输及目的国清关配送等环节的模式，如E邮宝，E特快等</text><path d="M1310.02,-691.359375 C938.26,-691.359375 938.26,-711.359375 566.5,-711.359375" fill="none" stroke="#DFB85D" stroke-width="2"/><rect x="566.5" y="-726.359375" width="80" height="30" rx="6" fill="#fafafa" stroke="none"/><text x="606.5" y="-706.359375" text-anchor="middle" font-size="13" fill="#333" font-family="-apple-system,BlinkMacSystemFont,sans-serif">e邮宝</text><path d="M646.5,-711.359375 C696.5,-711.359375 696.5,-711.359375 746.5,-711.359375" fill="none" stroke="#DFB85D" stroke-width="2"/><rect x="746.5" y="-726.359375" width="80" height="30" rx="6" fill="#fafafa" stroke="none"/><text x="786.5" y="-706.359375" text-anchor="middle" font-size="13" fill="#333" font-family="-apple-system,BlinkMacSystemFont,sans-serif"></text><path d="M1310.02,-691.359375 C938.26,-691.359375 938.26,-671.359375 566.5,-671.359375" fill="none" stroke="#DFB85D" stroke-width="2"/><rect x="566.5" y="-686.359375" width="80" height="30" rx="6" fill="#fafafa" stroke="none"/><text x="606.5" y="-666.359375" text-anchor="middle" font-size="13" fill="#333" font-family="-apple-system,BlinkMacSystemFont,sans-serif">中邮小包</text><path d="M646.5,-671.359375 C696.5,-671.359375 696.5,-671.359375 746.5,-671.359375" fill="none" stroke="#DFB85D" stroke-width="2"/><rect x="746.5" y="-686.359375" width="80" height="30" rx="6" fill="#fafafa" stroke="none"/><text x="786.5" y="-666.359375" text-anchor="middle" font-size="13" fill="#333" font-family="-apple-system,BlinkMacSystemFont,sans-serif"></text><path d="M286.5,-651.359375 C336.5,-651.359375 336.5,-631.359375 386.5,-631.359375" fill="none" stroke="#DFB85D" stroke-width="2"/><rect x="386.5" y="-646.359375" width="858" height="30" rx="6" fill="#fafafa" stroke="none"/><text x="815.5" y="-626.359375" text-anchor="middle" font-size="13" fill="#333" font-family="-apple-system,BlinkMacSystemFont,sans-serif">跨境专线模式是指跨境物流服务商通过自营及整合外部物流资源的方式，针对特定线路而定制的物流服务，例如美国专线，欧洲专线，澳洲专线等</text><path d="M1244.5,-631.359375 C905.5,-631.359375 905.5,-631.359375 566.5,-631.359375" fill="none" stroke="#DFB85D" stroke-width="2"/><rect x="566.5" y="-646.359375" width="80" height="30" rx="6" fill="#fafafa" stroke="none"/><text x="606.5" y="-626.359375" text-anchor="middle" font-size="13" fill="#333" font-family="-apple-system,BlinkMacSystemFont,sans-serif"></text><path d="M286.5,-651.359375 C336.5,-651.359375 336.5,-591.359375 386.5,-591.359375" fill="none" stroke="#DFB85D" stroke-width="2"/><rect x="386.5" y="-606.359375" width="1219.2699999999998" height="30" rx="6" fill="#fafafa" stroke="none"/><text x="996.1349999999999" y="-586.359375" text-anchor="middle" font-size="13" fill="#333" font-family="-apple-system,BlinkMacSystemFont,sans-serif">国际商业快递模式特指国际三大商业快递公司（DHL、Fedex、UPS） 通过第三方物流服务商或自行揽收等途径取得货物订单后，自行组织出关、国际运输及目的国清关配送等环节的模式，如UPS，FedEx，DHL等</text><path d="M143.5,-611.359375 C175,-611.359375 175,-551.359375 206.5,-551.359375" fill="none" stroke="#DFB85D" stroke-width="2"/><rect x="206.5" y="-566.359375" width="182" height="30" rx="6" fill="#fafafa" stroke="none"/><text x="297.5" y="-546.359375" text-anchor="middle" font-size="13" fill="#333" font-family="-apple-system,BlinkMacSystemFont,sans-serif">几种常见的直邮方式的对比</text><path d="M388.5,-551.359375 C387.5,-551.359375 387.5,-551.359375 386.5,-551.359375" fill="none" stroke="#DFB85D" stroke-width="2"/><rect x="386.5" y="-566.359375" width="80" height="30" rx="6" fill="#fafafa" stroke="none"/><text x="426.5" y="-546.359375" text-anchor="middle" font-size="13" fill="#333" font-family="-apple-system,BlinkMacSystemFont,sans-serif"></text><path d="M143.5,-611.359375 C175,-611.359375 175,-511.359375 206.5,-511.359375" fill="none" stroke="#DFB85D" stroke-width="2"/><rect x="206.5" y="-526.359375" width="169" height="30" rx="6" fill="#fafafa" stroke="none"/><text x="291" y="-506.359375" text-anchor="middle" font-size="13" fill="#333" font-family="-apple-system,BlinkMacSystemFont,sans-serif">直邮和海外仓模式的差异</text><path d="M375.5,-511.359375 C381,-511.359375 381,-511.359375 386.5,-511.359375" fill="none" stroke="#DFB85D" stroke-width="2"/><rect x="386.5" y="-526.359375" width="80" height="30" rx="6" fill="#fafafa" stroke="none"/><text x="426.5" y="-506.359375" text-anchor="middle" font-size="13" fill="#333" font-family="-apple-system,BlinkMacSystemFont,sans-serif"></text><path d="M143.5,-611.359375 C175,-611.359375 175,-471.359375 206.5,-471.359375" fill="none" stroke="#DFB85D" stroke-width="2"/><rect x="206.5" y="-486.359375" width="156" height="30" rx="6" fill="#fafafa" stroke="none"/><text x="284.5" y="-466.359375" text-anchor="middle" font-size="13" fill="#333" font-family="-apple-system,BlinkMacSystemFont,sans-serif">海外仓模式的一些数据</text><path d="M362.5,-471.359375 C374.5,-471.359375 374.5,-471.359375 386.5,-471.359375" fill="none" stroke="#DFB85D" stroke-width="2"/><rect x="386.5" y="-486.359375" width="80" height="30" rx="6" fill="#fafafa" stroke="none"/><text x="426.5" y="-466.359375" text-anchor="middle" font-size="13" fill="#333" font-family="-apple-system,BlinkMacSystemFont,sans-serif"></text><path d="M-21.5,208.640625 C68.5,208.640625 68.5,-331.359375 158.5,-331.359375" fill="none" stroke="#A287E1" stroke-width="2"/><rect x="26.5" y="-346.359375" width="117" height="30" rx="6" fill="#fafafa" stroke="none"/><text x="85" y="-326.359375" text-anchor="middle" font-size="13" fill="#333" font-family="-apple-system,BlinkMacSystemFont,sans-serif">头程与尾程定义</text><path d="M143.5,-331.359375 C175,-331.359375 175,-391.359375 206.5,-391.359375" fill="none" stroke="#A287E1" stroke-width="2"/><rect x="206.5" y="-406.359375" width="80" height="30" rx="6" fill="#fafafa" stroke="none"/><text x="246.5" y="-386.359375" text-anchor="middle" font-size="13" fill="#333" font-family="-apple-system,BlinkMacSystemFont,sans-serif">头程</text><path d="M286.5,-391.359375 C336.5,-391.359375 336.5,-391.359375 386.5,-391.359375" fill="none" stroke="#A287E1" stroke-width="2"/><rect x="386.5" y="-406.359375" width="1209" height="30" rx="6" fill="#fafafa" stroke="none"/><text x="991" y="-386.359375" text-anchor="middle" font-size="13" fill="#333" font-family="-apple-system,BlinkMacSystemFont,sans-serif">头程是指货物从发运地起点至目的地海外仓库的运输过程，包括起点地的取货、运输途中的中转和运输到海外仓库的递送。头程通常由国内物流企业通过国际运输通道完成，包括航空、海运等多种运输方式。</text><path d="M1595.5,-391.359375 C1081,-391.359375 1081,-431.359375 566.5,-431.359375" fill="none" stroke="#A287E1" stroke-width="2"/><rect x="566.5" y="-446.359375" width="91.52" height="30" rx="6" fill="#fafafa" stroke="none"/><text x="612.26" y="-426.359375" text-anchor="middle" font-size="13" fill="#333" font-family="-apple-system,BlinkMacSystemFont,sans-serif">中国-&gt;美国</text><path d="M1595.5,-391.359375 C1081,-391.359375 1081,-391.359375 566.5,-391.359375" fill="none" stroke="#A287E1" stroke-width="2"/><rect x="566.5" y="-406.359375" width="234.52" height="30" rx="6" fill="#fafafa" stroke="none"/><text x="683.76" y="-386.359375" text-anchor="middle" font-size="13" fill="#333" font-family="-apple-system,BlinkMacSystemFont,sans-serif">国内供应商的工厂-&gt;海外仓入库收货</text><path d="M1595.5,-391.359375 C1081,-391.359375 1081,-351.359375 566.5,-351.359375" fill="none" stroke="#A287E1" stroke-width="2"/><rect x="566.5" y="-366.359375" width="91" height="30" rx="6" fill="#fafafa" stroke="none"/><text x="612" y="-346.359375" text-anchor="middle" font-size="13" fill="#333" font-family="-apple-system,BlinkMacSystemFont,sans-serif">海、陆、空</text><path d="M143.5,-331.359375 C175,-331.359375 175,-271.359375 206.5,-271.359375" fill="none" stroke="#A287E1" stroke-width="2"/><rect x="206.5" y="-286.359375" width="80" height="30" rx="6" fill="#fafafa" stroke="none"/><text x="246.5" y="-266.359375" text-anchor="middle" font-size="13" fill="#333" font-family="-apple-system,BlinkMacSystemFont,sans-serif">尾程</text><path d="M286.5,-271.359375 C336.5,-271.359375 336.5,-271.359375 386.5,-271.359375" fill="none" stroke="#A287E1" stroke-width="2"/><rect x="386.5" y="-286.359375" width="1105" height="30" rx="6" fill="#fafafa" stroke="none"/><text x="939" y="-266.359375" text-anchor="middle" font-size="13" fill="#333" font-family="-apple-system,BlinkMacSystemFont,sans-serif">尾程是指海外仓出库后到货物最终目的地的配送过程，包括分拣、打包、递送等环节。由于尾程是直接面对最终用户的交付环节，所以快递、物流配送的效率和质量对于用户体验至关重要。</text><path d="M1491.5,-271.359375 C1029,-271.359375 1029,-311.359375 566.5,-311.359375" fill="none" stroke="#A287E1" stroke-width="2"/><rect x="566.5" y="-326.359375" width="91.52" height="30" rx="6" fill="#fafafa" stroke="none"/><text x="612.26" y="-306.359375" text-anchor="middle" font-size="13" fill="#333" font-family="-apple-system,BlinkMacSystemFont,sans-serif">美国-&gt;美国</text><path d="M1491.5,-271.359375 C1029,-271.359375 1029,-271.359375 566.5,-271.359375" fill="none" stroke="#A287E1" stroke-width="2"/><rect x="566.5" y="-286.359375" width="234.52" height="30" rx="6" fill="#fafafa" stroke="none"/><text x="683.76" y="-266.359375" text-anchor="middle" font-size="13" fill="#333" font-family="-apple-system,BlinkMacSystemFont,sans-serif">海外仓发货-&gt;海外本土的具体的地址</text><path d="M1491.5,-271.359375 C1029,-271.359375 1029,-231.359375 566.5,-231.359375" fill="none" stroke="#A287E1" stroke-width="2"/><rect x="566.5" y="-246.359375" width="91" height="30" rx="6" fill="#fafafa" stroke="none"/><text x="612" y="-226.359375" text-anchor="middle" font-size="13" fill="#333" font-family="-apple-system,BlinkMacSystemFont,sans-serif">快递、卡车</text><path d="M-21.5,208.640625 C68.5,208.640625 68.5,68.640625 158.5,68.640625" fill="none" stroke="#6F81DB" stroke-width="2"/><rect x="26.5" y="53.640625" width="80" height="30" rx="6" fill="#fafafa" stroke="none"/><text x="66.5" y="73.640625" text-anchor="middle" font-size="13" fill="#333" font-family="-apple-system,BlinkMacSystemFont,sans-serif">头程</text><path d="M106.5,68.640625 C156.5,68.640625 156.5,68.640625 206.5,68.640625" fill="none" stroke="#6F81DB" stroke-width="2"/><rect x="206.5" y="53.640625" width="143" height="30" rx="6" fill="#fafafa" stroke="none"/><text x="278" y="73.640625" text-anchor="middle" font-size="13" fill="#333" font-family="-apple-system,BlinkMacSystemFont,sans-serif">常见的几种运输方式</text><path d="M349.5,68.640625 C368,68.640625 368,-151.359375 386.5,-151.359375" fill="none" stroke="#6F81DB" stroke-width="2"/><rect x="386.5" y="-166.359375" width="80" height="30" rx="6" fill="#fafafa" stroke="none"/><text x="426.5" y="-146.359375" text-anchor="middle" font-size="13" fill="#333" font-family="-apple-system,BlinkMacSystemFont,sans-serif">国际快递</text><path d="M466.5,-151.359375 C516.5,-151.359375 516.5,-191.359375 566.5,-191.359375" fill="none" stroke="#6F81DB" stroke-width="2"/><rect x="566.5" y="-206.359375" width="80" height="30" rx="6" fill="#fafafa" stroke="none"/><text x="606.5" y="-186.359375" text-anchor="middle" font-size="13" fill="#333" font-family="-apple-system,BlinkMacSystemFont,sans-serif">UPS</text><path d="M466.5,-151.359375 C516.5,-151.359375 516.5,-151.359375 566.5,-151.359375" fill="none" stroke="#6F81DB" stroke-width="2"/><rect x="566.5" y="-166.359375" width="80" height="30" rx="6" fill="#fafafa" stroke="none"/><text x="606.5" y="-146.359375" text-anchor="middle" font-size="13" fill="#333" font-family="-apple-system,BlinkMacSystemFont,sans-serif">DHL</text><path d="M466.5,-151.359375 C516.5,-151.359375 516.5,-111.359375 566.5,-111.359375" fill="none" stroke="#6F81DB" stroke-width="2"/><rect x="566.5" y="-126.359375" width="80" height="30" rx="6" fill="#fafafa" stroke="none"/><text x="606.5" y="-106.359375" text-anchor="middle" font-size="13" fill="#333" font-family="-apple-system,BlinkMacSystemFont,sans-serif">FedEx</text><path d="M349.5,68.640625 C368,68.640625 368,-11.359375 386.5,-11.359375" fill="none" stroke="#6F81DB" stroke-width="2"/><rect x="386.5" y="-26.359375" width="80" height="30" rx="6" fill="#fafafa" stroke="none"/><text x="426.5" y="-6.359375" text-anchor="middle" font-size="13" fill="#333" font-family="-apple-system,BlinkMacSystemFont,sans-serif">海运</text><path d="M466.5,-11.359375 C516.5,-11.359375 516.5,-71.359375 566.5,-71.359375" fill="none" stroke="#6F81DB" stroke-width="2"/><rect x="566.5" y="-86.359375" width="102.83" height="30" rx="6" fill="#fafafa" stroke="none"/><text x="617.915" y="-66.359375" text-anchor="middle" font-size="13" fill="#333" font-family="-apple-system,BlinkMacSystemFont,sans-serif">海运整箱 FCL</text><path d="M669.33,-71.359375 C707.915,-71.359375 707.915,-71.359375 746.5,-71.359375" fill="none" stroke="#6F81DB" stroke-width="2"/><rect x="746.5" y="-86.359375" width="150.02000000000004" height="30" rx="6" fill="#fafafa" stroke="none"/><text x="821.51" y="-66.359375" text-anchor="middle" font-size="13" fill="#333" font-family="-apple-system,BlinkMacSystemFont,sans-serif">Full Container Load</text><path d="M466.5,-11.359375 C516.5,-11.359375 516.5,-31.359375 566.5,-31.359375" fill="none" stroke="#6F81DB" stroke-width="2"/><rect x="566.5" y="-46.359375" width="102.83" height="30" rx="6" fill="#fafafa" stroke="none"/><text x="617.915" y="-26.359375" text-anchor="middle" font-size="13" fill="#333" font-family="-apple-system,BlinkMacSystemFont,sans-serif">海运拼箱 LCL</text><path d="M669.33,-31.359375 C707.915,-31.359375 707.915,-31.359375 746.5,-31.359375" fill="none" stroke="#6F81DB" stroke-width="2"/><rect x="746.5" y="-46.359375" width="150.02000000000004" height="30" rx="6" fill="#fafafa" stroke="none"/><text x="821.51" y="-26.359375" text-anchor="middle" font-size="13" fill="#333" font-family="-apple-system,BlinkMacSystemFont,sans-serif">Less Container Load</text><path d="M466.5,-11.359375 C516.5,-11.359375 516.5,8.640625 566.5,8.640625" fill="none" stroke="#6F81DB" stroke-width="2"/><rect x="566.5" y="-6.359375" width="104" height="30" rx="6" fill="#fafafa" stroke="none"/><text x="618.5" y="13.640625" text-anchor="middle" font-size="13" fill="#333" font-family="-apple-system,BlinkMacSystemFont,sans-serif">海派是什么？</text><path d="M670.5,8.640625 C708.5,8.640625 708.5,8.640625 746.5,8.640625" fill="none" stroke="#6F81DB" stroke-width="2"/><rect x="746.5" y="-6.359375" width="462.28000000000003" height="30" rx="6" fill="#fafafa" stroke="none"/><text x="977.64" y="13.640625" text-anchor="middle" font-size="13" fill="#333" font-family="-apple-system,BlinkMacSystemFont,sans-serif">也称之为，“海+派”。头程使用海运，到了目的港之后使用快递派送到目的地</text><path d="M466.5,-11.359375 C516.5,-11.359375 516.5,48.640625 566.5,48.640625" fill="none" stroke="#6F81DB" stroke-width="2"/><rect x="566.5" y="33.640625" width="104" height="30" rx="6" fill="#fafafa" stroke="none"/><text x="618.5" y="53.640625" text-anchor="middle" font-size="13" fill="#333" font-family="-apple-system,BlinkMacSystemFont,sans-serif">海卡是什么？</text><path d="M670.5,48.640625 C708.5,48.640625 708.5,48.640625 746.5,48.640625" fill="none" stroke="#6F81DB" stroke-width="2"/><rect x="746.5" y="33.640625" width="462.28000000000003" height="30" rx="6" fill="#fafafa" stroke="none"/><text x="977.64" y="53.640625" text-anchor="middle" font-size="13" fill="#333" font-family="-apple-system,BlinkMacSystemFont,sans-serif">也称之为，“海+卡”。头程使用海运，到了目的港之后使用卡车派送到目的地</text><path d="M349.5,68.640625 C368,68.640625 368,108.640625 386.5,108.640625" fill="none" stroke="#6F81DB" stroke-width="2"/><rect x="386.5" y="93.640625" width="80" height="30" rx="6" fill="#fafafa" stroke="none"/><text x="426.5" y="113.640625" text-anchor="middle" font-size="13" fill="#333" font-family="-apple-system,BlinkMacSystemFont,sans-serif">空运</text><path d="M466.5,108.640625 C516.5,108.640625 516.5,88.640625 566.5,88.640625" fill="none" stroke="#6F81DB" stroke-width="2"/><rect x="566.5" y="73.640625" width="104" height="30" rx="6" fill="#fafafa" stroke="none"/><text x="618.5" y="93.640625" text-anchor="middle" font-size="13" fill="#333" font-family="-apple-system,BlinkMacSystemFont,sans-serif">空派是什么？</text><path d="M670.5,88.640625 C708.5,88.640625 708.5,88.640625 746.5,88.640625" fill="none" stroke="#6F81DB" stroke-width="2"/><rect x="746.5" y="73.640625" width="80" height="30" rx="6" fill="#fafafa" stroke="none"/><text x="786.5" y="93.640625" text-anchor="middle" font-size="13" fill="#333" font-family="-apple-system,BlinkMacSystemFont,sans-serif">同上</text><path d="M466.5,108.640625 C516.5,108.640625 516.5,128.640625 566.5,128.640625" fill="none" stroke="#6F81DB" stroke-width="2"/><rect x="566.5" y="113.640625" width="104" height="30" rx="6" fill="#fafafa" stroke="none"/><text x="618.5" y="133.640625" text-anchor="middle" font-size="13" fill="#333" font-family="-apple-system,BlinkMacSystemFont,sans-serif">空卡是什么？</text><path d="M670.5,128.640625 C708.5,128.640625 708.5,128.640625 746.5,128.640625" fill="none" stroke="#6F81DB" stroke-width="2"/><rect x="746.5" y="113.640625" width="80" height="30" rx="6" fill="#fafafa" stroke="none"/><text x="786.5" y="133.640625" text-anchor="middle" font-size="13" fill="#333" font-family="-apple-system,BlinkMacSystemFont,sans-serif">同上</text><path d="M349.5,68.640625 C368,68.640625 368,208.640625 386.5,208.640625" fill="none" stroke="#6F81DB" stroke-width="2"/><rect x="386.5" y="193.640625" width="80" height="30" rx="6" fill="#fafafa" stroke="none"/><text x="426.5" y="213.640625" text-anchor="middle" font-size="13" fill="#333" font-family="-apple-system,BlinkMacSystemFont,sans-serif">陆运</text><path d="M466.5,208.640625 C516.5,208.640625 516.5,168.640625 566.5,168.640625" fill="none" stroke="#6F81DB" stroke-width="2"/><rect x="566.5" y="153.640625" width="80" height="30" rx="6" fill="#fafafa" stroke="none"/><text x="606.5" y="173.640625" text-anchor="middle" font-size="13" fill="#333" font-family="-apple-system,BlinkMacSystemFont,sans-serif">中欧班列</text><path d="M646.5,168.640625 C696.5,168.640625 696.5,168.640625 746.5,168.640625" fill="none" stroke="#6F81DB" stroke-width="2"/><rect x="746.5" y="153.640625" width="80" height="30" rx="6" fill="#fafafa" stroke="none"/><text x="786.5" y="173.640625" text-anchor="middle" font-size="13" fill="#333" font-family="-apple-system,BlinkMacSystemFont,sans-serif"></text><path d="M466.5,208.640625 C516.5,208.640625 516.5,208.640625 566.5,208.640625" fill="none" stroke="#6F81DB" stroke-width="2"/><rect x="566.5" y="193.640625" width="80" height="30" rx="6" fill="#fafafa" stroke="none"/><text x="606.5" y="213.640625" text-anchor="middle" font-size="13" fill="#333" font-family="-apple-system,BlinkMacSystemFont,sans-serif">中欧卡航</text><path d="M646.5,208.640625 C696.5,208.640625 696.5,208.640625 746.5,208.640625" fill="none" stroke="#6F81DB" stroke-width="2"/><rect x="746.5" y="193.640625" width="80" height="30" rx="6" fill="#fafafa" stroke="none"/><text x="786.5" y="213.640625" text-anchor="middle" font-size="13" fill="#333" font-family="-apple-system,BlinkMacSystemFont,sans-serif"></text><path d="M466.5,208.640625 C516.5,208.640625 516.5,248.640625 566.5,248.640625" fill="none" stroke="#6F81DB" stroke-width="2"/><rect x="566.5" y="233.640625" width="208" height="30" rx="6" fill="#fafafa" stroke="none"/><text x="670.5" y="253.640625" text-anchor="middle" font-size="13" fill="#333" font-family="-apple-system,BlinkMacSystemFont,sans-serif">补充知识：什么叫做多式联运？</text><path d="M774.5,248.640625 C760.5,248.640625 760.5,248.640625 746.5,248.640625" fill="none" stroke="#6F81DB" stroke-width="2"/><rect x="746.5" y="233.640625" width="676" height="30" rx="6" fill="#fafafa" stroke="none"/><text x="1084.5" y="253.640625" text-anchor="middle" font-size="13" fill="#333" font-family="-apple-system,BlinkMacSystemFont,sans-serif">由两种及其以上的交通工具相互衔接、转运而共同完成的运输过程统称为复合运输，我国习惯上称之为多式联运。</text><path d="M349.5,68.640625 C368,68.640625 368,308.640625 386.5,308.640625" fill="none" stroke="#6F81DB" stroke-width="2"/><rect x="386.5" y="293.640625" width="130" height="30" rx="6" fill="#fafafa" stroke="none"/><text x="451.5" y="313.640625" text-anchor="middle" font-size="13" fill="#333" font-family="-apple-system,BlinkMacSystemFont,sans-serif">几种运输方式对比</text><path d="M516.5,308.640625 C541.5,308.640625 541.5,288.640625 566.5,288.640625" fill="none" stroke="#6F81DB" stroke-width="2"/><rect x="566.5" y="273.640625" width="80" height="30" rx="6" fill="#fafafa" stroke="none"/><text x="606.5" y="293.640625" text-anchor="middle" font-size="13" fill="#333" font-family="-apple-system,BlinkMacSystemFont,sans-serif"></text><path d="M516.5,308.640625 C541.5,308.640625 541.5,328.640625 566.5,328.640625" fill="none" stroke="#6F81DB" stroke-width="2"/><rect x="566.5" y="313.640625" width="80" height="30" rx="6" fill="#fafafa" stroke="none"/><text x="606.5" y="333.640625" text-anchor="middle" font-size="13" fill="#333" font-family="-apple-system,BlinkMacSystemFont,sans-serif"></text><path d="M-21.5,208.640625 C68.5,208.640625 68.5,768.640625 158.5,768.640625" fill="none" stroke="#6EC4C4" stroke-width="2"/><rect x="26.5" y="753.640625" width="80" height="30" rx="6" fill="#fafafa" stroke="none"/><text x="66.5" y="773.640625" text-anchor="middle" font-size="13" fill="#333" font-family="-apple-system,BlinkMacSystemFont,sans-serif">尾程</text><path d="M106.5,768.640625 C156.5,768.640625 156.5,768.640625 206.5,768.640625" fill="none" stroke="#6EC4C4" stroke-width="2"/><rect x="206.5" y="753.640625" width="143" height="30" rx="6" fill="#fafafa" stroke="none"/><text x="278" y="773.640625" text-anchor="middle" font-size="13" fill="#333" font-family="-apple-system,BlinkMacSystemFont,sans-serif">常见的几种运输方式</text><path d="M349.5,768.640625 C368,768.640625 368,668.640625 386.5,668.640625" fill="none" stroke="#6EC4C4" stroke-width="2"/><rect x="386.5" y="653.640625" width="80" height="30" rx="6" fill="#fafafa" stroke="none"/><text x="426.5" y="673.640625" text-anchor="middle" font-size="13" fill="#333" font-family="-apple-system,BlinkMacSystemFont,sans-serif">商业快递</text><path d="M466.5,668.640625 C516.5,668.640625 516.5,368.640625 566.5,368.640625" fill="none" stroke="#6EC4C4" stroke-width="2"/><rect x="566.5" y="353.640625" width="80" height="30" rx="6" fill="#fafafa" stroke="none"/><text x="606.5" y="373.640625" text-anchor="middle" font-size="13" fill="#333" font-family="-apple-system,BlinkMacSystemFont,sans-serif">UPS</text><path d="M466.5,668.640625 C516.5,668.640625 516.5,408.640625 566.5,408.640625" fill="none" stroke="#6EC4C4" stroke-width="2"/><rect x="566.5" y="393.640625" width="80" height="30" rx="6" fill="#fafafa" stroke="none"/><text x="606.5" y="413.640625" text-anchor="middle" font-size="13" fill="#333" font-family="-apple-system,BlinkMacSystemFont,sans-serif">DHL</text><path d="M466.5,668.640625 C516.5,668.640625 516.5,448.640625 566.5,448.640625" fill="none" stroke="#6EC4C4" stroke-width="2"/><rect x="566.5" y="433.640625" width="80" height="30" rx="6" fill="#fafafa" stroke="none"/><text x="606.5" y="453.640625" text-anchor="middle" font-size="13" fill="#333" font-family="-apple-system,BlinkMacSystemFont,sans-serif">FEDEX</text><path d="M466.5,668.640625 C516.5,668.640625 516.5,588.640625 566.5,588.640625" fill="none" stroke="#6EC4C4" stroke-width="2"/><rect x="566.5" y="573.640625" width="80" height="30" rx="6" fill="#fafafa" stroke="none"/><text x="606.5" y="593.640625" text-anchor="middle" font-size="13" fill="#333" font-family="-apple-system,BlinkMacSystemFont,sans-serif">各国邮政</text><path d="M646.5,588.640625 C696.5,588.640625 696.5,488.640625 746.5,488.640625" fill="none" stroke="#6EC4C4" stroke-width="2"/><rect x="746.5" y="473.640625" width="105.04" height="30" rx="6" fill="#fafafa" stroke="none"/><text x="799.02" y="493.640625" text-anchor="middle" font-size="13" fill="#333" font-family="-apple-system,BlinkMacSystemFont,sans-serif">美国邮政USPS</text><path d="M646.5,588.640625 C696.5,588.640625 696.5,528.640625 746.5,528.640625" fill="none" stroke="#6EC4C4" stroke-width="2"/><rect x="746.5" y="513.640625" width="118.56000000000002" height="30" rx="6" fill="#fafafa" stroke="none"/><text x="805.78" y="533.640625" text-anchor="middle" font-size="13" fill="#333" font-family="-apple-system,BlinkMacSystemFont,sans-serif">德国邮政DEPOST</text><path d="M646.5,588.640625 C696.5,588.640625 696.5,568.640625 746.5,568.640625" fill="none" stroke="#6EC4C4" stroke-width="2"/><rect x="746.5" y="553.640625" width="118.56000000000002" height="30" rx="6" fill="#fafafa" stroke="none"/><text x="805.78" y="573.640625" text-anchor="middle" font-size="13" fill="#333" font-family="-apple-system,BlinkMacSystemFont,sans-serif">日本邮政JPpost</text><path d="M646.5,588.640625 C696.5,588.640625 696.5,608.640625 746.5,608.640625" fill="none" stroke="#6EC4C4" stroke-width="2"/><rect x="746.5" y="593.640625" width="164.84000000000003" height="30" rx="6" fill="#fafafa" stroke="none"/><text x="828.9200000000001" y="613.640625" text-anchor="middle" font-size="13" fill="#333" font-family="-apple-system,BlinkMacSystemFont,sans-serif">英国皇家邮政Royalmail</text><path d="M646.5,588.640625 C696.5,588.640625 696.5,648.640625 746.5,648.640625" fill="none" stroke="#6EC4C4" stroke-width="2"/><rect x="746.5" y="633.640625" width="118.56000000000002" height="30" rx="6" fill="#fafafa" stroke="none"/><text x="805.78" y="653.640625" text-anchor="middle" font-size="13" fill="#333" font-family="-apple-system,BlinkMacSystemFont,sans-serif">荷兰邮政PostNL</text><path d="M646.5,588.640625 C696.5,588.640625 696.5,688.640625 746.5,688.640625" fill="none" stroke="#6EC4C4" stroke-width="2"/><rect x="746.5" y="673.640625" width="80" height="30" rx="6" fill="#fafafa" stroke="none"/><text x="786.5" y="693.640625" text-anchor="middle" font-size="13" fill="#333" font-family="-apple-system,BlinkMacSystemFont,sans-serif">……</text><path d="M466.5,668.640625 C516.5,668.640625 516.5,848.640625 566.5,848.640625" fill="none" stroke="#6EC4C4" stroke-width="2"/><rect x="566.5" y="833.640625" width="182" height="30" rx="6" fill="#fafafa" stroke="none"/><text x="657.5" y="853.640625" text-anchor="middle" font-size="13" fill="#333" font-family="-apple-system,BlinkMacSystemFont,sans-serif">快递也会有不同的服务产品</text><path d="M748.5,848.640625 C747.5,848.640625 747.5,768.640625 746.5,768.640625" fill="none" stroke="#6EC4C4" stroke-width="2"/><rect x="746.5" y="753.640625" width="80" height="30" rx="6" fill="#fafafa" stroke="none"/><text x="786.5" y="773.640625" text-anchor="middle" font-size="13" fill="#333" font-family="-apple-system,BlinkMacSystemFont,sans-serif">时效方面</text><path d="M826.5,768.640625 C876.5,768.640625 876.5,728.640625 926.5,728.640625" fill="none" stroke="#6EC4C4" stroke-width="2"/><rect x="926.5" y="713.640625" width="80" height="30" rx="6" fill="#fafafa" stroke="none"/><text x="966.5" y="733.640625" text-anchor="middle" font-size="13" fill="#333" font-family="-apple-system,BlinkMacSystemFont,sans-serif">当日达</text><path d="M826.5,768.640625 C876.5,768.640625 876.5,768.640625 926.5,768.640625" fill="none" stroke="#6EC4C4" stroke-width="2"/><rect x="926.5" y="753.640625" width="80" height="30" rx="6" fill="#fafafa" stroke="none"/><text x="966.5" y="773.640625" text-anchor="middle" font-size="13" fill="#333" font-family="-apple-system,BlinkMacSystemFont,sans-serif">次日达</text><path d="M826.5,768.640625 C876.5,768.640625 876.5,808.640625 926.5,808.640625" fill="none" stroke="#6EC4C4" stroke-width="2"/><rect x="926.5" y="793.640625" width="80" height="30" rx="6" fill="#fafafa" stroke="none"/><text x="966.5" y="813.640625" text-anchor="middle" font-size="13" fill="#333" font-family="-apple-system,BlinkMacSystemFont,sans-serif">隔日达</text><path d="M748.5,848.640625 C747.5,848.640625 747.5,908.640625 746.5,908.640625" fill="none" stroke="#6EC4C4" stroke-width="2"/><rect x="746.5" y="893.640625" width="104" height="30" rx="6" fill="#fafafa" stroke="none"/><text x="798.5" y="913.640625" text-anchor="middle" font-size="13" fill="#333" font-family="-apple-system,BlinkMacSystemFont,sans-serif">运输要求方面</text><path d="M850.5,908.640625 C888.5,908.640625 888.5,848.640625 926.5,848.640625" fill="none" stroke="#6EC4C4" stroke-width="2"/><rect x="926.5" y="833.640625" width="80" height="30" rx="6" fill="#fafafa" stroke="none"/><text x="966.5" y="853.640625" text-anchor="middle" font-size="13" fill="#333" font-family="-apple-system,BlinkMacSystemFont,sans-serif">文件类</text><path d="M850.5,908.640625 C888.5,908.640625 888.5,888.640625 926.5,888.640625" fill="none" stroke="#6EC4C4" stroke-width="2"/><rect x="926.5" y="873.640625" width="80" height="30" rx="6" fill="#fafafa" stroke="none"/><text x="966.5" y="893.640625" text-anchor="middle" font-size="13" fill="#333" font-family="-apple-system,BlinkMacSystemFont,sans-serif">小包裹类</text><path d="M850.5,908.640625 C888.5,908.640625 888.5,928.640625 926.5,928.640625" fill="none" stroke="#6EC4C4" stroke-width="2"/><rect x="926.5" y="913.640625" width="80" height="30" rx="6" fill="#fafafa" stroke="none"/><text x="966.5" y="933.640625" text-anchor="middle" font-size="13" fill="#333" font-family="-apple-system,BlinkMacSystemFont,sans-serif">大包裹类</text><path d="M850.5,908.640625 C888.5,908.640625 888.5,968.640625 926.5,968.640625" fill="none" stroke="#6EC4C4" stroke-width="2"/><rect x="926.5" y="953.640625" width="111.28" height="30" rx="6" fill="#fafafa" stroke="none"/><text x="982.14" y="973.640625" text-anchor="middle" font-size="13" fill="#333" font-family="-apple-system,BlinkMacSystemFont,sans-serif">货运类（LTL）</text><path d="M349.5,768.640625 C368,768.640625 368,1088.640625 386.5,1088.640625" fill="none" stroke="#6EC4C4" stroke-width="2"/><rect x="386.5" y="1073.640625" width="80" height="30" rx="6" fill="#fafafa" stroke="none"/><text x="426.5" y="1093.640625" text-anchor="middle" font-size="13" fill="#333" font-family="-apple-system,BlinkMacSystemFont,sans-serif">卡车</text><path d="M466.5,1088.640625 C516.5,1088.640625 516.5,1028.640625 566.5,1028.640625" fill="none" stroke="#6EC4C4" stroke-width="2"/><rect x="566.5" y="1013.640625" width="104" height="30" rx="6" fill="#fafafa" stroke="none"/><text x="618.5" y="1033.640625" text-anchor="middle" font-size="13" fill="#333" font-family="-apple-system,BlinkMacSystemFont,sans-serif">商业卡车公司</text><path d="M670.5,1028.640625 C708.5,1028.640625 708.5,1008.640625 746.5,1008.640625" fill="none" stroke="#6EC4C4" stroke-width="2"/><rect x="746.5" y="993.640625" width="117" height="30" rx="6" fill="#fafafa" stroke="none"/><text x="805" y="1013.640625" text-anchor="middle" font-size="13" fill="#333" font-family="-apple-system,BlinkMacSystemFont,sans-serif">专门做货运卡车</text><path d="M670.5,1028.640625 C708.5,1028.640625 708.5,1048.640625 746.5,1048.640625" fill="none" stroke="#6EC4C4" stroke-width="2"/><rect x="746.5" y="1033.640625" width="162.76" height="30" rx="6" fill="#fafafa" stroke="none"/><text x="827.88" y="1053.640625" text-anchor="middle" font-size="13" fill="#333" font-family="-apple-system,BlinkMacSystemFont,sans-serif">快递/物流商的其他产品</text><path d="M909.26,1048.640625 C917.88,1048.640625 917.88,1048.640625 926.5,1048.640625" fill="none" stroke="#6EC4C4" stroke-width="2"/><rect x="926.5" y="1033.640625" width="80" height="30" rx="6" fill="#fafafa" stroke="none"/><text x="966.5" y="1053.640625" text-anchor="middle" font-size="13" fill="#333" font-family="-apple-system,BlinkMacSystemFont,sans-serif">FedEx</text><path d="M466.5,1088.640625 C516.5,1088.640625 516.5,1088.640625 566.5,1088.640625" fill="none" stroke="#6EC4C4" stroke-width="2"/><rect x="566.5" y="1073.640625" width="117" height="30" rx="6" fill="#fafafa" stroke="none"/><text x="625" y="1093.640625" text-anchor="middle" font-size="13" fill="#333" font-family="-apple-system,BlinkMacSystemFont,sans-serif">海外仓自营卡车</text><path d="M466.5,1088.640625 C516.5,1088.640625 516.5,1148.640625 566.5,1148.640625" fill="none" stroke="#6EC4C4" stroke-width="2"/><rect x="566.5" y="1133.640625" width="183.56000000000003" height="30" rx="6" fill="#fafafa" stroke="none"/><text x="658.28" y="1153.640625" text-anchor="middle" font-size="13" fill="#333" font-family="-apple-system,BlinkMacSystemFont,sans-serif">补充知识：LTL和FTL的区别</text><path d="M750.0600000000001,1148.640625 C748.28,1148.640625 748.28,1128.640625 746.5,1128.640625" fill="none" stroke="#6EC4C4" stroke-width="2"/><rect x="746.5" y="1113.640625" width="551.85" height="30" rx="6" fill="#fafafa" stroke="none"/><text x="1022.425" y="1133.640625" text-anchor="middle" font-size="13" fill="#333" font-family="-apple-system,BlinkMacSystemFont,sans-serif">LTL全称是Less Truck Loading ，中文意思叫零担运输，用多少付多少，相当于的拼车/拼柜</text><path d="M750.0600000000001,1148.640625 C748.28,1148.640625 748.28,1168.640625 746.5,1168.640625" fill="none" stroke="#6EC4C4" stroke-width="2"/><rect x="746.5" y="1153.640625" width="690.8199999999999" height="30" rx="6" fill="#fafafa" stroke="none"/><text x="1091.9099999999999" y="1173.640625" text-anchor="middle" font-size="13" fill="#333" font-family="-apple-system,BlinkMacSystemFont,sans-serif">FTL全称是Full Truck Loading，中文意思叫整车运输，顾名思义与LTL相反，你的货不满一车也要付整车运输的费用</text>
</svg>