<svg xmlns="http://www.w3.org/2000/svg" xmlns:xlink="http://www.w3.org/1999/xlink"
  viewBox="-188.16 -859 2077.16 1718" width="2077.16" height="1718"
  style="background:#fff; font-family:-apple-system,BlinkMacSystemFont,'Segoe UI',Roboto,sans-serif;">
<defs></defs>
<rect x="-188.16" y="-859" width="2077.16" height="1718" fill="#fff"/>
<rect x="-104.16" y="-18" width="208.32" height="36" rx="8" fill="#EFF0F0" stroke="none"/><text x="0" y="6" text-anchor="middle" font-size="16" font-weight="bold" fill="#333" font-family="-apple-system,BlinkMacSystemFont,sans-serif">订单发货&amp;其他业务补充</text><path d="M104.16,0 C194.15999999999997,0 194.15999999999997,-720 284.15999999999997,-720" fill="none" stroke="#6EC4C4" stroke-width="2"/><rect x="180" y="-735" width="117" height="30" rx="6" fill="#fafafa" stroke="none"/><text x="238.5" y="-715" text-anchor="middle" font-size="13" fill="#333" font-family="-apple-system,BlinkMacSystemFont,sans-serif">什么叫做标发？</text><path d="M297,-720 C328.5,-720 328.5,-760 360,-760" fill="none" stroke="#6EC4C4" stroke-width="2"/><rect x="360" y="-775" width="403" height="30" rx="6" fill="#fafafa" stroke="none"/><text x="561.5" y="-755" text-anchor="middle" font-size="13" fill="#333" font-family="-apple-system,BlinkMacSystemFont,sans-serif">标发就是标记发货，意思就是告诉电商平台，卖家已经完成了发货</text><path d="M297,-720 C328.5,-720 328.5,-720 360,-720" fill="none" stroke="#6EC4C4" stroke-width="2"/><rect x="360" y="-735" width="300.03999999999996" height="30" rx="6" fill="#fafafa" stroke="none"/><text x="510.02" y="-715" text-anchor="middle" font-size="13" fill="#333" font-family="-apple-system,BlinkMacSystemFont,sans-serif">电商后台的状态一般会从“待发货”变成“已发货”</text><path d="M297,-720 C328.5,-720 328.5,-680 360,-680" fill="none" stroke="#6EC4C4" stroke-width="2"/><rect x="360" y="-695" width="923.52" height="30" rx="6" fill="#fafafa" stroke="none"/><text x="821.76" y="-675" text-anchor="middle" font-size="13" fill="#333" font-family="-apple-system,BlinkMacSystemFont,sans-serif">判断“已发货”的条件一般是有物流商信息（哪个物流商），物流单号（跟踪号是什么），物流轨迹（平台会有一些跟踪号校验规则，判断跟踪号是否为真）等</text><path d="M1283.52,-680 C911.76,-680 911.76,-680 540,-680" fill="none" stroke="#6EC4C4" stroke-width="2"/><rect x="540" y="-695" width="80" height="30" rx="6" fill="#fafafa" stroke="none"/><text x="580" y="-675" text-anchor="middle" font-size="13" fill="#333" font-family="-apple-system,BlinkMacSystemFont,sans-serif"></text><path d="M104.16,0 C194.15999999999997,0 194.15999999999997,-560 284.15999999999997,-560" fill="none" stroke="#A287E1" stroke-width="2"/><rect x="180" y="-575" width="195" height="30" rx="6" fill="#fafafa" stroke="none"/><text x="277.5" y="-555" text-anchor="middle" font-size="13" fill="#333" font-family="-apple-system,BlinkMacSystemFont,sans-serif">平台怎么才知道订单发货了？</text><path d="M375,-560 C367.5,-560 367.5,-620 360,-620" fill="none" stroke="#A287E1" stroke-width="2"/><rect x="360" y="-635" width="436.28" height="30" rx="6" fill="#fafafa" stroke="none"/><text x="578.14" y="-615" text-anchor="middle" font-size="13" fill="#333" font-family="-apple-system,BlinkMacSystemFont,sans-serif">一般来说平台会根据ERP接口反馈的物流商和跟踪号来判断是否已经发货</text><path d="M796.28,-620 C668.14,-620 668.14,-640 540,-640" fill="none" stroke="#A287E1" stroke-width="2"/><rect x="540" y="-655" width="336.9599999999998" height="30" rx="6" fill="#fafafa" stroke="none"/><text x="708.4799999999999" y="-635" text-anchor="middle" font-size="13" fill="#333" font-family="-apple-system,BlinkMacSystemFont,sans-serif">https://op.jinritemai.com/docs/api-docs/16/718</text><path d="M796.28,-620 C668.14,-620 668.14,-600 540,-600" fill="none" stroke="#A287E1" stroke-width="2"/><rect x="540" y="-615" width="641.1599999999994" height="30" rx="6" fill="#fafafa" stroke="none"/><text x="860.5799999999997" y="-595" text-anchor="middle" font-size="13" fill="#333" font-family="-apple-system,BlinkMacSystemFont,sans-serif">https://open.taobao.com/api.htm?spm=a219a.15212433.0.0.6a99669aOeVmJI&amp;docId=54934&amp;docType=2</text><path d="M375,-560 C367.5,-560 367.5,-520 360,-520" fill="none" stroke="#A287E1" stroke-width="2"/><rect x="360" y="-535" width="449.28000000000003" height="30" rx="6" fill="#fafafa" stroke="none"/><text x="584.64" y="-515" text-anchor="middle" font-size="13" fill="#333" font-family="-apple-system,BlinkMacSystemFont,sans-serif">所以大多数ERP都会将申请的运单号回传给平台，回传的时间节点不太一样</text><path d="M809.28,-520 C674.64,-520 674.64,-560 540,-560" fill="none" stroke="#A287E1" stroke-width="2"/><rect x="540" y="-575" width="513.76" height="30" rx="6" fill="#fafafa" stroke="none"/><text x="796.88" y="-555" text-anchor="middle" font-size="13" fill="#333" font-family="-apple-system,BlinkMacSystemFont,sans-serif">拿到运单号就回传平台，实际上物流商还没有揽收（虚拟发货/时效有要求的场景下）</text><path d="M809.28,-520 C674.64,-520 674.64,-520 540,-520" fill="none" stroke="#A287E1" stroke-width="2"/><rect x="540" y="-535" width="559" height="30" rx="6" fill="#fafafa" stroke="none"/><text x="819.5" y="-515" text-anchor="middle" font-size="13" fill="#333" font-family="-apple-system,BlinkMacSystemFont,sans-serif">仓库的发货单实际发货出库之后，再回传给平台，物流商已经揽收或者即将揽收（常规操作）</text><path d="M809.28,-520 C674.64,-520 674.64,-480 540,-480" fill="none" stroke="#A287E1" stroke-width="2"/><rect x="540" y="-495" width="702" height="30" rx="6" fill="#fafafa" stroke="none"/><text x="891" y="-475" text-anchor="middle" font-size="13" fill="#333" font-family="-apple-system,BlinkMacSystemFont,sans-serif">不同的电商平台所合作的物流方式不一样，所以要结合平台和物流渠道来判断，怎么回传、更新运单号或者状态给平台</text><path d="M104.16,0 C194.15999999999997,0 194.15999999999997,-400 284.15999999999997,-400" fill="none" stroke="#6F81DB" stroke-width="2"/><rect x="180" y="-415" width="299" height="30" rx="6" fill="#fafafa" stroke="none"/><text x="329.5" y="-395" text-anchor="middle" font-size="13" fill="#333" font-family="-apple-system,BlinkMacSystemFont,sans-serif">第三方仓履约的情况，怎么知道海外仓发货了？</text><path d="M479,-400 C419.5,-400 419.5,-440 360,-440" fill="none" stroke="#6F81DB" stroke-width="2"/><rect x="360" y="-455" width="562.1199999999999" height="30" rx="6" fill="#fafafa" stroke="none"/><text x="641.06" y="-435" text-anchor="middle" font-size="13" fill="#333" font-family="-apple-system,BlinkMacSystemFont,sans-serif">当海外仓发货了之后，WMS会通知OMS变更状态，但是由于OMS怎么通知ERP，可能也有两种情况</text><path d="M479,-400 C419.5,-400 419.5,-400 360,-400" fill="none" stroke="#6F81DB" stroke-width="2"/><rect x="360" y="-415" width="549.64" height="30" rx="6" fill="#fafafa" stroke="none"/><text x="634.8199999999999" y="-395" text-anchor="middle" font-size="13" fill="#333" font-family="-apple-system,BlinkMacSystemFont,sans-serif">1.ERP对接OMS的时候有对接订单的回调接口，也就是OMS可以主动推送订单的最新状态给ERP</text><path d="M909.64,-400 C724.8199999999999,-400 724.8199999999999,-400 540,-400" fill="none" stroke="#6F81DB" stroke-width="2"/><rect x="540" y="-415" width="125.32" height="30" rx="6" fill="#fafafa" stroke="none"/><text x="602.66" y="-395" text-anchor="middle" font-size="13" fill="#333" font-family="-apple-system,BlinkMacSystemFont,sans-serif">订阅Webhook通知</text><path d="M479,-400 C419.5,-400 419.5,-360 360,-360" fill="none" stroke="#6F81DB" stroke-width="2"/><rect x="360" y="-375" width="770.64" height="30" rx="6" fill="#fafafa" stroke="none"/><text x="745.3199999999999" y="-355" text-anchor="middle" font-size="13" fill="#333" font-family="-apple-system,BlinkMacSystemFont,sans-serif">2.ERP对接OMS的时候没有订单的回调接口，所以ERP需要设置定时任务，不定期去查询和拉取海外仓OMS的订单状态，及时更新状态</text><path d="M1130.6399999999999,-360 C835.3199999999999,-360 835.3199999999999,-360 540,-360" fill="none" stroke="#6F81DB" stroke-width="2"/><rect x="540" y="-375" width="98.28" height="30" rx="6" fill="#fafafa" stroke="none"/><text x="589.14" y="-355" text-anchor="middle" font-size="13" fill="#333" font-family="-apple-system,BlinkMacSystemFont,sans-serif">ERP主动轮询</text><path d="M104.16,0 C194.15999999999997,0 194.15999999999997,-180 284.15999999999997,-180" fill="none" stroke="#DFB85D" stroke-width="2"/><rect x="180" y="-195" width="215.28" height="30" rx="6" fill="#fafafa" stroke="none"/><text x="287.64" y="-175" text-anchor="middle" font-size="13" fill="#333" font-family="-apple-system,BlinkMacSystemFont,sans-serif">ERP订单履约模块的难度在哪里？</text><path d="M395.28,-180 C377.64,-180 377.64,-300 360,-300" fill="none" stroke="#DFB85D" stroke-width="2"/><rect x="360" y="-315" width="156.51999999999998" height="30" rx="6" fill="#fafafa" stroke="none"/><text x="438.26" y="-295" text-anchor="middle" font-size="13" fill="#333" font-family="-apple-system,BlinkMacSystemFont,sans-serif">1.对接平台的工作量大</text><path d="M516.52,-300 C528.26,-300 528.26,-320 540,-320" fill="none" stroke="#DFB85D" stroke-width="2"/><rect x="540" y="-335" width="1073.28" height="30" rx="6" fill="#fafafa" stroke="none"/><text x="1076.6399999999999" y="-315" text-anchor="middle" font-size="13" fill="#333" font-family="-apple-system,BlinkMacSystemFont,sans-serif">一个ERP要对接好几十个或者上百个电商平台，每个电商平台都有好多个接口要对接，哪怕是订单模块的接口也有很多，订单拉取，订单取消，订单物流，订单发票，拆合单等各种接口</text><path d="M516.52,-300 C528.26,-300 528.26,-280 540,-280" fill="none" stroke="#DFB85D" stroke-width="2"/><rect x="540" y="-295" width="585" height="30" rx="6" fill="#fafafa" stroke="none"/><text x="832.5" y="-275" text-anchor="middle" font-size="13" fill="#333" font-family="-apple-system,BlinkMacSystemFont,sans-serif">每个平台的要求都不一样，对接中的细节工作非常之多，而且平台政策经常会变化，需要即时响应</text><path d="M395.28,-180 C377.64,-180 377.64,-240 360,-240" fill="none" stroke="#DFB85D" stroke-width="2"/><rect x="360" y="-255" width="208.51999999999998" height="30" rx="6" fill="#fafafa" stroke="none"/><text x="464.26" y="-235" text-anchor="middle" font-size="13" fill="#333" font-family="-apple-system,BlinkMacSystemFont,sans-serif">2.抽象、归纳、架构设计要求高</text><path d="M568.52,-240 C554.26,-240 554.26,-240 540,-240" fill="none" stroke="#DFB85D" stroke-width="2"/><rect x="540" y="-255" width="943.28" height="30" rx="6" fill="#fafafa" stroke="none"/><text x="1011.64" y="-235" text-anchor="middle" font-size="13" fill="#333" font-family="-apple-system,BlinkMacSystemFont,sans-serif">不同的平台的订单履约方式不一样，要兼容这么多种业务方式，对订单模块的产品架构设计要求就很高，很多电商ERP的订单履约模块都会逐步做得很复杂，很乱</text><path d="M1483.28,-240 C1101.6399999999999,-240 1101.6399999999999,-240 720,-240" fill="none" stroke="#DFB85D" stroke-width="2"/><rect x="720" y="-255" width="80" height="30" rx="6" fill="#fafafa" stroke="none"/><text x="760" y="-235" text-anchor="middle" font-size="13" fill="#333" font-family="-apple-system,BlinkMacSystemFont,sans-serif"></text><path d="M395.28,-180 C377.64,-180 377.64,-200 360,-200" fill="none" stroke="#DFB85D" stroke-width="2"/><rect x="360" y="-215" width="247.51999999999998" height="30" rx="6" fill="#fafafa" stroke="none"/><text x="483.76" y="-195" text-anchor="middle" font-size="13" fill="#333" font-family="-apple-system,BlinkMacSystemFont,sans-serif">3.业务场景多，精细化的操作会有很多</text><path d="M607.52,-200 C573.76,-200 573.76,-200 540,-200" fill="none" stroke="#DFB85D" stroke-width="2"/><rect x="540" y="-215" width="1034.28" height="30" rx="6" fill="#fafafa" stroke="none"/><text x="1057.1399999999999" y="-195" text-anchor="middle" font-size="13" fill="#333" font-family="-apple-system,BlinkMacSystemFont,sans-serif">ERP每天要处理的订单很多，订单相关的精细化处理需求也会有很多，例如批量修改，批量更新，批量导入导出，各种字段的精细化查询，各种场景，各种字段的判断逻辑很丰富</text><path d="M395.28,-180 C377.64,-180 377.64,-100 360,-100" fill="none" stroke="#DFB85D" stroke-width="2"/><rect x="360" y="-115" width="364.52" height="30" rx="6" fill="#fafafa" stroke="none"/><text x="542.26" y="-95" text-anchor="middle" font-size="13" fill="#333" font-family="-apple-system,BlinkMacSystemFont,sans-serif">4.订单关联的业务模块也很多，产品迭代要考虑的因素很多</text><path d="M724.52,-100 C632.26,-100 632.26,-160 540,-160" fill="none" stroke="#DFB85D" stroke-width="2"/><rect x="540" y="-175" width="546" height="30" rx="6" fill="#fafafa" stroke="none"/><text x="813" y="-155" text-anchor="middle" font-size="13" fill="#333" font-family="-apple-system,BlinkMacSystemFont,sans-serif">订单从上游平台来，后续又要更新数据给平台，所以怎么和平台对接需要花时间研究和琢磨</text><path d="M724.52,-100 C632.26,-100 632.26,-120 540,-120" fill="none" stroke="#DFB85D" stroke-width="2"/><rect x="540" y="-135" width="650" height="30" rx="6" fill="#fafafa" stroke="none"/><text x="865" y="-115" text-anchor="middle" font-size="13" fill="#333" font-family="-apple-system,BlinkMacSystemFont,sans-serif">订单需要本地仓库或者第三方海外仓履约，履约的一些信息需要提前搞定，仓库对接，物流对接，库存管理等</text><path d="M724.52,-100 C632.26,-100 632.26,-80 540,-80" fill="none" stroke="#DFB85D" stroke-width="2"/><rect x="540" y="-95" width="689" height="30" rx="6" fill="#fafafa" stroke="none"/><text x="884.5" y="-75" text-anchor="middle" font-size="13" fill="#333" font-family="-apple-system,BlinkMacSystemFont,sans-serif">订单是卖家收入的核心来源，一个订单赚了还是亏了，毛利是多少，这个需要和财务模块打通，老板很关注这个数据</text><path d="M724.52,-100 C632.26,-100 632.26,-40 540,-40" fill="none" stroke="#DFB85D" stroke-width="2"/><rect x="540" y="-55" width="572" height="30" rx="6" fill="#fafafa" stroke="none"/><text x="826" y="-35" text-anchor="middle" font-size="13" fill="#333" font-family="-apple-system,BlinkMacSystemFont,sans-serif">订单的销量情况，收入情况，履约时效，运营操作的效率等都需要呈现为报表，用来做经营决策</text><path d="M104.16,0 C194.15999999999997,0 194.15999999999997,380 284.15999999999997,380" fill="none" stroke="#77C386" stroke-width="2"/><rect x="180" y="365" width="332.28000000000003" height="30" rx="6" fill="#fafafa" stroke="none"/><text x="346.14" y="385" text-anchor="middle" font-size="13" fill="#333" font-family="-apple-system,BlinkMacSystemFont,sans-serif">如果要学习ERP的订单模块产品设计，应该怎么入手？</text><path d="M512.28,380 C436.14,380 436.14,20 360,20" fill="none" stroke="#77C386" stroke-width="2"/><rect x="360" y="5" width="904.8" height="30" rx="6" fill="#fafafa" stroke="none"/><text x="812.4" y="25" text-anchor="middle" font-size="13" fill="#333" font-family="-apple-system,BlinkMacSystemFont,sans-serif">1.ERP的订单模块很复杂，这里面很多的复杂都来源于多个平台的规则，所以新手刚学习的时候，可以先忽略平台的因素，不用考虑平台规则，平台特性等</text><path d="M1264.8,20 C902.4,20 902.4,20 540,20" fill="none" stroke="#77C386" stroke-width="2"/><rect x="540" y="5" width="273" height="30" rx="6" fill="#fafafa" stroke="none"/><text x="676.5" y="25" text-anchor="middle" font-size="13" fill="#333" font-family="-apple-system,BlinkMacSystemFont,sans-serif">跳出来看，订单履约的本质和核心是什么？</text><path d="M813,20 C766.5,20 766.5,0 720,0" fill="none" stroke="#77C386" stroke-width="2"/><rect x="720" y="-15" width="216.32000000000002" height="30" rx="6" fill="#fafafa" stroke="none"/><text x="828.16" y="5" text-anchor="middle" font-size="13" fill="#333" font-family="-apple-system,BlinkMacSystemFont,sans-serif">平台订单-&gt;ERP订单-&gt;仓库发货单</text><path d="M813,20 C766.5,20 766.5,40 720,40" fill="none" stroke="#77C386" stroke-width="2"/><rect x="720" y="25" width="229.32" height="30" rx="6" fill="#fafafa" stroke="none"/><text x="834.66" y="45" text-anchor="middle" font-size="13" fill="#333" font-family="-apple-system,BlinkMacSystemFont,sans-serif">仓库发货-&gt;ERP更新状态-&gt;平台发货</text><path d="M512.28,380 C436.14,380 436.14,160 360,160" fill="none" stroke="#77C386" stroke-width="2"/><rect x="360" y="145" width="730.5999999999999" height="30" rx="6" fill="#fafafa" stroke="none"/><text x="725.3" y="165" text-anchor="middle" font-size="13" fill="#333" font-family="-apple-system,BlinkMacSystemFont,sans-serif">2.ERP的订单模块学习也可以和WMS的学习一样，采用“珍珠奶茶学习法”，先把核心的功能模块列出来，哪些是必须要学习的</text><path d="M1090.6,160 C815.3,160 815.3,80 540,80" fill="none" stroke="#77C386" stroke-width="2"/><rect x="540" y="65" width="169" height="30" rx="6" fill="#fafafa" stroke="none"/><text x="624.5" y="85" text-anchor="middle" font-size="13" fill="#333" font-family="-apple-system,BlinkMacSystemFont,sans-serif">电商平台订单的状态机图</text><path d="M1090.6,160 C815.3,160 815.3,120 540,120" fill="none" stroke="#77C386" stroke-width="2"/><rect x="540" y="105" width="137.28" height="30" rx="6" fill="#fafafa" stroke="none"/><text x="608.64" y="125" text-anchor="middle" font-size="13" fill="#333" font-family="-apple-system,BlinkMacSystemFont,sans-serif">ERP订单状态的流转</text><path d="M1090.6,160 C815.3,160 815.3,160 540,160" fill="none" stroke="#77C386" stroke-width="2"/><rect x="540" y="145" width="163.28" height="30" rx="6" fill="#fafafa" stroke="none"/><text x="621.64" y="165" text-anchor="middle" font-size="13" fill="#333" font-family="-apple-system,BlinkMacSystemFont,sans-serif">ERP订单履约发货的流程</text><path d="M1090.6,160 C815.3,160 815.3,200 540,200" fill="none" stroke="#77C386" stroke-width="2"/><rect x="540" y="185" width="267.28" height="30" rx="6" fill="#fafafa" stroke="none"/><text x="673.64" y="205" text-anchor="middle" font-size="13" fill="#333" font-family="-apple-system,BlinkMacSystemFont,sans-serif">ERP订单的寻仓，寻物流，库存的分配占用</text><path d="M1090.6,160 C815.3,160 815.3,240 540,240" fill="none" stroke="#77C386" stroke-width="2"/><rect x="540" y="225" width="169" height="30" rx="6" fill="#fafafa" stroke="none"/><text x="624.5" y="245" text-anchor="middle" font-size="13" fill="#333" font-family="-apple-system,BlinkMacSystemFont,sans-serif">订单审核（简单的审核）</text><path d="M512.28,380 C436.14,380 436.14,380 360,380" fill="none" stroke="#77C386" stroke-width="2"/><rect x="360" y="365" width="696.8" height="30" rx="6" fill="#fafafa" stroke="none"/><text x="708.4" y="385" text-anchor="middle" font-size="13" fill="#333" font-family="-apple-system,BlinkMacSystemFont,sans-serif">3.可以通过解耦的方式把ERP的订单模块切分成不同的模块，不同的阶段，每个阶段可以单独处理或者针对性学习攻克</text><path d="M1056.8,380 C798.4,380 798.4,280 540,280" fill="none" stroke="#77C386" stroke-width="2"/><rect x="540" y="265" width="221" height="30" rx="6" fill="#fafafa" stroke="none"/><text x="650.5" y="285" text-anchor="middle" font-size="13" fill="#333" font-family="-apple-system,BlinkMacSystemFont,sans-serif">电商平台的接口对接和店铺的授权</text><path d="M1056.8,380 C798.4,380 798.4,320 540,320" fill="none" stroke="#77C386" stroke-width="2"/><rect x="540" y="305" width="195" height="30" rx="6" fill="#fafafa" stroke="none"/><text x="637.5" y="325" text-anchor="middle" font-size="13" fill="#333" font-family="-apple-system,BlinkMacSystemFont,sans-serif">订单的拉取和本地商品的配对</text><path d="M1056.8,380 C798.4,380 798.4,360 540,360" fill="none" stroke="#77C386" stroke-width="2"/><rect x="540" y="345" width="338" height="30" rx="6" fill="#fafafa" stroke="none"/><text x="709" y="365" text-anchor="middle" font-size="13" fill="#333" font-family="-apple-system,BlinkMacSystemFont,sans-serif">订单的自动化处理策略、规则、订单的额外加工处理等</text><path d="M1056.8,380 C798.4,380 798.4,400 540,400" fill="none" stroke="#77C386" stroke-width="2"/><rect x="540" y="385" width="143" height="30" rx="6" fill="#fafafa" stroke="none"/><text x="611.5" y="405" text-anchor="middle" font-size="13" fill="#333" font-family="-apple-system,BlinkMacSystemFont,sans-serif">订单履约的具体流程</text><path d="M1056.8,380 C798.4,380 798.4,440 540,440" fill="none" stroke="#77C386" stroke-width="2"/><rect x="540" y="425" width="104" height="30" rx="6" fill="#fafafa" stroke="none"/><text x="592" y="445" text-anchor="middle" font-size="13" fill="#333" font-family="-apple-system,BlinkMacSystemFont,sans-serif">订单标记发货</text><path d="M1056.8,380 C798.4,380 798.4,480 540,480" fill="none" stroke="#77C386" stroke-width="2"/><rect x="540" y="465" width="117" height="30" rx="6" fill="transparent" stroke="#BFBFBF"/><text x="598.5" y="485" text-anchor="middle" font-size="13" fill="#333" font-family="-apple-system,BlinkMacSystemFont,sans-serif">重点学习的模块</text><path d="M512.28,380 C436.14,380 436.14,640 360,640" fill="none" stroke="#77C386" stroke-width="2"/><rect x="360" y="625" width="780.3899999999999" height="30" rx="6" fill="#fafafa" stroke="none"/><text x="750.1949999999999" y="645" text-anchor="middle" font-size="13" fill="#333" font-family="-apple-system,BlinkMacSystemFont,sans-serif">4.多做竞品调研和学习，电商SaaS ERP是一个竞品较多，业务也比较成熟的产品，有丰富的学习资料，也有具体的操作系统可以上手</text><path d="M1140.3899999999999,640 C840.1949999999999,640 840.1949999999999,580 540,580" fill="none" stroke="#77C386" stroke-width="2"/><rect x="540" y="565" width="163.28" height="30" rx="6" fill="#fafafa" stroke="none"/><text x="621.64" y="585" text-anchor="middle" font-size="13" fill="#333" font-family="-apple-system,BlinkMacSystemFont,sans-serif">跨境电商ERP的一些竞品</text><path d="M703.28,580 C711.64,580 711.64,520 720,520" fill="none" stroke="#77C386" stroke-width="2"/><rect x="720" y="505" width="80" height="30" rx="6" fill="#fafafa" stroke="none"/><text x="760" y="525" text-anchor="middle" font-size="13" fill="#333" font-family="-apple-system,BlinkMacSystemFont,sans-serif">领星ERP</text><path d="M703.28,580 C711.64,580 711.64,560 720,560" fill="none" stroke="#77C386" stroke-width="2"/><rect x="720" y="545" width="80" height="30" rx="6" fill="#fafafa" stroke="none"/><text x="760" y="565" text-anchor="middle" font-size="13" fill="#333" font-family="-apple-system,BlinkMacSystemFont,sans-serif">赛狐ERP</text><path d="M703.28,580 C711.64,580 711.64,600 720,600" fill="none" stroke="#77C386" stroke-width="2"/><rect x="720" y="585" width="85.28" height="30" rx="6" fill="#fafafa" stroke="none"/><text x="762.64" y="605" text-anchor="middle" font-size="13" fill="#333" font-family="-apple-system,BlinkMacSystemFont,sans-serif">店小秘ERP</text><path d="M703.28,580 C711.64,580 711.64,640 720,640" fill="none" stroke="#77C386" stroke-width="2"/><rect x="720" y="625" width="80" height="30" rx="6" fill="#fafafa" stroke="none"/><text x="760" y="645" text-anchor="middle" font-size="13" fill="#333" font-family="-apple-system,BlinkMacSystemFont,sans-serif">易仓ERP</text><path d="M1140.3899999999999,640 C840.1949999999999,640 840.1949999999999,720 540,720" fill="none" stroke="#77C386" stroke-width="2"/><rect x="540" y="705" width="163.28" height="30" rx="6" fill="#fafafa" stroke="none"/><text x="621.64" y="725" text-anchor="middle" font-size="13" fill="#333" font-family="-apple-system,BlinkMacSystemFont,sans-serif">国内电商ERP的一些竞品</text><path d="M703.28,720 C711.64,720 711.64,680 720,680" fill="none" stroke="#77C386" stroke-width="2"/><rect x="720" y="665" width="85.28" height="30" rx="6" fill="#fafafa" stroke="none"/><text x="762.64" y="685" text-anchor="middle" font-size="13" fill="#333" font-family="-apple-system,BlinkMacSystemFont,sans-serif">聚水潭ERP</text><path d="M703.28,720 C711.64,720 711.64,720 720,720" fill="none" stroke="#77C386" stroke-width="2"/><rect x="720" y="705" width="85.28" height="30" rx="6" fill="#fafafa" stroke="none"/><text x="762.64" y="725" text-anchor="middle" font-size="13" fill="#333" font-family="-apple-system,BlinkMacSystemFont,sans-serif">吉客云ERP</text><path d="M703.28,720 C711.64,720 711.64,760 720,760" fill="none" stroke="#77C386" stroke-width="2"/><rect x="720" y="745" width="85.28" height="30" rx="6" fill="#fafafa" stroke="none"/><text x="762.64" y="765" text-anchor="middle" font-size="13" fill="#333" font-family="-apple-system,BlinkMacSystemFont,sans-serif">万里牛ERP</text>
</svg>