<svg xmlns="http://www.w3.org/2000/svg" xmlns:xlink="http://www.w3.org/1999/xlink"
  viewBox="-180.48000000000002 -559 1064.48 1118" width="1064.48" height="1118"
  style="background:#fff; font-family:-apple-system,BlinkMacSystemFont,'Segoe UI',Roboto,sans-serif;">
<defs></defs>
<rect x="-180.48000000000002" y="-559" width="1064.48" height="1118" fill="#fff"/>
<rect x="-96.48" y="-18" width="192.96" height="36" rx="8" fill="#EFF0F0" stroke="none"/><text x="0" y="6" text-anchor="middle" font-size="16" font-weight="bold" fill="#333" font-family="-apple-system,BlinkMacSystemFont,sans-serif">OMS入库单产品结构图</text><path d="M96.48,0 C186.48000000000002,0 186.48000000000002,-300 276.48,-300" fill="none" stroke="#A287E1" stroke-width="2"/><rect x="180" y="-315" width="80" height="30" rx="6" fill="#fafafa" stroke="none"/><text x="220" y="-295" text-anchor="middle" font-size="13" fill="#333" font-family="-apple-system,BlinkMacSystemFont,sans-serif">功能结构</text><path d="M260,-300 C310,-300 310,-420 360,-420" fill="none" stroke="#A287E1" stroke-width="2"/><rect x="360" y="-435" width="91" height="30" rx="6" fill="#fafafa" stroke="none"/><text x="405.5" y="-415" text-anchor="middle" font-size="13" fill="#333" font-family="-apple-system,BlinkMacSystemFont,sans-serif">基础的管理</text><path d="M451,-420 C495.5,-420 495.5,-460 540,-460" fill="none" stroke="#A287E1" stroke-width="2"/><rect x="540" y="-475" width="91" height="30" rx="6" fill="#fafafa" stroke="none"/><text x="585.5" y="-455" text-anchor="middle" font-size="13" fill="#333" font-family="-apple-system,BlinkMacSystemFont,sans-serif">创建入库单</text><path d="M451,-420 C495.5,-420 495.5,-420 540,-420" fill="none" stroke="#A287E1" stroke-width="2"/><rect x="540" y="-435" width="91" height="30" rx="6" fill="#fafafa" stroke="none"/><text x="585.5" y="-415" text-anchor="middle" font-size="13" fill="#333" font-family="-apple-system,BlinkMacSystemFont,sans-serif">修改入库单</text><path d="M451,-420 C495.5,-420 495.5,-380 540,-380" fill="none" stroke="#A287E1" stroke-width="2"/><rect x="540" y="-395" width="91" height="30" rx="6" fill="#fafafa" stroke="none"/><text x="585.5" y="-375" text-anchor="middle" font-size="13" fill="#333" font-family="-apple-system,BlinkMacSystemFont,sans-serif">删除入库单</text><path d="M260,-300 C310,-300 310,-340 360,-340" fill="none" stroke="#A287E1" stroke-width="2"/><rect x="360" y="-355" width="91" height="30" rx="6" fill="#fafafa" stroke="none"/><text x="405.5" y="-335" text-anchor="middle" font-size="13" fill="#333" font-family="-apple-system,BlinkMacSystemFont,sans-serif">提交入库单</text><path d="M260,-300 C310,-300 310,-300 360,-300" fill="none" stroke="#A287E1" stroke-width="2"/><rect x="360" y="-315" width="91" height="30" rx="6" fill="#fafafa" stroke="none"/><text x="405.5" y="-295" text-anchor="middle" font-size="13" fill="#333" font-family="-apple-system,BlinkMacSystemFont,sans-serif">取消入库单</text><path d="M260,-300 C310,-300 310,-260 360,-260" fill="none" stroke="#A287E1" stroke-width="2"/><rect x="360" y="-275" width="80" height="30" rx="6" fill="#fafafa" stroke="none"/><text x="400" y="-255" text-anchor="middle" font-size="13" fill="#333" font-family="-apple-system,BlinkMacSystemFont,sans-serif">打印箱唛</text><path d="M260,-300 C310,-300 310,-220 360,-220" fill="none" stroke="#A287E1" stroke-width="2"/><rect x="360" y="-235" width="104" height="30" rx="6" fill="#fafafa" stroke="none"/><text x="412" y="-215" text-anchor="middle" font-size="13" fill="#333" font-family="-apple-system,BlinkMacSystemFont,sans-serif">打印产品条码</text><path d="M260,-300 C310,-300 310,-180 360,-180" fill="none" stroke="#A287E1" stroke-width="2"/><rect x="360" y="-195" width="80" height="30" rx="6" fill="#fafafa" stroke="none"/><text x="400" y="-175" text-anchor="middle" font-size="13" fill="#333" font-family="-apple-system,BlinkMacSystemFont,sans-serif">复制</text><path d="M260,-300 C310,-300 310,-140 360,-140" fill="none" stroke="#A287E1" stroke-width="2"/><rect x="360" y="-155" width="80" height="30" rx="6" fill="#fafafa" stroke="none"/><text x="400" y="-135" text-anchor="middle" font-size="13" fill="#333" font-family="-apple-system,BlinkMacSystemFont,sans-serif">导出</text><path d="M96.48,0 C186.48000000000002,0 186.48000000000002,180 276.48,180" fill="none" stroke="#6F81DB" stroke-width="2"/><rect x="180" y="165" width="80" height="30" rx="6" fill="#fafafa" stroke="none"/><text x="220" y="185" text-anchor="middle" font-size="13" fill="#333" font-family="-apple-system,BlinkMacSystemFont,sans-serif">信息结构</text><path d="M260,180 C310,180 310,0 360,0" fill="none" stroke="#6F81DB" stroke-width="2"/><rect x="360" y="-15" width="80" height="30" rx="6" fill="#fafafa" stroke="none"/><text x="400" y="5" text-anchor="middle" font-size="13" fill="#333" font-family="-apple-system,BlinkMacSystemFont,sans-serif">基础信息</text><path d="M440,0 C490,0 490,-100 540,-100" fill="none" stroke="#6F81DB" stroke-width="2"/><rect x="540" y="-115" width="80" height="30" rx="6" fill="#fafafa" stroke="none"/><text x="580" y="-95" text-anchor="middle" font-size="13" fill="#333" font-family="-apple-system,BlinkMacSystemFont,sans-serif">仓库</text><path d="M440,0 C490,0 490,-60 540,-60" fill="none" stroke="#6F81DB" stroke-width="2"/><rect x="540" y="-75" width="80" height="30" rx="6" fill="#fafafa" stroke="none"/><text x="580" y="-55" text-anchor="middle" font-size="13" fill="#333" font-family="-apple-system,BlinkMacSystemFont,sans-serif">到仓方式</text><path d="M440,0 C490,0 490,-20 540,-20" fill="none" stroke="#6F81DB" stroke-width="2"/><rect x="540" y="-35" width="80" height="30" rx="6" fill="#fafafa" stroke="none"/><text x="580" y="-15" text-anchor="middle" font-size="13" fill="#333" font-family="-apple-system,BlinkMacSystemFont,sans-serif">参考单号</text><path d="M440,0 C490,0 490,20 540,20" fill="none" stroke="#6F81DB" stroke-width="2"/><rect x="540" y="5" width="104" height="30" rx="6" fill="#fafafa" stroke="none"/><text x="592" y="25" text-anchor="middle" font-size="13" fill="#333" font-family="-apple-system,BlinkMacSystemFont,sans-serif">预计到达日期</text><path d="M440,0 C490,0 490,60 540,60" fill="none" stroke="#6F81DB" stroke-width="2"/><rect x="540" y="45" width="110.75999999999999" height="30" rx="6" fill="#fafafa" stroke="none"/><text x="595.38" y="65" text-anchor="middle" font-size="13" fill="#333" font-family="-apple-system,BlinkMacSystemFont,sans-serif">跟踪号/货柜号</text><path d="M440,0 C490,0 490,100 540,100" fill="none" stroke="#6F81DB" stroke-width="2"/><rect x="540" y="85" width="80" height="30" rx="6" fill="#fafafa" stroke="none"/><text x="580" y="105" text-anchor="middle" font-size="13" fill="#333" font-family="-apple-system,BlinkMacSystemFont,sans-serif">备注</text><path d="M260,180 C310,180 310,240 360,240" fill="none" stroke="#6F81DB" stroke-width="2"/><rect x="360" y="225" width="80" height="30" rx="6" fill="#fafafa" stroke="none"/><text x="400" y="245" text-anchor="middle" font-size="13" fill="#333" font-family="-apple-system,BlinkMacSystemFont,sans-serif">入库明细</text><path d="M440,240 C490,240 490,140 540,140" fill="none" stroke="#6F81DB" stroke-width="2"/><rect x="540" y="125" width="80" height="30" rx="6" fill="#fafafa" stroke="none"/><text x="580" y="145" text-anchor="middle" font-size="13" fill="#333" font-family="-apple-system,BlinkMacSystemFont,sans-serif">箱号</text><path d="M440,240 C490,240 490,180 540,180" fill="none" stroke="#6F81DB" stroke-width="2"/><rect x="540" y="165" width="80" height="30" rx="6" fill="#fafafa" stroke="none"/><text x="580" y="185" text-anchor="middle" font-size="13" fill="#333" font-family="-apple-system,BlinkMacSystemFont,sans-serif">箱尺寸</text><path d="M440,240 C490,240 490,220 540,220" fill="none" stroke="#6F81DB" stroke-width="2"/><rect x="540" y="205" width="80" height="30" rx="6" fill="#fafafa" stroke="none"/><text x="580" y="225" text-anchor="middle" font-size="13" fill="#333" font-family="-apple-system,BlinkMacSystemFont,sans-serif">箱重量</text><path d="M440,240 C490,240 490,300 540,300" fill="none" stroke="#6F81DB" stroke-width="2"/><rect x="540" y="285" width="80" height="30" rx="6" fill="#fafafa" stroke="none"/><text x="580" y="305" text-anchor="middle" font-size="13" fill="#333" font-family="-apple-system,BlinkMacSystemFont,sans-serif">装箱明细</text><path d="M620,300 C670,300 670,260 720,260" fill="none" stroke="#6F81DB" stroke-width="2"/><rect x="720" y="245" width="80" height="30" rx="6" fill="#fafafa" stroke="none"/><text x="760" y="265" text-anchor="middle" font-size="13" fill="#333" font-family="-apple-system,BlinkMacSystemFont,sans-serif">SKU</text><path d="M620,300 C670,300 670,300 720,300" fill="none" stroke="#6F81DB" stroke-width="2"/><rect x="720" y="285" width="80" height="30" rx="6" fill="#fafafa" stroke="none"/><text x="760" y="305" text-anchor="middle" font-size="13" fill="#333" font-family="-apple-system,BlinkMacSystemFont,sans-serif">产品名称</text><path d="M620,300 C670,300 670,340 720,340" fill="none" stroke="#6F81DB" stroke-width="2"/><rect x="720" y="325" width="80" height="30" rx="6" fill="#fafafa" stroke="none"/><text x="760" y="345" text-anchor="middle" font-size="13" fill="#333" font-family="-apple-system,BlinkMacSystemFont,sans-serif">数量</text><path d="M260,180 C310,180 310,420 360,420" fill="none" stroke="#6F81DB" stroke-width="2"/><rect x="360" y="405" width="80" height="30" rx="6" fill="#fafafa" stroke="none"/><text x="400" y="425" text-anchor="middle" font-size="13" fill="#333" font-family="-apple-system,BlinkMacSystemFont,sans-serif">附件</text><path d="M440,420 C490,420 490,380 540,380" fill="none" stroke="#6F81DB" stroke-width="2"/><rect x="540" y="365" width="80" height="30" rx="6" fill="#fafafa" stroke="none"/><text x="580" y="385" text-anchor="middle" font-size="13" fill="#333" font-family="-apple-system,BlinkMacSystemFont,sans-serif">文件名称</text><path d="M440,420 C490,420 490,420 540,420" fill="none" stroke="#6F81DB" stroke-width="2"/><rect x="540" y="405" width="80" height="30" rx="6" fill="#fafafa" stroke="none"/><text x="580" y="425" text-anchor="middle" font-size="13" fill="#333" font-family="-apple-system,BlinkMacSystemFont,sans-serif">文件大小</text><path d="M440,420 C490,420 490,460 540,460" fill="none" stroke="#6F81DB" stroke-width="2"/><rect x="540" y="445" width="80" height="30" rx="6" fill="#fafafa" stroke="none"/><text x="580" y="465" text-anchor="middle" font-size="13" fill="#333" font-family="-apple-system,BlinkMacSystemFont,sans-serif">上传时间</text>
</svg>