<svg xmlns="http://www.w3.org/2000/svg" xmlns:xlink="http://www.w3.org/1999/xlink"
  viewBox="-172.48000000000002 -619 1063.3200000000002 1312" width="1063.3200000000002" height="1312"
  style="background:#fff; font-family:-apple-system,BlinkMacSystemFont,'Segoe UI',Roboto,sans-serif;">
<defs></defs>
<rect x="-172.48000000000002" y="-619" width="1063.3200000000002" height="1312" fill="#fff"/>
<rect x="-88.48" y="-18" width="176.96" height="36" rx="8" fill="#EFF0F0" stroke="none"/><text x="0" y="6" text-anchor="middle" font-size="16" font-weight="bold" fill="#333" font-family="-apple-system,BlinkMacSystemFont,sans-serif">WMS涉及的一些单据</text><path d="M88.48,0 C178.48000000000002,0 178.48000000000002,-460 268.48,-460" fill="none" stroke="#A287E1" stroke-width="2"/><rect x="180" y="-475" width="80" height="30" rx="6" fill="#fafafa" stroke="none"/><text x="220" y="-455" text-anchor="middle" font-size="13" fill="#333" font-family="-apple-system,BlinkMacSystemFont,sans-serif">入库</text><path d="M260,-460 C310,-460 310,-520 360,-520" fill="none" stroke="#A287E1" stroke-width="2"/><rect x="360" y="-535" width="104" height="30" rx="6" fill="#fafafa" stroke="none"/><text x="412" y="-515" text-anchor="middle" font-size="13" fill="#333" font-family="-apple-system,BlinkMacSystemFont,sans-serif">打印收货清单</text><path d="M260,-460 C310,-460 310,-480 360,-480" fill="none" stroke="#A287E1" stroke-width="2"/><rect x="360" y="-495" width="80" height="30" rx="6" fill="#fafafa" stroke="none"/><text x="400" y="-475" text-anchor="middle" font-size="13" fill="#333" font-family="-apple-system,BlinkMacSystemFont,sans-serif">打印箱唛</text><path d="M260,-460 C310,-460 310,-440 360,-440" fill="none" stroke="#A287E1" stroke-width="2"/><rect x="360" y="-455" width="104" height="30" rx="6" fill="#fafafa" stroke="none"/><text x="412" y="-435" text-anchor="middle" font-size="13" fill="#333" font-family="-apple-system,BlinkMacSystemFont,sans-serif">打印产品条码</text><path d="M260,-460 C310,-460 310,-400 360,-400" fill="none" stroke="#A287E1" stroke-width="2"/><rect x="360" y="-415" width="91" height="30" rx="6" fill="#fafafa" stroke="none"/><text x="405.5" y="-395" text-anchor="middle" font-size="13" fill="#333" font-family="-apple-system,BlinkMacSystemFont,sans-serif">打印上架单</text><path d="M88.48,0 C178.48000000000002,0 178.48000000000002,-280 268.48,-280" fill="none" stroke="#6F81DB" stroke-width="2"/><rect x="180" y="-295" width="80" height="30" rx="6" fill="#fafafa" stroke="none"/><text x="220" y="-275" text-anchor="middle" font-size="13" fill="#333" font-family="-apple-system,BlinkMacSystemFont,sans-serif">出库</text><path d="M260,-280 C310,-280 310,-360 360,-360" fill="none" stroke="#6F81DB" stroke-width="2"/><rect x="360" y="-375" width="117" height="30" rx="6" fill="#fafafa" stroke="none"/><text x="418.5" y="-355" text-anchor="middle" font-size="13" fill="#333" font-family="-apple-system,BlinkMacSystemFont,sans-serif">打印汇总拣货单</text><path d="M260,-280 C310,-280 310,-320 360,-320" fill="none" stroke="#6F81DB" stroke-width="2"/><rect x="360" y="-335" width="117" height="30" rx="6" fill="#fafafa" stroke="none"/><text x="418.5" y="-315" text-anchor="middle" font-size="13" fill="#333" font-family="-apple-system,BlinkMacSystemFont,sans-serif">打印分拣拣货单</text><path d="M260,-280 C310,-280 310,-280 360,-280" fill="none" stroke="#6F81DB" stroke-width="2"/><rect x="360" y="-295" width="104" height="30" rx="6" fill="#fafafa" stroke="none"/><text x="412" y="-275" text-anchor="middle" font-size="13" fill="#333" font-family="-apple-system,BlinkMacSystemFont,sans-serif">打印发货清单</text><path d="M464,-280 C502,-280 502,-280 540,-280" fill="none" stroke="#6F81DB" stroke-width="2"/><rect x="540" y="-295" width="104.91" height="30" rx="6" fill="#fafafa" stroke="none"/><text x="592.455" y="-275" text-anchor="middle" font-size="13" fill="#333" font-family="-apple-system,BlinkMacSystemFont,sans-serif">Packing List</text><path d="M260,-280 C310,-280 310,-240 360,-240" fill="none" stroke="#6F81DB" stroke-width="2"/><rect x="360" y="-255" width="104" height="30" rx="6" fill="#fafafa" stroke="none"/><text x="412" y="-235" text-anchor="middle" font-size="13" fill="#333" font-family="-apple-system,BlinkMacSystemFont,sans-serif">打印物流面单</text><path d="M260,-280 C310,-280 310,-200 360,-200" fill="none" stroke="#6F81DB" stroke-width="2"/><rect x="360" y="-215" width="104.91" height="30" rx="6" fill="transparent" stroke="#BFBFBF"/><text x="412.455" y="-195" text-anchor="middle" font-size="13" fill="#333" font-family="-apple-system,BlinkMacSystemFont,sans-serif">Picking List</text><path d="M88.48,0 C178.48000000000002,0 178.48000000000002,-60 268.48,-60" fill="none" stroke="#6EC4C4" stroke-width="2"/><rect x="180" y="-75" width="80" height="30" rx="6" fill="#fafafa" stroke="none"/><text x="220" y="-55" text-anchor="middle" font-size="13" fill="#333" font-family="-apple-system,BlinkMacSystemFont,sans-serif">库内</text><path d="M260,-60 C310,-60 310,-160 360,-160" fill="none" stroke="#6EC4C4" stroke-width="2"/><rect x="360" y="-175" width="104" height="30" rx="6" fill="#fafafa" stroke="none"/><text x="412" y="-155" text-anchor="middle" font-size="13" fill="#333" font-family="-apple-system,BlinkMacSystemFont,sans-serif">打印产品条码</text><path d="M260,-60 C310,-60 310,-120 360,-120" fill="none" stroke="#6EC4C4" stroke-width="2"/><rect x="360" y="-135" width="104" height="30" rx="6" fill="#fafafa" stroke="none"/><text x="412" y="-115" text-anchor="middle" font-size="13" fill="#333" font-family="-apple-system,BlinkMacSystemFont,sans-serif">打印库区编码</text><path d="M260,-60 C310,-60 310,-80 360,-80" fill="none" stroke="#6EC4C4" stroke-width="2"/><rect x="360" y="-95" width="104" height="30" rx="6" fill="#fafafa" stroke="none"/><text x="412" y="-75" text-anchor="middle" font-size="13" fill="#333" font-family="-apple-system,BlinkMacSystemFont,sans-serif">打印库位编码</text><path d="M260,-60 C310,-60 310,-40 360,-40" fill="none" stroke="#6EC4C4" stroke-width="2"/><rect x="360" y="-55" width="104" height="30" rx="6" fill="#fafafa" stroke="none"/><text x="412" y="-35" text-anchor="middle" font-size="13" fill="#333" font-family="-apple-system,BlinkMacSystemFont,sans-serif">打印容器条码</text><path d="M260,-60 C310,-60 310,0 360,0" fill="none" stroke="#6EC4C4" stroke-width="2"/><rect x="360" y="-15" width="104" height="30" rx="6" fill="#fafafa" stroke="none"/><text x="412" y="5" text-anchor="middle" font-size="13" fill="#333" font-family="-apple-system,BlinkMacSystemFont,sans-serif">打印包材条码</text><path d="M260,-60 C310,-60 310,40 360,40" fill="none" stroke="#6EC4C4" stroke-width="2"/><rect x="360" y="25" width="117" height="30" rx="6" fill="#fafafa" stroke="none"/><text x="418.5" y="45" text-anchor="middle" font-size="13" fill="#333" font-family="-apple-system,BlinkMacSystemFont,sans-serif">打印播种墙条码</text><path d="M88.48,0 C178.48000000000002,0 178.48000000000002,300 268.48,300" fill="none" stroke="#DFB85D" stroke-width="2"/><rect x="180" y="285" width="156" height="30" rx="6" fill="#fafafa" stroke="none"/><text x="258" y="305" text-anchor="middle" font-size="13" fill="#333" font-family="-apple-system,BlinkMacSystemFont,sans-serif">单据对应的尺寸和规格</text><path d="M336,300 C348,300 348,120 360,120" fill="none" stroke="#DFB85D" stroke-width="2"/><rect x="360" y="105" width="136.76" height="30" rx="6" fill="#fafafa" stroke="none"/><text x="428.38" y="125" text-anchor="middle" font-size="13" fill="#333" font-family="-apple-system,BlinkMacSystemFont,sans-serif">文件类/非热敏纸类</text><path d="M496.76,120 C518.38,120 518.38,80 540,80" fill="none" stroke="#DFB85D" stroke-width="2"/><rect x="540" y="65" width="80" height="30" rx="6" fill="#fafafa" stroke="none"/><text x="580" y="85" text-anchor="middle" font-size="13" fill="#333" font-family="-apple-system,BlinkMacSystemFont,sans-serif">A4</text><path d="M496.76,120 C518.38,120 518.38,120 540,120" fill="none" stroke="#DFB85D" stroke-width="2"/><rect x="540" y="105" width="80" height="30" rx="6" fill="#fafafa" stroke="none"/><text x="580" y="125" text-anchor="middle" font-size="13" fill="#333" font-family="-apple-system,BlinkMacSystemFont,sans-serif">A5</text><path d="M496.76,120 C518.38,120 518.38,160 540,160" fill="none" stroke="#DFB85D" stroke-width="2"/><rect x="540" y="145" width="84.63" height="30" rx="6" fill="#fafafa" stroke="none"/><text x="582.315" y="165" text-anchor="middle" font-size="13" fill="#333" font-family="-apple-system,BlinkMacSystemFont,sans-serif">US Letter</text><path d="M336,300 C348,300 348,360 360,360" fill="none" stroke="#DFB85D" stroke-width="2"/><rect x="360" y="345" width="80" height="30" rx="6" fill="#fafafa" stroke="none"/><text x="400" y="365" text-anchor="middle" font-size="13" fill="#333" font-family="-apple-system,BlinkMacSystemFont,sans-serif">热敏纸类</text><path d="M440,360 C490,360 490,240 540,240" fill="none" stroke="#DFB85D" stroke-width="2"/><rect x="540" y="225" width="80" height="30" rx="6" fill="#fafafa" stroke="none"/><text x="580" y="245" text-anchor="middle" font-size="13" fill="#333" font-family="-apple-system,BlinkMacSystemFont,sans-serif">物流面单</text><path d="M620,240 C670,240 670,200 720,200" fill="none" stroke="#DFB85D" stroke-width="2"/><rect x="720" y="185" width="86.83999999999999" height="30" rx="6" fill="#fafafa" stroke="none"/><text x="763.42" y="205" text-anchor="middle" font-size="13" fill="#333" font-family="-apple-system,BlinkMacSystemFont,sans-serif">100*100mm</text><path d="M620,240 C670,240 670,240 720,240" fill="none" stroke="#DFB85D" stroke-width="2"/><rect x="720" y="225" width="86.83999999999999" height="30" rx="6" fill="#fafafa" stroke="none"/><text x="763.42" y="245" text-anchor="middle" font-size="13" fill="#333" font-family="-apple-system,BlinkMacSystemFont,sans-serif">100*150mm</text><path d="M620,240 C670,240 670,280 720,280" fill="none" stroke="#DFB85D" stroke-width="2"/><rect x="720" y="265" width="86.83999999999999" height="30" rx="6" fill="#fafafa" stroke="none"/><text x="763.42" y="285" text-anchor="middle" font-size="13" fill="#333" font-family="-apple-system,BlinkMacSystemFont,sans-serif">100*200mm</text><path d="M440,360 C490,360 490,340 540,340" fill="none" stroke="#DFB85D" stroke-width="2"/><rect x="540" y="325" width="91" height="30" rx="6" fill="#fafafa" stroke="none"/><text x="585.5" y="345" text-anchor="middle" font-size="13" fill="#333" font-family="-apple-system,BlinkMacSystemFont,sans-serif">小号标识类</text><path d="M631,340 C675.5,340 675.5,320 720,320" fill="none" stroke="#DFB85D" stroke-width="2"/><rect x="720" y="305" width="80" height="30" rx="6" fill="#fafafa" stroke="none"/><text x="760" y="325" text-anchor="middle" font-size="13" fill="#333" font-family="-apple-system,BlinkMacSystemFont,sans-serif">50*20mm</text><path d="M631,340 C675.5,340 675.5,360 720,360" fill="none" stroke="#DFB85D" stroke-width="2"/><rect x="720" y="345" width="80" height="30" rx="6" fill="#fafafa" stroke="none"/><text x="760" y="365" text-anchor="middle" font-size="13" fill="#333" font-family="-apple-system,BlinkMacSystemFont,sans-serif">30*20mm</text><path d="M440,360 C490,360 490,440 540,440" fill="none" stroke="#DFB85D" stroke-width="2"/><rect x="540" y="425" width="91" height="30" rx="6" fill="#fafafa" stroke="none"/><text x="585.5" y="445" text-anchor="middle" font-size="13" fill="#333" font-family="-apple-system,BlinkMacSystemFont,sans-serif">中号标识类</text><path d="M631,440 C675.5,440 675.5,400 720,400" fill="none" stroke="#DFB85D" stroke-width="2"/><rect x="720" y="385" width="80" height="30" rx="6" fill="#fafafa" stroke="none"/><text x="760" y="405" text-anchor="middle" font-size="13" fill="#333" font-family="-apple-system,BlinkMacSystemFont,sans-serif">70*30mm</text><path d="M631,440 C675.5,440 675.5,440 720,440" fill="none" stroke="#DFB85D" stroke-width="2"/><rect x="720" y="425" width="80.07999999999998" height="30" rx="6" fill="#fafafa" stroke="none"/><text x="760.04" y="445" text-anchor="middle" font-size="13" fill="#333" font-family="-apple-system,BlinkMacSystemFont,sans-serif">100*30mm</text><path d="M631,440 C675.5,440 675.5,480 720,480" fill="none" stroke="#DFB85D" stroke-width="2"/><rect x="720" y="465" width="80" height="30" rx="6" fill="#fafafa" stroke="none"/><text x="760" y="485" text-anchor="middle" font-size="13" fill="#333" font-family="-apple-system,BlinkMacSystemFont,sans-serif">60*40mm</text><path d="M440,360 C490,360 490,520 540,520" fill="none" stroke="#DFB85D" stroke-width="2"/><rect x="540" y="505" width="80" height="30" rx="6" fill="#fafafa" stroke="none"/><text x="580" y="525" text-anchor="middle" font-size="13" fill="#333" font-family="-apple-system,BlinkMacSystemFont,sans-serif">箱唛类</text><path d="M620,520 C670,520 670,520 720,520" fill="none" stroke="#DFB85D" stroke-width="2"/><rect x="720" y="505" width="86.83999999999999" height="30" rx="6" fill="#EFF0F0" stroke="none"/><text x="763.42" y="525" text-anchor="middle" font-size="13" fill="#333" font-family="-apple-system,BlinkMacSystemFont,sans-serif">100*100mm</text>
</svg>