<svg xmlns="http://www.w3.org/2000/svg" xmlns:xlink="http://www.w3.org/1999/xlink"
  viewBox="-180.48000000000002 -979 1478.48 2110" width="1478.48" height="2110"
  style="background:#fff; font-family:-apple-system,BlinkMacSystemFont,'Segoe UI',Roboto,sans-serif;">
<defs></defs>
<rect x="-180.48000000000002" y="-979" width="1478.48" height="2110" fill="#fff"/>
<rect x="-96.48" y="-18" width="192.96" height="36" rx="8" fill="#EFF0F0" stroke="none"/><text x="0" y="6" text-anchor="middle" font-size="16" font-weight="bold" fill="#333" font-family="-apple-system,BlinkMacSystemFont,sans-serif">OMS出库单产品结构图</text><path d="M96.48,0 C186.48000000000002,0 186.48000000000002,-740 276.48,-740" fill="none" stroke="#A287E1" stroke-width="2"/><rect x="180" y="-755" width="80" height="30" rx="6" fill="#fafafa" stroke="none"/><text x="220" y="-735" text-anchor="middle" font-size="13" fill="#333" font-family="-apple-system,BlinkMacSystemFont,sans-serif">功能结构</text><path d="M260,-740 C310,-740 310,-820 360,-820" fill="none" stroke="#A287E1" stroke-width="2"/><rect x="360" y="-835" width="91" height="30" rx="6" fill="#fafafa" stroke="none"/><text x="405.5" y="-815" text-anchor="middle" font-size="13" fill="#333" font-family="-apple-system,BlinkMacSystemFont,sans-serif">基础的管理</text><path d="M451,-820 C495.5,-820 495.5,-880 540,-880" fill="none" stroke="#A287E1" stroke-width="2"/><rect x="540" y="-895" width="91" height="30" rx="6" fill="#fafafa" stroke="none"/><text x="585.5" y="-875" text-anchor="middle" font-size="13" fill="#333" font-family="-apple-system,BlinkMacSystemFont,sans-serif">创建出库单</text><path d="M451,-820 C495.5,-820 495.5,-840 540,-840" fill="none" stroke="#A287E1" stroke-width="2"/><rect x="540" y="-855" width="91" height="30" rx="6" fill="#fafafa" stroke="none"/><text x="585.5" y="-835" text-anchor="middle" font-size="13" fill="#333" font-family="-apple-system,BlinkMacSystemFont,sans-serif">修改出库单</text><path d="M451,-820 C495.5,-820 495.5,-800 540,-800" fill="none" stroke="#A287E1" stroke-width="2"/><rect x="540" y="-815" width="91" height="30" rx="6" fill="#fafafa" stroke="none"/><text x="585.5" y="-795" text-anchor="middle" font-size="13" fill="#333" font-family="-apple-system,BlinkMacSystemFont,sans-serif">删除出库单</text><path d="M451,-820 C495.5,-820 495.5,-760 540,-760" fill="none" stroke="#A287E1" stroke-width="2"/><rect x="540" y="-775" width="91" height="30" rx="6" fill="#fafafa" stroke="none"/><text x="585.5" y="-755" text-anchor="middle" font-size="13" fill="#333" font-family="-apple-system,BlinkMacSystemFont,sans-serif">取消出库单</text><path d="M260,-740 C310,-740 310,-720 360,-720" fill="none" stroke="#A287E1" stroke-width="2"/><rect x="360" y="-735" width="91" height="30" rx="6" fill="#fafafa" stroke="none"/><text x="405.5" y="-715" text-anchor="middle" font-size="13" fill="#333" font-family="-apple-system,BlinkMacSystemFont,sans-serif">提交出库单</text><path d="M260,-740 C310,-740 310,-680 360,-680" fill="none" stroke="#A287E1" stroke-width="2"/><rect x="360" y="-695" width="80" height="30" rx="6" fill="#fafafa" stroke="none"/><text x="400" y="-675" text-anchor="middle" font-size="13" fill="#333" font-family="-apple-system,BlinkMacSystemFont,sans-serif">获取面单</text><path d="M260,-740 C310,-740 310,-640 360,-640" fill="none" stroke="#A287E1" stroke-width="2"/><rect x="360" y="-655" width="80" height="30" rx="6" fill="#fafafa" stroke="none"/><text x="400" y="-635" text-anchor="middle" font-size="13" fill="#333" font-family="-apple-system,BlinkMacSystemFont,sans-serif">复制</text><path d="M260,-740 C310,-740 310,-600 360,-600" fill="none" stroke="#A287E1" stroke-width="2"/><rect x="360" y="-615" width="91" height="30" rx="6" fill="#fafafa" stroke="none"/><text x="405.5" y="-595" text-anchor="middle" font-size="13" fill="#333" font-family="-apple-system,BlinkMacSystemFont,sans-serif">导入、导出</text><path d="M96.48,0 C186.48000000000002,0 186.48000000000002,160 276.48,160" fill="none" stroke="#6F81DB" stroke-width="2"/><rect x="180" y="145" width="80" height="30" rx="6" fill="#fafafa" stroke="none"/><text x="220" y="165" text-anchor="middle" font-size="13" fill="#333" font-family="-apple-system,BlinkMacSystemFont,sans-serif">信息结构</text><path d="M260,160 C310,160 310,-400 360,-400" fill="none" stroke="#6F81DB" stroke-width="2"/><rect x="360" y="-415" width="80" height="30" rx="6" fill="#fafafa" stroke="none"/><text x="400" y="-395" text-anchor="middle" font-size="13" fill="#333" font-family="-apple-system,BlinkMacSystemFont,sans-serif">基础信息</text><path d="M440,-400 C490,-400 490,-560 540,-560" fill="none" stroke="#6F81DB" stroke-width="2"/><rect x="540" y="-575" width="80" height="30" rx="6" fill="#fafafa" stroke="none"/><text x="580" y="-555" text-anchor="middle" font-size="13" fill="#333" font-family="-apple-system,BlinkMacSystemFont,sans-serif">仓库</text><path d="M440,-400 C490,-400 490,-520 540,-520" fill="none" stroke="#6F81DB" stroke-width="2"/><rect x="540" y="-535" width="80" height="30" rx="6" fill="#fafafa" stroke="none"/><text x="580" y="-515" text-anchor="middle" font-size="13" fill="#333" font-family="-apple-system,BlinkMacSystemFont,sans-serif">物流渠道</text><path d="M440,-400 C490,-400 490,-480 540,-480" fill="none" stroke="#6F81DB" stroke-width="2"/><rect x="540" y="-495" width="91" height="30" rx="6" fill="#fafafa" stroke="none"/><text x="585.5" y="-475" text-anchor="middle" font-size="13" fill="#333" font-family="-apple-system,BlinkMacSystemFont,sans-serif">物流跟踪号</text><path d="M440,-400 C490,-400 490,-440 540,-440" fill="none" stroke="#6F81DB" stroke-width="2"/><rect x="540" y="-455" width="80" height="30" rx="6" fill="#fafafa" stroke="none"/><text x="580" y="-435" text-anchor="middle" font-size="13" fill="#333" font-family="-apple-system,BlinkMacSystemFont,sans-serif">销售平台</text><path d="M440,-400 C490,-400 490,-400 540,-400" fill="none" stroke="#6F81DB" stroke-width="2"/><rect x="540" y="-415" width="80" height="30" rx="6" fill="#fafafa" stroke="none"/><text x="580" y="-395" text-anchor="middle" font-size="13" fill="#333" font-family="-apple-system,BlinkMacSystemFont,sans-serif">平台单号</text><path d="M440,-400 C490,-400 490,-360 540,-360" fill="none" stroke="#6F81DB" stroke-width="2"/><rect x="540" y="-375" width="80" height="30" rx="6" fill="#fafafa" stroke="none"/><text x="580" y="-355" text-anchor="middle" font-size="13" fill="#333" font-family="-apple-system,BlinkMacSystemFont,sans-serif">参考单号</text><path d="M440,-400 C490,-400 490,-320 540,-320" fill="none" stroke="#6F81DB" stroke-width="2"/><rect x="540" y="-335" width="80" height="30" rx="6" fill="#fafafa" stroke="none"/><text x="580" y="-315" text-anchor="middle" font-size="13" fill="#333" font-family="-apple-system,BlinkMacSystemFont,sans-serif">签名服务</text><path d="M440,-400 C490,-400 490,-280 540,-280" fill="none" stroke="#6F81DB" stroke-width="2"/><rect x="540" y="-295" width="80" height="30" rx="6" fill="#fafafa" stroke="none"/><text x="580" y="-275" text-anchor="middle" font-size="13" fill="#333" font-family="-apple-system,BlinkMacSystemFont,sans-serif">保险服务</text><path d="M440,-400 C490,-400 490,-240 540,-240" fill="none" stroke="#6F81DB" stroke-width="2"/><rect x="540" y="-255" width="80" height="30" rx="6" fill="#fafafa" stroke="none"/><text x="580" y="-235" text-anchor="middle" font-size="13" fill="#333" font-family="-apple-system,BlinkMacSystemFont,sans-serif">备注</text><path d="M260,160 C310,160 310,40 360,40" fill="none" stroke="#6F81DB" stroke-width="2"/><rect x="360" y="25" width="80" height="30" rx="6" fill="#fafafa" stroke="none"/><text x="400" y="45" text-anchor="middle" font-size="13" fill="#333" font-family="-apple-system,BlinkMacSystemFont,sans-serif">收件信息</text><path d="M440,40 C490,40 490,-200 540,-200" fill="none" stroke="#6F81DB" stroke-width="2"/><rect x="540" y="-215" width="80" height="30" rx="6" fill="#fafafa" stroke="none"/><text x="580" y="-195" text-anchor="middle" font-size="13" fill="#333" font-family="-apple-system,BlinkMacSystemFont,sans-serif">收件人</text><path d="M440,40 C490,40 490,-160 540,-160" fill="none" stroke="#6F81DB" stroke-width="2"/><rect x="540" y="-175" width="80" height="30" rx="6" fill="#fafafa" stroke="none"/><text x="580" y="-155" text-anchor="middle" font-size="13" fill="#333" font-family="-apple-system,BlinkMacSystemFont,sans-serif">电话</text><path d="M620,-160 C670,-160 670,-160 720,-160" fill="none" stroke="#6F81DB" stroke-width="2"/><rect x="720" y="-175" width="494" height="30" rx="6" fill="#fafafa" stroke="none"/><text x="967" y="-155" text-anchor="middle" font-size="13" fill="#333" font-family="-apple-system,BlinkMacSystemFont,sans-serif">电话格式要放宽一些，不要限制为只有数字，有一些带区号什么的会有字母和符号</text><path d="M440,40 C490,40 490,-120 540,-120" fill="none" stroke="#6F81DB" stroke-width="2"/><rect x="540" y="-135" width="80" height="30" rx="6" fill="#fafafa" stroke="none"/><text x="580" y="-115" text-anchor="middle" font-size="13" fill="#333" font-family="-apple-system,BlinkMacSystemFont,sans-serif">邮箱</text><path d="M440,40 C490,40 490,-80 540,-80" fill="none" stroke="#6F81DB" stroke-width="2"/><rect x="540" y="-95" width="91" height="30" rx="6" fill="#fafafa" stroke="none"/><text x="585.5" y="-75" text-anchor="middle" font-size="13" fill="#333" font-family="-apple-system,BlinkMacSystemFont,sans-serif">收件人税号</text><path d="M440,40 C490,40 490,-40 540,-40" fill="none" stroke="#6F81DB" stroke-width="2"/><rect x="540" y="-55" width="80" height="30" rx="6" fill="#fafafa" stroke="none"/><text x="580" y="-35" text-anchor="middle" font-size="13" fill="#333" font-family="-apple-system,BlinkMacSystemFont,sans-serif">公司名称</text><path d="M440,40 C490,40 490,0 540,0" fill="none" stroke="#6F81DB" stroke-width="2"/><rect x="540" y="-15" width="84.75999999999999" height="30" rx="6" fill="#fafafa" stroke="none"/><text x="582.38" y="5" text-anchor="middle" font-size="13" fill="#333" font-family="-apple-system,BlinkMacSystemFont,sans-serif">国家/地区</text><path d="M440,40 C490,40 490,40 540,40" fill="none" stroke="#6F81DB" stroke-width="2"/><rect x="540" y="25" width="80" height="30" rx="6" fill="#fafafa" stroke="none"/><text x="580" y="45" text-anchor="middle" font-size="13" fill="#333" font-family="-apple-system,BlinkMacSystemFont,sans-serif">省/州</text><path d="M440,40 C490,40 490,80 540,80" fill="none" stroke="#6F81DB" stroke-width="2"/><rect x="540" y="65" width="80" height="30" rx="6" fill="#fafafa" stroke="none"/><text x="580" y="85" text-anchor="middle" font-size="13" fill="#333" font-family="-apple-system,BlinkMacSystemFont,sans-serif">城市名称</text><path d="M440,40 C490,40 490,120 540,120" fill="none" stroke="#6F81DB" stroke-width="2"/><rect x="540" y="105" width="80" height="30" rx="6" fill="#fafafa" stroke="none"/><text x="580" y="125" text-anchor="middle" font-size="13" fill="#333" font-family="-apple-system,BlinkMacSystemFont,sans-serif">邮编</text><path d="M620,120 C670,120 670,120 720,120" fill="none" stroke="#6F81DB" stroke-width="2"/><rect x="720" y="105" width="195" height="30" rx="6" fill="#fafafa" stroke="none"/><text x="817.5" y="125" text-anchor="middle" font-size="13" fill="#333" font-family="-apple-system,BlinkMacSystemFont,sans-serif">邮编在尾程派送的时候很重要</text><path d="M440,40 C490,40 490,160 540,160" fill="none" stroke="#6F81DB" stroke-width="2"/><rect x="540" y="145" width="80" height="30" rx="6" fill="#fafafa" stroke="none"/><text x="580" y="165" text-anchor="middle" font-size="13" fill="#333" font-family="-apple-system,BlinkMacSystemFont,sans-serif">门牌号</text><path d="M620,160 C670,160 670,160 720,160" fill="none" stroke="#6F81DB" stroke-width="2"/><rect x="720" y="145" width="475.28" height="30" rx="6" fill="#fafafa" stroke="none"/><text x="957.64" y="165" text-anchor="middle" font-size="13" fill="#333" font-family="-apple-system,BlinkMacSystemFont,sans-serif">欧洲的某些物流商（例如说：DHL）在某些国家的派送的时候会要求填写门票号</text><path d="M440,40 C490,40 490,200 540,200" fill="none" stroke="#6F81DB" stroke-width="2"/><rect x="540" y="185" width="80" height="30" rx="6" fill="#fafafa" stroke="none"/><text x="580" y="205" text-anchor="middle" font-size="13" fill="#333" font-family="-apple-system,BlinkMacSystemFont,sans-serif">地址-1</text><path d="M440,40 C490,40 490,240 540,240" fill="none" stroke="#6F81DB" stroke-width="2"/><rect x="540" y="225" width="80" height="30" rx="6" fill="#fafafa" stroke="none"/><text x="580" y="245" text-anchor="middle" font-size="13" fill="#333" font-family="-apple-system,BlinkMacSystemFont,sans-serif">地址-2</text><path d="M440,40 C490,40 490,280 540,280" fill="none" stroke="#6F81DB" stroke-width="2"/><rect x="540" y="265" width="377.52" height="30" rx="6" fill="transparent" stroke="#BFBFBF"/><text x="728.76" y="285" text-anchor="middle" font-size="13" fill="#333" font-family="-apple-system,BlinkMacSystemFont,sans-serif">最好是通过爬虫把一些国家/地区和省/州联动做成下拉的模式</text><path d="M260,160 C310,160 310,400 360,400" fill="none" stroke="#6F81DB" stroke-width="2"/><rect x="360" y="385" width="80" height="30" rx="6" fill="#fafafa" stroke="none"/><text x="400" y="405" text-anchor="middle" font-size="13" fill="#333" font-family="-apple-system,BlinkMacSystemFont,sans-serif">出库明细</text><path d="M440,400 C490,400 490,320 540,320" fill="none" stroke="#6F81DB" stroke-width="2"/><rect x="540" y="305" width="80" height="30" rx="6" fill="#fafafa" stroke="none"/><text x="580" y="325" text-anchor="middle" font-size="13" fill="#333" font-family="-apple-system,BlinkMacSystemFont,sans-serif">SKU</text><path d="M440,400 C490,400 490,360 540,360" fill="none" stroke="#6F81DB" stroke-width="2"/><rect x="540" y="345" width="80" height="30" rx="6" fill="#fafafa" stroke="none"/><text x="580" y="365" text-anchor="middle" font-size="13" fill="#333" font-family="-apple-system,BlinkMacSystemFont,sans-serif">产品名称</text><path d="M440,400 C490,400 490,400 540,400" fill="none" stroke="#6F81DB" stroke-width="2"/><rect x="540" y="385" width="80" height="30" rx="6" fill="#fafafa" stroke="none"/><text x="580" y="405" text-anchor="middle" font-size="13" fill="#333" font-family="-apple-system,BlinkMacSystemFont,sans-serif">可用库存</text><path d="M440,400 C490,400 490,440 540,440" fill="none" stroke="#6F81DB" stroke-width="2"/><rect x="540" y="425" width="80" height="30" rx="6" fill="#fafafa" stroke="none"/><text x="580" y="445" text-anchor="middle" font-size="13" fill="#333" font-family="-apple-system,BlinkMacSystemFont,sans-serif">申报价格</text><path d="M440,400 C490,400 490,480 540,480" fill="none" stroke="#6F81DB" stroke-width="2"/><rect x="540" y="465" width="80" height="30" rx="6" fill="#fafafa" stroke="none"/><text x="580" y="485" text-anchor="middle" font-size="13" fill="#333" font-family="-apple-system,BlinkMacSystemFont,sans-serif">出库数量</text><path d="M260,160 C310,160 310,640 360,640" fill="none" stroke="#6F81DB" stroke-width="2"/><rect x="360" y="625" width="80" height="30" rx="6" fill="#fafafa" stroke="none"/><text x="400" y="645" text-anchor="middle" font-size="13" fill="#333" font-family="-apple-system,BlinkMacSystemFont,sans-serif">包裹信息</text><path d="M440,640 C490,640 490,520 540,520" fill="none" stroke="#6F81DB" stroke-width="2"/><rect x="540" y="505" width="80" height="30" rx="6" fill="#fafafa" stroke="none"/><text x="580" y="525" text-anchor="middle" font-size="13" fill="#333" font-family="-apple-system,BlinkMacSystemFont,sans-serif">包裹号</text><path d="M440,640 C490,640 490,560 540,560" fill="none" stroke="#6F81DB" stroke-width="2"/><rect x="540" y="545" width="110.75999999999999" height="30" rx="6" fill="#fafafa" stroke="none"/><text x="595.38" y="565" text-anchor="middle" font-size="13" fill="#333" font-family="-apple-system,BlinkMacSystemFont,sans-serif">运单号/跟踪号</text><path d="M440,640 C490,640 490,600 540,600" fill="none" stroke="#6F81DB" stroke-width="2"/><rect x="540" y="585" width="80" height="30" rx="6" fill="#fafafa" stroke="none"/><text x="580" y="605" text-anchor="middle" font-size="13" fill="#333" font-family="-apple-system,BlinkMacSystemFont,sans-serif">包裹重量</text><path d="M440,640 C490,640 490,640 540,640" fill="none" stroke="#6F81DB" stroke-width="2"/><rect x="540" y="625" width="80" height="30" rx="6" fill="#fafafa" stroke="none"/><text x="580" y="645" text-anchor="middle" font-size="13" fill="#333" font-family="-apple-system,BlinkMacSystemFont,sans-serif">包裹尺寸</text><path d="M440,640 C490,640 490,680 540,680" fill="none" stroke="#6F81DB" stroke-width="2"/><rect x="540" y="665" width="80" height="30" rx="6" fill="#fafafa" stroke="none"/><text x="580" y="685" text-anchor="middle" font-size="13" fill="#333" font-family="-apple-system,BlinkMacSystemFont,sans-serif">包材信息</text><path d="M440,640 C490,640 490,740 540,740" fill="none" stroke="#6F81DB" stroke-width="2"/><rect x="540" y="725" width="91" height="30" rx="6" fill="#fafafa" stroke="none"/><text x="585.5" y="745" text-anchor="middle" font-size="13" fill="#333" font-family="-apple-system,BlinkMacSystemFont,sans-serif">包裹内明细</text><path d="M631,740 C675.5,740 675.5,720 720,720" fill="none" stroke="#6F81DB" stroke-width="2"/><rect x="720" y="705" width="80" height="30" rx="6" fill="#fafafa" stroke="none"/><text x="760" y="725" text-anchor="middle" font-size="13" fill="#333" font-family="-apple-system,BlinkMacSystemFont,sans-serif">SKU</text><path d="M631,740 C675.5,740 675.5,760 720,760" fill="none" stroke="#6F81DB" stroke-width="2"/><rect x="720" y="745" width="80" height="30" rx="6" fill="#fafafa" stroke="none"/><text x="760" y="765" text-anchor="middle" font-size="13" fill="#333" font-family="-apple-system,BlinkMacSystemFont,sans-serif">数量</text><path d="M260,160 C310,160 310,840 360,840" fill="none" stroke="#6F81DB" stroke-width="2"/><rect x="360" y="825" width="80" height="30" rx="6" fill="#fafafa" stroke="none"/><text x="400" y="845" text-anchor="middle" font-size="13" fill="#333" font-family="-apple-system,BlinkMacSystemFont,sans-serif">附件</text><path d="M440,840 C490,840 490,800 540,800" fill="none" stroke="#6F81DB" stroke-width="2"/><rect x="540" y="785" width="80" height="30" rx="6" fill="#fafafa" stroke="none"/><text x="580" y="805" text-anchor="middle" font-size="13" fill="#333" font-family="-apple-system,BlinkMacSystemFont,sans-serif">文件名称</text><path d="M440,840 C490,840 490,840 540,840" fill="none" stroke="#6F81DB" stroke-width="2"/><rect x="540" y="825" width="80" height="30" rx="6" fill="#fafafa" stroke="none"/><text x="580" y="845" text-anchor="middle" font-size="13" fill="#333" font-family="-apple-system,BlinkMacSystemFont,sans-serif">文件大小</text><path d="M440,840 C490,840 490,880 540,880" fill="none" stroke="#6F81DB" stroke-width="2"/><rect x="540" y="865" width="80" height="30" rx="6" fill="#fafafa" stroke="none"/><text x="580" y="885" text-anchor="middle" font-size="13" fill="#333" font-family="-apple-system,BlinkMacSystemFont,sans-serif">上传时间</text>
</svg>