<svg xmlns="http://www.w3.org/2000/svg" xmlns:xlink="http://www.w3.org/1999/xlink"
  viewBox="-232.32 -1189.125 2391.32 2176" width="2391.32" height="2176"
  style="background:#fff; font-family:-apple-system,BlinkMacSystemFont,'Segoe UI',Roboto,sans-serif;">
<defs></defs>
<rect x="-232.32" y="-1189.125" width="2391.32" height="2176" fill="#fff"/>
<rect x="-148.32" y="-18" width="296.64" height="36" rx="8" fill="#EFF0F0" stroke="none"/><text x="0" y="6" text-anchor="middle" font-size="16" font-weight="bold" fill="#333" font-family="-apple-system,BlinkMacSystemFont,sans-serif">“采购退货和销售退货”的产品结构图</text><path d="M148.32,0 C238.32,0 238.32,-420 328.32,-420" fill="none" stroke="#6F81DB" stroke-width="2"/><rect x="180" y="-435" width="80" height="30" rx="6" fill="#fafafa" stroke="none"/><text x="220" y="-415" text-anchor="middle" font-size="13" fill="#333" font-family="-apple-system,BlinkMacSystemFont,sans-serif">采购退货</text><path d="M260,-420 C310,-420 310,-780 360,-780" fill="none" stroke="#6F81DB" stroke-width="2"/><rect x="360" y="-795" width="91" height="30" rx="6" fill="#fafafa" stroke="none"/><text x="405.5" y="-775" text-anchor="middle" font-size="13" fill="#333" font-family="-apple-system,BlinkMacSystemFont,sans-serif">需求和背景</text><path d="M451,-780 C495.5,-780 495.5,-860 540,-860" fill="none" stroke="#6F81DB" stroke-width="2"/><rect x="540" y="-875" width="832.52" height="30" rx="6" fill="#fafafa" stroke="none"/><text x="956.26" y="-855" text-anchor="middle" font-size="13" fill="#333" font-family="-apple-system,BlinkMacSystemFont,sans-serif">由于向供应商采购的货物可能会有一些商品有瑕疵，或者是不满足售卖的要求，所以需要将这些商品退还给供应商，这种操作叫做“采购退货”</text><path d="M451,-780 C495.5,-780 495.5,-760 540,-760" fill="none" stroke="#6F81DB" stroke-width="2"/><rect x="540" y="-775" width="806" height="30" rx="6" fill="#fafafa" stroke="none"/><text x="943" y="-755" text-anchor="middle" font-size="13" fill="#333" font-family="-apple-system,BlinkMacSystemFont,sans-serif">一般都是仓库收到货物之后，发现货物有问题，然后记录了这些问题之后，再将这些信息反馈给采购同事，让采购同事去创建采购退货单</text><path d="M1346,-760 C1033,-760 1033,-820 720,-820" fill="none" stroke="#6F81DB" stroke-width="2"/><rect x="720" y="-835" width="494.52" height="30" rx="6" fill="#fafafa" stroke="none"/><text x="967.26" y="-815" text-anchor="middle" font-size="13" fill="#333" font-family="-apple-system,BlinkMacSystemFont,sans-serif">仓库收到货物之后发现有问题，可以上架后放在专门的区域，例如“待退供应商区”</text><path d="M1346,-760 C1033,-760 1033,-780 720,-780" fill="none" stroke="#6F81DB" stroke-width="2"/><rect x="720" y="-795" width="663" height="30" rx="6" fill="#fafafa" stroke="none"/><text x="1051.5" y="-775" text-anchor="middle" font-size="13" fill="#333" font-family="-apple-system,BlinkMacSystemFont,sans-serif">仓库收到货物之后发现有问题，可以不上架，只是收货，将有问题的货物放在专门的容器中，等待退回给供应商</text><path d="M1346,-760 C1033,-760 1033,-740 720,-740" fill="none" stroke="#6F81DB" stroke-width="2"/><rect x="720" y="-755" width="871" height="30" rx="6" fill="#fafafa" stroke="none"/><text x="1155.5" y="-735" text-anchor="middle" font-size="13" fill="#333" font-family="-apple-system,BlinkMacSystemFont,sans-serif">仓库收到货物之后发现有问题，可以不收货也不上架，这些信息不录入系统中，然后将有问题的货物放在专门的区域或者容器中，等待退回给供应商</text><path d="M1346,-760 C1033,-760 1033,-700 720,-700" fill="none" stroke="#6F81DB" stroke-width="2"/><rect x="720" y="-715" width="338" height="30" rx="6" fill="transparent" stroke="#BFBFBF"/><text x="889" y="-695" text-anchor="middle" font-size="13" fill="#333" font-family="-apple-system,BlinkMacSystemFont,sans-serif">具体采用哪种方式，没有标准答案，按实际业务来判断</text><path d="M260,-420 C310,-420 310,-560 360,-560" fill="none" stroke="#6F81DB" stroke-width="2"/><rect x="360" y="-575" width="143" height="30" rx="6" fill="#fafafa" stroke="none"/><text x="431.5" y="-555" text-anchor="middle" font-size="13" fill="#333" font-family="-apple-system,BlinkMacSystemFont,sans-serif">业务分析和方案整理</text><path d="M503,-560 C521.5,-560 521.5,-620 540,-620" fill="none" stroke="#6F81DB" stroke-width="2"/><rect x="540" y="-635" width="195.51999999999998" height="30" rx="6" fill="#fafafa" stroke="none"/><text x="637.76" y="-615" text-anchor="middle" font-size="13" fill="#333" font-family="-apple-system,BlinkMacSystemFont,sans-serif">1.先整理业务场景和主线流程</text><path d="M735.52,-620 C727.76,-620 727.76,-640 720,-640" fill="none" stroke="#6F81DB" stroke-width="2"/><rect x="720" y="-655" width="507" height="30" rx="6" fill="#fafafa" stroke="none"/><text x="973.5" y="-635" text-anchor="middle" font-size="13" fill="#333" font-family="-apple-system,BlinkMacSystemFont,sans-serif">仓库收货发现货物有问题，记录要退货的商品，然后反馈给采购，采购再去创建单据</text><path d="M1227,-640 C1063.5,-640 1063.5,-660 900,-660" fill="none" stroke="#6F81DB" stroke-width="2"/><rect x="900" y="-675" width="390" height="30" rx="6" fill="#fafafa" stroke="none"/><text x="1095" y="-655" text-anchor="middle" font-size="13" fill="#333" font-family="-apple-system,BlinkMacSystemFont,sans-serif">可以关联历史的采购单，快速选择采购单并带出采购的商品信息</text><path d="M1227,-640 C1063.5,-640 1063.5,-620 900,-620" fill="none" stroke="#6F81DB" stroke-width="2"/><rect x="900" y="-635" width="416" height="30" rx="6" fill="#fafafa" stroke="none"/><text x="1108" y="-615" text-anchor="middle" font-size="13" fill="#333" font-family="-apple-system,BlinkMacSystemFont,sans-serif">也可以不关联历史采购单，批量将多个采购单的待退货内容一起退回</text><path d="M735.52,-620 C727.76,-620 727.76,-580 720,-580" fill="none" stroke="#6F81DB" stroke-width="2"/><rect x="720" y="-595" width="676.52" height="30" rx="6" fill="#fafafa" stroke="none"/><text x="1058.26" y="-575" text-anchor="middle" font-size="13" fill="#333" font-family="-apple-system,BlinkMacSystemFont,sans-serif">创建好了采购退货单之后，无需审核，自动就会生成一个“采购退货”的出库单，然后仓库执行正常的出库流程即可</text><path d="M503,-560 C521.5,-560 521.5,-500 540,-500" fill="none" stroke="#6F81DB" stroke-width="2"/><rect x="540" y="-515" width="403.52" height="30" rx="6" fill="#fafafa" stroke="none"/><text x="741.76" y="-495" text-anchor="middle" font-size="13" fill="#333" font-family="-apple-system,BlinkMacSystemFont,sans-serif">2.根据业务场景和主线流程，整理初步的功能清单或者是解决方案</text><path d="M943.52,-500 C831.76,-500 831.76,-540 720,-540" fill="none" stroke="#6F81DB" stroke-width="2"/><rect x="720" y="-555" width="104" height="30" rx="6" fill="#fafafa" stroke="none"/><text x="772" y="-535" text-anchor="middle" font-size="13" fill="#333" font-family="-apple-system,BlinkMacSystemFont,sans-serif">采购退货管理</text><path d="M943.52,-500 C831.76,-500 831.76,-500 720,-500" fill="none" stroke="#6F81DB" stroke-width="2"/><rect x="720" y="-515" width="143" height="30" rx="6" fill="#fafafa" stroke="none"/><text x="791.5" y="-495" text-anchor="middle" font-size="13" fill="#333" font-family="-apple-system,BlinkMacSystemFont,sans-serif">采购退货的出库管理</text><path d="M943.52,-500 C831.76,-500 831.76,-460 720,-460" fill="none" stroke="#6F81DB" stroke-width="2"/><rect x="720" y="-475" width="208" height="30" rx="6" fill="transparent" stroke="#BFBFBF"/><text x="824" y="-455" text-anchor="middle" font-size="13" fill="#333" font-family="-apple-system,BlinkMacSystemFont,sans-serif">暂不考虑财务结算、退款的问题</text><path d="M260,-420 C310,-420 310,-240 360,-240" fill="none" stroke="#6F81DB" stroke-width="2"/><rect x="360" y="-255" width="80" height="30" rx="6" fill="#fafafa" stroke="none"/><text x="400" y="-235" text-anchor="middle" font-size="13" fill="#333" font-family="-apple-system,BlinkMacSystemFont,sans-serif">功能结构</text><path d="M440,-240 C490,-240 490,-380 540,-380" fill="none" stroke="#6F81DB" stroke-width="2"/><rect x="540" y="-395" width="80" height="30" rx="6" fill="#fafafa" stroke="none"/><text x="580" y="-375" text-anchor="middle" font-size="13" fill="#333" font-family="-apple-system,BlinkMacSystemFont,sans-serif">销售管理</text><path d="M620,-380 C670,-380 670,-420 720,-420" fill="none" stroke="#6F81DB" stroke-width="2"/><rect x="720" y="-435" width="117" height="30" rx="6" fill="#fafafa" stroke="none"/><text x="778.5" y="-415" text-anchor="middle" font-size="13" fill="#333" font-family="-apple-system,BlinkMacSystemFont,sans-serif">新建采购退货单</text><path d="M620,-380 C670,-380 670,-380 720,-380" fill="none" stroke="#6F81DB" stroke-width="2"/><rect x="720" y="-395" width="117" height="30" rx="6" fill="#fafafa" stroke="none"/><text x="778.5" y="-375" text-anchor="middle" font-size="13" fill="#333" font-family="-apple-system,BlinkMacSystemFont,sans-serif">修改采购退货单</text><path d="M620,-380 C670,-380 670,-340 720,-340" fill="none" stroke="#6F81DB" stroke-width="2"/><rect x="720" y="-355" width="117" height="30" rx="6" fill="#fafafa" stroke="none"/><text x="778.5" y="-335" text-anchor="middle" font-size="13" fill="#333" font-family="-apple-system,BlinkMacSystemFont,sans-serif">删除采购退货单</text><path d="M440,-240 C490,-240 490,-180 540,-180" fill="none" stroke="#6F81DB" stroke-width="2"/><rect x="540" y="-195" width="80" height="30" rx="6" fill="#fafafa" stroke="none"/><text x="580" y="-175" text-anchor="middle" font-size="13" fill="#333" font-family="-apple-system,BlinkMacSystemFont,sans-serif">出库管理</text><path d="M620,-180 C670,-180 670,-300 720,-300" fill="none" stroke="#6F81DB" stroke-width="2"/><rect x="720" y="-315" width="85.28" height="30" rx="6" fill="#EFF0F0" stroke="none"/><text x="762.64" y="-295" text-anchor="middle" font-size="13" fill="#333" font-family="-apple-system,BlinkMacSystemFont,sans-serif">Web出库货</text><path d="M620,-180 C670,-180 670,-260 720,-260" fill="none" stroke="#6F81DB" stroke-width="2"/><rect x="720" y="-275" width="104" height="30" rx="6" fill="#EFF0F0" stroke="none"/><text x="772" y="-255" text-anchor="middle" font-size="13" fill="#333" font-family="-apple-system,BlinkMacSystemFont,sans-serif">打印配货清单</text><path d="M620,-180 C670,-180 670,-200 720,-200" fill="none" stroke="#6F81DB" stroke-width="2"/><rect x="720" y="-215" width="104" height="30" rx="6" fill="#EFF0F0" stroke="none"/><text x="772" y="-195" text-anchor="middle" font-size="13" fill="#333" font-family="-apple-system,BlinkMacSystemFont,sans-serif">打印出库清单</text><path d="M824,-200 C862,-200 862,-220 900,-220" fill="none" stroke="#6F81DB" stroke-width="2"/><rect x="900" y="-235" width="761.28" height="30" rx="6" fill="#fafafa" stroke="none"/><text x="1280.6399999999999" y="-215" text-anchor="middle" font-size="13" fill="#333" font-family="-apple-system,BlinkMacSystemFont,sans-serif">出库清单就是出库单要出什么商品，已经出了多少，还有多少没有出。因为不采用PDA的情况下，需要用纸单来展示代作业的信息</text><path d="M824,-200 C862,-200 862,-180 900,-180" fill="none" stroke="#6F81DB" stroke-width="2"/><rect x="900" y="-195" width="80" height="30" rx="6" fill="#fafafa" stroke="none"/><text x="940" y="-175" text-anchor="middle" font-size="13" fill="#333" font-family="-apple-system,BlinkMacSystemFont,sans-serif"></text><path d="M620,-180 C670,-180 670,-140 720,-140" fill="none" stroke="#6F81DB" stroke-width="2"/><rect x="720" y="-155" width="104" height="30" rx="6" fill="#EFF0F0" stroke="none"/><text x="772" y="-135" text-anchor="middle" font-size="13" fill="#333" font-family="-apple-system,BlinkMacSystemFont,sans-serif">批量快速出库</text><path d="M620,-180 C670,-180 670,-100 720,-100" fill="none" stroke="#6F81DB" stroke-width="2"/><rect x="720" y="-115" width="91" height="30" rx="6" fill="#EFF0F0" stroke="none"/><text x="765.5" y="-95" text-anchor="middle" font-size="13" fill="#333" font-family="-apple-system,BlinkMacSystemFont,sans-serif">作废出库单</text><path d="M620,-180 C670,-180 670,-60 720,-60" fill="none" stroke="#6F81DB" stroke-width="2"/><rect x="720" y="-75" width="325.52" height="30" rx="6" fill="transparent" stroke="#BFBFBF"/><text x="882.76" y="-55" text-anchor="middle" font-size="13" fill="#333" font-family="-apple-system,BlinkMacSystemFont,sans-serif">2C的场景下，一般都是要等量出库的，不支持多或少</text><path d="M260,-420 C310,-420 310,0 360,0" fill="none" stroke="#6F81DB" stroke-width="2"/><rect x="360" y="-15" width="208" height="30" rx="6" fill="#fafafa" stroke="none"/><text x="464" y="5" text-anchor="middle" font-size="13" fill="#333" font-family="-apple-system,BlinkMacSystemFont,sans-serif">信息结构（包含了拓展的模块）</text><path d="M568,0 C554,0 554,-20 540,-20" fill="none" stroke="#6F81DB" stroke-width="2"/><rect x="540" y="-35" width="104" height="30" rx="6" fill="#fafafa" stroke="none"/><text x="592" y="-15" text-anchor="middle" font-size="13" fill="#333" font-family="-apple-system,BlinkMacSystemFont,sans-serif">采购退货管理</text><path d="M644,-20 C682,-20 682,-20 720,-20" fill="none" stroke="#6F81DB" stroke-width="2"/><rect x="720" y="-35" width="234" height="30" rx="6" fill="#fafafa" stroke="none"/><text x="837" y="-15" text-anchor="middle" font-size="13" fill="#333" font-family="-apple-system,BlinkMacSystemFont,sans-serif">此处省略，具体字段可以参考七色米</text><path d="M568,0 C554,0 554,20 540,20" fill="none" stroke="#6F81DB" stroke-width="2"/><rect x="540" y="5" width="80" height="30" rx="6" fill="#fafafa" stroke="none"/><text x="580" y="25" text-anchor="middle" font-size="13" fill="#333" font-family="-apple-system,BlinkMacSystemFont,sans-serif">出库管理</text><path d="M620,20 C670,20 670,20 720,20" fill="none" stroke="#6F81DB" stroke-width="2"/><rect x="720" y="5" width="234" height="30" rx="6" fill="#fafafa" stroke="none"/><text x="837" y="25" text-anchor="middle" font-size="13" fill="#333" font-family="-apple-system,BlinkMacSystemFont,sans-serif">此处省略，具体字段可以参考七色米</text><path d="M148.32,0 C238.32,0 238.32,460 328.32,460" fill="none" stroke="#6EC4C4" stroke-width="2"/><rect x="180" y="445" width="80" height="30" rx="6" fill="#fafafa" stroke="none"/><text x="220" y="465" text-anchor="middle" font-size="13" fill="#333" font-family="-apple-system,BlinkMacSystemFont,sans-serif">销售退货</text><path d="M260,460 C310,460 310,180 360,180" fill="none" stroke="#6EC4C4" stroke-width="2"/><rect x="360" y="165" width="91" height="30" rx="6" fill="#EFF0F0" stroke="none"/><text x="405.5" y="185" text-anchor="middle" font-size="13" fill="#333" font-family="-apple-system,BlinkMacSystemFont,sans-serif">需求和背景</text><path d="M451,180 C495.5,180 495.5,60 540,60" fill="none" stroke="#6EC4C4" stroke-width="2"/><rect x="540" y="45" width="754.52" height="30" rx="6" fill="#fafafa" stroke="none"/><text x="917.26" y="65" text-anchor="middle" font-size="13" fill="#333" font-family="-apple-system,BlinkMacSystemFont,sans-serif">由于销售给客户或者同行的一些商品可能有瑕疵或者是不满足客户的要求，客户会需要申请退货返还，这种操作叫做“销售退货”</text><path d="M451,180 C495.5,180 495.5,200 540,200" fill="none" stroke="#6EC4C4" stroke-width="2"/><rect x="540" y="185" width="507" height="30" rx="6" fill="#fafafa" stroke="none"/><text x="793.5" y="205" text-anchor="middle" font-size="13" fill="#333" font-family="-apple-system,BlinkMacSystemFont,sans-serif">销售退货的业务场景有些时候很复杂，有些时候比较简单，需要结合实际的业务来看</text><path d="M1047,200 C883.5,200 883.5,180 720,180" fill="none" stroke="#6EC4C4" stroke-width="2"/><rect x="720" y="165" width="468" height="30" rx="6" fill="#fafafa" stroke="none"/><text x="954" y="185" text-anchor="middle" font-size="13" fill="#333" font-family="-apple-system,BlinkMacSystemFont,sans-serif">例如说电商的售后模块一般都会单独抽出一个系统来处理，因为这一块很复杂</text><path d="M1188,180 C1044,180 1044,100 900,100" fill="none" stroke="#6EC4C4" stroke-width="2"/><rect x="900" y="85" width="80" height="30" rx="6" fill="#fafafa" stroke="none"/><text x="940" y="105" text-anchor="middle" font-size="13" fill="#333" font-family="-apple-system,BlinkMacSystemFont,sans-serif">订单退货</text><path d="M1188,180 C1044,180 1044,140 900,140" fill="none" stroke="#6EC4C4" stroke-width="2"/><rect x="900" y="125" width="80" height="30" rx="6" fill="#fafafa" stroke="none"/><text x="940" y="145" text-anchor="middle" font-size="13" fill="#333" font-family="-apple-system,BlinkMacSystemFont,sans-serif">订单换货</text><path d="M1188,180 C1044,180 1044,180 900,180" fill="none" stroke="#6EC4C4" stroke-width="2"/><rect x="900" y="165" width="80" height="30" rx="6" fill="#fafafa" stroke="none"/><text x="940" y="185" text-anchor="middle" font-size="13" fill="#333" font-family="-apple-system,BlinkMacSystemFont,sans-serif">订单返款</text><path d="M1188,180 C1044,180 1044,220 900,220" fill="none" stroke="#6EC4C4" stroke-width="2"/><rect x="900" y="205" width="80" height="30" rx="6" fill="#fafafa" stroke="none"/><text x="940" y="225" text-anchor="middle" font-size="13" fill="#333" font-family="-apple-system,BlinkMacSystemFont,sans-serif">订单索赔</text><path d="M1188,180 C1044,180 1044,260 900,260" fill="none" stroke="#6EC4C4" stroke-width="2"/><rect x="900" y="245" width="80" height="30" rx="6" fill="#fafafa" stroke="none"/><text x="940" y="265" text-anchor="middle" font-size="13" fill="#333" font-family="-apple-system,BlinkMacSystemFont,sans-serif">……</text><path d="M1047,200 C883.5,200 883.5,300 720,300" fill="none" stroke="#6EC4C4" stroke-width="2"/><rect x="720" y="285" width="1014" height="30" rx="6" fill="#fafafa" stroke="none"/><text x="1227" y="305" text-anchor="middle" font-size="13" fill="#333" font-family="-apple-system,BlinkMacSystemFont,sans-serif">进销存的销售退货比较简单，不需要考虑太多复杂的场景。一般就是创建销售退货单，然后将单据推送给仓库，然后等客户退回货物即可，质检、审核、打款这一块暂时忽略</text><path d="M260,460 C310,460 310,440 360,440" fill="none" stroke="#6EC4C4" stroke-width="2"/><rect x="360" y="425" width="143" height="30" rx="6" fill="#EFF0F0" stroke="none"/><text x="431.5" y="445" text-anchor="middle" font-size="13" fill="#333" font-family="-apple-system,BlinkMacSystemFont,sans-serif">业务分析和方案整理</text><path d="M503,440 C521.5,440 521.5,380 540,380" fill="none" stroke="#6EC4C4" stroke-width="2"/><rect x="540" y="365" width="195.51999999999998" height="30" rx="6" fill="#fafafa" stroke="none"/><text x="637.76" y="385" text-anchor="middle" font-size="13" fill="#333" font-family="-apple-system,BlinkMacSystemFont,sans-serif">1.先整理业务场景和主线流程</text><path d="M735.52,380 C727.76,380 727.76,360 720,360" fill="none" stroke="#6EC4C4" stroke-width="2"/><rect x="720" y="345" width="494" height="30" rx="6" fill="#fafafa" stroke="none"/><text x="967" y="365" text-anchor="middle" font-size="13" fill="#333" font-family="-apple-system,BlinkMacSystemFont,sans-serif">客户发现货物有问题，反馈给销售，说要申请退货，于是销售去创建销售退货单据</text><path d="M1214,360 C1057,360 1057,340 900,340" fill="none" stroke="#6EC4C4" stroke-width="2"/><rect x="900" y="325" width="416" height="30" rx="6" fill="#fafafa" stroke="none"/><text x="1108" y="345" text-anchor="middle" font-size="13" fill="#333" font-family="-apple-system,BlinkMacSystemFont,sans-serif">可以关联历史的销售单，快速选择销售单并带出销售订单的商品信息</text><path d="M1214,360 C1057,360 1057,380 900,380" fill="none" stroke="#6EC4C4" stroke-width="2"/><rect x="900" y="365" width="416" height="30" rx="6" fill="#fafafa" stroke="none"/><text x="1108" y="385" text-anchor="middle" font-size="13" fill="#333" font-family="-apple-system,BlinkMacSystemFont,sans-serif">也可以不关联历史销售单，批量将多个销售单的待退货内容一起退回</text><path d="M735.52,380 C727.76,380 727.76,420 720,420" fill="none" stroke="#6EC4C4" stroke-width="2"/><rect x="720" y="405" width="676.52" height="30" rx="6" fill="#fafafa" stroke="none"/><text x="1058.26" y="425" text-anchor="middle" font-size="13" fill="#333" font-family="-apple-system,BlinkMacSystemFont,sans-serif">创建好了销售退货单之后，无需审核，自动就会生成一个“销售退货”的出库单，然后仓库执行正常的出库流程即可</text><path d="M503,440 C521.5,440 521.5,500 540,500" fill="none" stroke="#6EC4C4" stroke-width="2"/><rect x="540" y="485" width="403.52" height="30" rx="6" fill="#fafafa" stroke="none"/><text x="741.76" y="505" text-anchor="middle" font-size="13" fill="#333" font-family="-apple-system,BlinkMacSystemFont,sans-serif">2.根据业务场景和主线流程，整理初步的功能清单或者是解决方案</text><path d="M943.52,500 C831.76,500 831.76,460 720,460" fill="none" stroke="#6EC4C4" stroke-width="2"/><rect x="720" y="445" width="104" height="30" rx="6" fill="#fafafa" stroke="none"/><text x="772" y="465" text-anchor="middle" font-size="13" fill="#333" font-family="-apple-system,BlinkMacSystemFont,sans-serif">销售退货管理</text><path d="M943.52,500 C831.76,500 831.76,500 720,500" fill="none" stroke="#6EC4C4" stroke-width="2"/><rect x="720" y="485" width="143" height="30" rx="6" fill="#fafafa" stroke="none"/><text x="791.5" y="505" text-anchor="middle" font-size="13" fill="#333" font-family="-apple-system,BlinkMacSystemFont,sans-serif">销售退货的入库管理</text><path d="M943.52,500 C831.76,500 831.76,540 720,540" fill="none" stroke="#6EC4C4" stroke-width="2"/><rect x="720" y="525" width="208" height="30" rx="6" fill="transparent" stroke="#BFBFBF"/><text x="824" y="545" text-anchor="middle" font-size="13" fill="#333" font-family="-apple-system,BlinkMacSystemFont,sans-serif">暂不考虑财务结算、退款的问题</text><path d="M260,460 C310,460 310,680 360,680" fill="none" stroke="#6EC4C4" stroke-width="2"/><rect x="360" y="665" width="80" height="30" rx="6" fill="#fafafa" stroke="none"/><text x="400" y="685" text-anchor="middle" font-size="13" fill="#333" font-family="-apple-system,BlinkMacSystemFont,sans-serif">功能结构</text><path d="M440,680 C490,680 490,620 540,620" fill="none" stroke="#6EC4C4" stroke-width="2"/><rect x="540" y="605" width="80" height="30" rx="6" fill="#fafafa" stroke="none"/><text x="580" y="625" text-anchor="middle" font-size="13" fill="#333" font-family="-apple-system,BlinkMacSystemFont,sans-serif">销售退货</text><path d="M620,620 C670,620 670,580 720,580" fill="none" stroke="#6EC4C4" stroke-width="2"/><rect x="720" y="565" width="117" height="30" rx="6" fill="#EFF0F0" stroke="none"/><text x="778.5" y="585" text-anchor="middle" font-size="13" fill="#333" font-family="-apple-system,BlinkMacSystemFont,sans-serif">新建销售退货单</text><path d="M620,620 C670,620 670,620 720,620" fill="none" stroke="#6EC4C4" stroke-width="2"/><rect x="720" y="605" width="117" height="30" rx="6" fill="#EFF0F0" stroke="none"/><text x="778.5" y="625" text-anchor="middle" font-size="13" fill="#333" font-family="-apple-system,BlinkMacSystemFont,sans-serif">修改销售退货单</text><path d="M620,620 C670,620 670,660 720,660" fill="none" stroke="#6EC4C4" stroke-width="2"/><rect x="720" y="645" width="117" height="30" rx="6" fill="#EFF0F0" stroke="none"/><text x="778.5" y="665" text-anchor="middle" font-size="13" fill="#333" font-family="-apple-system,BlinkMacSystemFont,sans-serif">删除销售退货单</text><path d="M440,680 C490,680 490,740 540,740" fill="none" stroke="#6EC4C4" stroke-width="2"/><rect x="540" y="725" width="80" height="30" rx="6" fill="#fafafa" stroke="none"/><text x="580" y="745" text-anchor="middle" font-size="13" fill="#333" font-family="-apple-system,BlinkMacSystemFont,sans-serif">入库管理</text><path d="M620,740 C670,740 670,700 720,700" fill="none" stroke="#6EC4C4" stroke-width="2"/><rect x="720" y="685" width="80" height="30" rx="6" fill="#fafafa" stroke="none"/><text x="760" y="705" text-anchor="middle" font-size="13" fill="#333" font-family="-apple-system,BlinkMacSystemFont,sans-serif">Web收货</text><path d="M620,740 C670,740 670,740 720,740" fill="none" stroke="#6EC4C4" stroke-width="2"/><rect x="720" y="725" width="104" height="30" rx="6" fill="#fafafa" stroke="none"/><text x="772" y="745" text-anchor="middle" font-size="13" fill="#333" font-family="-apple-system,BlinkMacSystemFont,sans-serif">打印入库清单</text><path d="M620,740 C670,740 670,780 720,780" fill="none" stroke="#6EC4C4" stroke-width="2"/><rect x="720" y="765" width="80" height="30" rx="6" fill="#fafafa" stroke="none"/><text x="760" y="785" text-anchor="middle" font-size="13" fill="#333" font-family="-apple-system,BlinkMacSystemFont,sans-serif">……</text><path d="M260,460 C310,460 310,840 360,840" fill="none" stroke="#6EC4C4" stroke-width="2"/><rect x="360" y="825" width="80" height="30" rx="6" fill="#fafafa" stroke="none"/><text x="400" y="845" text-anchor="middle" font-size="13" fill="#333" font-family="-apple-system,BlinkMacSystemFont,sans-serif">信息结构</text><path d="M440,840 C490,840 490,820 540,820" fill="none" stroke="#6EC4C4" stroke-width="2"/><rect x="540" y="805" width="80" height="30" rx="6" fill="#fafafa" stroke="none"/><text x="580" y="825" text-anchor="middle" font-size="13" fill="#333" font-family="-apple-system,BlinkMacSystemFont,sans-serif">销售退货</text><path d="M620,820 C670,820 670,820 720,820" fill="none" stroke="#6EC4C4" stroke-width="2"/><rect x="720" y="805" width="234" height="30" rx="6" fill="#fafafa" stroke="none"/><text x="837" y="825" text-anchor="middle" font-size="13" fill="#333" font-family="-apple-system,BlinkMacSystemFont,sans-serif">此处省略，具体字段可以参考七色米</text><path d="M440,840 C490,840 490,860 540,860" fill="none" stroke="#6EC4C4" stroke-width="2"/><rect x="540" y="845" width="80" height="30" rx="6" fill="#fafafa" stroke="none"/><text x="580" y="865" text-anchor="middle" font-size="13" fill="#333" font-family="-apple-system,BlinkMacSystemFont,sans-serif">入库管理</text><path d="M620,860 C670,860 670,860 720,860" fill="none" stroke="#6EC4C4" stroke-width="2"/><rect x="720" y="845" width="234" height="30" rx="6" fill="#EFF0F0" stroke="none"/><text x="837" y="865" text-anchor="middle" font-size="13" fill="#333" font-family="-apple-system,BlinkMacSystemFont,sans-serif">此处省略，具体字段可以参考七色米</text>
</svg>