<svg xmlns="http://www.w3.org/2000/svg" xmlns:xlink="http://www.w3.org/1999/xlink"
  viewBox="-216.32 -420 1362.32 874" width="1362.32" height="874"
  style="background:#fff; font-family:-apple-system,BlinkMacSystemFont,'Segoe UI',Roboto,sans-serif;">
<defs></defs>
<rect x="-216.32" y="-420" width="1362.32" height="874" fill="#fff"/>
<rect x="-132.32" y="-18" width="264.64" height="36" rx="8" fill="#EFF0F0" stroke="none"/><text x="0" y="6" text-anchor="middle" font-size="16" font-weight="bold" fill="#333" font-family="-apple-system,BlinkMacSystemFont,sans-serif">拆解“进销存类系统”的作业框架</text><path d="M132.32,0 C222.32,0 222.32,-300 312.32,-300" fill="none" stroke="#A287E1" stroke-width="2"/><rect x="180" y="-315" width="130" height="30" rx="6" fill="#fafafa" stroke="none"/><text x="245" y="-295" text-anchor="middle" font-size="13" fill="#333" font-family="-apple-system,BlinkMacSystemFont,sans-serif">产品及公司的介绍</text><path d="M310,-300 C335,-300 335,-320 360,-320" fill="none" stroke="#A287E1" stroke-width="2"/><rect x="360" y="-335" width="416" height="30" rx="6" fill="#fafafa" stroke="none"/><text x="568" y="-315" text-anchor="middle" font-size="13" fill="#333" font-family="-apple-system,BlinkMacSystemFont,sans-serif">这个产品是什么，哪家公司的，成立了多久，有多少用户，什么成绩</text><path d="M310,-300 C335,-300 335,-280 360,-280" fill="none" stroke="#A287E1" stroke-width="2"/><rect x="360" y="-295" width="351" height="30" rx="6" fill="#fafafa" stroke="none"/><text x="535.5" y="-275" text-anchor="middle" font-size="13" fill="#333" font-family="-apple-system,BlinkMacSystemFont,sans-serif">可以从官网或者其他渠道收集一下，解释一下产品的背景</text><path d="M132.32,0 C222.32,0 222.32,-200 312.32,-200" fill="none" stroke="#6F81DB" stroke-width="2"/><rect x="180" y="-215" width="104" height="30" rx="6" fill="#fafafa" stroke="none"/><text x="232" y="-195" text-anchor="middle" font-size="13" fill="#333" font-family="-apple-system,BlinkMacSystemFont,sans-serif">产品主要价值</text><path d="M284,-200 C322,-200 322,-240 360,-240" fill="none" stroke="#6F81DB" stroke-width="2"/><rect x="360" y="-255" width="325" height="30" rx="6" fill="#fafafa" stroke="none"/><text x="522.5" y="-235" text-anchor="middle" font-size="13" fill="#333" font-family="-apple-system,BlinkMacSystemFont,sans-serif">产品的定位是什么，用户群体是谁，解决了什么问题</text><path d="M284,-200 C322,-200 322,-200 360,-200" fill="none" stroke="#6F81DB" stroke-width="2"/><rect x="360" y="-215" width="260" height="30" rx="6" fill="#fafafa" stroke="none"/><text x="490" y="-195" text-anchor="middle" font-size="13" fill="#333" font-family="-apple-system,BlinkMacSystemFont,sans-serif">它对应的竞品是哪些，潜在的对手有哪些</text><path d="M284,-200 C322,-200 322,-160 360,-160" fill="none" stroke="#6F81DB" stroke-width="2"/><rect x="360" y="-175" width="273" height="30" rx="6" fill="#fafafa" stroke="none"/><text x="496.5" y="-155" text-anchor="middle" font-size="13" fill="#333" font-family="-apple-system,BlinkMacSystemFont,sans-serif">提供了什么解决方案，解决哪些场景的问题</text><path d="M132.32,0 C222.32,0 222.32,-80 312.32,-80" fill="none" stroke="#6EC4C4" stroke-width="2"/><rect x="180" y="-95" width="80" height="30" rx="6" fill="#fafafa" stroke="none"/><text x="220" y="-75" text-anchor="middle" font-size="13" fill="#333" font-family="-apple-system,BlinkMacSystemFont,sans-serif">业务流程</text><path d="M260,-80 C310,-80 310,-120 360,-120" fill="none" stroke="#6EC4C4" stroke-width="2"/><rect x="360" y="-135" width="325" height="30" rx="6" fill="#fafafa" stroke="none"/><text x="522.5" y="-115" text-anchor="middle" font-size="13" fill="#333" font-family="-apple-system,BlinkMacSystemFont,sans-serif">有哪些业务流程，在体验过程中梳理了哪些业务流程</text><path d="M260,-80 C310,-80 310,-80 360,-80" fill="none" stroke="#6EC4C4" stroke-width="2"/><rect x="360" y="-95" width="351" height="30" rx="6" fill="#fafafa" stroke="none"/><text x="535.5" y="-75" text-anchor="middle" font-size="13" fill="#333" font-family="-apple-system,BlinkMacSystemFont,sans-serif">有哪些系统流程，系统的单据、数据流程大概是怎么样的</text><path d="M260,-80 C310,-80 310,-40 360,-40" fill="none" stroke="#6EC4C4" stroke-width="2"/><rect x="360" y="-55" width="494" height="30" rx="6" fill="#fafafa" stroke="none"/><text x="607" y="-35" text-anchor="middle" font-size="13" fill="#333" font-family="-apple-system,BlinkMacSystemFont,sans-serif">流程包含了正向的，也可以包含逆向的，时间充裕的情况下，主支辅异都可以包含</text><path d="M132.32,0 C222.32,0 222.32,40 312.32,40" fill="none" stroke="#DFB85D" stroke-width="2"/><rect x="180" y="25" width="80" height="30" rx="6" fill="#fafafa" stroke="none"/><text x="220" y="45" text-anchor="middle" font-size="13" fill="#333" font-family="-apple-system,BlinkMacSystemFont,sans-serif">功能清单</text><path d="M260,40 C310,40 310,0 360,0" fill="none" stroke="#DFB85D" stroke-width="2"/><rect x="360" y="-15" width="195" height="30" rx="6" fill="#fafafa" stroke="none"/><text x="457.5" y="5" text-anchor="middle" font-size="13" fill="#333" font-family="-apple-system,BlinkMacSystemFont,sans-serif">有哪些菜单，有哪些功能模块</text><path d="M260,40 C310,40 310,40 360,40" fill="none" stroke="#DFB85D" stroke-width="2"/><rect x="360" y="25" width="299" height="30" rx="6" fill="#fafafa" stroke="none"/><text x="509.5" y="45" text-anchor="middle" font-size="13" fill="#333" font-family="-apple-system,BlinkMacSystemFont,sans-serif">不同的菜单和功能模块，大概是解决了什么问题</text><path d="M260,40 C310,40 310,80 360,80" fill="none" stroke="#DFB85D" stroke-width="2"/><rect x="360" y="65" width="312" height="30" rx="6" fill="#fafafa" stroke="none"/><text x="516" y="85" text-anchor="middle" font-size="13" fill="#333" font-family="-apple-system,BlinkMacSystemFont,sans-serif">哪些功能模块是核心的模块，哪些可能是非核心的</text><path d="M132.32,0 C222.32,0 222.32,160 312.32,160" fill="none" stroke="#77C386" stroke-width="2"/><rect x="180" y="145" width="130" height="30" rx="6" fill="#fafafa" stroke="none"/><text x="245" y="165" text-anchor="middle" font-size="13" fill="#333" font-family="-apple-system,BlinkMacSystemFont,sans-serif">具体功能模块拆解</text><path d="M310,160 C335,160 335,120 360,120" fill="none" stroke="#77C386" stroke-width="2"/><rect x="360" y="105" width="351" height="30" rx="6" fill="#fafafa" stroke="none"/><text x="535.5" y="125" text-anchor="middle" font-size="13" fill="#333" font-family="-apple-system,BlinkMacSystemFont,sans-serif">拆解了哪些核心模块，这些核心模块解决了什么业务问题</text><path d="M310,160 C335,160 335,160 360,160" fill="none" stroke="#77C386" stroke-width="2"/><rect x="360" y="145" width="390" height="30" rx="6" fill="#fafafa" stroke="none"/><text x="555" y="165" text-anchor="middle" font-size="13" fill="#333" font-family="-apple-system,BlinkMacSystemFont,sans-serif">这些模块和上下游是怎么串联的，这些模块的数据是怎么流通的</text><path d="M310,160 C335,160 335,200 360,200" fill="none" stroke="#77C386" stroke-width="2"/><rect x="360" y="185" width="325" height="30" rx="6" fill="#fafafa" stroke="none"/><text x="522.5" y="205" text-anchor="middle" font-size="13" fill="#333" font-family="-apple-system,BlinkMacSystemFont,sans-serif">这些模块设计的亮点是什么，好的、不好的点是什么</text><path d="M132.32,0 C222.32,0 222.32,280 312.32,280" fill="none" stroke="#E48484" stroke-width="2"/><rect x="180" y="265" width="130" height="30" rx="6" fill="#fafafa" stroke="none"/><text x="245" y="285" text-anchor="middle" font-size="13" fill="#333" font-family="-apple-system,BlinkMacSystemFont,sans-serif">一些启发性的总结</text><path d="M310,280 C335,280 335,240 360,240" fill="none" stroke="#E48484" stroke-width="2"/><rect x="360" y="225" width="377" height="30" rx="6" fill="#fafafa" stroke="none"/><text x="548.5" y="245" text-anchor="middle" font-size="13" fill="#333" font-family="-apple-system,BlinkMacSystemFont,sans-serif">在拆解完了之后，对这款产品的评价是怎么样的？主观的感受</text><path d="M737,240 C638.5,240 638.5,240 540,240" fill="none" stroke="#E48484" stroke-width="2"/><rect x="540" y="225" width="92.03999999999999" height="30" rx="6" fill="#fafafa" stroke="none"/><text x="586.02" y="245" text-anchor="middle" font-size="13" fill="#333" font-family="-apple-system,BlinkMacSystemFont,sans-serif">SWOT也可以</text><path d="M310,280 C335,280 335,280 360,280" fill="none" stroke="#E48484" stroke-width="2"/><rect x="360" y="265" width="442" height="30" rx="6" fill="#fafafa" stroke="none"/><text x="581" y="285" text-anchor="middle" font-size="13" fill="#333" font-family="-apple-system,BlinkMacSystemFont,sans-serif">拆解的这款产品设计好的点在哪里，对自己有启发，值得学习的点在哪里</text><path d="M310,280 C335,280 335,320 360,320" fill="none" stroke="#E48484" stroke-width="2"/><rect x="360" y="305" width="442" height="30" rx="6" fill="#fafafa" stroke="none"/><text x="581" y="325" text-anchor="middle" font-size="13" fill="#333" font-family="-apple-system,BlinkMacSystemFont,sans-serif">体验的过程中有哪些点是你没明白，有疑问，不理解的，引发自己思考的</text>
</svg>