<svg xmlns="http://www.w3.org/2000/svg" xmlns:xlink="http://www.w3.org/1999/xlink"
  viewBox="-188.48000000000002 -559.0625 1582.48 1098.0625" width="1582.48" height="1098.0625"
  style="background:#fff; font-family:-apple-system,BlinkMacSystemFont,'Segoe UI',Roboto,sans-serif;">
<defs></defs>
<rect x="-188.48000000000002" y="-559.0625" width="1582.48" height="1098.0625" fill="#fff"/>
<rect x="-104.48" y="-18" width="208.96" height="36" rx="8" fill="#EFF0F0" stroke="none"/><text x="0" y="6" text-anchor="middle" font-size="16" font-weight="bold" fill="#333" font-family="-apple-system,BlinkMacSystemFont,sans-serif">电商ERP仓储的场景分析</text><path d="M104.48,0 C194.48000000000002,0 194.48000000000002,-360 284.48,-360" fill="none" stroke="#6EC4C4" stroke-width="2"/><rect x="180" y="-375" width="104" height="30" rx="6" fill="#fafafa" stroke="none"/><text x="232" y="-355" text-anchor="middle" font-size="13" fill="#333" font-family="-apple-system,BlinkMacSystemFont,sans-serif">实体仓的类型</text><path d="M284,-360 C322,-360 322,-400 360,-400" fill="none" stroke="#6EC4C4" stroke-width="2"/><rect x="360" y="-415" width="130" height="30" rx="6" fill="#fafafa" stroke="none"/><text x="425" y="-395" text-anchor="middle" font-size="13" fill="#333" font-family="-apple-system,BlinkMacSystemFont,sans-serif">本地仓（自营仓）</text><path d="M490,-400 C515,-400 515,-440 540,-440" fill="none" stroke="#6EC4C4" stroke-width="2"/><rect x="540" y="-455" width="425.87999999999994" height="30" rx="6" fill="#fafafa" stroke="none"/><text x="752.9399999999999" y="-435" text-anchor="middle" font-size="13" fill="#333" font-family="-apple-system,BlinkMacSystemFont,sans-serif">用ERP的“仓储”模块来对仓库进行管理，也可称之为“ERP中的WMS”模块</text><path d="M490,-400 C515,-400 515,-380 540,-380" fill="none" stroke="#6EC4C4" stroke-width="2"/><rect x="540" y="-395" width="293.28" height="30" rx="6" fill="#fafafa" stroke="none"/><text x="686.64" y="-375" text-anchor="middle" font-size="13" fill="#333" font-family="-apple-system,BlinkMacSystemFont,sans-serif">ERP的其他业务模块，可以推送单据到仓储模块</text><path d="M833.28,-380 C776.64,-380 776.64,-400 720,-400" fill="none" stroke="#6EC4C4" stroke-width="2"/><rect x="720" y="-415" width="221.51999999999998" height="30" rx="6" fill="#fafafa" stroke="none"/><text x="830.76" y="-395" text-anchor="middle" font-size="13" fill="#333" font-family="-apple-system,BlinkMacSystemFont,sans-serif">采购订单-&gt;收货单（收货、上架）</text><path d="M833.28,-380 C776.64,-380 776.64,-360 720,-360" fill="none" stroke="#6EC4C4" stroke-width="2"/><rect x="720" y="-375" width="299.52" height="30" rx="6" fill="#fafafa" stroke="none"/><text x="869.76" y="-355" text-anchor="middle" font-size="13" fill="#333" font-family="-apple-system,BlinkMacSystemFont,sans-serif">销售订单-&gt;发货单（波次、拣货、复核、称重）</text><path d="M284,-360 C322,-360 322,-300 360,-300" fill="none" stroke="#6EC4C4" stroke-width="2"/><rect x="360" y="-315" width="169" height="30" rx="6" fill="#fafafa" stroke="none"/><text x="444.5" y="-295" text-anchor="middle" font-size="13" fill="#333" font-family="-apple-system,BlinkMacSystemFont,sans-serif">外部三方仓（含平台仓）</text><path d="M529,-300 C534.5,-300 534.5,-300 540,-300" fill="none" stroke="#6EC4C4" stroke-width="2"/><rect x="540" y="-315" width="410.28" height="30" rx="6" fill="#fafafa" stroke="none"/><text x="745.14" y="-295" text-anchor="middle" font-size="13" fill="#333" font-family="-apple-system,BlinkMacSystemFont,sans-serif">专门提供仓储服务的第三方仓储服务商，需要ERP与其进行接口对接</text><path d="M950.28,-300 C835.14,-300 835.14,-320 720,-320" fill="none" stroke="#6EC4C4" stroke-width="2"/><rect x="720" y="-335" width="169" height="30" rx="6" fill="#fafafa" stroke="none"/><text x="804.5" y="-315" text-anchor="middle" font-size="13" fill="#333" font-family="-apple-system,BlinkMacSystemFont,sans-serif">国内电商仓（奇门接口）</text><path d="M950.28,-300 C835.14,-300 835.14,-280 720,-280" fill="none" stroke="#6EC4C4" stroke-width="2"/><rect x="720" y="-295" width="143" height="30" rx="6" fill="#fafafa" stroke="none"/><text x="791.5" y="-275" text-anchor="middle" font-size="13" fill="#333" font-family="-apple-system,BlinkMacSystemFont,sans-serif">海外仓（逐个对接）</text><path d="M104.48,0 C194.48000000000002,0 194.48000000000002,-120 284.48,-120" fill="none" stroke="#A287E1" stroke-width="2"/><rect x="180" y="-135" width="130" height="30" rx="6" fill="#fafafa" stroke="none"/><text x="245" y="-115" text-anchor="middle" font-size="13" fill="#333" font-family="-apple-system,BlinkMacSystemFont,sans-serif">仓库的授权和管理</text><path d="M310,-120 C335,-120 335,-220 360,-220" fill="none" stroke="#A287E1" stroke-width="2"/><rect x="360" y="-235" width="169" height="30" rx="6" fill="#fafafa" stroke="none"/><text x="444.5" y="-215" text-anchor="middle" font-size="13" fill="#333" font-family="-apple-system,BlinkMacSystemFont,sans-serif">外部三方仓的对接和授权</text><path d="M529,-220 C534.5,-220 534.5,-240 540,-240" fill="none" stroke="#A287E1" stroke-width="2"/><rect x="540" y="-255" width="208" height="30" rx="6" fill="#fafafa" stroke="none"/><text x="644" y="-235" text-anchor="middle" font-size="13" fill="#333" font-family="-apple-system,BlinkMacSystemFont,sans-serif">对接哪些接口？传送哪些字段？</text><path d="M529,-220 C534.5,-220 534.5,-200 540,-200" fill="none" stroke="#A287E1" stroke-width="2"/><rect x="540" y="-215" width="247" height="30" rx="6" fill="#fafafa" stroke="none"/><text x="663.5" y="-195" text-anchor="middle" font-size="13" fill="#333" font-family="-apple-system,BlinkMacSystemFont,sans-serif">授权信息要填哪些？要维护哪些字段？</text><path d="M310,-120 C335,-120 335,-120 360,-120" fill="none" stroke="#A287E1" stroke-width="2"/><rect x="360" y="-135" width="143" height="30" rx="6" fill="#fafafa" stroke="none"/><text x="431.5" y="-115" text-anchor="middle" font-size="13" fill="#333" font-family="-apple-system,BlinkMacSystemFont,sans-serif">外部仓库的业务配置</text><path d="M503,-120 C521.5,-120 521.5,-160 540,-160" fill="none" stroke="#A287E1" stroke-width="2"/><rect x="540" y="-175" width="169" height="30" rx="6" fill="#fafafa" stroke="none"/><text x="624.5" y="-155" text-anchor="middle" font-size="13" fill="#333" font-family="-apple-system,BlinkMacSystemFont,sans-serif">商品资料同步和配对映射</text><path d="M503,-120 C521.5,-120 521.5,-120 540,-120" fill="none" stroke="#A287E1" stroke-width="2"/><rect x="540" y="-135" width="143" height="30" rx="6" fill="#fafafa" stroke="none"/><text x="611.5" y="-115" text-anchor="middle" font-size="13" fill="#333" font-family="-apple-system,BlinkMacSystemFont,sans-serif">数据同步拉取的频率</text><path d="M503,-120 C521.5,-120 521.5,-80 540,-80" fill="none" stroke="#A287E1" stroke-width="2"/><rect x="540" y="-95" width="80" height="30" rx="6" fill="#fafafa" stroke="none"/><text x="580" y="-75" text-anchor="middle" font-size="13" fill="#333" font-family="-apple-system,BlinkMacSystemFont,sans-serif">物流映射</text><path d="M310,-120 C335,-120 335,-20 360,-20" fill="none" stroke="#A287E1" stroke-width="2"/><rect x="360" y="-35" width="182" height="30" rx="6" fill="#fafafa" stroke="none"/><text x="451" y="-15" text-anchor="middle" font-size="13" fill="#333" font-family="-apple-system,BlinkMacSystemFont,sans-serif">和仓库对接的单据流转记录</text><path d="M542,-20 C541,-20 541,-40 540,-40" fill="none" stroke="#A287E1" stroke-width="2"/><rect x="540" y="-55" width="104" height="30" rx="6" fill="#fafafa" stroke="none"/><text x="592" y="-35" text-anchor="middle" font-size="13" fill="#333" font-family="-apple-system,BlinkMacSystemFont,sans-serif">方便查看日志</text><path d="M542,-20 C541,-20 541,0 540,0" fill="none" stroke="#A287E1" stroke-width="2"/><rect x="540" y="-15" width="104" height="30" rx="6" fill="#fafafa" stroke="none"/><text x="592" y="5" text-anchor="middle" font-size="13" fill="#333" font-family="-apple-system,BlinkMacSystemFont,sans-serif">方便定位问题</text><path d="M104.48,0 C194.48000000000002,0 194.48000000000002,80 284.48,80" fill="none" stroke="#6F81DB" stroke-width="2"/><rect x="180" y="65" width="117" height="30" rx="6" fill="#fafafa" stroke="none"/><text x="238.5" y="85" text-anchor="middle" font-size="13" fill="#333" font-family="-apple-system,BlinkMacSystemFont,sans-serif">仓库库存的记录</text><path d="M297,80 C328.5,80 328.5,40 360,40" fill="none" stroke="#6F81DB" stroke-width="2"/><rect x="360" y="25" width="104" height="30" rx="6" fill="#fafafa" stroke="none"/><text x="412" y="45" text-anchor="middle" font-size="13" fill="#333" font-family="-apple-system,BlinkMacSystemFont,sans-serif">仓库库存查询</text><path d="M297,80 C328.5,80 328.5,80 360,80" fill="none" stroke="#6F81DB" stroke-width="2"/><rect x="360" y="65" width="130" height="30" rx="6" fill="#fafafa" stroke="none"/><text x="425" y="85" text-anchor="middle" font-size="13" fill="#333" font-family="-apple-system,BlinkMacSystemFont,sans-serif">仓库仓库流水查询</text><path d="M297,80 C328.5,80 328.5,120 360,120" fill="none" stroke="#6F81DB" stroke-width="2"/><rect x="360" y="105" width="104" height="30" rx="6" fill="#fafafa" stroke="none"/><text x="412" y="125" text-anchor="middle" font-size="13" fill="#333" font-family="-apple-system,BlinkMacSystemFont,sans-serif">仓库批次库存</text><path d="M104.48,0 C194.48000000000002,0 194.48000000000002,260 284.48,260" fill="none" stroke="#69B1E4" stroke-width="2"/><rect x="180" y="245" width="117" height="30" rx="6" fill="#fafafa" stroke="none"/><text x="238.5" y="265" text-anchor="middle" font-size="13" fill="#333" font-family="-apple-system,BlinkMacSystemFont,sans-serif">仓库的一些操作</text><path d="M297,260 C328.5,260 328.5,160 360,160" fill="none" stroke="#69B1E4" stroke-width="2"/><rect x="360" y="145" width="80" height="30" rx="6" fill="#fafafa" stroke="none"/><text x="400" y="165" text-anchor="middle" font-size="13" fill="#333" font-family="-apple-system,BlinkMacSystemFont,sans-serif">调拨</text><path d="M297,260 C328.5,260 328.5,200 360,200" fill="none" stroke="#69B1E4" stroke-width="2"/><rect x="360" y="185" width="80" height="30" rx="6" fill="#fafafa" stroke="none"/><text x="400" y="205" text-anchor="middle" font-size="13" fill="#333" font-family="-apple-system,BlinkMacSystemFont,sans-serif">盘点</text><path d="M297,260 C328.5,260 328.5,240 360,240" fill="none" stroke="#69B1E4" stroke-width="2"/><rect x="360" y="225" width="80" height="30" rx="6" fill="#fafafa" stroke="none"/><text x="400" y="245" text-anchor="middle" font-size="13" fill="#333" font-family="-apple-system,BlinkMacSystemFont,sans-serif">库存调整</text><path d="M297,260 C328.5,260 328.5,280 360,280" fill="none" stroke="#69B1E4" stroke-width="2"/><rect x="360" y="265" width="91" height="30" rx="6" fill="#fafafa" stroke="none"/><text x="405.5" y="285" text-anchor="middle" font-size="13" fill="#333" font-family="-apple-system,BlinkMacSystemFont,sans-serif">其他出入库</text><path d="M297,260 C328.5,260 328.5,320 360,320" fill="none" stroke="#69B1E4" stroke-width="2"/><rect x="360" y="305" width="80" height="30" rx="6" fill="#fafafa" stroke="none"/><text x="400" y="325" text-anchor="middle" font-size="13" fill="#333" font-family="-apple-system,BlinkMacSystemFont,sans-serif">入库</text><path d="M297,260 C328.5,260 328.5,360 360,360" fill="none" stroke="#69B1E4" stroke-width="2"/><rect x="360" y="345" width="80" height="30" rx="6" fill="#fafafa" stroke="none"/><text x="400" y="365" text-anchor="middle" font-size="13" fill="#333" font-family="-apple-system,BlinkMacSystemFont,sans-serif">出库</text><path d="M104.48,0 C194.48000000000002,0 194.48000000000002,420 284.48,420" fill="none" stroke="#77C386" stroke-width="2"/><rect x="180" y="405" width="117" height="30" rx="6" fill="#fafafa" stroke="none"/><text x="238.5" y="425" text-anchor="middle" font-size="13" fill="#333" font-family="-apple-system,BlinkMacSystemFont,sans-serif">库存同步至平台</text><path d="M297,420 C328.5,420 328.5,400 360,400" fill="none" stroke="#77C386" stroke-width="2"/><rect x="360" y="385" width="104" height="30" rx="6" fill="#fafafa" stroke="none"/><text x="412" y="405" text-anchor="middle" font-size="13" fill="#333" font-family="-apple-system,BlinkMacSystemFont,sans-serif">库存同步配置</text><path d="M297,420 C328.5,420 328.5,440 360,440" fill="none" stroke="#77C386" stroke-width="2"/><rect x="360" y="425" width="104" height="30" rx="6" fill="#fafafa" stroke="none"/><text x="412" y="445" text-anchor="middle" font-size="13" fill="#333" font-family="-apple-system,BlinkMacSystemFont,sans-serif">库存同步日志</text>
</svg>