<svg xmlns="http://www.w3.org/2000/svg" xmlns:xlink="http://www.w3.org/1999/xlink"
  viewBox="-156.48000000000002 -1499 1429 2998" width="1429" height="2998"
  style="background:#fff; font-family:-apple-system,BlinkMacSystemFont,'Segoe UI',Roboto,sans-serif;">
<defs></defs>
<rect x="-156.48000000000002" y="-1499" width="1429" height="2998" fill="#fff"/>
<rect x="-72.48" y="-18" width="144.96" height="36" rx="8" fill="#EFF0F0" stroke="none"/><text x="0" y="6" text-anchor="middle" font-size="16" font-weight="bold" fill="#333" font-family="-apple-system,BlinkMacSystemFont,sans-serif">WMS的业务知识</text><path d="M72.48,0 C162.48000000000002,0 162.48000000000002,-1080 252.48000000000002,-1080" fill="none" stroke="#A287E1" stroke-width="2"/><rect x="180" y="-1095" width="104" height="30" rx="6" fill="#fafafa" stroke="none"/><text x="232" y="-1075" text-anchor="middle" font-size="13" fill="#333" font-family="-apple-system,BlinkMacSystemFont,sans-serif">宏观业务数据</text><path d="M284,-1080 C322,-1080 322,-1380 360,-1380" fill="none" stroke="#A287E1" stroke-width="2"/><rect x="360" y="-1395" width="80" height="30" rx="6" fill="#fafafa" stroke="none"/><text x="400" y="-1375" text-anchor="middle" font-size="13" fill="#333" font-family="-apple-system,BlinkMacSystemFont,sans-serif">考察点</text><path d="M440,-1380 C490,-1380 490,-1400 540,-1400" fill="none" stroke="#A287E1" stroke-width="2"/><rect x="540" y="-1415" width="325.52" height="30" rx="6" fill="#fafafa" stroke="none"/><text x="702.76" y="-1395" text-anchor="middle" font-size="13" fill="#333" font-family="-apple-system,BlinkMacSystemFont,sans-serif">1.候选人是否对宏观业务数据了解，是否有全局意识</text><path d="M440,-1380 C490,-1380 490,-1360 540,-1360" fill="none" stroke="#A287E1" stroke-width="2"/><rect x="540" y="-1375" width="535.0799999999999" height="30" rx="6" fill="#fafafa" stroke="none"/><text x="807.54" y="-1355" text-anchor="middle" font-size="13" fill="#333" font-family="-apple-system,BlinkMacSystemFont,sans-serif">2.候选人对业务知识广度和深度的掌握程度，是负责简单业务的WMS，还是复杂业务的WMS</text><path d="M284,-1080 C322,-1080 322,-1040 360,-1040" fill="none" stroke="#A287E1" stroke-width="2"/><rect x="360" y="-1055" width="91" height="30" rx="6" fill="#fafafa" stroke="none"/><text x="405.5" y="-1035" text-anchor="middle" font-size="13" fill="#333" font-family="-apple-system,BlinkMacSystemFont,sans-serif">可能的问题</text><path d="M451,-1040 C495.5,-1040 495.5,-1320 540,-1320" fill="none" stroke="#A287E1" stroke-width="2"/><rect x="540" y="-1335" width="234.51999999999998" height="30" rx="6" fill="#fafafa" stroke="none"/><text x="657.26" y="-1315" text-anchor="middle" font-size="13" fill="#333" font-family="-apple-system,BlinkMacSystemFont,sans-serif">1.公司有多少个仓库，分别在哪里？</text><path d="M451,-1040 C495.5,-1040 495.5,-1280 540,-1280" fill="none" stroke="#A287E1" stroke-width="2"/><rect x="540" y="-1295" width="494.52" height="30" rx="6" fill="#fafafa" stroke="none"/><text x="787.26" y="-1275" text-anchor="middle" font-size="13" fill="#333" font-family="-apple-system,BlinkMacSystemFont,sans-serif">2.仓库有多大面积，有多少库位，有多少货品，有多少员工，日均单量大概多少？</text><path d="M451,-1040 C495.5,-1040 495.5,-1240 540,-1240" fill="none" stroke="#A287E1" stroke-width="2"/><rect x="540" y="-1255" width="273.52" height="30" rx="6" fill="#fafafa" stroke="none"/><text x="676.76" y="-1235" text-anchor="middle" font-size="13" fill="#333" font-family="-apple-system,BlinkMacSystemFont,sans-serif">3.仓库主要承载什么业务？有多少个货主？</text><path d="M813.52,-1240 C766.76,-1240 766.76,-1240 720,-1240" fill="none" stroke="#A287E1" stroke-width="2"/><rect x="720" y="-1255" width="158.08" height="30" rx="6" fill="#fafafa" stroke="none"/><text x="799.04" y="-1235" text-anchor="middle" font-size="13" fill="#333" font-family="-apple-system,BlinkMacSystemFont,sans-serif">2B/2C/退货/加工/生产</text><path d="M451,-1040 C495.5,-1040 495.5,-1080 540,-1080" fill="none" stroke="#A287E1" stroke-width="2"/><rect x="540" y="-1095" width="117.52" height="30" rx="6" fill="#fafafa" stroke="none"/><text x="598.76" y="-1075" text-anchor="middle" font-size="13" fill="#333" font-family="-apple-system,BlinkMacSystemFont,sans-serif">4.有多物流方式</text><path d="M657.52,-1080 C688.76,-1080 688.76,-1200 720,-1200" fill="none" stroke="#A287E1" stroke-width="2"/><rect x="720" y="-1215" width="80" height="30" rx="6" fill="#fafafa" stroke="none"/><text x="760" y="-1195" text-anchor="middle" font-size="13" fill="#333" font-family="-apple-system,BlinkMacSystemFont,sans-serif">顺丰</text><path d="M657.52,-1080 C688.76,-1080 688.76,-1160 720,-1160" fill="none" stroke="#A287E1" stroke-width="2"/><rect x="720" y="-1175" width="80" height="30" rx="6" fill="#fafafa" stroke="none"/><text x="760" y="-1155" text-anchor="middle" font-size="13" fill="#333" font-family="-apple-system,BlinkMacSystemFont,sans-serif">京东</text><path d="M657.52,-1080 C688.76,-1080 688.76,-1120 720,-1120" fill="none" stroke="#A287E1" stroke-width="2"/><rect x="720" y="-1135" width="80" height="30" rx="6" fill="#fafafa" stroke="none"/><text x="760" y="-1115" text-anchor="middle" font-size="13" fill="#333" font-family="-apple-system,BlinkMacSystemFont,sans-serif">韵达</text><path d="M657.52,-1080 C688.76,-1080 688.76,-1080 720,-1080" fill="none" stroke="#A287E1" stroke-width="2"/><rect x="720" y="-1095" width="80" height="30" rx="6" fill="#fafafa" stroke="none"/><text x="760" y="-1075" text-anchor="middle" font-size="13" fill="#333" font-family="-apple-system,BlinkMacSystemFont,sans-serif">UPS</text><path d="M657.52,-1080 C688.76,-1080 688.76,-1040 720,-1040" fill="none" stroke="#A287E1" stroke-width="2"/><rect x="720" y="-1055" width="80" height="30" rx="6" fill="#fafafa" stroke="none"/><text x="760" y="-1035" text-anchor="middle" font-size="13" fill="#333" font-family="-apple-system,BlinkMacSystemFont,sans-serif">DHL</text><path d="M657.52,-1080 C688.76,-1080 688.76,-1000 720,-1000" fill="none" stroke="#A287E1" stroke-width="2"/><rect x="720" y="-1015" width="80" height="30" rx="6" fill="#fafafa" stroke="none"/><text x="760" y="-995" text-anchor="middle" font-size="13" fill="#333" font-family="-apple-system,BlinkMacSystemFont,sans-serif">USPS</text><path d="M657.52,-1080 C688.76,-1080 688.76,-960 720,-960" fill="none" stroke="#A287E1" stroke-width="2"/><rect x="720" y="-975" width="80" height="30" rx="6" fill="#fafafa" stroke="none"/><text x="760" y="-955" text-anchor="middle" font-size="13" fill="#333" font-family="-apple-system,BlinkMacSystemFont,sans-serif">……</text><path d="M451,-1040 C495.5,-1040 495.5,-840 540,-840" fill="none" stroke="#A287E1" stroke-width="2"/><rect x="540" y="-855" width="104.52" height="30" rx="6" fill="#fafafa" stroke="none"/><text x="592.26" y="-835" text-anchor="middle" font-size="13" fill="#333" font-family="-apple-system,BlinkMacSystemFont,sans-serif">5.单量的占比</text><path d="M644.52,-840 C682.26,-840 682.26,-920 720,-920" fill="none" stroke="#A287E1" stroke-width="2"/><rect x="720" y="-935" width="80" height="30" rx="6" fill="#fafafa" stroke="none"/><text x="760" y="-915" text-anchor="middle" font-size="13" fill="#333" font-family="-apple-system,BlinkMacSystemFont,sans-serif">2B</text><path d="M644.52,-840 C682.26,-840 682.26,-880 720,-880" fill="none" stroke="#A287E1" stroke-width="2"/><rect x="720" y="-895" width="80" height="30" rx="6" fill="#fafafa" stroke="none"/><text x="760" y="-875" text-anchor="middle" font-size="13" fill="#333" font-family="-apple-system,BlinkMacSystemFont,sans-serif">2C</text><path d="M644.52,-840 C682.26,-840 682.26,-800 720,-800" fill="none" stroke="#A287E1" stroke-width="2"/><rect x="720" y="-815" width="156" height="30" rx="6" fill="#fafafa" stroke="none"/><text x="798" y="-795" text-anchor="middle" font-size="13" fill="#333" font-family="-apple-system,BlinkMacSystemFont,sans-serif">某个渠道的单有多少？</text><path d="M876,-800 C888,-800 888,-840 900,-840" fill="none" stroke="#A287E1" stroke-width="2"/><rect x="900" y="-855" width="80" height="30" rx="6" fill="#fafafa" stroke="none"/><text x="940" y="-835" text-anchor="middle" font-size="13" fill="#333" font-family="-apple-system,BlinkMacSystemFont,sans-serif">平台单量</text><path d="M876,-800 C888,-800 888,-800 900,-800" fill="none" stroke="#A287E1" stroke-width="2"/><rect x="900" y="-815" width="80" height="30" rx="6" fill="#fafafa" stroke="none"/><text x="940" y="-795" text-anchor="middle" font-size="13" fill="#333" font-family="-apple-system,BlinkMacSystemFont,sans-serif">店铺单量</text><path d="M876,-800 C888,-800 888,-760 900,-760" fill="none" stroke="#A287E1" stroke-width="2"/><rect x="900" y="-775" width="80" height="30" rx="6" fill="#fafafa" stroke="none"/><text x="940" y="-755" text-anchor="middle" font-size="13" fill="#333" font-family="-apple-system,BlinkMacSystemFont,sans-serif">SKU爆品</text><path d="M72.48,0 C162.48000000000002,0 162.48000000000002,-100 252.48000000000002,-100" fill="none" stroke="#6F81DB" stroke-width="2"/><rect x="180" y="-115" width="117" height="30" rx="6" fill="#fafafa" stroke="none"/><text x="238.5" y="-95" text-anchor="middle" font-size="13" fill="#333" font-family="-apple-system,BlinkMacSystemFont,sans-serif">具体的仓储业务</text><path d="M297,-100 C328.5,-100 328.5,-660 360,-660" fill="none" stroke="#6F81DB" stroke-width="2"/><rect x="360" y="-675" width="80" height="30" rx="6" fill="#fafafa" stroke="none"/><text x="400" y="-655" text-anchor="middle" font-size="13" fill="#333" font-family="-apple-system,BlinkMacSystemFont,sans-serif">考察点</text><path d="M440,-660 C490,-660 490,-720 540,-720" fill="none" stroke="#6F81DB" stroke-width="2"/><rect x="540" y="-735" width="442.52" height="30" rx="6" fill="#fafafa" stroke="none"/><text x="761.26" y="-715" text-anchor="middle" font-size="13" fill="#333" font-family="-apple-system,BlinkMacSystemFont,sans-serif">1.对具体的业务操作是否了解，有没有熟练掌握部分的业务流程和场景等</text><path d="M440,-660 C490,-660 490,-680 540,-680" fill="none" stroke="#6F81DB" stroke-width="2"/><rect x="540" y="-695" width="390.52" height="30" rx="6" fill="#fafafa" stroke="none"/><text x="735.26" y="-675" text-anchor="middle" font-size="13" fill="#333" font-family="-apple-system,BlinkMacSystemFont,sans-serif">2.对业务场景的观察，理解是否深刻，是否深度的需求分析意识</text><path d="M440,-660 C490,-660 490,-640 540,-640" fill="none" stroke="#6F81DB" stroke-width="2"/><rect x="540" y="-655" width="429.52" height="30" rx="6" fill="#fafafa" stroke="none"/><text x="754.76" y="-635" text-anchor="middle" font-size="13" fill="#333" font-family="-apple-system,BlinkMacSystemFont,sans-serif">3.对竞品，对产品解决方案的研究和掌握程度如何，能否直接上手干活</text><path d="M440,-660 C490,-660 490,-600 540,-600" fill="none" stroke="#6F81DB" stroke-width="2"/><rect x="540" y="-615" width="611.52" height="30" rx="6" fill="#fafafa" stroke="none"/><text x="845.76" y="-595" text-anchor="middle" font-size="13" fill="#333" font-family="-apple-system,BlinkMacSystemFont,sans-serif">4.对仓库整套逻辑，仓库的运作，运营等方面掌握程度如何，是否有全局意识，有复杂项目的处理经验</text><path d="M297,-100 C328.5,-100 328.5,-20 360,-20" fill="none" stroke="#6F81DB" stroke-width="2"/><rect x="360" y="-35" width="91" height="30" rx="6" fill="#fafafa" stroke="none"/><text x="405.5" y="-15" text-anchor="middle" font-size="13" fill="#333" font-family="-apple-system,BlinkMacSystemFont,sans-serif">可能的问题</text><path d="M451,-20 C495.5,-20 495.5,-440 540,-440" fill="none" stroke="#6F81DB" stroke-width="2"/><rect x="540" y="-455" width="80" height="30" rx="6" fill="#fafafa" stroke="none"/><text x="580" y="-435" text-anchor="middle" font-size="13" fill="#333" font-family="-apple-system,BlinkMacSystemFont,sans-serif">入库</text><path d="M620,-440 C670,-440 670,-560 720,-560" fill="none" stroke="#6F81DB" stroke-width="2"/><rect x="720" y="-575" width="377.52" height="30" rx="6" fill="#fafafa" stroke="none"/><text x="908.76" y="-555" text-anchor="middle" font-size="13" fill="#333" font-family="-apple-system,BlinkMacSystemFont,sans-serif">1.入库到上架有几个环节？一般是怎么收货，质检，上架的？</text><path d="M620,-440 C670,-440 670,-520 720,-520" fill="none" stroke="#6F81DB" stroke-width="2"/><rect x="720" y="-535" width="312.52" height="30" rx="6" fill="#fafafa" stroke="none"/><text x="876.26" y="-515" text-anchor="middle" font-size="13" fill="#333" font-family="-apple-system,BlinkMacSystemFont,sans-serif">2.入库收货多了，少了，实物不符，破损怎么办？</text><path d="M620,-440 C670,-440 670,-480 720,-480" fill="none" stroke="#6F81DB" stroke-width="2"/><rect x="720" y="-495" width="247.51999999999998" height="30" rx="6" fill="#fafafa" stroke="none"/><text x="843.76" y="-475" text-anchor="middle" font-size="13" fill="#333" font-family="-apple-system,BlinkMacSystemFont,sans-serif">3.先收货再质检，还是先质检再收货？</text><path d="M620,-440 C670,-440 670,-440 720,-440" fill="none" stroke="#6F81DB" stroke-width="2"/><rect x="720" y="-455" width="468.52" height="30" rx="6" fill="#fafafa" stroke="none"/><text x="954.26" y="-435" text-anchor="middle" font-size="13" fill="#333" font-family="-apple-system,BlinkMacSystemFont,sans-serif">4.上架的时候是怎么操作的？怎么推荐库位的？怎么知道要上架到什么库位？</text><path d="M620,-440 C670,-440 670,-400 720,-400" fill="none" stroke="#6F81DB" stroke-width="2"/><rect x="720" y="-415" width="325.52" height="30" rx="6" fill="#fafafa" stroke="none"/><text x="882.76" y="-395" text-anchor="middle" font-size="13" fill="#333" font-family="-apple-system,BlinkMacSystemFont,sans-serif">5.入库的批次是什么时候生成的，生成规则是什么？</text><path d="M620,-440 C670,-440 670,-360 720,-360" fill="none" stroke="#6F81DB" stroke-width="2"/><rect x="720" y="-375" width="325.52" height="30" rx="6" fill="#fafafa" stroke="none"/><text x="882.76" y="-355" text-anchor="middle" font-size="13" fill="#333" font-family="-apple-system,BlinkMacSystemFont,sans-serif">6.效期产品和唯一码产品收货的时候有什么不同吗？</text><path d="M620,-440 C670,-440 670,-320 720,-320" fill="none" stroke="#6F81DB" stroke-width="2"/><rect x="720" y="-335" width="247.51999999999998" height="30" rx="6" fill="#fafafa" stroke="none"/><text x="843.76" y="-315" text-anchor="middle" font-size="13" fill="#333" font-family="-apple-system,BlinkMacSystemFont,sans-serif">7.入库环节中的库存变化是怎么样的？</text><path d="M451,-20 C495.5,-20 495.5,-100 540,-100" fill="none" stroke="#6F81DB" stroke-width="2"/><rect x="540" y="-115" width="80" height="30" rx="6" fill="#fafafa" stroke="none"/><text x="580" y="-95" text-anchor="middle" font-size="13" fill="#333" font-family="-apple-system,BlinkMacSystemFont,sans-serif">出库</text><path d="M620,-100 C670,-100 670,-280 720,-280" fill="none" stroke="#6F81DB" stroke-width="2"/><rect x="720" y="-295" width="273.52" height="30" rx="6" fill="#fafafa" stroke="none"/><text x="856.76" y="-275" text-anchor="middle" font-size="13" fill="#333" font-family="-apple-system,BlinkMacSystemFont,sans-serif">1.出库的时候有几种单据？几种作业方式？</text><path d="M620,-100 C670,-100 670,-240 720,-240" fill="none" stroke="#6F81DB" stroke-width="2"/><rect x="720" y="-255" width="312.52" height="30" rx="6" fill="#fafafa" stroke="none"/><text x="876.26" y="-235" text-anchor="middle" font-size="13" fill="#333" font-family="-apple-system,BlinkMacSystemFont,sans-serif">2.波次的策略是怎么做的？怎么会考虑哪些维度？</text><path d="M620,-100 C670,-100 670,-200 720,-200" fill="none" stroke="#6F81DB" stroke-width="2"/><rect x="720" y="-215" width="299.52" height="30" rx="6" fill="#fafafa" stroke="none"/><text x="869.76" y="-195" text-anchor="middle" font-size="13" fill="#333" font-family="-apple-system,BlinkMacSystemFont,sans-serif">3.出库的流程有几个环节，一般是怎么出库的？</text><path d="M620,-100 C670,-100 670,-160 720,-160" fill="none" stroke="#6F81DB" stroke-width="2"/><rect x="720" y="-175" width="390.52" height="30" rx="6" fill="#fafafa" stroke="none"/><text x="915.26" y="-155" text-anchor="middle" font-size="13" fill="#333" font-family="-apple-system,BlinkMacSystemFont,sans-serif">4.拣货是用什么方式拣货？先拣后分和边拣边分是区别是什么？</text><path d="M620,-100 C670,-100 670,-120 720,-120" fill="none" stroke="#6F81DB" stroke-width="2"/><rect x="720" y="-135" width="273.52" height="30" rx="6" fill="#fafafa" stroke="none"/><text x="856.76" y="-115" text-anchor="middle" font-size="13" fill="#333" font-family="-apple-system,BlinkMacSystemFont,sans-serif">5.出库过程中库存的变化逻辑是怎么样的？</text><path d="M620,-100 C670,-100 670,-80 720,-80" fill="none" stroke="#6F81DB" stroke-width="2"/><rect x="720" y="-95" width="338.52" height="30" rx="6" fill="#fafafa" stroke="none"/><text x="889.26" y="-75" text-anchor="middle" font-size="13" fill="#333" font-family="-apple-system,BlinkMacSystemFont,sans-serif">6.推荐库位（分配库存）的时候是按什么逻辑推荐的？</text><path d="M620,-100 C670,-100 670,-40 720,-40" fill="none" stroke="#6F81DB" stroke-width="2"/><rect x="720" y="-55" width="299.52" height="30" rx="6" fill="#fafafa" stroke="none"/><text x="869.76" y="-35" text-anchor="middle" font-size="13" fill="#333" font-family="-apple-system,BlinkMacSystemFont,sans-serif">7.复核的时候有几种方式，怎么提升复核的效率</text><path d="M620,-100 C670,-100 670,0 720,0" fill="none" stroke="#6F81DB" stroke-width="2"/><rect x="720" y="-15" width="156.51999999999998" height="30" rx="6" fill="#fafafa" stroke="none"/><text x="798.26" y="5" text-anchor="middle" font-size="13" fill="#333" font-family="-apple-system,BlinkMacSystemFont,sans-serif">8.拣货缺货怎么处理？</text><path d="M620,-100 C670,-100 670,40 720,40" fill="none" stroke="#6F81DB" stroke-width="2"/><rect x="720" y="25" width="234.51999999999998" height="30" rx="6" fill="#fafafa" stroke="none"/><text x="837.26" y="45" text-anchor="middle" font-size="13" fill="#333" font-family="-apple-system,BlinkMacSystemFont,sans-serif">9.库存推荐的时候库存不足怎么办？</text><path d="M620,-100 C670,-100 670,80 720,80" fill="none" stroke="#6F81DB" stroke-width="2"/><rect x="720" y="65" width="163.28" height="30" rx="6" fill="#fafafa" stroke="none"/><text x="801.64" y="85" text-anchor="middle" font-size="13" fill="#333" font-family="-apple-system,BlinkMacSystemFont,sans-serif">10.订单取消了怎么办？</text><path d="M451,-20 C495.5,-20 495.5,240 540,240" fill="none" stroke="#6F81DB" stroke-width="2"/><rect x="540" y="225" width="80" height="30" rx="6" fill="#fafafa" stroke="none"/><text x="580" y="245" text-anchor="middle" font-size="13" fill="#333" font-family="-apple-system,BlinkMacSystemFont,sans-serif">库内</text><path d="M620,240 C670,240 670,120 720,120" fill="none" stroke="#6F81DB" stroke-width="2"/><rect x="720" y="105" width="156.51999999999998" height="30" rx="6" fill="#fafafa" stroke="none"/><text x="798.26" y="125" text-anchor="middle" font-size="13" fill="#333" font-family="-apple-system,BlinkMacSystemFont,sans-serif">1.盘点的方式有几种？</text><path d="M620,240 C670,240 670,160 720,160" fill="none" stroke="#6F81DB" stroke-width="2"/><rect x="720" y="145" width="189.28" height="30" rx="6" fill="#fafafa" stroke="none"/><text x="814.64" y="165" text-anchor="middle" font-size="13" fill="#333" font-family="-apple-system,BlinkMacSystemFont,sans-serif">2.移库/移位的方式有几种？</text><path d="M620,240 C670,240 670,200 720,200" fill="none" stroke="#6F81DB" stroke-width="2"/><rect x="720" y="185" width="143.51999999999998" height="30" rx="6" fill="#fafafa" stroke="none"/><text x="791.76" y="205" text-anchor="middle" font-size="13" fill="#333" font-family="-apple-system,BlinkMacSystemFont,sans-serif">3.补货是怎么做的？</text><path d="M620,240 C670,240 670,240 720,240" fill="none" stroke="#6F81DB" stroke-width="2"/><rect x="720" y="225" width="182.51999999999998" height="30" rx="6" fill="#fafafa" stroke="none"/><text x="811.26" y="245" text-anchor="middle" font-size="13" fill="#333" font-family="-apple-system,BlinkMacSystemFont,sans-serif">4.盘点的时候库存怎么变化</text><path d="M620,240 C670,240 670,280 720,280" fill="none" stroke="#6F81DB" stroke-width="2"/><rect x="720" y="265" width="215.28" height="30" rx="6" fill="#fafafa" stroke="none"/><text x="827.64" y="285" text-anchor="middle" font-size="13" fill="#333" font-family="-apple-system,BlinkMacSystemFont,sans-serif">5.移库/移位的时候库存怎么变化</text><path d="M620,240 C670,240 670,320 720,320" fill="none" stroke="#6F81DB" stroke-width="2"/><rect x="720" y="305" width="182.51999999999998" height="30" rx="6" fill="#fafafa" stroke="none"/><text x="811.26" y="325" text-anchor="middle" font-size="13" fill="#333" font-family="-apple-system,BlinkMacSystemFont,sans-serif">6.补货的时候库存怎么变化</text><path d="M620,240 C670,240 670,360 720,360" fill="none" stroke="#6F81DB" stroke-width="2"/><rect x="720" y="345" width="286.52" height="30" rx="6" fill="#fafafa" stroke="none"/><text x="863.26" y="365" text-anchor="middle" font-size="13" fill="#333" font-family="-apple-system,BlinkMacSystemFont,sans-serif">7.库存查询有几个维度？怎么展示库存数据的</text><path d="M451,-20 C495.5,-20 495.5,460 540,460" fill="none" stroke="#6F81DB" stroke-width="2"/><rect x="540" y="445" width="80" height="30" rx="6" fill="#fafafa" stroke="none"/><text x="580" y="465" text-anchor="middle" font-size="13" fill="#333" font-family="-apple-system,BlinkMacSystemFont,sans-serif">基础数据</text><path d="M620,460 C670,460 670,400 720,400" fill="none" stroke="#6F81DB" stroke-width="2"/><rect x="720" y="385" width="299.52" height="30" rx="6" fill="#fafafa" stroke="none"/><text x="869.76" y="405" text-anchor="middle" font-size="13" fill="#333" font-family="-apple-system,BlinkMacSystemFont,sans-serif">1.仓库有几种库区，几种库区类型，多少库位？</text><path d="M620,460 C670,460 670,440 720,440" fill="none" stroke="#6F81DB" stroke-width="2"/><rect x="720" y="425" width="299.52" height="30" rx="6" fill="#fafafa" stroke="none"/><text x="869.76" y="445" text-anchor="middle" font-size="13" fill="#333" font-family="-apple-system,BlinkMacSystemFont,sans-serif">2.一些控制信息挂在什么维度，是怎么处理的？</text><path d="M620,460 C670,460 670,480 720,480" fill="none" stroke="#6F81DB" stroke-width="2"/><rect x="720" y="465" width="280.8" height="30" rx="6" fill="#fafafa" stroke="none"/><text x="860.4" y="485" text-anchor="middle" font-size="13" fill="#333" font-family="-apple-system,BlinkMacSystemFont,sans-serif">3.有没有使用ABC分类法，货物怎么储存的？</text><path d="M620,460 C670,460 670,520 720,520" fill="none" stroke="#6F81DB" stroke-width="2"/><rect x="720" y="505" width="293.28" height="30" rx="6" fill="#fafafa" stroke="none"/><text x="866.64" y="525" text-anchor="middle" font-size="13" fill="#333" font-family="-apple-system,BlinkMacSystemFont,sans-serif">4.有没有使用多单位，容器/托盘等存储单位？</text><path d="M72.48,0 C162.48000000000002,0 162.48000000000002,980 252.48000000000002,980" fill="none" stroke="#6EC4C4" stroke-width="2"/><rect x="180" y="965" width="130" height="30" rx="6" fill="#fafafa" stroke="none"/><text x="245" y="985" text-anchor="middle" font-size="13" fill="#333" font-family="-apple-system,BlinkMacSystemFont,sans-serif">上下游系统的业务</text><path d="M310,980 C335,980 335,600 360,600" fill="none" stroke="#6EC4C4" stroke-width="2"/><rect x="360" y="585" width="80" height="30" rx="6" fill="#fafafa" stroke="none"/><text x="400" y="605" text-anchor="middle" font-size="13" fill="#333" font-family="-apple-system,BlinkMacSystemFont,sans-serif">考察点</text><path d="M440,600 C490,600 490,560 540,560" fill="none" stroke="#6EC4C4" stroke-width="2"/><rect x="540" y="545" width="481.52" height="30" rx="6" fill="#fafafa" stroke="none"/><text x="780.76" y="565" text-anchor="middle" font-size="13" fill="#333" font-family="-apple-system,BlinkMacSystemFont,sans-serif">1.全局意识是否到位，除了关注自己一亩三分地之外，还会拓展自己的能力边界</text><path d="M440,600 C490,600 490,600 540,600" fill="none" stroke="#6EC4C4" stroke-width="2"/><rect x="540" y="585" width="273.52" height="30" rx="6" fill="#fafafa" stroke="none"/><text x="676.76" y="605" text-anchor="middle" font-size="13" fill="#333" font-family="-apple-system,BlinkMacSystemFont,sans-serif">2.对上下游的业务是否了解，能力圈有多少</text><path d="M440,600 C490,600 490,640 540,640" fill="none" stroke="#6EC4C4" stroke-width="2"/><rect x="540" y="625" width="377.52" height="30" rx="6" fill="#fafafa" stroke="none"/><text x="728.76" y="645" text-anchor="middle" font-size="13" fill="#333" font-family="-apple-system,BlinkMacSystemFont,sans-serif">3.整体学习能力如何，能否快速切入一个新领域，新的方向等</text><path d="M310,980 C335,980 335,1040 360,1040" fill="none" stroke="#6EC4C4" stroke-width="2"/><rect x="360" y="1025" width="91" height="30" rx="6" fill="#fafafa" stroke="none"/><text x="405.5" y="1045" text-anchor="middle" font-size="13" fill="#333" font-family="-apple-system,BlinkMacSystemFont,sans-serif">可能的问题</text><path d="M451,1040 C495.5,1040 495.5,680 540,680" fill="none" stroke="#6EC4C4" stroke-width="2"/><rect x="540" y="665" width="176.8" height="30" rx="6" fill="#fafafa" stroke="none"/><text x="628.4" y="685" text-anchor="middle" font-size="13" fill="#333" font-family="-apple-system,BlinkMacSystemFont,sans-serif">1.WMS的上游系统有几个？</text><path d="M451,1040 C495.5,1040 495.5,720 540,720" fill="none" stroke="#6EC4C4" stroke-width="2"/><rect x="540" y="705" width="273.52" height="30" rx="6" fill="#fafafa" stroke="none"/><text x="676.76" y="725" text-anchor="middle" font-size="13" fill="#333" font-family="-apple-system,BlinkMacSystemFont,sans-serif">2.入库的时候在什么节点反馈数据给上游？</text><path d="M451,1040 C495.5,1040 495.5,760 540,760" fill="none" stroke="#6EC4C4" stroke-width="2"/><rect x="540" y="745" width="273.52" height="30" rx="6" fill="#fafafa" stroke="none"/><text x="676.76" y="765" text-anchor="middle" font-size="13" fill="#333" font-family="-apple-system,BlinkMacSystemFont,sans-serif">3.出库的时候在什么节点反馈数据给上游？</text><path d="M451,1040 C495.5,1040 495.5,800 540,800" fill="none" stroke="#6EC4C4" stroke-width="2"/><rect x="540" y="785" width="358.8" height="30" rx="6" fill="#fafafa" stroke="none"/><text x="719.4" y="805" text-anchor="middle" font-size="13" fill="#333" font-family="-apple-system,BlinkMacSystemFont,sans-serif">4.上游推送单据到WMS的时候，可能会因为什么原因失败？</text><path d="M451,1040 C495.5,1040 495.5,840 540,840" fill="none" stroke="#6EC4C4" stroke-width="2"/><rect x="540" y="825" width="436.8" height="30" rx="6" fill="#fafafa" stroke="none"/><text x="758.4" y="845" text-anchor="middle" font-size="13" fill="#333" font-family="-apple-system,BlinkMacSystemFont,sans-serif">5.WMS反馈数据给上游系统的时候，失败了怎么处理？怎么知道失败了？</text><path d="M451,1040 C495.5,1040 495.5,920 540,920" fill="none" stroke="#6EC4C4" stroke-width="2"/><rect x="540" y="905" width="293.8" height="30" rx="6" fill="#fafafa" stroke="none"/><text x="686.9" y="925" text-anchor="middle" font-size="13" fill="#333" font-family="-apple-system,BlinkMacSystemFont,sans-serif">6.WMS的电子面单（物流面单）是从哪里来的？</text><path d="M833.8,920 C776.9,920 776.9,880 720,880" fill="none" stroke="#6EC4C4" stroke-width="2"/><rect x="720" y="865" width="130" height="30" rx="6" fill="#fafafa" stroke="none"/><text x="785" y="885" text-anchor="middle" font-size="13" fill="#333" font-family="-apple-system,BlinkMacSystemFont,sans-serif">获取失败了怎么办</text><path d="M833.8,920 C776.9,920 776.9,920 720,920" fill="none" stroke="#6EC4C4" stroke-width="2"/><rect x="720" y="905" width="117" height="30" rx="6" fill="#fafafa" stroke="none"/><text x="778.5" y="925" text-anchor="middle" font-size="13" fill="#333" font-family="-apple-system,BlinkMacSystemFont,sans-serif">打印不对怎么办</text><path d="M833.8,920 C776.9,920 776.9,960 720,960" fill="none" stroke="#6EC4C4" stroke-width="2"/><rect x="720" y="945" width="182" height="30" rx="6" fill="#fafafa" stroke="none"/><text x="811" y="965" text-anchor="middle" font-size="13" fill="#333" font-family="-apple-system,BlinkMacSystemFont,sans-serif">要在面单上定制内容怎么办</text><path d="M451,1040 C495.5,1040 495.5,1000 540,1000" fill="none" stroke="#6EC4C4" stroke-width="2"/><rect x="540" y="985" width="288.08000000000004" height="30" rx="6" fill="#fafafa" stroke="none"/><text x="684.04" y="1005" text-anchor="middle" font-size="13" fill="#333" font-family="-apple-system,BlinkMacSystemFont,sans-serif">7.有没有做过PDA，PDA主要有什么功能模块？</text><path d="M451,1040 C495.5,1040 495.5,1120 540,1120" fill="none" stroke="#6EC4C4" stroke-width="2"/><rect x="540" y="1105" width="481.52" height="30" rx="6" fill="#fafafa" stroke="none"/><text x="780.76" y="1125" text-anchor="middle" font-size="13" fill="#333" font-family="-apple-system,BlinkMacSystemFont,sans-serif">8.打印设备，怎么提升打印速度？怎么提升出面单的效率？怎么确保不会贴错？</text><path d="M1021.52,1120 C870.76,1120 870.76,1040 720,1040" fill="none" stroke="#6EC4C4" stroke-width="2"/><rect x="720" y="1025" width="91" height="30" rx="6" fill="#fafafa" stroke="none"/><text x="765.5" y="1045" text-anchor="middle" font-size="13" fill="#333" font-family="-apple-system,BlinkMacSystemFont,sans-serif">打印的尺寸</text><path d="M1021.52,1120 C870.76,1120 870.76,1080 720,1080" fill="none" stroke="#6EC4C4" stroke-width="2"/><rect x="720" y="1065" width="91" height="30" rx="6" fill="#fafafa" stroke="none"/><text x="765.5" y="1085" text-anchor="middle" font-size="13" fill="#333" font-family="-apple-system,BlinkMacSystemFont,sans-serif">打印的模板</text><path d="M1021.52,1120 C870.76,1120 870.76,1120 720,1120" fill="none" stroke="#6EC4C4" stroke-width="2"/><rect x="720" y="1105" width="91" height="30" rx="6" fill="#fafafa" stroke="none"/><text x="765.5" y="1125" text-anchor="middle" font-size="13" fill="#333" font-family="-apple-system,BlinkMacSystemFont,sans-serif">打印的张数</text><path d="M1021.52,1120 C870.76,1120 870.76,1160 720,1160" fill="none" stroke="#6EC4C4" stroke-width="2"/><rect x="720" y="1145" width="91" height="30" rx="6" fill="#fafafa" stroke="none"/><text x="765.5" y="1165" text-anchor="middle" font-size="13" fill="#333" font-family="-apple-system,BlinkMacSystemFont,sans-serif">打印的流程</text><path d="M1021.52,1120 C870.76,1120 870.76,1200 720,1200" fill="none" stroke="#6EC4C4" stroke-width="2"/><rect x="720" y="1185" width="91" height="30" rx="6" fill="#fafafa" stroke="none"/><text x="765.5" y="1205" text-anchor="middle" font-size="13" fill="#333" font-family="-apple-system,BlinkMacSystemFont,sans-serif">打印的插件</text><path d="M811,1200 C855.5,1200 855.5,1200 900,1200" fill="none" stroke="#6EC4C4" stroke-width="2"/><rect x="900" y="1185" width="80" height="30" rx="6" fill="#fafafa" stroke="none"/><text x="940" y="1205" text-anchor="middle" font-size="13" fill="#333" font-family="-apple-system,BlinkMacSystemFont,sans-serif">Lodop</text><path d="M451,1040 C495.5,1040 495.5,1320 540,1320" fill="none" stroke="#6EC4C4" stroke-width="2"/><rect x="540" y="1305" width="215.8" height="30" rx="6" fill="#fafafa" stroke="none"/><text x="647.9" y="1325" text-anchor="middle" font-size="13" fill="#333" font-family="-apple-system,BlinkMacSystemFont,sans-serif">9.有没有接触过WCS相关的内容？</text><path d="M755.8,1320 C737.9,1320 737.9,1240 720,1240" fill="none" stroke="#6EC4C4" stroke-width="2"/><rect x="720" y="1225" width="85.28" height="30" rx="6" fill="#fafafa" stroke="none"/><text x="762.64" y="1245" text-anchor="middle" font-size="13" fill="#333" font-family="-apple-system,BlinkMacSystemFont,sans-serif">AGV机器人</text><path d="M755.8,1320 C737.9,1320 737.9,1280 720,1280" fill="none" stroke="#6EC4C4" stroke-width="2"/><rect x="720" y="1265" width="91" height="30" rx="6" fill="#fafafa" stroke="none"/><text x="765.5" y="1285" text-anchor="middle" font-size="13" fill="#333" font-family="-apple-system,BlinkMacSystemFont,sans-serif">电子播种墙</text><path d="M755.8,1320 C737.9,1320 737.9,1320 720,1320" fill="none" stroke="#6EC4C4" stroke-width="2"/><rect x="720" y="1305" width="91" height="30" rx="6" fill="#fafafa" stroke="none"/><text x="765.5" y="1325" text-anchor="middle" font-size="13" fill="#333" font-family="-apple-system,BlinkMacSystemFont,sans-serif">自动分拣机</text><path d="M755.8,1320 C737.9,1320 737.9,1360 720,1360" fill="none" stroke="#6EC4C4" stroke-width="2"/><rect x="720" y="1345" width="91" height="30" rx="6" fill="#fafafa" stroke="none"/><text x="765.5" y="1365" text-anchor="middle" font-size="13" fill="#333" font-family="-apple-system,BlinkMacSystemFont,sans-serif">自动称重机</text><path d="M755.8,1320 C737.9,1320 737.9,1400 720,1400" fill="none" stroke="#6EC4C4" stroke-width="2"/><rect x="720" y="1385" width="91" height="30" rx="6" fill="#fafafa" stroke="none"/><text x="765.5" y="1405" text-anchor="middle" font-size="13" fill="#333" font-family="-apple-system,BlinkMacSystemFont,sans-serif">自动打包机</text>
</svg>