<svg xmlns="http://www.w3.org/2000/svg" xmlns:xlink="http://www.w3.org/1999/xlink"
  viewBox="-168 -1899 1778.36 3798" width="1778.36" height="3798"
  style="background:#fff; font-family:-apple-system,BlinkMacSystemFont,'Segoe UI',Roboto,sans-serif;">
<defs></defs>
<rect x="-168" y="-1899" width="1778.36" height="3798" fill="#fff"/>
<rect x="-84" y="-18" width="168" height="36" rx="8" fill="rgb(245, 245, 245)" stroke="none"/><text x="0" y="6" text-anchor="middle" font-size="16" font-weight="bold" fill="#333" font-family="-apple-system,BlinkMacSystemFont,sans-serif">跨境电商业务知识</text><path d="M84,0 C174,0 174,-1680 264,-1680" fill="none" stroke="#A287E1" stroke-width="2"/><rect x="180" y="-1695" width="117" height="30" rx="6" fill="#fafafa" stroke="none"/><text x="238.5" y="-1675" text-anchor="middle" font-size="13" fill="#333" font-family="-apple-system,BlinkMacSystemFont,sans-serif">跨境电商的定义</text><path d="M297,-1680 C328.5,-1680 328.5,-1760 360,-1760" fill="none" stroke="#A287E1" stroke-width="2"/><rect x="360" y="-1775" width="117" height="30" rx="6" fill="#fafafa" stroke="none"/><text x="418.5" y="-1755" text-anchor="middle" font-size="13" fill="#333" font-family="-apple-system,BlinkMacSystemFont,sans-serif">跨境电商的分类</text><path d="M477,-1760 C508.5,-1760 508.5,-1800 540,-1800" fill="none" stroke="#A287E1" stroke-width="2"/><rect x="540" y="-1815" width="80" height="30" rx="6" fill="#fafafa" stroke="none"/><text x="580" y="-1795" text-anchor="middle" font-size="13" fill="#333" font-family="-apple-system,BlinkMacSystemFont,sans-serif"></text><path d="M477,-1760 C508.5,-1760 508.5,-1760 540,-1760" fill="none" stroke="#A287E1" stroke-width="2"/><rect x="540" y="-1775" width="814.8399999999999" height="30" rx="6" fill="#fafafa" stroke="none"/><text x="947.42" y="-1755" text-anchor="middle" font-size="13" fill="#333" font-family="-apple-system,BlinkMacSystemFont,sans-serif">我们常见的，常听说过的跨境电商大卖，基本上都是指B2C的跨境电商卖家，但是实际上从货值和货量上来说，B2B出口的占比要远超过B2C</text><path d="M477,-1760 C508.5,-1760 508.5,-1720 540,-1720" fill="none" stroke="#A287E1" stroke-width="2"/><rect x="540" y="-1735" width="644.15" height="30" rx="6" fill="#fafafa" stroke="none"/><text x="862.075" y="-1715" text-anchor="middle" font-size="13" fill="#333" font-family="-apple-system,BlinkMacSystemFont,sans-serif">2021年B2B跨境贸易额占跨境电商贸易总额的77%，具有成交量大、订单源 稳定等特征，是各国间贸易主赛场</text><path d="M297,-1680 C328.5,-1680 328.5,-1640 360,-1640" fill="none" stroke="#A287E1" stroke-width="2"/><rect x="360" y="-1655" width="463.31999999999994" height="30" rx="6" fill="#fafafa" stroke="none"/><text x="591.66" y="-1635" text-anchor="middle" font-size="13" fill="#333" font-family="-apple-system,BlinkMacSystemFont,sans-serif">跨境电商的核心是“跨境”，目前大家普遍的认知“跨境电商”≈“跨境出口电商”</text><path d="M823.3199999999999,-1640 C681.66,-1640 681.66,-1680 540,-1680" fill="none" stroke="#A287E1" stroke-width="2"/><rect x="540" y="-1695" width="377" height="30" rx="6" fill="#fafafa" stroke="none"/><text x="728.5" y="-1675" text-anchor="middle" font-size="13" fill="#333" font-family="-apple-system,BlinkMacSystemFont,sans-serif">但是要注意，传统的外贸（国际贸易）和跨境电商还不太一样</text><path d="M823.3199999999999,-1640 C681.66,-1640 681.66,-1640 540,-1640" fill="none" stroke="#A287E1" stroke-width="2"/><rect x="540" y="-1655" width="273" height="30" rx="6" fill="#fafafa" stroke="none"/><text x="676.5" y="-1635" text-anchor="middle" font-size="13" fill="#333" font-family="-apple-system,BlinkMacSystemFont,sans-serif">一个是电商业务，一个是传统的面对面业务</text><path d="M823.3199999999999,-1640 C681.66,-1640 681.66,-1600 540,-1600" fill="none" stroke="#A287E1" stroke-width="2"/><rect x="540" y="-1615" width="80" height="30" rx="6" fill="#fafafa" stroke="none"/><text x="580" y="-1595" text-anchor="middle" font-size="13" fill="#333" font-family="-apple-system,BlinkMacSystemFont,sans-serif"></text><path d="M297,-1680 C328.5,-1680 328.5,-1560 360,-1560" fill="none" stroke="#A287E1" stroke-width="2"/><rect x="360" y="-1575" width="143" height="30" rx="6" fill="#fafafa" stroke="none"/><text x="431.5" y="-1555" text-anchor="middle" font-size="13" fill="#333" font-family="-apple-system,BlinkMacSystemFont,sans-serif">跨境电商的发展阶段</text><path d="M503,-1560 C521.5,-1560 521.5,-1560 540,-1560" fill="none" stroke="#A287E1" stroke-width="2"/><rect x="540" y="-1575" width="80" height="30" rx="6" fill="#fafafa" stroke="none"/><text x="580" y="-1555" text-anchor="middle" font-size="13" fill="#333" font-family="-apple-system,BlinkMacSystemFont,sans-serif"></text><path d="M84,0 C174,0 174,-1500 264,-1500" fill="none" stroke="#B1C774" stroke-width="2"/><rect x="180" y="-1515" width="143" height="30" rx="6" fill="#fafafa" stroke="none"/><text x="251.5" y="-1495" text-anchor="middle" font-size="13" fill="#333" font-family="-apple-system,BlinkMacSystemFont,sans-serif">跨境出口的大概流程</text><path d="M323,-1500 C341.5,-1500 341.5,-1520 360,-1520" fill="none" stroke="#B1C774" stroke-width="2"/><rect x="360" y="-1535" width="169" height="30" rx="6" fill="#fafafa" stroke="none"/><text x="444.5" y="-1515" text-anchor="middle" font-size="13" fill="#333" font-family="-apple-system,BlinkMacSystemFont,sans-serif">中国跨境供应链管理流程</text><path d="M529,-1520 C534.5,-1520 534.5,-1520 540,-1520" fill="none" stroke="#B1C774" stroke-width="2"/><rect x="540" y="-1535" width="80" height="30" rx="6" fill="#fafafa" stroke="none"/><text x="580" y="-1515" text-anchor="middle" font-size="13" fill="#333" font-family="-apple-system,BlinkMacSystemFont,sans-serif"></text><path d="M323,-1500 C341.5,-1500 341.5,-1480 360,-1480" fill="none" stroke="#B1C774" stroke-width="2"/><rect x="360" y="-1495" width="254.27999999999997" height="30" rx="6" fill="#fafafa" stroke="none"/><text x="487.14" y="-1475" text-anchor="middle" font-size="13" fill="#333" font-family="-apple-system,BlinkMacSystemFont,sans-serif">“揽、仓、关、干、关、转、配”7个流程</text><path d="M614.28,-1480 C577.14,-1480 577.14,-1480 540,-1480" fill="none" stroke="#B1C774" stroke-width="2"/><rect x="540" y="-1495" width="80" height="30" rx="6" fill="#fafafa" stroke="none"/><text x="580" y="-1475" text-anchor="middle" font-size="13" fill="#333" font-family="-apple-system,BlinkMacSystemFont,sans-serif"></text><path d="M84,0 C174,0 174,-1100 264,-1100" fill="none" stroke="#DFB85D" stroke-width="2"/><rect x="180" y="-1115" width="208" height="30" rx="6" fill="#fafafa" stroke="none"/><text x="284" y="-1095" text-anchor="middle" font-size="13" fill="#333" font-family="-apple-system,BlinkMacSystemFont,sans-serif">跨境电商与国内电商的一些区别</text><path d="M388,-1100 C374,-1100 374,-1400 360,-1400" fill="none" stroke="#DFB85D" stroke-width="2"/><rect x="360" y="-1415" width="143" height="30" rx="6" fill="#fafafa" stroke="none"/><text x="431.5" y="-1395" text-anchor="middle" font-size="13" fill="#333" font-family="-apple-system,BlinkMacSystemFont,sans-serif">不同关境的交易主体</text><path d="M503,-1400 C521.5,-1400 521.5,-1440 540,-1440" fill="none" stroke="#DFB85D" stroke-width="2"/><rect x="540" y="-1455" width="156" height="30" rx="6" fill="#fafafa" stroke="none"/><text x="618" y="-1435" text-anchor="middle" font-size="13" fill="#333" font-family="-apple-system,BlinkMacSystemFont,sans-serif">国内电商是同一个关境</text><path d="M503,-1400 C521.5,-1400 521.5,-1400 540,-1400" fill="none" stroke="#DFB85D" stroke-width="2"/><rect x="540" y="-1415" width="169" height="30" rx="6" fill="#fafafa" stroke="none"/><text x="624.5" y="-1395" text-anchor="middle" font-size="13" fill="#333" font-family="-apple-system,BlinkMacSystemFont,sans-serif">跨境电商则是不同的关境</text><path d="M503,-1400 C521.5,-1400 521.5,-1360 540,-1360" fill="none" stroke="#DFB85D" stroke-width="2"/><rect x="540" y="-1375" width="182" height="30" rx="6" fill="transparent" stroke="#BFBFBF"/><text x="631" y="-1355" text-anchor="middle" font-size="13" fill="#333" font-family="-apple-system,BlinkMacSystemFont,sans-serif">第一反应就是和海关有关系</text><path d="M388,-1100 C374,-1100 374,-1220 360,-1220" fill="none" stroke="#DFB85D" stroke-width="2"/><rect x="360" y="-1235" width="195" height="30" rx="6" fill="#fafafa" stroke="none"/><text x="457.5" y="-1215" text-anchor="middle" font-size="13" fill="#333" font-family="-apple-system,BlinkMacSystemFont,sans-serif">文化差异带来运作方式不一样</text><path d="M555,-1220 C547.5,-1220 547.5,-1320 540,-1320" fill="none" stroke="#DFB85D" stroke-width="2"/><rect x="540" y="-1335" width="80" height="30" rx="6" fill="#fafafa" stroke="none"/><text x="580" y="-1315" text-anchor="middle" font-size="13" fill="#333" font-family="-apple-system,BlinkMacSystemFont,sans-serif">平台规则</text><path d="M555,-1220 C547.5,-1220 547.5,-1280 540,-1280" fill="none" stroke="#DFB85D" stroke-width="2"/><rect x="540" y="-1295" width="104" height="30" rx="6" fill="#fafafa" stroke="none"/><text x="592" y="-1275" text-anchor="middle" font-size="13" fill="#333" font-family="-apple-system,BlinkMacSystemFont,sans-serif">用户购物习惯</text><path d="M555,-1220 C547.5,-1220 547.5,-1240 540,-1240" fill="none" stroke="#DFB85D" stroke-width="2"/><rect x="540" y="-1255" width="80" height="30" rx="6" fill="#fafafa" stroke="none"/><text x="580" y="-1235" text-anchor="middle" font-size="13" fill="#333" font-family="-apple-system,BlinkMacSystemFont,sans-serif">法律法规</text><path d="M620,-1240 C670,-1240 670,-1240 720,-1240" fill="none" stroke="#DFB85D" stroke-width="2"/><rect x="720" y="-1255" width="91" height="30" rx="6" fill="#fafafa" stroke="none"/><text x="765.5" y="-1235" text-anchor="middle" font-size="13" fill="#333" font-family="-apple-system,BlinkMacSystemFont,sans-serif">退换货政策</text><path d="M555,-1220 C547.5,-1220 547.5,-1200 540,-1200" fill="none" stroke="#DFB85D" stroke-width="2"/><rect x="540" y="-1215" width="80" height="30" rx="6" fill="#fafafa" stroke="none"/><text x="580" y="-1195" text-anchor="middle" font-size="13" fill="#333" font-family="-apple-system,BlinkMacSystemFont,sans-serif">商品偏好</text><path d="M555,-1220 C547.5,-1220 547.5,-1160 540,-1160" fill="none" stroke="#DFB85D" stroke-width="2"/><rect x="540" y="-1175" width="80" height="30" rx="6" fill="#fafafa" stroke="none"/><text x="580" y="-1155" text-anchor="middle" font-size="13" fill="#333" font-family="-apple-system,BlinkMacSystemFont,sans-serif">语言</text><path d="M555,-1220 C547.5,-1220 547.5,-1120 540,-1120" fill="none" stroke="#DFB85D" stroke-width="2"/><rect x="540" y="-1135" width="80" height="30" rx="6" fill="#fafafa" stroke="none"/><text x="580" y="-1115" text-anchor="middle" font-size="13" fill="#333" font-family="-apple-system,BlinkMacSystemFont,sans-serif">……</text><path d="M388,-1100 C374,-1100 374,-1000 360,-1000" fill="none" stroke="#DFB85D" stroke-width="2"/><rect x="360" y="-1015" width="143" height="30" rx="6" fill="#fafafa" stroke="none"/><text x="431.5" y="-995" text-anchor="middle" font-size="13" fill="#333" font-family="-apple-system,BlinkMacSystemFont,sans-serif">支付结算方式不一样</text><path d="M503,-1000 C521.5,-1000 521.5,-1080 540,-1080" fill="none" stroke="#DFB85D" stroke-width="2"/><rect x="540" y="-1095" width="80" height="30" rx="6" fill="#fafafa" stroke="none"/><text x="580" y="-1075" text-anchor="middle" font-size="13" fill="#333" font-family="-apple-system,BlinkMacSystemFont,sans-serif">出口退税</text><path d="M503,-1000 C521.5,-1000 521.5,-1040 540,-1040" fill="none" stroke="#DFB85D" stroke-width="2"/><rect x="540" y="-1055" width="80" height="30" rx="6" fill="#fafafa" stroke="none"/><text x="580" y="-1035" text-anchor="middle" font-size="13" fill="#333" font-family="-apple-system,BlinkMacSystemFont,sans-serif">进口缴税</text><path d="M503,-1000 C521.5,-1000 521.5,-1000 540,-1000" fill="none" stroke="#DFB85D" stroke-width="2"/><rect x="540" y="-1015" width="80" height="30" rx="6" fill="#fafafa" stroke="none"/><text x="580" y="-995" text-anchor="middle" font-size="13" fill="#333" font-family="-apple-system,BlinkMacSystemFont,sans-serif">支付方式</text><path d="M503,-1000 C521.5,-1000 521.5,-960 540,-960" fill="none" stroke="#DFB85D" stroke-width="2"/><rect x="540" y="-975" width="80" height="30" rx="6" fill="#fafafa" stroke="none"/><text x="580" y="-955" text-anchor="middle" font-size="13" fill="#333" font-family="-apple-system,BlinkMacSystemFont,sans-serif">回款周期</text><path d="M503,-1000 C521.5,-1000 521.5,-920 540,-920" fill="none" stroke="#DFB85D" stroke-width="2"/><rect x="540" y="-935" width="110.75999999999999" height="30" rx="6" fill="transparent" stroke="#BFBFBF"/><text x="595.38" y="-915" text-anchor="middle" font-size="13" fill="#333" font-family="-apple-system,BlinkMacSystemFont,sans-serif">清关/报关流程</text><path d="M388,-1100 C374,-1100 374,-840 360,-840" fill="none" stroke="#DFB85D" stroke-width="2"/><rect x="360" y="-855" width="117" height="30" rx="6" fill="#fafafa" stroke="none"/><text x="418.5" y="-835" text-anchor="middle" font-size="13" fill="#333" font-family="-apple-system,BlinkMacSystemFont,sans-serif">物流方式不一样</text><path d="M477,-840 C508.5,-840 508.5,-880 540,-880" fill="none" stroke="#DFB85D" stroke-width="2"/><rect x="540" y="-895" width="91" height="30" rx="6" fill="#fafafa" stroke="none"/><text x="585.5" y="-875" text-anchor="middle" font-size="13" fill="#333" font-family="-apple-system,BlinkMacSystemFont,sans-serif">头程、尾程</text><path d="M477,-840 C508.5,-840 508.5,-840 540,-840" fill="none" stroke="#DFB85D" stroke-width="2"/><rect x="540" y="-855" width="104" height="30" rx="6" fill="#fafafa" stroke="none"/><text x="592" y="-835" text-anchor="middle" font-size="13" fill="#333" font-family="-apple-system,BlinkMacSystemFont,sans-serif">服务水平差异</text><path d="M477,-840 C508.5,-840 508.5,-800 540,-800" fill="none" stroke="#DFB85D" stroke-width="2"/><rect x="540" y="-815" width="117" height="30" rx="6" fill="#fafafa" stroke="none"/><text x="598.5" y="-795" text-anchor="middle" font-size="13" fill="#333" font-family="-apple-system,BlinkMacSystemFont,sans-serif">链路长、周期长</text><path d="M388,-1100 C374,-1100 374,-760 360,-760" fill="none" stroke="#DFB85D" stroke-width="2"/><rect x="360" y="-775" width="80" height="30" rx="6" fill="#fafafa" stroke="none"/><text x="400" y="-755" text-anchor="middle" font-size="13" fill="#333" font-family="-apple-system,BlinkMacSystemFont,sans-serif">……</text><path d="M84,0 C174,0 174,-80 264,-80" fill="none" stroke="#6F81DB" stroke-width="2"/><rect x="180" y="-95" width="156" height="30" rx="6" fill="#fafafa" stroke="none"/><text x="258" y="-75" text-anchor="middle" font-size="13" fill="#333" font-family="-apple-system,BlinkMacSystemFont,sans-serif">跨境电商中的几大角色</text><path d="M336,-80 C348,-80 348,-520 360,-520" fill="none" stroke="#6F81DB" stroke-width="2"/><rect x="360" y="-535" width="80" height="30" rx="6" fill="#fafafa" stroke="none"/><text x="400" y="-515" text-anchor="middle" font-size="13" fill="#333" font-family="-apple-system,BlinkMacSystemFont,sans-serif">平台方</text><path d="M440,-520 C490,-520 490,-720 540,-720" fill="none" stroke="#6F81DB" stroke-width="2"/><rect x="540" y="-735" width="80" height="30" rx="6" fill="#fafafa" stroke="none"/><text x="580" y="-715" text-anchor="middle" font-size="13" fill="#333" font-family="-apple-system,BlinkMacSystemFont,sans-serif">亚马逊</text><path d="M440,-520 C490,-520 490,-680 540,-680" fill="none" stroke="#6F81DB" stroke-width="2"/><rect x="540" y="-695" width="80" height="30" rx="6" fill="#fafafa" stroke="none"/><text x="580" y="-675" text-anchor="middle" font-size="13" fill="#333" font-family="-apple-system,BlinkMacSystemFont,sans-serif">沃尔玛</text><path d="M440,-520 C490,-520 490,-640 540,-640" fill="none" stroke="#6F81DB" stroke-width="2"/><rect x="540" y="-655" width="80" height="30" rx="6" fill="#fafafa" stroke="none"/><text x="580" y="-635" text-anchor="middle" font-size="13" fill="#333" font-family="-apple-system,BlinkMacSystemFont,sans-serif">速卖通</text><path d="M440,-520 C490,-520 490,-600 540,-600" fill="none" stroke="#6F81DB" stroke-width="2"/><rect x="540" y="-615" width="80" height="30" rx="6" fill="#fafafa" stroke="none"/><text x="580" y="-595" text-anchor="middle" font-size="13" fill="#333" font-family="-apple-system,BlinkMacSystemFont,sans-serif">eBay</text><path d="M440,-520 C490,-520 490,-560 540,-560" fill="none" stroke="#6F81DB" stroke-width="2"/><rect x="540" y="-575" width="80" height="30" rx="6" fill="#fafafa" stroke="none"/><text x="580" y="-555" text-anchor="middle" font-size="13" fill="#333" font-family="-apple-system,BlinkMacSystemFont,sans-serif">Wish</text><path d="M440,-520 C490,-520 490,-520 540,-520" fill="none" stroke="#6F81DB" stroke-width="2"/><rect x="540" y="-535" width="80" height="30" rx="6" fill="#fafafa" stroke="none"/><text x="580" y="-515" text-anchor="middle" font-size="13" fill="#333" font-family="-apple-system,BlinkMacSystemFont,sans-serif">Lazada</text><path d="M440,-520 C490,-520 490,-480 540,-480" fill="none" stroke="#6F81DB" stroke-width="2"/><rect x="540" y="-495" width="80" height="30" rx="6" fill="#fafafa" stroke="none"/><text x="580" y="-475" text-anchor="middle" font-size="13" fill="#333" font-family="-apple-system,BlinkMacSystemFont,sans-serif">Temu</text><path d="M440,-520 C490,-520 490,-400 540,-400" fill="none" stroke="#6F81DB" stroke-width="2"/><rect x="540" y="-415" width="80" height="30" rx="6" fill="#fafafa" stroke="none"/><text x="580" y="-395" text-anchor="middle" font-size="13" fill="#333" font-family="-apple-system,BlinkMacSystemFont,sans-serif">独立站</text><path d="M620,-400 C670,-400 670,-440 720,-440" fill="none" stroke="#6F81DB" stroke-width="2"/><rect x="720" y="-455" width="80" height="30" rx="6" fill="#fafafa" stroke="none"/><text x="760" y="-435" text-anchor="middle" font-size="13" fill="#333" font-family="-apple-system,BlinkMacSystemFont,sans-serif">Shopify</text><path d="M620,-400 C670,-400 670,-400 720,-400" fill="none" stroke="#6F81DB" stroke-width="2"/><rect x="720" y="-415" width="80.07999999999998" height="30" rx="6" fill="#fafafa" stroke="none"/><text x="760.04" y="-395" text-anchor="middle" font-size="13" fill="#333" font-family="-apple-system,BlinkMacSystemFont,sans-serif">Shopline</text><path d="M620,-400 C670,-400 670,-360 720,-360" fill="none" stroke="#6F81DB" stroke-width="2"/><rect x="720" y="-375" width="86.83999999999999" height="30" rx="6" fill="#fafafa" stroke="none"/><text x="763.42" y="-355" text-anchor="middle" font-size="13" fill="#333" font-family="-apple-system,BlinkMacSystemFont,sans-serif">Shoplazza</text><path d="M440,-520 C490,-520 490,-320 540,-320" fill="none" stroke="#6F81DB" stroke-width="2"/><rect x="540" y="-335" width="118.56" height="30" rx="6" fill="transparent" stroke="#BFBFBF"/><text x="599.28" y="-315" text-anchor="middle" font-size="13" fill="#333" font-family="-apple-system,BlinkMacSystemFont,sans-serif">Amazon份额最高</text><path d="M658.56,-320 C689.28,-320 689.28,-320 720,-320" fill="none" stroke="#BFBFBF" stroke-width="2"/><rect x="720" y="-335" width="80" height="30" rx="6" fill="#fafafa" stroke="none"/><text x="760" y="-315" text-anchor="middle" font-size="13" fill="#333" font-family="-apple-system,BlinkMacSystemFont,sans-serif"></text><path d="M336,-80 C348,-80 348,-160 360,-160" fill="none" stroke="#6F81DB" stroke-width="2"/><rect x="360" y="-175" width="117" height="30" rx="6" fill="#fafafa" stroke="none"/><text x="418.5" y="-155" text-anchor="middle" font-size="13" fill="#333" font-family="-apple-system,BlinkMacSystemFont,sans-serif">卖家（供应商）</text><path d="M477,-160 C508.5,-160 508.5,-280 540,-280" fill="none" stroke="#6F81DB" stroke-width="2"/><rect x="540" y="-295" width="80" height="30" rx="6" fill="#fafafa" stroke="none"/><text x="580" y="-275" text-anchor="middle" font-size="13" fill="#333" font-family="-apple-system,BlinkMacSystemFont,sans-serif">坂田五虎</text><path d="M620,-280 C670,-280 670,-280 720,-280" fill="none" stroke="#6F81DB" stroke-width="2"/><rect x="720" y="-295" width="260" height="30" rx="6" fill="#fafafa" stroke="none"/><text x="850" y="-275" text-anchor="middle" font-size="13" fill="#333" font-family="-apple-system,BlinkMacSystemFont,sans-serif">蓝思科技、泽汇、宝视佳、公狼、拣蛋网</text><path d="M477,-160 C508.5,-160 508.5,-240 540,-240" fill="none" stroke="#6F81DB" stroke-width="2"/><rect x="540" y="-255" width="91" height="30" rx="6" fill="#fafafa" stroke="none"/><text x="585.5" y="-235" text-anchor="middle" font-size="13" fill="#333" font-family="-apple-system,BlinkMacSystemFont,sans-serif">华南城四少</text><path d="M631,-240 C675.5,-240 675.5,-240 720,-240" fill="none" stroke="#6F81DB" stroke-width="2"/><rect x="720" y="-255" width="182" height="30" rx="6" fill="#fafafa" stroke="none"/><text x="811" y="-235" text-anchor="middle" font-size="13" fill="#333" font-family="-apple-system,BlinkMacSystemFont,sans-serif">傲基、有棵树、通拓、赛维</text><path d="M477,-160 C508.5,-160 508.5,-200 540,-200" fill="none" stroke="#6F81DB" stroke-width="2"/><rect x="540" y="-215" width="80" height="30" rx="6" fill="#fafafa" stroke="none"/><text x="580" y="-195" text-anchor="middle" font-size="13" fill="#333" font-family="-apple-system,BlinkMacSystemFont,sans-serif">环球易购</text><path d="M477,-160 C508.5,-160 508.5,-160 540,-160" fill="none" stroke="#6F81DB" stroke-width="2"/><rect x="540" y="-175" width="80" height="30" rx="6" fill="#fafafa" stroke="none"/><text x="580" y="-155" text-anchor="middle" font-size="13" fill="#333" font-family="-apple-system,BlinkMacSystemFont,sans-serif">易佰网络</text><path d="M477,-160 C508.5,-160 508.5,-120 540,-120" fill="none" stroke="#6F81DB" stroke-width="2"/><rect x="540" y="-135" width="80" height="30" rx="6" fill="#fafafa" stroke="none"/><text x="580" y="-115" text-anchor="middle" font-size="13" fill="#333" font-family="-apple-system,BlinkMacSystemFont,sans-serif">Anker</text><path d="M477,-160 C508.5,-160 508.5,-80 540,-80" fill="none" stroke="#6F81DB" stroke-width="2"/><rect x="540" y="-95" width="80" height="30" rx="6" fill="#fafafa" stroke="none"/><text x="580" y="-75" text-anchor="middle" font-size="13" fill="#333" font-family="-apple-system,BlinkMacSystemFont,sans-serif">绿联科技</text><path d="M477,-160 C508.5,-160 508.5,-40 540,-40" fill="none" stroke="#6F81DB" stroke-width="2"/><rect x="540" y="-55" width="80" height="30" rx="6" fill="#fafafa" stroke="none"/><text x="580" y="-35" text-anchor="middle" font-size="13" fill="#333" font-family="-apple-system,BlinkMacSystemFont,sans-serif">……</text><path d="M336,-80 C348,-80 348,140 360,140" fill="none" stroke="#6F81DB" stroke-width="2"/><rect x="360" y="125" width="117" height="30" rx="6" fill="#fafafa" stroke="none"/><text x="418.5" y="145" text-anchor="middle" font-size="13" fill="#333" font-family="-apple-system,BlinkMacSystemFont,sans-serif">买家（消费者）</text><path d="M477,140 C508.5,140 508.5,0 540,0" fill="none" stroke="#6F81DB" stroke-width="2"/><rect x="540" y="-15" width="80" height="30" rx="6" fill="#fafafa" stroke="none"/><text x="580" y="5" text-anchor="middle" font-size="13" fill="#333" font-family="-apple-system,BlinkMacSystemFont,sans-serif">北美站</text><path d="M477,140 C508.5,140 508.5,40 540,40" fill="none" stroke="#6F81DB" stroke-width="2"/><rect x="540" y="25" width="80" height="30" rx="6" fill="#fafafa" stroke="none"/><text x="580" y="45" text-anchor="middle" font-size="13" fill="#333" font-family="-apple-system,BlinkMacSystemFont,sans-serif">欧洲站</text><path d="M477,140 C508.5,140 508.5,80 540,80" fill="none" stroke="#6F81DB" stroke-width="2"/><rect x="540" y="65" width="80" height="30" rx="6" fill="#fafafa" stroke="none"/><text x="580" y="85" text-anchor="middle" font-size="13" fill="#333" font-family="-apple-system,BlinkMacSystemFont,sans-serif">日本站</text><path d="M477,140 C508.5,140 508.5,120 540,120" fill="none" stroke="#6F81DB" stroke-width="2"/><rect x="540" y="105" width="80" height="30" rx="6" fill="#fafafa" stroke="none"/><text x="580" y="125" text-anchor="middle" font-size="13" fill="#333" font-family="-apple-system,BlinkMacSystemFont,sans-serif">澳洲站</text><path d="M477,140 C508.5,140 508.5,160 540,160" fill="none" stroke="#6F81DB" stroke-width="2"/><rect x="540" y="145" width="80" height="30" rx="6" fill="#fafafa" stroke="none"/><text x="580" y="165" text-anchor="middle" font-size="13" fill="#333" font-family="-apple-system,BlinkMacSystemFont,sans-serif">印度站</text><path d="M477,140 C508.5,140 508.5,200 540,200" fill="none" stroke="#6F81DB" stroke-width="2"/><rect x="540" y="185" width="80" height="30" rx="6" fill="#fafafa" stroke="none"/><text x="580" y="205" text-anchor="middle" font-size="13" fill="#333" font-family="-apple-system,BlinkMacSystemFont,sans-serif">中东站</text><path d="M477,140 C508.5,140 508.5,240 540,240" fill="none" stroke="#6F81DB" stroke-width="2"/><rect x="540" y="225" width="80" height="30" rx="6" fill="#fafafa" stroke="none"/><text x="580" y="245" text-anchor="middle" font-size="13" fill="#333" font-family="-apple-system,BlinkMacSystemFont,sans-serif">新加坡站</text><path d="M477,140 C508.5,140 508.5,280 540,280" fill="none" stroke="#6F81DB" stroke-width="2"/><rect x="540" y="265" width="130" height="30" rx="6" fill="transparent" stroke="#BFBFBF"/><text x="605" y="285" text-anchor="middle" font-size="13" fill="#333" font-family="-apple-system,BlinkMacSystemFont,sans-serif">亚马逊的站点合集</text><path d="M336,-80 C348,-80 348,420 360,420" fill="none" stroke="#6F81DB" stroke-width="2"/><rect x="360" y="405" width="91" height="30" rx="6" fill="#fafafa" stroke="none"/><text x="405.5" y="425" text-anchor="middle" font-size="13" fill="#333" font-family="-apple-system,BlinkMacSystemFont,sans-serif">中间服务商</text><path d="M451,420 C495.5,420 495.5,320 540,320" fill="none" stroke="#6F81DB" stroke-width="2"/><rect x="540" y="305" width="80" height="30" rx="6" fill="#fafafa" stroke="none"/><text x="580" y="325" text-anchor="middle" font-size="13" fill="#333" font-family="-apple-system,BlinkMacSystemFont,sans-serif">采购环节</text><path d="M451,420 C495.5,420 495.5,360 540,360" fill="none" stroke="#6F81DB" stroke-width="2"/><rect x="540" y="345" width="80" height="30" rx="6" fill="#fafafa" stroke="none"/><text x="580" y="365" text-anchor="middle" font-size="13" fill="#333" font-family="-apple-system,BlinkMacSystemFont,sans-serif">销售环节</text><path d="M451,420 C495.5,420 495.5,400 540,400" fill="none" stroke="#6F81DB" stroke-width="2"/><rect x="540" y="385" width="110.75999999999999" height="30" rx="6" fill="#fafafa" stroke="none"/><text x="595.38" y="405" text-anchor="middle" font-size="13" fill="#333" font-family="-apple-system,BlinkMacSystemFont,sans-serif">推广/运营环节</text><path d="M451,420 C495.5,420 495.5,440 540,440" fill="none" stroke="#6F81DB" stroke-width="2"/><rect x="540" y="425" width="80" height="30" rx="6" fill="#fafafa" stroke="none"/><text x="580" y="445" text-anchor="middle" font-size="13" fill="#333" font-family="-apple-system,BlinkMacSystemFont,sans-serif">物流环节</text><path d="M451,420 C495.5,420 495.5,480 540,480" fill="none" stroke="#6F81DB" stroke-width="2"/><rect x="540" y="465" width="80" height="30" rx="6" fill="#fafafa" stroke="none"/><text x="580" y="485" text-anchor="middle" font-size="13" fill="#333" font-family="-apple-system,BlinkMacSystemFont,sans-serif">交付环节</text><path d="M451,420 C495.5,420 495.5,520 540,520" fill="none" stroke="#6F81DB" stroke-width="2"/><rect x="540" y="505" width="455" height="30" rx="6" fill="transparent" stroke="#BFBFBF"/><text x="767.5" y="525" text-anchor="middle" font-size="13" fill="#333" font-family="-apple-system,BlinkMacSystemFont,sans-serif">商务部将中国电子商务服务业分为：交易型服务，支撑型服务，衍生型服务</text><path d="M995,520 C857.5,520 857.5,520 720,520" fill="none" stroke="#BFBFBF" stroke-width="2"/><rect x="720" y="505" width="80" height="30" rx="6" fill="#fafafa" stroke="none"/><text x="760" y="525" text-anchor="middle" font-size="13" fill="#333" font-family="-apple-system,BlinkMacSystemFont,sans-serif"></text><path d="M336,-80 C348,-80 348,560 360,560" fill="none" stroke="#6F81DB" stroke-width="2"/><rect x="360" y="545" width="1166.36" height="30" rx="6" fill="transparent" stroke="#BFBFBF"/><text x="943.18" y="565" text-anchor="middle" font-size="13" fill="#333" font-family="-apple-system,BlinkMacSystemFont,sans-serif">坂田五虎和华南城四少里面大部分都是多SKU铺货的模式，他们很多都是从11年12年ebay，速卖通铺货时期过来的，也是那个时代跨境电商模式的一种代表，所以他们的销量都非常高，一年流水都很大</text><path d="M84,0 C174,0 174,1200 264,1200" fill="none" stroke="#6EC4C4" stroke-width="2"/><rect x="180" y="1185" width="156" height="30" rx="6" fill="#fafafa" stroke="none"/><text x="258" y="1205" text-anchor="middle" font-size="13" fill="#333" font-family="-apple-system,BlinkMacSystemFont,sans-serif">跨境电商中的产品机会</text><path d="M336,1200 C348,1200 348,840 360,840" fill="none" stroke="#6EC4C4" stroke-width="2"/><rect x="360" y="825" width="80" height="30" rx="6" fill="#fafafa" stroke="none"/><text x="400" y="845" text-anchor="middle" font-size="13" fill="#333" font-family="-apple-system,BlinkMacSystemFont,sans-serif">平台方</text><path d="M440,840 C490,840 490,680 540,680" fill="none" stroke="#6EC4C4" stroke-width="2"/><rect x="540" y="665" width="80" height="30" rx="6" fill="#fafafa" stroke="none"/><text x="580" y="685" text-anchor="middle" font-size="13" fill="#333" font-family="-apple-system,BlinkMacSystemFont,sans-serif">电商平台</text><path d="M620,680 C670,680 670,600 720,600" fill="none" stroke="#6EC4C4" stroke-width="2"/><rect x="720" y="585" width="80" height="30" rx="6" fill="#fafafa" stroke="none"/><text x="760" y="605" text-anchor="middle" font-size="13" fill="#333" font-family="-apple-system,BlinkMacSystemFont,sans-serif">电商平台</text><path d="M620,680 C670,680 670,640 720,640" fill="none" stroke="#6EC4C4" stroke-width="2"/><rect x="720" y="625" width="80" height="30" rx="6" fill="#fafafa" stroke="none"/><text x="760" y="645" text-anchor="middle" font-size="13" fill="#333" font-family="-apple-system,BlinkMacSystemFont,sans-serif">Shein</text><path d="M620,680 C670,680 670,680 720,680" fill="none" stroke="#6EC4C4" stroke-width="2"/><rect x="720" y="665" width="80" height="30" rx="6" fill="#fafafa" stroke="none"/><text x="760" y="685" text-anchor="middle" font-size="13" fill="#333" font-family="-apple-system,BlinkMacSystemFont,sans-serif">速卖通</text><path d="M620,680 C670,680 670,720 720,720" fill="none" stroke="#6EC4C4" stroke-width="2"/><rect x="720" y="705" width="117" height="30" rx="6" fill="#fafafa" stroke="none"/><text x="778.5" y="725" text-anchor="middle" font-size="13" fill="#333" font-family="-apple-system,BlinkMacSystemFont,sans-serif">拼多多跨境平台</text><path d="M837,720 C868.5,720 868.5,720 900,720" fill="none" stroke="#6EC4C4" stroke-width="2"/><rect x="900" y="705" width="80" height="30" rx="6" fill="#fafafa" stroke="none"/><text x="940" y="725" text-anchor="middle" font-size="13" fill="#333" font-family="-apple-system,BlinkMacSystemFont,sans-serif">Temu</text><path d="M620,680 C670,680 670,760 720,760" fill="none" stroke="#6EC4C4" stroke-width="2"/><rect x="720" y="745" width="80" height="30" rx="6" fill="#fafafa" stroke="none"/><text x="760" y="765" text-anchor="middle" font-size="13" fill="#333" font-family="-apple-system,BlinkMacSystemFont,sans-serif">Tiktok</text><path d="M440,840 C490,840 490,840 540,840" fill="none" stroke="#6EC4C4" stroke-width="2"/><rect x="540" y="825" width="105.03999999999999" height="30" rx="6" fill="#fafafa" stroke="none"/><text x="592.52" y="845" text-anchor="middle" font-size="13" fill="#333" font-family="-apple-system,BlinkMacSystemFont,sans-serif">建站SaaS工具</text><path d="M645.04,840 C682.52,840 682.52,800 720,800" fill="none" stroke="#6EC4C4" stroke-width="2"/><rect x="720" y="785" width="224.12" height="30" rx="6" fill="#fafafa" stroke="none"/><text x="832.06" y="805" text-anchor="middle" font-size="13" fill="#333" font-family="-apple-system,BlinkMacSystemFont,sans-serif">Shopline在2022年上半年疯狂招人</text><path d="M645.04,840 C682.52,840 682.52,840 720,840" fill="none" stroke="#6EC4C4" stroke-width="2"/><rect x="720" y="825" width="112.83999999999999" height="30" rx="6" fill="#fafafa" stroke="none"/><text x="776.42" y="845" text-anchor="middle" font-size="13" fill="#333" font-family="-apple-system,BlinkMacSystemFont,sans-serif">Shoplazza店匠</text><path d="M645.04,840 C682.52,840 682.52,880 720,880" fill="none" stroke="#6EC4C4" stroke-width="2"/><rect x="720" y="865" width="164.32" height="30" rx="6" fill="#fafafa" stroke="none"/><text x="802.16" y="885" text-anchor="middle" font-size="13" fill="#333" font-family="-apple-system,BlinkMacSystemFont,sans-serif">Shopify，建站工具一哥</text><path d="M440,840 C490,840 490,1000 540,1000" fill="none" stroke="#6EC4C4" stroke-width="2"/><rect x="540" y="985" width="80" height="30" rx="6" fill="#fafafa" stroke="none"/><text x="580" y="1005" text-anchor="middle" font-size="13" fill="#333" font-family="-apple-system,BlinkMacSystemFont,sans-serif">自建站</text><path d="M620,1000 C670,1000 670,920 720,920" fill="none" stroke="#6EC4C4" stroke-width="2"/><rect x="720" y="905" width="130" height="30" rx="6" fill="#fafafa" stroke="none"/><text x="785" y="925" text-anchor="middle" font-size="13" fill="#333" font-family="-apple-system,BlinkMacSystemFont,sans-serif">自研系统电商系统</text><path d="M620,1000 C670,1000 670,960 720,960" fill="none" stroke="#6EC4C4" stroke-width="2"/><rect x="720" y="945" width="174.72" height="30" rx="6" fill="#fafafa" stroke="none"/><text x="807.36" y="965" text-anchor="middle" font-size="13" fill="#333" font-family="-apple-system,BlinkMacSystemFont,sans-serif">https://www.anker.com/</text><path d="M894.72,960 C897.36,960 897.36,960 900,960" fill="none" stroke="#6EC4C4" stroke-width="2"/><rect x="900" y="945" width="80" height="30" rx="6" fill="#fafafa" stroke="none"/><text x="940" y="965" text-anchor="middle" font-size="13" fill="#333" font-family="-apple-system,BlinkMacSystemFont,sans-serif">Anker</text><path d="M620,1000 C670,1000 670,1000 720,1000" fill="none" stroke="#6EC4C4" stroke-width="2"/><rect x="720" y="985" width="194.99999999999997" height="30" rx="6" fill="#fafafa" stroke="none"/><text x="817.5" y="1005" text-anchor="middle" font-size="13" fill="#333" font-family="-apple-system,BlinkMacSystemFont,sans-serif">https://www.insta360.com/</text><path d="M915,1000 C907.5,1000 907.5,1000 900,1000" fill="none" stroke="#6EC4C4" stroke-width="2"/><rect x="900" y="985" width="80" height="30" rx="6" fill="#fafafa" stroke="none"/><text x="940" y="1005" text-anchor="middle" font-size="13" fill="#333" font-family="-apple-system,BlinkMacSystemFont,sans-serif">影石</text><path d="M620,1000 C670,1000 670,1040 720,1040" fill="none" stroke="#6EC4C4" stroke-width="2"/><rect x="720" y="1025" width="161.20000000000002" height="30" rx="6" fill="#fafafa" stroke="none"/><text x="800.6" y="1045" text-anchor="middle" font-size="13" fill="#333" font-family="-apple-system,BlinkMacSystemFont,sans-serif">https://www.dji.com/</text><path d="M881.2,1040 C890.6,1040 890.6,1040 900,1040" fill="none" stroke="#6EC4C4" stroke-width="2"/><rect x="900" y="1025" width="80" height="30" rx="6" fill="#fafafa" stroke="none"/><text x="940" y="1045" text-anchor="middle" font-size="13" fill="#333" font-family="-apple-system,BlinkMacSystemFont,sans-serif">大疆</text><path d="M620,1000 C670,1000 670,1080 720,1080" fill="none" stroke="#6EC4C4" stroke-width="2"/><rect x="720" y="1065" width="208" height="30" rx="6" fill="transparent" stroke="#BFBFBF"/><text x="824" y="1085" text-anchor="middle" font-size="13" fill="#333" font-family="-apple-system,BlinkMacSystemFont,sans-serif">北美和欧洲消费者比较信赖官网</text><path d="M336,1200 C348,1200 348,1300 360,1300" fill="none" stroke="#6EC4C4" stroke-width="2"/><rect x="360" y="1285" width="80" height="30" rx="6" fill="#fafafa" stroke="none"/><text x="400" y="1305" text-anchor="middle" font-size="13" fill="#333" font-family="-apple-system,BlinkMacSystemFont,sans-serif">卖家侧</text><path d="M440,1300 C490,1300 490,1200 540,1200" fill="none" stroke="#6EC4C4" stroke-width="2"/><rect x="540" y="1185" width="80" height="30" rx="6" fill="#fafafa" stroke="none"/><text x="580" y="1205" text-anchor="middle" font-size="13" fill="#333" font-family="-apple-system,BlinkMacSystemFont,sans-serif">品牌卖家</text><path d="M620,1200 C670,1200 670,1120 720,1120" fill="none" stroke="#6EC4C4" stroke-width="2"/><rect x="720" y="1105" width="80" height="30" rx="6" fill="#fafafa" stroke="none"/><text x="760" y="1125" text-anchor="middle" font-size="13" fill="#333" font-family="-apple-system,BlinkMacSystemFont,sans-serif">Anker</text><path d="M620,1200 C670,1200 670,1160 720,1160" fill="none" stroke="#6EC4C4" stroke-width="2"/><rect x="720" y="1145" width="80" height="30" rx="6" fill="#fafafa" stroke="none"/><text x="760" y="1165" text-anchor="middle" font-size="13" fill="#333" font-family="-apple-system,BlinkMacSystemFont,sans-serif">绿联</text><path d="M620,1200 C670,1200 670,1200 720,1200" fill="none" stroke="#6EC4C4" stroke-width="2"/><rect x="720" y="1185" width="80" height="30" rx="6" fill="#fafafa" stroke="none"/><text x="760" y="1205" text-anchor="middle" font-size="13" fill="#333" font-family="-apple-system,BlinkMacSystemFont,sans-serif">倍思</text><path d="M620,1200 C670,1200 670,1240 720,1240" fill="none" stroke="#6EC4C4" stroke-width="2"/><rect x="720" y="1225" width="80" height="30" rx="6" fill="#fafafa" stroke="none"/><text x="760" y="1245" text-anchor="middle" font-size="13" fill="#333" font-family="-apple-system,BlinkMacSystemFont,sans-serif">大疆</text><path d="M620,1200 C670,1200 670,1280 720,1280" fill="none" stroke="#6EC4C4" stroke-width="2"/><rect x="720" y="1265" width="80" height="30" rx="6" fill="#fafafa" stroke="none"/><text x="760" y="1285" text-anchor="middle" font-size="13" fill="#333" font-family="-apple-system,BlinkMacSystemFont,sans-serif">……</text><path d="M440,1300 C490,1300 490,1360 540,1360" fill="none" stroke="#6EC4C4" stroke-width="2"/><rect x="540" y="1345" width="80" height="30" rx="6" fill="#fafafa" stroke="none"/><text x="580" y="1365" text-anchor="middle" font-size="13" fill="#333" font-family="-apple-system,BlinkMacSystemFont,sans-serif">铺货卖家</text><path d="M620,1360 C670,1360 670,1320 720,1320" fill="none" stroke="#6EC4C4" stroke-width="2"/><rect x="720" y="1305" width="80" height="30" rx="6" fill="#fafafa" stroke="none"/><text x="760" y="1325" text-anchor="middle" font-size="13" fill="#333" font-family="-apple-system,BlinkMacSystemFont,sans-serif">坂田五虎</text><path d="M620,1360 C670,1360 670,1360 720,1360" fill="none" stroke="#6EC4C4" stroke-width="2"/><rect x="720" y="1345" width="91" height="30" rx="6" fill="#fafafa" stroke="none"/><text x="765.5" y="1365" text-anchor="middle" font-size="13" fill="#333" font-family="-apple-system,BlinkMacSystemFont,sans-serif">华南城四少</text><path d="M620,1360 C670,1360 670,1400 720,1400" fill="none" stroke="#6EC4C4" stroke-width="2"/><rect x="720" y="1385" width="80" height="30" rx="6" fill="#fafafa" stroke="none"/><text x="760" y="1405" text-anchor="middle" font-size="13" fill="#333" font-family="-apple-system,BlinkMacSystemFont,sans-serif">易佰网络</text><path d="M440,1300 C490,1300 490,1460 540,1460" fill="none" stroke="#6EC4C4" stroke-width="2"/><rect x="540" y="1445" width="91" height="30" rx="6" fill="#fafafa" stroke="none"/><text x="585.5" y="1465" text-anchor="middle" font-size="13" fill="#333" font-family="-apple-system,BlinkMacSystemFont,sans-serif">综合类卖家</text><path d="M631,1460 C675.5,1460 675.5,1440 720,1440" fill="none" stroke="#6EC4C4" stroke-width="2"/><rect x="720" y="1425" width="117" height="30" rx="6" fill="#fafafa" stroke="none"/><text x="778.5" y="1445" text-anchor="middle" font-size="13" fill="#333" font-family="-apple-system,BlinkMacSystemFont,sans-serif">既有自己的品牌</text><path d="M631,1460 C675.5,1460 675.5,1480 720,1480" fill="none" stroke="#6EC4C4" stroke-width="2"/><rect x="720" y="1465" width="130" height="30" rx="6" fill="#fafafa" stroke="none"/><text x="785" y="1485" text-anchor="middle" font-size="13" fill="#333" font-family="-apple-system,BlinkMacSystemFont,sans-serif">也有一些铺货产品</text><path d="M336,1200 C348,1200 348,1660 360,1660" fill="none" stroke="#6EC4C4" stroke-width="2"/><rect x="360" y="1645" width="80" height="30" rx="6" fill="#fafafa" stroke="none"/><text x="400" y="1665" text-anchor="middle" font-size="13" fill="#333" font-family="-apple-system,BlinkMacSystemFont,sans-serif">服务商侧</text><path d="M440,1660 C490,1660 490,1520 540,1520" fill="none" stroke="#6EC4C4" stroke-width="2"/><rect x="540" y="1505" width="80" height="30" rx="6" fill="#fafafa" stroke="none"/><text x="580" y="1525" text-anchor="middle" font-size="13" fill="#333" font-family="-apple-system,BlinkMacSystemFont,sans-serif">软件工具</text><path d="M440,1660 C490,1660 490,1560 540,1560" fill="none" stroke="#6EC4C4" stroke-width="2"/><rect x="540" y="1545" width="80" height="30" rx="6" fill="#fafafa" stroke="none"/><text x="580" y="1565" text-anchor="middle" font-size="13" fill="#333" font-family="-apple-system,BlinkMacSystemFont,sans-serif">广告营销</text><path d="M440,1660 C490,1660 490,1600 540,1600" fill="none" stroke="#6EC4C4" stroke-width="2"/><rect x="540" y="1585" width="97.75999999999999" height="30" rx="6" fill="#fafafa" stroke="none"/><text x="588.88" y="1605" text-anchor="middle" font-size="13" fill="#333" font-family="-apple-system,BlinkMacSystemFont,sans-serif">建站/独立站</text><path d="M440,1660 C490,1660 490,1640 540,1640" fill="none" stroke="#6EC4C4" stroke-width="2"/><rect x="540" y="1625" width="110.75999999999999" height="30" rx="6" fill="#fafafa" stroke="none"/><text x="595.38" y="1645" text-anchor="middle" font-size="13" fill="#333" font-family="-apple-system,BlinkMacSystemFont,sans-serif">国际仓储/物流</text><path d="M440,1660 C490,1660 490,1680 540,1680" fill="none" stroke="#6EC4C4" stroke-width="2"/><rect x="540" y="1665" width="80" height="30" rx="6" fill="#fafafa" stroke="none"/><text x="580" y="1685" text-anchor="middle" font-size="13" fill="#333" font-family="-apple-system,BlinkMacSystemFont,sans-serif">综合SaaS</text><path d="M440,1660 C490,1660 490,1720 540,1720" fill="none" stroke="#6EC4C4" stroke-width="2"/><rect x="540" y="1705" width="117.52" height="30" rx="6" fill="#fafafa" stroke="none"/><text x="598.76" y="1725" text-anchor="middle" font-size="13" fill="#333" font-family="-apple-system,BlinkMacSystemFont,sans-serif">金融/支付/税务</text><path d="M440,1660 C490,1660 490,1760 540,1760" fill="none" stroke="#6EC4C4" stroke-width="2"/><rect x="540" y="1745" width="80" height="30" rx="6" fill="#fafafa" stroke="none"/><text x="580" y="1765" text-anchor="middle" font-size="13" fill="#333" font-family="-apple-system,BlinkMacSystemFont,sans-serif">综合信息</text><path d="M440,1660 C490,1660 490,1800 540,1800" fill="none" stroke="#6EC4C4" stroke-width="2"/><rect x="540" y="1785" width="182.51999999999998" height="30" rx="6" fill="transparent" stroke="#BFBFBF"/><text x="631.26" y="1805" text-anchor="middle" font-size="13" fill="#333" font-family="-apple-system,BlinkMacSystemFont,sans-serif">具体可见“服务商生态图谱”</text><path d="M722.52,1800 C721.26,1800 721.26,1800 720,1800" fill="none" stroke="#BFBFBF" stroke-width="2"/><rect x="720" y="1785" width="80" height="30" rx="6" fill="transparent" stroke="#BFBFBF"/><text x="760" y="1805" text-anchor="middle" font-size="13" fill="#333" font-family="-apple-system,BlinkMacSystemFont,sans-serif"></text>
</svg>