<svg xmlns="http://www.w3.org/2000/svg" xmlns:xlink="http://www.w3.org/1999/xlink"
  viewBox="-220.8 -339 1510.8 678" width="1510.8" height="678"
  style="background:#fff; font-family:-apple-system,BlinkMacSystemFont,'Segoe UI',Roboto,sans-serif;">
<defs></defs>
<rect x="-220.8" y="-339" width="1510.8" height="678" fill="#fff"/>
<rect x="-136.8" y="-18" width="273.6" height="36" rx="8" fill="#EFF0F0" stroke="none"/><text x="0" y="6" text-anchor="middle" font-size="16" font-weight="bold" fill="#333" font-family="-apple-system,BlinkMacSystemFont,sans-serif">SRM“供应商管理”模块的产品结构</text><path d="M136.8,0 C226.8,0 226.8,-160 316.8,-160" fill="none" stroke="#A287E1" stroke-width="2"/><rect x="180" y="-175" width="130" height="30" rx="6" fill="#fafafa" stroke="none"/><text x="245" y="-155" text-anchor="middle" font-size="13" fill="#333" font-family="-apple-system,BlinkMacSystemFont,sans-serif">产品结构划分方式</text><path d="M310,-160 C335,-160 335,-220 360,-220" fill="none" stroke="#A287E1" stroke-width="2"/><rect x="360" y="-235" width="80" height="30" rx="6" fill="#fafafa" stroke="none"/><text x="400" y="-215" text-anchor="middle" font-size="13" fill="#333" font-family="-apple-system,BlinkMacSystemFont,sans-serif">功能结构</text><path d="M440,-220 C490,-220 490,-240 540,-240" fill="none" stroke="#A287E1" stroke-width="2"/><rect x="540" y="-255" width="117" height="30" rx="6" fill="#fafafa" stroke="none"/><text x="598.5" y="-235" text-anchor="middle" font-size="13" fill="#333" font-family="-apple-system,BlinkMacSystemFont,sans-serif">有哪些功能操作</text><path d="M440,-220 C490,-220 490,-200 540,-200" fill="none" stroke="#A287E1" stroke-width="2"/><rect x="540" y="-215" width="130" height="30" rx="6" fill="#fafafa" stroke="none"/><text x="605" y="-195" text-anchor="middle" font-size="13" fill="#333" font-family="-apple-system,BlinkMacSystemFont,sans-serif">有哪些业务场景等</text><path d="M310,-160 C335,-160 335,-140 360,-140" fill="none" stroke="#A287E1" stroke-width="2"/><rect x="360" y="-155" width="80" height="30" rx="6" fill="#fafafa" stroke="none"/><text x="400" y="-135" text-anchor="middle" font-size="13" fill="#333" font-family="-apple-system,BlinkMacSystemFont,sans-serif">信息结构</text><path d="M440,-140 C490,-140 490,-160 540,-160" fill="none" stroke="#A287E1" stroke-width="2"/><rect x="540" y="-175" width="104" height="30" rx="6" fill="#fafafa" stroke="none"/><text x="592" y="-155" text-anchor="middle" font-size="13" fill="#333" font-family="-apple-system,BlinkMacSystemFont,sans-serif">展示哪些信息</text><path d="M440,-140 C490,-140 490,-120 540,-120" fill="none" stroke="#A287E1" stroke-width="2"/><rect x="540" y="-135" width="195" height="30" rx="6" fill="#fafafa" stroke="none"/><text x="637.5" y="-115" text-anchor="middle" font-size="13" fill="#333" font-family="-apple-system,BlinkMacSystemFont,sans-serif">信息展示的一些要求和规范等</text><path d="M310,-160 C335,-160 335,-80 360,-80" fill="none" stroke="#A287E1" stroke-width="2"/><rect x="360" y="-95" width="312" height="30" rx="6" fill="transparent" stroke="#BFBFBF"/><text x="516" y="-75" text-anchor="middle" font-size="13" fill="#333" font-family="-apple-system,BlinkMacSystemFont,sans-serif">这里用产品功能清单的方式展示有哪些菜单和功能</text><path d="M136.8,0 C226.8,0 226.8,100 316.8,100" fill="none" stroke="#6F81DB" stroke-width="2"/><rect x="180" y="85" width="104" height="30" rx="6" fill="#fafafa" stroke="none"/><text x="232" y="105" text-anchor="middle" font-size="13" fill="#333" font-family="-apple-system,BlinkMacSystemFont,sans-serif">产品功能清单</text><path d="M284,100 C322,100 322,0 360,0" fill="none" stroke="#6F81DB" stroke-width="2"/><rect x="360" y="-15" width="117" height="30" rx="6" fill="#fafafa" stroke="none"/><text x="418.5" y="5" text-anchor="middle" font-size="13" fill="#333" font-family="-apple-system,BlinkMacSystemFont,sans-serif">供应商信息维护</text><path d="M477,0 C508.5,0 508.5,-40 540,-40" fill="none" stroke="#6F81DB" stroke-width="2"/><rect x="540" y="-55" width="91" height="30" rx="6" fill="#fafafa" stroke="none"/><text x="585.5" y="-35" text-anchor="middle" font-size="13" fill="#333" font-family="-apple-system,BlinkMacSystemFont,sans-serif">供应商列表</text><path d="M631,-40 C675.5,-40 675.5,-40 720,-40" fill="none" stroke="#6F81DB" stroke-width="2"/><rect x="720" y="-55" width="156" height="30" rx="6" fill="#fafafa" stroke="none"/><text x="798" y="-35" text-anchor="middle" font-size="13" fill="#333" font-family="-apple-system,BlinkMacSystemFont,sans-serif">展示供应商的基础信息</text><path d="M477,0 C508.5,0 508.5,0 540,0" fill="none" stroke="#6F81DB" stroke-width="2"/><rect x="540" y="-15" width="117" height="30" rx="6" fill="#fafafa" stroke="none"/><text x="598.5" y="5" text-anchor="middle" font-size="13" fill="#333" font-family="-apple-system,BlinkMacSystemFont,sans-serif">供应商供货管理</text><path d="M657,0 C688.5,0 688.5,0 720,0" fill="none" stroke="#6F81DB" stroke-width="2"/><rect x="720" y="-15" width="247" height="30" rx="6" fill="#fafafa" stroke="none"/><text x="843.5" y="5" text-anchor="middle" font-size="13" fill="#333" font-family="-apple-system,BlinkMacSystemFont,sans-serif">展示供应商和对应供货商品的关联关系</text><path d="M477,0 C508.5,0 508.5,40 540,40" fill="none" stroke="#6F81DB" stroke-width="2"/><rect x="540" y="25" width="91" height="30" rx="6" fill="#fafafa" stroke="none"/><text x="585.5" y="45" text-anchor="middle" font-size="13" fill="#333" font-family="-apple-system,BlinkMacSystemFont,sans-serif">供应商分组</text><path d="M631,40 C675.5,40 675.5,40 720,40" fill="none" stroke="#6F81DB" stroke-width="2"/><rect x="720" y="25" width="208" height="30" rx="6" fill="#fafafa" stroke="none"/><text x="824" y="45" text-anchor="middle" font-size="13" fill="#333" font-family="-apple-system,BlinkMacSystemFont,sans-serif">维护供应商所属的类别，分组等</text><path d="M284,100 C322,100 322,80 360,80" fill="none" stroke="#6F81DB" stroke-width="2"/><rect x="360" y="65" width="143" height="30" rx="6" fill="#fafafa" stroke="none"/><text x="431.5" y="85" text-anchor="middle" font-size="13" fill="#333" font-family="-apple-system,BlinkMacSystemFont,sans-serif">供应商生命周期管理</text><path d="M503,80 C521.5,80 521.5,80 540,80" fill="none" stroke="#6F81DB" stroke-width="2"/><rect x="540" y="65" width="143" height="30" rx="6" fill="#fafafa" stroke="none"/><text x="611.5" y="85" text-anchor="middle" font-size="13" fill="#333" font-family="-apple-system,BlinkMacSystemFont,sans-serif">供应商生命阶段管理</text><path d="M683,80 C701.5,80 701.5,80 720,80" fill="none" stroke="#6F81DB" stroke-width="2"/><rect x="720" y="65" width="299" height="30" rx="6" fill="#fafafa" stroke="none"/><text x="869.5" y="85" text-anchor="middle" font-size="13" fill="#333" font-family="-apple-system,BlinkMacSystemFont,sans-serif">展示供应商目前是属于潜在，合格，淘汰等状态</text><path d="M284,100 C322,100 322,160 360,160" fill="none" stroke="#6F81DB" stroke-width="2"/><rect x="360" y="145" width="117" height="30" rx="6" fill="#fafafa" stroke="none"/><text x="418.5" y="165" text-anchor="middle" font-size="13" fill="#333" font-family="-apple-system,BlinkMacSystemFont,sans-serif">供应商绩效考核</text><path d="M477,160 C508.5,160 508.5,120 540,120" fill="none" stroke="#6F81DB" stroke-width="2"/><rect x="540" y="105" width="104" height="30" rx="6" fill="#fafafa" stroke="none"/><text x="592" y="125" text-anchor="middle" font-size="13" fill="#333" font-family="-apple-system,BlinkMacSystemFont,sans-serif">绩效考核列表</text><path d="M644,120 C682,120 682,120 720,120" fill="none" stroke="#6F81DB" stroke-width="2"/><rect x="720" y="105" width="351" height="30" rx="6" fill="#fafafa" stroke="none"/><text x="895.5" y="125" text-anchor="middle" font-size="13" fill="#333" font-family="-apple-system,BlinkMacSystemFont,sans-serif">展示供应商的绩效考核情况，处于什么状态，得分情况等</text><path d="M477,160 C508.5,160 508.5,160 540,160" fill="none" stroke="#6F81DB" stroke-width="2"/><rect x="540" y="145" width="80" height="30" rx="6" fill="#fafafa" stroke="none"/><text x="580" y="165" text-anchor="middle" font-size="13" fill="#333" font-family="-apple-system,BlinkMacSystemFont,sans-serif">考核指标</text><path d="M620,160 C670,160 670,160 720,160" fill="none" stroke="#6F81DB" stroke-width="2"/><rect x="720" y="145" width="390" height="30" rx="6" fill="#fafafa" stroke="none"/><text x="915" y="165" text-anchor="middle" font-size="13" fill="#333" font-family="-apple-system,BlinkMacSystemFont,sans-serif">维护需要对供应商哪些方面的指标进行考核，占比和分值是多少</text><path d="M477,160 C508.5,160 508.5,200 540,200" fill="none" stroke="#6F81DB" stroke-width="2"/><rect x="540" y="185" width="80" height="30" rx="6" fill="#fafafa" stroke="none"/><text x="580" y="205" text-anchor="middle" font-size="13" fill="#333" font-family="-apple-system,BlinkMacSystemFont,sans-serif">考核模板</text><path d="M620,200 C670,200 670,200 720,200" fill="none" stroke="#6F81DB" stroke-width="2"/><rect x="720" y="185" width="351" height="30" rx="6" fill="#fafafa" stroke="none"/><text x="895.5" y="205" text-anchor="middle" font-size="13" fill="#333" font-family="-apple-system,BlinkMacSystemFont,sans-serif">维护绩效考核的模板，方便发起考核的时候直接引用模板</text><path d="M284,100 C322,100 322,240 360,240" fill="none" stroke="#6F81DB" stroke-width="2"/><rect x="360" y="225" width="117" height="30" rx="6" fill="#fafafa" stroke="none"/><text x="418.5" y="245" text-anchor="middle" font-size="13" fill="#333" font-family="-apple-system,BlinkMacSystemFont,sans-serif">供应商风险监控</text><path d="M477,240 C508.5,240 508.5,240 540,240" fill="none" stroke="#6F81DB" stroke-width="2"/><rect x="540" y="225" width="104" height="30" rx="6" fill="#fafafa" stroke="none"/><text x="592" y="245" text-anchor="middle" font-size="13" fill="#333" font-family="-apple-system,BlinkMacSystemFont,sans-serif">风险监控列表</text><path d="M644,240 C682,240 682,240 720,240" fill="none" stroke="#6F81DB" stroke-width="2"/><rect x="720" y="225" width="286" height="30" rx="6" fill="#fafafa" stroke="none"/><text x="863" y="245" text-anchor="middle" font-size="13" fill="#333" font-family="-apple-system,BlinkMacSystemFont,sans-serif">展示有风险的供应商及其对应的风险点是什么</text>
</svg>