<svg xmlns="http://www.w3.org/2000/svg" xmlns:xlink="http://www.w3.org/1999/xlink"
  viewBox="-220.48 -879 2136.76 1758" width="2136.76" height="1758"
  style="background:#fff; font-family:-apple-system,BlinkMacSystemFont,'Segoe UI',Roboto,sans-serif;">
<defs></defs>
<rect x="-220.48" y="-879" width="2136.76" height="1758" fill="#fff"/>
<rect x="-136.48" y="-18" width="272.96" height="36" rx="8" fill="#EFF0F0" stroke="none"/><text x="0" y="6" text-anchor="middle" font-size="16" font-weight="bold" fill="#333" font-family="-apple-system,BlinkMacSystemFont,sans-serif">“进销存采购-入库”的产品结构图</text><path d="M136.48,0 C226.48000000000002,0 226.48000000000002,-80 316.48,-80" fill="none" stroke="#6F81DB" stroke-width="2"/><rect x="180" y="-95" width="130" height="30" rx="6" fill="#fafafa" stroke="none"/><text x="245" y="-75" text-anchor="middle" font-size="13" fill="#333" font-family="-apple-system,BlinkMacSystemFont,sans-serif">采购单（进货单）</text><path d="M310,-80 C335,-80 335,-720 360,-720" fill="none" stroke="#6F81DB" stroke-width="2"/><rect x="360" y="-735" width="80" height="30" rx="6" fill="#fafafa" stroke="none"/><text x="400" y="-715" text-anchor="middle" font-size="13" fill="#333" font-family="-apple-system,BlinkMacSystemFont,sans-serif">需求分析</text><path d="M440,-720 C490,-720 490,-760 540,-760" fill="none" stroke="#6F81DB" stroke-width="2"/><rect x="540" y="-775" width="80" height="30" rx="6" fill="#fafafa" stroke="none"/><text x="580" y="-755" text-anchor="middle" font-size="13" fill="#333" font-family="-apple-system,BlinkMacSystemFont,sans-serif">背景</text><path d="M620,-760 C670,-760 670,-780 720,-780" fill="none" stroke="#6F81DB" stroke-width="2"/><rect x="720" y="-795" width="507" height="30" rx="6" fill="#fafafa" stroke="none"/><text x="973.5" y="-775" text-anchor="middle" font-size="13" fill="#333" font-family="-apple-system,BlinkMacSystemFont,sans-serif">维他命最近开了一个饮料店，店铺很小，主要就是摆个冰柜，然后卖各式花样的饮料</text><path d="M620,-760 C670,-760 670,-740 720,-740" fill="none" stroke="#6F81DB" stroke-width="2"/><rect x="720" y="-755" width="1112.28" height="30" rx="6" fill="#fafafa" stroke="none"/><text x="1276.1399999999999" y="-735" text-anchor="middle" font-size="13" fill="#333" font-family="-apple-system,BlinkMacSystemFont,sans-serif">虽然产品类目少，SKU少，但是维他命觉得自己以后肯定会把生意做得越来越大，所以决定从一开始就是先规划设计一套进销存软件来记录日常的销售数据，便于后续做一些精细化的运营管理</text><path d="M440,-720 C490,-720 490,-680 540,-680" fill="none" stroke="#6F81DB" stroke-width="2"/><rect x="540" y="-695" width="80" height="30" rx="6" fill="#fafafa" stroke="none"/><text x="580" y="-675" text-anchor="middle" font-size="13" fill="#333" font-family="-apple-system,BlinkMacSystemFont,sans-serif">需求点</text><path d="M620,-680 C670,-680 670,-700 720,-700" fill="none" stroke="#6F81DB" stroke-width="2"/><rect x="720" y="-715" width="773.76" height="30" rx="6" fill="#fafafa" stroke="none"/><text x="1106.88" y="-695" text-anchor="middle" font-size="13" fill="#333" font-family="-apple-system,BlinkMacSystemFont,sans-serif">之前已经完成了基础资料的产品设计，所以本次是针对采购-入库这个业务场景进行设计，具体的功能点都是围绕这个业务流程来的</text><path d="M620,-680 C670,-680 670,-660 720,-660" fill="none" stroke="#6F81DB" stroke-width="2"/><rect x="720" y="-675" width="884" height="30" rx="6" fill="#fafafa" stroke="none"/><text x="1162" y="-655" text-anchor="middle" font-size="13" fill="#333" font-family="-apple-system,BlinkMacSystemFont,sans-serif">目前维他命的小店主要还是销售饮料类，后续会考虑拓展其他零食类，日用百货之类的可能要比较晚才拓展，所以短期先考虑饮料和零食类的产品特性</text><path d="M310,-80 C335,-80 335,-400 360,-400" fill="none" stroke="#6F81DB" stroke-width="2"/><rect x="360" y="-415" width="104" height="30" rx="6" fill="#fafafa" stroke="none"/><text x="412" y="-395" text-anchor="middle" font-size="13" fill="#333" font-family="-apple-system,BlinkMacSystemFont,sans-serif">初步方案设计</text><path d="M464,-400 C502,-400 502,-580 540,-580" fill="none" stroke="#6F81DB" stroke-width="2"/><rect x="540" y="-595" width="663.52" height="30" rx="6" fill="#fafafa" stroke="none"/><text x="871.76" y="-575" text-anchor="middle" font-size="13" fill="#333" font-family="-apple-system,BlinkMacSystemFont,sans-serif">1.根据产品定义和业务场景的梳理，要明确大概做哪些管理？有哪些功能清单才能支撑这些业务场景和业务流程</text><path d="M1203.52,-580 C961.76,-580 961.76,-620 720,-620" fill="none" stroke="#6F81DB" stroke-width="2"/><rect x="720" y="-635" width="117" height="30" rx="6" fill="#fafafa" stroke="none"/><text x="778.5" y="-615" text-anchor="middle" font-size="13" fill="#333" font-family="-apple-system,BlinkMacSystemFont,sans-serif">采购相关的管理</text><path d="M1203.52,-580 C961.76,-580 961.76,-580 720,-580" fill="none" stroke="#6F81DB" stroke-width="2"/><rect x="720" y="-595" width="143" height="30" rx="6" fill="#fafafa" stroke="none"/><text x="791.5" y="-575" text-anchor="middle" font-size="13" fill="#333" font-family="-apple-system,BlinkMacSystemFont,sans-serif">入库收货相关的管理</text><path d="M1203.52,-580 C961.76,-580 961.76,-540 720,-540" fill="none" stroke="#6F81DB" stroke-width="2"/><rect x="720" y="-555" width="117" height="30" rx="6" fill="#fafafa" stroke="none"/><text x="778.5" y="-535" text-anchor="middle" font-size="13" fill="#333" font-family="-apple-system,BlinkMacSystemFont,sans-serif">库存相关的管理</text><path d="M464,-400 C502,-400 502,-400 540,-400" fill="none" stroke="#6F81DB" stroke-width="2"/><rect x="540" y="-415" width="481.52" height="30" rx="6" fill="#fafafa" stroke="none"/><text x="780.76" y="-395" text-anchor="middle" font-size="13" fill="#333" font-family="-apple-system,BlinkMacSystemFont,sans-serif">2.这些功能清单大概可以抽象成哪些功能模块或者领域，对其进行进一步的抽象</text><path d="M1021.52,-400 C870.76,-400 870.76,-480 720,-480" fill="none" stroke="#6F81DB" stroke-width="2"/><rect x="720" y="-495" width="117" height="30" rx="6" fill="#EFF0F0" stroke="none"/><text x="778.5" y="-475" text-anchor="middle" font-size="13" fill="#333" font-family="-apple-system,BlinkMacSystemFont,sans-serif">采购相关的管理</text><path d="M837,-480 C868.5,-480 868.5,-500 900,-500" fill="none" stroke="#6F81DB" stroke-width="2"/><rect x="900" y="-515" width="80" height="30" rx="6" fill="#fafafa" stroke="none"/><text x="940" y="-495" text-anchor="middle" font-size="13" fill="#333" font-family="-apple-system,BlinkMacSystemFont,sans-serif">采购单</text><path d="M837,-480 C868.5,-480 868.5,-460 900,-460" fill="none" stroke="#6F81DB" stroke-width="2"/><rect x="900" y="-475" width="80" height="30" rx="6" fill="#fafafa" stroke="none"/><text x="940" y="-455" text-anchor="middle" font-size="13" fill="#333" font-family="-apple-system,BlinkMacSystemFont,sans-serif">采购退货</text><path d="M1021.52,-400 C870.76,-400 870.76,-400 720,-400" fill="none" stroke="#6F81DB" stroke-width="2"/><rect x="720" y="-415" width="143" height="30" rx="6" fill="#EFF0F0" stroke="none"/><text x="791.5" y="-395" text-anchor="middle" font-size="13" fill="#333" font-family="-apple-system,BlinkMacSystemFont,sans-serif">入库收货相关的管理</text><path d="M863,-400 C881.5,-400 881.5,-420 900,-420" fill="none" stroke="#6F81DB" stroke-width="2"/><rect x="900" y="-435" width="91" height="30" rx="6" fill="#fafafa" stroke="none"/><text x="945.5" y="-415" text-anchor="middle" font-size="13" fill="#333" font-family="-apple-system,BlinkMacSystemFont,sans-serif">清点、收货</text><path d="M863,-400 C881.5,-400 881.5,-380 900,-380" fill="none" stroke="#6F81DB" stroke-width="2"/><rect x="900" y="-395" width="80" height="30" rx="6" fill="#fafafa" stroke="none"/><text x="940" y="-375" text-anchor="middle" font-size="13" fill="#333" font-family="-apple-system,BlinkMacSystemFont,sans-serif">质检</text><path d="M1021.52,-400 C870.76,-400 870.76,-320 720,-320" fill="none" stroke="#6F81DB" stroke-width="2"/><rect x="720" y="-335" width="117" height="30" rx="6" fill="#EFF0F0" stroke="none"/><text x="778.5" y="-315" text-anchor="middle" font-size="13" fill="#333" font-family="-apple-system,BlinkMacSystemFont,sans-serif">库存相关的管理</text><path d="M837,-320 C868.5,-320 868.5,-340 900,-340" fill="none" stroke="#6F81DB" stroke-width="2"/><rect x="900" y="-355" width="80" height="30" rx="6" fill="#fafafa" stroke="none"/><text x="940" y="-335" text-anchor="middle" font-size="13" fill="#333" font-family="-apple-system,BlinkMacSystemFont,sans-serif">库存查询</text><path d="M837,-320 C868.5,-320 868.5,-300 900,-300" fill="none" stroke="#6F81DB" stroke-width="2"/><rect x="900" y="-315" width="80" height="30" rx="6" fill="#fafafa" stroke="none"/><text x="940" y="-295" text-anchor="middle" font-size="13" fill="#333" font-family="-apple-system,BlinkMacSystemFont,sans-serif">库存流水</text><path d="M464,-400 C502,-400 502,-220 540,-220" fill="none" stroke="#6F81DB" stroke-width="2"/><rect x="540" y="-235" width="559.52" height="30" rx="6" fill="#fafafa" stroke="none"/><text x="819.76" y="-215" text-anchor="middle" font-size="13" fill="#333" font-family="-apple-system,BlinkMacSystemFont,sans-serif">3.结合业务流程和实际的业务场景，走查一下初步方案设计中哪些是重要的，哪些是次要的？</text><path d="M1099.52,-220 C909.76,-220 909.76,-260 720,-260" fill="none" stroke="#6F81DB" stroke-width="2"/><rect x="720" y="-275" width="273" height="30" rx="6" fill="#fafafa" stroke="none"/><text x="856.5" y="-255" text-anchor="middle" font-size="13" fill="#333" font-family="-apple-system,BlinkMacSystemFont,sans-serif">把有限的资源放在最核心和最重要的环节上</text><path d="M1099.52,-220 C909.76,-220 909.76,-220 720,-220" fill="none" stroke="#6F81DB" stroke-width="2"/><rect x="720" y="-235" width="403" height="30" rx="6" fill="#fafafa" stroke="none"/><text x="921.5" y="-215" text-anchor="middle" font-size="13" fill="#333" font-family="-apple-system,BlinkMacSystemFont,sans-serif">如果有一些不确定的内容，那么就可以先不做，完成比完美更重要</text><path d="M1099.52,-220 C909.76,-220 909.76,-180 720,-180" fill="none" stroke="#6F81DB" stroke-width="2"/><rect x="720" y="-195" width="403" height="30" rx="6" fill="#fafafa" stroke="none"/><text x="921.5" y="-175" text-anchor="middle" font-size="13" fill="#333" font-family="-apple-system,BlinkMacSystemFont,sans-serif">在这个环节可以反推一下业务流程是否有遗留，还要不要补充一些</text><path d="M310,-80 C335,-80 335,200 360,200" fill="none" stroke="#6F81DB" stroke-width="2"/><rect x="360" y="185" width="80" height="30" rx="6" fill="#fafafa" stroke="none"/><text x="400" y="205" text-anchor="middle" font-size="13" fill="#333" font-family="-apple-system,BlinkMacSystemFont,sans-serif">功能结构</text><path d="M440,200 C490,200 490,60 540,60" fill="none" stroke="#6F81DB" stroke-width="2"/><rect x="540" y="45" width="80" height="30" rx="6" fill="#fafafa" stroke="none"/><text x="580" y="65" text-anchor="middle" font-size="13" fill="#333" font-family="-apple-system,BlinkMacSystemFont,sans-serif">采购管理</text><path d="M620,60 C670,60 670,-40 720,-40" fill="none" stroke="#6F81DB" stroke-width="2"/><rect x="720" y="-55" width="80" height="30" rx="6" fill="#fafafa" stroke="none"/><text x="760" y="-35" text-anchor="middle" font-size="13" fill="#333" font-family="-apple-system,BlinkMacSystemFont,sans-serif">基础功能</text><path d="M800,-40 C850,-40 850,-140 900,-140" fill="none" stroke="#6F81DB" stroke-width="2"/><rect x="900" y="-155" width="80" height="30" rx="6" fill="#EFF0F0" stroke="none"/><text x="940" y="-135" text-anchor="middle" font-size="13" fill="#333" font-family="-apple-system,BlinkMacSystemFont,sans-serif">新建</text><path d="M800,-40 C850,-40 850,-100 900,-100" fill="none" stroke="#6F81DB" stroke-width="2"/><rect x="900" y="-115" width="80" height="30" rx="6" fill="#EFF0F0" stroke="none"/><text x="940" y="-95" text-anchor="middle" font-size="13" fill="#333" font-family="-apple-system,BlinkMacSystemFont,sans-serif">修改</text><path d="M800,-40 C850,-40 850,-60 900,-60" fill="none" stroke="#6F81DB" stroke-width="2"/><rect x="900" y="-75" width="80" height="30" rx="6" fill="#EFF0F0" stroke="none"/><text x="940" y="-55" text-anchor="middle" font-size="13" fill="#333" font-family="-apple-system,BlinkMacSystemFont,sans-serif">删除</text><path d="M800,-40 C850,-40 850,-20 900,-20" fill="none" stroke="#6F81DB" stroke-width="2"/><rect x="900" y="-35" width="80" height="30" rx="6" fill="#EFF0F0" stroke="none"/><text x="940" y="-15" text-anchor="middle" font-size="13" fill="#333" font-family="-apple-system,BlinkMacSystemFont,sans-serif">审核</text><path d="M800,-40 C850,-40 850,20 900,20" fill="none" stroke="#6F81DB" stroke-width="2"/><rect x="900" y="5" width="91" height="30" rx="6" fill="#EFF0F0" stroke="none"/><text x="945.5" y="25" text-anchor="middle" font-size="13" fill="#333" font-family="-apple-system,BlinkMacSystemFont,sans-serif">生成入库单</text><path d="M800,-40 C850,-40 850,60 900,60" fill="none" stroke="#6F81DB" stroke-width="2"/><rect x="900" y="45" width="80" height="30" rx="6" fill="#EFF0F0" stroke="none"/><text x="940" y="65" text-anchor="middle" font-size="13" fill="#333" font-family="-apple-system,BlinkMacSystemFont,sans-serif">强制关闭</text><path d="M620,60 C670,60 670,180 720,180" fill="none" stroke="#6F81DB" stroke-width="2"/><rect x="720" y="165" width="91" height="30" rx="6" fill="#fafafa" stroke="none"/><text x="765.5" y="185" text-anchor="middle" font-size="13" fill="#333" font-family="-apple-system,BlinkMacSystemFont,sans-serif">状态机说明</text><path d="M811,180 C855.5,180 855.5,120 900,120" fill="none" stroke="#6F81DB" stroke-width="2"/><rect x="900" y="105" width="80" height="30" rx="6" fill="#fafafa" stroke="none"/><text x="940" y="125" text-anchor="middle" font-size="13" fill="#333" font-family="-apple-system,BlinkMacSystemFont,sans-serif">状态1</text><path d="M980,120 C1030,120 1030,100 1080,100" fill="none" stroke="#6F81DB" stroke-width="2"/><rect x="1080" y="85" width="80" height="30" rx="6" fill="#fafafa" stroke="none"/><text x="1120" y="105" text-anchor="middle" font-size="13" fill="#333" font-family="-apple-system,BlinkMacSystemFont,sans-serif">说明</text><path d="M980,120 C1030,120 1030,140 1080,140" fill="none" stroke="#6F81DB" stroke-width="2"/><rect x="1080" y="125" width="104" height="30" rx="6" fill="#fafafa" stroke="none"/><text x="1132" y="145" text-anchor="middle" font-size="13" fill="#333" font-family="-apple-system,BlinkMacSystemFont,sans-serif">可执行的操作</text><path d="M1184,140 C1222,140 1222,140 1260,140" fill="none" stroke="#6F81DB" stroke-width="2"/><rect x="1260" y="125" width="91" height="30" rx="6" fill="#fafafa" stroke="none"/><text x="1305.5" y="145" text-anchor="middle" font-size="13" fill="#333" font-family="-apple-system,BlinkMacSystemFont,sans-serif">操作的说明</text><path d="M811,180 C855.5,180 855.5,200 900,200" fill="none" stroke="#6F81DB" stroke-width="2"/><rect x="900" y="185" width="80" height="30" rx="6" fill="#fafafa" stroke="none"/><text x="940" y="205" text-anchor="middle" font-size="13" fill="#333" font-family="-apple-system,BlinkMacSystemFont,sans-serif">状态2</text><path d="M980,200 C1030,200 1030,180 1080,180" fill="none" stroke="#6F81DB" stroke-width="2"/><rect x="1080" y="165" width="80" height="30" rx="6" fill="#fafafa" stroke="none"/><text x="1120" y="185" text-anchor="middle" font-size="13" fill="#333" font-family="-apple-system,BlinkMacSystemFont,sans-serif">说明</text><path d="M980,200 C1030,200 1030,220 1080,220" fill="none" stroke="#6F81DB" stroke-width="2"/><rect x="1080" y="205" width="104" height="30" rx="6" fill="#fafafa" stroke="none"/><text x="1132" y="225" text-anchor="middle" font-size="13" fill="#333" font-family="-apple-system,BlinkMacSystemFont,sans-serif">可执行的操作</text><path d="M1184,220 C1222,220 1222,220 1260,220" fill="none" stroke="#6F81DB" stroke-width="2"/><rect x="1260" y="205" width="91" height="30" rx="6" fill="#fafafa" stroke="none"/><text x="1305.5" y="225" text-anchor="middle" font-size="13" fill="#333" font-family="-apple-system,BlinkMacSystemFont,sans-serif">操作的说明</text><path d="M811,180 C855.5,180 855.5,260 900,260" fill="none" stroke="#6F81DB" stroke-width="2"/><rect x="900" y="245" width="80" height="30" rx="6" fill="#fafafa" stroke="none"/><text x="940" y="265" text-anchor="middle" font-size="13" fill="#333" font-family="-apple-system,BlinkMacSystemFont,sans-serif">……</text><path d="M440,200 C490,200 490,400 540,400" fill="none" stroke="#6F81DB" stroke-width="2"/><rect x="540" y="385" width="80" height="30" rx="6" fill="#fafafa" stroke="none"/><text x="580" y="405" text-anchor="middle" font-size="13" fill="#333" font-family="-apple-system,BlinkMacSystemFont,sans-serif">采购退货</text><path d="M620,400 C670,400 670,300 720,300" fill="none" stroke="#6F81DB" stroke-width="2"/><rect x="720" y="285" width="80" height="30" rx="6" fill="#fafafa" stroke="none"/><text x="760" y="305" text-anchor="middle" font-size="13" fill="#333" font-family="-apple-system,BlinkMacSystemFont,sans-serif">新建</text><path d="M620,400 C670,400 670,340 720,340" fill="none" stroke="#6F81DB" stroke-width="2"/><rect x="720" y="325" width="80" height="30" rx="6" fill="#fafafa" stroke="none"/><text x="760" y="345" text-anchor="middle" font-size="13" fill="#333" font-family="-apple-system,BlinkMacSystemFont,sans-serif">修改</text><path d="M620,400 C670,400 670,380 720,380" fill="none" stroke="#6F81DB" stroke-width="2"/><rect x="720" y="365" width="80" height="30" rx="6" fill="#fafafa" stroke="none"/><text x="760" y="385" text-anchor="middle" font-size="13" fill="#333" font-family="-apple-system,BlinkMacSystemFont,sans-serif">删除</text><path d="M620,400 C670,400 670,420 720,420" fill="none" stroke="#6F81DB" stroke-width="2"/><rect x="720" y="405" width="80" height="30" rx="6" fill="#fafafa" stroke="none"/><text x="760" y="425" text-anchor="middle" font-size="13" fill="#333" font-family="-apple-system,BlinkMacSystemFont,sans-serif">审核</text><path d="M620,400 C670,400 670,460 720,460" fill="none" stroke="#6F81DB" stroke-width="2"/><rect x="720" y="445" width="91" height="30" rx="6" fill="#fafafa" stroke="none"/><text x="765.5" y="465" text-anchor="middle" font-size="13" fill="#333" font-family="-apple-system,BlinkMacSystemFont,sans-serif">生成出库单</text><path d="M620,400 C670,400 670,500 720,500" fill="none" stroke="#6F81DB" stroke-width="2"/><rect x="720" y="485" width="80" height="30" rx="6" fill="#fafafa" stroke="none"/><text x="760" y="505" text-anchor="middle" font-size="13" fill="#333" font-family="-apple-system,BlinkMacSystemFont,sans-serif">强制关闭</text><path d="M440,200 C490,200 490,540 540,540" fill="none" stroke="#6F81DB" stroke-width="2"/><rect x="540" y="525" width="80" height="30" rx="6" fill="#fafafa" stroke="none"/><text x="580" y="545" text-anchor="middle" font-size="13" fill="#333" font-family="-apple-system,BlinkMacSystemFont,sans-serif">库存相关</text><path d="M620,540 C670,540 670,540 720,540" fill="none" stroke="#6F81DB" stroke-width="2"/><rect x="720" y="525" width="130" height="30" rx="6" fill="#fafafa" stroke="none"/><text x="785" y="545" text-anchor="middle" font-size="13" fill="#333" font-family="-apple-system,BlinkMacSystemFont,sans-serif">单独一个模块来讲</text><path d="M310,-80 C335,-80 335,600 360,600" fill="none" stroke="#6F81DB" stroke-width="2"/><rect x="360" y="585" width="208" height="30" rx="6" fill="#fafafa" stroke="none"/><text x="464" y="605" text-anchor="middle" font-size="13" fill="#333" font-family="-apple-system,BlinkMacSystemFont,sans-serif">信息结构（包含了拓展的模块）</text><path d="M568,600 C554,600 554,580 540,580" fill="none" stroke="#6F81DB" stroke-width="2"/><rect x="540" y="565" width="80" height="30" rx="6" fill="#fafafa" stroke="none"/><text x="580" y="585" text-anchor="middle" font-size="13" fill="#333" font-family="-apple-system,BlinkMacSystemFont,sans-serif">采购管理</text><path d="M620,580 C670,580 670,580 720,580" fill="none" stroke="#6F81DB" stroke-width="2"/><rect x="720" y="565" width="234" height="30" rx="6" fill="#fafafa" stroke="none"/><text x="837" y="585" text-anchor="middle" font-size="13" fill="#333" font-family="-apple-system,BlinkMacSystemFont,sans-serif">此处省略，具体字段可以参考七色米</text><path d="M568,600 C554,600 554,620 540,620" fill="none" stroke="#6F81DB" stroke-width="2"/><rect x="540" y="605" width="80" height="30" rx="6" fill="#fafafa" stroke="none"/><text x="580" y="625" text-anchor="middle" font-size="13" fill="#333" font-family="-apple-system,BlinkMacSystemFont,sans-serif">采购退货</text><path d="M620,620 C670,620 670,620 720,620" fill="none" stroke="#6F81DB" stroke-width="2"/><rect x="720" y="605" width="234" height="30" rx="6" fill="#fafafa" stroke="none"/><text x="837" y="625" text-anchor="middle" font-size="13" fill="#333" font-family="-apple-system,BlinkMacSystemFont,sans-serif">此处省略，具体字段可以参考七色米</text><path d="M136.48,0 C226.48000000000002,0 226.48000000000002,720 316.48,720" fill="none" stroke="#6EC4C4" stroke-width="2"/><rect x="180" y="705" width="80" height="30" rx="6" fill="#fafafa" stroke="none"/><text x="220" y="725" text-anchor="middle" font-size="13" fill="#333" font-family="-apple-system,BlinkMacSystemFont,sans-serif">入库单</text><path d="M260,720 C310,720 310,700 360,700" fill="none" stroke="#6EC4C4" stroke-width="2"/><rect x="360" y="685" width="80" height="30" rx="6" fill="#fafafa" stroke="none"/><text x="400" y="705" text-anchor="middle" font-size="13" fill="#333" font-family="-apple-system,BlinkMacSystemFont,sans-serif">功能结构</text><path d="M440,700 C490,700 490,700 540,700" fill="none" stroke="#6EC4C4" stroke-width="2"/><rect x="540" y="685" width="80" height="30" rx="6" fill="#EFF0F0" stroke="none"/><text x="580" y="705" text-anchor="middle" font-size="13" fill="#333" font-family="-apple-system,BlinkMacSystemFont,sans-serif">入库管理</text><path d="M620,700 C670,700 670,660 720,660" fill="none" stroke="#6EC4C4" stroke-width="2"/><rect x="720" y="645" width="80" height="30" rx="6" fill="#fafafa" stroke="none"/><text x="760" y="665" text-anchor="middle" font-size="13" fill="#333" font-family="-apple-system,BlinkMacSystemFont,sans-serif">Web收货</text><path d="M620,700 C670,700 670,700 720,700" fill="none" stroke="#6EC4C4" stroke-width="2"/><rect x="720" y="685" width="156" height="30" rx="6" fill="#fafafa" stroke="none"/><text x="798" y="705" text-anchor="middle" font-size="13" fill="#333" font-family="-apple-system,BlinkMacSystemFont,sans-serif">手动关单（强制完结）</text><path d="M620,700 C670,700 670,740 720,740" fill="none" stroke="#6EC4C4" stroke-width="2"/><rect x="720" y="725" width="91" height="30" rx="6" fill="#fafafa" stroke="none"/><text x="765.5" y="745" text-anchor="middle" font-size="13" fill="#333" font-family="-apple-system,BlinkMacSystemFont,sans-serif">收货单打印</text><path d="M811,740 C855.5,740 855.5,740 900,740" fill="none" stroke="#6EC4C4" stroke-width="2"/><rect x="900" y="725" width="80" height="30" rx="6" fill="#fafafa" stroke="none"/><text x="940" y="745" text-anchor="middle" font-size="13" fill="#333" font-family="-apple-system,BlinkMacSystemFont,sans-serif">可选</text><path d="M260,720 C310,720 310,780 360,780" fill="none" stroke="#6EC4C4" stroke-width="2"/><rect x="360" y="765" width="80" height="30" rx="6" fill="#fafafa" stroke="none"/><text x="400" y="785" text-anchor="middle" font-size="13" fill="#333" font-family="-apple-system,BlinkMacSystemFont,sans-serif">信息结构</text><path d="M440,780 C490,780 490,780 540,780" fill="none" stroke="#6EC4C4" stroke-width="2"/><rect x="540" y="765" width="80" height="30" rx="6" fill="#EFF0F0" stroke="none"/><text x="580" y="785" text-anchor="middle" font-size="13" fill="#333" font-family="-apple-system,BlinkMacSystemFont,sans-serif">入库管理</text><path d="M620,780 C670,780 670,780 720,780" fill="none" stroke="#6EC4C4" stroke-width="2"/><rect x="720" y="765" width="234" height="30" rx="6" fill="#fafafa" stroke="none"/><text x="837" y="785" text-anchor="middle" font-size="13" fill="#333" font-family="-apple-system,BlinkMacSystemFont,sans-serif">此处省略，具体字段可以参考七色米</text>
</svg>