<svg xmlns="http://www.w3.org/2000/svg" xmlns:xlink="http://www.w3.org/1999/xlink"
  viewBox="-200 -1759 1644.04 3518" width="1644.04" height="3518"
  style="background:#fff; font-family:-apple-system,BlinkMacSystemFont,'Segoe UI',Roboto,sans-serif;">
<defs></defs>
<rect x="-200" y="-1759" width="1644.04" height="3518" fill="#fff"/>
<rect x="-116" y="-18" width="232" height="36" rx="8" fill="#EFF0F0" stroke="none"/><text x="0" y="6" text-anchor="middle" font-size="16" font-weight="bold" fill="#333" font-family="-apple-system,BlinkMacSystemFont,sans-serif">入库的产品结构图（一期）</text><path d="M116,0 C206,0 206,-1520 296,-1520" fill="none" stroke="#DFB85D" stroke-width="2"/><rect x="180" y="-1535" width="110.75999999999999" height="30" rx="6" fill="#fafafa" stroke="none"/><text x="235.38" y="-1515" text-anchor="middle" font-size="13" fill="#333" font-family="-apple-system,BlinkMacSystemFont,sans-serif">需求背景&amp;分析</text><path d="M290.76,-1520 C325.38,-1520 325.38,-1640 360,-1640" fill="none" stroke="#DFB85D" stroke-width="2"/><rect x="360" y="-1655" width="463.32" height="30" rx="6" fill="#fafafa" stroke="none"/><text x="591.66" y="-1635" text-anchor="middle" font-size="13" fill="#333" font-family="-apple-system,BlinkMacSystemFont,sans-serif">需要搭建一套SaaS版的海外仓WMS，提供给海外仓服务商做仓储信息化的管控</text><path d="M823.3199999999999,-1640 C681.66,-1640 681.66,-1660 540,-1660" fill="none" stroke="#DFB85D" stroke-width="2"/><rect x="540" y="-1675" width="390" height="30" rx="6" fill="#fafafa" stroke="none"/><text x="735" y="-1655" text-anchor="middle" font-size="13" fill="#333" font-family="-apple-system,BlinkMacSystemFont,sans-serif">有很多长尾的海外仓服务商有仓库没有系统，仓库管理效率低下</text><path d="M823.3199999999999,-1640 C681.66,-1640 681.66,-1620 540,-1620" fill="none" stroke="#DFB85D" stroke-width="2"/><rect x="540" y="-1635" width="820.04" height="30" rx="6" fill="#fafafa" stroke="none"/><text x="950.02" y="-1615" text-anchor="middle" font-size="13" fill="#333" font-family="-apple-system,BlinkMacSystemFont,sans-serif">市面上的一些海外仓WMS不太好用，要么太复杂，太贵，要么太简陋，不满足业务要求，产品定位就是先切入长尾~腰部以下的海外仓服务商</text><path d="M290.76,-1520 C325.38,-1520 325.38,-1580 360,-1580" fill="none" stroke="#DFB85D" stroke-width="2"/><rect x="360" y="-1595" width="731.1199999999999" height="30" rx="6" fill="#fafafa" stroke="none"/><text x="725.56" y="-1575" text-anchor="middle" font-size="13" fill="#333" font-family="-apple-system,BlinkMacSystemFont,sans-serif">从0到1搭建一套WMS，既要考虑WMS本身的业务闭环和产品结构，还需要考虑到上下游之间的业务串联，所以会有OTWB的说法</text><path d="M290.76,-1520 C325.38,-1520 325.38,-1460 360,-1460" fill="none" stroke="#DFB85D" stroke-width="2"/><rect x="360" y="-1475" width="703.56" height="30" rx="6" fill="#fafafa" stroke="none"/><text x="711.78" y="-1455" text-anchor="middle" font-size="13" fill="#333" font-family="-apple-system,BlinkMacSystemFont,sans-serif">WMS的第一期应该是遵循MVP原则，先搭建基本的框架，然后从基础数据入手，从主线流程入手，先确保单个场景能闭环</text><path d="M1063.56,-1460 C801.78,-1460 801.78,-1540 540,-1540" fill="none" stroke="#DFB85D" stroke-width="2"/><rect x="540" y="-1555" width="188.76" height="30" rx="6" fill="#fafafa" stroke="none"/><text x="634.38" y="-1535" text-anchor="middle" font-size="13" fill="#333" font-family="-apple-system,BlinkMacSystemFont,sans-serif">场景1：仓库基础资料的维护</text><path d="M1063.56,-1460 C801.78,-1460 801.78,-1500 540,-1500" fill="none" stroke="#DFB85D" stroke-width="2"/><rect x="540" y="-1515" width="253.76" height="30" rx="6" fill="#fafafa" stroke="none"/><text x="666.88" y="-1495" text-anchor="middle" font-size="13" fill="#333" font-family="-apple-system,BlinkMacSystemFont,sans-serif">场景2：仓库入库收货、上架、增加库存</text><path d="M1063.56,-1460 C801.78,-1460 801.78,-1460 540,-1460" fill="none" stroke="#DFB85D" stroke-width="2"/><rect x="540" y="-1475" width="292.76" height="30" rx="6" fill="#fafafa" stroke="none"/><text x="686.38" y="-1455" text-anchor="middle" font-size="13" fill="#333" font-family="-apple-system,BlinkMacSystemFont,sans-serif">场景3：仓库分波、拣货、复核出库、扣减库存</text><path d="M1063.56,-1460 C801.78,-1460 801.78,-1420 540,-1420" fill="none" stroke="#DFB85D" stroke-width="2"/><rect x="540" y="-1435" width="344.76" height="30" rx="6" fill="#fafafa" stroke="none"/><text x="712.38" y="-1415" text-anchor="middle" font-size="13" fill="#333" font-family="-apple-system,BlinkMacSystemFont,sans-serif">场景4：入库的取消，出库的取消，批量入库，批量出库</text><path d="M1063.56,-1460 C801.78,-1460 801.78,-1380 540,-1380" fill="none" stroke="#DFB85D" stroke-width="2"/><rect x="540" y="-1395" width="80" height="30" rx="6" fill="#fafafa" stroke="none"/><text x="580" y="-1375" text-anchor="middle" font-size="13" fill="#333" font-family="-apple-system,BlinkMacSystemFont,sans-serif">……</text><path d="M116,0 C206,0 206,-820 296,-820" fill="none" stroke="#77C386" stroke-width="2"/><rect x="180" y="-835" width="104" height="30" rx="6" fill="#fafafa" stroke="none"/><text x="232" y="-815" text-anchor="middle" font-size="13" fill="#333" font-family="-apple-system,BlinkMacSystemFont,sans-serif">初步方案设计</text><path d="M284,-820 C322,-820 322,-1240 360,-1240" fill="none" stroke="#77C386" stroke-width="2"/><rect x="360" y="-1255" width="80" height="30" rx="6" fill="#fafafa" stroke="none"/><text x="400" y="-1235" text-anchor="middle" font-size="13" fill="#333" font-family="-apple-system,BlinkMacSystemFont,sans-serif">业务设计</text><path d="M440,-1240 C490,-1240 490,-1340 540,-1340" fill="none" stroke="#77C386" stroke-width="2"/><rect x="540" y="-1355" width="377" height="30" rx="6" fill="#fafafa" stroke="none"/><text x="728.5" y="-1335" text-anchor="middle" font-size="13" fill="#333" font-family="-apple-system,BlinkMacSystemFont,sans-serif">海外仓收货到上架的实际操作是怎么样的？要经历几个步骤？</text><path d="M440,-1240 C490,-1240 490,-1300 540,-1300" fill="none" stroke="#77C386" stroke-width="2"/><rect x="540" y="-1315" width="156" height="30" rx="6" fill="#fafafa" stroke="none"/><text x="618" y="-1295" text-anchor="middle" font-size="13" fill="#333" font-family="-apple-system,BlinkMacSystemFont,sans-serif">入库的流程是怎么样的</text><path d="M440,-1240 C490,-1240 490,-1260 540,-1260" fill="none" stroke="#77C386" stroke-width="2"/><rect x="540" y="-1275" width="169" height="30" rx="6" fill="#fafafa" stroke="none"/><text x="624.5" y="-1255" text-anchor="middle" font-size="13" fill="#333" font-family="-apple-system,BlinkMacSystemFont,sans-serif">上架的流程是怎么样的？</text><path d="M440,-1240 C490,-1240 490,-1220 540,-1220" fill="none" stroke="#77C386" stroke-width="2"/><rect x="540" y="-1235" width="247" height="30" rx="6" fill="#fafafa" stroke="none"/><text x="663.5" y="-1215" text-anchor="middle" font-size="13" fill="#333" font-family="-apple-system,BlinkMacSystemFont,sans-serif">海外仓收货入库场景下是否需要质检？</text><path d="M440,-1240 C490,-1240 490,-1180 540,-1180" fill="none" stroke="#77C386" stroke-width="2"/><rect x="540" y="-1195" width="253.76" height="30" rx="6" fill="#fafafa" stroke="none"/><text x="666.88" y="-1175" text-anchor="middle" font-size="13" fill="#333" font-family="-apple-system,BlinkMacSystemFont,sans-serif">入库/上架过程中会发生什么异常场景？</text><path d="M440,-1240 C490,-1240 490,-1140 540,-1140" fill="none" stroke="#77C386" stroke-width="2"/><rect x="540" y="-1155" width="80" height="30" rx="6" fill="#fafafa" stroke="none"/><text x="580" y="-1135" text-anchor="middle" font-size="13" fill="#333" font-family="-apple-system,BlinkMacSystemFont,sans-serif">……</text><path d="M284,-820 C322,-820 322,-880 360,-880" fill="none" stroke="#77C386" stroke-width="2"/><rect x="360" y="-895" width="80" height="30" rx="6" fill="#fafafa" stroke="none"/><text x="400" y="-875" text-anchor="middle" font-size="13" fill="#333" font-family="-apple-system,BlinkMacSystemFont,sans-serif">应用设计</text><path d="M440,-880 C490,-880 490,-1020 540,-1020" fill="none" stroke="#77C386" stroke-width="2"/><rect x="540" y="-1035" width="104" height="30" rx="6" fill="#fafafa" stroke="none"/><text x="592" y="-1015" text-anchor="middle" font-size="13" fill="#333" font-family="-apple-system,BlinkMacSystemFont,sans-serif">有几个单据？</text><path d="M644,-1020 C682,-1020 682,-1100 720,-1100" fill="none" stroke="#77C386" stroke-width="2"/><rect x="720" y="-1115" width="80" height="30" rx="6" fill="#fafafa" stroke="none"/><text x="760" y="-1095" text-anchor="middle" font-size="13" fill="#333" font-family="-apple-system,BlinkMacSystemFont,sans-serif">入库单</text><path d="M644,-1020 C682,-1020 682,-1060 720,-1060" fill="none" stroke="#77C386" stroke-width="2"/><rect x="720" y="-1075" width="80" height="30" rx="6" fill="#fafafa" stroke="none"/><text x="760" y="-1055" text-anchor="middle" font-size="13" fill="#333" font-family="-apple-system,BlinkMacSystemFont,sans-serif">收货单</text><path d="M644,-1020 C682,-1020 682,-1020 720,-1020" fill="none" stroke="#77C386" stroke-width="2"/><rect x="720" y="-1035" width="80" height="30" rx="6" fill="#fafafa" stroke="none"/><text x="760" y="-1015" text-anchor="middle" font-size="13" fill="#333" font-family="-apple-system,BlinkMacSystemFont,sans-serif">质检单</text><path d="M644,-1020 C682,-1020 682,-980 720,-980" fill="none" stroke="#77C386" stroke-width="2"/><rect x="720" y="-995" width="80" height="30" rx="6" fill="#fafafa" stroke="none"/><text x="760" y="-975" text-anchor="middle" font-size="13" fill="#333" font-family="-apple-system,BlinkMacSystemFont,sans-serif">上架单</text><path d="M644,-1020 C682,-1020 682,-940 720,-940" fill="none" stroke="#77C386" stroke-width="2"/><rect x="720" y="-955" width="80" height="30" rx="6" fill="#fafafa" stroke="none"/><text x="760" y="-935" text-anchor="middle" font-size="13" fill="#333" font-family="-apple-system,BlinkMacSystemFont,sans-serif">……</text><path d="M440,-880 C490,-880 490,-800 540,-800" fill="none" stroke="#77C386" stroke-width="2"/><rect x="540" y="-815" width="156" height="30" rx="6" fill="#fafafa" stroke="none"/><text x="618" y="-795" text-anchor="middle" font-size="13" fill="#333" font-family="-apple-system,BlinkMacSystemFont,sans-serif">每个单据有什么状态？</text><path d="M696,-800 C708,-800 708,-900 720,-900" fill="none" stroke="#77C386" stroke-width="2"/><rect x="720" y="-915" width="80" height="30" rx="6" fill="#fafafa" stroke="none"/><text x="760" y="-895" text-anchor="middle" font-size="13" fill="#333" font-family="-apple-system,BlinkMacSystemFont,sans-serif">待收货</text><path d="M696,-800 C708,-800 708,-860 720,-860" fill="none" stroke="#77C386" stroke-width="2"/><rect x="720" y="-875" width="80" height="30" rx="6" fill="#fafafa" stroke="none"/><text x="760" y="-855" text-anchor="middle" font-size="13" fill="#333" font-family="-apple-system,BlinkMacSystemFont,sans-serif">部分收货</text><path d="M696,-800 C708,-800 708,-820 720,-820" fill="none" stroke="#77C386" stroke-width="2"/><rect x="720" y="-835" width="80" height="30" rx="6" fill="#fafafa" stroke="none"/><text x="760" y="-815" text-anchor="middle" font-size="13" fill="#333" font-family="-apple-system,BlinkMacSystemFont,sans-serif">待上架</text><path d="M696,-800 C708,-800 708,-780 720,-780" fill="none" stroke="#77C386" stroke-width="2"/><rect x="720" y="-795" width="80" height="30" rx="6" fill="#fafafa" stroke="none"/><text x="760" y="-775" text-anchor="middle" font-size="13" fill="#333" font-family="-apple-system,BlinkMacSystemFont,sans-serif">已上架</text><path d="M696,-800 C708,-800 708,-740 720,-740" fill="none" stroke="#77C386" stroke-width="2"/><rect x="720" y="-755" width="80" height="30" rx="6" fill="#fafafa" stroke="none"/><text x="760" y="-735" text-anchor="middle" font-size="13" fill="#333" font-family="-apple-system,BlinkMacSystemFont,sans-serif">已取消</text><path d="M696,-800 C708,-800 708,-700 720,-700" fill="none" stroke="#77C386" stroke-width="2"/><rect x="720" y="-715" width="80" height="30" rx="6" fill="#fafafa" stroke="none"/><text x="760" y="-695" text-anchor="middle" font-size="13" fill="#333" font-family="-apple-system,BlinkMacSystemFont,sans-serif">……</text><path d="M440,-880 C490,-880 490,-660 540,-660" fill="none" stroke="#77C386" stroke-width="2"/><rect x="540" y="-675" width="260" height="30" rx="6" fill="#fafafa" stroke="none"/><text x="670" y="-655" text-anchor="middle" font-size="13" fill="#333" font-family="-apple-system,BlinkMacSystemFont,sans-serif">收货、质检、上架的一些逻辑关系是什么</text><path d="M284,-820 C322,-820 322,-520 360,-520" fill="none" stroke="#77C386" stroke-width="2"/><rect x="360" y="-535" width="80" height="30" rx="6" fill="#fafafa" stroke="none"/><text x="400" y="-515" text-anchor="middle" font-size="13" fill="#333" font-family="-apple-system,BlinkMacSystemFont,sans-serif">产品设计</text><path d="M440,-520 C490,-520 490,-620 540,-620" fill="none" stroke="#77C386" stroke-width="2"/><rect x="540" y="-635" width="234" height="30" rx="6" fill="#fafafa" stroke="none"/><text x="657" y="-615" text-anchor="middle" font-size="13" fill="#333" font-family="-apple-system,BlinkMacSystemFont,sans-serif">有多少模块，多少页面，多少功能点</text><path d="M440,-520 C490,-520 490,-580 540,-580" fill="none" stroke="#77C386" stroke-width="2"/><rect x="540" y="-595" width="339.55999999999995" height="30" rx="6" fill="#fafafa" stroke="none"/><text x="709.78" y="-575" text-anchor="middle" font-size="13" fill="#333" font-family="-apple-system,BlinkMacSystemFont,sans-serif">哪些是用Web，哪些是用PDA，哪些需要对接外部系统？</text><path d="M440,-520 C490,-520 490,-540 540,-540" fill="none" stroke="#77C386" stroke-width="2"/><rect x="540" y="-555" width="377" height="30" rx="6" fill="#fafafa" stroke="none"/><text x="728.5" y="-535" text-anchor="middle" font-size="13" fill="#333" font-family="-apple-system,BlinkMacSystemFont,sans-serif">存在什么名词解释，概念解释，逻辑公式等需要提前整理好的</text><path d="M440,-520 C490,-520 490,-460 540,-460" fill="none" stroke="#77C386" stroke-width="2"/><rect x="540" y="-475" width="156" height="30" rx="6" fill="#fafafa" stroke="none"/><text x="618" y="-455" text-anchor="middle" font-size="13" fill="#333" font-family="-apple-system,BlinkMacSystemFont,sans-serif">可能会忽视的一些需求</text><path d="M696,-460 C708,-460 708,-500 720,-500" fill="none" stroke="#77C386" stroke-width="2"/><rect x="720" y="-515" width="80" height="30" rx="6" fill="#fafafa" stroke="none"/><text x="760" y="-495" text-anchor="middle" font-size="13" fill="#333" font-family="-apple-system,BlinkMacSystemFont,sans-serif">稳定性</text><path d="M696,-460 C708,-460 708,-460 720,-460" fill="none" stroke="#77C386" stroke-width="2"/><rect x="720" y="-475" width="80" height="30" rx="6" fill="#fafafa" stroke="none"/><text x="760" y="-455" text-anchor="middle" font-size="13" fill="#333" font-family="-apple-system,BlinkMacSystemFont,sans-serif">批量处理</text><path d="M696,-460 C708,-460 708,-420 720,-420" fill="none" stroke="#77C386" stroke-width="2"/><rect x="720" y="-435" width="104" height="30" rx="6" fill="#fafafa" stroke="none"/><text x="772" y="-415" text-anchor="middle" font-size="13" fill="#333" font-family="-apple-system,BlinkMacSystemFont,sans-serif">异常问题定位</text><path d="M284,-820 C322,-820 322,-340 360,-340" fill="none" stroke="#77C386" stroke-width="2"/><rect x="360" y="-355" width="80" height="30" rx="6" fill="#fafafa" stroke="none"/><text x="400" y="-335" text-anchor="middle" font-size="13" fill="#333" font-family="-apple-system,BlinkMacSystemFont,sans-serif">其他</text><path d="M440,-340 C490,-340 490,-380 540,-380" fill="none" stroke="#77C386" stroke-width="2"/><rect x="540" y="-395" width="507.52" height="30" rx="6" fill="#fafafa" stroke="none"/><text x="793.76" y="-375" text-anchor="middle" font-size="13" fill="#333" font-family="-apple-system,BlinkMacSystemFont,sans-serif">海外仓要考虑多语言设计，UI设计的时候要考虑这个，产品设计的时候也要考虑这个</text><path d="M440,-340 C490,-340 490,-340 540,-340" fill="none" stroke="#77C386" stroke-width="2"/><rect x="540" y="-355" width="650" height="30" rx="6" fill="#fafafa" stroke="none"/><text x="865" y="-335" text-anchor="middle" font-size="13" fill="#333" font-family="-apple-system,BlinkMacSystemFont,sans-serif">海外仓的用户有一些是华人，有一些是当地人，产品设计，产品风格要尽可能接近当地的应用，降低上手难度</text><path d="M440,-340 C490,-340 490,-300 540,-300" fill="none" stroke="#77C386" stroke-width="2"/><rect x="540" y="-315" width="449.28" height="30" rx="6" fill="#fafafa" stroke="none"/><text x="764.64" y="-295" text-anchor="middle" font-size="13" fill="#333" font-family="-apple-system,BlinkMacSystemFont,sans-serif">WMS有很多复杂的配置和逻辑判断，海外仓是否要接入？在什么节点接入？</text><path d="M116,0 C206,0 206,700 296,700" fill="none" stroke="#A287E1" stroke-width="2"/><rect x="180" y="685" width="169" height="30" rx="6" fill="#fafafa" stroke="none"/><text x="264.5" y="705" text-anchor="middle" font-size="13" fill="#333" font-family="-apple-system,BlinkMacSystemFont,sans-serif">预到货通知单（入库单）</text><path d="M349,700 C354.5,700 354.5,-180 360,-180" fill="none" stroke="#A287E1" stroke-width="2"/><rect x="360" y="-195" width="80" height="30" rx="6" fill="#fafafa" stroke="none"/><text x="400" y="-175" text-anchor="middle" font-size="13" fill="#333" font-family="-apple-system,BlinkMacSystemFont,sans-serif">功能结构</text><path d="M440,-180 C490,-180 490,-260 540,-260" fill="none" stroke="#A287E1" stroke-width="2"/><rect x="540" y="-275" width="80" height="30" rx="6" fill="#fafafa" stroke="none"/><text x="580" y="-255" text-anchor="middle" font-size="13" fill="#333" font-family="-apple-system,BlinkMacSystemFont,sans-serif">确认到货</text><path d="M440,-180 C490,-180 490,-220 540,-220" fill="none" stroke="#A287E1" stroke-width="2"/><rect x="540" y="-235" width="104" height="30" rx="6" fill="#fafafa" stroke="none"/><text x="592" y="-215" text-anchor="middle" font-size="13" fill="#333" font-family="-apple-system,BlinkMacSystemFont,sans-serif">打印收货清单</text><path d="M440,-180 C490,-180 490,-180 540,-180" fill="none" stroke="#A287E1" stroke-width="2"/><rect x="540" y="-195" width="98.28" height="30" rx="6" fill="#fafafa" stroke="none"/><text x="589.14" y="-175" text-anchor="middle" font-size="13" fill="#333" font-family="-apple-system,BlinkMacSystemFont,sans-serif">打印SKU标签</text><path d="M440,-180 C490,-180 490,-140 540,-140" fill="none" stroke="#A287E1" stroke-width="2"/><rect x="540" y="-155" width="80" height="30" rx="6" fill="#fafafa" stroke="none"/><text x="580" y="-135" text-anchor="middle" font-size="13" fill="#333" font-family="-apple-system,BlinkMacSystemFont,sans-serif">结束收货</text><path d="M440,-180 C490,-180 490,-100 540,-100" fill="none" stroke="#A287E1" stroke-width="2"/><rect x="540" y="-115" width="80" height="30" rx="6" fill="#fafafa" stroke="none"/><text x="580" y="-95" text-anchor="middle" font-size="13" fill="#333" font-family="-apple-system,BlinkMacSystemFont,sans-serif">PDA收货</text><path d="M349,700 C354.5,700 354.5,720 360,720" fill="none" stroke="#A287E1" stroke-width="2"/><rect x="360" y="705" width="80" height="30" rx="6" fill="#fafafa" stroke="none"/><text x="400" y="725" text-anchor="middle" font-size="13" fill="#333" font-family="-apple-system,BlinkMacSystemFont,sans-serif">信息结构</text><path d="M440,720 C490,720 490,-60 540,-60" fill="none" stroke="#A287E1" stroke-width="2"/><rect x="540" y="-75" width="80" height="30" rx="6" fill="#fafafa" stroke="none"/><text x="580" y="-55" text-anchor="middle" font-size="13" fill="#333" font-family="-apple-system,BlinkMacSystemFont,sans-serif">入库单号</text><path d="M620,-60 C670,-60 670,-60 720,-60" fill="none" stroke="#A287E1" stroke-width="2"/><rect x="720" y="-75" width="111.28" height="30" rx="6" fill="#fafafa" stroke="none"/><text x="775.64" y="-55" text-anchor="middle" font-size="13" fill="#333" font-family="-apple-system,BlinkMacSystemFont,sans-serif">OMS的入库单号</text><path d="M440,720 C490,720 490,0 540,0" fill="none" stroke="#A287E1" stroke-width="2"/><rect x="540" y="-15" width="80" height="30" rx="6" fill="#fafafa" stroke="none"/><text x="580" y="5" text-anchor="middle" font-size="13" fill="#333" font-family="-apple-system,BlinkMacSystemFont,sans-serif">ASN No.</text><path d="M620,0 C670,0 670,-20 720,-20" fill="none" stroke="#A287E1" stroke-width="2"/><rect x="720" y="-35" width="150.8" height="30" rx="6" fill="#fafafa" stroke="none"/><text x="795.4" y="-15" text-anchor="middle" font-size="13" fill="#333" font-family="-apple-system,BlinkMacSystemFont,sans-serif">WMS内部生成的入库ID</text><path d="M620,0 C670,0 670,20 720,20" fill="none" stroke="#A287E1" stroke-width="2"/><rect x="720" y="5" width="104" height="30" rx="6" fill="#fafafa" stroke="none"/><text x="772" y="25" text-anchor="middle" font-size="13" fill="#333" font-family="-apple-system,BlinkMacSystemFont,sans-serif">放在详情页中</text><path d="M440,720 C490,720 490,80 540,80" fill="none" stroke="#A287E1" stroke-width="2"/><rect x="540" y="65" width="80" height="30" rx="6" fill="#fafafa" stroke="none"/><text x="580" y="85" text-anchor="middle" font-size="13" fill="#333" font-family="-apple-system,BlinkMacSystemFont,sans-serif">客户</text><path d="M620,80 C670,80 670,60 720,60" fill="none" stroke="#A287E1" stroke-width="2"/><rect x="720" y="45" width="80" height="30" rx="6" fill="#fafafa" stroke="none"/><text x="760" y="65" text-anchor="middle" font-size="13" fill="#333" font-family="-apple-system,BlinkMacSystemFont,sans-serif">客户代码</text><path d="M620,80 C670,80 670,100 720,100" fill="none" stroke="#A287E1" stroke-width="2"/><rect x="720" y="85" width="80" height="30" rx="6" fill="#fafafa" stroke="none"/><text x="760" y="105" text-anchor="middle" font-size="13" fill="#333" font-family="-apple-system,BlinkMacSystemFont,sans-serif">客户名称</text><path d="M440,720 C490,720 490,280 540,280" fill="none" stroke="#A287E1" stroke-width="2"/><rect x="540" y="265" width="80" height="30" rx="6" fill="#fafafa" stroke="none"/><text x="580" y="285" text-anchor="middle" font-size="13" fill="#333" font-family="-apple-system,BlinkMacSystemFont,sans-serif">到货方式</text><path d="M620,280 C670,280 670,140 720,140" fill="none" stroke="#A287E1" stroke-width="2"/><rect x="720" y="125" width="80" height="30" rx="6" fill="#fafafa" stroke="none"/><text x="760" y="145" text-anchor="middle" font-size="13" fill="#333" font-family="-apple-system,BlinkMacSystemFont,sans-serif">快递包裹</text><path d="M620,280 C670,280 670,180 720,180" fill="none" stroke="#A287E1" stroke-width="2"/><rect x="720" y="165" width="80" height="30" rx="6" fill="#fafafa" stroke="none"/><text x="760" y="185" text-anchor="middle" font-size="13" fill="#333" font-family="-apple-system,BlinkMacSystemFont,sans-serif">箱</text><path d="M620,280 C670,280 670,220 720,220" fill="none" stroke="#A287E1" stroke-width="2"/><rect x="720" y="205" width="84.75999999999999" height="30" rx="6" fill="#fafafa" stroke="none"/><text x="762.38" y="225" text-anchor="middle" font-size="13" fill="#333" font-family="-apple-system,BlinkMacSystemFont,sans-serif">托盘/卡板</text><path d="M620,280 C670,280 670,260 720,260" fill="none" stroke="#A287E1" stroke-width="2"/><rect x="720" y="245" width="97.11" height="30" rx="6" fill="#fafafa" stroke="none"/><text x="768.555" y="265" text-anchor="middle" font-size="13" fill="#333" font-family="-apple-system,BlinkMacSystemFont,sans-serif">货柜 (20GP)</text><path d="M620,280 C670,280 670,300 720,300" fill="none" stroke="#A287E1" stroke-width="2"/><rect x="720" y="285" width="97.11" height="30" rx="6" fill="#fafafa" stroke="none"/><text x="768.555" y="305" text-anchor="middle" font-size="13" fill="#333" font-family="-apple-system,BlinkMacSystemFont,sans-serif">货柜 (20HQ)</text><path d="M620,280 C670,280 670,340 720,340" fill="none" stroke="#A287E1" stroke-width="2"/><rect x="720" y="325" width="97.11" height="30" rx="6" fill="#fafafa" stroke="none"/><text x="768.555" y="345" text-anchor="middle" font-size="13" fill="#333" font-family="-apple-system,BlinkMacSystemFont,sans-serif">货柜 (40GP)</text><path d="M620,280 C670,280 670,380 720,380" fill="none" stroke="#A287E1" stroke-width="2"/><rect x="720" y="365" width="97.11" height="30" rx="6" fill="#fafafa" stroke="none"/><text x="768.555" y="385" text-anchor="middle" font-size="13" fill="#333" font-family="-apple-system,BlinkMacSystemFont,sans-serif">货柜 (40HQ)</text><path d="M620,280 C670,280 670,420 720,420" fill="none" stroke="#A287E1" stroke-width="2"/><rect x="720" y="405" width="97.11" height="30" rx="6" fill="#fafafa" stroke="none"/><text x="768.555" y="425" text-anchor="middle" font-size="13" fill="#333" font-family="-apple-system,BlinkMacSystemFont,sans-serif">货柜 (45HQ)</text><path d="M440,720 C490,720 490,460 540,460" fill="none" stroke="#A287E1" stroke-width="2"/><rect x="540" y="445" width="104" height="30" rx="6" fill="#fafafa" stroke="none"/><text x="592" y="465" text-anchor="middle" font-size="13" fill="#333" font-family="-apple-system,BlinkMacSystemFont,sans-serif">预计到达日期</text><path d="M440,720 C490,720 490,500 540,500" fill="none" stroke="#A287E1" stroke-width="2"/><rect x="540" y="485" width="110.75999999999999" height="30" rx="6" fill="#fafafa" stroke="none"/><text x="595.38" y="505" text-anchor="middle" font-size="13" fill="#333" font-family="-apple-system,BlinkMacSystemFont,sans-serif">跟踪号/货柜号</text><path d="M650.76,500 C685.38,500 685.38,500 720,500" fill="none" stroke="#A287E1" stroke-width="2"/><rect x="720" y="485" width="189.28000000000003" height="30" rx="6" fill="#fafafa" stroke="none"/><text x="814.64" y="505" text-anchor="middle" font-size="13" fill="#333" font-family="-apple-system,BlinkMacSystemFont,sans-serif">支持多个，OMS可以后续追加</text><path d="M440,720 C490,720 490,540 540,540" fill="none" stroke="#A287E1" stroke-width="2"/><rect x="540" y="525" width="80" height="30" rx="6" fill="#fafafa" stroke="none"/><text x="580" y="545" text-anchor="middle" font-size="13" fill="#333" font-family="-apple-system,BlinkMacSystemFont,sans-serif">参考单号</text><path d="M440,720 C490,720 490,580 540,580" fill="none" stroke="#A287E1" stroke-width="2"/><rect x="540" y="565" width="80" height="30" rx="6" fill="#fafafa" stroke="none"/><text x="580" y="585" text-anchor="middle" font-size="13" fill="#333" font-family="-apple-system,BlinkMacSystemFont,sans-serif">备注</text><path d="M440,720 C490,720 490,620 540,620" fill="none" stroke="#A287E1" stroke-width="2"/><rect x="540" y="605" width="80" height="30" rx="6" fill="#fafafa" stroke="none"/><text x="580" y="625" text-anchor="middle" font-size="13" fill="#333" font-family="-apple-system,BlinkMacSystemFont,sans-serif">创建时间</text><path d="M620,620 C670,620 670,620 720,620" fill="none" stroke="#A287E1" stroke-width="2"/><rect x="720" y="605" width="183.56" height="30" rx="6" fill="#fafafa" stroke="none"/><text x="811.78" y="625" text-anchor="middle" font-size="13" fill="#333" font-family="-apple-system,BlinkMacSystemFont,sans-serif">OMS提交入库单到WMS的时间</text><path d="M440,720 C490,720 490,820 540,820" fill="none" stroke="#A287E1" stroke-width="2"/><rect x="540" y="805" width="80" height="30" rx="6" fill="#fafafa" stroke="none"/><text x="580" y="825" text-anchor="middle" font-size="13" fill="#333" font-family="-apple-system,BlinkMacSystemFont,sans-serif">状态</text><path d="M620,820 C670,820 670,700 720,700" fill="none" stroke="#A287E1" stroke-width="2"/><rect x="720" y="685" width="80" height="30" rx="6" fill="#fafafa" stroke="none"/><text x="760" y="705" text-anchor="middle" font-size="13" fill="#333" font-family="-apple-system,BlinkMacSystemFont,sans-serif">待收货</text><path d="M800,700 C850,700 850,700 900,700" fill="none" stroke="#A287E1" stroke-width="2"/><rect x="900" y="685" width="384.28" height="30" rx="6" fill="#fafafa" stroke="none"/><text x="1092.1399999999999" y="705" text-anchor="middle" font-size="13" fill="#333" font-family="-apple-system,BlinkMacSystemFont,sans-serif">OMS推送了入库单到仓库，但是货物还在路上，还没有开始收货</text><path d="M1284.28,700 C1182.1399999999999,700 1182.1399999999999,660 1080,660" fill="none" stroke="#A287E1" stroke-width="2"/><rect x="1080" y="645" width="80" height="30" rx="6" fill="#fafafa" stroke="none"/><text x="1120" y="665" text-anchor="middle" font-size="13" fill="#333" font-family="-apple-system,BlinkMacSystemFont,sans-serif">开始收货</text><path d="M1284.28,700 C1182.1399999999999,700 1182.1399999999999,700 1080,700" fill="none" stroke="#A287E1" stroke-width="2"/><rect x="1080" y="685" width="104" height="30" rx="6" fill="#fafafa" stroke="none"/><text x="1132" y="705" text-anchor="middle" font-size="13" fill="#333" font-family="-apple-system,BlinkMacSystemFont,sans-serif">打印收货清单</text><path d="M1284.28,700 C1182.1399999999999,700 1182.1399999999999,740 1080,740" fill="none" stroke="#A287E1" stroke-width="2"/><rect x="1080" y="725" width="80" height="30" rx="6" fill="#fafafa" stroke="none"/><text x="1120" y="745" text-anchor="middle" font-size="13" fill="#333" font-family="-apple-system,BlinkMacSystemFont,sans-serif">打印SKU</text><path d="M620,820 C670,820 670,820 720,820" fill="none" stroke="#A287E1" stroke-width="2"/><rect x="720" y="805" width="80" height="30" rx="6" fill="#fafafa" stroke="none"/><text x="760" y="825" text-anchor="middle" font-size="13" fill="#333" font-family="-apple-system,BlinkMacSystemFont,sans-serif">收货中</text><path d="M800,820 C850,820 850,820 900,820" fill="none" stroke="#A287E1" stroke-width="2"/><rect x="900" y="805" width="254.28" height="30" rx="6" fill="#fafafa" stroke="none"/><text x="1027.14" y="825" text-anchor="middle" font-size="13" fill="#333" font-family="-apple-system,BlinkMacSystemFont,sans-serif">WMS确认货物到了，然后已经开始收货了</text><path d="M1154.28,820 C1117.1399999999999,820 1117.1399999999999,780 1080,780" fill="none" stroke="#A287E1" stroke-width="2"/><rect x="1080" y="765" width="80" height="30" rx="6" fill="#fafafa" stroke="none"/><text x="1120" y="785" text-anchor="middle" font-size="13" fill="#333" font-family="-apple-system,BlinkMacSystemFont,sans-serif">继续收货</text><path d="M1154.28,820 C1117.1399999999999,820 1117.1399999999999,820 1080,820" fill="none" stroke="#A287E1" stroke-width="2"/><rect x="1080" y="805" width="104" height="30" rx="6" fill="#fafafa" stroke="none"/><text x="1132" y="825" text-anchor="middle" font-size="13" fill="#333" font-family="-apple-system,BlinkMacSystemFont,sans-serif">打印收货清单</text><path d="M1154.28,820 C1117.1399999999999,820 1117.1399999999999,860 1080,860" fill="none" stroke="#A287E1" stroke-width="2"/><rect x="1080" y="845" width="80" height="30" rx="6" fill="#fafafa" stroke="none"/><text x="1120" y="865" text-anchor="middle" font-size="13" fill="#333" font-family="-apple-system,BlinkMacSystemFont,sans-serif">打印SKU</text><path d="M620,820 C670,820 670,900 720,900" fill="none" stroke="#A287E1" stroke-width="2"/><rect x="720" y="885" width="80" height="30" rx="6" fill="#fafafa" stroke="none"/><text x="760" y="905" text-anchor="middle" font-size="13" fill="#333" font-family="-apple-system,BlinkMacSystemFont,sans-serif">已收货</text><path d="M800,900 C850,900 850,900 900,900" fill="none" stroke="#A287E1" stroke-width="2"/><rect x="900" y="885" width="247" height="30" rx="6" fill="#fafafa" stroke="none"/><text x="1023.5" y="905" text-anchor="middle" font-size="13" fill="#333" font-family="-apple-system,BlinkMacSystemFont,sans-serif">所有的箱唛全部到了，全部收货完成了</text><path d="M1147,900 C1113.5,900 1113.5,900 1080,900" fill="none" stroke="#A287E1" stroke-width="2"/><rect x="1080" y="885" width="80" height="30" rx="6" fill="#fafafa" stroke="none"/><text x="1120" y="905" text-anchor="middle" font-size="13" fill="#333" font-family="-apple-system,BlinkMacSystemFont,sans-serif">无操作</text><path d="M620,820 C670,820 670,940 720,940" fill="none" stroke="#A287E1" stroke-width="2"/><rect x="720" y="925" width="80" height="30" rx="6" fill="#fafafa" stroke="none"/><text x="760" y="945" text-anchor="middle" font-size="13" fill="#333" font-family="-apple-system,BlinkMacSystemFont,sans-serif">已上架</text><path d="M800,940 C850,940 850,940 900,940" fill="none" stroke="#A287E1" stroke-width="2"/><rect x="900" y="925" width="169" height="30" rx="6" fill="#fafafa" stroke="none"/><text x="984.5" y="945" text-anchor="middle" font-size="13" fill="#333" font-family="-apple-system,BlinkMacSystemFont,sans-serif">所有的产品都上架完成了</text><path d="M1069,940 C1074.5,940 1074.5,940 1080,940" fill="none" stroke="#A287E1" stroke-width="2"/><rect x="1080" y="925" width="80" height="30" rx="6" fill="#fafafa" stroke="none"/><text x="1120" y="945" text-anchor="middle" font-size="13" fill="#333" font-family="-apple-system,BlinkMacSystemFont,sans-serif">无操作</text><path d="M620,820 C670,820 670,980 720,980" fill="none" stroke="#A287E1" stroke-width="2"/><rect x="720" y="965" width="80" height="30" rx="6" fill="#fafafa" stroke="none"/><text x="760" y="985" text-anchor="middle" font-size="13" fill="#333" font-family="-apple-system,BlinkMacSystemFont,sans-serif">已取消</text><path d="M800,980 C850,980 850,980 900,980" fill="none" stroke="#A287E1" stroke-width="2"/><rect x="900" y="965" width="117" height="30" rx="6" fill="#fafafa" stroke="none"/><text x="958.5" y="985" text-anchor="middle" font-size="13" fill="#333" font-family="-apple-system,BlinkMacSystemFont,sans-serif">入库单被取消了</text><path d="M1017,980 C1048.5,980 1048.5,980 1080,980" fill="none" stroke="#A287E1" stroke-width="2"/><rect x="1080" y="965" width="80" height="30" rx="6" fill="#fafafa" stroke="none"/><text x="1120" y="985" text-anchor="middle" font-size="13" fill="#333" font-family="-apple-system,BlinkMacSystemFont,sans-serif">无操作</text><path d="M440,720 C490,720 490,1020 540,1020" fill="none" stroke="#A287E1" stroke-width="2"/><rect x="540" y="1005" width="80" height="30" rx="6" fill="#fafafa" stroke="none"/><text x="580" y="1025" text-anchor="middle" font-size="13" fill="#333" font-family="-apple-system,BlinkMacSystemFont,sans-serif">总箱数</text><path d="M620,1020 C670,1020 670,1020 720,1020" fill="none" stroke="#A287E1" stroke-width="2"/><rect x="720" y="1005" width="91" height="30" rx="6" fill="#fafafa" stroke="none"/><text x="765.5" y="1025" text-anchor="middle" font-size="13" fill="#333" font-family="-apple-system,BlinkMacSystemFont,sans-serif">计数统计的</text><path d="M440,720 C490,720 490,1200 540,1200" fill="none" stroke="#A287E1" stroke-width="2"/><rect x="540" y="1185" width="80" height="30" rx="6" fill="#fafafa" stroke="none"/><text x="580" y="1205" text-anchor="middle" font-size="13" fill="#333" font-family="-apple-system,BlinkMacSystemFont,sans-serif">产品明细</text><path d="M620,1200 C670,1200 670,1060 720,1060" fill="none" stroke="#A287E1" stroke-width="2"/><rect x="720" y="1045" width="80" height="30" rx="6" fill="#fafafa" stroke="none"/><text x="760" y="1065" text-anchor="middle" font-size="13" fill="#333" font-family="-apple-system,BlinkMacSystemFont,sans-serif">箱唛号</text><path d="M620,1200 C670,1200 670,1100 720,1100" fill="none" stroke="#A287E1" stroke-width="2"/><rect x="720" y="1085" width="80" height="30" rx="6" fill="#fafafa" stroke="none"/><text x="760" y="1105" text-anchor="middle" font-size="13" fill="#333" font-family="-apple-system,BlinkMacSystemFont,sans-serif">尺寸</text><path d="M620,1200 C670,1200 670,1140 720,1140" fill="none" stroke="#A287E1" stroke-width="2"/><rect x="720" y="1125" width="80" height="30" rx="6" fill="#fafafa" stroke="none"/><text x="760" y="1145" text-anchor="middle" font-size="13" fill="#333" font-family="-apple-system,BlinkMacSystemFont,sans-serif">重量</text><path d="M620,1200 C670,1200 670,1180 720,1180" fill="none" stroke="#A287E1" stroke-width="2"/><rect x="720" y="1165" width="80" height="30" rx="6" fill="#fafafa" stroke="none"/><text x="760" y="1185" text-anchor="middle" font-size="13" fill="#333" font-family="-apple-system,BlinkMacSystemFont,sans-serif">SKU</text><path d="M620,1200 C670,1200 670,1220 720,1220" fill="none" stroke="#A287E1" stroke-width="2"/><rect x="720" y="1205" width="80" height="30" rx="6" fill="#fafafa" stroke="none"/><text x="760" y="1225" text-anchor="middle" font-size="13" fill="#333" font-family="-apple-system,BlinkMacSystemFont,sans-serif">产品名称</text><path d="M620,1200 C670,1200 670,1260 720,1260" fill="none" stroke="#A287E1" stroke-width="2"/><rect x="720" y="1245" width="80" height="30" rx="6" fill="#fafafa" stroke="none"/><text x="760" y="1265" text-anchor="middle" font-size="13" fill="#333" font-family="-apple-system,BlinkMacSystemFont,sans-serif">预报数量</text><path d="M620,1200 C670,1200 670,1300 720,1300" fill="none" stroke="#A287E1" stroke-width="2"/><rect x="720" y="1285" width="80" height="30" rx="6" fill="#fafafa" stroke="none"/><text x="760" y="1305" text-anchor="middle" font-size="13" fill="#333" font-family="-apple-system,BlinkMacSystemFont,sans-serif">实收数量</text><path d="M620,1200 C670,1200 670,1340 720,1340" fill="none" stroke="#A287E1" stroke-width="2"/><rect x="720" y="1325" width="80" height="30" rx="6" fill="#fafafa" stroke="none"/><text x="760" y="1345" text-anchor="middle" font-size="13" fill="#333" font-family="-apple-system,BlinkMacSystemFont,sans-serif">上架数量</text><path d="M440,720 C490,720 490,1440 540,1440" fill="none" stroke="#A287E1" stroke-width="2"/><rect x="540" y="1425" width="80" height="30" rx="6" fill="#fafafa" stroke="none"/><text x="580" y="1445" text-anchor="middle" font-size="13" fill="#333" font-family="-apple-system,BlinkMacSystemFont,sans-serif">操作日志</text><path d="M620,1440 C670,1440 670,1380 720,1380" fill="none" stroke="#A287E1" stroke-width="2"/><rect x="720" y="1365" width="195" height="30" rx="6" fill="#fafafa" stroke="none"/><text x="817.5" y="1385" text-anchor="middle" font-size="13" fill="#333" font-family="-apple-system,BlinkMacSystemFont,sans-serif">入库需要记录一些细节的节点</text><path d="M620,1440 C670,1440 670,1420 720,1420" fill="none" stroke="#A287E1" stroke-width="2"/><rect x="720" y="1405" width="221" height="30" rx="6" fill="#fafafa" stroke="none"/><text x="830.5" y="1425" text-anchor="middle" font-size="13" fill="#333" font-family="-apple-system,BlinkMacSystemFont,sans-serif">什么时候到仓了，什么时候入库了</text><path d="M620,1440 C670,1440 670,1460 720,1460" fill="none" stroke="#A287E1" stroke-width="2"/><rect x="720" y="1445" width="247" height="30" rx="6" fill="#fafafa" stroke="none"/><text x="843.5" y="1465" text-anchor="middle" font-size="13" fill="#333" font-family="-apple-system,BlinkMacSystemFont,sans-serif">什么时候收货了，什么时候完成上架了</text><path d="M620,1440 C670,1440 670,1500 720,1500" fill="none" stroke="#A287E1" stroke-width="2"/><rect x="720" y="1485" width="80" height="30" rx="6" fill="#fafafa" stroke="none"/><text x="760" y="1505" text-anchor="middle" font-size="13" fill="#333" font-family="-apple-system,BlinkMacSystemFont,sans-serif">……</text><path d="M349,700 C354.5,700 354.5,1600 360,1600" fill="none" stroke="#A287E1" stroke-width="2"/><rect x="360" y="1585" width="80" height="30" rx="6" fill="#fafafa" stroke="none"/><text x="400" y="1605" text-anchor="middle" font-size="13" fill="#333" font-family="-apple-system,BlinkMacSystemFont,sans-serif">新品维护</text><path d="M440,1600 C490,1600 490,1540 540,1540" fill="none" stroke="#A287E1" stroke-width="2"/><rect x="540" y="1525" width="182" height="30" rx="6" fill="#fafafa" stroke="none"/><text x="631" y="1545" text-anchor="middle" font-size="13" fill="#333" font-family="-apple-system,BlinkMacSystemFont,sans-serif">扫描入库单，然后扫描箱码</text><path d="M440,1600 C490,1600 490,1580 540,1580" fill="none" stroke="#A287E1" stroke-width="2"/><rect x="540" y="1565" width="553.28" height="30" rx="6" fill="#fafafa" stroke="none"/><text x="816.64" y="1585" text-anchor="middle" font-size="13" fill="#333" font-family="-apple-system,BlinkMacSystemFont,sans-serif">然后扫描SKU的时候判断，是否是新品，如果是新品，则提醒先维护尺寸信息，然后才能收货</text><path d="M440,1600 C490,1600 490,1620 540,1620" fill="none" stroke="#A287E1" stroke-width="2"/><rect x="540" y="1605" width="482.55999999999995" height="30" rx="6" fill="#fafafa" stroke="none"/><text x="781.28" y="1625" text-anchor="middle" font-size="13" fill="#333" font-family="-apple-system,BlinkMacSystemFont,sans-serif">PDA弹出维护新品的界面，一定要在PDA上维护了之后才能进入收货的子流程界面</text><path d="M440,1600 C490,1600 490,1660 540,1660" fill="none" stroke="#A287E1" stroke-width="2"/><rect x="540" y="1645" width="429" height="30" rx="6" fill="#fafafa" stroke="none"/><text x="754.5" y="1665" text-anchor="middle" font-size="13" fill="#333" font-family="-apple-system,BlinkMacSystemFont,sans-serif">维护了新品之后弹窗消失，记录更新的尺寸和重量，同时标记为非新品</text>
</svg>