<svg xmlns="http://www.w3.org/2000/svg" xmlns:xlink="http://www.w3.org/1999/xlink"
  viewBox="-184 -1019 2183.2329050864314 2038" width="2183.2329050864314" height="2038"
  style="background:#fff; font-family:-apple-system,BlinkMacSystemFont,'Segoe UI',Roboto,sans-serif;">
<defs></defs>
<rect x="-184" y="-1019" width="2183.2329050864314" height="2038" fill="#fff"/>
<rect x="-100" y="-18" width="200" height="36" rx="8" fill="rgb(245, 245, 245)" stroke="none"/><text x="0" y="6" text-anchor="middle" font-size="16" font-weight="bold" fill="#333" font-family="-apple-system,BlinkMacSystemFont,sans-serif">跨境海外仓的业务知识</text><path d="M100,0 C190,0 190,-860 280,-860" fill="none" stroke="#A287E1" stroke-width="2"/><rect x="180" y="-875" width="104" height="30" rx="6" fill="#fafafa" stroke="none"/><text x="232" y="-855" text-anchor="middle" font-size="13" fill="#333" font-family="-apple-system,BlinkMacSystemFont,sans-serif">海外仓的定义</text><path d="M284,-860 C322,-860 322,-920 360,-920" fill="none" stroke="#A287E1" stroke-width="2"/><rect x="360" y="-935" width="1001.52" height="30" rx="6" fill="#fafafa" stroke="none"/><text x="860.76" y="-915" text-anchor="middle" font-size="13" fill="#333" font-family="-apple-system,BlinkMacSystemFont,sans-serif">字面意思来说，“海外仓”是指建立在海外的仓储设施。跨境电商企业按照一般贸易方式，将商品批量出口到境外仓库，电商平台完成销售后，再将商品送达境外的消费者。</text><path d="M284,-860 C322,-860 322,-840 360,-840" fill="none" stroke="#A287E1" stroke-width="2"/><rect x="360" y="-855" width="182" height="30" rx="6" fill="#fafafa" stroke="none"/><text x="451" y="-835" text-anchor="middle" font-size="13" fill="#333" font-family="-apple-system,BlinkMacSystemFont,sans-serif">目前海外仓主要分为三种：</text><path d="M542,-840 C541,-840 541,-880 540,-880" fill="none" stroke="#A287E1" stroke-width="2"/><rect x="540" y="-895" width="273.52" height="30" rx="6" fill="#fafafa" stroke="none"/><text x="676.76" y="-875" text-anchor="middle" font-size="13" fill="#333" font-family="-apple-system,BlinkMacSystemFont,sans-serif">1.卖家自建仓：跨境卖家自己筹建的海外仓</text><path d="M542,-840 C541,-840 541,-840 540,-840" fill="none" stroke="#A287E1" stroke-width="2"/><rect x="540" y="-855" width="345.79999999999995" height="30" rx="6" fill="#fafafa" stroke="none"/><text x="712.9" y="-835" text-anchor="middle" font-size="13" fill="#333" font-family="-apple-system,BlinkMacSystemFont,sans-serif">2.平台仓：跨境电商平台建设的海外仓，如亚马逊的FBA</text><path d="M542,-840 C541,-840 541,-800 540,-800" fill="none" stroke="#A287E1" stroke-width="2"/><rect x="540" y="-815" width="351.52" height="30" rx="6" fill="#fafafa" stroke="none"/><text x="715.76" y="-795" text-anchor="middle" font-size="13" fill="#333" font-family="-apple-system,BlinkMacSystemFont,sans-serif">3.第三方海外仓：由专业的海外仓管理公司建立的海外仓</text><path d="M100,0 C190,0 190,-480 280,-480" fill="none" stroke="#6F81DB" stroke-width="2"/><rect x="180" y="-495" width="130" height="30" rx="6" fill="#fafafa" stroke="none"/><text x="245" y="-475" text-anchor="middle" font-size="13" fill="#333" font-family="-apple-system,BlinkMacSystemFont,sans-serif">海外仓的业务介绍</text><path d="M310,-480 C335,-480 335,-720 360,-720" fill="none" stroke="#6F81DB" stroke-width="2"/><rect x="360" y="-735" width="80" height="30" rx="6" fill="#fafafa" stroke="none"/><text x="400" y="-715" text-anchor="middle" font-size="13" fill="#333" font-family="-apple-system,BlinkMacSystemFont,sans-serif">一件代发</text><path d="M440,-720 C490,-720 490,-760 540,-760" fill="none" stroke="#6F81DB" stroke-width="2"/><rect x="540" y="-775" width="325" height="30" rx="6" fill="#fafafa" stroke="none"/><text x="702.5" y="-755" text-anchor="middle" font-size="13" fill="#333" font-family="-apple-system,BlinkMacSystemFont,sans-serif">接收卖家的订单信息指令，将货物发送到消费者手里</text><path d="M440,-720 C490,-720 490,-720 540,-720" fill="none" stroke="#6F81DB" stroke-width="2"/><rect x="540" y="-735" width="286.52" height="30" rx="6" fill="#fafafa" stroke="none"/><text x="683.26" y="-715" text-anchor="middle" font-size="13" fill="#333" font-family="-apple-system,BlinkMacSystemFont,sans-serif">关于为啥要叫“一件代发”，之前写过一篇文章</text><path d="M826.52,-720 C773.26,-720 773.26,-720 720,-720" fill="none" stroke="#6F81DB" stroke-width="2"/><rect x="720" y="-735" width="260" height="30" rx="6" fill="#fafafa" stroke="none"/><text x="850" y="-715" text-anchor="middle" font-size="13" fill="#333" font-family="-apple-system,BlinkMacSystemFont,sans-serif">跨境电商圈子中的一件代发是什么意思？</text><path d="M440,-720 C490,-720 490,-680 540,-680" fill="none" stroke="#6F81DB" stroke-width="2"/><rect x="540" y="-695" width="80" height="30" rx="6" fill="#fafafa" stroke="none"/><text x="580" y="-675" text-anchor="middle" font-size="13" fill="#333" font-family="-apple-system,BlinkMacSystemFont,sans-serif"></text><path d="M310,-480 C335,-480 335,-600 360,-600" fill="none" stroke="#6F81DB" stroke-width="2"/><rect x="360" y="-615" width="80" height="30" rx="6" fill="#fafafa" stroke="none"/><text x="400" y="-595" text-anchor="middle" font-size="13" fill="#333" font-family="-apple-system,BlinkMacSystemFont,sans-serif">备货中转</text><path d="M440,-600 C490,-600 490,-640 540,-640" fill="none" stroke="#6F81DB" stroke-width="2"/><rect x="540" y="-655" width="455" height="30" rx="6" fill="#fafafa" stroke="none"/><text x="767.5" y="-635" text-anchor="middle" font-size="13" fill="#333" font-family="-apple-system,BlinkMacSystemFont,sans-serif">主要是将货物从海外仓送到亚马逊的仓库中去，海外仓承担一个中转的作用</text><path d="M440,-600 C490,-600 490,-600 540,-600" fill="none" stroke="#6F81DB" stroke-width="2"/><rect x="540" y="-615" width="443.56" height="30" rx="6" fill="#fafafa" stroke="none"/><text x="761.78" y="-595" text-anchor="middle" font-size="13" fill="#333" font-family="-apple-system,BlinkMacSystemFont,sans-serif">可以理解为B2B业务或者是调拨的业务，从海外仓调拨到亚马逊的FBA仓库</text><path d="M440,-600 C490,-600 490,-560 540,-560" fill="none" stroke="#6F81DB" stroke-width="2"/><rect x="540" y="-575" width="80" height="30" rx="6" fill="#fafafa" stroke="none"/><text x="580" y="-555" text-anchor="middle" font-size="13" fill="#333" font-family="-apple-system,BlinkMacSystemFont,sans-serif"></text><path d="M310,-480 C335,-480 335,-500 360,-500" fill="none" stroke="#6F81DB" stroke-width="2"/><rect x="360" y="-515" width="80" height="30" rx="6" fill="#fafafa" stroke="none"/><text x="400" y="-495" text-anchor="middle" font-size="13" fill="#333" font-family="-apple-system,BlinkMacSystemFont,sans-serif">退货换标</text><path d="M440,-500 C490,-500 490,-520 540,-520" fill="none" stroke="#6F81DB" stroke-width="2"/><rect x="540" y="-535" width="1028.56" height="30" rx="6" fill="#fafafa" stroke="none"/><text x="1054.28" y="-515" text-anchor="middle" font-size="13" fill="#333" font-family="-apple-system,BlinkMacSystemFont,sans-serif">货物从亚马逊的FBA仓库移除出来，需要让海外仓进行接收。海外仓接收后，再进行相关的换标或者加工处理，加工后再发到FBA仓库中或者发到消费者手里，也可以直接销毁等</text><path d="M440,-500 C490,-500 490,-480 540,-480" fill="none" stroke="#6F81DB" stroke-width="2"/><rect x="540" y="-495" width="80" height="30" rx="6" fill="#fafafa" stroke="none"/><text x="580" y="-475" text-anchor="middle" font-size="13" fill="#333" font-family="-apple-system,BlinkMacSystemFont,sans-serif"></text><path d="M310,-480 C335,-480 335,-400 360,-400" fill="none" stroke="#6F81DB" stroke-width="2"/><rect x="360" y="-415" width="80" height="30" rx="6" fill="#fafafa" stroke="none"/><text x="400" y="-395" text-anchor="middle" font-size="13" fill="#333" font-family="-apple-system,BlinkMacSystemFont,sans-serif">拆柜转运</text><path d="M440,-400 C490,-400 490,-440 540,-440" fill="none" stroke="#6F81DB" stroke-width="2"/><rect x="540" y="-455" width="793" height="30" rx="6" fill="#fafafa" stroke="none"/><text x="936.5" y="-435" text-anchor="middle" font-size="13" fill="#333" font-family="-apple-system,BlinkMacSystemFont,sans-serif">头程使用海运的方式送过来的整柜需要拆开，然后分发到不同的目的地去，柜子会先送到海外仓进行拆柜，然后再按业务指令转运出去</text><path d="M440,-400 C490,-400 490,-400 540,-400" fill="none" stroke="#6F81DB" stroke-width="2"/><rect x="540" y="-415" width="664.04" height="30" rx="6" fill="#fafafa" stroke="none"/><text x="872.02" y="-395" text-anchor="middle" font-size="13" fill="#333" font-family="-apple-system,BlinkMacSystemFont,sans-serif">“揽仓关干关转配”的流程中，揽和仓就是在国内集货/拼柜，然后到了海外仓之后，就需要反向操作，拆货/拆柜</text><path d="M440,-400 C490,-400 490,-360 540,-360" fill="none" stroke="#6F81DB" stroke-width="2"/><rect x="540" y="-375" width="80" height="30" rx="6" fill="#fafafa" stroke="none"/><text x="580" y="-355" text-anchor="middle" font-size="13" fill="#333" font-family="-apple-system,BlinkMacSystemFont,sans-serif"></text><path d="M310,-480 C335,-480 335,-260 360,-260" fill="none" stroke="#6F81DB" stroke-width="2"/><rect x="360" y="-275" width="110.75999999999999" height="30" rx="6" fill="#fafafa" stroke="none"/><text x="415.38" y="-255" text-anchor="middle" font-size="13" fill="#333" font-family="-apple-system,BlinkMacSystemFont,sans-serif">售后/增值服务</text><path d="M470.76,-260 C505.38,-260 505.38,-320 540,-320" fill="none" stroke="#6F81DB" stroke-width="2"/><rect x="540" y="-335" width="130" height="30" rx="6" fill="#fafafa" stroke="none"/><text x="605" y="-315" text-anchor="middle" font-size="13" fill="#333" font-family="-apple-system,BlinkMacSystemFont,sans-serif">比较少，不展开讲</text><path d="M470.76,-260 C505.38,-260 505.38,-280 540,-280" fill="none" stroke="#6F81DB" stroke-width="2"/><rect x="540" y="-295" width="80" height="30" rx="6" fill="#fafafa" stroke="none"/><text x="580" y="-275" text-anchor="middle" font-size="13" fill="#333" font-family="-apple-system,BlinkMacSystemFont,sans-serif">客户退货</text><path d="M470.76,-260 C505.38,-260 505.38,-240 540,-240" fill="none" stroke="#6F81DB" stroke-width="2"/><rect x="540" y="-255" width="80" height="30" rx="6" fill="#fafafa" stroke="none"/><text x="580" y="-235" text-anchor="middle" font-size="13" fill="#333" font-family="-apple-system,BlinkMacSystemFont,sans-serif">客户换货</text><path d="M470.76,-260 C505.38,-260 505.38,-200 540,-200" fill="none" stroke="#6F81DB" stroke-width="2"/><rect x="540" y="-215" width="80" height="30" rx="6" fill="#fafafa" stroke="none"/><text x="580" y="-195" text-anchor="middle" font-size="13" fill="#333" font-family="-apple-system,BlinkMacSystemFont,sans-serif">售后维修</text><path d="M100,0 C190,0 190,100 280,100" fill="none" stroke="#DFB85D" stroke-width="2"/><rect x="180" y="85" width="130" height="30" rx="6" fill="#fafafa" stroke="none"/><text x="245" y="105" text-anchor="middle" font-size="13" fill="#333" font-family="-apple-system,BlinkMacSystemFont,sans-serif">海外仓数量与分布</text><path d="M310,100 C335,100 335,-60 360,-60" fill="none" stroke="#DFB85D" stroke-width="2"/><rect x="360" y="-75" width="80" height="30" rx="6" fill="#fafafa" stroke="none"/><text x="400" y="-55" text-anchor="middle" font-size="13" fill="#333" font-family="-apple-system,BlinkMacSystemFont,sans-serif">分布</text><path d="M440,-60 C490,-60 490,-160 540,-160" fill="none" stroke="#DFB85D" stroke-width="2"/><rect x="540" y="-175" width="80" height="30" rx="6" fill="#fafafa" stroke="none"/><text x="580" y="-155" text-anchor="middle" font-size="13" fill="#333" font-family="-apple-system,BlinkMacSystemFont,sans-serif">美</text><path d="M620,-160 C670,-160 670,-160 720,-160" fill="none" stroke="#DFB85D" stroke-width="2"/><rect x="720" y="-175" width="80" height="30" rx="6" fill="#fafafa" stroke="none"/><text x="760" y="-155" text-anchor="middle" font-size="13" fill="#333" font-family="-apple-system,BlinkMacSystemFont,sans-serif">900多</text><path d="M440,-60 C490,-60 490,-120 540,-120" fill="none" stroke="#DFB85D" stroke-width="2"/><rect x="540" y="-135" width="80" height="30" rx="6" fill="#fafafa" stroke="none"/><text x="580" y="-115" text-anchor="middle" font-size="13" fill="#333" font-family="-apple-system,BlinkMacSystemFont,sans-serif">英</text><path d="M620,-120 C670,-120 670,-120 720,-120" fill="none" stroke="#DFB85D" stroke-width="2"/><rect x="720" y="-135" width="80" height="30" rx="6" fill="#fafafa" stroke="none"/><text x="760" y="-115" text-anchor="middle" font-size="13" fill="#333" font-family="-apple-system,BlinkMacSystemFont,sans-serif">200多</text><path d="M440,-60 C490,-60 490,-80 540,-80" fill="none" stroke="#DFB85D" stroke-width="2"/><rect x="540" y="-95" width="80" height="30" rx="6" fill="#fafafa" stroke="none"/><text x="580" y="-75" text-anchor="middle" font-size="13" fill="#333" font-family="-apple-system,BlinkMacSystemFont,sans-serif">德</text><path d="M620,-80 C670,-80 670,-80 720,-80" fill="none" stroke="#DFB85D" stroke-width="2"/><rect x="720" y="-95" width="80" height="30" rx="6" fill="#fafafa" stroke="none"/><text x="760" y="-75" text-anchor="middle" font-size="13" fill="#333" font-family="-apple-system,BlinkMacSystemFont,sans-serif">200多</text><path d="M440,-60 C490,-60 490,-40 540,-40" fill="none" stroke="#DFB85D" stroke-width="2"/><rect x="540" y="-55" width="80" height="30" rx="6" fill="#fafafa" stroke="none"/><text x="580" y="-35" text-anchor="middle" font-size="13" fill="#333" font-family="-apple-system,BlinkMacSystemFont,sans-serif">日</text><path d="M620,-40 C670,-40 670,-40 720,-40" fill="none" stroke="#DFB85D" stroke-width="2"/><rect x="720" y="-55" width="80" height="30" rx="6" fill="#fafafa" stroke="none"/><text x="760" y="-35" text-anchor="middle" font-size="13" fill="#333" font-family="-apple-system,BlinkMacSystemFont,sans-serif">100多</text><path d="M440,-60 C490,-60 490,0 540,0" fill="none" stroke="#DFB85D" stroke-width="2"/><rect x="540" y="-15" width="80" height="30" rx="6" fill="#fafafa" stroke="none"/><text x="580" y="5" text-anchor="middle" font-size="13" fill="#333" font-family="-apple-system,BlinkMacSystemFont,sans-serif">加</text><path d="M620,0 C670,0 670,0 720,0" fill="none" stroke="#DFB85D" stroke-width="2"/><rect x="720" y="-15" width="80" height="30" rx="6" fill="#fafafa" stroke="none"/><text x="760" y="5" text-anchor="middle" font-size="13" fill="#333" font-family="-apple-system,BlinkMacSystemFont,sans-serif">80多</text><path d="M440,-60 C490,-60 490,40 540,40" fill="none" stroke="#DFB85D" stroke-width="2"/><rect x="540" y="25" width="80" height="30" rx="6" fill="#fafafa" stroke="none"/><text x="580" y="45" text-anchor="middle" font-size="13" fill="#333" font-family="-apple-system,BlinkMacSystemFont,sans-serif">澳</text><path d="M620,40 C670,40 670,40 720,40" fill="none" stroke="#DFB85D" stroke-width="2"/><rect x="720" y="25" width="80" height="30" rx="6" fill="#fafafa" stroke="none"/><text x="760" y="45" text-anchor="middle" font-size="13" fill="#333" font-family="-apple-system,BlinkMacSystemFont,sans-serif">60多</text><path d="M310,100 C335,100 335,80 360,80" fill="none" stroke="#DFB85D" stroke-width="2"/><rect x="360" y="65" width="80" height="30" rx="6" fill="#fafafa" stroke="none"/><text x="400" y="85" text-anchor="middle" font-size="13" fill="#333" font-family="-apple-system,BlinkMacSystemFont,sans-serif">总数</text><path d="M440,80 C490,80 490,80 540,80" fill="none" stroke="#DFB85D" stroke-width="2"/><rect x="540" y="65" width="105.03999999999999" height="30" rx="6" fill="#fafafa" stroke="none"/><text x="592.52" y="85" text-anchor="middle" font-size="13" fill="#333" font-family="-apple-system,BlinkMacSystemFont,sans-serif">大于2000多个</text><path d="M310,100 C335,100 335,240 360,240" fill="none" stroke="#DFB85D" stroke-width="2"/><rect x="360" y="225" width="80" height="30" rx="6" fill="#fafafa" stroke="none"/><text x="400" y="245" text-anchor="middle" font-size="13" fill="#333" font-family="-apple-system,BlinkMacSystemFont,sans-serif">结论</text><path d="M440,240 C490,240 490,120 540,120" fill="none" stroke="#DFB85D" stroke-width="2"/><rect x="540" y="105" width="665.5999999999999" height="30" rx="6" fill="#fafafa" stroke="none"/><text x="872.8" y="125" text-anchor="middle" font-size="13" fill="#333" font-family="-apple-system,BlinkMacSystemFont,sans-serif">1.全球的海外仓总数量只有2000多，并不算很多，如果是做相关的SaaS产品，则可能市场空间有限，天花板很低</text><path d="M440,240 C490,240 490,160 540,160" fill="none" stroke="#DFB85D" stroke-width="2"/><rect x="540" y="145" width="572.52" height="30" rx="6" fill="#fafafa" stroke="none"/><text x="826.26" y="165" text-anchor="middle" font-size="13" fill="#333" font-family="-apple-system,BlinkMacSystemFont,sans-serif">2.美国的海外仓数量和面积都远超其他国家，说明美国地区的消费能力强，仓储物流的需求量大</text><path d="M440,240 C490,240 490,200 540,200" fill="none" stroke="#DFB85D" stroke-width="2"/><rect x="540" y="185" width="514.8" height="30" rx="6" fill="#fafafa" stroke="none"/><text x="797.4" y="205" text-anchor="middle" font-size="13" fill="#333" font-family="-apple-system,BlinkMacSystemFont,sans-serif">3.直邮与海外仓模式是相辅相成，互相补充，大约是6:4左右的比例，未来会是五五开</text><path d="M440,240 C490,240 490,240 540,240" fill="none" stroke="#DFB85D" stroke-width="2"/><rect x="540" y="225" width="573.04" height="30" rx="6" fill="#fafafa" stroke="none"/><text x="826.52" y="245" text-anchor="middle" font-size="13" fill="#333" font-family="-apple-system,BlinkMacSystemFont,sans-serif">4.海外仓发货品类最多是家居园艺，汽摩配件，消费类电子，服装鞋及配饰，户外及体育用品……</text><path d="M440,240 C490,240 490,320 540,320" fill="none" stroke="#DFB85D" stroke-width="2"/><rect x="540" y="305" width="117.52" height="30" rx="6" fill="#fafafa" stroke="none"/><text x="598.76" y="325" text-anchor="middle" font-size="13" fill="#333" font-family="-apple-system,BlinkMacSystemFont,sans-serif">IT团队研发成本</text><path d="M657.52,320 C688.76,320 688.76,280 720,280" fill="none" stroke="#DFB85D" stroke-width="2"/><rect x="720" y="265" width="222.55999999999995" height="30" rx="6" fill="#fafafa" stroke="none"/><text x="831.28" y="285" text-anchor="middle" font-size="13" fill="#333" font-family="-apple-system,BlinkMacSystemFont,sans-serif">深圳平均一个研发的年投入30~40W</text><path d="M657.52,320 C688.76,320 688.76,320 720,320" fill="none" stroke="#DFB85D" stroke-width="2"/><rect x="720" y="305" width="80" height="30" rx="6" fill="#fafafa" stroke="none"/><text x="760" y="325" text-anchor="middle" font-size="13" fill="#333" font-family="-apple-system,BlinkMacSystemFont,sans-serif">100 IT</text><path d="M800,320 C850,320 850,320 900,320" fill="none" stroke="#DFB85D" stroke-width="2"/><rect x="900" y="305" width="80" height="30" rx="6" fill="#fafafa" stroke="none"/><text x="940" y="325" text-anchor="middle" font-size="13" fill="#333" font-family="-apple-system,BlinkMacSystemFont,sans-serif">3千万</text><path d="M657.52,320 C688.76,320 688.76,360 720,360" fill="none" stroke="#DFB85D" stroke-width="2"/><rect x="720" y="345" width="80" height="30" rx="6" fill="#fafafa" stroke="none"/><text x="760" y="365" text-anchor="middle" font-size="13" fill="#333" font-family="-apple-system,BlinkMacSystemFont,sans-serif">10 IT</text><path d="M800,360 C850,360 850,360 900,360" fill="none" stroke="#DFB85D" stroke-width="2"/><rect x="900" y="345" width="80" height="30" rx="6" fill="#fafafa" stroke="none"/><text x="940" y="365" text-anchor="middle" font-size="13" fill="#333" font-family="-apple-system,BlinkMacSystemFont,sans-serif">3百万</text><path d="M100,0 C190,0 190,660 280,660" fill="none" stroke="#6EC4C4" stroke-width="2"/><rect x="180" y="645" width="104" height="30" rx="6" fill="#fafafa" stroke="none"/><text x="232" y="665" text-anchor="middle" font-size="13" fill="#333" font-family="-apple-system,BlinkMacSystemFont,sans-serif">海外仓的玩家</text><path d="M284,660 C322,660 322,480 360,480" fill="none" stroke="#6EC4C4" stroke-width="2"/><rect x="360" y="465" width="91" height="30" rx="6" fill="#fafafa" stroke="none"/><text x="405.5" y="485" text-anchor="middle" font-size="13" fill="#333" font-family="-apple-system,BlinkMacSystemFont,sans-serif">卖家自建仓</text><path d="M451,480 C495.5,480 495.5,400 540,400" fill="none" stroke="#6EC4C4" stroke-width="2"/><rect x="540" y="385" width="117" height="30" rx="6" fill="#fafafa" stroke="none"/><text x="598.5" y="405" text-anchor="middle" font-size="13" fill="#333" font-family="-apple-system,BlinkMacSystemFont,sans-serif">头部的一些大卖</text><path d="M451,480 C495.5,480 495.5,440 540,440" fill="none" stroke="#6EC4C4" stroke-width="2"/><rect x="540" y="425" width="80" height="30" rx="6" fill="#fafafa" stroke="none"/><text x="580" y="445" text-anchor="middle" font-size="13" fill="#333" font-family="-apple-system,BlinkMacSystemFont,sans-serif">乐歌</text><path d="M620,440 C670,440 670,440 720,440" fill="none" stroke="#6EC4C4" stroke-width="2"/><rect x="720" y="425" width="80" height="30" rx="6" fill="#fafafa" stroke="none"/><text x="760" y="445" text-anchor="middle" font-size="13" fill="#333" font-family="-apple-system,BlinkMacSystemFont,sans-serif">升降桌</text><path d="M451,480 C495.5,480 495.5,480 540,480" fill="none" stroke="#6EC4C4" stroke-width="2"/><rect x="540" y="465" width="80" height="30" rx="6" fill="#fafafa" stroke="none"/><text x="580" y="485" text-anchor="middle" font-size="13" fill="#333" font-family="-apple-system,BlinkMacSystemFont,sans-serif">有颗树</text><path d="M451,480 C495.5,480 495.5,520 540,520" fill="none" stroke="#6EC4C4" stroke-width="2"/><rect x="540" y="505" width="80" height="30" rx="6" fill="#fafafa" stroke="none"/><text x="580" y="525" text-anchor="middle" font-size="13" fill="#333" font-family="-apple-system,BlinkMacSystemFont,sans-serif">赛维</text><path d="M451,480 C495.5,480 495.5,560 540,560" fill="none" stroke="#6EC4C4" stroke-width="2"/><rect x="540" y="545" width="80" height="30" rx="6" fill="#fafafa" stroke="none"/><text x="580" y="565" text-anchor="middle" font-size="13" fill="#333" font-family="-apple-system,BlinkMacSystemFont,sans-serif">傲基</text><path d="M284,660 C322,660 322,660 360,660" fill="none" stroke="#6EC4C4" stroke-width="2"/><rect x="360" y="645" width="80" height="30" rx="6" fill="#fafafa" stroke="none"/><text x="400" y="665" text-anchor="middle" font-size="13" fill="#333" font-family="-apple-system,BlinkMacSystemFont,sans-serif">平台仓</text><path d="M440,660 C490,660 490,600 540,600" fill="none" stroke="#6EC4C4" stroke-width="2"/><rect x="540" y="585" width="85.28" height="30" rx="6" fill="#fafafa" stroke="none"/><text x="582.64" y="605" text-anchor="middle" font-size="13" fill="#333" font-family="-apple-system,BlinkMacSystemFont,sans-serif">亚马逊FBA</text><path d="M440,660 C490,660 490,640 540,640" fill="none" stroke="#6EC4C4" stroke-width="2"/><rect x="540" y="625" width="85.28" height="30" rx="6" fill="#fafafa" stroke="none"/><text x="582.64" y="645" text-anchor="middle" font-size="13" fill="#333" font-family="-apple-system,BlinkMacSystemFont,sans-serif">沃尔玛WFS</text><path d="M440,660 C490,660 490,680 540,680" fill="none" stroke="#6EC4C4" stroke-width="2"/><rect x="540" y="665" width="91.38999999999999" height="30" rx="6" fill="#fafafa" stroke="none"/><text x="585.6949999999999" y="685" text-anchor="middle" font-size="13" fill="#333" font-family="-apple-system,BlinkMacSystemFont,sans-serif">Shopee SLS</text><path d="M440,660 C490,660 490,720 540,720" fill="none" stroke="#6EC4C4" stroke-width="2"/><rect x="540" y="705" width="105.56" height="30" rx="6" fill="#fafafa" stroke="none"/><text x="592.78" y="725" text-anchor="middle" font-size="13" fill="#333" font-family="-apple-system,BlinkMacSystemFont,sans-serif">EBay橙联EF仓</text><path d="M284,660 C322,660 322,840 360,840" fill="none" stroke="#6EC4C4" stroke-width="2"/><rect x="360" y="825" width="104" height="30" rx="6" fill="#fafafa" stroke="none"/><text x="412" y="845" text-anchor="middle" font-size="13" fill="#333" font-family="-apple-system,BlinkMacSystemFont,sans-serif">第三方海外仓</text><path d="M464,840 C502,840 502,760 540,760" fill="none" stroke="#6EC4C4" stroke-width="2"/><rect x="540" y="745" width="80" height="30" rx="6" fill="#fafafa" stroke="none"/><text x="580" y="765" text-anchor="middle" font-size="13" fill="#333" font-family="-apple-system,BlinkMacSystemFont,sans-serif">谷仓</text><path d="M464,840 C502,840 502,800 540,800" fill="none" stroke="#6EC4C4" stroke-width="2"/><rect x="540" y="785" width="80" height="30" rx="6" fill="#fafafa" stroke="none"/><text x="580" y="805" text-anchor="middle" font-size="13" fill="#333" font-family="-apple-system,BlinkMacSystemFont,sans-serif">4PX</text><path d="M464,840 C502,840 502,840 540,840" fill="none" stroke="#6EC4C4" stroke-width="2"/><rect x="540" y="825" width="80" height="30" rx="6" fill="#fafafa" stroke="none"/><text x="580" y="845" text-anchor="middle" font-size="13" fill="#333" font-family="-apple-system,BlinkMacSystemFont,sans-serif">万邑通</text><path d="M464,840 C502,840 502,880 540,880" fill="none" stroke="#6EC4C4" stroke-width="2"/><rect x="540" y="865" width="91" height="30" rx="6" fill="#fafafa" stroke="none"/><text x="585.5" y="885" text-anchor="middle" font-size="13" fill="#333" font-family="-apple-system,BlinkMacSystemFont,sans-serif">中邮海外仓</text><path d="M464,840 C502,840 502,920 540,920" fill="none" stroke="#6EC4C4" stroke-width="2"/><rect x="540" y="905" width="80" height="30" rx="6" fill="#fafafa" stroke="none"/><text x="580" y="925" text-anchor="middle" font-size="13" fill="#333" font-family="-apple-system,BlinkMacSystemFont,sans-serif">……</text>
<g><g><rect x="1172.9809337093845" y="-95.49361036767661" width="120" height="60" fill="none" stroke="#333" stroke-width="1"/><text x="1232.9809337093845" y="-60.24361036767661" text-anchor="middle" font-size="14" font-weight="normal" fill="#333" font-family="-apple-system,BlinkMacSystemFont,sans-serif">销售订单信息</text></g>
<g><rect x="1356.1082126464712" y="-95.49361036767661" width="120" height="60" fill="none" stroke="#333" stroke-width="1"/><text x="1416.1082126464712" y="-60.24361036767661" text-anchor="middle" font-size="14" font-weight="normal" fill="#333" font-family="-apple-system,BlinkMacSystemFont,sans-serif">海外仓</text></g>
<g><rect x="1537.5812496329986" y="-95.49361036767661" width="120" height="60" fill="none" stroke="#333" stroke-width="1"/><text x="1597.5812496329986" y="-60.24361036767661" text-anchor="middle" font-size="14" font-weight="normal" fill="#333" font-family="-apple-system,BlinkMacSystemFont,sans-serif">消费者</text></g>
<defs><marker id="m-795c909d-76ca-47f5-9aa7-d6d0806d8b81-end-arrow-8C8C8C" orient="auto" markerUnits="userSpaceOnUse" markerWidth="10" markerHeight="10" viewBox="0 0 10 10" refX="10" refY="5"><polygon points="0 0, 10 5, 0 10" fill="#8C8C8C"/></marker></defs><path d="M1476.1082126464712,-65.49361036767661 L1537.5812496329986,-65.49361036767661" fill="none" stroke="#8C8C8C" stroke-width="1" stroke-linecap="butt" stroke-linejoin="miter" marker-end="url(#m-795c909d-76ca-47f5-9aa7-d6d0806d8b81-end-arrow-8C8C8C)"/>
<defs><marker id="m-3e546c1c-5c3c-442b-824d-84147d0db983-end-arrow-8C8C8C" orient="auto" markerUnits="userSpaceOnUse" markerWidth="10" markerHeight="10" viewBox="0 0 10 10" refX="10" refY="5"><polygon points="0 0, 10 5, 0 10" fill="#8C8C8C"/></marker></defs><path d="M1292.9809337093845,-65.49361036767661 L1356.1082126464712,-65.49361036767661" fill="none" stroke="#8C8C8C" stroke-width="1" stroke-linecap="butt" stroke-linejoin="miter" marker-end="url(#m-3e546c1c-5c3c-442b-824d-84147d0db983-end-arrow-8C8C8C)"/>
<g><rect x="1172.9809337093845" y="-11.49361036767661" width="120" height="60" fill="none" stroke="#333" stroke-width="1"/><text x="1232.9809337093845" y="15.00638963232339" text-anchor="middle" font-size="14" font-weight="normal" fill="#333" font-family="-apple-system,BlinkMacSystemFont,sans-serif">亚马逊的货件计</text><text x="1232.9809337093845" y="32.50638963232339" text-anchor="middle" font-size="14" font-weight="normal" fill="#333" font-family="-apple-system,BlinkMacSystemFont,sans-serif">划</text></g>
<g><rect x="1356.1082126464712" y="-11.49361036767661" width="120" height="60" fill="none" stroke="#333" stroke-width="1"/><text x="1416.1082126464712" y="23.75638963232339" text-anchor="middle" font-size="14" font-weight="normal" fill="#333" font-family="-apple-system,BlinkMacSystemFont,sans-serif">海外仓</text></g>
<g><rect x="1537.5812496329986" y="-11.49361036767661" width="120" height="60" fill="none" stroke="#333" stroke-width="1"/><text x="1597.5812496329986" y="23.75638963232339" text-anchor="middle" font-size="14" font-weight="normal" fill="#333" font-family="-apple-system,BlinkMacSystemFont,sans-serif">亚马逊FBA仓库</text></g>
<defs><marker id="m-ba2fd2dc-459c-425b-a54b-b918eaf4a8ff-end-arrow-8C8C8C" orient="auto" markerUnits="userSpaceOnUse" markerWidth="10" markerHeight="10" viewBox="0 0 10 10" refX="10" refY="5"><polygon points="0 0, 10 5, 0 10" fill="#8C8C8C"/></marker></defs><path d="M1476.1082126464712,18.50638963232339 L1537.5812496329986,18.50638963232339" fill="none" stroke="#8C8C8C" stroke-width="1" stroke-linecap="butt" stroke-linejoin="miter" marker-end="url(#m-ba2fd2dc-459c-425b-a54b-b918eaf4a8ff-end-arrow-8C8C8C)"/>
<defs><marker id="m-6ed9cf0a-aec8-4359-946e-65780593b495-end-arrow-8C8C8C" orient="auto" markerUnits="userSpaceOnUse" markerWidth="10" markerHeight="10" viewBox="0 0 10 10" refX="10" refY="5"><polygon points="0 0, 10 5, 0 10" fill="#8C8C8C"/></marker></defs><path d="M1292.9809337093845,18.50638963232339 L1356.1082126464712,18.50638963232339" fill="none" stroke="#8C8C8C" stroke-width="1" stroke-linecap="butt" stroke-linejoin="miter" marker-end="url(#m-6ed9cf0a-aec8-4359-946e-65780593b495-end-arrow-8C8C8C)"/>
<g><rect x="1173.808054684664" y="80.86320855036686" width="120" height="60" fill="none" stroke="#333" stroke-width="1"/><text x="1233.808054684664" y="107.36320855036686" text-anchor="middle" font-size="14" font-weight="normal" fill="#333" font-family="-apple-system,BlinkMacSystemFont,sans-serif">亚马逊的移除货</text><text x="1233.808054684664" y="124.86320855036686" text-anchor="middle" font-size="14" font-weight="normal" fill="#333" font-family="-apple-system,BlinkMacSystemFont,sans-serif">件</text></g>
<g><rect x="1356.9353336217507" y="80.86320855036686" width="120" height="60" fill="none" stroke="#333" stroke-width="1"/><text x="1416.9353336217507" y="116.11320855036686" text-anchor="middle" font-size="14" font-weight="normal" fill="#333" font-family="-apple-system,BlinkMacSystemFont,sans-serif">海外仓</text></g>
<g><rect x="1538.4083706082781" y="80.86320855036686" width="120" height="60" fill="none" stroke="#333" stroke-width="1"/><text x="1598.4083706082781" y="107.36320855036686" text-anchor="middle" font-size="14" font-weight="normal" fill="#333" font-family="-apple-system,BlinkMacSystemFont,sans-serif">海外仓换标/加工</text><text x="1598.4083706082781" y="124.86320855036686" text-anchor="middle" font-size="14" font-weight="normal" fill="#333" font-family="-apple-system,BlinkMacSystemFont,sans-serif">处理</text></g>
<defs><marker id="m-c3e5df33-ebf4-4681-92d7-16edb9a32f39-end-arrow-8C8C8C" orient="auto" markerUnits="userSpaceOnUse" markerWidth="10" markerHeight="10" viewBox="0 0 10 10" refX="10" refY="5"><polygon points="0 0, 10 5, 0 10" fill="#8C8C8C"/></marker></defs><path d="M1476.9353336217507,110.86320855036686 L1538.4083706082781,110.86320855036686" fill="none" stroke="#8C8C8C" stroke-width="1" stroke-linecap="butt" stroke-linejoin="miter" marker-end="url(#m-c3e5df33-ebf4-4681-92d7-16edb9a32f39-end-arrow-8C8C8C)"/>
<defs><marker id="m-b381b2c1-af62-4ec3-98df-c1e51ca6600c-end-arrow-8C8C8C" orient="auto" markerUnits="userSpaceOnUse" markerWidth="10" markerHeight="10" viewBox="0 0 10 10" refX="10" refY="5"><polygon points="0 0, 10 5, 0 10" fill="#8C8C8C"/></marker></defs><path d="M1293.808054684664,110.86320855036686 L1356.9353336217507,110.86320855036686" fill="none" stroke="#8C8C8C" stroke-width="1" stroke-linecap="butt" stroke-linejoin="miter" marker-end="url(#m-b381b2c1-af62-4ec3-98df-c1e51ca6600c-end-arrow-8C8C8C)"/>
<g><rect x="1803.2329050864314" y="80.86320855036686" width="120" height="60" fill="none" stroke="#333" stroke-width="1"/><text x="1863.2329050864314" y="116.11320855036686" text-anchor="middle" font-size="14" font-weight="normal" fill="#333" font-family="-apple-system,BlinkMacSystemFont,sans-serif">亚马逊FBA仓库</text></g>
<defs><marker id="m-c435c027-0596-49b1-b2dd-caeefd79f669-end-arrow-8C8C8C" orient="auto" markerUnits="userSpaceOnUse" markerWidth="10" markerHeight="10" viewBox="0 0 10 10" refX="10" refY="5"><polygon points="0 0, 10 5, 0 10" fill="#8C8C8C"/></marker></defs><path d="M1658.4083706082781,110.86320855036686 L1803.2329050864314,110.86320855036686" fill="none" stroke="#8C8C8C" stroke-width="1" stroke-linecap="butt" stroke-linejoin="miter" marker-end="url(#m-c435c027-0596-49b1-b2dd-caeefd79f669-end-arrow-8C8C8C)"/><text x="1738.8200638478247" y="115.76320855036687" text-anchor="middle" font-size="14" font-weight="normal" fill="#8C8C8C" font-family="-apple-system,BlinkMacSystemFont,sans-serif">再次发到</text>
<g><rect x="1803.2329050864314" y="158.86143316573302" width="120" height="60" fill="none" stroke="#333" stroke-width="1"/><text x="1863.2329050864314" y="194.11143316573302" text-anchor="middle" font-size="14" font-weight="normal" fill="#333" font-family="-apple-system,BlinkMacSystemFont,sans-serif">消费者</text></g>
<defs><marker id="m-2ca1efce-70d4-4e89-b7bb-f6e9e4ce4c03-end-arrow-8C8C8C" orient="auto" markerUnits="userSpaceOnUse" markerWidth="10" markerHeight="10" viewBox="0 0 10 10" refX="10" refY="5"><polygon points="0 0, 10 5, 0 10" fill="#8C8C8C"/></marker></defs><path d="M1658.4083706082781,110.86320855036686 L1681.9126459427366,110.86320855036686 L1681.9126459427366,149.86232085804994 L1681.9126459427366,188.86143316573302 L1803.2329050864314,188.86143316573302" fill="none" stroke="#8C8C8C" stroke-width="1" stroke-linecap="butt" stroke-linejoin="miter" marker-end="url(#m-2ca1efce-70d4-4e89-b7bb-f6e9e4ce4c03-end-arrow-8C8C8C)"/><text x="1736.3811769406848" y="193.76143316573302" text-anchor="middle" font-size="14" font-weight="normal" fill="#8C8C8C" font-family="-apple-system,BlinkMacSystemFont,sans-serif">发到消费者</text>
<g><rect x="1172.9809337093845" y="232.9936103676766" width="120" height="60" fill="none" stroke="#333" stroke-width="1"/><text x="1232.9809337093845" y="259.49361036767664" text-anchor="middle" font-size="14" font-weight="normal" fill="#333" font-family="-apple-system,BlinkMacSystemFont,sans-serif">头程送过来的海</text><text x="1232.9809337093845" y="276.99361036767664" text-anchor="middle" font-size="14" font-weight="normal" fill="#333" font-family="-apple-system,BlinkMacSystemFont,sans-serif">运柜子</text></g>
<g><rect x="1356.1082126464712" y="232.9936103676766" width="120" height="60" fill="none" stroke="#333" stroke-width="1"/><text x="1416.1082126464712" y="268.24361036767664" text-anchor="middle" font-size="14" font-weight="normal" fill="#333" font-family="-apple-system,BlinkMacSystemFont,sans-serif">海外仓</text></g>
<g><rect x="1537.5812496329986" y="232.9936103676766" width="120" height="60" fill="none" stroke="#333" stroke-width="1"/><text x="1597.5812496329986" y="250.7436103676766" text-anchor="middle" font-size="14" font-weight="normal" fill="#333" font-family="-apple-system,BlinkMacSystemFont,sans-serif">按不同的目的地</text><text x="1597.5812496329986" y="268.24361036767664" text-anchor="middle" font-size="14" font-weight="normal" fill="#333" font-family="-apple-system,BlinkMacSystemFont,sans-serif">和要求拆柜，打</text><text x="1597.5812496329986" y="285.74361036767664" text-anchor="middle" font-size="14" font-weight="normal" fill="#333" font-family="-apple-system,BlinkMacSystemFont,sans-serif">托</text></g>
<defs><marker id="m-1fd58527-9546-4b18-9719-561615f2b36d-end-arrow-8C8C8C" orient="auto" markerUnits="userSpaceOnUse" markerWidth="10" markerHeight="10" viewBox="0 0 10 10" refX="10" refY="5"><polygon points="0 0, 10 5, 0 10" fill="#8C8C8C"/></marker></defs><path d="M1476.1082126464712,262.99361036767664 L1537.5812496329986,262.99361036767664" fill="none" stroke="#8C8C8C" stroke-width="1" stroke-linecap="butt" stroke-linejoin="miter" marker-end="url(#m-1fd58527-9546-4b18-9719-561615f2b36d-end-arrow-8C8C8C)"/>
<defs><marker id="m-e190b890-6bbe-47ab-b5ce-06b1a0c7a7f5-end-arrow-8C8C8C" orient="auto" markerUnits="userSpaceOnUse" markerWidth="10" markerHeight="10" viewBox="0 0 10 10" refX="10" refY="5"><polygon points="0 0, 10 5, 0 10" fill="#8C8C8C"/></marker></defs><path d="M1292.9809337093845,262.99361036767664 L1356.1082126464712,262.99361036767664" fill="none" stroke="#8C8C8C" stroke-width="1" stroke-linecap="butt" stroke-linejoin="miter" marker-end="url(#m-e190b890-6bbe-47ab-b5ce-06b1a0c7a7f5-end-arrow-8C8C8C)"/>
<g><rect x="1739.215179297205" y="232.9936103676766" width="120" height="60" fill="none" stroke="#333" stroke-width="1"/><text x="1799.215179297205" y="250.7436103676766" text-anchor="middle" font-size="14" font-weight="normal" fill="#333" font-family="-apple-system,BlinkMacSystemFont,sans-serif">使用卡车或者物</text><text x="1799.215179297205" y="268.24361036767664" text-anchor="middle" font-size="14" font-weight="normal" fill="#333" font-family="-apple-system,BlinkMacSystemFont,sans-serif">流送到不同的目</text><text x="1799.215179297205" y="285.74361036767664" text-anchor="middle" font-size="14" font-weight="normal" fill="#333" font-family="-apple-system,BlinkMacSystemFont,sans-serif">的地</text></g>
<defs><marker id="m-95882b7c-7bb8-4e34-aa45-8f65c00a659e-end-arrow-8C8C8C" orient="auto" markerUnits="userSpaceOnUse" markerWidth="10" markerHeight="10" viewBox="0 0 10 10" refX="10" refY="5"><polygon points="0 0, 10 5, 0 10" fill="#8C8C8C"/></marker></defs><path d="M1657.5812496329986,262.99361036767664 L1739.215179297205,262.99361036767664" fill="none" stroke="#8C8C8C" stroke-width="1" stroke-linecap="butt" stroke-linejoin="miter" marker-end="url(#m-95882b7c-7bb8-4e34-aa45-8f65c00a659e-end-arrow-8C8C8C)"/></g>
</svg>