<svg xmlns="http://www.w3.org/2000/svg" xmlns:xlink="http://www.w3.org/1999/xlink"
  viewBox="-160 -1539 1739.76 3078" width="1739.76" height="3078"
  style="background:#fff; font-family:-apple-system,BlinkMacSystemFont,'Segoe UI',Roboto,sans-serif;">
<defs></defs>
<rect x="-160" y="-1539" width="1739.76" height="3078" fill="#fff"/>
<rect x="-76" y="-18" width="152" height="36" rx="8" fill="#EFF0F0" stroke="none"/><text x="0" y="6" text-anchor="middle" font-size="16" font-weight="bold" fill="#333" font-family="-apple-system,BlinkMacSystemFont,sans-serif">进销存系统介绍</text><path d="M76,0 C166,0 166,-620 256,-620" fill="none" stroke="#A287E1" stroke-width="2"/><rect x="180" y="-635" width="130" height="30" rx="6" fill="#fafafa" stroke="none"/><text x="245" y="-615" text-anchor="middle" font-size="13" fill="#333" font-family="-apple-system,BlinkMacSystemFont,sans-serif">进销存的核心模块</text><path d="M310,-620 C335,-620 335,-1340 360,-1340" fill="none" stroke="#A287E1" stroke-width="2"/><rect x="360" y="-1355" width="80" height="30" rx="6" fill="#fafafa" stroke="none"/><text x="400" y="-1335" text-anchor="middle" font-size="13" fill="#333" font-family="-apple-system,BlinkMacSystemFont,sans-serif">进</text><path d="M440,-1340 C490,-1340 490,-1440 540,-1440" fill="none" stroke="#A287E1" stroke-width="2"/><rect x="540" y="-1455" width="80" height="30" rx="6" fill="#fafafa" stroke="none"/><text x="580" y="-1435" text-anchor="middle" font-size="13" fill="#333" font-family="-apple-system,BlinkMacSystemFont,sans-serif">采购订单</text><path d="M440,-1340 C490,-1340 490,-1400 540,-1400" fill="none" stroke="#A287E1" stroke-width="2"/><rect x="540" y="-1415" width="80" height="30" rx="6" fill="#fafafa" stroke="none"/><text x="580" y="-1395" text-anchor="middle" font-size="13" fill="#333" font-family="-apple-system,BlinkMacSystemFont,sans-serif">采购退货</text><path d="M440,-1340 C490,-1340 490,-1360 540,-1360" fill="none" stroke="#A287E1" stroke-width="2"/><rect x="540" y="-1375" width="80" height="30" rx="6" fill="#fafafa" stroke="none"/><text x="580" y="-1355" text-anchor="middle" font-size="13" fill="#333" font-family="-apple-system,BlinkMacSystemFont,sans-serif">采购入库</text><path d="M440,-1340 C490,-1340 490,-1320 540,-1320" fill="none" stroke="#A287E1" stroke-width="2"/><rect x="540" y="-1335" width="80" height="30" rx="6" fill="#fafafa" stroke="none"/><text x="580" y="-1315" text-anchor="middle" font-size="13" fill="#333" font-family="-apple-system,BlinkMacSystemFont,sans-serif">采购发票</text><path d="M440,-1340 C490,-1340 490,-1280 540,-1280" fill="none" stroke="#A287E1" stroke-width="2"/><rect x="540" y="-1295" width="80" height="30" rx="6" fill="#fafafa" stroke="none"/><text x="580" y="-1275" text-anchor="middle" font-size="13" fill="#333" font-family="-apple-system,BlinkMacSystemFont,sans-serif">以销定购</text><path d="M620,-1280 C670,-1280 670,-1280 720,-1280" fill="none" stroke="#A287E1" stroke-width="2"/><rect x="720" y="-1295" width="80" height="30" rx="6" fill="#fafafa" stroke="none"/><text x="760" y="-1275" text-anchor="middle" font-size="13" fill="#333" font-family="-apple-system,BlinkMacSystemFont,sans-serif">以销定采</text><path d="M440,-1340 C490,-1340 490,-1240 540,-1240" fill="none" stroke="#A287E1" stroke-width="2"/><rect x="540" y="-1255" width="80" height="30" rx="6" fill="#fafafa" stroke="none"/><text x="580" y="-1235" text-anchor="middle" font-size="13" fill="#333" font-family="-apple-system,BlinkMacSystemFont,sans-serif">……</text><path d="M310,-620 C335,-620 335,-1100 360,-1100" fill="none" stroke="#A287E1" stroke-width="2"/><rect x="360" y="-1115" width="80" height="30" rx="6" fill="#fafafa" stroke="none"/><text x="400" y="-1095" text-anchor="middle" font-size="13" fill="#333" font-family="-apple-system,BlinkMacSystemFont,sans-serif">销</text><path d="M440,-1100 C490,-1100 490,-1200 540,-1200" fill="none" stroke="#A287E1" stroke-width="2"/><rect x="540" y="-1215" width="80" height="30" rx="6" fill="#fafafa" stroke="none"/><text x="580" y="-1195" text-anchor="middle" font-size="13" fill="#333" font-family="-apple-system,BlinkMacSystemFont,sans-serif">销售订单</text><path d="M440,-1100 C490,-1100 490,-1160 540,-1160" fill="none" stroke="#A287E1" stroke-width="2"/><rect x="540" y="-1175" width="80" height="30" rx="6" fill="#fafafa" stroke="none"/><text x="580" y="-1155" text-anchor="middle" font-size="13" fill="#333" font-family="-apple-system,BlinkMacSystemFont,sans-serif">销售退货</text><path d="M440,-1100 C490,-1100 490,-1120 540,-1120" fill="none" stroke="#A287E1" stroke-width="2"/><rect x="540" y="-1135" width="80" height="30" rx="6" fill="#fafafa" stroke="none"/><text x="580" y="-1115" text-anchor="middle" font-size="13" fill="#333" font-family="-apple-system,BlinkMacSystemFont,sans-serif">销售出库</text><path d="M440,-1100 C490,-1100 490,-1080 540,-1080" fill="none" stroke="#A287E1" stroke-width="2"/><rect x="540" y="-1095" width="80" height="30" rx="6" fill="#fafafa" stroke="none"/><text x="580" y="-1075" text-anchor="middle" font-size="13" fill="#333" font-family="-apple-system,BlinkMacSystemFont,sans-serif">销售开票</text><path d="M440,-1100 C490,-1100 490,-1040 540,-1040" fill="none" stroke="#A287E1" stroke-width="2"/><rect x="540" y="-1055" width="80" height="30" rx="6" fill="#fafafa" stroke="none"/><text x="580" y="-1035" text-anchor="middle" font-size="13" fill="#333" font-family="-apple-system,BlinkMacSystemFont,sans-serif">预售订单</text><path d="M440,-1100 C490,-1100 490,-1000 540,-1000" fill="none" stroke="#A287E1" stroke-width="2"/><rect x="540" y="-1015" width="80" height="30" rx="6" fill="#fafafa" stroke="none"/><text x="580" y="-995" text-anchor="middle" font-size="13" fill="#333" font-family="-apple-system,BlinkMacSystemFont,sans-serif">……</text><path d="M310,-620 C335,-620 335,-840 360,-840" fill="none" stroke="#A287E1" stroke-width="2"/><rect x="360" y="-855" width="80" height="30" rx="6" fill="#fafafa" stroke="none"/><text x="400" y="-835" text-anchor="middle" font-size="13" fill="#333" font-family="-apple-system,BlinkMacSystemFont,sans-serif">存</text><path d="M440,-840 C490,-840 490,-960 540,-960" fill="none" stroke="#A287E1" stroke-width="2"/><rect x="540" y="-975" width="80" height="30" rx="6" fill="#fafafa" stroke="none"/><text x="580" y="-955" text-anchor="middle" font-size="13" fill="#333" font-family="-apple-system,BlinkMacSystemFont,sans-serif">库存查询</text><path d="M440,-840 C490,-840 490,-920 540,-920" fill="none" stroke="#A287E1" stroke-width="2"/><rect x="540" y="-935" width="104" height="30" rx="6" fill="#fafafa" stroke="none"/><text x="592" y="-915" text-anchor="middle" font-size="13" fill="#333" font-family="-apple-system,BlinkMacSystemFont,sans-serif">库存流水查询</text><path d="M440,-840 C490,-840 490,-880 540,-880" fill="none" stroke="#A287E1" stroke-width="2"/><rect x="540" y="-895" width="91" height="30" rx="6" fill="#fafafa" stroke="none"/><text x="585.5" y="-875" text-anchor="middle" font-size="13" fill="#333" font-family="-apple-system,BlinkMacSystemFont,sans-serif">序列号查询</text><path d="M440,-840 C490,-840 490,-840 540,-840" fill="none" stroke="#A287E1" stroke-width="2"/><rect x="540" y="-855" width="80" height="30" rx="6" fill="#fafafa" stroke="none"/><text x="580" y="-835" text-anchor="middle" font-size="13" fill="#333" font-family="-apple-system,BlinkMacSystemFont,sans-serif">盘点</text><path d="M440,-840 C490,-840 490,-800 540,-800" fill="none" stroke="#A287E1" stroke-width="2"/><rect x="540" y="-815" width="80" height="30" rx="6" fill="#fafafa" stroke="none"/><text x="580" y="-795" text-anchor="middle" font-size="13" fill="#333" font-family="-apple-system,BlinkMacSystemFont,sans-serif">调拨</text><path d="M440,-840 C490,-840 490,-760 540,-760" fill="none" stroke="#A287E1" stroke-width="2"/><rect x="540" y="-775" width="84.75999999999999" height="30" rx="6" fill="#fafafa" stroke="none"/><text x="582.38" y="-755" text-anchor="middle" font-size="13" fill="#333" font-family="-apple-system,BlinkMacSystemFont,sans-serif">组装/拆解</text><path d="M440,-840 C490,-840 490,-720 540,-720" fill="none" stroke="#A287E1" stroke-width="2"/><rect x="540" y="-735" width="80" height="30" rx="6" fill="#fafafa" stroke="none"/><text x="580" y="-715" text-anchor="middle" font-size="13" fill="#333" font-family="-apple-system,BlinkMacSystemFont,sans-serif">……</text><path d="M310,-620 C335,-620 335,-500 360,-500" fill="none" stroke="#A287E1" stroke-width="2"/><rect x="360" y="-515" width="80" height="30" rx="6" fill="#fafafa" stroke="none"/><text x="400" y="-495" text-anchor="middle" font-size="13" fill="#333" font-family="-apple-system,BlinkMacSystemFont,sans-serif">财</text><path d="M440,-500 C490,-500 490,-680 540,-680" fill="none" stroke="#A287E1" stroke-width="2"/><rect x="540" y="-695" width="91" height="30" rx="6" fill="#fafafa" stroke="none"/><text x="585.5" y="-675" text-anchor="middle" font-size="13" fill="#333" font-family="-apple-system,BlinkMacSystemFont,sans-serif">收款、付款</text><path d="M440,-500 C490,-500 490,-640 540,-640" fill="none" stroke="#A287E1" stroke-width="2"/><rect x="540" y="-655" width="104" height="30" rx="6" fill="#fafafa" stroke="none"/><text x="592" y="-635" text-anchor="middle" font-size="13" fill="#333" font-family="-apple-system,BlinkMacSystemFont,sans-serif">费用项目管理</text><path d="M440,-500 C490,-500 490,-600 540,-600" fill="none" stroke="#A287E1" stroke-width="2"/><rect x="540" y="-615" width="80" height="30" rx="6" fill="#fafafa" stroke="none"/><text x="580" y="-595" text-anchor="middle" font-size="13" fill="#333" font-family="-apple-system,BlinkMacSystemFont,sans-serif">应收欠款</text><path d="M440,-500 C490,-500 490,-560 540,-560" fill="none" stroke="#A287E1" stroke-width="2"/><rect x="540" y="-575" width="80" height="30" rx="6" fill="#fafafa" stroke="none"/><text x="580" y="-555" text-anchor="middle" font-size="13" fill="#333" font-family="-apple-system,BlinkMacSystemFont,sans-serif">应付欠款</text><path d="M440,-500 C490,-500 490,-520 540,-520" fill="none" stroke="#A287E1" stroke-width="2"/><rect x="540" y="-535" width="80" height="30" rx="6" fill="#fafafa" stroke="none"/><text x="580" y="-515" text-anchor="middle" font-size="13" fill="#333" font-family="-apple-system,BlinkMacSystemFont,sans-serif">资金流水</text><path d="M440,-500 C490,-500 490,-420 540,-420" fill="none" stroke="#A287E1" stroke-width="2"/><rect x="540" y="-435" width="80" height="30" rx="6" fill="#fafafa" stroke="none"/><text x="580" y="-415" text-anchor="middle" font-size="13" fill="#333" font-family="-apple-system,BlinkMacSystemFont,sans-serif">对账单</text><path d="M620,-420 C670,-420 670,-480 720,-480" fill="none" stroke="#A287E1" stroke-width="2"/><rect x="720" y="-495" width="117" height="30" rx="6" fill="#fafafa" stroke="none"/><text x="778.5" y="-475" text-anchor="middle" font-size="13" fill="#333" font-family="-apple-system,BlinkMacSystemFont,sans-serif">什么是对账单？</text><path d="M620,-420 C670,-420 670,-440 720,-440" fill="none" stroke="#A287E1" stroke-width="2"/><rect x="720" y="-455" width="104" height="30" rx="6" fill="#fafafa" stroke="none"/><text x="772" y="-435" text-anchor="middle" font-size="13" fill="#333" font-family="-apple-system,BlinkMacSystemFont,sans-serif">物流商对账单</text><path d="M620,-420 C670,-420 670,-400 720,-400" fill="none" stroke="#A287E1" stroke-width="2"/><rect x="720" y="-415" width="104" height="30" rx="6" fill="#fafafa" stroke="none"/><text x="772" y="-395" text-anchor="middle" font-size="13" fill="#333" font-family="-apple-system,BlinkMacSystemFont,sans-serif">供应商对账单</text><path d="M620,-420 C670,-420 670,-360 720,-360" fill="none" stroke="#A287E1" stroke-width="2"/><rect x="720" y="-375" width="91" height="30" rx="6" fill="#fafafa" stroke="none"/><text x="765.5" y="-355" text-anchor="middle" font-size="13" fill="#333" font-family="-apple-system,BlinkMacSystemFont,sans-serif">客户对账单</text><path d="M440,-500 C490,-500 490,-320 540,-320" fill="none" stroke="#A287E1" stroke-width="2"/><rect x="540" y="-335" width="80" height="30" rx="6" fill="#fafafa" stroke="none"/><text x="580" y="-315" text-anchor="middle" font-size="13" fill="#333" font-family="-apple-system,BlinkMacSystemFont,sans-serif">……</text><path d="M310,-620 C335,-620 335,-160 360,-160" fill="none" stroke="#A287E1" stroke-width="2"/><rect x="360" y="-175" width="80" height="30" rx="6" fill="#fafafa" stroke="none"/><text x="400" y="-155" text-anchor="middle" font-size="13" fill="#333" font-family="-apple-system,BlinkMacSystemFont,sans-serif">报表</text><path d="M440,-160 C490,-160 490,-280 540,-280" fill="none" stroke="#A287E1" stroke-width="2"/><rect x="540" y="-295" width="80" height="30" rx="6" fill="#fafafa" stroke="none"/><text x="580" y="-275" text-anchor="middle" font-size="13" fill="#333" font-family="-apple-system,BlinkMacSystemFont,sans-serif">采购分析</text><path d="M440,-160 C490,-160 490,-240 540,-240" fill="none" stroke="#A287E1" stroke-width="2"/><rect x="540" y="-255" width="80" height="30" rx="6" fill="#fafafa" stroke="none"/><text x="580" y="-235" text-anchor="middle" font-size="13" fill="#333" font-family="-apple-system,BlinkMacSystemFont,sans-serif">销售分析</text><path d="M440,-160 C490,-160 490,-200 540,-200" fill="none" stroke="#A287E1" stroke-width="2"/><rect x="540" y="-215" width="80" height="30" rx="6" fill="#fafafa" stroke="none"/><text x="580" y="-195" text-anchor="middle" font-size="13" fill="#333" font-family="-apple-system,BlinkMacSystemFont,sans-serif">库存分析</text><path d="M440,-160 C490,-160 490,-160 540,-160" fill="none" stroke="#A287E1" stroke-width="2"/><rect x="540" y="-175" width="80" height="30" rx="6" fill="#fafafa" stroke="none"/><text x="580" y="-155" text-anchor="middle" font-size="13" fill="#333" font-family="-apple-system,BlinkMacSystemFont,sans-serif">商品分析</text><path d="M440,-160 C490,-160 490,-120 540,-120" fill="none" stroke="#A287E1" stroke-width="2"/><rect x="540" y="-135" width="80" height="30" rx="6" fill="#fafafa" stroke="none"/><text x="580" y="-115" text-anchor="middle" font-size="13" fill="#333" font-family="-apple-system,BlinkMacSystemFont,sans-serif">财务分析</text><path d="M440,-160 C490,-160 490,-80 540,-80" fill="none" stroke="#A287E1" stroke-width="2"/><rect x="540" y="-95" width="80" height="30" rx="6" fill="#fafafa" stroke="none"/><text x="580" y="-75" text-anchor="middle" font-size="13" fill="#333" font-family="-apple-system,BlinkMacSystemFont,sans-serif">……</text><path d="M440,-160 C490,-160 490,-40 540,-40" fill="none" stroke="#A287E1" stroke-width="2"/><rect x="540" y="-55" width="80" height="30" rx="6" fill="#fafafa" stroke="none"/><text x="580" y="-35" text-anchor="middle" font-size="13" fill="#333" font-family="-apple-system,BlinkMacSystemFont,sans-serif">各类报表</text><path d="M310,-620 C335,-620 335,100 360,100" fill="none" stroke="#A287E1" stroke-width="2"/><rect x="360" y="85" width="80" height="30" rx="6" fill="#fafafa" stroke="none"/><text x="400" y="105" text-anchor="middle" font-size="13" fill="#333" font-family="-apple-system,BlinkMacSystemFont,sans-serif">基础资料</text><path d="M440,100 C490,100 490,0 540,0" fill="none" stroke="#A287E1" stroke-width="2"/><rect x="540" y="-15" width="80" height="30" rx="6" fill="#fafafa" stroke="none"/><text x="580" y="5" text-anchor="middle" font-size="13" fill="#333" font-family="-apple-system,BlinkMacSystemFont,sans-serif">商品资料</text><path d="M440,100 C490,100 490,40 540,40" fill="none" stroke="#A287E1" stroke-width="2"/><rect x="540" y="25" width="80" height="30" rx="6" fill="#fafafa" stroke="none"/><text x="580" y="45" text-anchor="middle" font-size="13" fill="#333" font-family="-apple-system,BlinkMacSystemFont,sans-serif">客户资料</text><path d="M440,100 C490,100 490,80 540,80" fill="none" stroke="#A287E1" stroke-width="2"/><rect x="540" y="65" width="91" height="30" rx="6" fill="#fafafa" stroke="none"/><text x="585.5" y="85" text-anchor="middle" font-size="13" fill="#333" font-family="-apple-system,BlinkMacSystemFont,sans-serif">供应商资料</text><path d="M440,100 C490,100 490,120 540,120" fill="none" stroke="#A287E1" stroke-width="2"/><rect x="540" y="105" width="80" height="30" rx="6" fill="#fafafa" stroke="none"/><text x="580" y="125" text-anchor="middle" font-size="13" fill="#333" font-family="-apple-system,BlinkMacSystemFont,sans-serif">仓库资料</text><path d="M440,100 C490,100 490,160 540,160" fill="none" stroke="#A287E1" stroke-width="2"/><rect x="540" y="145" width="84.75999999999999" height="30" rx="6" fill="#fafafa" stroke="none"/><text x="582.38" y="165" text-anchor="middle" font-size="13" fill="#333" font-family="-apple-system,BlinkMacSystemFont,sans-serif">账户&amp;角色</text><path d="M440,100 C490,100 490,200 540,200" fill="none" stroke="#A287E1" stroke-width="2"/><rect x="540" y="185" width="117" height="30" rx="6" fill="#fafafa" stroke="none"/><text x="598.5" y="205" text-anchor="middle" font-size="13" fill="#333" font-family="-apple-system,BlinkMacSystemFont,sans-serif">其他支撑类资料</text><path d="M76,0 C166,0 166,360 256,360" fill="none" stroke="#6F81DB" stroke-width="2"/><rect x="180" y="345" width="169" height="30" rx="6" fill="#fafafa" stroke="none"/><text x="264.5" y="365" text-anchor="middle" font-size="13" fill="#333" font-family="-apple-system,BlinkMacSystemFont,sans-serif">进销存系统搭建的重难点</text><path d="M349,360 C354.5,360 354.5,240 360,240" fill="none" stroke="#6F81DB" stroke-width="2"/><rect x="360" y="225" width="234" height="30" rx="6" fill="#fafafa" stroke="none"/><text x="477" y="245" text-anchor="middle" font-size="13" fill="#333" font-family="-apple-system,BlinkMacSystemFont,sans-serif">进销存系统的重点和难点是在哪里？</text><path d="M349,360 C354.5,360 354.5,280 360,280" fill="none" stroke="#6F81DB" stroke-width="2"/><rect x="360" y="265" width="143.51999999999998" height="30" rx="6" fill="#fafafa" stroke="none"/><text x="431.76" y="285" text-anchor="middle" font-size="13" fill="#333" font-family="-apple-system,BlinkMacSystemFont,sans-serif">1.行业和场景的覆盖</text><path d="M503.52,280 C521.76,280 521.76,280 540,280" fill="none" stroke="#6F81DB" stroke-width="2"/><rect x="540" y="265" width="468" height="30" rx="6" fill="#fafafa" stroke="none"/><text x="774" y="285" text-anchor="middle" font-size="13" fill="#333" font-family="-apple-system,BlinkMacSystemFont,sans-serif">不同领域，不同行业的进销存会有很多差异化的东西，所以要考虑兼容性问题</text><path d="M349,360 C354.5,360 354.5,320 360,320" fill="none" stroke="#6F81DB" stroke-width="2"/><rect x="360" y="305" width="156.51999999999998" height="30" rx="6" fill="#fafafa" stroke="none"/><text x="438.26" y="325" text-anchor="middle" font-size="13" fill="#333" font-family="-apple-system,BlinkMacSystemFont,sans-serif">2.对用户的理解和洞察</text><path d="M516.52,320 C528.26,320 528.26,320 540,320" fill="none" stroke="#6F81DB" stroke-width="2"/><rect x="540" y="305" width="721.76" height="30" rx="6" fill="#fafafa" stroke="none"/><text x="900.88" y="325" text-anchor="middle" font-size="13" fill="#333" font-family="-apple-system,BlinkMacSystemFont,sans-serif">中国最多的就是小微型公司/企业，甚至有一些人字都认不全，怎么考虑做出极简化的产品满足他们的需求，也是一个难题</text><path d="M349,360 C354.5,360 354.5,360 360,360" fill="none" stroke="#6F81DB" stroke-width="2"/><rect x="360" y="345" width="195.51999999999998" height="30" rx="6" fill="#fafafa" stroke="none"/><text x="457.76" y="365" text-anchor="middle" font-size="13" fill="#333" font-family="-apple-system,BlinkMacSystemFont,sans-serif">3.涉及的财务类知识比较重要</text><path d="M555.52,360 C547.76,360 547.76,360 540,360" fill="none" stroke="#6F81DB" stroke-width="2"/><rect x="540" y="345" width="955.76" height="30" rx="6" fill="#fafafa" stroke="none"/><text x="1017.88" y="365" text-anchor="middle" font-size="13" fill="#333" font-family="-apple-system,BlinkMacSystemFont,sans-serif">对小微型公司/企业来说，钱比数据更重要，要算对钱，要算清楚账，进销存系统中涉及到钱相关的模块比较多，需要全盘考虑相关的业务，很多地方和钱都有关系</text><path d="M349,360 C354.5,360 354.5,400 360,400" fill="none" stroke="#6F81DB" stroke-width="2"/><rect x="360" y="385" width="182.51999999999998" height="30" rx="6" fill="#fafafa" stroke="none"/><text x="451.26" y="405" text-anchor="middle" font-size="13" fill="#333" font-family="-apple-system,BlinkMacSystemFont,sans-serif">4.进销存的同质化竞争很大</text><path d="M542.52,400 C541.26,400 541.26,400 540,400" fill="none" stroke="#6F81DB" stroke-width="2"/><rect x="540" y="385" width="767" height="30" rx="6" fill="#fafafa" stroke="none"/><text x="923.5" y="405" text-anchor="middle" font-size="13" fill="#333" font-family="-apple-system,BlinkMacSystemFont,sans-serif">同质化竞争中怎么胜出，不仅仅只是靠产品的堆砌，还需要找准一些差异化，用户的痛点和产品定位相关的内容，否则就会被卷死</text><path d="M349,360 C354.5,360 354.5,460 360,460" fill="none" stroke="#6F81DB" stroke-width="2"/><rect x="360" y="445" width="241.8" height="30" rx="6" fill="#fafafa" stroke="none"/><text x="480.9" y="465" text-anchor="middle" font-size="13" fill="#333" font-family="-apple-system,BlinkMacSystemFont,sans-serif">5.SMB用户量非常大，产品迭代要谨慎</text><path d="M601.8,460 C570.9,460 570.9,440 540,440" fill="none" stroke="#6F81DB" stroke-width="2"/><rect x="540" y="425" width="807.5600000000001" height="30" rx="6" fill="#fafafa" stroke="none"/><text x="943.78" y="445" text-anchor="middle" font-size="13" fill="#333" font-family="-apple-system,BlinkMacSystemFont,sans-serif">进销存算是2B领域SaaS产品中用户量级很大的产品了，几万或者几十万的用户同时在线，怎么应对这么多需求，怎么迭代功能等都是挑战</text><path d="M601.8,460 C570.9,460 570.9,480 540,480" fill="none" stroke="#6F81DB" stroke-width="2"/><rect x="540" y="465" width="332.40999999999997" height="30" rx="6" fill="#fafafa" stroke="none"/><text x="706.2049999999999" y="485" text-anchor="middle" font-size="13" fill="#333" font-family="-apple-system,BlinkMacSystemFont,sans-serif">SMB（Small and Midsize Business）指中小企业客户</text><path d="M76,0 C166,0 166,600 256,600" fill="none" stroke="#6EC4C4" stroke-width="2"/><rect x="180" y="585" width="273" height="30" rx="6" fill="#fafafa" stroke="none"/><text x="316.5" y="605" text-anchor="middle" font-size="13" fill="#333" font-family="-apple-system,BlinkMacSystemFont,sans-serif">进销存系统对入门供应链产品的价值和意义</text><path d="M453,600 C406.5,600 406.5,520 360,520" fill="none" stroke="#6EC4C4" stroke-width="2"/><rect x="360" y="505" width="416" height="30" rx="6" fill="#fafafa" stroke="none"/><text x="568" y="525" text-anchor="middle" font-size="13" fill="#333" font-family="-apple-system,BlinkMacSystemFont,sans-serif">为什么入门供应链产品经理要先学进销存系统？它有什么特殊之处？</text><path d="M453,600 C406.5,600 406.5,560 360,560" fill="none" stroke="#6EC4C4" stroke-width="2"/><rect x="360" y="545" width="442.52" height="30" rx="6" fill="#fafafa" stroke="none"/><text x="581.26" y="565" text-anchor="middle" font-size="13" fill="#333" font-family="-apple-system,BlinkMacSystemFont,sans-serif">1.进销存系统入门简单，业务场景容易理解和掌握，便于大家学习和上手</text><path d="M453,600 C406.5,600 406.5,600 360,600" fill="none" stroke="#6EC4C4" stroke-width="2"/><rect x="360" y="585" width="665.0799999999999" height="30" rx="6" fill="#fafafa" stroke="none"/><text x="692.54" y="605" text-anchor="middle" font-size="13" fill="#333" font-family="-apple-system,BlinkMacSystemFont,sans-serif">2.进销存虽然简单，但是麻雀虽小五脏俱全，其中的一些业务和理论知识是ERP和WMS等复杂类供应链系统的基石</text><path d="M453,600 C406.5,600 406.5,640 360,640" fill="none" stroke="#6EC4C4" stroke-width="2"/><rect x="360" y="625" width="910.52" height="30" rx="6" fill="#fafafa" stroke="none"/><text x="815.26" y="645" text-anchor="middle" font-size="13" fill="#333" font-family="-apple-system,BlinkMacSystemFont,sans-serif">3.进销存系统比较全面，涉及的东西多但是比较浅，适合拓展业务知识面，也很契合我们学习供应链知识的路径，先全面了解，再深入某个单独的模块学习</text><path d="M453,600 C406.5,600 406.5,680 360,680" fill="none" stroke="#6EC4C4" stroke-width="2"/><rect x="360" y="665" width="807.56" height="30" rx="6" fill="#fafafa" stroke="none"/><text x="763.78" y="685" text-anchor="middle" font-size="13" fill="#333" font-family="-apple-system,BlinkMacSystemFont,sans-serif">4.进销存系统一般都是SaaS产品，容易找竞品，而且很多功能模块、术语定义、业务流程等都比较成熟、可靠，有很多可参考学习的价值</text><path d="M1167.56,680 C853.78,680 853.78,680 540,680" fill="none" stroke="#6EC4C4" stroke-width="2"/><rect x="540" y="665" width="312.52" height="30" rx="6" fill="#fafafa" stroke="none"/><text x="696.26" y="685" text-anchor="middle" font-size="13" fill="#333" font-family="-apple-system,BlinkMacSystemFont,sans-serif">例如七色米的一些名词定义、交互、UI就做的不错</text><path d="M76,0 C166,0 166,1080 256,1080" fill="none" stroke="#DFB85D" stroke-width="2"/><rect x="180" y="1065" width="221" height="30" rx="6" fill="#fafafa" stroke="none"/><text x="290.5" y="1085" text-anchor="middle" font-size="13" fill="#333" font-family="-apple-system,BlinkMacSystemFont,sans-serif">进销存的几节课教会了大家什么？</text><path d="M401,1080 C380.5,1080 380.5,720 360,720" fill="none" stroke="#DFB85D" stroke-width="2"/><rect x="360" y="705" width="351" height="30" rx="6" fill="#fafafa" stroke="none"/><text x="535.5" y="725" text-anchor="middle" font-size="13" fill="#333" font-family="-apple-system,BlinkMacSystemFont,sans-serif">通过这么几节课的学习，大家学到了什么？提升了什么？</text><path d="M401,1080 C380.5,1080 380.5,940 360,940" fill="none" stroke="#DFB85D" stroke-width="2"/><rect x="360" y="925" width="455.52" height="30" rx="6" fill="#fafafa" stroke="none"/><text x="587.76" y="945" text-anchor="middle" font-size="13" fill="#333" font-family="-apple-system,BlinkMacSystemFont,sans-serif">1.了解供应链是什么，供应链系统有哪些，供应链系统中常见的模块有什么</text><path d="M815.52,940 C677.76,940 677.76,760 540,760" fill="none" stroke="#DFB85D" stroke-width="2"/><rect x="540" y="745" width="80" height="30" rx="6" fill="#fafafa" stroke="none"/><text x="580" y="765" text-anchor="middle" font-size="13" fill="#333" font-family="-apple-system,BlinkMacSystemFont,sans-serif">SCM</text><path d="M815.52,940 C677.76,940 677.76,800 540,800" fill="none" stroke="#DFB85D" stroke-width="2"/><rect x="540" y="785" width="80" height="30" rx="6" fill="#fafafa" stroke="none"/><text x="580" y="805" text-anchor="middle" font-size="13" fill="#333" font-family="-apple-system,BlinkMacSystemFont,sans-serif">SRM</text><path d="M815.52,940 C677.76,940 677.76,840 540,840" fill="none" stroke="#DFB85D" stroke-width="2"/><rect x="540" y="825" width="80" height="30" rx="6" fill="#fafafa" stroke="none"/><text x="580" y="845" text-anchor="middle" font-size="13" fill="#333" font-family="-apple-system,BlinkMacSystemFont,sans-serif">ERP</text><path d="M815.52,940 C677.76,940 677.76,880 540,880" fill="none" stroke="#DFB85D" stroke-width="2"/><rect x="540" y="865" width="80" height="30" rx="6" fill="#fafafa" stroke="none"/><text x="580" y="885" text-anchor="middle" font-size="13" fill="#333" font-family="-apple-system,BlinkMacSystemFont,sans-serif">进销存</text><path d="M815.52,940 C677.76,940 677.76,920 540,920" fill="none" stroke="#DFB85D" stroke-width="2"/><rect x="540" y="905" width="98.28" height="30" rx="6" fill="#fafafa" stroke="none"/><text x="589.14" y="925" text-anchor="middle" font-size="13" fill="#333" font-family="-apple-system,BlinkMacSystemFont,sans-serif">仓储管理WMS</text><path d="M815.52,940 C677.76,940 677.76,960 540,960" fill="none" stroke="#DFB85D" stroke-width="2"/><rect x="540" y="945" width="80" height="30" rx="6" fill="#fafafa" stroke="none"/><text x="580" y="965" text-anchor="middle" font-size="13" fill="#333" font-family="-apple-system,BlinkMacSystemFont,sans-serif">采购PMS</text><path d="M815.52,940 C677.76,940 677.76,1000 540,1000" fill="none" stroke="#DFB85D" stroke-width="2"/><rect x="540" y="985" width="98.28" height="30" rx="6" fill="#fafafa" stroke="none"/><text x="589.14" y="1005" text-anchor="middle" font-size="13" fill="#333" font-family="-apple-system,BlinkMacSystemFont,sans-serif">订单履约OMS</text><path d="M815.52,940 C677.76,940 677.76,1040 540,1040" fill="none" stroke="#DFB85D" stroke-width="2"/><rect x="540" y="1025" width="98.28" height="30" rx="6" fill="#fafafa" stroke="none"/><text x="589.14" y="1045" text-anchor="middle" font-size="13" fill="#333" font-family="-apple-system,BlinkMacSystemFont,sans-serif">生产制造MES</text><path d="M815.52,940 C677.76,940 677.76,1080 540,1080" fill="none" stroke="#DFB85D" stroke-width="2"/><rect x="540" y="1065" width="98.28" height="30" rx="6" fill="#fafafa" stroke="none"/><text x="589.14" y="1085" text-anchor="middle" font-size="13" fill="#333" font-family="-apple-system,BlinkMacSystemFont,sans-serif">物流管理TMS</text><path d="M815.52,940 C677.76,940 677.76,1120 540,1120" fill="none" stroke="#DFB85D" stroke-width="2"/><rect x="540" y="1105" width="80" height="30" rx="6" fill="#fafafa" stroke="none"/><text x="580" y="1125" text-anchor="middle" font-size="13" fill="#333" font-family="-apple-system,BlinkMacSystemFont,sans-serif">……</text><path d="M401,1080 C380.5,1080 380.5,1240 360,1240" fill="none" stroke="#DFB85D" stroke-width="2"/><rect x="360" y="1225" width="345.28" height="30" rx="6" fill="#fafafa" stroke="none"/><text x="532.64" y="1245" text-anchor="middle" font-size="13" fill="#333" font-family="-apple-system,BlinkMacSystemFont,sans-serif">2.了解比较规范的B端类产品方案输出应该包含哪些东西</text><path d="M705.28,1240 C622.64,1240 622.64,1160 540,1160" fill="none" stroke="#DFB85D" stroke-width="2"/><rect x="540" y="1145" width="143" height="30" rx="6" fill="#fafafa" stroke="none"/><text x="611.5" y="1165" text-anchor="middle" font-size="13" fill="#333" font-family="-apple-system,BlinkMacSystemFont,sans-serif">需求分析、需求拆解</text><path d="M705.28,1240 C622.64,1240 622.64,1200 540,1200" fill="none" stroke="#DFB85D" stroke-width="2"/><rect x="540" y="1185" width="182.51999999999998" height="30" rx="6" fill="#fafafa" stroke="none"/><text x="631.26" y="1205" text-anchor="middle" font-size="13" fill="#333" font-family="-apple-system,BlinkMacSystemFont,sans-serif">流程图、ER图、状态机图等</text><path d="M705.28,1240 C622.64,1240 622.64,1240 540,1240" fill="none" stroke="#DFB85D" stroke-width="2"/><rect x="540" y="1225" width="130" height="30" rx="6" fill="#fafafa" stroke="none"/><text x="605" y="1245" text-anchor="middle" font-size="13" fill="#333" font-family="-apple-system,BlinkMacSystemFont,sans-serif">初步产品方案输出</text><path d="M705.28,1240 C622.64,1240 622.64,1280 540,1280" fill="none" stroke="#DFB85D" stroke-width="2"/><rect x="540" y="1265" width="195" height="30" rx="6" fill="#fafafa" stroke="none"/><text x="637.5" y="1285" text-anchor="middle" font-size="13" fill="#333" font-family="-apple-system,BlinkMacSystemFont,sans-serif">产品功能结构、产品信息结构</text><path d="M705.28,1240 C622.64,1240 622.64,1320 540,1320" fill="none" stroke="#DFB85D" stroke-width="2"/><rect x="540" y="1305" width="117" height="30" rx="6" fill="#fafafa" stroke="none"/><text x="598.5" y="1325" text-anchor="middle" font-size="13" fill="#333" font-family="-apple-system,BlinkMacSystemFont,sans-serif">原型、需求文档</text><path d="M401,1080 C380.5,1080 380.5,1360 360,1360" fill="none" stroke="#DFB85D" stroke-width="2"/><rect x="360" y="1345" width="585.52" height="30" rx="6" fill="#fafafa" stroke="none"/><text x="652.76" y="1365" text-anchor="middle" font-size="13" fill="#333" font-family="-apple-system,BlinkMacSystemFont,sans-serif">3.学习了一些比较体系化，接地气，能应用到工作中产品知识和技巧，而不是假大空的纯理论知识</text><path d="M401,1080 C380.5,1080 380.5,1400 360,1400" fill="none" stroke="#DFB85D" stroke-width="2"/><rect x="360" y="1385" width="611.52" height="30" rx="6" fill="#fafafa" stroke="none"/><text x="665.76" y="1405" text-anchor="middle" font-size="13" fill="#333" font-family="-apple-system,BlinkMacSystemFont,sans-serif">4.掌握了应该如何去拆解一款产品，如何学习一个新的领域，提升自己的信息检索能力和输出表达能力</text><path d="M401,1080 C380.5,1080 380.5,1440 360,1440" fill="none" stroke="#DFB85D" stroke-width="2"/><rect x="360" y="1425" width="80" height="30" rx="6" fill="#fafafa" stroke="none"/><text x="400" y="1445" text-anchor="middle" font-size="13" fill="#333" font-family="-apple-system,BlinkMacSystemFont,sans-serif">……</text>
</svg>