<svg xmlns="http://www.w3.org/2000/svg" xmlns:xlink="http://www.w3.org/1999/xlink"
  viewBox="-192.95999999999998 -1099 1405.96 2198" width="1405.96" height="2198"
  style="background:#fff; font-family:-apple-system,BlinkMacSystemFont,'Segoe UI',Roboto,sans-serif;">
<defs></defs>
<rect x="-192.95999999999998" y="-1099" width="1405.96" height="2198" fill="#fff"/>
<rect x="-108.95999999999998" y="-18" width="217.91999999999996" height="36" rx="8" fill="#EFF0F0" stroke="none"/><text x="0" y="6" text-anchor="middle" font-size="16" font-weight="bold" fill="#333" font-family="-apple-system,BlinkMacSystemFont,sans-serif">新零售型ERP和POS的功能</text><path d="M108.95999999999998,0 C198.95999999999998,0 198.95999999999998,-980 288.96,-980" fill="none" stroke="#A287E1" stroke-width="2"/><rect x="180" y="-995" width="80" height="30" rx="6" fill="#fafafa" stroke="none"/><text x="220" y="-975" text-anchor="middle" font-size="13" fill="#333" font-family="-apple-system,BlinkMacSystemFont,sans-serif">参考竞品</text><path d="M260,-980 C310,-980 310,-1000 360,-1000" fill="none" stroke="#A287E1" stroke-width="2"/><rect x="360" y="-1015" width="80" height="30" rx="6" fill="#fafafa" stroke="none"/><text x="400" y="-995" text-anchor="middle" font-size="13" fill="#333" font-family="-apple-system,BlinkMacSystemFont,sans-serif">银响力</text><path d="M440,-1000 C490,-1000 490,-1000 540,-1000" fill="none" stroke="#A287E1" stroke-width="2"/><rect x="540" y="-1015" width="228.79999999999993" height="30" rx="6" fill="#fafafa" stroke="none"/><text x="654.4" y="-995" text-anchor="middle" font-size="13" fill="#333" font-family="-apple-system,BlinkMacSystemFont,sans-serif">https://yinxl.zhonglunnet.com/</text><path d="M260,-980 C310,-980 310,-960 360,-960" fill="none" stroke="#A287E1" stroke-width="2"/><rect x="360" y="-975" width="234" height="30" rx="6" fill="#fafafa" stroke="none"/><text x="477" y="-955" text-anchor="middle" font-size="13" fill="#333" font-family="-apple-system,BlinkMacSystemFont,sans-serif">专注中型连锁门店的一体化解决方案</text><path d="M108.95999999999998,0 C198.95999999999998,0 198.95999999999998,-800 288.96,-800" fill="none" stroke="#6EC4C4" stroke-width="2"/><rect x="180" y="-815" width="117" height="30" rx="6" fill="#fafafa" stroke="none"/><text x="238.5" y="-795" text-anchor="middle" font-size="13" fill="#333" font-family="-apple-system,BlinkMacSystemFont,sans-serif">对应的业务模式</text><path d="M297,-800 C328.5,-800 328.5,-880 360,-880" fill="none" stroke="#6EC4C4" stroke-width="2"/><rect x="360" y="-895" width="209.56" height="30" rx="6" fill="#fafafa" stroke="none"/><text x="464.78" y="-875" text-anchor="middle" font-size="13" fill="#333" font-family="-apple-system,BlinkMacSystemFont,sans-serif">类似Miniso的小型综合百货门店</text><path d="M569.56,-880 C554.78,-880 554.78,-920 540,-920" fill="none" stroke="#6EC4C4" stroke-width="2"/><rect x="540" y="-935" width="260" height="30" rx="6" fill="#fafafa" stroke="none"/><text x="670" y="-915" text-anchor="middle" font-size="13" fill="#333" font-family="-apple-system,BlinkMacSystemFont,sans-serif">全国有很多个门店，也会合作很多个仓库</text><path d="M800,-920 C760,-920 760,-920 720,-920" fill="none" stroke="#6EC4C4" stroke-width="2"/><rect x="720" y="-935" width="80" height="30" rx="6" fill="#fafafa" stroke="none"/><text x="760" y="-915" text-anchor="middle" font-size="13" fill="#333" font-family="-apple-system,BlinkMacSystemFont,sans-serif">万店同庆</text><path d="M800,-920 C850,-920 850,-920 900,-920" fill="none" stroke="#6EC4C4" stroke-width="2"/><rect x="900" y="-935" width="80" height="30" rx="6" fill="#fafafa" stroke="none"/><text x="940" y="-915" text-anchor="middle" font-size="13" fill="#333" font-family="-apple-system,BlinkMacSystemFont,sans-serif">瑞幸</text><path d="M569.56,-880 C554.78,-880 554.78,-880 540,-880" fill="none" stroke="#6EC4C4" stroke-width="2"/><rect x="540" y="-895" width="377" height="30" rx="6" fill="#fafafa" stroke="none"/><text x="728.5" y="-875" text-anchor="middle" font-size="13" fill="#333" font-family="-apple-system,BlinkMacSystemFont,sans-serif">一般会先批量采购到仓库，然后根据门店的需求再配货给门店</text><path d="M569.56,-880 C554.78,-880 554.78,-840 540,-840" fill="none" stroke="#6EC4C4" stroke-width="2"/><rect x="540" y="-855" width="390" height="30" rx="6" fill="#fafafa" stroke="none"/><text x="735" y="-835" text-anchor="middle" font-size="13" fill="#333" font-family="-apple-system,BlinkMacSystemFont,sans-serif">门店一般不会自己单独采购商品，除非是一些总部不提供的商品</text><path d="M297,-800 C328.5,-800 328.5,-740 360,-740" fill="none" stroke="#6EC4C4" stroke-width="2"/><rect x="360" y="-755" width="261.56" height="30" rx="6" fill="#fafafa" stroke="none"/><text x="490.78" y="-735" text-anchor="middle" font-size="13" fill="#333" font-family="-apple-system,BlinkMacSystemFont,sans-serif">有门店端的POS系统，也有总部的ERP系统</text><path d="M621.56,-740 C580.78,-740 580.78,-780 540,-780" fill="none" stroke="#6EC4C4" stroke-width="2"/><rect x="540" y="-795" width="80" height="30" rx="6" fill="#fafafa" stroke="none"/><text x="580" y="-775" text-anchor="middle" font-size="13" fill="#333" font-family="-apple-system,BlinkMacSystemFont,sans-serif">POS系统</text><path d="M620,-780 C670,-780 670,-800 720,-800" fill="none" stroke="#6EC4C4" stroke-width="2"/><rect x="720" y="-815" width="104" height="30" rx="6" fill="#fafafa" stroke="none"/><text x="772" y="-795" text-anchor="middle" font-size="13" fill="#333" font-family="-apple-system,BlinkMacSystemFont,sans-serif">前端零售收银</text><path d="M620,-780 C670,-780 670,-760 720,-760" fill="none" stroke="#6EC4C4" stroke-width="2"/><rect x="720" y="-775" width="130" height="30" rx="6" fill="#fafafa" stroke="none"/><text x="785" y="-755" text-anchor="middle" font-size="13" fill="#333" font-family="-apple-system,BlinkMacSystemFont,sans-serif">后端运营管理系统</text><path d="M621.56,-740 C580.78,-740 580.78,-700 540,-700" fill="none" stroke="#6EC4C4" stroke-width="2"/><rect x="540" y="-715" width="80" height="30" rx="6" fill="#fafafa" stroke="none"/><text x="580" y="-695" text-anchor="middle" font-size="13" fill="#333" font-family="-apple-system,BlinkMacSystemFont,sans-serif">ERP系统</text><path d="M620,-700 C670,-700 670,-720 720,-720" fill="none" stroke="#6EC4C4" stroke-width="2"/><rect x="720" y="-735" width="143" height="30" rx="6" fill="#fafafa" stroke="none"/><text x="791.5" y="-715" text-anchor="middle" font-size="13" fill="#333" font-family="-apple-system,BlinkMacSystemFont,sans-serif">统筹总部的相关事项</text><path d="M620,-700 C670,-700 670,-680 720,-680" fill="none" stroke="#6EC4C4" stroke-width="2"/><rect x="720" y="-695" width="182" height="30" rx="6" fill="#fafafa" stroke="none"/><text x="811" y="-675" text-anchor="middle" font-size="13" fill="#333" font-family="-apple-system,BlinkMacSystemFont,sans-serif">也可以查看门店的运营情况</text><path d="M108.95999999999998,0 C198.95999999999998,0 198.95999999999998,-220 288.96,-220" fill="none" stroke="#DFB85D" stroke-width="2"/><rect x="180" y="-235" width="137.28" height="30" rx="6" fill="#fafafa" stroke="none"/><text x="248.64" y="-215" text-anchor="middle" font-size="13" fill="#333" font-family="-apple-system,BlinkMacSystemFont,sans-serif">ERP主要的功能模块</text><path d="M317.28,-220 C338.64,-220 338.64,-600 360,-600" fill="none" stroke="#DFB85D" stroke-width="2"/><rect x="360" y="-615" width="80" height="30" rx="6" fill="#EFF0F0" stroke="none"/><text x="400" y="-595" text-anchor="middle" font-size="13" fill="#333" font-family="-apple-system,BlinkMacSystemFont,sans-serif">商品资料</text><path d="M440,-600 C490,-600 490,-640 540,-640" fill="none" stroke="#DFB85D" stroke-width="2"/><rect x="540" y="-655" width="104" height="30" rx="6" fill="#EFF0F0" stroke="none"/><text x="592" y="-635" text-anchor="middle" font-size="13" fill="#333" font-family="-apple-system,BlinkMacSystemFont,sans-serif">商品基础资料</text><path d="M440,-600 C490,-600 490,-600 540,-600" fill="none" stroke="#DFB85D" stroke-width="2"/><rect x="540" y="-615" width="104" height="30" rx="6" fill="#EFF0F0" stroke="none"/><text x="592" y="-595" text-anchor="middle" font-size="13" fill="#333" font-family="-apple-system,BlinkMacSystemFont,sans-serif">商品价格调整</text><path d="M440,-600 C490,-600 490,-560 540,-560" fill="none" stroke="#DFB85D" stroke-width="2"/><rect x="540" y="-575" width="104" height="30" rx="6" fill="#EFF0F0" stroke="none"/><text x="592" y="-555" text-anchor="middle" font-size="13" fill="#333" font-family="-apple-system,BlinkMacSystemFont,sans-serif">门店商品管理</text><path d="M317.28,-220 C338.64,-220 338.64,-460 360,-460" fill="none" stroke="#DFB85D" stroke-width="2"/><rect x="360" y="-475" width="80" height="30" rx="6" fill="#EFF0F0" stroke="none"/><text x="400" y="-455" text-anchor="middle" font-size="13" fill="#333" font-family="-apple-system,BlinkMacSystemFont,sans-serif">采购场景</text><path d="M440,-460 C490,-460 490,-500 540,-500" fill="none" stroke="#DFB85D" stroke-width="2"/><rect x="540" y="-515" width="80" height="30" rx="6" fill="#fafafa" stroke="none"/><text x="580" y="-495" text-anchor="middle" font-size="13" fill="#333" font-family="-apple-system,BlinkMacSystemFont,sans-serif">采购订单</text><path d="M620,-500 C670,-500 670,-520 720,-520" fill="none" stroke="#DFB85D" stroke-width="2"/><rect x="720" y="-535" width="91" height="30" rx="6" fill="#fafafa" stroke="none"/><text x="765.5" y="-515" text-anchor="middle" font-size="13" fill="#333" font-family="-apple-system,BlinkMacSystemFont,sans-serif">采购到仓库</text><path d="M620,-500 C670,-500 670,-480 720,-480" fill="none" stroke="#DFB85D" stroke-width="2"/><rect x="720" y="-495" width="91" height="30" rx="6" fill="#fafafa" stroke="none"/><text x="765.5" y="-475" text-anchor="middle" font-size="13" fill="#333" font-family="-apple-system,BlinkMacSystemFont,sans-serif">采购到门店</text><path d="M440,-460 C490,-460 490,-440 540,-440" fill="none" stroke="#DFB85D" stroke-width="2"/><rect x="540" y="-455" width="91" height="30" rx="6" fill="#fafafa" stroke="none"/><text x="585.5" y="-435" text-anchor="middle" font-size="13" fill="#333" font-family="-apple-system,BlinkMacSystemFont,sans-serif">采购入库单</text><path d="M440,-460 C490,-460 490,-400 540,-400" fill="none" stroke="#DFB85D" stroke-width="2"/><rect x="540" y="-415" width="91" height="30" rx="6" fill="#fafafa" stroke="none"/><text x="585.5" y="-395" text-anchor="middle" font-size="13" fill="#333" font-family="-apple-system,BlinkMacSystemFont,sans-serif">采购退货单</text><path d="M317.28,-220 C338.64,-220 338.64,-320 360,-320" fill="none" stroke="#DFB85D" stroke-width="2"/><rect x="360" y="-335" width="80" height="30" rx="6" fill="#EFF0F0" stroke="none"/><text x="400" y="-315" text-anchor="middle" font-size="13" fill="#333" font-family="-apple-system,BlinkMacSystemFont,sans-serif">销售场景</text><path d="M440,-320 C490,-320 490,-360 540,-360" fill="none" stroke="#DFB85D" stroke-width="2"/><rect x="540" y="-375" width="169" height="30" rx="6" fill="#fafafa" stroke="none"/><text x="624.5" y="-355" text-anchor="middle" font-size="13" fill="#333" font-family="-apple-system,BlinkMacSystemFont,sans-serif">标准销售单（批发销售）</text><path d="M709,-360 C714.5,-360 714.5,-360 720,-360" fill="none" stroke="#DFB85D" stroke-width="2"/><rect x="720" y="-375" width="169.52" height="30" rx="6" fill="#fafafa" stroke="none"/><text x="804.76" y="-355" text-anchor="middle" font-size="13" fill="#333" font-family="-apple-system,BlinkMacSystemFont,sans-serif">从仓库发出，卖给2B客户</text><path d="M440,-320 C490,-320 490,-320 540,-320" fill="none" stroke="#DFB85D" stroke-width="2"/><rect x="540" y="-335" width="91" height="30" rx="6" fill="#fafafa" stroke="none"/><text x="585.5" y="-315" text-anchor="middle" font-size="13" fill="#333" font-family="-apple-system,BlinkMacSystemFont,sans-serif">销售出库单</text><path d="M440,-320 C490,-320 490,-280 540,-280" fill="none" stroke="#DFB85D" stroke-width="2"/><rect x="540" y="-295" width="117" height="30" rx="6" fill="#fafafa" stroke="none"/><text x="598.5" y="-275" text-anchor="middle" font-size="13" fill="#333" font-family="-apple-system,BlinkMacSystemFont,sans-serif">标准销售退货单</text><path d="M317.28,-220 C338.64,-220 338.64,-200 360,-200" fill="none" stroke="#DFB85D" stroke-width="2"/><rect x="360" y="-215" width="80" height="30" rx="6" fill="#EFF0F0" stroke="none"/><text x="400" y="-195" text-anchor="middle" font-size="13" fill="#333" font-family="-apple-system,BlinkMacSystemFont,sans-serif">配货场景</text><path d="M440,-200 C490,-200 490,-240 540,-240" fill="none" stroke="#DFB85D" stroke-width="2"/><rect x="540" y="-255" width="91" height="30" rx="6" fill="#fafafa" stroke="none"/><text x="585.5" y="-235" text-anchor="middle" font-size="13" fill="#333" font-family="-apple-system,BlinkMacSystemFont,sans-serif">门店配货单</text><path d="M631,-240 C675.5,-240 675.5,-240 720,-240" fill="none" stroke="#DFB85D" stroke-width="2"/><rect x="720" y="-255" width="169" height="30" rx="6" fill="#fafafa" stroke="none"/><text x="804.5" y="-235" text-anchor="middle" font-size="13" fill="#333" font-family="-apple-system,BlinkMacSystemFont,sans-serif">从仓库发出，配货给门店</text><path d="M440,-200 C490,-200 490,-200 540,-200" fill="none" stroke="#DFB85D" stroke-width="2"/><rect x="540" y="-215" width="91" height="30" rx="6" fill="#fafafa" stroke="none"/><text x="585.5" y="-195" text-anchor="middle" font-size="13" fill="#333" font-family="-apple-system,BlinkMacSystemFont,sans-serif">配货出库单</text><path d="M440,-200 C490,-200 490,-160 540,-160" fill="none" stroke="#DFB85D" stroke-width="2"/><rect x="540" y="-175" width="91" height="30" rx="6" fill="#fafafa" stroke="none"/><text x="585.5" y="-155" text-anchor="middle" font-size="13" fill="#333" font-family="-apple-system,BlinkMacSystemFont,sans-serif">门店退货单</text><path d="M317.28,-220 C338.64,-220 338.64,20 360,20" fill="none" stroke="#DFB85D" stroke-width="2"/><rect x="360" y="5" width="104" height="30" rx="6" fill="#EFF0F0" stroke="none"/><text x="412" y="25" text-anchor="middle" font-size="13" fill="#333" font-family="-apple-system,BlinkMacSystemFont,sans-serif">库存管理场景</text><path d="M464,20 C502,20 502,-60 540,-60" fill="none" stroke="#DFB85D" stroke-width="2"/><rect x="540" y="-75" width="80" height="30" rx="6" fill="#fafafa" stroke="none"/><text x="580" y="-55" text-anchor="middle" font-size="13" fill="#333" font-family="-apple-system,BlinkMacSystemFont,sans-serif">库存查询</text><path d="M620,-60 C670,-60 670,-120 720,-120" fill="none" stroke="#DFB85D" stroke-width="2"/><rect x="720" y="-135" width="195" height="30" rx="6" fill="#fafafa" stroke="none"/><text x="817.5" y="-115" text-anchor="middle" font-size="13" fill="#333" font-family="-apple-system,BlinkMacSystemFont,sans-serif">总部库存（仓库库存）的查询</text><path d="M620,-60 C670,-60 670,-80 720,-80" fill="none" stroke="#DFB85D" stroke-width="2"/><rect x="720" y="-95" width="143" height="30" rx="6" fill="#fafafa" stroke="none"/><text x="791.5" y="-75" text-anchor="middle" font-size="13" fill="#333" font-family="-apple-system,BlinkMacSystemFont,sans-serif">总部库存流水的查询</text><path d="M620,-60 C670,-60 670,-40 720,-40" fill="none" stroke="#DFB85D" stroke-width="2"/><rect x="720" y="-55" width="117" height="30" rx="6" fill="#fafafa" stroke="none"/><text x="778.5" y="-35" text-anchor="middle" font-size="13" fill="#333" font-family="-apple-system,BlinkMacSystemFont,sans-serif">门店的库存查询</text><path d="M620,-60 C670,-60 670,0 720,0" fill="none" stroke="#DFB85D" stroke-width="2"/><rect x="720" y="-15" width="156" height="30" rx="6" fill="#fafafa" stroke="none"/><text x="798" y="5" text-anchor="middle" font-size="13" fill="#333" font-family="-apple-system,BlinkMacSystemFont,sans-serif">门店的库存流水的查询</text><path d="M464,20 C502,20 502,60 540,60" fill="none" stroke="#DFB85D" stroke-width="2"/><rect x="540" y="45" width="80" height="30" rx="6" fill="#fafafa" stroke="none"/><text x="580" y="65" text-anchor="middle" font-size="13" fill="#333" font-family="-apple-system,BlinkMacSystemFont,sans-serif">调拨单</text><path d="M620,60 C670,60 670,40 720,40" fill="none" stroke="#DFB85D" stroke-width="2"/><rect x="720" y="25" width="117" height="30" rx="6" fill="#fafafa" stroke="none"/><text x="778.5" y="45" text-anchor="middle" font-size="13" fill="#333" font-family="-apple-system,BlinkMacSystemFont,sans-serif">仓库直接的调拨</text><path d="M620,60 C670,60 670,80 720,80" fill="none" stroke="#DFB85D" stroke-width="2"/><rect x="720" y="65" width="117" height="30" rx="6" fill="#fafafa" stroke="none"/><text x="778.5" y="85" text-anchor="middle" font-size="13" fill="#333" font-family="-apple-system,BlinkMacSystemFont,sans-serif">门店之间的调拨</text><path d="M464,20 C502,20 502,120 540,120" fill="none" stroke="#DFB85D" stroke-width="2"/><rect x="540" y="105" width="104" height="30" rx="6" fill="#fafafa" stroke="none"/><text x="592" y="125" text-anchor="middle" font-size="13" fill="#333" font-family="-apple-system,BlinkMacSystemFont,sans-serif">其他出入库单</text><path d="M644,120 C682,120 682,120 720,120" fill="none" stroke="#DFB85D" stroke-width="2"/><rect x="720" y="105" width="156" height="30" rx="6" fill="#fafafa" stroke="none"/><text x="798" y="125" text-anchor="middle" font-size="13" fill="#333" font-family="-apple-system,BlinkMacSystemFont,sans-serif">仓库库存的增加和扣减</text><path d="M464,20 C502,20 502,160 540,160" fill="none" stroke="#DFB85D" stroke-width="2"/><rect x="540" y="145" width="80" height="30" rx="6" fill="#fafafa" stroke="none"/><text x="580" y="165" text-anchor="middle" font-size="13" fill="#333" font-family="-apple-system,BlinkMacSystemFont,sans-serif">盘盈亏单</text><path d="M620,160 C670,160 670,160 720,160" fill="none" stroke="#DFB85D" stroke-width="2"/><rect x="720" y="145" width="156" height="30" rx="6" fill="#EFF0F0" stroke="none"/><text x="798" y="165" text-anchor="middle" font-size="13" fill="#333" font-family="-apple-system,BlinkMacSystemFont,sans-serif">仓库库存的增加和扣减</text><path d="M317.28,-220 C338.64,-220 338.64,200 360,200" fill="none" stroke="#DFB85D" stroke-width="2"/><rect x="360" y="185" width="80" height="30" rx="6" fill="transparent" stroke="#BFBFBF"/><text x="400" y="205" text-anchor="middle" font-size="13" fill="#333" font-family="-apple-system,BlinkMacSystemFont,sans-serif">销售管理</text><path d="M108.95999999999998,0 C198.95999999999998,0 198.95999999999998,620 288.96,620" fill="none" stroke="#DFB85D" stroke-width="2"/><rect x="180" y="605" width="150.28" height="30" rx="6" fill="#fafafa" stroke="none"/><text x="255.14" y="625" text-anchor="middle" font-size="13" fill="#333" font-family="-apple-system,BlinkMacSystemFont,sans-serif">POS后端运营管理系统</text><path d="M330.28,620 C345.14,620 345.14,280 360,280" fill="none" stroke="#DFB85D" stroke-width="2"/><rect x="360" y="265" width="80" height="30" rx="6" fill="#EFF0F0" stroke="none"/><text x="400" y="285" text-anchor="middle" font-size="13" fill="#333" font-family="-apple-system,BlinkMacSystemFont,sans-serif">商品资料</text><path d="M440,280 C490,280 490,240 540,240" fill="none" stroke="#DFB85D" stroke-width="2"/><rect x="540" y="225" width="104" height="30" rx="6" fill="#EFF0F0" stroke="none"/><text x="592" y="245" text-anchor="middle" font-size="13" fill="#333" font-family="-apple-system,BlinkMacSystemFont,sans-serif">门店商品资料</text><path d="M440,280 C490,280 490,280 540,280" fill="none" stroke="#DFB85D" stroke-width="2"/><rect x="540" y="265" width="110.75999999999999" height="30" rx="6" fill="#EFF0F0" stroke="none"/><text x="595.38" y="285" text-anchor="middle" font-size="13" fill="#333" font-family="-apple-system,BlinkMacSystemFont,sans-serif">商品组合/拆零</text><path d="M440,280 C490,280 490,320 540,320" fill="none" stroke="#DFB85D" stroke-width="2"/><rect x="540" y="305" width="104" height="30" rx="6" fill="#EFF0F0" stroke="none"/><text x="592" y="325" text-anchor="middle" font-size="13" fill="#333" font-family="-apple-system,BlinkMacSystemFont,sans-serif">商品价格调整</text><path d="M330.28,620 C345.14,620 345.14,400 360,400" fill="none" stroke="#DFB85D" stroke-width="2"/><rect x="360" y="385" width="80" height="30" rx="6" fill="#fafafa" stroke="none"/><text x="400" y="405" text-anchor="middle" font-size="13" fill="#333" font-family="-apple-system,BlinkMacSystemFont,sans-serif">采购场景</text><path d="M440,400 C490,400 490,360 540,360" fill="none" stroke="#DFB85D" stroke-width="2"/><rect x="540" y="345" width="80" height="30" rx="6" fill="#fafafa" stroke="none"/><text x="580" y="365" text-anchor="middle" font-size="13" fill="#333" font-family="-apple-system,BlinkMacSystemFont,sans-serif">采购入库</text><path d="M620,360 C670,360 670,360 720,360" fill="none" stroke="#DFB85D" stroke-width="2"/><rect x="720" y="345" width="156" height="30" rx="6" fill="#fafafa" stroke="none"/><text x="798" y="365" text-anchor="middle" font-size="13" fill="#333" font-family="-apple-system,BlinkMacSystemFont,sans-serif">总部推送的采购入库单</text><path d="M440,400 C490,400 490,400 540,400" fill="none" stroke="#DFB85D" stroke-width="2"/><rect x="540" y="385" width="80" height="30" rx="6" fill="#fafafa" stroke="none"/><text x="580" y="405" text-anchor="middle" font-size="13" fill="#333" font-family="-apple-system,BlinkMacSystemFont,sans-serif">采购退货</text><path d="M620,400 C670,400 670,400 720,400" fill="none" stroke="#DFB85D" stroke-width="2"/><rect x="720" y="385" width="130" height="30" rx="6" fill="#fafafa" stroke="none"/><text x="785" y="405" text-anchor="middle" font-size="13" fill="#333" font-family="-apple-system,BlinkMacSystemFont,sans-serif">从门店退货给总部</text><path d="M440,400 C490,400 490,440 540,440" fill="none" stroke="#DFB85D" stroke-width="2"/><rect x="540" y="425" width="80" height="30" rx="6" fill="#fafafa" stroke="none"/><text x="580" y="445" text-anchor="middle" font-size="13" fill="#333" font-family="-apple-system,BlinkMacSystemFont,sans-serif">要货申请</text><path d="M620,440 C670,440 670,440 720,440" fill="none" stroke="#DFB85D" stroke-width="2"/><rect x="720" y="425" width="143" height="30" rx="6" fill="#fafafa" stroke="none"/><text x="791.5" y="445" text-anchor="middle" font-size="13" fill="#333" font-family="-apple-system,BlinkMacSystemFont,sans-serif">对应总部的配货计划</text><path d="M330.28,620 C345.14,620 345.14,560 360,560" fill="none" stroke="#DFB85D" stroke-width="2"/><rect x="360" y="545" width="80" height="30" rx="6" fill="#fafafa" stroke="none"/><text x="400" y="565" text-anchor="middle" font-size="13" fill="#333" font-family="-apple-system,BlinkMacSystemFont,sans-serif">销售场景</text><path d="M440,560 C490,560 490,480 540,480" fill="none" stroke="#DFB85D" stroke-width="2"/><rect x="540" y="465" width="91" height="30" rx="6" fill="#fafafa" stroke="none"/><text x="585.5" y="485" text-anchor="middle" font-size="13" fill="#333" font-family="-apple-system,BlinkMacSystemFont,sans-serif">门店零售单</text><path d="M440,560 C490,560 490,520 540,520" fill="none" stroke="#DFB85D" stroke-width="2"/><rect x="540" y="505" width="85.28" height="30" rx="6" fill="#fafafa" stroke="none"/><text x="582.64" y="525" text-anchor="middle" font-size="13" fill="#333" font-family="-apple-system,BlinkMacSystemFont,sans-serif">门店O2O单</text><path d="M440,560 C490,560 490,560 540,560" fill="none" stroke="#DFB85D" stroke-width="2"/><rect x="540" y="545" width="91" height="30" rx="6" fill="#fafafa" stroke="none"/><text x="585.5" y="565" text-anchor="middle" font-size="13" fill="#333" font-family="-apple-system,BlinkMacSystemFont,sans-serif">零售退货单</text><path d="M440,560 C490,560 490,600 540,600" fill="none" stroke="#DFB85D" stroke-width="2"/><rect x="540" y="585" width="85.28" height="30" rx="6" fill="#fafafa" stroke="none"/><text x="582.64" y="605" text-anchor="middle" font-size="13" fill="#333" font-family="-apple-system,BlinkMacSystemFont,sans-serif">O2O退货单</text><path d="M440,560 C490,560 490,640 540,640" fill="none" stroke="#DFB85D" stroke-width="2"/><rect x="540" y="625" width="182" height="30" rx="6" fill="transparent" stroke="#BFBFBF"/><text x="631" y="645" text-anchor="middle" font-size="13" fill="#333" font-family="-apple-system,BlinkMacSystemFont,sans-serif">等后续有机会的时候再讲解</text><path d="M330.28,620 C345.14,620 345.14,840 360,840" fill="none" stroke="#DFB85D" stroke-width="2"/><rect x="360" y="825" width="80" height="30" rx="6" fill="#fafafa" stroke="none"/><text x="400" y="845" text-anchor="middle" font-size="13" fill="#333" font-family="-apple-system,BlinkMacSystemFont,sans-serif">库存</text><path d="M440,840 C490,840 490,700 540,700" fill="none" stroke="#DFB85D" stroke-width="2"/><rect x="540" y="685" width="80" height="30" rx="6" fill="#EFF0F0" stroke="none"/><text x="580" y="705" text-anchor="middle" font-size="13" fill="#333" font-family="-apple-system,BlinkMacSystemFont,sans-serif">库存查询</text><path d="M620,700 C670,700 670,680 720,680" fill="none" stroke="#DFB85D" stroke-width="2"/><rect x="720" y="665" width="117" height="30" rx="6" fill="#fafafa" stroke="none"/><text x="778.5" y="685" text-anchor="middle" font-size="13" fill="#333" font-family="-apple-system,BlinkMacSystemFont,sans-serif">门店库存的查询</text><path d="M620,700 C670,700 670,720 720,720" fill="none" stroke="#DFB85D" stroke-width="2"/><rect x="720" y="705" width="143" height="30" rx="6" fill="#fafafa" stroke="none"/><text x="791.5" y="725" text-anchor="middle" font-size="13" fill="#333" font-family="-apple-system,BlinkMacSystemFont,sans-serif">门店库存流水的查询</text><path d="M440,840 C490,840 490,780 540,780" fill="none" stroke="#DFB85D" stroke-width="2"/><rect x="540" y="765" width="80" height="30" rx="6" fill="#EFF0F0" stroke="none"/><text x="580" y="785" text-anchor="middle" font-size="13" fill="#333" font-family="-apple-system,BlinkMacSystemFont,sans-serif">调拨单</text><path d="M620,780 C670,780 670,760 720,760" fill="none" stroke="#DFB85D" stroke-width="2"/><rect x="720" y="745" width="117" height="30" rx="6" fill="#fafafa" stroke="none"/><text x="778.5" y="765" text-anchor="middle" font-size="13" fill="#333" font-family="-apple-system,BlinkMacSystemFont,sans-serif">仓库直接的调拨</text><path d="M620,780 C670,780 670,800 720,800" fill="none" stroke="#DFB85D" stroke-width="2"/><rect x="720" y="785" width="117" height="30" rx="6" fill="#fafafa" stroke="none"/><text x="778.5" y="805" text-anchor="middle" font-size="13" fill="#333" font-family="-apple-system,BlinkMacSystemFont,sans-serif">门店之间的调拨</text><path d="M440,840 C490,840 490,840 540,840" fill="none" stroke="#DFB85D" stroke-width="2"/><rect x="540" y="825" width="104" height="30" rx="6" fill="#EFF0F0" stroke="none"/><text x="592" y="845" text-anchor="middle" font-size="13" fill="#333" font-family="-apple-system,BlinkMacSystemFont,sans-serif">其他出入库单</text><path d="M644,840 C682,840 682,840 720,840" fill="none" stroke="#DFB85D" stroke-width="2"/><rect x="720" y="825" width="156" height="30" rx="6" fill="#fafafa" stroke="none"/><text x="798" y="845" text-anchor="middle" font-size="13" fill="#333" font-family="-apple-system,BlinkMacSystemFont,sans-serif">门店库存的增加和扣减</text><path d="M440,840 C490,840 490,880 540,880" fill="none" stroke="#DFB85D" stroke-width="2"/><rect x="540" y="865" width="80" height="30" rx="6" fill="#EFF0F0" stroke="none"/><text x="580" y="885" text-anchor="middle" font-size="13" fill="#333" font-family="-apple-system,BlinkMacSystemFont,sans-serif">盘盈亏单</text><path d="M620,880 C670,880 670,880 720,880" fill="none" stroke="#DFB85D" stroke-width="2"/><rect x="720" y="865" width="156" height="30" rx="6" fill="#EFF0F0" stroke="none"/><text x="798" y="885" text-anchor="middle" font-size="13" fill="#333" font-family="-apple-system,BlinkMacSystemFont,sans-serif">门店库存的增加和扣减</text><path d="M440,840 C490,840 490,960 540,960" fill="none" stroke="#DFB85D" stroke-width="2"/><rect x="540" y="945" width="80" height="30" rx="6" fill="#EFF0F0" stroke="none"/><text x="580" y="965" text-anchor="middle" font-size="13" fill="#333" font-family="-apple-system,BlinkMacSystemFont,sans-serif">组合拆零</text><path d="M620,960 C670,960 670,920 720,920" fill="none" stroke="#DFB85D" stroke-width="2"/><rect x="720" y="905" width="182" height="30" rx="6" fill="#EFF0F0" stroke="none"/><text x="811" y="925" text-anchor="middle" font-size="13" fill="#333" font-family="-apple-system,BlinkMacSystemFont,sans-serif">对商品的库存形态进行转化</text><path d="M620,960 C670,960 670,960 720,960" fill="none" stroke="#DFB85D" stroke-width="2"/><rect x="720" y="945" width="91" height="30" rx="6" fill="#EFF0F0" stroke="none"/><text x="765.5" y="965" text-anchor="middle" font-size="13" fill="#333" font-family="-apple-system,BlinkMacSystemFont,sans-serif">整拆零销售</text><path d="M620,960 C670,960 670,1000 720,1000" fill="none" stroke="#DFB85D" stroke-width="2"/><rect x="720" y="985" width="91" height="30" rx="6" fill="#EFF0F0" stroke="none"/><text x="765.5" y="1005" text-anchor="middle" font-size="13" fill="#333" font-family="-apple-system,BlinkMacSystemFont,sans-serif">零合整销售</text>
</svg>