<svg xmlns="http://www.w3.org/2000/svg" xmlns:xlink="http://www.w3.org/1999/xlink"
  viewBox="-278.98 -107.25 1103.48 718" width="1103.48" height="718"
  style="background:#fff; font-family:-apple-system,BlinkMacSystemFont,'Segoe UI',Roboto,sans-serif;">
<defs></defs>
<rect x="-278.98" y="-107.25" width="1103.48" height="718" fill="#fff"/>
<rect x="-194.98000000000002" y="193.75" width="144.96" height="36" rx="8" fill="#EFF0F0" stroke="none"/><text x="-122.5" y="217.75" text-anchor="middle" font-size="16" font-weight="bold" fill="#333" font-family="-apple-system,BlinkMacSystemFont,sans-serif">BMS的一些内容</text><path d="M-50.019999999999996,211.75 C39.980000000000004,211.75 39.980000000000004,-8.25 129.98000000000002,-8.25" fill="none" stroke="#A287E1" stroke-width="2"/><rect x="57.5" y="-23.25" width="553.28" height="30" rx="6" fill="#fafafa" stroke="none"/><text x="334.14" y="-3.25" text-anchor="middle" font-size="13" fill="#333" font-family="-apple-system,BlinkMacSystemFont,sans-serif">费用结算管理系统，不同的业务场景，要计费的内容不一样，FMS的模块也会有很大的不一样</text><path d="M-50.019999999999996,211.75 C39.980000000000004,211.75 39.980000000000004,231.75 129.98000000000002,231.75" fill="none" stroke="#6F81DB" stroke-width="2"/><rect x="57.5" y="216.75" width="80" height="30" rx="6" fill="#fafafa" stroke="none"/><text x="97.5" y="236.75" text-anchor="middle" font-size="13" fill="#333" font-family="-apple-system,BlinkMacSystemFont,sans-serif">主要模块</text><path d="M137.5,231.75 C187.5,231.75 187.5,91.75 237.5,91.75" fill="none" stroke="#6F81DB" stroke-width="2"/><rect x="237.5" y="76.75" width="80" height="30" rx="6" fill="#fafafa" stroke="none"/><text x="277.5" y="96.75" text-anchor="middle" font-size="13" fill="#333" font-family="-apple-system,BlinkMacSystemFont,sans-serif">报价规则</text><path d="M317.5,91.75 C367.5,91.75 367.5,71.75 417.5,71.75" fill="none" stroke="#6F81DB" stroke-width="2"/><rect x="417.5" y="56.75" width="91" height="30" rx="6" fill="#fafafa" stroke="none"/><text x="463" y="76.75" text-anchor="middle" font-size="13" fill="#333" font-family="-apple-system,BlinkMacSystemFont,sans-serif">应收的规则</text><path d="M508.5,71.75 C553,71.75 553,31.75 597.5,31.75" fill="none" stroke="#6F81DB" stroke-width="2"/><rect x="597.5" y="16.75" width="91" height="30" rx="6" fill="#EFF0F0" stroke="none"/><text x="643" y="36.75" text-anchor="middle" font-size="13" fill="#333" font-family="-apple-system,BlinkMacSystemFont,sans-serif">费用项管理</text><path d="M508.5,71.75 C553,71.75 553,71.75 597.5,71.75" fill="none" stroke="#6F81DB" stroke-width="2"/><rect x="597.5" y="56.75" width="143" height="30" rx="6" fill="#EFF0F0" stroke="none"/><text x="669" y="76.75" text-anchor="middle" font-size="13" fill="#333" font-family="-apple-system,BlinkMacSystemFont,sans-serif">各模块计费规则维护</text><path d="M508.5,71.75 C553,71.75 553,111.75 597.5,111.75" fill="none" stroke="#6F81DB" stroke-width="2"/><rect x="597.5" y="96.75" width="104" height="30" rx="6" fill="#EFF0F0" stroke="none"/><text x="649.5" y="116.75" text-anchor="middle" font-size="13" fill="#333" font-family="-apple-system,BlinkMacSystemFont,sans-serif">客户报价方案</text><path d="M317.5,91.75 C367.5,91.75 367.5,151.75 417.5,151.75" fill="none" stroke="#6F81DB" stroke-width="2"/><rect x="417.5" y="136.75" width="91" height="30" rx="6" fill="#fafafa" stroke="none"/><text x="463" y="156.75" text-anchor="middle" font-size="13" fill="#333" font-family="-apple-system,BlinkMacSystemFont,sans-serif">应付的规则</text><path d="M508.5,151.75 C553,151.75 553,151.75 597.5,151.75" fill="none" stroke="#6F81DB" stroke-width="2"/><rect x="597.5" y="136.75" width="80" height="30" rx="6" fill="#fafafa" stroke="none"/><text x="637.5" y="156.75" text-anchor="middle" font-size="13" fill="#333" font-family="-apple-system,BlinkMacSystemFont,sans-serif">……</text><path d="M137.5,231.75 C187.5,231.75 187.5,271.75 237.5,271.75" fill="none" stroke="#6F81DB" stroke-width="2"/><rect x="237.5" y="256.75" width="80" height="30" rx="6" fill="#fafafa" stroke="none"/><text x="277.5" y="276.75" text-anchor="middle" font-size="13" fill="#333" font-family="-apple-system,BlinkMacSystemFont,sans-serif">应收计费</text><path d="M317.5,271.75 C367.5,271.75 367.5,191.75 417.5,191.75" fill="none" stroke="#6F81DB" stroke-width="2"/><rect x="417.5" y="176.75" width="104" height="30" rx="6" fill="#fafafa" stroke="none"/><text x="469.5" y="196.75" text-anchor="middle" font-size="13" fill="#333" font-family="-apple-system,BlinkMacSystemFont,sans-serif">应收费用结算</text><path d="M317.5,271.75 C367.5,271.75 367.5,291.75 417.5,291.75" fill="none" stroke="#6F81DB" stroke-width="2"/><rect x="417.5" y="276.75" width="80" height="30" rx="6" fill="#fafafa" stroke="none"/><text x="457.5" y="296.75" text-anchor="middle" font-size="13" fill="#333" font-family="-apple-system,BlinkMacSystemFont,sans-serif">对账</text><path d="M497.5,291.75 C547.5,291.75 547.5,231.75 597.5,231.75" fill="none" stroke="#6F81DB" stroke-width="2"/><rect x="597.5" y="216.75" width="104" height="30" rx="6" fill="#fafafa" stroke="none"/><text x="649.5" y="236.75" text-anchor="middle" font-size="13" fill="#333" font-family="-apple-system,BlinkMacSystemFont,sans-serif">仓储费用核对</text><path d="M497.5,291.75 C547.5,291.75 547.5,271.75 597.5,271.75" fill="none" stroke="#6F81DB" stroke-width="2"/><rect x="597.5" y="256.75" width="91" height="30" rx="6" fill="#fafafa" stroke="none"/><text x="643" y="276.75" text-anchor="middle" font-size="13" fill="#333" font-family="-apple-system,BlinkMacSystemFont,sans-serif">物流费核对</text><path d="M497.5,291.75 C547.5,291.75 547.5,311.75 597.5,311.75" fill="none" stroke="#6F81DB" stroke-width="2"/><rect x="597.5" y="296.75" width="91" height="30" rx="6" fill="#fafafa" stroke="none"/><text x="643" y="316.75" text-anchor="middle" font-size="13" fill="#333" font-family="-apple-system,BlinkMacSystemFont,sans-serif">操作费核对</text><path d="M497.5,291.75 C547.5,291.75 547.5,351.75 597.5,351.75" fill="none" stroke="#6F81DB" stroke-width="2"/><rect x="597.5" y="336.75" width="80" height="30" rx="6" fill="#fafafa" stroke="none"/><text x="637.5" y="356.75" text-anchor="middle" font-size="13" fill="#333" font-family="-apple-system,BlinkMacSystemFont,sans-serif">……</text><path d="M137.5,231.75 C187.5,231.75 187.5,411.75 237.5,411.75" fill="none" stroke="#6F81DB" stroke-width="2"/><rect x="237.5" y="396.75" width="80" height="30" rx="6" fill="#fafafa" stroke="none"/><text x="277.5" y="416.75" text-anchor="middle" font-size="13" fill="#333" font-family="-apple-system,BlinkMacSystemFont,sans-serif">应付计费</text><path d="M317.5,411.75 C367.5,411.75 367.5,391.75 417.5,391.75" fill="none" stroke="#6F81DB" stroke-width="2"/><rect x="417.5" y="376.75" width="104" height="30" rx="6" fill="#fafafa" stroke="none"/><text x="469.5" y="396.75" text-anchor="middle" font-size="13" fill="#333" font-family="-apple-system,BlinkMacSystemFont,sans-serif">应付费用结算</text><path d="M317.5,411.75 C367.5,411.75 367.5,431.75 417.5,431.75" fill="none" stroke="#6F81DB" stroke-width="2"/><rect x="417.5" y="416.75" width="80" height="30" rx="6" fill="#fafafa" stroke="none"/><text x="457.5" y="436.75" text-anchor="middle" font-size="13" fill="#333" font-family="-apple-system,BlinkMacSystemFont,sans-serif">对账</text><path d="M497.5,431.75 C547.5,431.75 547.5,431.75 597.5,431.75" fill="none" stroke="#6F81DB" stroke-width="2"/><rect x="597.5" y="416.75" width="80" height="30" rx="6" fill="#fafafa" stroke="none"/><text x="637.5" y="436.75" text-anchor="middle" font-size="13" fill="#333" font-family="-apple-system,BlinkMacSystemFont,sans-serif">……</text>
</svg>