<svg xmlns="http://www.w3.org/2000/svg" xmlns:xlink="http://www.w3.org/1999/xlink"
  viewBox="-172.48000000000002 -1579 1913 3158" width="1913" height="3158"
  style="background:#fff; font-family:-apple-system,BlinkMacSystemFont,'Segoe UI',Roboto,sans-serif;">
<defs></defs>
<rect x="-172.48000000000002" y="-1579" width="1913" height="3158" fill="#fff"/>
<rect x="-88.48" y="-18" width="176.96" height="36" rx="8" fill="#EFF0F0" stroke="none"/><text x="0" y="6" text-anchor="middle" font-size="16" font-weight="bold" fill="#333" font-family="-apple-system,BlinkMacSystemFont,sans-serif">SRM中的珍珠和奶茶</text><path d="M88.48,0 C178.48000000000002,0 178.48000000000002,-560 268.48,-560" fill="none" stroke="#DFB85D" stroke-width="2"/><rect x="180" y="-575" width="163.28000000000003" height="30" rx="6" fill="#fafafa" stroke="none"/><text x="261.64" y="-555" text-anchor="middle" font-size="13" fill="#333" font-family="-apple-system,BlinkMacSystemFont,sans-serif">采购管理端（SRM后台）</text><path d="M343.28000000000003,-560 C351.64,-560 351.64,-1280 360,-1280" fill="none" stroke="#DFB85D" stroke-width="2"/><rect x="360" y="-1295" width="91" height="30" rx="6" fill="#fafafa" stroke="none"/><text x="405.5" y="-1275" text-anchor="middle" font-size="13" fill="#333" font-family="-apple-system,BlinkMacSystemFont,sans-serif">供应商管理</text><path d="M451,-1280 C495.5,-1280 495.5,-1420 540,-1420" fill="none" stroke="#DFB85D" stroke-width="2"/><rect x="540" y="-1435" width="143" height="30" rx="6" fill="#fafafa" stroke="none"/><text x="611.5" y="-1415" text-anchor="middle" font-size="13" fill="#333" font-family="-apple-system,BlinkMacSystemFont,sans-serif">相关业务和场景介绍</text><path d="M683,-1420 C701.5,-1420 701.5,-1480 720,-1480" fill="none" stroke="#DFB85D" stroke-width="2"/><rect x="720" y="-1495" width="286.52" height="30" rx="6" fill="#fafafa" stroke="none"/><text x="863.26" y="-1475" text-anchor="middle" font-size="13" fill="#333" font-family="-apple-system,BlinkMacSystemFont,sans-serif">1.供应商可以邀请注册，也可以后台协助注册</text><path d="M683,-1420 C701.5,-1420 701.5,-1440 720,-1440" fill="none" stroke="#DFB85D" stroke-width="2"/><rect x="720" y="-1455" width="403.52" height="30" rx="6" fill="#fafafa" stroke="none"/><text x="921.76" y="-1435" text-anchor="middle" font-size="13" fill="#333" font-family="-apple-system,BlinkMacSystemFont,sans-serif">2.供应商注册后需要填写详细的信息，上传一些资质、认证信息等</text><path d="M683,-1420 C701.5,-1420 701.5,-1400 720,-1400" fill="none" stroke="#DFB85D" stroke-width="2"/><rect x="720" y="-1415" width="455.52" height="30" rx="6" fill="#fafafa" stroke="none"/><text x="947.76" y="-1395" text-anchor="middle" font-size="13" fill="#333" font-family="-apple-system,BlinkMacSystemFont,sans-serif">3.采购方需要及时审核供应商的信息，与之签订合同，使其成为合格供应商</text><path d="M683,-1420 C701.5,-1420 701.5,-1360 720,-1360" fill="none" stroke="#DFB85D" stroke-width="2"/><rect x="720" y="-1375" width="507.52" height="30" rx="6" fill="#fafafa" stroke="none"/><text x="973.76" y="-1355" text-anchor="middle" font-size="13" fill="#333" font-family="-apple-system,BlinkMacSystemFont,sans-serif">4.供应商引入之后需要对其进行考核，打分，评级，根据绩效情况确认是否继续合作</text><path d="M451,-1280 C495.5,-1280 495.5,-1200 540,-1200" fill="none" stroke="#DFB85D" stroke-width="2"/><rect x="540" y="-1215" width="80" height="30" rx="6" fill="#fafafa" stroke="none"/><text x="580" y="-1195" text-anchor="middle" font-size="13" fill="#333" font-family="-apple-system,BlinkMacSystemFont,sans-serif">功能清单</text><path d="M620,-1200 C670,-1200 670,-1320 720,-1320" fill="none" stroke="#DFB85D" stroke-width="2"/><rect x="720" y="-1335" width="91" height="30" rx="6" fill="#fafafa" stroke="none"/><text x="765.5" y="-1315" text-anchor="middle" font-size="13" fill="#333" font-family="-apple-system,BlinkMacSystemFont,sans-serif">供应商注册</text><path d="M620,-1200 C670,-1200 670,-1280 720,-1280" fill="none" stroke="#DFB85D" stroke-width="2"/><rect x="720" y="-1295" width="91" height="30" rx="6" fill="#fafafa" stroke="none"/><text x="765.5" y="-1275" text-anchor="middle" font-size="13" fill="#333" font-family="-apple-system,BlinkMacSystemFont,sans-serif">供应商准入</text><path d="M620,-1200 C670,-1200 670,-1240 720,-1240" fill="none" stroke="#DFB85D" stroke-width="2"/><rect x="720" y="-1255" width="91" height="30" rx="6" fill="#fafafa" stroke="none"/><text x="765.5" y="-1235" text-anchor="middle" font-size="13" fill="#333" font-family="-apple-system,BlinkMacSystemFont,sans-serif">供应商认证</text><path d="M811,-1240 C855.5,-1240 855.5,-1240 900,-1240" fill="none" stroke="#DFB85D" stroke-width="2"/><rect x="900" y="-1255" width="80" height="30" rx="6" fill="#EFF0F0" stroke="none"/><text x="940" y="-1235" text-anchor="middle" font-size="13" fill="#333" font-family="-apple-system,BlinkMacSystemFont,sans-serif">可选</text><path d="M620,-1200 C670,-1200 670,-1180 720,-1180" fill="none" stroke="#DFB85D" stroke-width="2"/><rect x="720" y="-1195" width="117" height="30" rx="6" fill="#fafafa" stroke="none"/><text x="778.5" y="-1175" text-anchor="middle" font-size="13" fill="#333" font-family="-apple-system,BlinkMacSystemFont,sans-serif">供应商绩效考核</text><path d="M837,-1180 C868.5,-1180 868.5,-1200 900,-1200" fill="none" stroke="#DFB85D" stroke-width="2"/><rect x="900" y="-1215" width="80" height="30" rx="6" fill="#fafafa" stroke="none"/><text x="940" y="-1195" text-anchor="middle" font-size="13" fill="#333" font-family="-apple-system,BlinkMacSystemFont,sans-serif">考核机制</text><path d="M980,-1200 C1030,-1200 1030,-1200 1080,-1200" fill="none" stroke="#DFB85D" stroke-width="2"/><rect x="1080" y="-1215" width="80" height="30" rx="6" fill="#EFF0F0" stroke="none"/><text x="1120" y="-1195" text-anchor="middle" font-size="13" fill="#333" font-family="-apple-system,BlinkMacSystemFont,sans-serif">可选</text><path d="M837,-1180 C868.5,-1180 868.5,-1160 900,-1160" fill="none" stroke="#DFB85D" stroke-width="2"/><rect x="900" y="-1175" width="91" height="30" rx="6" fill="#fafafa" stroke="none"/><text x="945.5" y="-1155" text-anchor="middle" font-size="13" fill="#333" font-family="-apple-system,BlinkMacSystemFont,sans-serif">供应商得分</text><path d="M991,-1160 C1035.5,-1160 1035.5,-1160 1080,-1160" fill="none" stroke="#DFB85D" stroke-width="2"/><rect x="1080" y="-1175" width="80" height="30" rx="6" fill="#EFF0F0" stroke="none"/><text x="1120" y="-1155" text-anchor="middle" font-size="13" fill="#333" font-family="-apple-system,BlinkMacSystemFont,sans-serif">可选</text><path d="M620,-1200 C670,-1200 670,-1120 720,-1120" fill="none" stroke="#DFB85D" stroke-width="2"/><rect x="720" y="-1135" width="91" height="30" rx="6" fill="#fafafa" stroke="none"/><text x="765.5" y="-1115" text-anchor="middle" font-size="13" fill="#333" font-family="-apple-system,BlinkMacSystemFont,sans-serif">供应商变更</text><path d="M620,-1200 C670,-1200 670,-1080 720,-1080" fill="none" stroke="#DFB85D" stroke-width="2"/><rect x="720" y="-1095" width="117" height="30" rx="6" fill="#fafafa" stroke="none"/><text x="778.5" y="-1075" text-anchor="middle" font-size="13" fill="#333" font-family="-apple-system,BlinkMacSystemFont,sans-serif">供应商风险警示</text><path d="M837,-1080 C868.5,-1080 868.5,-1080 900,-1080" fill="none" stroke="#DFB85D" stroke-width="2"/><rect x="900" y="-1095" width="80" height="30" rx="6" fill="#fafafa" stroke="none"/><text x="940" y="-1075" text-anchor="middle" font-size="13" fill="#333" font-family="-apple-system,BlinkMacSystemFont,sans-serif">可选</text><path d="M343.28000000000003,-560 C351.64,-560 351.64,-860 360,-860" fill="none" stroke="#DFB85D" stroke-width="2"/><rect x="360" y="-875" width="80" height="30" rx="6" fill="#fafafa" stroke="none"/><text x="400" y="-855" text-anchor="middle" font-size="13" fill="#333" font-family="-apple-system,BlinkMacSystemFont,sans-serif">采购寻源</text><path d="M440,-860 C490,-860 490,-960 540,-960" fill="none" stroke="#DFB85D" stroke-width="2"/><rect x="540" y="-975" width="143" height="30" rx="6" fill="#fafafa" stroke="none"/><text x="611.5" y="-955" text-anchor="middle" font-size="13" fill="#333" font-family="-apple-system,BlinkMacSystemFont,sans-serif">相关业务和场景介绍</text><path d="M683,-960 C701.5,-960 701.5,-1040 720,-1040" fill="none" stroke="#DFB85D" stroke-width="2"/><rect x="720" y="-1055" width="871.52" height="30" rx="6" fill="#fafafa" stroke="none"/><text x="1155.76" y="-1035" text-anchor="middle" font-size="13" fill="#333" font-family="-apple-system,BlinkMacSystemFont,sans-serif">1.当要采购一个新的商品的时候，要知道哪个供应商可以供货？需要寻找供应商、收集供应商信息、对供应商做出评价、拟定采购策略和确定供应商</text><path d="M1591.52,-1040 C1245.76,-1040 1245.76,-1040 900,-1040" fill="none" stroke="#DFB85D" stroke-width="2"/><rect x="900" y="-1055" width="91" height="30" rx="6" fill="#fafafa" stroke="none"/><text x="945.5" y="-1035" text-anchor="middle" font-size="13" fill="#333" font-family="-apple-system,BlinkMacSystemFont,sans-serif">招投标管理</text><path d="M683,-960 C701.5,-960 701.5,-960 720,-960" fill="none" stroke="#DFB85D" stroke-width="2"/><rect x="720" y="-975" width="702.52" height="30" rx="6" fill="#fafafa" stroke="none"/><text x="1071.26" y="-955" text-anchor="middle" font-size="13" fill="#333" font-family="-apple-system,BlinkMacSystemFont,sans-serif">2.当知道了某个商品可以有多个供应商进行供货之后，又需要进一步确认到底用哪个供应商？哪个供应商才能满足需求</text><path d="M1422.52,-960 C1161.26,-960 1161.26,-1000 900,-1000" fill="none" stroke="#DFB85D" stroke-width="2"/><rect x="900" y="-1015" width="91" height="30" rx="6" fill="#fafafa" stroke="none"/><text x="945.5" y="-995" text-anchor="middle" font-size="13" fill="#333" font-family="-apple-system,BlinkMacSystemFont,sans-serif">询比价管理</text><path d="M1422.52,-960 C1161.26,-960 1161.26,-960 900,-960" fill="none" stroke="#DFB85D" stroke-width="2"/><rect x="900" y="-975" width="91" height="30" rx="6" fill="#fafafa" stroke="none"/><text x="945.5" y="-955" text-anchor="middle" font-size="13" fill="#333" font-family="-apple-system,BlinkMacSystemFont,sans-serif">询竞价管理</text><path d="M1422.52,-960 C1161.26,-960 1161.26,-920 900,-920" fill="none" stroke="#DFB85D" stroke-width="2"/><rect x="900" y="-935" width="91" height="30" rx="6" fill="#fafafa" stroke="none"/><text x="945.5" y="-915" text-anchor="middle" font-size="13" fill="#333" font-family="-apple-system,BlinkMacSystemFont,sans-serif">竞争性谈判</text><path d="M683,-960 C701.5,-960 701.5,-880 720,-880" fill="none" stroke="#DFB85D" stroke-width="2"/><rect x="720" y="-895" width="533.52" height="30" rx="6" fill="#fafafa" stroke="none"/><text x="986.76" y="-875" text-anchor="middle" font-size="13" fill="#333" font-family="-apple-system,BlinkMacSystemFont,sans-serif">3.供应商确认好了之后，则需要与其签订合同，可能是一次性合同，也可能是长期性合同</text><path d="M440,-860 C490,-860 490,-760 540,-760" fill="none" stroke="#DFB85D" stroke-width="2"/><rect x="540" y="-775" width="80" height="30" rx="6" fill="#fafafa" stroke="none"/><text x="580" y="-755" text-anchor="middle" font-size="13" fill="#333" font-family="-apple-system,BlinkMacSystemFont,sans-serif">功能清单</text><path d="M620,-760 C670,-760 670,-840 720,-840" fill="none" stroke="#DFB85D" stroke-width="2"/><rect x="720" y="-855" width="91" height="30" rx="6" fill="#fafafa" stroke="none"/><text x="765.5" y="-835" text-anchor="middle" font-size="13" fill="#333" font-family="-apple-system,BlinkMacSystemFont,sans-serif">招投标管理</text><path d="M811,-840 C855.5,-840 855.5,-840 900,-840" fill="none" stroke="#DFB85D" stroke-width="2"/><rect x="900" y="-855" width="80" height="30" rx="6" fill="#EFF0F0" stroke="none"/><text x="940" y="-835" text-anchor="middle" font-size="13" fill="#333" font-family="-apple-system,BlinkMacSystemFont,sans-serif">可选</text><path d="M620,-760 C670,-760 670,-800 720,-800" fill="none" stroke="#DFB85D" stroke-width="2"/><rect x="720" y="-815" width="91" height="30" rx="6" fill="#fafafa" stroke="none"/><text x="765.5" y="-795" text-anchor="middle" font-size="13" fill="#333" font-family="-apple-system,BlinkMacSystemFont,sans-serif">询比价管理</text><path d="M811,-800 C855.5,-800 855.5,-800 900,-800" fill="none" stroke="#DFB85D" stroke-width="2"/><rect x="900" y="-815" width="80" height="30" rx="6" fill="#EFF0F0" stroke="none"/><text x="940" y="-795" text-anchor="middle" font-size="13" fill="#333" font-family="-apple-system,BlinkMacSystemFont,sans-serif">可选</text><path d="M620,-760 C670,-760 670,-760 720,-760" fill="none" stroke="#DFB85D" stroke-width="2"/><rect x="720" y="-775" width="91" height="30" rx="6" fill="#fafafa" stroke="none"/><text x="765.5" y="-755" text-anchor="middle" font-size="13" fill="#333" font-family="-apple-system,BlinkMacSystemFont,sans-serif">询竞价管理</text><path d="M811,-760 C855.5,-760 855.5,-760 900,-760" fill="none" stroke="#DFB85D" stroke-width="2"/><rect x="900" y="-775" width="80" height="30" rx="6" fill="#EFF0F0" stroke="none"/><text x="940" y="-755" text-anchor="middle" font-size="13" fill="#333" font-family="-apple-system,BlinkMacSystemFont,sans-serif">可选</text><path d="M620,-760 C670,-760 670,-720 720,-720" fill="none" stroke="#DFB85D" stroke-width="2"/><rect x="720" y="-735" width="91" height="30" rx="6" fill="#fafafa" stroke="none"/><text x="765.5" y="-715" text-anchor="middle" font-size="13" fill="#333" font-family="-apple-system,BlinkMacSystemFont,sans-serif">合同模板库</text><path d="M620,-760 C670,-760 670,-680 720,-680" fill="none" stroke="#DFB85D" stroke-width="2"/><rect x="720" y="-695" width="104" height="30" rx="6" fill="#fafafa" stroke="none"/><text x="772" y="-675" text-anchor="middle" font-size="13" fill="#333" font-family="-apple-system,BlinkMacSystemFont,sans-serif">采购合同管理</text><path d="M343.28000000000003,-560 C351.64,-560 351.64,-460 360,-460" fill="none" stroke="#DFB85D" stroke-width="2"/><rect x="360" y="-475" width="80" height="30" rx="6" fill="#fafafa" stroke="none"/><text x="400" y="-455" text-anchor="middle" font-size="13" fill="#333" font-family="-apple-system,BlinkMacSystemFont,sans-serif">采购管理</text><path d="M440,-460 C490,-460 490,-560 540,-560" fill="none" stroke="#DFB85D" stroke-width="2"/><rect x="540" y="-575" width="143" height="30" rx="6" fill="#fafafa" stroke="none"/><text x="611.5" y="-555" text-anchor="middle" font-size="13" fill="#333" font-family="-apple-system,BlinkMacSystemFont,sans-serif">相关业务和场景介绍</text><path d="M683,-560 C701.5,-560 701.5,-640 720,-640" fill="none" stroke="#DFB85D" stroke-width="2"/><rect x="720" y="-655" width="585.52" height="30" rx="6" fill="#fafafa" stroke="none"/><text x="1012.76" y="-635" text-anchor="middle" font-size="13" fill="#333" font-family="-apple-system,BlinkMacSystemFont,sans-serif">1.不同的部门都会有自己的采购需求，但是采购可能是集中采购的，所以需要先统计汇总采购需求</text><path d="M683,-560 C701.5,-560 701.5,-600 720,-600" fill="none" stroke="#DFB85D" stroke-width="2"/><rect x="720" y="-615" width="598.52" height="30" rx="6" fill="#fafafa" stroke="none"/><text x="1019.26" y="-595" text-anchor="middle" font-size="13" fill="#333" font-family="-apple-system,BlinkMacSystemFont,sans-serif">2.采购需求汇总之后就可以去寻源确定供应商了，如果供应商确认好了之后就可以直接下采购订单了</text><path d="M683,-560 C701.5,-560 701.5,-560 720,-560" fill="none" stroke="#DFB85D" stroke-width="2"/><rect x="720" y="-575" width="689.52" height="30" rx="6" fill="#fafafa" stroke="none"/><text x="1064.76" y="-555" text-anchor="middle" font-size="13" fill="#333" font-family="-apple-system,BlinkMacSystemFont,sans-serif">3.采购订单给到了供应商之后需要等待供应商的确认，是否能按期，按量履约，供应数量确认之后就会反馈给到采购</text><path d="M683,-560 C701.5,-560 701.5,-520 720,-520" fill="none" stroke="#DFB85D" stroke-width="2"/><rect x="720" y="-535" width="624.52" height="30" rx="6" fill="#fafafa" stroke="none"/><text x="1032.26" y="-515" text-anchor="middle" font-size="13" fill="#333" font-family="-apple-system,BlinkMacSystemFont,sans-serif">4.供应商发货之后，采购可以跟进发货的情况，什么时候到，到哪里了，同时也将相关的信息推送给仓库</text><path d="M683,-560 C701.5,-560 701.5,-480 720,-480" fill="none" stroke="#DFB85D" stroke-width="2"/><rect x="720" y="-495" width="410.79999999999995" height="30" rx="6" fill="#fafafa" stroke="none"/><text x="925.4" y="-475" text-anchor="middle" font-size="13" fill="#333" font-family="-apple-system,BlinkMacSystemFont,sans-serif">5.仓库确认收货之后会反馈入库的库存数量，SRM更新入库单的数量</text><path d="M440,-460 C490,-460 490,-360 540,-360" fill="none" stroke="#DFB85D" stroke-width="2"/><rect x="540" y="-375" width="80" height="30" rx="6" fill="#fafafa" stroke="none"/><text x="580" y="-355" text-anchor="middle" font-size="13" fill="#333" font-family="-apple-system,BlinkMacSystemFont,sans-serif">功能清单</text><path d="M620,-360 C670,-360 670,-440 720,-440" fill="none" stroke="#DFB85D" stroke-width="2"/><rect x="720" y="-455" width="80" height="30" rx="6" fill="#fafafa" stroke="none"/><text x="760" y="-435" text-anchor="middle" font-size="13" fill="#333" font-family="-apple-system,BlinkMacSystemFont,sans-serif">采购需求</text><path d="M620,-360 C670,-360 670,-400 720,-400" fill="none" stroke="#DFB85D" stroke-width="2"/><rect x="720" y="-415" width="80" height="30" rx="6" fill="#fafafa" stroke="none"/><text x="760" y="-395" text-anchor="middle" font-size="13" fill="#333" font-family="-apple-system,BlinkMacSystemFont,sans-serif">采购订单</text><path d="M620,-360 C670,-360 670,-360 720,-360" fill="none" stroke="#DFB85D" stroke-width="2"/><rect x="720" y="-375" width="117" height="30" rx="6" fill="#fafafa" stroke="none"/><text x="778.5" y="-355" text-anchor="middle" font-size="13" fill="#333" font-family="-apple-system,BlinkMacSystemFont,sans-serif">采购确认与发货</text><path d="M837,-360 C868.5,-360 868.5,-360 900,-360" fill="none" stroke="#DFB85D" stroke-width="2"/><rect x="900" y="-375" width="80" height="30" rx="6" fill="#EFF0F0" stroke="none"/><text x="940" y="-355" text-anchor="middle" font-size="13" fill="#333" font-family="-apple-system,BlinkMacSystemFont,sans-serif">可选</text><path d="M620,-360 C670,-360 670,-320 720,-320" fill="none" stroke="#DFB85D" stroke-width="2"/><rect x="720" y="-335" width="80" height="30" rx="6" fill="#fafafa" stroke="none"/><text x="760" y="-315" text-anchor="middle" font-size="13" fill="#333" font-family="-apple-system,BlinkMacSystemFont,sans-serif">采购入库</text><path d="M620,-360 C670,-360 670,-280 720,-280" fill="none" stroke="#DFB85D" stroke-width="2"/><rect x="720" y="-295" width="80" height="30" rx="6" fill="#fafafa" stroke="none"/><text x="760" y="-275" text-anchor="middle" font-size="13" fill="#333" font-family="-apple-system,BlinkMacSystemFont,sans-serif">采购退货</text><path d="M343.28000000000003,-560 C351.64,-560 351.64,-120 360,-120" fill="none" stroke="#DFB85D" stroke-width="2"/><rect x="360" y="-135" width="80" height="30" rx="6" fill="#fafafa" stroke="none"/><text x="400" y="-115" text-anchor="middle" font-size="13" fill="#333" font-family="-apple-system,BlinkMacSystemFont,sans-serif">采购结算</text><path d="M440,-120 C490,-120 490,-200 540,-200" fill="none" stroke="#DFB85D" stroke-width="2"/><rect x="540" y="-215" width="143" height="30" rx="6" fill="#EFF0F0" stroke="none"/><text x="611.5" y="-195" text-anchor="middle" font-size="13" fill="#333" font-family="-apple-system,BlinkMacSystemFont,sans-serif">相关业务和场景介绍</text><path d="M683,-200 C701.5,-200 701.5,-240 720,-240" fill="none" stroke="#DFB85D" stroke-width="2"/><rect x="720" y="-255" width="312.52" height="30" rx="6" fill="#EFF0F0" stroke="none"/><text x="876.26" y="-235" text-anchor="middle" font-size="13" fill="#333" font-family="-apple-system,BlinkMacSystemFont,sans-serif">1.和供应商采购，肯定是会有采购价格的结算场景</text><path d="M683,-200 C701.5,-200 701.5,-200 720,-200" fill="none" stroke="#DFB85D" stroke-width="2"/><rect x="720" y="-215" width="442.52" height="30" rx="6" fill="#EFF0F0" stroke="none"/><text x="941.26" y="-195" text-anchor="middle" font-size="13" fill="#333" font-family="-apple-system,BlinkMacSystemFont,sans-serif">2.采购对账，对账后还需要结算，生成对应的对账单，付款单，核销单等</text><path d="M683,-200 C701.5,-200 701.5,-160 720,-160" fill="none" stroke="#DFB85D" stroke-width="2"/><rect x="720" y="-175" width="481.52" height="30" rx="6" fill="#EFF0F0" stroke="none"/><text x="960.76" y="-155" text-anchor="middle" font-size="13" fill="#333" font-family="-apple-system,BlinkMacSystemFont,sans-serif">3.付款之后，供应商还会给对应的发票，发票需要保管起来便于后续的进项抵扣</text><path d="M440,-120 C490,-120 490,-60 540,-60" fill="none" stroke="#DFB85D" stroke-width="2"/><rect x="540" y="-75" width="80" height="30" rx="6" fill="#EFF0F0" stroke="none"/><text x="580" y="-55" text-anchor="middle" font-size="13" fill="#333" font-family="-apple-system,BlinkMacSystemFont,sans-serif">功能清单</text><path d="M620,-60 C670,-60 670,-120 720,-120" fill="none" stroke="#DFB85D" stroke-width="2"/><rect x="720" y="-135" width="80" height="30" rx="6" fill="#EFF0F0" stroke="none"/><text x="760" y="-115" text-anchor="middle" font-size="13" fill="#333" font-family="-apple-system,BlinkMacSystemFont,sans-serif">采购对账</text><path d="M620,-60 C670,-60 670,-80 720,-80" fill="none" stroke="#DFB85D" stroke-width="2"/><rect x="720" y="-95" width="80" height="30" rx="6" fill="#EFF0F0" stroke="none"/><text x="760" y="-75" text-anchor="middle" font-size="13" fill="#333" font-family="-apple-system,BlinkMacSystemFont,sans-serif">付款管理</text><path d="M620,-60 C670,-60 670,-40 720,-40" fill="none" stroke="#DFB85D" stroke-width="2"/><rect x="720" y="-55" width="80" height="30" rx="6" fill="#EFF0F0" stroke="none"/><text x="760" y="-35" text-anchor="middle" font-size="13" fill="#333" font-family="-apple-system,BlinkMacSystemFont,sans-serif">采购结算</text><path d="M620,-60 C670,-60 670,0 720,0" fill="none" stroke="#DFB85D" stroke-width="2"/><rect x="720" y="-15" width="80" height="30" rx="6" fill="#EFF0F0" stroke="none"/><text x="760" y="5" text-anchor="middle" font-size="13" fill="#333" font-family="-apple-system,BlinkMacSystemFont,sans-serif">采购开票</text><path d="M800,0 C850,0 850,0 900,0" fill="none" stroke="#DFB85D" stroke-width="2"/><rect x="900" y="-15" width="80" height="30" rx="6" fill="#EFF0F0" stroke="none"/><text x="940" y="5" text-anchor="middle" font-size="13" fill="#333" font-family="-apple-system,BlinkMacSystemFont,sans-serif">可选</text><path d="M343.28000000000003,-560 C351.64,-560 351.64,140 360,140" fill="none" stroke="#DFB85D" stroke-width="2"/><rect x="360" y="125" width="104" height="30" rx="6" fill="#fafafa" stroke="none"/><text x="412" y="145" text-anchor="middle" font-size="13" fill="#333" font-family="-apple-system,BlinkMacSystemFont,sans-serif">基础信息管理</text><path d="M464,140 C502,140 502,80 540,80" fill="none" stroke="#DFB85D" stroke-width="2"/><rect x="540" y="65" width="143" height="30" rx="6" fill="#fafafa" stroke="none"/><text x="611.5" y="85" text-anchor="middle" font-size="13" fill="#333" font-family="-apple-system,BlinkMacSystemFont,sans-serif">相关业务和场景介绍</text><path d="M683,80 C701.5,80 701.5,40 720,40" fill="none" stroke="#DFB85D" stroke-width="2"/><rect x="720" y="25" width="670.8" height="30" rx="6" fill="#fafafa" stroke="none"/><text x="1055.4" y="45" text-anchor="middle" font-size="13" fill="#333" font-family="-apple-system,BlinkMacSystemFont,sans-serif">1.SRM虽然是供应商关系管理，但是本质上是通过商品才和供应商创建的联系，所以商品资料的管控一定是会有的</text><path d="M683,80 C701.5,80 701.5,80 720,80" fill="none" stroke="#DFB85D" stroke-width="2"/><rect x="720" y="65" width="936.52" height="30" rx="6" fill="#fafafa" stroke="none"/><text x="1188.26" y="85" text-anchor="middle" font-size="13" fill="#333" font-family="-apple-system,BlinkMacSystemFont,sans-serif">2.除了商品资料之外，还会有对应的价格管理，因为复杂的采购业务之下会有很多套价格，不同的供应商，不同的采购组织，不同的商品对应的采购价都不一样</text><path d="M683,80 C701.5,80 701.5,120 720,120" fill="none" stroke="#DFB85D" stroke-width="2"/><rect x="720" y="105" width="819.52" height="30" rx="6" fill="#fafafa" stroke="none"/><text x="1129.76" y="125" text-anchor="middle" font-size="13" fill="#333" font-family="-apple-system,BlinkMacSystemFont,sans-serif">3.采购也会有一些配置项，例如最低采购价，最高采购价，什么时候禁止采购，什么时候允许采购，什么类目允许采购，什么不允许采购等</text><path d="M464,140 C502,140 502,200 540,200" fill="none" stroke="#DFB85D" stroke-width="2"/><rect x="540" y="185" width="80" height="30" rx="6" fill="#fafafa" stroke="none"/><text x="580" y="205" text-anchor="middle" font-size="13" fill="#333" font-family="-apple-system,BlinkMacSystemFont,sans-serif">功能清单</text><path d="M620,200 C670,200 670,160 720,160" fill="none" stroke="#DFB85D" stroke-width="2"/><rect x="720" y="145" width="80" height="30" rx="6" fill="#EFF0F0" stroke="none"/><text x="760" y="165" text-anchor="middle" font-size="13" fill="#333" font-family="-apple-system,BlinkMacSystemFont,sans-serif">商品管理</text><path d="M620,200 C670,200 670,200 720,200" fill="none" stroke="#DFB85D" stroke-width="2"/><rect x="720" y="185" width="80" height="30" rx="6" fill="#EFF0F0" stroke="none"/><text x="760" y="205" text-anchor="middle" font-size="13" fill="#333" font-family="-apple-system,BlinkMacSystemFont,sans-serif">价格管理</text><path d="M620,200 C670,200 670,240 720,240" fill="none" stroke="#DFB85D" stroke-width="2"/><rect x="720" y="225" width="80" height="30" rx="6" fill="#EFF0F0" stroke="none"/><text x="760" y="245" text-anchor="middle" font-size="13" fill="#333" font-family="-apple-system,BlinkMacSystemFont,sans-serif">采购配置</text><path d="M800,240 C850,240 850,240 900,240" fill="none" stroke="#DFB85D" stroke-width="2"/><rect x="900" y="225" width="80" height="30" rx="6" fill="#EFF0F0" stroke="none"/><text x="940" y="245" text-anchor="middle" font-size="13" fill="#333" font-family="-apple-system,BlinkMacSystemFont,sans-serif">可选</text><path d="M343.28000000000003,-560 C351.64,-560 351.64,320 360,320" fill="none" stroke="#DFB85D" stroke-width="2"/><rect x="360" y="305" width="91" height="30" rx="6" fill="#fafafa" stroke="none"/><text x="405.5" y="325" text-anchor="middle" font-size="13" fill="#333" font-family="-apple-system,BlinkMacSystemFont,sans-serif">策略和数据</text><path d="M451,320 C495.5,320 495.5,280 540,280" fill="none" stroke="#DFB85D" stroke-width="2"/><rect x="540" y="265" width="104" height="30" rx="6" fill="#fafafa" stroke="none"/><text x="592" y="285" text-anchor="middle" font-size="13" fill="#333" font-family="-apple-system,BlinkMacSystemFont,sans-serif">采购需求测算</text><path d="M644,280 C682,280 682,280 720,280" fill="none" stroke="#DFB85D" stroke-width="2"/><rect x="720" y="265" width="80" height="30" rx="6" fill="#EFF0F0" stroke="none"/><text x="760" y="285" text-anchor="middle" font-size="13" fill="#333" font-family="-apple-system,BlinkMacSystemFont,sans-serif">可选</text><path d="M451,320 C495.5,320 495.5,320 540,320" fill="none" stroke="#DFB85D" stroke-width="2"/><rect x="540" y="305" width="104" height="30" rx="6" fill="#fafafa" stroke="none"/><text x="592" y="325" text-anchor="middle" font-size="13" fill="#333" font-family="-apple-system,BlinkMacSystemFont,sans-serif">采购库存计划</text><path d="M644,320 C682,320 682,320 720,320" fill="none" stroke="#DFB85D" stroke-width="2"/><rect x="720" y="305" width="80" height="30" rx="6" fill="#EFF0F0" stroke="none"/><text x="760" y="325" text-anchor="middle" font-size="13" fill="#333" font-family="-apple-system,BlinkMacSystemFont,sans-serif">可选</text><path d="M451,320 C495.5,320 495.5,360 540,360" fill="none" stroke="#DFB85D" stroke-width="2"/><rect x="540" y="345" width="80" height="30" rx="6" fill="#fafafa" stroke="none"/><text x="580" y="365" text-anchor="middle" font-size="13" fill="#333" font-family="-apple-system,BlinkMacSystemFont,sans-serif">BI分析</text><path d="M620,360 C670,360 670,360 720,360" fill="none" stroke="#DFB85D" stroke-width="2"/><rect x="720" y="345" width="80" height="30" rx="6" fill="#EFF0F0" stroke="none"/><text x="760" y="365" text-anchor="middle" font-size="13" fill="#333" font-family="-apple-system,BlinkMacSystemFont,sans-serif">可选</text><path d="M88.48,0 C178.48000000000002,0 178.48000000000002,940 268.48,940" fill="none" stroke="#77C386" stroke-width="2"/><rect x="180" y="925" width="143" height="30" rx="6" fill="#fafafa" stroke="none"/><text x="251.5" y="945" text-anchor="middle" font-size="13" fill="#333" font-family="-apple-system,BlinkMacSystemFont,sans-serif">供应商端（客户端）</text><path d="M323,940 C341.5,940 341.5,520 360,520" fill="none" stroke="#77C386" stroke-width="2"/><rect x="360" y="505" width="91" height="30" rx="6" fill="#fafafa" stroke="none"/><text x="405.5" y="525" text-anchor="middle" font-size="13" fill="#333" font-family="-apple-system,BlinkMacSystemFont,sans-serif">供应商门户</text><path d="M451,520 C495.5,520 495.5,400 540,400" fill="none" stroke="#77C386" stroke-width="2"/><rect x="540" y="385" width="80" height="30" rx="6" fill="#fafafa" stroke="none"/><text x="580" y="405" text-anchor="middle" font-size="13" fill="#333" font-family="-apple-system,BlinkMacSystemFont,sans-serif">门户官网</text><path d="M451,520 C495.5,520 495.5,440 540,440" fill="none" stroke="#77C386" stroke-width="2"/><rect x="540" y="425" width="117" height="30" rx="6" fill="#fafafa" stroke="none"/><text x="598.5" y="445" text-anchor="middle" font-size="13" fill="#333" font-family="-apple-system,BlinkMacSystemFont,sans-serif">注册成为供应商</text><path d="M451,520 C495.5,520 495.5,480 540,480" fill="none" stroke="#77C386" stroke-width="2"/><rect x="540" y="465" width="110.75999999999999" height="30" rx="6" fill="#fafafa" stroke="none"/><text x="595.38" y="485" text-anchor="middle" font-size="13" fill="#333" font-family="-apple-system,BlinkMacSystemFont,sans-serif">登录/忘记密码</text><path d="M451,520 C495.5,520 495.5,520 540,520" fill="none" stroke="#77C386" stroke-width="2"/><rect x="540" y="505" width="80" height="30" rx="6" fill="#fafafa" stroke="none"/><text x="580" y="525" text-anchor="middle" font-size="13" fill="#333" font-family="-apple-system,BlinkMacSystemFont,sans-serif">招标信息</text><path d="M620,520 C670,520 670,520 720,520" fill="none" stroke="#77C386" stroke-width="2"/><rect x="720" y="505" width="80" height="30" rx="6" fill="#EFF0F0" stroke="none"/><text x="760" y="525" text-anchor="middle" font-size="13" fill="#333" font-family="-apple-system,BlinkMacSystemFont,sans-serif">可选</text><path d="M451,520 C495.5,520 495.5,560 540,560" fill="none" stroke="#77C386" stroke-width="2"/><rect x="540" y="545" width="80" height="30" rx="6" fill="#fafafa" stroke="none"/><text x="580" y="565" text-anchor="middle" font-size="13" fill="#333" font-family="-apple-system,BlinkMacSystemFont,sans-serif">公告</text><path d="M620,560 C670,560 670,560 720,560" fill="none" stroke="#77C386" stroke-width="2"/><rect x="720" y="545" width="80" height="30" rx="6" fill="#EFF0F0" stroke="none"/><text x="760" y="565" text-anchor="middle" font-size="13" fill="#333" font-family="-apple-system,BlinkMacSystemFont,sans-serif">可选</text><path d="M451,520 C495.5,520 495.5,600 540,600" fill="none" stroke="#77C386" stroke-width="2"/><rect x="540" y="585" width="80" height="30" rx="6" fill="#fafafa" stroke="none"/><text x="580" y="605" text-anchor="middle" font-size="13" fill="#333" font-family="-apple-system,BlinkMacSystemFont,sans-serif">操作手册</text><path d="M620,600 C670,600 670,600 720,600" fill="none" stroke="#77C386" stroke-width="2"/><rect x="720" y="585" width="80" height="30" rx="6" fill="#EFF0F0" stroke="none"/><text x="760" y="605" text-anchor="middle" font-size="13" fill="#333" font-family="-apple-system,BlinkMacSystemFont,sans-serif">可选</text><path d="M451,520 C495.5,520 495.5,640 540,640" fill="none" stroke="#77C386" stroke-width="2"/><rect x="540" y="625" width="247" height="30" rx="6" fill="transparent" stroke="#BFBFBF"/><text x="663.5" y="645" text-anchor="middle" font-size="13" fill="#333" font-family="-apple-system,BlinkMacSystemFont,sans-serif">让供应商登录的门户，类似于品牌官网</text><path d="M323,940 C341.5,940 341.5,720 360,720" fill="none" stroke="#77C386" stroke-width="2"/><rect x="360" y="705" width="80" height="30" rx="6" fill="#fafafa" stroke="none"/><text x="400" y="725" text-anchor="middle" font-size="13" fill="#333" font-family="-apple-system,BlinkMacSystemFont,sans-serif">商品管理</text><path d="M440,720 C490,720 490,680 540,680" fill="none" stroke="#77C386" stroke-width="2"/><rect x="540" y="665" width="80" height="30" rx="6" fill="#fafafa" stroke="none"/><text x="580" y="685" text-anchor="middle" font-size="13" fill="#333" font-family="-apple-system,BlinkMacSystemFont,sans-serif">商品准入</text><path d="M440,720 C490,720 490,720 540,720" fill="none" stroke="#77C386" stroke-width="2"/><rect x="540" y="705" width="80" height="30" rx="6" fill="#fafafa" stroke="none"/><text x="580" y="725" text-anchor="middle" font-size="13" fill="#333" font-family="-apple-system,BlinkMacSystemFont,sans-serif">商品资质</text><path d="M440,720 C490,720 490,760 540,760" fill="none" stroke="#77C386" stroke-width="2"/><rect x="540" y="745" width="182" height="30" rx="6" fill="transparent" stroke="#BFBFBF"/><text x="631" y="765" text-anchor="middle" font-size="13" fill="#333" font-family="-apple-system,BlinkMacSystemFont,sans-serif">供应商有哪些商品可以供货</text><path d="M323,940 C341.5,940 341.5,880 360,880" fill="none" stroke="#77C386" stroke-width="2"/><rect x="360" y="865" width="80" height="30" rx="6" fill="#fafafa" stroke="none"/><text x="400" y="885" text-anchor="middle" font-size="13" fill="#333" font-family="-apple-system,BlinkMacSystemFont,sans-serif">企业资料</text><path d="M440,880 C490,880 490,800 540,800" fill="none" stroke="#77C386" stroke-width="2"/><rect x="540" y="785" width="80" height="30" rx="6" fill="#fafafa" stroke="none"/><text x="580" y="805" text-anchor="middle" font-size="13" fill="#333" font-family="-apple-system,BlinkMacSystemFont,sans-serif">基础信息</text><path d="M440,880 C490,880 490,840 540,840" fill="none" stroke="#77C386" stroke-width="2"/><rect x="540" y="825" width="80" height="30" rx="6" fill="#fafafa" stroke="none"/><text x="580" y="845" text-anchor="middle" font-size="13" fill="#333" font-family="-apple-system,BlinkMacSystemFont,sans-serif">信息变更</text><path d="M620,840 C670,840 670,840 720,840" fill="none" stroke="#77C386" stroke-width="2"/><rect x="720" y="825" width="80" height="30" rx="6" fill="#EFF0F0" stroke="none"/><text x="760" y="845" text-anchor="middle" font-size="13" fill="#333" font-family="-apple-system,BlinkMacSystemFont,sans-serif">可选</text><path d="M440,880 C490,880 490,880 540,880" fill="none" stroke="#77C386" stroke-width="2"/><rect x="540" y="865" width="80" height="30" rx="6" fill="#fafafa" stroke="none"/><text x="580" y="885" text-anchor="middle" font-size="13" fill="#333" font-family="-apple-system,BlinkMacSystemFont,sans-serif">合同管理</text><path d="M440,880 C490,880 490,920 540,920" fill="none" stroke="#77C386" stroke-width="2"/><rect x="540" y="905" width="80" height="30" rx="6" fill="#fafafa" stroke="none"/><text x="580" y="925" text-anchor="middle" font-size="13" fill="#333" font-family="-apple-system,BlinkMacSystemFont,sans-serif">绩效情况</text><path d="M620,920 C670,920 670,920 720,920" fill="none" stroke="#77C386" stroke-width="2"/><rect x="720" y="905" width="80" height="30" rx="6" fill="#EFF0F0" stroke="none"/><text x="760" y="925" text-anchor="middle" font-size="13" fill="#333" font-family="-apple-system,BlinkMacSystemFont,sans-serif">可选</text><path d="M440,880 C490,880 490,960 540,960" fill="none" stroke="#77C386" stroke-width="2"/><rect x="540" y="945" width="273" height="30" rx="6" fill="transparent" stroke="#BFBFBF"/><text x="676.5" y="965" text-anchor="middle" font-size="13" fill="#333" font-family="-apple-system,BlinkMacSystemFont,sans-serif">供应商自己公司的一些信息，绩效的情况等</text><path d="M323,940 C341.5,940 341.5,1060 360,1060" fill="none" stroke="#77C386" stroke-width="2"/><rect x="360" y="1045" width="91" height="30" rx="6" fill="#fafafa" stroke="none"/><text x="405.5" y="1065" text-anchor="middle" font-size="13" fill="#333" font-family="-apple-system,BlinkMacSystemFont,sans-serif">招投标管理</text><path d="M451,1060 C495.5,1060 495.5,1000 540,1000" fill="none" stroke="#77C386" stroke-width="2"/><rect x="540" y="985" width="80" height="30" rx="6" fill="#fafafa" stroke="none"/><text x="580" y="1005" text-anchor="middle" font-size="13" fill="#333" font-family="-apple-system,BlinkMacSystemFont,sans-serif">询比价</text><path d="M620,1000 C670,1000 670,1000 720,1000" fill="none" stroke="#77C386" stroke-width="2"/><rect x="720" y="985" width="80" height="30" rx="6" fill="#EFF0F0" stroke="none"/><text x="760" y="1005" text-anchor="middle" font-size="13" fill="#333" font-family="-apple-system,BlinkMacSystemFont,sans-serif">可选</text><path d="M451,1060 C495.5,1060 495.5,1040 540,1040" fill="none" stroke="#77C386" stroke-width="2"/><rect x="540" y="1025" width="80" height="30" rx="6" fill="#fafafa" stroke="none"/><text x="580" y="1045" text-anchor="middle" font-size="13" fill="#333" font-family="-apple-system,BlinkMacSystemFont,sans-serif">投标</text><path d="M620,1040 C670,1040 670,1040 720,1040" fill="none" stroke="#77C386" stroke-width="2"/><rect x="720" y="1025" width="80" height="30" rx="6" fill="#EFF0F0" stroke="none"/><text x="760" y="1045" text-anchor="middle" font-size="13" fill="#333" font-family="-apple-system,BlinkMacSystemFont,sans-serif">可选</text><path d="M451,1060 C495.5,1060 495.5,1080 540,1080" fill="none" stroke="#77C386" stroke-width="2"/><rect x="540" y="1065" width="80" height="30" rx="6" fill="#fafafa" stroke="none"/><text x="580" y="1085" text-anchor="middle" font-size="13" fill="#333" font-family="-apple-system,BlinkMacSystemFont,sans-serif">竞价</text><path d="M620,1080 C670,1080 670,1080 720,1080" fill="none" stroke="#77C386" stroke-width="2"/><rect x="720" y="1065" width="80" height="30" rx="6" fill="#EFF0F0" stroke="none"/><text x="760" y="1085" text-anchor="middle" font-size="13" fill="#333" font-family="-apple-system,BlinkMacSystemFont,sans-serif">可选</text><path d="M451,1060 C495.5,1060 495.5,1120 540,1120" fill="none" stroke="#77C386" stroke-width="2"/><rect x="540" y="1105" width="195" height="30" rx="6" fill="transparent" stroke="#BFBFBF"/><text x="637.5" y="1125" text-anchor="middle" font-size="13" fill="#333" font-family="-apple-system,BlinkMacSystemFont,sans-serif">供应商进行投标竞价，报价等</text><path d="M323,940 C341.5,940 341.5,1240 360,1240" fill="none" stroke="#77C386" stroke-width="2"/><rect x="360" y="1225" width="80" height="30" rx="6" fill="#fafafa" stroke="none"/><text x="400" y="1245" text-anchor="middle" font-size="13" fill="#333" font-family="-apple-system,BlinkMacSystemFont,sans-serif">销售管理</text><path d="M440,1240 C490,1240 490,1160 540,1160" fill="none" stroke="#77C386" stroke-width="2"/><rect x="540" y="1145" width="80" height="30" rx="6" fill="#fafafa" stroke="none"/><text x="580" y="1165" text-anchor="middle" font-size="13" fill="#333" font-family="-apple-system,BlinkMacSystemFont,sans-serif">销售订单</text><path d="M440,1240 C490,1240 490,1200 540,1200" fill="none" stroke="#77C386" stroke-width="2"/><rect x="540" y="1185" width="80" height="30" rx="6" fill="#fafafa" stroke="none"/><text x="580" y="1205" text-anchor="middle" font-size="13" fill="#333" font-family="-apple-system,BlinkMacSystemFont,sans-serif">交货计划</text><path d="M620,1200 C670,1200 670,1200 720,1200" fill="none" stroke="#77C386" stroke-width="2"/><rect x="720" y="1185" width="80" height="30" rx="6" fill="#EFF0F0" stroke="none"/><text x="760" y="1205" text-anchor="middle" font-size="13" fill="#333" font-family="-apple-system,BlinkMacSystemFont,sans-serif">可选</text><path d="M440,1240 C490,1240 490,1240 540,1240" fill="none" stroke="#77C386" stroke-width="2"/><rect x="540" y="1225" width="80" height="30" rx="6" fill="#fafafa" stroke="none"/><text x="580" y="1245" text-anchor="middle" font-size="13" fill="#333" font-family="-apple-system,BlinkMacSystemFont,sans-serif">发货单</text><path d="M440,1240 C490,1240 490,1280 540,1280" fill="none" stroke="#77C386" stroke-width="2"/><rect x="540" y="1265" width="80" height="30" rx="6" fill="#fafafa" stroke="none"/><text x="580" y="1285" text-anchor="middle" font-size="13" fill="#333" font-family="-apple-system,BlinkMacSystemFont,sans-serif">客户退货</text><path d="M440,1240 C490,1240 490,1320 540,1320" fill="none" stroke="#77C386" stroke-width="2"/><rect x="540" y="1305" width="208" height="30" rx="6" fill="transparent" stroke="#BFBFBF"/><text x="644" y="1325" text-anchor="middle" font-size="13" fill="#333" font-family="-apple-system,BlinkMacSystemFont,sans-serif">供应商履约发货，跟进销售情况</text><path d="M323,940 C341.5,940 341.5,1420 360,1420" fill="none" stroke="#77C386" stroke-width="2"/><rect x="360" y="1405" width="80" height="30" rx="6" fill="#fafafa" stroke="none"/><text x="400" y="1425" text-anchor="middle" font-size="13" fill="#333" font-family="-apple-system,BlinkMacSystemFont,sans-serif">对账管理</text><path d="M440,1420 C490,1420 490,1360 540,1360" fill="none" stroke="#77C386" stroke-width="2"/><rect x="540" y="1345" width="80" height="30" rx="6" fill="#fafafa" stroke="none"/><text x="580" y="1365" text-anchor="middle" font-size="13" fill="#333" font-family="-apple-system,BlinkMacSystemFont,sans-serif">销售对账</text><path d="M440,1420 C490,1420 490,1400 540,1400" fill="none" stroke="#77C386" stroke-width="2"/><rect x="540" y="1385" width="80" height="30" rx="6" fill="#fafafa" stroke="none"/><text x="580" y="1405" text-anchor="middle" font-size="13" fill="#333" font-family="-apple-system,BlinkMacSystemFont,sans-serif">应收账单</text><path d="M440,1420 C490,1420 490,1440 540,1440" fill="none" stroke="#77C386" stroke-width="2"/><rect x="540" y="1425" width="80" height="30" rx="6" fill="#fafafa" stroke="none"/><text x="580" y="1445" text-anchor="middle" font-size="13" fill="#333" font-family="-apple-system,BlinkMacSystemFont,sans-serif">开票</text><path d="M620,1440 C670,1440 670,1440 720,1440" fill="none" stroke="#77C386" stroke-width="2"/><rect x="720" y="1425" width="80" height="30" rx="6" fill="#EFF0F0" stroke="none"/><text x="760" y="1445" text-anchor="middle" font-size="13" fill="#333" font-family="-apple-system,BlinkMacSystemFont,sans-serif">可选</text><path d="M440,1420 C490,1420 490,1480 540,1480" fill="none" stroke="#77C386" stroke-width="2"/><rect x="540" y="1465" width="169" height="30" rx="6" fill="transparent" stroke="#BFBFBF"/><text x="624.5" y="1485" text-anchor="middle" font-size="13" fill="#333" font-family="-apple-system,BlinkMacSystemFont,sans-serif">供应商和采购方进行结算</text>
</svg>