<svg xmlns="http://www.w3.org/2000/svg" xmlns:xlink="http://www.w3.org/1999/xlink"
  viewBox="-220.48 -1399 2792.48 2798" width="2792.48" height="2798"
  style="background:#fff; font-family:-apple-system,BlinkMacSystemFont,'Segoe UI',Roboto,sans-serif;">
<defs></defs>
<rect x="-220.48" y="-1399" width="2792.48" height="2798" fill="#fff"/>
<rect x="-136.48" y="-18" width="272.96" height="36" rx="8" fill="#EFF0F0" stroke="none"/><text x="0" y="6" text-anchor="middle" font-size="16" font-weight="bold" fill="#333" font-family="-apple-system,BlinkMacSystemFont,sans-serif">“进销存销售-出库”的产品结构图</text><path d="M136.48,0 C226.48000000000002,0 226.48000000000002,-400 316.48,-400" fill="none" stroke="#6F81DB" stroke-width="2"/><rect x="180" y="-415" width="80" height="30" rx="6" fill="#fafafa" stroke="none"/><text x="220" y="-395" text-anchor="middle" font-size="13" fill="#333" font-family="-apple-system,BlinkMacSystemFont,sans-serif">销售单</text><path d="M260,-400 C310,-400 310,-1140 360,-1140" fill="none" stroke="#6F81DB" stroke-width="2"/><rect x="360" y="-1155" width="117" height="30" rx="6" fill="#fafafa" stroke="none"/><text x="418.5" y="-1135" text-anchor="middle" font-size="13" fill="#333" font-family="-apple-system,BlinkMacSystemFont,sans-serif">需求分析、背景</text><path d="M477,-1140 C508.5,-1140 508.5,-1240 540,-1240" fill="none" stroke="#6F81DB" stroke-width="2"/><rect x="540" y="-1255" width="117" height="30" rx="6" fill="#fafafa" stroke="none"/><text x="598.5" y="-1235" text-anchor="middle" font-size="13" fill="#333" font-family="-apple-system,BlinkMacSystemFont,sans-serif">具体的需求分析</text><path d="M657,-1240 C688.5,-1240 688.5,-1300 720,-1300" fill="none" stroke="#6F81DB" stroke-width="2"/><rect x="720" y="-1315" width="507" height="30" rx="6" fill="#EFF0F0" stroke="none"/><text x="973.5" y="-1295" text-anchor="middle" font-size="13" fill="#333" font-family="-apple-system,BlinkMacSystemFont,sans-serif">维他命最近开了一个饮料店，店铺很小，主要就是摆个冰柜，然后卖各式花样的饮料</text><path d="M657,-1240 C688.5,-1240 688.5,-1260 720,-1260" fill="none" stroke="#6F81DB" stroke-width="2"/><rect x="720" y="-1275" width="1112.28" height="30" rx="6" fill="#EFF0F0" stroke="none"/><text x="1276.1399999999999" y="-1255" text-anchor="middle" font-size="13" fill="#333" font-family="-apple-system,BlinkMacSystemFont,sans-serif">虽然产品类目少，SKU少，但是维他命觉得自己以后肯定会把生意做得越来越大，所以决定从一开始就是先规划设计一套进销存软件来记录日常的销售数据，便于后续做一些精细化的运营管理</text><path d="M657,-1240 C688.5,-1240 688.5,-1200 720,-1200" fill="none" stroke="#6F81DB" stroke-width="2"/><rect x="720" y="-1215" width="80" height="30" rx="6" fill="#EFF0F0" stroke="none"/><text x="760" y="-1195" text-anchor="middle" font-size="13" fill="#333" font-family="-apple-system,BlinkMacSystemFont,sans-serif">需求点</text><path d="M800,-1200 C850,-1200 850,-1220 900,-1220" fill="none" stroke="#6F81DB" stroke-width="2"/><rect x="900" y="-1235" width="598.52" height="30" rx="6" fill="#fafafa" stroke="none"/><text x="1199.26" y="-1215" text-anchor="middle" font-size="13" fill="#333" font-family="-apple-system,BlinkMacSystemFont,sans-serif">之前已经完成了基础资料、采购-入库的产品设计，本次的需求就是要完成销售-出库相关的产品设计</text><path d="M800,-1200 C850,-1200 850,-1180 900,-1180" fill="none" stroke="#6F81DB" stroke-width="2"/><rect x="900" y="-1195" width="884" height="30" rx="6" fill="#fafafa" stroke="none"/><text x="1342" y="-1175" text-anchor="middle" font-size="13" fill="#333" font-family="-apple-system,BlinkMacSystemFont,sans-serif">目前维他命的小店主要还是销售饮料类，后续会考虑拓展其他零食类，日用百货之类的可能要比较晚才拓展，所以短期先考虑饮料和零食类的产品特性</text><path d="M477,-1140 C508.5,-1140 508.5,-1060 540,-1060" fill="none" stroke="#6F81DB" stroke-width="2"/><rect x="540" y="-1075" width="169" height="30" rx="6" fill="#fafafa" stroke="none"/><text x="624.5" y="-1055" text-anchor="middle" font-size="13" fill="#333" font-family="-apple-system,BlinkMacSystemFont,sans-serif">为什么需要进销存系统？</text><path d="M709,-1060 C714.5,-1060 714.5,-1140 720,-1140" fill="none" stroke="#6F81DB" stroke-width="2"/><rect x="720" y="-1155" width="1768" height="30" rx="6" fill="#fafafa" stroke="none"/><text x="1604" y="-1135" text-anchor="middle" font-size="13" fill="#333" font-family="-apple-system,BlinkMacSystemFont,sans-serif">我是做电脑维修及电脑配件零售的，之前店里的帐目一团糟。使用七色米进销存软件后，对我们的帮助很大，店里一个月进多少货，卖多少东西，赚多少利润，都一目了然。现在能够有条理地管理店面生意，七色米进销存给了我很大的帮助。最后，希望七色米越办越成功，我们也将一如继往地支持追随。</text><path d="M709,-1060 C714.5,-1060 714.5,-1100 720,-1100" fill="none" stroke="#6F81DB" stroke-width="2"/><rect x="720" y="-1115" width="1072.76" height="30" rx="6" fill="#fafafa" stroke="none"/><text x="1256.38" y="-1095" text-anchor="middle" font-size="13" fill="#333" font-family="-apple-system,BlinkMacSystemFont,sans-serif">我们是一家做酒水批发的公司，经营的品牌主要有雪花、青岛等啤酒品牌，与七色米总公司七色米科技同属安徽本地企业。我选择七色米已经有6余年，看着它一点点成长、变强变大。</text><path d="M709,-1060 C714.5,-1060 714.5,-1060 720,-1060" fill="none" stroke="#6F81DB" stroke-width="2"/><rect x="720" y="-1075" width="1295.32" height="30" rx="6" fill="#fafafa" stroke="none"/><text x="1367.6599999999999" y="-1055" text-anchor="middle" font-size="13" fill="#333" font-family="-apple-system,BlinkMacSystemFont,sans-serif">从北京不足300平米的库房到河北新发地的2000平库房，从传统的水果批发到如今搭建自营的电商平台，数据信息向上游延伸至进口水果种植基地，向下游延伸至终端消费者。这一过程，七色米进销存软件和我们一起成长！</text><path d="M709,-1060 C714.5,-1060 714.5,-1020 720,-1020" fill="none" stroke="#6F81DB" stroke-width="2"/><rect x="720" y="-1035" width="1170" height="30" rx="6" fill="#fafafa" stroke="none"/><text x="1305" y="-1015" text-anchor="middle" font-size="13" fill="#333" font-family="-apple-system,BlinkMacSystemFont,sans-serif">我们经营粮油米面的批发，主要面向客户有商超、便利店、单位、学校，是三门侠市首屈一指的粮油商行。七色米进销存软件，能够帮助我们节省人力、提升效率，做生意的商家都应该有一款七色米！</text><path d="M709,-1060 C714.5,-1060 714.5,-980 720,-980" fill="none" stroke="#6F81DB" stroke-width="2"/><rect x="720" y="-995" width="312" height="30" rx="6" fill="transparent" stroke="#BFBFBF"/><text x="876" y="-975" text-anchor="middle" font-size="13" fill="#333" font-family="-apple-system,BlinkMacSystemFont,sans-serif">通过这些用户画像，帮助大家有一些业务的画面感</text><path d="M260,-400 C310,-400 310,-360 360,-360" fill="none" stroke="#6F81DB" stroke-width="2"/><rect x="360" y="-375" width="104" height="30" rx="6" fill="#fafafa" stroke="none"/><text x="412" y="-355" text-anchor="middle" font-size="13" fill="#333" font-family="-apple-system,BlinkMacSystemFont,sans-serif">初步方案设计</text><path d="M464,-360 C502,-360 502,-760 540,-760" fill="none" stroke="#6F81DB" stroke-width="2"/><rect x="540" y="-775" width="195.51999999999998" height="30" rx="6" fill="#fafafa" stroke="none"/><text x="637.76" y="-755" text-anchor="middle" font-size="13" fill="#333" font-family="-apple-system,BlinkMacSystemFont,sans-serif">1.先整理业务场景和主线流程</text><path d="M735.52,-760 C727.76,-760 727.76,-840 720,-840" fill="none" stroke="#6F81DB" stroke-width="2"/><rect x="720" y="-855" width="80" height="30" rx="6" fill="#fafafa" stroke="none"/><text x="760" y="-835" text-anchor="middle" font-size="13" fill="#333" font-family="-apple-system,BlinkMacSystemFont,sans-serif">主线流程</text><path d="M800,-840 C850,-840 850,-900 900,-900" fill="none" stroke="#6F81DB" stroke-width="2"/><rect x="900" y="-915" width="104.52" height="30" rx="6" fill="#fafafa" stroke="none"/><text x="952.26" y="-895" text-anchor="middle" font-size="13" fill="#333" font-family="-apple-system,BlinkMacSystemFont,sans-serif">2C的零售场景</text><path d="M1004.52,-900 C1042.26,-900 1042.26,-940 1080,-940" fill="none" stroke="#6F81DB" stroke-width="2"/><rect x="1080" y="-955" width="624" height="30" rx="6" fill="#fafafa" stroke="none"/><text x="1392" y="-935" text-anchor="middle" font-size="13" fill="#333" font-family="-apple-system,BlinkMacSystemFont,sans-serif">用户在线微信下单，然后销售手动在系统中开单，并通知门店仓库帮忙配货安排出库（可邮寄、可自提）</text><path d="M1004.52,-900 C1042.26,-900 1042.26,-900 1080,-900" fill="none" stroke="#6F81DB" stroke-width="2"/><rect x="1080" y="-915" width="585" height="30" rx="6" fill="#fafafa" stroke="none"/><text x="1372.5" y="-895" text-anchor="middle" font-size="13" fill="#333" font-family="-apple-system,BlinkMacSystemFont,sans-serif">用户来现场购买，门店的销售人员快速在系统中开单，然后通知门店仓库配货、并直接交付给客户</text><path d="M1004.52,-900 C1042.26,-900 1042.26,-860 1080,-860" fill="none" stroke="#6F81DB" stroke-width="2"/><rect x="1080" y="-875" width="416" height="30" rx="6" fill="#fafafa" stroke="none"/><text x="1288" y="-855" text-anchor="middle" font-size="13" fill="#333" font-family="-apple-system,BlinkMacSystemFont,sans-serif">直接零售收银模式快速打单，并直接将现场柜台的库存卖给零售客户</text><path d="M800,-840 C850,-840 850,-780 900,-780" fill="none" stroke="#6F81DB" stroke-width="2"/><rect x="900" y="-795" width="104.52" height="30" rx="6" fill="#fafafa" stroke="none"/><text x="952.26" y="-775" text-anchor="middle" font-size="13" fill="#333" font-family="-apple-system,BlinkMacSystemFont,sans-serif">2B的批发场景</text><path d="M1004.52,-780 C1042.26,-780 1042.26,-820 1080,-820" fill="none" stroke="#6F81DB" stroke-width="2"/><rect x="1080" y="-835" width="637" height="30" rx="6" fill="#fafafa" stroke="none"/><text x="1398.5" y="-815" text-anchor="middle" font-size="13" fill="#333" font-family="-apple-system,BlinkMacSystemFont,sans-serif">客户在线谈单并支付货款，然后销售在系统中开单，并通知门店仓库帮忙配货安排出库（可邮寄、可自提）</text><path d="M1004.52,-780 C1042.26,-780 1042.26,-780 1080,-780" fill="none" stroke="#6F81DB" stroke-width="2"/><rect x="1080" y="-795" width="533" height="30" rx="6" fill="#fafafa" stroke="none"/><text x="1346.5" y="-775" text-anchor="middle" font-size="13" fill="#333" font-family="-apple-system,BlinkMacSystemFont,sans-serif">同行（客户）来现场取货，销售在系统开单，然后通知门店仓库配货、并直接交付给客户</text><path d="M1004.52,-780 C1042.26,-780 1042.26,-740 1080,-740" fill="none" stroke="#6F81DB" stroke-width="2"/><rect x="1080" y="-755" width="780" height="30" rx="6" fill="#fafafa" stroke="none"/><text x="1470" y="-735" text-anchor="middle" font-size="13" fill="#333" font-family="-apple-system,BlinkMacSystemFont,sans-serif">同行先交付一定的定金，预订一部分的货物，然后销售创建预售订单，等后续有货了或者可以对外销售了之后再开单，通知仓库发货</text><path d="M735.52,-760 C727.76,-760 727.76,-640 720,-640" fill="none" stroke="#6F81DB" stroke-width="2"/><rect x="720" y="-655" width="80" height="30" rx="6" fill="#fafafa" stroke="none"/><text x="760" y="-635" text-anchor="middle" font-size="13" fill="#333" font-family="-apple-system,BlinkMacSystemFont,sans-serif">支线流程</text><path d="M800,-640 C850,-640 850,-680 900,-680" fill="none" stroke="#6F81DB" stroke-width="2"/><rect x="900" y="-695" width="80" height="30" rx="6" fill="#fafafa" stroke="none"/><text x="940" y="-675" text-anchor="middle" font-size="13" fill="#333" font-family="-apple-system,BlinkMacSystemFont,sans-serif">销售退货</text><path d="M980,-680 C1030,-680 1030,-700 1080,-700" fill="none" stroke="#6F81DB" stroke-width="2"/><rect x="1080" y="-715" width="117" height="30" rx="6" fill="#fafafa" stroke="none"/><text x="1138.5" y="-695" text-anchor="middle" font-size="13" fill="#333" font-family="-apple-system,BlinkMacSystemFont,sans-serif">零售客户的退货</text><path d="M980,-680 C1030,-680 1030,-660 1080,-660" fill="none" stroke="#6F81DB" stroke-width="2"/><rect x="1080" y="-675" width="143" height="30" rx="6" fill="#fafafa" stroke="none"/><text x="1151.5" y="-655" text-anchor="middle" font-size="13" fill="#333" font-family="-apple-system,BlinkMacSystemFont,sans-serif">同行批发客户的退货</text><path d="M800,-640 C850,-640 850,-600 900,-600" fill="none" stroke="#6F81DB" stroke-width="2"/><rect x="900" y="-615" width="80" height="30" rx="6" fill="#fafafa" stroke="none"/><text x="940" y="-595" text-anchor="middle" font-size="13" fill="#333" font-family="-apple-system,BlinkMacSystemFont,sans-serif">销售换货</text><path d="M980,-600 C1030,-600 1030,-620 1080,-620" fill="none" stroke="#6F81DB" stroke-width="2"/><rect x="1080" y="-635" width="117" height="30" rx="6" fill="#EFF0F0" stroke="none"/><text x="1138.5" y="-615" text-anchor="middle" font-size="13" fill="#333" font-family="-apple-system,BlinkMacSystemFont,sans-serif">零售客户的换货</text><path d="M980,-600 C1030,-600 1030,-580 1080,-580" fill="none" stroke="#6F81DB" stroke-width="2"/><rect x="1080" y="-595" width="143" height="30" rx="6" fill="#EFF0F0" stroke="none"/><text x="1151.5" y="-575" text-anchor="middle" font-size="13" fill="#333" font-family="-apple-system,BlinkMacSystemFont,sans-serif">同行批发客户的换货</text><path d="M464,-360 C502,-360 502,-340 540,-340" fill="none" stroke="#6F81DB" stroke-width="2"/><rect x="540" y="-355" width="403.52" height="30" rx="6" fill="#fafafa" stroke="none"/><text x="741.76" y="-335" text-anchor="middle" font-size="13" fill="#333" font-family="-apple-system,BlinkMacSystemFont,sans-serif">2.根据业务场景和主线流程，整理初步的功能清单或者是解决方案</text><path d="M943.52,-340 C831.76,-340 831.76,-520 720,-520" fill="none" stroke="#6F81DB" stroke-width="2"/><rect x="720" y="-535" width="91" height="30" rx="6" fill="#fafafa" stroke="none"/><text x="765.5" y="-515" text-anchor="middle" font-size="13" fill="#333" font-family="-apple-system,BlinkMacSystemFont,sans-serif">销售单管理</text><path d="M811,-520 C855.5,-520 855.5,-540 900,-540" fill="none" stroke="#6F81DB" stroke-width="2"/><rect x="900" y="-555" width="80" height="30" rx="6" fill="#fafafa" stroke="none"/><text x="940" y="-535" text-anchor="middle" font-size="13" fill="#333" font-family="-apple-system,BlinkMacSystemFont,sans-serif">零售</text><path d="M811,-520 C855.5,-520 855.5,-500 900,-500" fill="none" stroke="#6F81DB" stroke-width="2"/><rect x="900" y="-515" width="80" height="30" rx="6" fill="#fafafa" stroke="none"/><text x="940" y="-495" text-anchor="middle" font-size="13" fill="#333" font-family="-apple-system,BlinkMacSystemFont,sans-serif">批发</text><path d="M943.52,-340 C831.76,-340 831.76,-460 720,-460" fill="none" stroke="#6F81DB" stroke-width="2"/><rect x="720" y="-475" width="104" height="30" rx="6" fill="#fafafa" stroke="none"/><text x="772" y="-455" text-anchor="middle" font-size="13" fill="#333" font-family="-apple-system,BlinkMacSystemFont,sans-serif">快捷收银管理</text><path d="M824,-460 C862,-460 862,-460 900,-460" fill="none" stroke="#6F81DB" stroke-width="2"/><rect x="900" y="-475" width="80" height="30" rx="6" fill="#fafafa" stroke="none"/><text x="940" y="-455" text-anchor="middle" font-size="13" fill="#333" font-family="-apple-system,BlinkMacSystemFont,sans-serif">零售</text><path d="M943.52,-340 C831.76,-340 831.76,-420 720,-420" fill="none" stroke="#6F81DB" stroke-width="2"/><rect x="720" y="-435" width="104" height="30" rx="6" fill="#fafafa" stroke="none"/><text x="772" y="-415" text-anchor="middle" font-size="13" fill="#333" font-family="-apple-system,BlinkMacSystemFont,sans-serif">预售订单管理</text><path d="M824,-420 C862,-420 862,-420 900,-420" fill="none" stroke="#6F81DB" stroke-width="2"/><rect x="900" y="-435" width="80" height="30" rx="6" fill="#fafafa" stroke="none"/><text x="940" y="-415" text-anchor="middle" font-size="13" fill="#333" font-family="-apple-system,BlinkMacSystemFont,sans-serif">批发</text><path d="M943.52,-340 C831.76,-340 831.76,-380 720,-380" fill="none" stroke="#6F81DB" stroke-width="2"/><rect x="720" y="-395" width="80" height="30" rx="6" fill="#fafafa" stroke="none"/><text x="760" y="-375" text-anchor="middle" font-size="13" fill="#333" font-family="-apple-system,BlinkMacSystemFont,sans-serif">销售退货</text><path d="M943.52,-340 C831.76,-340 831.76,-340 720,-340" fill="none" stroke="#6F81DB" stroke-width="2"/><rect x="720" y="-355" width="80" height="30" rx="6" fill="#fafafa" stroke="none"/><text x="760" y="-335" text-anchor="middle" font-size="13" fill="#333" font-family="-apple-system,BlinkMacSystemFont,sans-serif">销售换货</text><path d="M943.52,-340 C831.76,-340 831.76,-300 720,-300" fill="none" stroke="#6F81DB" stroke-width="2"/><rect x="720" y="-315" width="80" height="30" rx="6" fill="#fafafa" stroke="none"/><text x="760" y="-295" text-anchor="middle" font-size="13" fill="#333" font-family="-apple-system,BlinkMacSystemFont,sans-serif">销售出库</text><path d="M943.52,-340 C831.76,-340 831.76,-260 720,-260" fill="none" stroke="#6F81DB" stroke-width="2"/><rect x="720" y="-275" width="80" height="30" rx="6" fill="#fafafa" stroke="none"/><text x="760" y="-255" text-anchor="middle" font-size="13" fill="#333" font-family="-apple-system,BlinkMacSystemFont,sans-serif">换货出库</text><path d="M943.52,-340 C831.76,-340 831.76,-220 720,-220" fill="none" stroke="#6F81DB" stroke-width="2"/><rect x="720" y="-235" width="80" height="30" rx="6" fill="#fafafa" stroke="none"/><text x="760" y="-215" text-anchor="middle" font-size="13" fill="#333" font-family="-apple-system,BlinkMacSystemFont,sans-serif">退货入库</text><path d="M943.52,-340 C831.76,-340 831.76,-180 720,-180" fill="none" stroke="#6F81DB" stroke-width="2"/><rect x="720" y="-195" width="80" height="30" rx="6" fill="#fafafa" stroke="none"/><text x="760" y="-175" text-anchor="middle" font-size="13" fill="#333" font-family="-apple-system,BlinkMacSystemFont,sans-serif">换货入库</text><path d="M943.52,-340 C831.76,-340 831.76,-140 720,-140" fill="none" stroke="#6F81DB" stroke-width="2"/><rect x="720" y="-155" width="156" height="30" rx="6" fill="transparent" stroke="#BFBFBF"/><text x="798" y="-135" text-anchor="middle" font-size="13" fill="#333" font-family="-apple-system,BlinkMacSystemFont,sans-serif">可以考虑聚合抽象一层</text><path d="M464,-360 C502,-360 502,0 540,0" fill="none" stroke="#6F81DB" stroke-width="2"/><rect x="540" y="-15" width="403.52" height="30" rx="6" fill="#fafafa" stroke="none"/><text x="741.76" y="5" text-anchor="middle" font-size="13" fill="#333" font-family="-apple-system,BlinkMacSystemFont,sans-serif">3.根据产品定位和当前的资源情况，需求紧急程度等，确认优先级</text><path d="M943.52,0 C831.76,0 831.76,-100 720,-100" fill="none" stroke="#6F81DB" stroke-width="2"/><rect x="720" y="-115" width="91" height="30" rx="6" fill="#fafafa" stroke="none"/><text x="765.5" y="-95" text-anchor="middle" font-size="13" fill="#333" font-family="-apple-system,BlinkMacSystemFont,sans-serif">销售单管理</text><path d="M943.52,0 C831.76,0 831.76,-60 720,-60" fill="none" stroke="#6F81DB" stroke-width="2"/><rect x="720" y="-75" width="80" height="30" rx="6" fill="#fafafa" stroke="none"/><text x="760" y="-55" text-anchor="middle" font-size="13" fill="#333" font-family="-apple-system,BlinkMacSystemFont,sans-serif">销售出库</text><path d="M943.52,0 C831.76,0 831.76,-20 720,-20" fill="none" stroke="#6F81DB" stroke-width="2"/><rect x="720" y="-35" width="80" height="30" rx="6" fill="#fafafa" stroke="none"/><text x="760" y="-15" text-anchor="middle" font-size="13" fill="#333" font-family="-apple-system,BlinkMacSystemFont,sans-serif">销售退货</text><path d="M943.52,0 C831.76,0 831.76,20 720,20" fill="none" stroke="#6F81DB" stroke-width="2"/><rect x="720" y="5" width="80" height="30" rx="6" fill="#fafafa" stroke="none"/><text x="760" y="25" text-anchor="middle" font-size="13" fill="#333" font-family="-apple-system,BlinkMacSystemFont,sans-serif">快捷收银</text><path d="M943.52,0 C831.76,0 831.76,60 720,60" fill="none" stroke="#6F81DB" stroke-width="2"/><rect x="720" y="45" width="104" height="30" rx="6" fill="#fafafa" stroke="none"/><text x="772" y="65" text-anchor="middle" font-size="13" fill="#333" font-family="-apple-system,BlinkMacSystemFont,sans-serif">预售订单管理</text><path d="M943.52,0 C831.76,0 831.76,100 720,100" fill="none" stroke="#6F81DB" stroke-width="2"/><rect x="720" y="85" width="80" height="30" rx="6" fill="#fafafa" stroke="none"/><text x="760" y="105" text-anchor="middle" font-size="13" fill="#333" font-family="-apple-system,BlinkMacSystemFont,sans-serif">销售换货</text><path d="M464,-360 C502,-360 502,180 540,180" fill="none" stroke="#6F81DB" stroke-width="2"/><rect x="540" y="165" width="80" height="30" rx="6" fill="#fafafa" stroke="none"/><text x="580" y="185" text-anchor="middle" font-size="13" fill="#333" font-family="-apple-system,BlinkMacSystemFont,sans-serif">总结</text><path d="M620,180 C670,180 670,140 720,140" fill="none" stroke="#6F81DB" stroke-width="2"/><rect x="720" y="125" width="456.03999999999996" height="30" rx="6" fill="#fafafa" stroke="none"/><text x="948.02" y="145" text-anchor="middle" font-size="13" fill="#333" font-family="-apple-system,BlinkMacSystemFont,sans-serif">1.产品信息结构和功能结构如果是从0到1的阶段，建议这两个模块一定要有</text><path d="M620,180 C670,180 670,180 720,180" fill="none" stroke="#6F81DB" stroke-width="2"/><rect x="720" y="165" width="546.52" height="30" rx="6" fill="#fafafa" stroke="none"/><text x="993.26" y="185" text-anchor="middle" font-size="13" fill="#333" font-family="-apple-system,BlinkMacSystemFont,sans-serif">2.需求背景、业务分析和方案整理（或称为初步方案、头脑风暴）是非必填的，可有也可无</text><path d="M620,180 C670,180 670,220 720,220" fill="none" stroke="#6F81DB" stroke-width="2"/><rect x="720" y="205" width="819.52" height="30" rx="6" fill="#fafafa" stroke="none"/><text x="1129.76" y="225" text-anchor="middle" font-size="13" fill="#333" font-family="-apple-system,BlinkMacSystemFont,sans-serif">3.业务分析和方案整理（初步解决方案）是一个发散的思考过程，可以根据自己的风格喜好等不断变化，重点是要展示出你的思考过程即可</text><path d="M1539.52,220 C1219.76,220 1219.76,220 900,220" fill="none" stroke="#6F81DB" stroke-width="2"/><rect x="900" y="205" width="560.04" height="30" rx="6" fill="#fafafa" stroke="none"/><text x="1180.02" y="225" text-anchor="middle" font-size="13" fill="#333" font-family="-apple-system,BlinkMacSystemFont,sans-serif">不用纠结叫啥名字，例如上节课就叫做“初步方案设计”，这节课我就叫“业务分析和方案整理”</text><path d="M260,-400 C310,-400 310,360 360,360" fill="none" stroke="#6F81DB" stroke-width="2"/><rect x="360" y="345" width="80" height="30" rx="6" fill="#fafafa" stroke="none"/><text x="400" y="365" text-anchor="middle" font-size="13" fill="#333" font-family="-apple-system,BlinkMacSystemFont,sans-serif">功能结构</text><path d="M440,360 C490,360 490,360 540,360" fill="none" stroke="#6F81DB" stroke-width="2"/><rect x="540" y="345" width="80" height="30" rx="6" fill="#fafafa" stroke="none"/><text x="580" y="365" text-anchor="middle" font-size="13" fill="#333" font-family="-apple-system,BlinkMacSystemFont,sans-serif">销售管理</text><path d="M620,360 C670,360 670,260 720,260" fill="none" stroke="#6F81DB" stroke-width="2"/><rect x="720" y="245" width="91" height="30" rx="6" fill="#fafafa" stroke="none"/><text x="765.5" y="265" text-anchor="middle" font-size="13" fill="#333" font-family="-apple-system,BlinkMacSystemFont,sans-serif">新建销售单</text><path d="M620,360 C670,360 670,300 720,300" fill="none" stroke="#6F81DB" stroke-width="2"/><rect x="720" y="285" width="91" height="30" rx="6" fill="#fafafa" stroke="none"/><text x="765.5" y="305" text-anchor="middle" font-size="13" fill="#333" font-family="-apple-system,BlinkMacSystemFont,sans-serif">修改销售单</text><path d="M620,360 C670,360 670,340 720,340" fill="none" stroke="#6F81DB" stroke-width="2"/><rect x="720" y="325" width="91" height="30" rx="6" fill="#fafafa" stroke="none"/><text x="765.5" y="345" text-anchor="middle" font-size="13" fill="#333" font-family="-apple-system,BlinkMacSystemFont,sans-serif">删除销售单</text><path d="M620,360 C670,360 670,400 720,400" fill="none" stroke="#6F81DB" stroke-width="2"/><rect x="720" y="385" width="104" height="30" rx="6" fill="#fafafa" stroke="none"/><text x="772" y="405" text-anchor="middle" font-size="13" fill="#333" font-family="-apple-system,BlinkMacSystemFont,sans-serif">打印配货清单</text><path d="M824,400 C862,400 862,380 900,380" fill="none" stroke="#6F81DB" stroke-width="2"/><rect x="900" y="365" width="1040.52" height="30" rx="6" fill="#fafafa" stroke="none"/><text x="1420.26" y="385" text-anchor="middle" font-size="13" fill="#333" font-family="-apple-system,BlinkMacSystemFont,sans-serif">配货可以理解为“分配货物，指配货物”，配货单就是显示订单信息的一页纸，纸上会展示这个订单需要什么商品，多少数量，这个商品放在哪里（库位），还有一些订单的备注等</text><path d="M824,400 C862,400 862,420 900,420" fill="none" stroke="#6F81DB" stroke-width="2"/><rect x="900" y="405" width="80" height="30" rx="6" fill="#fafafa" stroke="none"/><text x="940" y="425" text-anchor="middle" font-size="13" fill="#333" font-family="-apple-system,BlinkMacSystemFont,sans-serif"></text><path d="M620,360 C670,360 670,460 720,460" fill="none" stroke="#6F81DB" stroke-width="2"/><rect x="720" y="445" width="80" height="30" rx="6" fill="#fafafa" stroke="none"/><text x="760" y="465" text-anchor="middle" font-size="13" fill="#333" font-family="-apple-system,BlinkMacSystemFont,sans-serif">复制</text><path d="M260,-400 C310,-400 310,500 360,500" fill="none" stroke="#6F81DB" stroke-width="2"/><rect x="360" y="485" width="208" height="30" rx="6" fill="#fafafa" stroke="none"/><text x="464" y="505" text-anchor="middle" font-size="13" fill="#333" font-family="-apple-system,BlinkMacSystemFont,sans-serif">信息结构（包含了拓展的模块）</text><path d="M568,500 C554,500 554,500 540,500" fill="none" stroke="#6F81DB" stroke-width="2"/><rect x="540" y="485" width="80" height="30" rx="6" fill="#fafafa" stroke="none"/><text x="580" y="505" text-anchor="middle" font-size="13" fill="#333" font-family="-apple-system,BlinkMacSystemFont,sans-serif">销售管理</text><path d="M620,500 C670,500 670,500 720,500" fill="none" stroke="#6F81DB" stroke-width="2"/><rect x="720" y="485" width="234" height="30" rx="6" fill="#fafafa" stroke="none"/><text x="837" y="505" text-anchor="middle" font-size="13" fill="#333" font-family="-apple-system,BlinkMacSystemFont,sans-serif">此处省略，具体字段可以参考七色米</text><path d="M136.48,0 C226.48000000000002,0 226.48000000000002,920 316.48,920" fill="none" stroke="#6EC4C4" stroke-width="2"/><rect x="180" y="905" width="80" height="30" rx="6" fill="#fafafa" stroke="none"/><text x="220" y="925" text-anchor="middle" font-size="13" fill="#333" font-family="-apple-system,BlinkMacSystemFont,sans-serif">出库单</text><path d="M260,920 C310,920 310,540 360,540" fill="none" stroke="#6EC4C4" stroke-width="2"/><rect x="360" y="525" width="117" height="30" rx="6" fill="#fafafa" stroke="none"/><text x="418.5" y="545" text-anchor="middle" font-size="13" fill="#333" font-family="-apple-system,BlinkMacSystemFont,sans-serif">需求分析、背景</text><path d="M477,540 C508.5,540 508.5,540 540,540" fill="none" stroke="#6EC4C4" stroke-width="2"/><rect x="540" y="525" width="195.51999999999998" height="30" rx="6" fill="#fafafa" stroke="none"/><text x="637.76" y="545" text-anchor="middle" font-size="13" fill="#333" font-family="-apple-system,BlinkMacSystemFont,sans-serif">背景同“销售订单”，此处省略</text><path d="M260,920 C310,920 310,760 360,760" fill="none" stroke="#6EC4C4" stroke-width="2"/><rect x="360" y="745" width="104" height="30" rx="6" fill="#fafafa" stroke="none"/><text x="412" y="765" text-anchor="middle" font-size="13" fill="#333" font-family="-apple-system,BlinkMacSystemFont,sans-serif">初步方案设计</text><path d="M464,760 C502,760 502,580 540,580" fill="none" stroke="#6EC4C4" stroke-width="2"/><rect x="540" y="565" width="80" height="30" rx="6" fill="#fafafa" stroke="none"/><text x="580" y="585" text-anchor="middle" font-size="13" fill="#333" font-family="-apple-system,BlinkMacSystemFont,sans-serif">业务设计</text><path d="M620,580 C670,580 670,580 720,580" fill="none" stroke="#6EC4C4" stroke-width="2"/><rect x="720" y="565" width="936" height="30" rx="6" fill="#fafafa" stroke="none"/><text x="1188" y="585" text-anchor="middle" font-size="13" fill="#333" font-family="-apple-system,BlinkMacSystemFont,sans-serif">从业务角度上分析，销售人员和出库操作人员可能不是同一个，所处的地理位置，能看到的信息数据等都不太一样，所以销售订单和出库单解耦设计会更好一些</text><path d="M464,760 C502,760 502,660 540,660" fill="none" stroke="#6EC4C4" stroke-width="2"/><rect x="540" y="645" width="80" height="30" rx="6" fill="#fafafa" stroke="none"/><text x="580" y="665" text-anchor="middle" font-size="13" fill="#333" font-family="-apple-system,BlinkMacSystemFont,sans-serif">应用设计</text><path d="M620,660 C670,660 670,620 720,620" fill="none" stroke="#6EC4C4" stroke-width="2"/><rect x="720" y="605" width="858" height="30" rx="6" fill="#fafafa" stroke="none"/><text x="1149" y="625" text-anchor="middle" font-size="13" fill="#333" font-family="-apple-system,BlinkMacSystemFont,sans-serif">从系统设计的角度上分析，销售单承载的是销售的一些记录，而出库单则是库存扣减的一些记录，两者解耦有利于后续兼容更多复杂和多元的业务</text><path d="M620,660 C670,660 670,680 720,680" fill="none" stroke="#6EC4C4" stroke-width="2"/><rect x="720" y="665" width="1027.52" height="30" rx="6" fill="#fafafa" stroke="none"/><text x="1233.76" y="685" text-anchor="middle" font-size="13" fill="#333" font-family="-apple-system,BlinkMacSystemFont,sans-serif">但是也有一些销售和出库同一个人的情况，它们不需要那么复杂的角色分离，权限分离，单据解耦，就是希望能一单到底，直接一单就做完，那么就需要考虑怎么“跳过出库单”</text><path d="M1747.52,680 C1323.76,680 1323.76,660 900,660" fill="none" stroke="#6EC4C4" stroke-width="2"/><rect x="900" y="645" width="80" height="30" rx="6" fill="#fafafa" stroke="none"/><text x="940" y="665" text-anchor="middle" font-size="13" fill="#333" font-family="-apple-system,BlinkMacSystemFont,sans-serif"></text><path d="M1747.52,680 C1323.76,680 1323.76,700 900,700" fill="none" stroke="#6EC4C4" stroke-width="2"/><rect x="900" y="685" width="80" height="30" rx="6" fill="#fafafa" stroke="none"/><text x="940" y="705" text-anchor="middle" font-size="13" fill="#333" font-family="-apple-system,BlinkMacSystemFont,sans-serif"></text><path d="M464,760 C502,760 502,840 540,840" fill="none" stroke="#6EC4C4" stroke-width="2"/><rect x="540" y="825" width="80" height="30" rx="6" fill="#fafafa" stroke="none"/><text x="580" y="845" text-anchor="middle" font-size="13" fill="#333" font-family="-apple-system,BlinkMacSystemFont,sans-serif">产品设计</text><path d="M620,840 C670,840 670,740 720,740" fill="none" stroke="#6EC4C4" stroke-width="2"/><rect x="720" y="725" width="208.51999999999998" height="30" rx="6" fill="#fafafa" stroke="none"/><text x="824.26" y="745" text-anchor="middle" font-size="13" fill="#333" font-family="-apple-system,BlinkMacSystemFont,sans-serif">1.销售单要生成几个出库单呢？</text><path d="M928.52,740 C914.26,740 914.26,740 900,740" fill="none" stroke="#6EC4C4" stroke-width="2"/><rect x="900" y="725" width="169.52" height="30" rx="6" fill="#fafafa" stroke="none"/><text x="984.76" y="745" text-anchor="middle" font-size="13" fill="#333" font-family="-apple-system,BlinkMacSystemFont,sans-serif">确定实体关系图（ER图）</text><path d="M620,840 C670,840 670,780 720,780" fill="none" stroke="#6EC4C4" stroke-width="2"/><rect x="720" y="765" width="377.52" height="30" rx="6" fill="#fafafa" stroke="none"/><text x="908.76" y="785" text-anchor="middle" font-size="13" fill="#333" font-family="-apple-system,BlinkMacSystemFont,sans-serif">2.出库单是否可以跳过呢？直接销售单就可以完成库存扣减？</text><path d="M1097.52,780 C998.76,780 998.76,780 900,780" fill="none" stroke="#6EC4C4" stroke-width="2"/><rect x="900" y="765" width="156" height="30" rx="6" fill="#fafafa" stroke="none"/><text x="978" y="785" text-anchor="middle" font-size="13" fill="#333" font-family="-apple-system,BlinkMacSystemFont,sans-serif">是否可配置出库流程？</text><path d="M620,840 C670,840 670,840 720,840" fill="none" stroke="#6EC4C4" stroke-width="2"/><rect x="720" y="825" width="377.52" height="30" rx="6" fill="#fafafa" stroke="none"/><text x="908.76" y="845" text-anchor="middle" font-size="13" fill="#333" font-family="-apple-system,BlinkMacSystemFont,sans-serif">3.出库单操作出库的时候，是否支持多出？少出？多次出库？</text><path d="M1097.52,840 C998.76,840 998.76,820 900,820" fill="none" stroke="#6EC4C4" stroke-width="2"/><rect x="900" y="805" width="104" height="30" rx="6" fill="#fafafa" stroke="none"/><text x="952" y="825" text-anchor="middle" font-size="13" fill="#333" font-family="-apple-system,BlinkMacSystemFont,sans-serif">支持多次出库</text><path d="M1097.52,840 C998.76,840 998.76,860 900,860" fill="none" stroke="#6EC4C4" stroke-width="2"/><rect x="900" y="845" width="286" height="30" rx="6" fill="#fafafa" stroke="none"/><text x="1043" y="865" text-anchor="middle" font-size="13" fill="#333" font-family="-apple-system,BlinkMacSystemFont,sans-serif">支持少出、等量出，但是不支持多出（超出）</text><path d="M620,840 C670,840 670,900 720,900" fill="none" stroke="#6EC4C4" stroke-width="2"/><rect x="720" y="885" width="468.52" height="30" rx="6" fill="#fafafa" stroke="none"/><text x="954.26" y="905" text-anchor="middle" font-size="13" fill="#333" font-family="-apple-system,BlinkMacSystemFont,sans-serif">4.如果出库的时候发现库存就是不够了，能不能缺量出库，同时关闭销售单？</text><path d="M1188.52,900 C1044.26,900 1044.26,900 900,900" fill="none" stroke="#6EC4C4" stroke-width="2"/><rect x="900" y="885" width="247" height="30" rx="6" fill="#fafafa" stroke="none"/><text x="1023.5" y="905" text-anchor="middle" font-size="13" fill="#333" font-family="-apple-system,BlinkMacSystemFont,sans-serif">可以的，支持强制完结出库单、销售单</text><path d="M620,840 C670,840 670,940 720,940" fill="none" stroke="#6EC4C4" stroke-width="2"/><rect x="720" y="925" width="157.04" height="30" rx="6" fill="#fafafa" stroke="none"/><text x="798.52" y="945" text-anchor="middle" font-size="13" fill="#333" font-family="-apple-system,BlinkMacSystemFont,sans-serif">5.其他可以继续发挥……</text><path d="M260,920 C310,920 310,1120 360,1120" fill="none" stroke="#6EC4C4" stroke-width="2"/><rect x="360" y="1105" width="80" height="30" rx="6" fill="#fafafa" stroke="none"/><text x="400" y="1125" text-anchor="middle" font-size="13" fill="#333" font-family="-apple-system,BlinkMacSystemFont,sans-serif">功能结构</text><path d="M440,1120 C490,1120 490,1120 540,1120" fill="none" stroke="#6EC4C4" stroke-width="2"/><rect x="540" y="1105" width="80" height="30" rx="6" fill="#fafafa" stroke="none"/><text x="580" y="1125" text-anchor="middle" font-size="13" fill="#333" font-family="-apple-system,BlinkMacSystemFont,sans-serif">销售出库</text><path d="M620,1120 C670,1120 670,980 720,980" fill="none" stroke="#6EC4C4" stroke-width="2"/><rect x="720" y="965" width="85.28" height="30" rx="6" fill="#fafafa" stroke="none"/><text x="762.64" y="985" text-anchor="middle" font-size="13" fill="#333" font-family="-apple-system,BlinkMacSystemFont,sans-serif">Web出库货</text><path d="M620,1120 C670,1120 670,1020 720,1020" fill="none" stroke="#6EC4C4" stroke-width="2"/><rect x="720" y="1005" width="104" height="30" rx="6" fill="#fafafa" stroke="none"/><text x="772" y="1025" text-anchor="middle" font-size="13" fill="#333" font-family="-apple-system,BlinkMacSystemFont,sans-serif">打印配货清单</text><path d="M620,1120 C670,1120 670,1080 720,1080" fill="none" stroke="#6EC4C4" stroke-width="2"/><rect x="720" y="1065" width="104" height="30" rx="6" fill="#fafafa" stroke="none"/><text x="772" y="1085" text-anchor="middle" font-size="13" fill="#333" font-family="-apple-system,BlinkMacSystemFont,sans-serif">打印出库清单</text><path d="M824,1080 C862,1080 862,1060 900,1060" fill="none" stroke="#6EC4C4" stroke-width="2"/><rect x="900" y="1045" width="761.28" height="30" rx="6" fill="#fafafa" stroke="none"/><text x="1280.6399999999999" y="1065" text-anchor="middle" font-size="13" fill="#333" font-family="-apple-system,BlinkMacSystemFont,sans-serif">出库清单就是出库单要出什么商品，已经出了多少，还有多少没有出。因为不采用PDA的情况下，需要用纸单来展示代作业的信息</text><path d="M824,1080 C862,1080 862,1100 900,1100" fill="none" stroke="#6EC4C4" stroke-width="2"/><rect x="900" y="1085" width="80" height="30" rx="6" fill="#fafafa" stroke="none"/><text x="940" y="1105" text-anchor="middle" font-size="13" fill="#333" font-family="-apple-system,BlinkMacSystemFont,sans-serif"></text><path d="M620,1120 C670,1120 670,1140 720,1140" fill="none" stroke="#6EC4C4" stroke-width="2"/><rect x="720" y="1125" width="104" height="30" rx="6" fill="#fafafa" stroke="none"/><text x="772" y="1145" text-anchor="middle" font-size="13" fill="#333" font-family="-apple-system,BlinkMacSystemFont,sans-serif">批量快速出库</text><path d="M620,1120 C670,1120 670,1180 720,1180" fill="none" stroke="#6EC4C4" stroke-width="2"/><rect x="720" y="1165" width="91" height="30" rx="6" fill="#fafafa" stroke="none"/><text x="765.5" y="1185" text-anchor="middle" font-size="13" fill="#333" font-family="-apple-system,BlinkMacSystemFont,sans-serif">作废出库单</text><path d="M620,1120 C670,1120 670,1220 720,1220" fill="none" stroke="#6EC4C4" stroke-width="2"/><rect x="720" y="1205" width="80" height="30" rx="6" fill="#fafafa" stroke="none"/><text x="760" y="1225" text-anchor="middle" font-size="13" fill="#333" font-family="-apple-system,BlinkMacSystemFont,sans-serif">……</text><path d="M620,1120 C670,1120 670,1260 720,1260" fill="none" stroke="#6EC4C4" stroke-width="2"/><rect x="720" y="1245" width="325.52" height="30" rx="6" fill="transparent" stroke="#BFBFBF"/><text x="882.76" y="1265" text-anchor="middle" font-size="13" fill="#333" font-family="-apple-system,BlinkMacSystemFont,sans-serif">2C的场景下，一般都是要等量出库的，不支持多或少</text><path d="M260,920 C310,920 310,1300 360,1300" fill="none" stroke="#6EC4C4" stroke-width="2"/><rect x="360" y="1285" width="80" height="30" rx="6" fill="#fafafa" stroke="none"/><text x="400" y="1305" text-anchor="middle" font-size="13" fill="#333" font-family="-apple-system,BlinkMacSystemFont,sans-serif">信息结构</text><path d="M440,1300 C490,1300 490,1300 540,1300" fill="none" stroke="#6EC4C4" stroke-width="2"/><rect x="540" y="1285" width="80" height="30" rx="6" fill="#fafafa" stroke="none"/><text x="580" y="1305" text-anchor="middle" font-size="13" fill="#333" font-family="-apple-system,BlinkMacSystemFont,sans-serif">销售出库</text><path d="M620,1300 C670,1300 670,1300 720,1300" fill="none" stroke="#6EC4C4" stroke-width="2"/><rect x="720" y="1285" width="234" height="30" rx="6" fill="#fafafa" stroke="none"/><text x="837" y="1305" text-anchor="middle" font-size="13" fill="#333" font-family="-apple-system,BlinkMacSystemFont,sans-serif">此处省略，具体字段可以参考七色米</text>
</svg>