<svg xmlns="http://www.w3.org/2000/svg" xmlns:xlink="http://www.w3.org/1999/xlink"
  viewBox="-176.32 -1059 1538.32 2118" width="1538.32" height="2118"
  style="background:#fff; font-family:-apple-system,BlinkMacSystemFont,'Segoe UI',Roboto,sans-serif;">
<defs></defs>
<rect x="-176.32" y="-1059" width="1538.32" height="2118" fill="#fff"/>
<rect x="-92.32" y="-18" width="184.64" height="36" rx="8" fill="#EFF0F0" stroke="none"/><text x="0" y="6" text-anchor="middle" font-size="16" font-weight="bold" fill="#333" font-family="-apple-system,BlinkMacSystemFont,sans-serif">“库存”的产品结构图</text><path d="M92.32,0 C182.32,0 182.32,0 272.32,0" fill="none" stroke="#6F81DB" stroke-width="2"/><rect x="180" y="-15" width="80" height="30" rx="6" fill="#fafafa" stroke="none"/><text x="220" y="5" text-anchor="middle" font-size="13" fill="#333" font-family="-apple-system,BlinkMacSystemFont,sans-serif">库存管理</text><path d="M260,0 C310,0 310,-800 360,-800" fill="none" stroke="#6F81DB" stroke-width="2"/><rect x="360" y="-815" width="143" height="30" rx="6" fill="#fafafa" stroke="none"/><text x="431.5" y="-795" text-anchor="middle" font-size="13" fill="#333" font-family="-apple-system,BlinkMacSystemFont,sans-serif">库存管理的名词定义</text><path d="M503,-800 C521.5,-800 521.5,-960 540,-960" fill="none" stroke="#6F81DB" stroke-width="2"/><rect x="540" y="-975" width="80" height="30" rx="6" fill="#fafafa" stroke="none"/><text x="580" y="-955" text-anchor="middle" font-size="13" fill="#333" font-family="-apple-system,BlinkMacSystemFont,sans-serif">实际库存</text><path d="M620,-960 C670,-960 670,-960 720,-960" fill="none" stroke="#6F81DB" stroke-width="2"/><rect x="720" y="-975" width="208" height="30" rx="6" fill="#fafafa" stroke="none"/><text x="824" y="-955" text-anchor="middle" font-size="13" fill="#333" font-family="-apple-system,BlinkMacSystemFont,sans-serif">实际存放在仓库或者门店的库存</text><path d="M503,-800 C521.5,-800 521.5,-880 540,-880" fill="none" stroke="#6F81DB" stroke-width="2"/><rect x="540" y="-895" width="80" height="30" rx="6" fill="#fafafa" stroke="none"/><text x="580" y="-875" text-anchor="middle" font-size="13" fill="#333" font-family="-apple-system,BlinkMacSystemFont,sans-serif">可用库存</text><path d="M620,-880 C670,-880 670,-920 720,-920" fill="none" stroke="#6F81DB" stroke-width="2"/><rect x="720" y="-935" width="195.51999999999998" height="30" rx="6" fill="#fafafa" stroke="none"/><text x="817.76" y="-915" text-anchor="middle" font-size="13" fill="#333" font-family="-apple-system,BlinkMacSystemFont,sans-serif">可用库存=实际库存-锁定库存</text><path d="M620,-880 C670,-880 670,-880 720,-880" fill="none" stroke="#6F81DB" stroke-width="2"/><rect x="720" y="-895" width="254.27999999999997" height="30" rx="6" fill="#fafafa" stroke="none"/><text x="847.14" y="-875" text-anchor="middle" font-size="13" fill="#333" font-family="-apple-system,BlinkMacSystemFont,sans-serif">可用库存=实际库存+在途库存-锁定库存</text><path d="M620,-880 C670,-880 670,-840 720,-840" fill="none" stroke="#6F81DB" stroke-width="2"/><rect x="720" y="-855" width="208" height="30" rx="6" fill="transparent" stroke="#BFBFBF"/><text x="824" y="-835" text-anchor="middle" font-size="13" fill="#333" font-family="-apple-system,BlinkMacSystemFont,sans-serif">业务不一样，会有不一样的公式</text><path d="M503,-800 C521.5,-800 521.5,-800 540,-800" fill="none" stroke="#6F81DB" stroke-width="2"/><rect x="540" y="-815" width="80" height="30" rx="6" fill="#fafafa" stroke="none"/><text x="580" y="-795" text-anchor="middle" font-size="13" fill="#333" font-family="-apple-system,BlinkMacSystemFont,sans-serif">期初库存</text><path d="M620,-800 C670,-800 670,-800 720,-800" fill="none" stroke="#6F81DB" stroke-width="2"/><rect x="720" y="-815" width="260" height="30" rx="6" fill="#fafafa" stroke="none"/><text x="850" y="-795" text-anchor="middle" font-size="13" fill="#333" font-family="-apple-system,BlinkMacSystemFont,sans-serif">系统初始化的时候，导入的期初库存数量</text><path d="M503,-800 C521.5,-800 521.5,-760 540,-760" fill="none" stroke="#6F81DB" stroke-width="2"/><rect x="540" y="-775" width="80" height="30" rx="6" fill="#fafafa" stroke="none"/><text x="580" y="-755" text-anchor="middle" font-size="13" fill="#333" font-family="-apple-system,BlinkMacSystemFont,sans-serif">锁定库存</text><path d="M620,-760 C670,-760 670,-760 720,-760" fill="none" stroke="#6F81DB" stroke-width="2"/><rect x="720" y="-775" width="546" height="30" rx="6" fill="#fafafa" stroke="none"/><text x="993" y="-755" text-anchor="middle" font-size="13" fill="#333" font-family="-apple-system,BlinkMacSystemFont,sans-serif">被某些单据提前占用的库存，当单据执行完成后或者单据取消后，则会释放对应的锁定数量</text><path d="M503,-800 C521.5,-800 521.5,-720 540,-720" fill="none" stroke="#6F81DB" stroke-width="2"/><rect x="540" y="-735" width="80" height="30" rx="6" fill="#fafafa" stroke="none"/><text x="580" y="-715" text-anchor="middle" font-size="13" fill="#333" font-family="-apple-system,BlinkMacSystemFont,sans-serif">在途库存</text><path d="M620,-720 C670,-720 670,-720 720,-720" fill="none" stroke="#6F81DB" stroke-width="2"/><rect x="720" y="-735" width="494" height="30" rx="6" fill="#fafafa" stroke="none"/><text x="967" y="-715" text-anchor="middle" font-size="13" fill="#333" font-family="-apple-system,BlinkMacSystemFont,sans-serif">库存还在路上，没有实际收货到仓库中的部分，例如采购在途或者调拨在途的数量</text><path d="M503,-800 C521.5,-800 521.5,-680 540,-680" fill="none" stroke="#6F81DB" stroke-width="2"/><rect x="540" y="-695" width="80" height="30" rx="6" fill="#fafafa" stroke="none"/><text x="580" y="-675" text-anchor="middle" font-size="13" fill="#333" font-family="-apple-system,BlinkMacSystemFont,sans-serif">成本价</text><path d="M620,-680 C670,-680 670,-680 720,-680" fill="none" stroke="#6F81DB" stroke-width="2"/><rect x="720" y="-695" width="546" height="30" rx="6" fill="#fafafa" stroke="none"/><text x="993" y="-675" text-anchor="middle" font-size="13" fill="#333" font-family="-apple-system,BlinkMacSystemFont,sans-serif">成本价是根据商品进货时的价格加权平均计算而来，商品的期初库存也会影响成本价的计算</text><path d="M503,-800 C521.5,-800 521.5,-640 540,-640" fill="none" stroke="#6F81DB" stroke-width="2"/><rect x="540" y="-655" width="80" height="30" rx="6" fill="#fafafa" stroke="none"/><text x="580" y="-635" text-anchor="middle" font-size="13" fill="#333" font-family="-apple-system,BlinkMacSystemFont,sans-serif">库存总价</text><path d="M620,-640 C670,-640 670,-640 720,-640" fill="none" stroke="#6F81DB" stroke-width="2"/><rect x="720" y="-655" width="182.51999999999998" height="30" rx="6" fill="#fafafa" stroke="none"/><text x="811.26" y="-635" text-anchor="middle" font-size="13" fill="#333" font-family="-apple-system,BlinkMacSystemFont,sans-serif">库存总价=实际库存*成本价</text><path d="M260,0 C310,0 310,-340 360,-340" fill="none" stroke="#6F81DB" stroke-width="2"/><rect x="360" y="-355" width="117" height="30" rx="6" fill="#fafafa" stroke="none"/><text x="418.5" y="-335" text-anchor="middle" font-size="13" fill="#333" font-family="-apple-system,BlinkMacSystemFont,sans-serif">库存变化的场景</text><path d="M477,-340 C508.5,-340 508.5,-480 540,-480" fill="none" stroke="#6F81DB" stroke-width="2"/><rect x="540" y="-495" width="80" height="30" rx="6" fill="#fafafa" stroke="none"/><text x="580" y="-475" text-anchor="middle" font-size="13" fill="#333" font-family="-apple-system,BlinkMacSystemFont,sans-serif">增加库存</text><path d="M620,-480 C670,-480 670,-600 720,-600" fill="none" stroke="#6F81DB" stroke-width="2"/><rect x="720" y="-615" width="80" height="30" rx="6" fill="#fafafa" stroke="none"/><text x="760" y="-595" text-anchor="middle" font-size="13" fill="#333" font-family="-apple-system,BlinkMacSystemFont,sans-serif">采购入库</text><path d="M620,-480 C670,-480 670,-560 720,-560" fill="none" stroke="#6F81DB" stroke-width="2"/><rect x="720" y="-575" width="80" height="30" rx="6" fill="#fafafa" stroke="none"/><text x="760" y="-555" text-anchor="middle" font-size="13" fill="#333" font-family="-apple-system,BlinkMacSystemFont,sans-serif">调拨入库</text><path d="M620,-480 C670,-480 670,-520 720,-520" fill="none" stroke="#6F81DB" stroke-width="2"/><rect x="720" y="-535" width="80" height="30" rx="6" fill="#fafafa" stroke="none"/><text x="760" y="-515" text-anchor="middle" font-size="13" fill="#333" font-family="-apple-system,BlinkMacSystemFont,sans-serif">销售退货</text><path d="M620,-480 C670,-480 670,-480 720,-480" fill="none" stroke="#6F81DB" stroke-width="2"/><rect x="720" y="-495" width="80" height="30" rx="6" fill="#fafafa" stroke="none"/><text x="760" y="-475" text-anchor="middle" font-size="13" fill="#333" font-family="-apple-system,BlinkMacSystemFont,sans-serif">盘盈入库</text><path d="M620,-480 C670,-480 670,-440 720,-440" fill="none" stroke="#6F81DB" stroke-width="2"/><rect x="720" y="-455" width="80" height="30" rx="6" fill="#fafafa" stroke="none"/><text x="760" y="-435" text-anchor="middle" font-size="13" fill="#333" font-family="-apple-system,BlinkMacSystemFont,sans-serif">期初导入</text><path d="M620,-480 C670,-480 670,-400 720,-400" fill="none" stroke="#6F81DB" stroke-width="2"/><rect x="720" y="-415" width="80" height="30" rx="6" fill="#fafafa" stroke="none"/><text x="760" y="-395" text-anchor="middle" font-size="13" fill="#333" font-family="-apple-system,BlinkMacSystemFont,sans-serif">其他入库</text><path d="M620,-480 C670,-480 670,-360 720,-360" fill="none" stroke="#6F81DB" stroke-width="2"/><rect x="720" y="-375" width="130" height="30" rx="6" fill="#fafafa" stroke="none"/><text x="785" y="-355" text-anchor="middle" font-size="13" fill="#333" font-family="-apple-system,BlinkMacSystemFont,sans-serif">加工（成品）入库</text><path d="M477,-340 C508.5,-340 508.5,-220 540,-220" fill="none" stroke="#6F81DB" stroke-width="2"/><rect x="540" y="-235" width="80" height="30" rx="6" fill="#fafafa" stroke="none"/><text x="580" y="-215" text-anchor="middle" font-size="13" fill="#333" font-family="-apple-system,BlinkMacSystemFont,sans-serif">减少库存</text><path d="M620,-220 C670,-220 670,-320 720,-320" fill="none" stroke="#6F81DB" stroke-width="2"/><rect x="720" y="-335" width="80" height="30" rx="6" fill="#fafafa" stroke="none"/><text x="760" y="-315" text-anchor="middle" font-size="13" fill="#333" font-family="-apple-system,BlinkMacSystemFont,sans-serif">销售出库</text><path d="M620,-220 C670,-220 670,-280 720,-280" fill="none" stroke="#6F81DB" stroke-width="2"/><rect x="720" y="-295" width="80" height="30" rx="6" fill="#fafafa" stroke="none"/><text x="760" y="-275" text-anchor="middle" font-size="13" fill="#333" font-family="-apple-system,BlinkMacSystemFont,sans-serif">调拨出库</text><path d="M620,-220 C670,-220 670,-240 720,-240" fill="none" stroke="#6F81DB" stroke-width="2"/><rect x="720" y="-255" width="80" height="30" rx="6" fill="#fafafa" stroke="none"/><text x="760" y="-235" text-anchor="middle" font-size="13" fill="#333" font-family="-apple-system,BlinkMacSystemFont,sans-serif">采购退货</text><path d="M620,-220 C670,-220 670,-200 720,-200" fill="none" stroke="#6F81DB" stroke-width="2"/><rect x="720" y="-215" width="80" height="30" rx="6" fill="#fafafa" stroke="none"/><text x="760" y="-195" text-anchor="middle" font-size="13" fill="#333" font-family="-apple-system,BlinkMacSystemFont,sans-serif">盘亏出库</text><path d="M620,-220 C670,-220 670,-160 720,-160" fill="none" stroke="#6F81DB" stroke-width="2"/><rect x="720" y="-175" width="130" height="30" rx="6" fill="#fafafa" stroke="none"/><text x="785" y="-155" text-anchor="middle" font-size="13" fill="#333" font-family="-apple-system,BlinkMacSystemFont,sans-serif">加工（原料）出库</text><path d="M620,-220 C670,-220 670,-120 720,-120" fill="none" stroke="#6F81DB" stroke-width="2"/><rect x="720" y="-135" width="80" height="30" rx="6" fill="#fafafa" stroke="none"/><text x="760" y="-115" text-anchor="middle" font-size="13" fill="#333" font-family="-apple-system,BlinkMacSystemFont,sans-serif">其他出库</text><path d="M477,-340 C508.5,-340 508.5,-80 540,-80" fill="none" stroke="#6F81DB" stroke-width="2"/><rect x="540" y="-95" width="80" height="30" rx="6" fill="transparent" stroke="#BFBFBF"/><text x="580" y="-75" text-anchor="middle" font-size="13" fill="#333" font-family="-apple-system,BlinkMacSystemFont,sans-serif"></text><path d="M260,0 C310,0 310,-20 360,-20" fill="none" stroke="#6F81DB" stroke-width="2"/><rect x="360" y="-35" width="117" height="30" rx="6" fill="#fafafa" stroke="none"/><text x="418.5" y="-15" text-anchor="middle" font-size="13" fill="#333" font-family="-apple-system,BlinkMacSystemFont,sans-serif">库存流水示意图</text><path d="M477,-20 C508.5,-20 508.5,-40 540,-40" fill="none" stroke="#6F81DB" stroke-width="2"/><rect x="540" y="-55" width="455.52" height="30" rx="6" fill="#fafafa" stroke="none"/><text x="767.76" y="-35" text-anchor="middle" font-size="13" fill="#333" font-family="-apple-system,BlinkMacSystemFont,sans-serif">后续单独精讲这一块，采用“表格推演法”可以非常清晰地解释这一块的逻辑</text><path d="M477,-20 C508.5,-20 508.5,0 540,0" fill="none" stroke="#6F81DB" stroke-width="2"/><rect x="540" y="-15" width="195" height="30" rx="6" fill="#fafafa" stroke="none"/><text x="637.5" y="5" text-anchor="middle" font-size="13" fill="#333" font-family="-apple-system,BlinkMacSystemFont,sans-serif">《实战供应链》的参考示意图</text><path d="M735,0 C727.5,0 727.5,0 720,0" fill="none" stroke="#6F81DB" stroke-width="2"/><rect x="720" y="-15" width="80" height="30" rx="6" fill="#fafafa" stroke="none"/><text x="760" y="5" text-anchor="middle" font-size="13" fill="#333" font-family="-apple-system,BlinkMacSystemFont,sans-serif"></text><path d="M260,0 C310,0 310,120 360,120" fill="none" stroke="#6F81DB" stroke-width="2"/><rect x="360" y="105" width="80" height="30" rx="6" fill="#fafafa" stroke="none"/><text x="400" y="125" text-anchor="middle" font-size="13" fill="#333" font-family="-apple-system,BlinkMacSystemFont,sans-serif">功能结构</text><path d="M440,120 C490,120 490,40 540,40" fill="none" stroke="#6F81DB" stroke-width="2"/><rect x="540" y="25" width="91" height="30" rx="6" fill="#fafafa" stroke="none"/><text x="585.5" y="45" text-anchor="middle" font-size="13" fill="#333" font-family="-apple-system,BlinkMacSystemFont,sans-serif">按仓库查询</text><path d="M440,120 C490,120 490,80 540,80" fill="none" stroke="#6F81DB" stroke-width="2"/><rect x="540" y="65" width="91" height="30" rx="6" fill="#fafafa" stroke="none"/><text x="585.5" y="85" text-anchor="middle" font-size="13" fill="#333" font-family="-apple-system,BlinkMacSystemFont,sans-serif">按产品查询</text><path d="M631,80 C675.5,80 675.5,80 720,80" fill="none" stroke="#6F81DB" stroke-width="2"/><rect x="720" y="65" width="80" height="30" rx="6" fill="#fafafa" stroke="none"/><text x="760" y="85" text-anchor="middle" font-size="13" fill="#333" font-family="-apple-system,BlinkMacSystemFont,sans-serif">库存流水</text><path d="M440,120 C490,120 490,120 540,120" fill="none" stroke="#6F81DB" stroke-width="2"/><rect x="540" y="105" width="123.75999999999999" height="30" rx="6" fill="#fafafa" stroke="none"/><text x="601.88" y="125" text-anchor="middle" font-size="13" fill="#333" font-family="-apple-system,BlinkMacSystemFont,sans-serif">按产品/批次查询</text><path d="M440,120 C490,120 490,160 540,160" fill="none" stroke="#6F81DB" stroke-width="2"/><rect x="540" y="145" width="80" height="30" rx="6" fill="#fafafa" stroke="none"/><text x="580" y="165" text-anchor="middle" font-size="13" fill="#333" font-family="-apple-system,BlinkMacSystemFont,sans-serif">成本明细</text><path d="M440,120 C490,120 490,200 540,200" fill="none" stroke="#6F81DB" stroke-width="2"/><rect x="540" y="185" width="80" height="30" rx="6" fill="#fafafa" stroke="none"/><text x="580" y="205" text-anchor="middle" font-size="13" fill="#333" font-family="-apple-system,BlinkMacSystemFont,sans-serif">导出</text><path d="M260,0 C310,0 310,600 360,600" fill="none" stroke="#6F81DB" stroke-width="2"/><rect x="360" y="585" width="208" height="30" rx="6" fill="#fafafa" stroke="none"/><text x="464" y="605" text-anchor="middle" font-size="13" fill="#333" font-family="-apple-system,BlinkMacSystemFont,sans-serif">信息结构（包含了拓展的模块）</text><path d="M568,600 C554,600 554,600 540,600" fill="none" stroke="#6F81DB" stroke-width="2"/><rect x="540" y="585" width="156" height="30" rx="6" fill="#fafafa" stroke="none"/><text x="618" y="605" text-anchor="middle" font-size="13" fill="#333" font-family="-apple-system,BlinkMacSystemFont,sans-serif">库存查询（核心字段）</text><path d="M696,600 C708,600 708,360 720,360" fill="none" stroke="#6F81DB" stroke-width="2"/><rect x="720" y="345" width="80" height="30" rx="6" fill="#fafafa" stroke="none"/><text x="760" y="365" text-anchor="middle" font-size="13" fill="#333" font-family="-apple-system,BlinkMacSystemFont,sans-serif">商品</text><path d="M800,360 C850,360 850,240 900,240" fill="none" stroke="#6F81DB" stroke-width="2"/><rect x="900" y="225" width="80" height="30" rx="6" fill="#fafafa" stroke="none"/><text x="940" y="245" text-anchor="middle" font-size="13" fill="#333" font-family="-apple-system,BlinkMacSystemFont,sans-serif">SKU</text><path d="M800,360 C850,360 850,280 900,280" fill="none" stroke="#6F81DB" stroke-width="2"/><rect x="900" y="265" width="80" height="30" rx="6" fill="#fafafa" stroke="none"/><text x="940" y="285" text-anchor="middle" font-size="13" fill="#333" font-family="-apple-system,BlinkMacSystemFont,sans-serif">商品编码</text><path d="M800,360 C850,360 850,320 900,320" fill="none" stroke="#6F81DB" stroke-width="2"/><rect x="900" y="305" width="80" height="30" rx="6" fill="#fafafa" stroke="none"/><text x="940" y="325" text-anchor="middle" font-size="13" fill="#333" font-family="-apple-system,BlinkMacSystemFont,sans-serif">商品属性</text><path d="M800,360 C850,360 850,360 900,360" fill="none" stroke="#6F81DB" stroke-width="2"/><rect x="900" y="345" width="80" height="30" rx="6" fill="#fafafa" stroke="none"/><text x="940" y="365" text-anchor="middle" font-size="13" fill="#333" font-family="-apple-system,BlinkMacSystemFont,sans-serif">商品规格</text><path d="M800,360 C850,360 850,400 900,400" fill="none" stroke="#6F81DB" stroke-width="2"/><rect x="900" y="385" width="80" height="30" rx="6" fill="#fafafa" stroke="none"/><text x="940" y="405" text-anchor="middle" font-size="13" fill="#333" font-family="-apple-system,BlinkMacSystemFont,sans-serif">商品分类</text><path d="M800,360 C850,360 850,460 900,460" fill="none" stroke="#6F81DB" stroke-width="2"/><rect x="900" y="445" width="91" height="30" rx="6" fill="#fafafa" stroke="none"/><text x="945.5" y="465" text-anchor="middle" font-size="13" fill="#333" font-family="-apple-system,BlinkMacSystemFont,sans-serif">商品正次品</text><path d="M991,460 C1035.5,460 1035.5,440 1080,440" fill="none" stroke="#6F81DB" stroke-width="2"/><rect x="1080" y="425" width="80" height="30" rx="6" fill="#fafafa" stroke="none"/><text x="1120" y="445" text-anchor="middle" font-size="13" fill="#333" font-family="-apple-system,BlinkMacSystemFont,sans-serif">正品</text><path d="M991,460 C1035.5,460 1035.5,480 1080,480" fill="none" stroke="#6F81DB" stroke-width="2"/><rect x="1080" y="465" width="80" height="30" rx="6" fill="#fafafa" stroke="none"/><text x="1120" y="485" text-anchor="middle" font-size="13" fill="#333" font-family="-apple-system,BlinkMacSystemFont,sans-serif">次品</text><path d="M696,600 C708,600 708,540 720,540" fill="none" stroke="#6F81DB" stroke-width="2"/><rect x="720" y="525" width="80" height="30" rx="6" fill="#fafafa" stroke="none"/><text x="760" y="545" text-anchor="middle" font-size="13" fill="#333" font-family="-apple-system,BlinkMacSystemFont,sans-serif">仓库</text><path d="M800,540 C850,540 850,520 900,520" fill="none" stroke="#6F81DB" stroke-width="2"/><rect x="900" y="505" width="80" height="30" rx="6" fill="#fafafa" stroke="none"/><text x="940" y="525" text-anchor="middle" font-size="13" fill="#333" font-family="-apple-system,BlinkMacSystemFont,sans-serif">仓库名称</text><path d="M800,540 C850,540 850,560 900,560" fill="none" stroke="#6F81DB" stroke-width="2"/><rect x="900" y="545" width="80" height="30" rx="6" fill="#fafafa" stroke="none"/><text x="940" y="565" text-anchor="middle" font-size="13" fill="#333" font-family="-apple-system,BlinkMacSystemFont,sans-serif">仓库编码</text><path d="M696,600 C708,600 708,680 720,680" fill="none" stroke="#6F81DB" stroke-width="2"/><rect x="720" y="665" width="80" height="30" rx="6" fill="#fafafa" stroke="none"/><text x="760" y="685" text-anchor="middle" font-size="13" fill="#333" font-family="-apple-system,BlinkMacSystemFont,sans-serif">单位</text><path d="M800,680 C850,680 850,600 900,600" fill="none" stroke="#6F81DB" stroke-width="2"/><rect x="900" y="585" width="80" height="30" rx="6" fill="#fafafa" stroke="none"/><text x="940" y="605" text-anchor="middle" font-size="13" fill="#333" font-family="-apple-system,BlinkMacSystemFont,sans-serif">个</text><path d="M800,680 C850,680 850,640 900,640" fill="none" stroke="#6F81DB" stroke-width="2"/><rect x="900" y="625" width="80" height="30" rx="6" fill="#fafafa" stroke="none"/><text x="940" y="645" text-anchor="middle" font-size="13" fill="#333" font-family="-apple-system,BlinkMacSystemFont,sans-serif">件</text><path d="M800,680 C850,680 850,680 900,680" fill="none" stroke="#6F81DB" stroke-width="2"/><rect x="900" y="665" width="80" height="30" rx="6" fill="#fafafa" stroke="none"/><text x="940" y="685" text-anchor="middle" font-size="13" fill="#333" font-family="-apple-system,BlinkMacSystemFont,sans-serif">箱</text><path d="M800,680 C850,680 850,720 900,720" fill="none" stroke="#6F81DB" stroke-width="2"/><rect x="900" y="705" width="80" height="30" rx="6" fill="#fafafa" stroke="none"/><text x="940" y="725" text-anchor="middle" font-size="13" fill="#333" font-family="-apple-system,BlinkMacSystemFont,sans-serif">……</text><path d="M800,680 C850,680 850,760 900,760" fill="none" stroke="#6F81DB" stroke-width="2"/><rect x="900" y="745" width="80" height="30" rx="6" fill="transparent" stroke="#BFBFBF"/><text x="940" y="765" text-anchor="middle" font-size="13" fill="#333" font-family="-apple-system,BlinkMacSystemFont,sans-serif">多单位</text><path d="M696,600 C708,600 708,800 720,800" fill="none" stroke="#6F81DB" stroke-width="2"/><rect x="720" y="785" width="80" height="30" rx="6" fill="#fafafa" stroke="none"/><text x="760" y="805" text-anchor="middle" font-size="13" fill="#333" font-family="-apple-system,BlinkMacSystemFont,sans-serif">货主</text><path d="M800,800 C850,800 850,800 900,800" fill="none" stroke="#6F81DB" stroke-width="2"/><rect x="900" y="785" width="80" height="30" rx="6" fill="#fafafa" stroke="none"/><text x="940" y="805" text-anchor="middle" font-size="13" fill="#333" font-family="-apple-system,BlinkMacSystemFont,sans-serif">货主名称</text><path d="M696,600 C708,600 708,900 720,900" fill="none" stroke="#6F81DB" stroke-width="2"/><rect x="720" y="885" width="80" height="30" rx="6" fill="#fafafa" stroke="none"/><text x="760" y="905" text-anchor="middle" font-size="13" fill="#333" font-family="-apple-system,BlinkMacSystemFont,sans-serif">库存数量</text><path d="M800,900 C850,900 850,840 900,840" fill="none" stroke="#6F81DB" stroke-width="2"/><rect x="900" y="825" width="80" height="30" rx="6" fill="#fafafa" stroke="none"/><text x="940" y="845" text-anchor="middle" font-size="13" fill="#333" font-family="-apple-system,BlinkMacSystemFont,sans-serif">实际库存</text><path d="M800,900 C850,900 850,880 900,880" fill="none" stroke="#6F81DB" stroke-width="2"/><rect x="900" y="865" width="80" height="30" rx="6" fill="#fafafa" stroke="none"/><text x="940" y="885" text-anchor="middle" font-size="13" fill="#333" font-family="-apple-system,BlinkMacSystemFont,sans-serif">锁定库存</text><path d="M800,900 C850,900 850,920 900,920" fill="none" stroke="#6F81DB" stroke-width="2"/><rect x="900" y="905" width="80" height="30" rx="6" fill="#fafafa" stroke="none"/><text x="940" y="925" text-anchor="middle" font-size="13" fill="#333" font-family="-apple-system,BlinkMacSystemFont,sans-serif">在途库存</text><path d="M800,900 C850,900 850,960 900,960" fill="none" stroke="#6F81DB" stroke-width="2"/><rect x="900" y="945" width="80" height="30" rx="6" fill="#fafafa" stroke="none"/><text x="940" y="965" text-anchor="middle" font-size="13" fill="#333" font-family="-apple-system,BlinkMacSystemFont,sans-serif">可用库存</text>
</svg>