<svg xmlns="http://www.w3.org/2000/svg" xmlns:xlink="http://www.w3.org/1999/xlink"
  viewBox="-666.3108311249221 -241.88613891601562 1080.48 1208.4999998632813" width="1080.48" height="1208.4999998632813"
  style="background:#fff; font-family:-apple-system,BlinkMacSystemFont,'Segoe UI',Roboto,sans-serif;">
<defs></defs>
<rect x="-666.3108311249221" y="-241.88613891601562" width="1080.48" height="1208.4999998632813" fill="#fff"/>
<rect x="-582.3108311249221" y="369.6138609472657" width="224.96" height="36" rx="8" fill="#EFF0F0" stroke="none"/><text x="-469.8308311249221" y="393.6138609472657" text-anchor="middle" font-size="16" font-weight="bold" fill="#333" font-family="-apple-system,BlinkMacSystemFont,sans-serif">ERP订单管理的产品结构图</text><path d="M-357.3508311249221,387.6138609472657 C-267.3508311249221,387.6138609472657 -267.3508311249221,247.61386094726572 -177.35083112492208,247.61386094726572" fill="none" stroke="#A287E1" stroke-width="2"/><rect x="-289.8308311249221" y="232.61386094726572" width="80" height="30" rx="6" fill="#fafafa" stroke="none"/><text x="-249.8308311249221" y="252.61386094726572" text-anchor="middle" font-size="13" fill="#333" font-family="-apple-system,BlinkMacSystemFont,sans-serif">功能结构</text><path d="M-209.8308311249221,247.61386094726572 C-159.8308311249221,247.61386094726572 -159.8308311249221,-72.38613905273428 -109.8308311249221,-72.38613905273428" fill="none" stroke="#A287E1" stroke-width="2"/><rect x="-109.8308311249221" y="-87.38613905273428" width="80" height="30" rx="6" fill="#fafafa" stroke="none"/><text x="-69.8308311249221" y="-67.38613905273428" text-anchor="middle" font-size="13" fill="#333" font-family="-apple-system,BlinkMacSystemFont,sans-serif">订单获取</text><path d="M-29.8308311249221,-72.38613905273428 C20.1691688750779,-72.38613905273428 20.1691688750779,-92.38613905273428 70.1691688750779,-92.38613905273428" fill="none" stroke="#A287E1" stroke-width="2"/><rect x="70.1691688750779" y="-107.38613905273428" width="110.75999999999999" height="30" rx="6" fill="#fafafa" stroke="none"/><text x="125.5491688750779" y="-87.38613905273428" text-anchor="middle" font-size="13" fill="#333" font-family="-apple-system,BlinkMacSystemFont,sans-serif">订单拉取/同步</text><path d="M-29.8308311249221,-72.38613905273428 C20.1691688750779,-72.38613905273428 20.1691688750779,-52.38613905273428 70.1691688750779,-52.38613905273428" fill="none" stroke="#A287E1" stroke-width="2"/><rect x="70.1691688750779" y="-67.38613905273428" width="80" height="30" rx="6" fill="#fafafa" stroke="none"/><text x="110.1691688750779" y="-47.38613905273428" text-anchor="middle" font-size="13" fill="#333" font-family="-apple-system,BlinkMacSystemFont,sans-serif">商品配对</text><path d="M-209.8308311249221,247.61386094726572 C-159.8308311249221,247.61386094726572 -159.8308311249221,207.61386094726572 -109.8308311249221,207.61386094726572" fill="none" stroke="#A287E1" stroke-width="2"/><rect x="-109.8308311249221" y="192.61386094726572" width="104" height="30" rx="6" fill="#fafafa" stroke="none"/><text x="-57.8308311249221" y="212.61386094726572" text-anchor="middle" font-size="13" fill="#333" font-family="-apple-system,BlinkMacSystemFont,sans-serif">订单审核处理</text><path d="M-5.830831124922099,207.61386094726572 C32.1691688750779,207.61386094726572 32.1691688750779,87.61386094726572 70.1691688750779,87.61386094726572" fill="none" stroke="#A287E1" stroke-width="2"/><rect x="70.1691688750779" y="72.61386094726572" width="80" height="30" rx="6" fill="#fafafa" stroke="none"/><text x="110.1691688750779" y="92.61386094726572" text-anchor="middle" font-size="13" fill="#333" font-family="-apple-system,BlinkMacSystemFont,sans-serif">订单修改</text><path d="M150.1691688750779,87.61386094726572 C200.1691688750779,87.61386094726572 200.1691688750779,-12.38613905273428 250.1691688750779,-12.38613905273428" fill="none" stroke="#A287E1" stroke-width="2"/><rect x="250.1691688750779" y="-27.38613905273428" width="80" height="30" rx="6" fill="#fafafa" stroke="none"/><text x="290.1691688750779" y="-7.386139052734279" text-anchor="middle" font-size="13" fill="#333" font-family="-apple-system,BlinkMacSystemFont,sans-serif">替换商品</text><path d="M150.1691688750779,87.61386094726572 C200.1691688750779,87.61386094726572 200.1691688750779,27.61386094726572 250.1691688750779,27.61386094726572" fill="none" stroke="#A287E1" stroke-width="2"/><rect x="250.1691688750779" y="12.61386094726572" width="80" height="30" rx="6" fill="#fafafa" stroke="none"/><text x="290.1691688750779" y="32.61386094726572" text-anchor="middle" font-size="13" fill="#333" font-family="-apple-system,BlinkMacSystemFont,sans-serif">增加赠品</text><path d="M150.1691688750779,87.61386094726572 C200.1691688750779,87.61386094726572 200.1691688750779,67.61386094726572 250.1691688750779,67.61386094726572" fill="none" stroke="#A287E1" stroke-width="2"/><rect x="250.1691688750779" y="52.61386094726572" width="80" height="30" rx="6" fill="#fafafa" stroke="none"/><text x="290.1691688750779" y="72.61386094726572" text-anchor="middle" font-size="13" fill="#333" font-family="-apple-system,BlinkMacSystemFont,sans-serif">取消订单</text><path d="M150.1691688750779,87.61386094726572 C200.1691688750779,87.61386094726572 200.1691688750779,107.61386094726572 250.1691688750779,107.61386094726572" fill="none" stroke="#A287E1" stroke-width="2"/><rect x="250.1691688750779" y="92.61386094726572" width="80" height="30" rx="6" fill="#fafafa" stroke="none"/><text x="290.1691688750779" y="112.61386094726572" text-anchor="middle" font-size="13" fill="#333" font-family="-apple-system,BlinkMacSystemFont,sans-serif">标记订单</text><path d="M150.1691688750779,87.61386094726572 C200.1691688750779,87.61386094726572 200.1691688750779,147.61386094726572 250.1691688750779,147.61386094726572" fill="none" stroke="#A287E1" stroke-width="2"/><rect x="250.1691688750779" y="132.61386094726572" width="80" height="30" rx="6" fill="#fafafa" stroke="none"/><text x="290.1691688750779" y="152.61386094726572" text-anchor="middle" font-size="13" fill="#333" font-family="-apple-system,BlinkMacSystemFont,sans-serif">添加备注</text><path d="M150.1691688750779,87.61386094726572 C200.1691688750779,87.61386094726572 200.1691688750779,187.61386094726572 250.1691688750779,187.61386094726572" fill="none" stroke="#A287E1" stroke-width="2"/><rect x="250.1691688750779" y="172.61386094726572" width="80" height="30" rx="6" fill="#fafafa" stroke="none"/><text x="290.1691688750779" y="192.61386094726572" text-anchor="middle" font-size="13" fill="#333" font-family="-apple-system,BlinkMacSystemFont,sans-serif">添加标签</text><path d="M-5.830831124922099,207.61386094726572 C32.1691688750779,207.61386094726572 32.1691688750779,227.61386094726572 70.1691688750779,227.61386094726572" fill="none" stroke="#A287E1" stroke-width="2"/><rect x="70.1691688750779" y="212.61386094726572" width="130" height="30" rx="6" fill="#fafafa" stroke="none"/><text x="135.1691688750779" y="232.61386094726572" text-anchor="middle" font-size="13" fill="#333" font-family="-apple-system,BlinkMacSystemFont,sans-serif">订单寻仓、寻物流</text><path d="M-5.830831124922099,207.61386094726572 C32.1691688750779,207.61386094726572 32.1691688750779,267.6138609472657 70.1691688750779,267.6138609472657" fill="none" stroke="#A287E1" stroke-width="2"/><rect x="70.1691688750779" y="252.61386094726572" width="162.76" height="30" rx="6" fill="#fafafa" stroke="none"/><text x="151.5491688750779" y="272.6138609472657" text-anchor="middle" font-size="13" fill="#333" font-family="-apple-system,BlinkMacSystemFont,sans-serif">订单自动规则/策略处理</text><path d="M-5.830831124922099,207.61386094726572 C32.1691688750779,207.61386094726572 32.1691688750779,307.6138609472657 70.1691688750779,307.6138609472657" fill="none" stroke="#A287E1" stroke-width="2"/><rect x="70.1691688750779" y="292.6138609472657" width="111.80000000000001" height="30" rx="6" fill="#fafafa" stroke="none"/><text x="126.0691688750779" y="312.6138609472657" text-anchor="middle" font-size="13" fill="#333" font-family="-apple-system,BlinkMacSystemFont,sans-serif">订单冻结/Hold</text><path d="M-5.830831124922099,207.61386094726572 C32.1691688750779,207.61386094726572 32.1691688750779,347.6138609472657 70.1691688750779,347.6138609472657" fill="none" stroke="#A287E1" stroke-width="2"/><rect x="70.1691688750779" y="332.6138609472657" width="104" height="30" rx="6" fill="#fafafa" stroke="none"/><text x="122.1691688750779" y="352.6138609472657" text-anchor="middle" font-size="13" fill="#333" font-family="-apple-system,BlinkMacSystemFont,sans-serif">订单拆、合单</text><path d="M-5.830831124922099,207.61386094726572 C32.1691688750779,207.61386094726572 32.1691688750779,387.6138609472657 70.1691688750779,387.6138609472657" fill="none" stroke="#A287E1" stroke-width="2"/><rect x="70.1691688750779" y="372.6138609472657" width="104" height="30" rx="6" fill="#fafafa" stroke="none"/><text x="122.1691688750779" y="392.6138609472657" text-anchor="middle" font-size="13" fill="#333" font-family="-apple-system,BlinkMacSystemFont,sans-serif">客服消息处理</text><path d="M-5.830831124922099,207.61386094726572 C32.1691688750779,207.61386094726572 32.1691688750779,427.6138609472657 70.1691688750779,427.6138609472657" fill="none" stroke="#A287E1" stroke-width="2"/><rect x="70.1691688750779" y="412.6138609472657" width="143.51999999999998" height="30" rx="6" fill="#fafafa" stroke="none"/><text x="141.9291688750779" y="432.6138609472657" text-anchor="middle" font-size="13" fill="#333" font-family="-apple-system,BlinkMacSystemFont,sans-serif">库存分配/锁定/释放</text><path d="M-209.8308311249221,247.61386094726572 C-159.8308311249221,247.61386094726572 -159.8308311249221,527.6138609472657 -109.8308311249221,527.6138609472657" fill="none" stroke="#A287E1" stroke-width="2"/><rect x="-109.8308311249221" y="512.6138609472657" width="80" height="30" rx="6" fill="#fafafa" stroke="none"/><text x="-69.8308311249221" y="532.6138609472657" text-anchor="middle" font-size="13" fill="#333" font-family="-apple-system,BlinkMacSystemFont,sans-serif">订单跟进</text><path d="M-29.8308311249221,527.6138609472657 C20.1691688750779,527.6138609472657 20.1691688750779,467.6138609472657 70.1691688750779,467.6138609472657" fill="none" stroke="#A287E1" stroke-width="2"/><rect x="70.1691688750779" y="452.6138609472657" width="104" height="30" rx="6" fill="#fafafa" stroke="none"/><text x="122.1691688750779" y="472.6138609472657" text-anchor="middle" font-size="13" fill="#333" font-family="-apple-system,BlinkMacSystemFont,sans-serif">申请物流面单</text><path d="M-29.8308311249221,527.6138609472657 C20.1691688750779,527.6138609472657 20.1691688750779,507.6138609472657 70.1691688750779,507.6138609472657" fill="none" stroke="#A287E1" stroke-width="2"/><rect x="70.1691688750779" y="492.6138609472657" width="104" height="30" rx="6" fill="#fafafa" stroke="none"/><text x="122.1691688750779" y="512.6138609472657" text-anchor="middle" font-size="13" fill="#333" font-family="-apple-system,BlinkMacSystemFont,sans-serif">推送三方仓库</text><path d="M-29.8308311249221,527.6138609472657 C20.1691688750779,527.6138609472657 20.1691688750779,547.6138609472657 70.1691688750779,547.6138609472657" fill="none" stroke="#A287E1" stroke-width="2"/><rect x="70.1691688750779" y="532.6138609472657" width="104" height="30" rx="6" fill="#fafafa" stroke="none"/><text x="122.1691688750779" y="552.6138609472657" text-anchor="middle" font-size="13" fill="#333" font-family="-apple-system,BlinkMacSystemFont,sans-serif">跟进发货状态</text><path d="M-29.8308311249221,527.6138609472657 C20.1691688750779,527.6138609472657 20.1691688750779,587.6138609472657 70.1691688750779,587.6138609472657" fill="none" stroke="#A287E1" stroke-width="2"/><rect x="70.1691688750779" y="572.6138609472657" width="80" height="30" rx="6" fill="#fafafa" stroke="none"/><text x="110.1691688750779" y="592.6138609472657" text-anchor="middle" font-size="13" fill="#333" font-family="-apple-system,BlinkMacSystemFont,sans-serif">标记发货</text><path d="M-357.3508311249221,387.6138609472657 C-267.3508311249221,387.6138609472657 -267.3508311249221,747.6138609472657 -177.35083112492208,747.6138609472657" fill="none" stroke="#6F81DB" stroke-width="2"/><rect x="-289.8308311249221" y="732.6138609472657" width="80" height="30" rx="6" fill="#fafafa" stroke="none"/><text x="-249.8308311249221" y="752.6138609472657" text-anchor="middle" font-size="13" fill="#333" font-family="-apple-system,BlinkMacSystemFont,sans-serif">信息结构</text><path d="M-209.8308311249221,747.6138609472657 C-159.8308311249221,747.6138609472657 -159.8308311249221,627.6138609472657 -109.8308311249221,627.6138609472657" fill="none" stroke="#6F81DB" stroke-width="2"/><rect x="-109.8308311249221" y="612.6138609472657" width="306.28" height="30" rx="6" fill="#fafafa" stroke="none"/><text x="43.30916887507789" y="632.6138609472657" text-anchor="middle" font-size="13" fill="#333" font-family="-apple-system,BlinkMacSystemFont,sans-serif">订单基础信息（如订单号/订单状态/类型来源…）</text><path d="M-209.8308311249221,747.6138609472657 C-159.8308311249221,747.6138609472657 -159.8308311249221,667.6138609472657 -109.8308311249221,667.6138609472657" fill="none" stroke="#6F81DB" stroke-width="2"/><rect x="-109.8308311249221" y="652.6138609472657" width="91" height="30" rx="6" fill="#fafafa" stroke="none"/><text x="-64.3308311249221" y="672.6138609472657" text-anchor="middle" font-size="13" fill="#333" font-family="-apple-system,BlinkMacSystemFont,sans-serif">收件人信息</text><path d="M-209.8308311249221,747.6138609472657 C-159.8308311249221,747.6138609472657 -159.8308311249221,707.6138609472657 -109.8308311249221,707.6138609472657" fill="none" stroke="#6F81DB" stroke-width="2"/><rect x="-109.8308311249221" y="692.6138609472657" width="247" height="30" rx="6" fill="#fafafa" stroke="none"/><text x="13.6691688750779" y="712.6138609472657" text-anchor="middle" font-size="13" fill="#333" font-family="-apple-system,BlinkMacSystemFont,sans-serif">商品信息（金额，数量，促销信息等）</text><path d="M-209.8308311249221,747.6138609472657 C-159.8308311249221,747.6138609472657 -159.8308311249221,747.6138609472657 -109.8308311249221,747.6138609472657" fill="none" stroke="#6F81DB" stroke-width="2"/><rect x="-109.8308311249221" y="732.6138609472657" width="247" height="30" rx="6" fill="#fafafa" stroke="none"/><text x="13.6691688750779" y="752.6138609472657" text-anchor="middle" font-size="13" fill="#333" font-family="-apple-system,BlinkMacSystemFont,sans-serif">支付信息（支付金额，方式，帐号等）</text><path d="M-209.8308311249221,747.6138609472657 C-159.8308311249221,747.6138609472657 -159.8308311249221,787.6138609472657 -109.8308311249221,787.6138609472657" fill="none" stroke="#6F81DB" stroke-width="2"/><rect x="-109.8308311249221" y="772.6138609472657" width="156.51999999999998" height="30" rx="6" fill="#fafafa" stroke="none"/><text x="-31.57083112492211" y="792.6138609472657" text-anchor="middle" font-size="13" fill="#333" font-family="-apple-system,BlinkMacSystemFont,sans-serif">仓储/物流/库存等信息</text><path d="M-209.8308311249221,747.6138609472657 C-159.8308311249221,747.6138609472657 -159.8308311249221,827.6138609472657 -109.8308311249221,827.6138609472657" fill="none" stroke="#6F81DB" stroke-width="2"/><rect x="-109.8308311249221" y="812.6138609472657" width="260.52" height="30" rx="6" fill="#fafafa" stroke="none"/><text x="20.42916887507789" y="832.6138609472657" text-anchor="middle" font-size="13" fill="#333" font-family="-apple-system,BlinkMacSystemFont,sans-serif">其他信息：卖家备注，业务人员，标签……</text><path d="M-209.8308311249221,747.6138609472657 C-159.8308311249221,747.6138609472657 -159.8308311249221,867.6138609472657 -109.8308311249221,867.6138609472657" fill="none" stroke="#6F81DB" stroke-width="2"/><rect x="-109.8308311249221" y="852.6138609472657" width="80" height="30" rx="6" fill="#fafafa" stroke="none"/><text x="-69.8308311249221" y="872.6138609472657" text-anchor="middle" font-size="13" fill="#333" font-family="-apple-system,BlinkMacSystemFont,sans-serif">……</text>
</svg>