<svg xmlns="http://www.w3.org/2000/svg" xmlns:xlink="http://www.w3.org/1999/xlink"
  viewBox="-134 -839 1772 1678" width="1772" height="1678"
  style="background:#fff; font-family:-apple-system,BlinkMacSystemFont,'Segoe UI',Roboto,sans-serif;">
<defs></defs>
<rect x="-134" y="-839" width="1772" height="1678" fill="#fff"/>
<rect x="-50" y="-18" width="100" height="36" rx="8" fill="#EFF0F0" stroke="none"/><text x="0" y="6" text-anchor="middle" font-size="16" font-weight="bold" fill="#333" font-family="-apple-system,BlinkMacSystemFont,sans-serif">维他SRM</text><path d="M50,0 C140,0 140,-380 230,-380" fill="none" stroke="#A287E1" stroke-width="2"/><rect x="180" y="-395" width="104" height="30" rx="6" fill="#fafafa" stroke="none"/><text x="232" y="-375" text-anchor="middle" font-size="13" fill="#333" font-family="-apple-system,BlinkMacSystemFont,sans-serif">业务发展历程</text><path d="M284,-380 C322,-380 322,-600 360,-600" fill="none" stroke="#A287E1" stroke-width="2"/><rect x="360" y="-615" width="104.52" height="30" rx="6" fill="#fafafa" stroke="none"/><text x="412.26" y="-595" text-anchor="middle" font-size="13" fill="#333" font-family="-apple-system,BlinkMacSystemFont,sans-serif">1.早期的时候</text><path d="M464.52,-600 C502.26,-600 502.26,-740 540,-740" fill="none" stroke="#A287E1" stroke-width="2"/><rect x="540" y="-755" width="80" height="30" rx="6" fill="#fafafa" stroke="none"/><text x="580" y="-735" text-anchor="middle" font-size="13" fill="#333" font-family="-apple-system,BlinkMacSystemFont,sans-serif">店铺少</text><path d="M620,-740 C670,-740 670,-740 720,-740" fill="none" stroke="#A287E1" stroke-width="2"/><rect x="720" y="-755" width="80" height="30" rx="6" fill="#fafafa" stroke="none"/><text x="760" y="-735" text-anchor="middle" font-size="13" fill="#333" font-family="-apple-system,BlinkMacSystemFont,sans-serif">1家</text><path d="M464.52,-600 C502.26,-600 502.26,-700 540,-700" fill="none" stroke="#A287E1" stroke-width="2"/><rect x="540" y="-715" width="80" height="30" rx="6" fill="#fafafa" stroke="none"/><text x="580" y="-695" text-anchor="middle" font-size="13" fill="#333" font-family="-apple-system,BlinkMacSystemFont,sans-serif">SKU少</text><path d="M620,-700 C670,-700 670,-700 720,-700" fill="none" stroke="#A287E1" stroke-width="2"/><rect x="720" y="-715" width="80" height="30" rx="6" fill="#fafafa" stroke="none"/><text x="760" y="-695" text-anchor="middle" font-size="13" fill="#333" font-family="-apple-system,BlinkMacSystemFont,sans-serif">几十个</text><path d="M464.52,-600 C502.26,-600 502.26,-660 540,-660" fill="none" stroke="#A287E1" stroke-width="2"/><rect x="540" y="-675" width="80" height="30" rx="6" fill="#fafafa" stroke="none"/><text x="580" y="-655" text-anchor="middle" font-size="13" fill="#333" font-family="-apple-system,BlinkMacSystemFont,sans-serif">供应商少</text><path d="M620,-660 C670,-660 670,-660 720,-660" fill="none" stroke="#A287E1" stroke-width="2"/><rect x="720" y="-675" width="80" height="30" rx="6" fill="#fafafa" stroke="none"/><text x="760" y="-655" text-anchor="middle" font-size="13" fill="#333" font-family="-apple-system,BlinkMacSystemFont,sans-serif">10来个</text><path d="M464.52,-600 C502.26,-600 502.26,-540 540,-540" fill="none" stroke="#A287E1" stroke-width="2"/><rect x="540" y="-555" width="130" height="30" rx="6" fill="#fafafa" stroke="none"/><text x="605" y="-535" text-anchor="middle" font-size="13" fill="#333" font-family="-apple-system,BlinkMacSystemFont,sans-serif">采购的方式主要是</text><path d="M670,-540 C695,-540 695,-620 720,-620" fill="none" stroke="#A287E1" stroke-width="2"/><rect x="720" y="-635" width="130" height="30" rx="6" fill="#fafafa" stroke="none"/><text x="785" y="-615" text-anchor="middle" font-size="13" fill="#333" font-family="-apple-system,BlinkMacSystemFont,sans-serif">从电商平台上采购</text><path d="M850,-620 C875,-620 875,-620 900,-620" fill="none" stroke="#A287E1" stroke-width="2"/><rect x="900" y="-635" width="208" height="30" rx="6" fill="#EFF0F0" stroke="none"/><text x="1004" y="-615" text-anchor="middle" font-size="13" fill="#333" font-family="-apple-system,BlinkMacSystemFont,sans-serif">网购下单，卖家发货到指定地址</text><path d="M670,-540 C695,-540 695,-580 720,-580" fill="none" stroke="#A287E1" stroke-width="2"/><rect x="720" y="-595" width="156" height="30" rx="6" fill="#fafafa" stroke="none"/><text x="798" y="-575" text-anchor="middle" font-size="13" fill="#333" font-family="-apple-system,BlinkMacSystemFont,sans-serif">从酒水批发市场上采购</text><path d="M876,-580 C888,-580 888,-580 900,-580" fill="none" stroke="#A287E1" stroke-width="2"/><rect x="900" y="-595" width="169" height="30" rx="6" fill="#EFF0F0" stroke="none"/><text x="984.5" y="-575" text-anchor="middle" font-size="13" fill="#333" font-family="-apple-system,BlinkMacSystemFont,sans-serif">自己去酒水批发市场采购</text><path d="M670,-540 C695,-540 695,-500 720,-500" fill="none" stroke="#A287E1" stroke-width="2"/><rect x="720" y="-515" width="188.76" height="30" rx="6" fill="#fafafa" stroke="none"/><text x="814.38" y="-495" text-anchor="middle" font-size="13" fill="#333" font-family="-apple-system,BlinkMacSystemFont,sans-serif">从一些保税仓/海淘渠道采购</text><path d="M908.76,-500 C904.38,-500 904.38,-540 900,-540" fill="none" stroke="#A287E1" stroke-width="2"/><rect x="900" y="-555" width="117" height="30" rx="6" fill="#fafafa" stroke="none"/><text x="958.5" y="-535" text-anchor="middle" font-size="13" fill="#333" font-family="-apple-system,BlinkMacSystemFont,sans-serif">微信找熟人下单</text><path d="M908.76,-500 C904.38,-500 904.38,-500 900,-500" fill="none" stroke="#A287E1" stroke-width="2"/><rect x="900" y="-515" width="104" height="30" rx="6" fill="#fafafa" stroke="none"/><text x="952" y="-495" text-anchor="middle" font-size="13" fill="#333" font-family="-apple-system,BlinkMacSystemFont,sans-serif">海淘网站下单</text><path d="M908.76,-500 C904.38,-500 904.38,-460 900,-460" fill="none" stroke="#A287E1" stroke-width="2"/><rect x="900" y="-475" width="104" height="30" rx="6" fill="#fafafa" stroke="none"/><text x="952" y="-455" text-anchor="middle" font-size="13" fill="#333" font-family="-apple-system,BlinkMacSystemFont,sans-serif">其他方式下单</text><path d="M284,-380 C322,-380 322,-320 360,-320" fill="none" stroke="#A287E1" stroke-width="2"/><rect x="360" y="-335" width="104.52" height="30" rx="6" fill="#fafafa" stroke="none"/><text x="412.26" y="-315" text-anchor="middle" font-size="13" fill="#333" font-family="-apple-system,BlinkMacSystemFont,sans-serif">2.中期的时候</text><path d="M464.52,-320 C502.26,-320 502.26,-420 540,-420" fill="none" stroke="#A287E1" stroke-width="2"/><rect x="540" y="-435" width="91.52" height="30" rx="6" fill="#fafafa" stroke="none"/><text x="585.76" y="-415" text-anchor="middle" font-size="13" fill="#333" font-family="-apple-system,BlinkMacSystemFont,sans-serif">店铺10多家</text><path d="M464.52,-320 C502.26,-320 502.26,-380 540,-380" fill="none" stroke="#A287E1" stroke-width="2"/><rect x="540" y="-395" width="80" height="30" rx="6" fill="#fafafa" stroke="none"/><text x="580" y="-375" text-anchor="middle" font-size="13" fill="#333" font-family="-apple-system,BlinkMacSystemFont,sans-serif">SKU中等</text><path d="M620,-380 C670,-380 670,-380 720,-380" fill="none" stroke="#A287E1" stroke-width="2"/><rect x="720" y="-395" width="80" height="30" rx="6" fill="#fafafa" stroke="none"/><text x="760" y="-375" text-anchor="middle" font-size="13" fill="#333" font-family="-apple-system,BlinkMacSystemFont,sans-serif">上千个</text><path d="M464.52,-320 C502.26,-320 502.26,-340 540,-340" fill="none" stroke="#A287E1" stroke-width="2"/><rect x="540" y="-355" width="91" height="30" rx="6" fill="#fafafa" stroke="none"/><text x="585.5" y="-335" text-anchor="middle" font-size="13" fill="#333" font-family="-apple-system,BlinkMacSystemFont,sans-serif">供应商中等</text><path d="M631,-340 C675.5,-340 675.5,-340 720,-340" fill="none" stroke="#A287E1" stroke-width="2"/><rect x="720" y="-355" width="80" height="30" rx="6" fill="#fafafa" stroke="none"/><text x="760" y="-335" text-anchor="middle" font-size="13" fill="#333" font-family="-apple-system,BlinkMacSystemFont,sans-serif">几十个</text><path d="M464.52,-320 C502.26,-320 502.26,-260 540,-260" fill="none" stroke="#A287E1" stroke-width="2"/><rect x="540" y="-275" width="130" height="30" rx="6" fill="#fafafa" stroke="none"/><text x="605" y="-255" text-anchor="middle" font-size="13" fill="#333" font-family="-apple-system,BlinkMacSystemFont,sans-serif">采购的方式主要是</text><path d="M670,-260 C695,-260 695,-300 720,-300" fill="none" stroke="#A287E1" stroke-width="2"/><rect x="720" y="-315" width="182" height="30" rx="6" fill="#fafafa" stroke="none"/><text x="811" y="-295" text-anchor="middle" font-size="13" fill="#333" font-family="-apple-system,BlinkMacSystemFont,sans-serif">从合作的供应商处直接采购</text><path d="M902,-300 C901,-300 901,-300 900,-300" fill="none" stroke="#A287E1" stroke-width="2"/><rect x="900" y="-315" width="188.76" height="30" rx="6" fill="#fafafa" stroke="none"/><text x="994.38" y="-295" text-anchor="middle" font-size="13" fill="#333" font-family="-apple-system,BlinkMacSystemFont,sans-serif">供应商直接送货到仓/到门店</text><path d="M670,-260 C695,-260 695,-260 720,-260" fill="none" stroke="#A287E1" stroke-width="2"/><rect x="720" y="-275" width="130" height="30" rx="6" fill="#fafafa" stroke="none"/><text x="785" y="-255" text-anchor="middle" font-size="13" fill="#333" font-family="-apple-system,BlinkMacSystemFont,sans-serif">从电商平台上采购</text><path d="M850,-260 C875,-260 875,-260 900,-260" fill="none" stroke="#A287E1" stroke-width="2"/><rect x="900" y="-275" width="208" height="30" rx="6" fill="#fafafa" stroke="none"/><text x="1004" y="-255" text-anchor="middle" font-size="13" fill="#333" font-family="-apple-system,BlinkMacSystemFont,sans-serif">网购下单，卖家发货到指定地址</text><path d="M670,-260 C695,-260 695,-220 720,-220" fill="none" stroke="#A287E1" stroke-width="2"/><rect x="720" y="-235" width="156" height="30" rx="6" fill="#fafafa" stroke="none"/><text x="798" y="-215" text-anchor="middle" font-size="13" fill="#333" font-family="-apple-system,BlinkMacSystemFont,sans-serif">从酒水批发市场上采购</text><path d="M876,-220 C888,-220 888,-220 900,-220" fill="none" stroke="#A287E1" stroke-width="2"/><rect x="900" y="-235" width="169" height="30" rx="6" fill="#fafafa" stroke="none"/><text x="984.5" y="-215" text-anchor="middle" font-size="13" fill="#333" font-family="-apple-system,BlinkMacSystemFont,sans-serif">自己去酒水批发市场采购</text><path d="M284,-380 C322,-380 322,-100 360,-100" fill="none" stroke="#A287E1" stroke-width="2"/><rect x="360" y="-115" width="104.52" height="30" rx="6" fill="#fafafa" stroke="none"/><text x="412.26" y="-95" text-anchor="middle" font-size="13" fill="#333" font-family="-apple-system,BlinkMacSystemFont,sans-serif">3.后期的时候</text><path d="M464.52,-100 C502.26,-100 502.26,-180 540,-180" fill="none" stroke="#A287E1" stroke-width="2"/><rect x="540" y="-195" width="98.28" height="30" rx="6" fill="#fafafa" stroke="none"/><text x="589.14" y="-175" text-anchor="middle" font-size="13" fill="#333" font-family="-apple-system,BlinkMacSystemFont,sans-serif">店铺100多家</text><path d="M464.52,-100 C502.26,-100 502.26,-140 540,-140" fill="none" stroke="#A287E1" stroke-width="2"/><rect x="540" y="-155" width="80" height="30" rx="6" fill="#fafafa" stroke="none"/><text x="580" y="-135" text-anchor="middle" font-size="13" fill="#333" font-family="-apple-system,BlinkMacSystemFont,sans-serif">SKU偏多</text><path d="M620,-140 C670,-140 670,-140 720,-140" fill="none" stroke="#A287E1" stroke-width="2"/><rect x="720" y="-155" width="80" height="30" rx="6" fill="#fafafa" stroke="none"/><text x="760" y="-135" text-anchor="middle" font-size="13" fill="#333" font-family="-apple-system,BlinkMacSystemFont,sans-serif">几万个</text><path d="M464.52,-100 C502.26,-100 502.26,-100 540,-100" fill="none" stroke="#A287E1" stroke-width="2"/><rect x="540" y="-115" width="91" height="30" rx="6" fill="#fafafa" stroke="none"/><text x="585.5" y="-95" text-anchor="middle" font-size="13" fill="#333" font-family="-apple-system,BlinkMacSystemFont,sans-serif">供应商偏多</text><path d="M631,-100 C675.5,-100 675.5,-100 720,-100" fill="none" stroke="#A287E1" stroke-width="2"/><rect x="720" y="-115" width="80" height="30" rx="6" fill="#fafafa" stroke="none"/><text x="760" y="-95" text-anchor="middle" font-size="13" fill="#333" font-family="-apple-system,BlinkMacSystemFont,sans-serif">上百个</text><path d="M464.52,-100 C502.26,-100 502.26,-40 540,-40" fill="none" stroke="#A287E1" stroke-width="2"/><rect x="540" y="-55" width="130" height="30" rx="6" fill="#fafafa" stroke="none"/><text x="605" y="-35" text-anchor="middle" font-size="13" fill="#333" font-family="-apple-system,BlinkMacSystemFont,sans-serif">采购的方式主要是</text><path d="M670,-40 C695,-40 695,-60 720,-60" fill="none" stroke="#A287E1" stroke-width="2"/><rect x="720" y="-75" width="182" height="30" rx="6" fill="#fafafa" stroke="none"/><text x="811" y="-55" text-anchor="middle" font-size="13" fill="#333" font-family="-apple-system,BlinkMacSystemFont,sans-serif">从合作的供应商处直接采购</text><path d="M902,-60 C901,-60 901,-60 900,-60" fill="none" stroke="#A287E1" stroke-width="2"/><rect x="900" y="-75" width="188.76" height="30" rx="6" fill="#fafafa" stroke="none"/><text x="994.38" y="-55" text-anchor="middle" font-size="13" fill="#333" font-family="-apple-system,BlinkMacSystemFont,sans-serif">供应商直接送货到仓/到门店</text><path d="M670,-40 C695,-40 695,-20 720,-20" fill="none" stroke="#A287E1" stroke-width="2"/><rect x="720" y="-35" width="520" height="30" rx="6" fill="#fafafa" stroke="none"/><text x="980" y="-15" text-anchor="middle" font-size="13" fill="#333" font-family="-apple-system,BlinkMacSystemFont,sans-serif">合作的供应商都是需要先经过一系列的准入流程，查验资质，签订合同等才能向其采购</text><path d="M50,0 C140,0 140,240 230,240" fill="none" stroke="#6F81DB" stroke-width="2"/><rect x="180" y="225" width="169" height="30" rx="6" fill="#fafafa" stroke="none"/><text x="264.5" y="245" text-anchor="middle" font-size="13" fill="#333" font-family="-apple-system,BlinkMacSystemFont,sans-serif">各个阶段遇到的一些痛点</text><path d="M349,240 C354.5,240 354.5,60 360,60" fill="none" stroke="#6F81DB" stroke-width="2"/><rect x="360" y="45" width="104.52" height="30" rx="6" fill="#fafafa" stroke="none"/><text x="412.26" y="65" text-anchor="middle" font-size="13" fill="#333" font-family="-apple-system,BlinkMacSystemFont,sans-serif">1.早期的时候</text><path d="M464.52,60 C502.26,60 502.26,20 540,20" fill="none" stroke="#6F81DB" stroke-width="2"/><rect x="540" y="5" width="618.28" height="30" rx="6" fill="#fafafa" stroke="none"/><text x="849.14" y="25" text-anchor="middle" font-size="13" fill="#333" font-family="-apple-system,BlinkMacSystemFont,sans-serif">虽然SKU少，供应商也少，但是没有稳定的供货渠道，每次都是零散地去采购，去各种比对，比较费时间</text><path d="M464.52,60 C502.26,60 502.26,60 540,60" fill="none" stroke="#6F81DB" stroke-width="2"/><rect x="540" y="45" width="728" height="30" rx="6" fill="#fafafa" stroke="none"/><text x="904" y="65" text-anchor="middle" font-size="13" fill="#333" font-family="-apple-system,BlinkMacSystemFont,sans-serif">不同渠道采购回来的货物质量不一样，供应商合作的模式也不一样，自己对供应商没有什么话语权，只能配合供应商的要求</text><path d="M464.52,60 C502.26,60 502.26,100 540,100" fill="none" stroke="#6F81DB" stroke-width="2"/><rect x="540" y="85" width="715" height="30" rx="6" fill="#fafafa" stroke="none"/><text x="897.5" y="105" text-anchor="middle" font-size="13" fill="#333" font-family="-apple-system,BlinkMacSystemFont,sans-serif">一些渠道采购回来的货物可能没有资质或者是后续的保障，例如说破损，过期，出现质量问题等需要自己承担风险和损失</text><path d="M349,240 C354.5,240 354.5,200 360,200" fill="none" stroke="#6F81DB" stroke-width="2"/><rect x="360" y="185" width="104.52" height="30" rx="6" fill="#fafafa" stroke="none"/><text x="412.26" y="205" text-anchor="middle" font-size="13" fill="#333" font-family="-apple-system,BlinkMacSystemFont,sans-serif">2.中期的时候</text><path d="M464.52,200 C502.26,200 502.26,140 540,140" fill="none" stroke="#6F81DB" stroke-width="2"/><rect x="540" y="125" width="683.28" height="30" rx="6" fill="#fafafa" stroke="none"/><text x="881.64" y="145" text-anchor="middle" font-size="13" fill="#333" font-family="-apple-system,BlinkMacSystemFont,sans-serif">SKU多了，门店也多了，怎么给门店备货，怎么去汇总采购量是一个大工程，要多方收集数据，确定总的采购需求量</text><path d="M464.52,200 C502.26,200 502.26,180 540,180" fill="none" stroke="#6F81DB" stroke-width="2"/><rect x="540" y="165" width="1014" height="30" rx="6" fill="#fafafa" stroke="none"/><text x="1047" y="185" text-anchor="middle" font-size="13" fill="#333" font-family="-apple-system,BlinkMacSystemFont,sans-serif">供应商开始多了，供应商的结账方式，交付形式等不一样，一些供应商的要求和合作的条件等需要信息化记录起来，否则操作的时候全凭借人工经验，效率偏低，也容易出错</text><path d="M464.52,200 C502.26,200 502.26,220 540,220" fill="none" stroke="#6F81DB" stroke-width="2"/><rect x="540" y="205" width="917.28" height="30" rx="6" fill="#fafafa" stroke="none"/><text x="998.64" y="225" text-anchor="middle" font-size="13" fill="#333" font-family="-apple-system,BlinkMacSystemFont,sans-serif">门店的销量起来之后，也经常会发生一些无理由退货，质量问题退货，售假或者其他问题等，此时同款SKU可能会有不同的供应商，不好追溯到底是谁的问题</text><path d="M464.52,200 C502.26,200 502.26,260 540,260" fill="none" stroke="#6F81DB" stroke-width="2"/><rect x="540" y="245" width="904.8" height="30" rx="6" fill="#fafafa" stroke="none"/><text x="992.4" y="265" text-anchor="middle" font-size="13" fill="#333" font-family="-apple-system,BlinkMacSystemFont,sans-serif">不同的供应商的供货情况，到货情况，验收情况等，都需要统计和汇总，这需要信息化系统来解决，如果用Excel处理也可以，但是数据没有打通有点麻烦</text><path d="M349,240 C354.5,240 354.5,380 360,380" fill="none" stroke="#6F81DB" stroke-width="2"/><rect x="360" y="365" width="104.52" height="30" rx="6" fill="#fafafa" stroke="none"/><text x="412.26" y="385" text-anchor="middle" font-size="13" fill="#333" font-family="-apple-system,BlinkMacSystemFont,sans-serif">3.后期的时候</text><path d="M464.52,380 C502.26,380 502.26,300 540,300" fill="none" stroke="#6F81DB" stroke-width="2"/><rect x="540" y="285" width="690.56" height="30" rx="6" fill="#fafafa" stroke="none"/><text x="885.28" y="305" text-anchor="middle" font-size="13" fill="#333" font-family="-apple-system,BlinkMacSystemFont,sans-serif">SKU非常多，供应商也很多，SKU和供应商的关联关系很重要，所以产品的引入，供应商的引入都是一个很关键的步骤</text><path d="M464.52,380 C502.26,380 502.26,340 540,340" fill="none" stroke="#6F81DB" stroke-width="2"/><rect x="540" y="325" width="762.8399999999999" height="30" rx="6" fill="#fafafa" stroke="none"/><text x="921.42" y="345" text-anchor="middle" font-size="13" fill="#333" font-family="-apple-system,BlinkMacSystemFont,sans-serif">SKU多了之后，有一些SKU会有一些资质要求，这些资质要求和供应商能提供的资质也有关系，所以SKU和供应商的管理也很重要了</text><path d="M464.52,380 C502.26,380 502.26,380 540,380" fill="none" stroke="#6F81DB" stroke-width="2"/><rect x="540" y="365" width="891.28" height="30" rx="6" fill="#fafafa" stroke="none"/><text x="985.64" y="385" text-anchor="middle" font-size="13" fill="#333" font-family="-apple-system,BlinkMacSystemFont,sans-serif">门店多，SKU多，销量大，采购补货的需求也很多，怎么计算采购量，怎么计算补货量，怎么把供应商的交付量和这边的需求量关联起来，也是一个难题</text><path d="M464.52,380 C502.26,380 502.26,420 540,420" fill="none" stroke="#6F81DB" stroke-width="2"/><rect x="540" y="405" width="481" height="30" rx="6" fill="#fafafa" stroke="none"/><text x="780.5" y="425" text-anchor="middle" font-size="13" fill="#333" font-family="-apple-system,BlinkMacSystemFont,sans-serif">供应商的结账方式也比较多元化了，要考虑开票税率，周期对账，多种结算方式</text><path d="M464.52,380 C502.26,380 502.26,460 540,460" fill="none" stroke="#6F81DB" stroke-width="2"/><rect x="540" y="445" width="761.28" height="30" rx="6" fill="#fafafa" stroke="none"/><text x="920.64" y="465" text-anchor="middle" font-size="13" fill="#333" font-family="-apple-system,BlinkMacSystemFont,sans-serif">供应商的生命周期管理也很重要，要及时汰换掉不合格的供应商，多做一些战略寻源，挖掘优质的供应商，要关注爆款SKU的挖掘</text><path d="M50,0 C140,0 140,620 230,620" fill="none" stroke="#6EC4C4" stroke-width="2"/><rect x="180" y="605" width="169" height="30" rx="6" fill="#fafafa" stroke="none"/><text x="264.5" y="625" text-anchor="middle" font-size="13" fill="#333" font-family="-apple-system,BlinkMacSystemFont,sans-serif">对信息化系统的一些要求</text><path d="M349,620 C354.5,620 354.5,500 360,500" fill="none" stroke="#6EC4C4" stroke-width="2"/><rect x="360" y="485" width="104.52" height="30" rx="6" fill="#fafafa" stroke="none"/><text x="412.26" y="505" text-anchor="middle" font-size="13" fill="#333" font-family="-apple-system,BlinkMacSystemFont,sans-serif">1.早期的时候</text><path d="M464.52,500 C502.26,500 502.26,500 540,500" fill="none" stroke="#6EC4C4" stroke-width="2"/><rect x="540" y="485" width="189.79999999999998" height="30" rx="6" fill="#fafafa" stroke="none"/><text x="634.9" y="505" text-anchor="middle" font-size="13" fill="#333" font-family="-apple-system,BlinkMacSystemFont,sans-serif">用Excel就可以统计这些信息</text><path d="M349,620 C354.5,620 354.5,580 360,580" fill="none" stroke="#6EC4C4" stroke-width="2"/><rect x="360" y="565" width="104.52" height="30" rx="6" fill="#fafafa" stroke="none"/><text x="412.26" y="585" text-anchor="middle" font-size="13" fill="#333" font-family="-apple-system,BlinkMacSystemFont,sans-serif">2.中期的时候</text><path d="M464.52,580 C502.26,580 502.26,540 540,540" fill="none" stroke="#6EC4C4" stroke-width="2"/><rect x="540" y="525" width="358.8" height="30" rx="6" fill="#fafafa" stroke="none"/><text x="719.4" y="545" text-anchor="middle" font-size="13" fill="#333" font-family="-apple-system,BlinkMacSystemFont,sans-serif">可以用Excel做大多数事情，但是有一些需要用系统来完成</text><path d="M464.52,580 C502.26,580 502.26,580 540,580" fill="none" stroke="#6EC4C4" stroke-width="2"/><rect x="540" y="565" width="293.28000000000003" height="30" rx="6" fill="#fafafa" stroke="none"/><text x="686.64" y="585" text-anchor="middle" font-size="13" fill="#333" font-family="-apple-system,BlinkMacSystemFont,sans-serif">可以使用一些ERP的采购模块，应付相关的需求</text><path d="M464.52,580 C502.26,580 502.26,620 540,620" fill="none" stroke="#6EC4C4" stroke-width="2"/><rect x="540" y="605" width="351" height="30" rx="6" fill="#fafafa" stroke="none"/><text x="715.5" y="625" text-anchor="middle" font-size="13" fill="#333" font-family="-apple-system,BlinkMacSystemFont,sans-serif">也可以自研采购管理系统或者模块，对采购业务进行管理</text><path d="M349,620 C354.5,620 354.5,700 360,700" fill="none" stroke="#6EC4C4" stroke-width="2"/><rect x="360" y="685" width="104.52" height="30" rx="6" fill="#fafafa" stroke="none"/><text x="412.26" y="705" text-anchor="middle" font-size="13" fill="#333" font-family="-apple-system,BlinkMacSystemFont,sans-serif">3.后期的时候</text><path d="M464.52,700 C502.26,700 502.26,660 540,660" fill="none" stroke="#6EC4C4" stroke-width="2"/><rect x="540" y="645" width="397.28" height="30" rx="6" fill="#fafafa" stroke="none"/><text x="738.64" y="665" text-anchor="middle" font-size="13" fill="#333" font-family="-apple-system,BlinkMacSystemFont,sans-serif">为了加强对供应商的管理和维护，需要配套相关的SRM方面的内容</text><path d="M464.52,700 C502.26,700 502.26,700 540,700" fill="none" stroke="#6EC4C4" stroke-width="2"/><rect x="540" y="685" width="832" height="30" rx="6" fill="#fafafa" stroke="none"/><text x="956" y="705" text-anchor="middle" font-size="13" fill="#333" font-family="-apple-system,BlinkMacSystemFont,sans-serif">供应商可以登录系统，采购方也可以登录系统，采购方可以通过系统向供应商下采购单，供应商也可以响应发货后及时通过系统反馈给采购方</text><path d="M464.52,700 C502.26,700 502.26,740 540,740" fill="none" stroke="#6EC4C4" stroke-width="2"/><rect x="540" y="725" width="670.28" height="30" rx="6" fill="#fafafa" stroke="none"/><text x="875.14" y="745" text-anchor="middle" font-size="13" fill="#333" font-family="-apple-system,BlinkMacSystemFont,sans-serif">公司业务更复杂了之后，除了采购还会有其他环节，都需要有信息化系统的支撑，所以SRM还要和其他的系统打通</text>
</svg>