<svg xmlns="http://www.w3.org/2000/svg" xmlns:xlink="http://www.w3.org/1999/xlink"
  viewBox="-184.64 -1139 1214.16 2278" width="1214.16" height="2278"
  style="background:#fff; font-family:-apple-system,BlinkMacSystemFont,'Segoe UI',Roboto,sans-serif;">
<defs></defs>
<rect x="-184.64" y="-1139" width="1214.16" height="2278" fill="#fff"/>
<rect x="-100.64" y="-18" width="201.28" height="36" rx="8" fill="rgb(245, 245, 245)" stroke="none"/><text x="0" y="6" text-anchor="middle" font-size="16" font-weight="bold" fill="#333" font-family="-apple-system,BlinkMacSystemFont,sans-serif">海外仓OTWB的功能模块</text><path d="M100.64,0 C190.64,0 190.64,-880 280.64,-880" fill="none" stroke="#A287E1" stroke-width="2"/><rect x="180" y="-895" width="80" height="30" rx="6" fill="#fafafa" stroke="none"/><text x="220" y="-875" text-anchor="middle" font-size="13" fill="#333" font-family="-apple-system,BlinkMacSystemFont,sans-serif">OMS</text><path d="M260,-880 C310,-880 310,-1040 360,-1040" fill="none" stroke="#A287E1" stroke-width="2"/><rect x="360" y="-1055" width="234" height="30" rx="6" fill="#fafafa" stroke="none"/><text x="477" y="-1035" text-anchor="middle" font-size="13" fill="#333" font-family="-apple-system,BlinkMacSystemFont,sans-serif">订单管理系统，订单处理是核心模块</text><path d="M260,-880 C310,-880 310,-860 360,-860" fill="none" stroke="#A287E1" stroke-width="2"/><rect x="360" y="-875" width="80" height="30" rx="6" fill="#fafafa" stroke="none"/><text x="400" y="-855" text-anchor="middle" font-size="13" fill="#333" font-family="-apple-system,BlinkMacSystemFont,sans-serif">主要模块</text><path d="M440,-860 C490,-860 490,-1000 540,-1000" fill="none" stroke="#A287E1" stroke-width="2"/><rect x="540" y="-1015" width="80" height="30" rx="6" fill="#fafafa" stroke="none"/><text x="580" y="-995" text-anchor="middle" font-size="13" fill="#333" font-family="-apple-system,BlinkMacSystemFont,sans-serif">产品管理</text><path d="M440,-860 C490,-860 490,-960 540,-960" fill="none" stroke="#A287E1" stroke-width="2"/><rect x="540" y="-975" width="80" height="30" rx="6" fill="#fafafa" stroke="none"/><text x="580" y="-955" text-anchor="middle" font-size="13" fill="#333" font-family="-apple-system,BlinkMacSystemFont,sans-serif">入库管理</text><path d="M440,-860 C490,-860 490,-900 540,-900" fill="none" stroke="#A287E1" stroke-width="2"/><rect x="540" y="-915" width="80" height="30" rx="6" fill="#fafafa" stroke="none"/><text x="580" y="-895" text-anchor="middle" font-size="13" fill="#333" font-family="-apple-system,BlinkMacSystemFont,sans-serif">订单管理</text><path d="M620,-900 C670,-900 670,-920 720,-920" fill="none" stroke="#A287E1" stroke-width="2"/><rect x="720" y="-935" width="80" height="30" rx="6" fill="#fafafa" stroke="none"/><text x="760" y="-915" text-anchor="middle" font-size="13" fill="#333" font-family="-apple-system,BlinkMacSystemFont,sans-serif">普通订单</text><path d="M620,-900 C670,-900 670,-880 720,-880" fill="none" stroke="#A287E1" stroke-width="2"/><rect x="720" y="-895" width="80" height="30" rx="6" fill="#fafafa" stroke="none"/><text x="760" y="-875" text-anchor="middle" font-size="13" fill="#333" font-family="-apple-system,BlinkMacSystemFont,sans-serif">FBA订单</text><path d="M440,-860 C490,-860 490,-840 540,-840" fill="none" stroke="#A287E1" stroke-width="2"/><rect x="540" y="-855" width="80" height="30" rx="6" fill="#fafafa" stroke="none"/><text x="580" y="-835" text-anchor="middle" font-size="13" fill="#333" font-family="-apple-system,BlinkMacSystemFont,sans-serif">库存管理</text><path d="M440,-860 C490,-860 490,-800 540,-800" fill="none" stroke="#A287E1" stroke-width="2"/><rect x="540" y="-815" width="80" height="30" rx="6" fill="#fafafa" stroke="none"/><text x="580" y="-795" text-anchor="middle" font-size="13" fill="#333" font-family="-apple-system,BlinkMacSystemFont,sans-serif">退件管理</text><path d="M440,-860 C490,-860 490,-760 540,-760" fill="none" stroke="#A287E1" stroke-width="2"/><rect x="540" y="-775" width="84.75999999999999" height="30" rx="6" fill="#fafafa" stroke="none"/><text x="582.38" y="-755" text-anchor="middle" font-size="13" fill="#333" font-family="-apple-system,BlinkMacSystemFont,sans-serif">规则&amp;策略</text><path d="M440,-860 C490,-860 490,-720 540,-720" fill="none" stroke="#A287E1" stroke-width="2"/><rect x="540" y="-735" width="84.75999999999999" height="30" rx="6" fill="#fafafa" stroke="none"/><text x="582.38" y="-715" text-anchor="middle" font-size="13" fill="#333" font-family="-apple-system,BlinkMacSystemFont,sans-serif">账户&amp;费用</text><path d="M100.64,0 C190.64,0 190.64,-340 280.64,-340" fill="none" stroke="#6F81DB" stroke-width="2"/><rect x="180" y="-355" width="80" height="30" rx="6" fill="#fafafa" stroke="none"/><text x="220" y="-335" text-anchor="middle" font-size="13" fill="#333" font-family="-apple-system,BlinkMacSystemFont,sans-serif">WMS</text><path d="M260,-340 C310,-340 310,-680 360,-680" fill="none" stroke="#6F81DB" stroke-width="2"/><rect x="360" y="-695" width="312" height="30" rx="6" fill="#fafafa" stroke="none"/><text x="516" y="-675" text-anchor="middle" font-size="13" fill="#333" font-family="-apple-system,BlinkMacSystemFont,sans-serif">仓库管理系统，围绕订单和货品的处理是核心模块</text><path d="M260,-340 C310,-340 310,-320 360,-320" fill="none" stroke="#6F81DB" stroke-width="2"/><rect x="360" y="-335" width="80" height="30" rx="6" fill="#fafafa" stroke="none"/><text x="400" y="-315" text-anchor="middle" font-size="13" fill="#333" font-family="-apple-system,BlinkMacSystemFont,sans-serif">主要模块</text><path d="M440,-320 C490,-320 490,-620 540,-620" fill="none" stroke="#6F81DB" stroke-width="2"/><rect x="540" y="-635" width="80" height="30" rx="6" fill="#fafafa" stroke="none"/><text x="580" y="-615" text-anchor="middle" font-size="13" fill="#333" font-family="-apple-system,BlinkMacSystemFont,sans-serif">入库作业</text><path d="M620,-620 C670,-620 670,-640 720,-640" fill="none" stroke="#6F81DB" stroke-width="2"/><rect x="720" y="-655" width="80" height="30" rx="6" fill="#fafafa" stroke="none"/><text x="760" y="-635" text-anchor="middle" font-size="13" fill="#333" font-family="-apple-system,BlinkMacSystemFont,sans-serif">收货</text><path d="M620,-620 C670,-620 670,-600 720,-600" fill="none" stroke="#6F81DB" stroke-width="2"/><rect x="720" y="-615" width="80" height="30" rx="6" fill="#fafafa" stroke="none"/><text x="760" y="-595" text-anchor="middle" font-size="13" fill="#333" font-family="-apple-system,BlinkMacSystemFont,sans-serif">上架</text><path d="M440,-320 C490,-320 490,-480 540,-480" fill="none" stroke="#6F81DB" stroke-width="2"/><rect x="540" y="-495" width="80" height="30" rx="6" fill="#fafafa" stroke="none"/><text x="580" y="-475" text-anchor="middle" font-size="13" fill="#333" font-family="-apple-system,BlinkMacSystemFont,sans-serif">出库作业</text><path d="M620,-480 C670,-480 670,-560 720,-560" fill="none" stroke="#6F81DB" stroke-width="2"/><rect x="720" y="-575" width="80" height="30" rx="6" fill="#fafafa" stroke="none"/><text x="760" y="-555" text-anchor="middle" font-size="13" fill="#333" font-family="-apple-system,BlinkMacSystemFont,sans-serif">订单分波</text><path d="M620,-480 C670,-480 670,-520 720,-520" fill="none" stroke="#6F81DB" stroke-width="2"/><rect x="720" y="-535" width="80" height="30" rx="6" fill="#fafafa" stroke="none"/><text x="760" y="-515" text-anchor="middle" font-size="13" fill="#333" font-family="-apple-system,BlinkMacSystemFont,sans-serif">订单拣货</text><path d="M620,-480 C670,-480 670,-480 720,-480" fill="none" stroke="#6F81DB" stroke-width="2"/><rect x="720" y="-495" width="104" height="30" rx="6" fill="#fafafa" stroke="none"/><text x="772" y="-475" text-anchor="middle" font-size="13" fill="#333" font-family="-apple-system,BlinkMacSystemFont,sans-serif">订单二次分拣</text><path d="M620,-480 C670,-480 670,-440 720,-440" fill="none" stroke="#6F81DB" stroke-width="2"/><rect x="720" y="-455" width="110.75999999999999" height="30" rx="6" fill="#fafafa" stroke="none"/><text x="775.38" y="-435" text-anchor="middle" font-size="13" fill="#333" font-family="-apple-system,BlinkMacSystemFont,sans-serif">订单复核/打包</text><path d="M620,-480 C670,-480 670,-400 720,-400" fill="none" stroke="#6F81DB" stroke-width="2"/><rect x="720" y="-415" width="80" height="30" rx="6" fill="#fafafa" stroke="none"/><text x="760" y="-395" text-anchor="middle" font-size="13" fill="#333" font-family="-apple-system,BlinkMacSystemFont,sans-serif">……</text><path d="M440,-320 C490,-320 490,-320 540,-320" fill="none" stroke="#6F81DB" stroke-width="2"/><rect x="540" y="-335" width="80" height="30" rx="6" fill="#fafafa" stroke="none"/><text x="580" y="-315" text-anchor="middle" font-size="13" fill="#333" font-family="-apple-system,BlinkMacSystemFont,sans-serif">退件模块</text><path d="M620,-320 C670,-320 670,-360 720,-360" fill="none" stroke="#6F81DB" stroke-width="2"/><rect x="720" y="-375" width="80" height="30" rx="6" fill="#fafafa" stroke="none"/><text x="760" y="-355" text-anchor="middle" font-size="13" fill="#333" font-family="-apple-system,BlinkMacSystemFont,sans-serif">退货入库</text><path d="M620,-320 C670,-320 670,-320 720,-320" fill="none" stroke="#6F81DB" stroke-width="2"/><rect x="720" y="-335" width="80" height="30" rx="6" fill="#fafafa" stroke="none"/><text x="760" y="-315" text-anchor="middle" font-size="13" fill="#333" font-family="-apple-system,BlinkMacSystemFont,sans-serif">退货换标</text><path d="M620,-320 C670,-320 670,-280 720,-280" fill="none" stroke="#6F81DB" stroke-width="2"/><rect x="720" y="-295" width="80" height="30" rx="6" fill="#fafafa" stroke="none"/><text x="760" y="-275" text-anchor="middle" font-size="13" fill="#333" font-family="-apple-system,BlinkMacSystemFont,sans-serif">退货出库</text><path d="M440,-320 C490,-320 490,-240 540,-240" fill="none" stroke="#6F81DB" stroke-width="2"/><rect x="540" y="-255" width="80" height="30" rx="6" fill="#fafafa" stroke="none"/><text x="580" y="-235" text-anchor="middle" font-size="13" fill="#333" font-family="-apple-system,BlinkMacSystemFont,sans-serif">库存模块</text><path d="M440,-320 C490,-320 490,-160 540,-160" fill="none" stroke="#6F81DB" stroke-width="2"/><rect x="540" y="-175" width="80" height="30" rx="6" fill="#fafafa" stroke="none"/><text x="580" y="-155" text-anchor="middle" font-size="13" fill="#333" font-family="-apple-system,BlinkMacSystemFont,sans-serif">库内操作</text><path d="M620,-160 C670,-160 670,-200 720,-200" fill="none" stroke="#6F81DB" stroke-width="2"/><rect x="720" y="-215" width="80" height="30" rx="6" fill="#fafafa" stroke="none"/><text x="760" y="-195" text-anchor="middle" font-size="13" fill="#333" font-family="-apple-system,BlinkMacSystemFont,sans-serif">移位</text><path d="M620,-160 C670,-160 670,-160 720,-160" fill="none" stroke="#6F81DB" stroke-width="2"/><rect x="720" y="-175" width="80" height="30" rx="6" fill="#fafafa" stroke="none"/><text x="760" y="-155" text-anchor="middle" font-size="13" fill="#333" font-family="-apple-system,BlinkMacSystemFont,sans-serif">库存调整</text><path d="M620,-160 C670,-160 670,-120 720,-120" fill="none" stroke="#6F81DB" stroke-width="2"/><rect x="720" y="-135" width="80" height="30" rx="6" fill="#fafafa" stroke="none"/><text x="760" y="-115" text-anchor="middle" font-size="13" fill="#333" font-family="-apple-system,BlinkMacSystemFont,sans-serif">盘点</text><path d="M440,-320 C490,-320 490,-40 540,-40" fill="none" stroke="#6F81DB" stroke-width="2"/><rect x="540" y="-55" width="80" height="30" rx="6" fill="#fafafa" stroke="none"/><text x="580" y="-35" text-anchor="middle" font-size="13" fill="#333" font-family="-apple-system,BlinkMacSystemFont,sans-serif">基础数据</text><path d="M620,-40 C670,-40 670,-80 720,-80" fill="none" stroke="#6F81DB" stroke-width="2"/><rect x="720" y="-95" width="130" height="30" rx="6" fill="#fafafa" stroke="none"/><text x="785" y="-75" text-anchor="middle" font-size="13" fill="#333" font-family="-apple-system,BlinkMacSystemFont,sans-serif">库区、货架、库位</text><path d="M620,-40 C670,-40 670,-40 720,-40" fill="none" stroke="#6F81DB" stroke-width="2"/><rect x="720" y="-55" width="143" height="30" rx="6" fill="#fafafa" stroke="none"/><text x="791.5" y="-35" text-anchor="middle" font-size="13" fill="#333" font-family="-apple-system,BlinkMacSystemFont,sans-serif">容器、包材、播种墙</text><path d="M620,-40 C670,-40 670,0 720,0" fill="none" stroke="#6F81DB" stroke-width="2"/><rect x="720" y="-15" width="91" height="30" rx="6" fill="#fafafa" stroke="none"/><text x="765.5" y="5" text-anchor="middle" font-size="13" fill="#333" font-family="-apple-system,BlinkMacSystemFont,sans-serif">客户、产品</text><path d="M100.64,0 C190.64,0 190.64,180 280.64,180" fill="none" stroke="#6EC4C4" stroke-width="2"/><rect x="180" y="165" width="80" height="30" rx="6" fill="#fafafa" stroke="none"/><text x="220" y="185" text-anchor="middle" font-size="13" fill="#333" font-family="-apple-system,BlinkMacSystemFont,sans-serif">LMS/TMS</text><path d="M260,180 C310,180 310,40 360,40" fill="none" stroke="#6EC4C4" stroke-width="2"/><rect x="360" y="25" width="585.52" height="30" rx="6" fill="#fafafa" stroke="none"/><text x="652.76" y="45" text-anchor="middle" font-size="13" fill="#333" font-family="-apple-system,BlinkMacSystemFont,sans-serif">物流管理系统，用来对接头程/尾程物流，管理物流供应商/承运商，还需要跟进一些物流轨迹信息</text><path d="M260,180 C310,180 310,200 360,200" fill="none" stroke="#6EC4C4" stroke-width="2"/><rect x="360" y="185" width="80" height="30" rx="6" fill="#fafafa" stroke="none"/><text x="400" y="205" text-anchor="middle" font-size="13" fill="#333" font-family="-apple-system,BlinkMacSystemFont,sans-serif">主要模块</text><path d="M440,200 C490,200 490,80 540,80" fill="none" stroke="#6EC4C4" stroke-width="2"/><rect x="540" y="65" width="91" height="30" rx="6" fill="#fafafa" stroke="none"/><text x="585.5" y="85" text-anchor="middle" font-size="13" fill="#333" font-family="-apple-system,BlinkMacSystemFont,sans-serif">物流商对接</text><path d="M440,200 C490,200 490,120 540,120" fill="none" stroke="#6EC4C4" stroke-width="2"/><rect x="540" y="105" width="136.76" height="30" rx="6" fill="#fafafa" stroke="none"/><text x="608.38" y="125" text-anchor="middle" font-size="13" fill="#333" font-family="-apple-system,BlinkMacSystemFont,sans-serif">供应商/承运商管理</text><path d="M440,200 C490,200 490,160 540,160" fill="none" stroke="#6EC4C4" stroke-width="2"/><rect x="540" y="145" width="104" height="30" rx="6" fill="#fafafa" stroke="none"/><text x="592" y="165" text-anchor="middle" font-size="13" fill="#333" font-family="-apple-system,BlinkMacSystemFont,sans-serif">物流渠道管理</text><path d="M440,200 C490,200 490,200 540,200" fill="none" stroke="#6EC4C4" stroke-width="2"/><rect x="540" y="185" width="130" height="30" rx="6" fill="#fafafa" stroke="none"/><text x="605" y="205" text-anchor="middle" font-size="13" fill="#333" font-family="-apple-system,BlinkMacSystemFont,sans-serif">物流渠道规则管理</text><path d="M440,200 C490,200 490,240 540,240" fill="none" stroke="#6EC4C4" stroke-width="2"/><rect x="540" y="225" width="104" height="30" rx="6" fill="#fafafa" stroke="none"/><text x="592" y="245" text-anchor="middle" font-size="13" fill="#333" font-family="-apple-system,BlinkMacSystemFont,sans-serif">物流轨迹查询</text><path d="M440,200 C490,200 490,280 540,280" fill="none" stroke="#6EC4C4" stroke-width="2"/><rect x="540" y="265" width="104" height="30" rx="6" fill="#fafafa" stroke="none"/><text x="592" y="285" text-anchor="middle" font-size="13" fill="#333" font-family="-apple-system,BlinkMacSystemFont,sans-serif">面单预报记录</text><path d="M440,200 C490,200 490,320 540,320" fill="none" stroke="#6EC4C4" stroke-width="2"/><rect x="540" y="305" width="91" height="30" rx="6" fill="#fafafa" stroke="none"/><text x="585.5" y="325" text-anchor="middle" font-size="13" fill="#333" font-family="-apple-system,BlinkMacSystemFont,sans-serif">错误信息池</text><path d="M100.64,0 C190.64,0 190.64,520 280.64,520" fill="none" stroke="#DFB85D" stroke-width="2"/><rect x="180" y="505" width="80" height="30" rx="6" fill="#fafafa" stroke="none"/><text x="220" y="525" text-anchor="middle" font-size="13" fill="#333" font-family="-apple-system,BlinkMacSystemFont,sans-serif">BMS</text><path d="M260,520 C310,520 310,360 360,360" fill="none" stroke="#DFB85D" stroke-width="2"/><rect x="360" y="345" width="553.28" height="30" rx="6" fill="#fafafa" stroke="none"/><text x="636.64" y="365" text-anchor="middle" font-size="13" fill="#333" font-family="-apple-system,BlinkMacSystemFont,sans-serif">费用结算管理系统，不同的业务场景，要计费的内容不一样，FMS的模块也会有很大的不一样</text><path d="M260,520 C310,520 310,540 360,540" fill="none" stroke="#DFB85D" stroke-width="2"/><rect x="360" y="525" width="80" height="30" rx="6" fill="#fafafa" stroke="none"/><text x="400" y="545" text-anchor="middle" font-size="13" fill="#333" font-family="-apple-system,BlinkMacSystemFont,sans-serif">主要模块</text><path d="M440,540 C490,540 490,400 540,400" fill="none" stroke="#DFB85D" stroke-width="2"/><rect x="540" y="385" width="91" height="30" rx="6" fill="#fafafa" stroke="none"/><text x="585.5" y="405" text-anchor="middle" font-size="13" fill="#333" font-family="-apple-system,BlinkMacSystemFont,sans-serif">费用项管理</text><path d="M440,540 C490,540 490,440 540,440" fill="none" stroke="#DFB85D" stroke-width="2"/><rect x="540" y="425" width="104" height="30" rx="6" fill="#fafafa" stroke="none"/><text x="592" y="445" text-anchor="middle" font-size="13" fill="#333" font-family="-apple-system,BlinkMacSystemFont,sans-serif">计费规则维护</text><path d="M440,540 C490,540 490,480 540,480" fill="none" stroke="#DFB85D" stroke-width="2"/><rect x="540" y="465" width="104" height="30" rx="6" fill="#fafafa" stroke="none"/><text x="592" y="485" text-anchor="middle" font-size="13" fill="#333" font-family="-apple-system,BlinkMacSystemFont,sans-serif">客户报价管理</text><path d="M440,540 C490,540 490,520 540,520" fill="none" stroke="#DFB85D" stroke-width="2"/><rect x="540" y="505" width="80" height="30" rx="6" fill="#fafafa" stroke="none"/><text x="580" y="525" text-anchor="middle" font-size="13" fill="#333" font-family="-apple-system,BlinkMacSystemFont,sans-serif">费用结算</text><path d="M440,540 C490,540 490,620 540,620" fill="none" stroke="#DFB85D" stroke-width="2"/><rect x="540" y="605" width="80" height="30" rx="6" fill="#fafafa" stroke="none"/><text x="580" y="625" text-anchor="middle" font-size="13" fill="#333" font-family="-apple-system,BlinkMacSystemFont,sans-serif">对账</text><path d="M620,620 C670,620 670,560 720,560" fill="none" stroke="#DFB85D" stroke-width="2"/><rect x="720" y="545" width="104" height="30" rx="6" fill="#fafafa" stroke="none"/><text x="772" y="565" text-anchor="middle" font-size="13" fill="#333" font-family="-apple-system,BlinkMacSystemFont,sans-serif">仓储费用核对</text><path d="M620,620 C670,620 670,600 720,600" fill="none" stroke="#DFB85D" stroke-width="2"/><rect x="720" y="585" width="80" height="30" rx="6" fill="#fafafa" stroke="none"/><text x="760" y="605" text-anchor="middle" font-size="13" fill="#333" font-family="-apple-system,BlinkMacSystemFont,sans-serif">运费核对</text><path d="M620,620 C670,620 670,640 720,640" fill="none" stroke="#DFB85D" stroke-width="2"/><rect x="720" y="625" width="80" height="30" rx="6" fill="#fafafa" stroke="none"/><text x="760" y="645" text-anchor="middle" font-size="13" fill="#333" font-family="-apple-system,BlinkMacSystemFont,sans-serif">杂费核对</text><path d="M620,620 C670,620 670,680 720,680" fill="none" stroke="#DFB85D" stroke-width="2"/><rect x="720" y="665" width="80" height="30" rx="6" fill="#fafafa" stroke="none"/><text x="760" y="685" text-anchor="middle" font-size="13" fill="#333" font-family="-apple-system,BlinkMacSystemFont,sans-serif">……</text><path d="M100.64,0 C190.64,0 190.64,880 280.64,880" fill="none" stroke="#B1C774" stroke-width="2"/><rect x="180" y="865" width="80" height="30" rx="6" fill="#fafafa" stroke="none"/><text x="220" y="885" text-anchor="middle" font-size="13" fill="#333" font-family="-apple-system,BlinkMacSystemFont,sans-serif">OMP</text><path d="M260,880 C310,880 310,720 360,720" fill="none" stroke="#B1C774" stroke-width="2"/><rect x="360" y="705" width="533" height="30" rx="6" fill="#fafafa" stroke="none"/><text x="626.5" y="725" text-anchor="middle" font-size="13" fill="#333" font-family="-apple-system,BlinkMacSystemFont,sans-serif">公共数据平台，作为一个数据中台系统，提供给其他系统调用一些公共的，可复用的信息</text><path d="M260,880 C310,880 310,900 360,900" fill="none" stroke="#B1C774" stroke-width="2"/><rect x="360" y="885" width="80" height="30" rx="6" fill="#fafafa" stroke="none"/><text x="400" y="905" text-anchor="middle" font-size="13" fill="#333" font-family="-apple-system,BlinkMacSystemFont,sans-serif">主要模块</text><path d="M440,900 C490,900 490,760 540,760" fill="none" stroke="#B1C774" stroke-width="2"/><rect x="540" y="745" width="80" height="30" rx="6" fill="#fafafa" stroke="none"/><text x="580" y="765" text-anchor="middle" font-size="13" fill="#333" font-family="-apple-system,BlinkMacSystemFont,sans-serif">货主信息</text><path d="M440,900 C490,900 490,800 540,800" fill="none" stroke="#B1C774" stroke-width="2"/><rect x="540" y="785" width="80" height="30" rx="6" fill="#fafafa" stroke="none"/><text x="580" y="805" text-anchor="middle" font-size="13" fill="#333" font-family="-apple-system,BlinkMacSystemFont,sans-serif">产品信息</text><path d="M440,900 C490,900 490,840 540,840" fill="none" stroke="#B1C774" stroke-width="2"/><rect x="540" y="825" width="80" height="30" rx="6" fill="#fafafa" stroke="none"/><text x="580" y="845" text-anchor="middle" font-size="13" fill="#333" font-family="-apple-system,BlinkMacSystemFont,sans-serif">仓库信息</text><path d="M440,900 C490,900 490,880 540,880" fill="none" stroke="#B1C774" stroke-width="2"/><rect x="540" y="865" width="104" height="30" rx="6" fill="#fafafa" stroke="none"/><text x="592" y="885" text-anchor="middle" font-size="13" fill="#333" font-family="-apple-system,BlinkMacSystemFont,sans-serif">物流渠道信息</text><path d="M440,900 C490,900 490,960 540,960" fill="none" stroke="#B1C774" stroke-width="2"/><rect x="540" y="945" width="80" height="30" rx="6" fill="#fafafa" stroke="none"/><text x="580" y="965" text-anchor="middle" font-size="13" fill="#333" font-family="-apple-system,BlinkMacSystemFont,sans-serif">基础数据</text><path d="M620,960 C670,960 670,920 720,920" fill="none" stroke="#B1C774" stroke-width="2"/><rect x="720" y="905" width="143.51999999999998" height="30" rx="6" fill="#fafafa" stroke="none"/><text x="791.76" y="925" text-anchor="middle" font-size="13" fill="#333" font-family="-apple-system,BlinkMacSystemFont,sans-serif">国家/省州/城市数据</text><path d="M620,960 C670,960 670,960 720,960" fill="none" stroke="#B1C774" stroke-width="2"/><rect x="720" y="945" width="80" height="30" rx="6" fill="#fafafa" stroke="none"/><text x="760" y="965" text-anchor="middle" font-size="13" fill="#333" font-family="-apple-system,BlinkMacSystemFont,sans-serif">地址管理</text><path d="M620,960 C670,960 670,1000 720,1000" fill="none" stroke="#B1C774" stroke-width="2"/><rect x="720" y="985" width="80" height="30" rx="6" fill="#fafafa" stroke="none"/><text x="760" y="1005" text-anchor="middle" font-size="13" fill="#333" font-family="-apple-system,BlinkMacSystemFont,sans-serif">货币管理</text><path d="M440,900 C490,900 490,1040 540,1040" fill="none" stroke="#B1C774" stroke-width="2"/><rect x="540" y="1025" width="84.75999999999999" height="30" rx="6" fill="#fafafa" stroke="none"/><text x="582.38" y="1045" text-anchor="middle" font-size="13" fill="#333" font-family="-apple-system,BlinkMacSystemFont,sans-serif">规则&amp;策略</text>
</svg>