<svg xmlns="http://www.w3.org/2000/svg" xmlns:xlink="http://www.w3.org/1999/xlink"
  viewBox="-120.5 -28.4921875 1394 1456" width="1394" height="1456"
  style="background:#fff; font-family:-apple-system,BlinkMacSystemFont,'Segoe UI',Roboto,sans-serif;">
<defs></defs>
<rect x="-120.5" y="-28.4921875" width="1394" height="1456" fill="#fff"/>
<rect x="-36.5" y="790.5078125" width="136" height="36" rx="8" fill="rgb(245, 245, 245)" stroke="none"/><text x="31.5" y="814.5078125" text-anchor="middle" font-size="16" font-weight="bold" fill="#333" font-family="-apple-system,BlinkMacSystemFont,sans-serif">基础工具推荐</text><path d="M99.5,808.5078125 C189.5,808.5078125 189.5,608.5078125 279.5,608.5078125" fill="none" stroke="#A287E1" stroke-width="2"/><rect x="211.5" y="593.5078125" width="156" height="30" rx="6" fill="#fafafa" stroke="none"/><text x="289.5" y="613.5078125" text-anchor="middle" font-size="13" fill="#333" font-family="-apple-system,BlinkMacSystemFont,sans-serif">日常高频用的一些软件</text><path d="M367.5,608.5078125 C379.5,608.5078125 379.5,308.5078125 391.5,308.5078125" fill="none" stroke="#A287E1" stroke-width="2"/><rect x="391.5" y="293.5078125" width="80" height="30" rx="6" fill="#fafafa" stroke="none"/><text x="431.5" y="313.5078125" text-anchor="middle" font-size="13" fill="#333" font-family="-apple-system,BlinkMacSystemFont,sans-serif">腾讯会议</text><path d="M471.5,308.5078125 C521.5,308.5078125 521.5,288.5078125 571.5,288.5078125" fill="none" stroke="#A287E1" stroke-width="2"/><rect x="571.5" y="273.5078125" width="91" height="30" rx="6" fill="#fafafa" stroke="none"/><text x="617" y="293.5078125" text-anchor="middle" font-size="13" fill="#333" font-family="-apple-system,BlinkMacSystemFont,sans-serif">上课时必备</text><path d="M471.5,308.5078125 C521.5,308.5078125 521.5,328.5078125 571.5,328.5078125" fill="none" stroke="#A287E1" stroke-width="2"/><rect x="571.5" y="313.5078125" width="247" height="30" rx="6" fill="#fafafa" stroke="none"/><text x="695" y="333.5078125" text-anchor="middle" font-size="13" fill="#333" font-family="-apple-system,BlinkMacSystemFont,sans-serif">建议有条件的用电脑观看，效果会更好</text><path d="M367.5,608.5078125 C379.5,608.5078125 379.5,388.5078125 391.5,388.5078125" fill="none" stroke="#A287E1" stroke-width="2"/><rect x="391.5" y="373.5078125" width="98.14999999999999" height="30" rx="6" fill="#fafafa" stroke="none"/><text x="440.575" y="393.5078125" text-anchor="middle" font-size="13" fill="#333" font-family="-apple-system,BlinkMacSystemFont,sans-serif">⭐️Axure RP9</text><path d="M489.65,388.5078125 C530.575,388.5078125 530.575,368.5078125 571.5,368.5078125" fill="none" stroke="#A287E1" stroke-width="2"/><rect x="571.5" y="353.5078125" width="207.86999999999998" height="30" rx="6" fill="#fafafa" stroke="none"/><text x="675.435" y="373.5078125" text-anchor="middle" font-size="13" fill="#333" font-family="-apple-system,BlinkMacSystemFont,sans-serif">项目实战时必备，RP9 3740版本</text><path d="M489.65,388.5078125 C530.575,388.5078125 530.575,408.5078125 571.5,408.5078125" fill="none" stroke="#A287E1" stroke-width="2"/><rect x="571.5" y="393.5078125" width="280.1499999999999" height="30" rx="6" fill="#fafafa" stroke="none"/><text x="711.5749999999999" y="413.5078125" text-anchor="middle" font-size="13" fill="#333" font-family="-apple-system,BlinkMacSystemFont,sans-serif">在账户管理中，提前添加好Axure Cloud账号</text><path d="M851.6499999999999,408.5078125 C801.5749999999999,408.5078125 801.5749999999999,408.5078125 751.5,408.5078125" fill="none" stroke="#A287E1" stroke-width="2"/><rect x="751.5" y="393.5078125" width="254.14999999999995" height="30" rx="6" fill="#fafafa" stroke="none"/><text x="878.5749999999999" y="413.5078125" text-anchor="middle" font-size="13" fill="#333" font-family="-apple-system,BlinkMacSystemFont,sans-serif">会给每个人开对应的Axure Cloud的账号</text><path d="M367.5,608.5078125 C379.5,608.5078125 379.5,468.5078125 391.5,468.5078125" fill="none" stroke="#A287E1" stroke-width="2"/><rect x="391.5" y="453.5078125" width="91.52" height="30" rx="6" fill="#fafafa" stroke="none"/><text x="437.26" y="473.5078125" text-anchor="middle" font-size="13" fill="#333" font-family="-apple-system,BlinkMacSystemFont,sans-serif">⭐️代理软件</text><path d="M483.02,468.5078125 C527.26,468.5078125 527.26,448.5078125 571.5,448.5078125" fill="none" stroke="#A287E1" stroke-width="2"/><rect x="571.5" y="433.5078125" width="223.60000000000002" height="30" rx="6" fill="#fafafa" stroke="none"/><text x="683.3" y="453.5078125" text-anchor="middle" font-size="13" fill="#333" font-family="-apple-system,BlinkMacSystemFont,sans-serif">Windows和Mac的客户端提前安装好</text><path d="M483.02,468.5078125 C527.26,468.5078125 527.26,488.5078125 571.5,488.5078125" fill="none" stroke="#A287E1" stroke-width="2"/><rect x="571.5" y="473.5078125" width="313.56000000000006" height="30" rx="6" fill="#fafafa" stroke="none"/><text x="728.28" y="493.5078125" text-anchor="middle" font-size="13" fill="#333" font-family="-apple-system,BlinkMacSystemFont,sans-serif">会不会使用Google，是产品经理能力突破的分水岭</text><path d="M367.5,608.5078125 C379.5,608.5078125 379.5,568.5078125 391.5,568.5078125" fill="none" stroke="#A287E1" stroke-width="2"/><rect x="391.5" y="553.5078125" width="86.83999999999999" height="30" rx="6" fill="#fafafa" stroke="none"/><text x="434.92" y="573.5078125" text-anchor="middle" font-size="13" fill="#333" font-family="-apple-system,BlinkMacSystemFont,sans-serif">⭐️draw.io</text><path d="M478.34,568.5078125 C524.92,568.5078125 524.92,528.5078125 571.5,528.5078125" fill="none" stroke="#A287E1" stroke-width="2"/><rect x="571.5" y="513.5078125" width="275.6" height="30" rx="6" fill="#fafafa" stroke="none"/><text x="709.3" y="533.5078125" text-anchor="middle" font-size="13" fill="#333" font-family="-apple-system,BlinkMacSystemFont,sans-serif">Windows和Mac都有客户端，建议提前安装好</text><path d="M478.34,568.5078125 C524.92,568.5078125 524.92,568.5078125 571.5,568.5078125" fill="none" stroke="#A287E1" stroke-width="2"/><rect x="571.5" y="553.5078125" width="306.79999999999995" height="30" rx="6" fill="#fafafa" stroke="none"/><text x="724.9" y="573.5078125" text-anchor="middle" font-size="13" fill="#333" font-family="-apple-system,BlinkMacSystemFont,sans-serif">使用非常广的开源的流程图工具，可以平替Visio</text><path d="M478.34,568.5078125 C524.92,568.5078125 524.92,608.5078125 571.5,608.5078125" fill="none" stroke="#A287E1" stroke-width="2"/><rect x="571.5" y="593.5078125" width="241.28000000000003" height="30" rx="6" fill="#fafafa" stroke="none"/><text x="692.14" y="613.5078125" text-anchor="middle" font-size="13" fill="#333" font-family="-apple-system,BlinkMacSystemFont,sans-serif">我也经常用它来干PPT的活，无限白板</text><path d="M367.5,608.5078125 C379.5,608.5078125 379.5,668.5078125 391.5,668.5078125" fill="none" stroke="#A287E1" stroke-width="2"/><rect x="391.5" y="653.5078125" width="80" height="30" rx="6" fill="#fafafa" stroke="none"/><text x="431.5" y="673.5078125" text-anchor="middle" font-size="13" fill="#333" font-family="-apple-system,BlinkMacSystemFont,sans-serif">XMind</text><path d="M471.5,668.5078125 C521.5,668.5078125 521.5,648.5078125 571.5,648.5078125" fill="none" stroke="#A287E1" stroke-width="2"/><rect x="571.5" y="633.5078125" width="171.60000000000002" height="30" rx="6" fill="#fafafa" stroke="none"/><text x="657.3" y="653.5078125" text-anchor="middle" font-size="13" fill="#333" font-family="-apple-system,BlinkMacSystemFont,sans-serif">Windows和Mac都有客户端</text><path d="M471.5,668.5078125 C521.5,668.5078125 521.5,688.5078125 571.5,688.5078125" fill="none" stroke="#A287E1" stroke-width="2"/><rect x="571.5" y="673.5078125" width="221" height="30" rx="6" fill="#fafafa" stroke="none"/><text x="682" y="693.5078125" text-anchor="middle" font-size="13" fill="#333" font-family="-apple-system,BlinkMacSystemFont,sans-serif">也可以使用在线文档中的思维导图</text><path d="M367.5,608.5078125 C379.5,608.5078125 379.5,768.5078125 391.5,768.5078125" fill="none" stroke="#A287E1" stroke-width="2"/><rect x="391.5" y="753.5078125" width="80" height="30" rx="6" fill="#fafafa" stroke="none"/><text x="431.5" y="773.5078125" text-anchor="middle" font-size="13" fill="#333" font-family="-apple-system,BlinkMacSystemFont,sans-serif">浏览器</text><path d="M471.5,768.5078125 C521.5,768.5078125 521.5,728.5078125 571.5,728.5078125" fill="none" stroke="#A287E1" stroke-width="2"/><rect x="571.5" y="713.5078125" width="353.6" height="30" rx="6" fill="#fafafa" stroke="none"/><text x="748.3" y="733.5078125" text-anchor="middle" font-size="13" fill="#333" font-family="-apple-system,BlinkMacSystemFont,sans-serif">推荐使用Edge或者Chrome，而不是国产浏览器，减少广告</text><path d="M471.5,768.5078125 C521.5,768.5078125 521.5,768.5078125 571.5,768.5078125" fill="none" stroke="#A287E1" stroke-width="2"/><rect x="571.5" y="753.5078125" width="404.04" height="30" rx="6" fill="#fafafa" stroke="none"/><text x="773.52" y="773.5078125" text-anchor="middle" font-size="13" fill="#333" font-family="-apple-system,BlinkMacSystemFont,sans-serif">没有代理到时候用Edge比较好，可以方便安装插件和账号同步信息</text><path d="M471.5,768.5078125 C521.5,768.5078125 521.5,808.5078125 571.5,808.5078125" fill="none" stroke="#A287E1" stroke-width="2"/><rect x="571.5" y="793.5078125" width="313.55999999999995" height="30" rx="6" fill="#fafafa" stroke="none"/><text x="728.28" y="813.5078125" text-anchor="middle" font-size="13" fill="#333" font-family="-apple-system,BlinkMacSystemFont,sans-serif">有代理的时候可以用Chrome，比较稳定，通用性强</text><path d="M367.5,608.5078125 C379.5,608.5078125 379.5,888.5078125 391.5,888.5078125" fill="none" stroke="#A287E1" stroke-width="2"/><rect x="391.5" y="873.5078125" width="124.28" height="30" rx="6" fill="#fafafa" stroke="none"/><text x="453.64" y="893.5078125" text-anchor="middle" font-size="13" fill="#333" font-family="-apple-system,BlinkMacSystemFont,sans-serif">API接口调试工具</text><path d="M515.78,888.5078125 C543.64,888.5078125 543.64,848.5078125 571.5,848.5078125" fill="none" stroke="#A287E1" stroke-width="2"/><rect x="571.5" y="833.5078125" width="80" height="30" rx="6" fill="#fafafa" stroke="none"/><text x="611.5" y="853.5078125" text-anchor="middle" font-size="13" fill="#333" font-family="-apple-system,BlinkMacSystemFont,sans-serif">Apifox</text><path d="M515.78,888.5078125 C543.64,888.5078125 543.64,888.5078125 571.5,888.5078125" fill="none" stroke="#A287E1" stroke-width="2"/><rect x="571.5" y="873.5078125" width="80" height="30" rx="6" fill="#fafafa" stroke="none"/><text x="611.5" y="893.5078125" text-anchor="middle" font-size="13" fill="#333" font-family="-apple-system,BlinkMacSystemFont,sans-serif">Postman</text><path d="M515.78,888.5078125 C543.64,888.5078125 543.64,928.5078125 571.5,928.5078125" fill="none" stroke="#A287E1" stroke-width="2"/><rect x="571.5" y="913.5078125" width="80" height="30" rx="6" fill="#fafafa" stroke="none"/><text x="611.5" y="933.5078125" text-anchor="middle" font-size="13" fill="#333" font-family="-apple-system,BlinkMacSystemFont,sans-serif">ApiPost</text><path d="M99.5,808.5078125 C189.5,808.5078125 189.5,988.5078125 279.5,988.5078125" fill="none" stroke="#DFB85D" stroke-width="2"/><rect x="211.5" y="973.5078125" width="143" height="30" rx="6" fill="#fafafa" stroke="none"/><text x="283" y="993.5078125" text-anchor="middle" font-size="13" fill="#333" font-family="-apple-system,BlinkMacSystemFont,sans-serif">效率类型的工具推荐</text><path d="M354.5,988.5078125 C373,988.5078125 373,968.5078125 391.5,968.5078125" fill="none" stroke="#DFB85D" stroke-width="2"/><rect x="391.5" y="953.5078125" width="80" height="30" rx="6" fill="#fafafa" stroke="none"/><text x="431.5" y="973.5078125" text-anchor="middle" font-size="13" fill="#333" font-family="-apple-system,BlinkMacSystemFont,sans-serif"></text><path d="M354.5,988.5078125 C373,988.5078125 373,1008.5078125 391.5,1008.5078125" fill="none" stroke="#DFB85D" stroke-width="2"/><rect x="391.5" y="993.5078125" width="458.63999999999965" height="30" rx="6" fill="#fafafa" stroke="none"/><text x="620.8199999999998" y="1013.5078125" text-anchor="middle" font-size="13" fill="#333" font-family="-apple-system,BlinkMacSystemFont,sans-serif">https://www.yuque.com/jiaowovitamin/zsxq2/gsntokip0223w1s7#NuycG</text><path d="M99.5,808.5078125 C189.5,808.5078125 189.5,1148.5078125 279.5,1148.5078125" fill="none" stroke="#6EC4C4" stroke-width="2"/><rect x="211.5" y="1133.5078125" width="163.14999999999998" height="30" rx="6" fill="#fafafa" stroke="none"/><text x="293.075" y="1153.5078125" text-anchor="middle" font-size="13" fill="#333" font-family="-apple-system,BlinkMacSystemFont,sans-serif">Axure Cloud的使用指南</text><path d="M374.65,1148.5078125 C383.075,1148.5078125 383.075,1048.5078125 391.5,1048.5078125" fill="none" stroke="#6EC4C4" stroke-width="2"/><rect x="391.5" y="1033.5078125" width="176.28" height="30" rx="6" fill="#fafafa" stroke="none"/><text x="479.64" y="1053.5078125" text-anchor="middle" font-size="13" fill="#333" font-family="-apple-system,BlinkMacSystemFont,sans-serif">1.怎么创建/拉取团队项目</text><path d="M374.65,1148.5078125 C383.075,1148.5078125 383.075,1088.5078125 391.5,1088.5078125" fill="none" stroke="#6EC4C4" stroke-width="2"/><rect x="391.5" y="1073.5078125" width="143.51999999999998" height="30" rx="6" fill="#fafafa" stroke="none"/><text x="463.26" y="1093.5078125" text-anchor="middle" font-size="13" fill="#333" font-family="-apple-system,BlinkMacSystemFont,sans-serif">2.怎么使用云组件库</text><path d="M374.65,1148.5078125 C383.075,1148.5078125 383.075,1168.5078125 391.5,1168.5078125" fill="none" stroke="#6EC4C4" stroke-width="2"/><rect x="391.5" y="1153.5078125" width="156.51999999999998" height="30" rx="6" fill="#fafafa" stroke="none"/><text x="469.76" y="1173.5078125" text-anchor="middle" font-size="13" fill="#333" font-family="-apple-system,BlinkMacSystemFont,sans-serif">3.怎么与他人一起协作</text><path d="M548.02,1168.5078125 C559.76,1168.5078125 559.76,1128.5078125 571.5,1128.5078125" fill="none" stroke="#6EC4C4" stroke-width="2"/><rect x="571.5" y="1113.5078125" width="80" height="30" rx="6" fill="#fafafa" stroke="none"/><text x="611.5" y="1133.5078125" text-anchor="middle" font-size="13" fill="#333" font-family="-apple-system,BlinkMacSystemFont,sans-serif">签入</text><path d="M548.02,1168.5078125 C559.76,1168.5078125 559.76,1168.5078125 571.5,1168.5078125" fill="none" stroke="#6EC4C4" stroke-width="2"/><rect x="571.5" y="1153.5078125" width="80" height="30" rx="6" fill="#fafafa" stroke="none"/><text x="611.5" y="1173.5078125" text-anchor="middle" font-size="13" fill="#333" font-family="-apple-system,BlinkMacSystemFont,sans-serif">签出</text><path d="M548.02,1168.5078125 C559.76,1168.5078125 559.76,1208.5078125 571.5,1208.5078125" fill="none" stroke="#6EC4C4" stroke-width="2"/><rect x="571.5" y="1193.5078125" width="188.76" height="30" rx="6" fill="#fafafa" stroke="none"/><text x="665.88" y="1213.5078125" text-anchor="middle" font-size="13" fill="#333" font-family="-apple-system,BlinkMacSystemFont,sans-serif">不同的项目/文件夹权限设置</text><path d="M374.65,1148.5078125 C383.075,1148.5078125 383.075,1248.5078125 391.5,1248.5078125" fill="none" stroke="#6EC4C4" stroke-width="2"/><rect x="391.5" y="1233.5078125" width="80" height="30" rx="6" fill="#fafafa" stroke="none"/><text x="431.5" y="1253.5078125" text-anchor="middle" font-size="13" fill="#333" font-family="-apple-system,BlinkMacSystemFont,sans-serif">4.其他……</text><path d="M99.5,808.5078125 C189.5,808.5078125 189.5,1308.5078125 279.5,1308.5078125" fill="none" stroke="#DFB85D" stroke-width="2"/><rect x="211.5" y="1293.5078125" width="80" height="30" rx="6" fill="#fafafa" stroke="none"/><text x="251.5" y="1313.5078125" text-anchor="middle" font-size="13" fill="#333" font-family="-apple-system,BlinkMacSystemFont,sans-serif">今晚作业</text><path d="M291.5,1308.5078125 C341.5,1308.5078125 341.5,1288.5078125 391.5,1288.5078125" fill="none" stroke="#DFB85D" stroke-width="2"/><rect x="391.5" y="1273.5078125" width="559" height="30" rx="6" fill="#fafafa" stroke="none"/><text x="671" y="1293.5078125" text-anchor="middle" font-size="13" fill="#333" font-family="-apple-system,BlinkMacSystemFont,sans-serif">每个人都试着新建一个团队项目，同时拉取一个别人的测试项目进行修改，再签入（强制性）</text><path d="M291.5,1308.5078125 C341.5,1308.5078125 341.5,1328.5078125 391.5,1328.5078125" fill="none" stroke="#DFB85D" stroke-width="2"/><rect x="391.5" y="1313.5078125" width="611" height="30" rx="6" fill="#fafafa" stroke="none"/><text x="697" y="1333.5078125" text-anchor="middle" font-size="13" fill="#333" font-family="-apple-system,BlinkMacSystemFont,sans-serif">如果对自己的原型想要被别人点评一下，可以上传一个脱敏的原型，我明天给你走查一下（非强制性）</text>
</svg>