<svg xmlns="http://www.w3.org/2000/svg" xmlns:xlink="http://www.w3.org/1999/xlink"
  viewBox="-156.48000000000002 -1139 1077.48 2278" width="1077.48" height="2278"
  style="background:#fff; font-family:-apple-system,BlinkMacSystemFont,'Segoe UI',Roboto,sans-serif;">
<defs></defs>
<rect x="-156.48000000000002" y="-1139" width="1077.48" height="2278" fill="#fff"/>
<rect x="-72.48" y="-18" width="144.96" height="36" rx="8" fill="#EFF0F0" stroke="none"/><text x="0" y="6" text-anchor="middle" font-size="16" font-weight="bold" fill="#333" font-family="-apple-system,BlinkMacSystemFont,sans-serif">WMS的基础核心</text><path d="M72.48,0 C162.48000000000002,0 162.48000000000002,-740 252.48000000000002,-740" fill="none" stroke="#A287E1" stroke-width="2"/><rect x="180" y="-755" width="80" height="30" rx="6" fill="#fafafa" stroke="none"/><text x="220" y="-735" text-anchor="middle" font-size="13" fill="#333" font-family="-apple-system,BlinkMacSystemFont,sans-serif">入库</text><path d="M260,-740 C310,-740 310,-920 360,-920" fill="none" stroke="#A287E1" stroke-width="2"/><rect x="360" y="-935" width="80" height="30" rx="6" fill="#fafafa" stroke="none"/><text x="400" y="-915" text-anchor="middle" font-size="13" fill="#333" font-family="-apple-system,BlinkMacSystemFont,sans-serif">收货</text><path d="M440,-920 C490,-920 490,-1040 540,-1040" fill="none" stroke="#A287E1" stroke-width="2"/><rect x="540" y="-1055" width="91" height="30" rx="6" fill="#fafafa" stroke="none"/><text x="585.5" y="-1035" text-anchor="middle" font-size="13" fill="#333" font-family="-apple-system,BlinkMacSystemFont,sans-serif">多批次收货</text><path d="M440,-920 C490,-920 490,-1000 540,-1000" fill="none" stroke="#A287E1" stroke-width="2"/><rect x="540" y="-1015" width="80" height="30" rx="6" fill="#fafafa" stroke="none"/><text x="580" y="-995" text-anchor="middle" font-size="13" fill="#333" font-family="-apple-system,BlinkMacSystemFont,sans-serif">差异收货</text><path d="M440,-920 C490,-920 490,-960 540,-960" fill="none" stroke="#A287E1" stroke-width="2"/><rect x="540" y="-975" width="80" height="30" rx="6" fill="#fafafa" stroke="none"/><text x="580" y="-955" text-anchor="middle" font-size="13" fill="#333" font-family="-apple-system,BlinkMacSystemFont,sans-serif">月台预约</text><path d="M620,-960 C670,-960 670,-960 720,-960" fill="none" stroke="#A287E1" stroke-width="2"/><rect x="720" y="-975" width="80" height="30" rx="6" fill="#fafafa" stroke="none"/><text x="760" y="-955" text-anchor="middle" font-size="13" fill="#333" font-family="-apple-system,BlinkMacSystemFont,sans-serif">可选</text><path d="M440,-920 C490,-920 490,-920 540,-920" fill="none" stroke="#A287E1" stroke-width="2"/><rect x="540" y="-935" width="80" height="30" rx="6" fill="#fafafa" stroke="none"/><text x="580" y="-915" text-anchor="middle" font-size="13" fill="#333" font-family="-apple-system,BlinkMacSystemFont,sans-serif">到货签收</text><path d="M620,-920 C670,-920 670,-920 720,-920" fill="none" stroke="#A287E1" stroke-width="2"/><rect x="720" y="-935" width="80" height="30" rx="6" fill="#fafafa" stroke="none"/><text x="760" y="-915" text-anchor="middle" font-size="13" fill="#333" font-family="-apple-system,BlinkMacSystemFont,sans-serif">可选</text><path d="M440,-920 C490,-920 490,-880 540,-880" fill="none" stroke="#A287E1" stroke-width="2"/><rect x="540" y="-895" width="123.75999999999999" height="30" rx="6" fill="#fafafa" stroke="none"/><text x="601.88" y="-875" text-anchor="middle" font-size="13" fill="#333" font-family="-apple-system,BlinkMacSystemFont,sans-serif">按箱/多单位收货</text><path d="M663.76,-880 C691.88,-880 691.88,-880 720,-880" fill="none" stroke="#A287E1" stroke-width="2"/><rect x="720" y="-895" width="80" height="30" rx="6" fill="#fafafa" stroke="none"/><text x="760" y="-875" text-anchor="middle" font-size="13" fill="#333" font-family="-apple-system,BlinkMacSystemFont,sans-serif">可选</text><path d="M440,-920 C490,-920 490,-840 540,-840" fill="none" stroke="#A287E1" stroke-width="2"/><rect x="540" y="-855" width="80" height="30" rx="6" fill="#fafafa" stroke="none"/><text x="580" y="-835" text-anchor="middle" font-size="13" fill="#333" font-family="-apple-system,BlinkMacSystemFont,sans-serif">新品维护</text><path d="M620,-840 C670,-840 670,-840 720,-840" fill="none" stroke="#A287E1" stroke-width="2"/><rect x="720" y="-855" width="80" height="30" rx="6" fill="#fafafa" stroke="none"/><text x="760" y="-835" text-anchor="middle" font-size="13" fill="#333" font-family="-apple-system,BlinkMacSystemFont,sans-serif">可选</text><path d="M440,-920 C490,-920 490,-800 540,-800" fill="none" stroke="#A287E1" stroke-width="2"/><rect x="540" y="-815" width="104" height="30" rx="6" fill="#fafafa" stroke="none"/><text x="592" y="-795" text-anchor="middle" font-size="13" fill="#333" font-family="-apple-system,BlinkMacSystemFont,sans-serif">批次属性维护</text><path d="M644,-800 C682,-800 682,-800 720,-800" fill="none" stroke="#A287E1" stroke-width="2"/><rect x="720" y="-815" width="80" height="30" rx="6" fill="#fafafa" stroke="none"/><text x="760" y="-795" text-anchor="middle" font-size="13" fill="#333" font-family="-apple-system,BlinkMacSystemFont,sans-serif">可选</text><path d="M260,-740 C310,-740 310,-760 360,-760" fill="none" stroke="#A287E1" stroke-width="2"/><rect x="360" y="-775" width="80" height="30" rx="6" fill="#fafafa" stroke="none"/><text x="400" y="-755" text-anchor="middle" font-size="13" fill="#333" font-family="-apple-system,BlinkMacSystemFont,sans-serif">质检</text><path d="M440,-760 C490,-760 490,-760 540,-760" fill="none" stroke="#A287E1" stroke-width="2"/><rect x="540" y="-775" width="80" height="30" rx="6" fill="#fafafa" stroke="none"/><text x="580" y="-755" text-anchor="middle" font-size="13" fill="#333" font-family="-apple-system,BlinkMacSystemFont,sans-serif">可选</text><path d="M260,-740 C310,-740 310,-640 360,-640" fill="none" stroke="#A287E1" stroke-width="2"/><rect x="360" y="-655" width="80" height="30" rx="6" fill="#fafafa" stroke="none"/><text x="400" y="-635" text-anchor="middle" font-size="13" fill="#333" font-family="-apple-system,BlinkMacSystemFont,sans-serif">上架</text><path d="M440,-640 C490,-640 490,-720 540,-720" fill="none" stroke="#A287E1" stroke-width="2"/><rect x="540" y="-735" width="80" height="30" rx="6" fill="#fafafa" stroke="none"/><text x="580" y="-715" text-anchor="middle" font-size="13" fill="#333" font-family="-apple-system,BlinkMacSystemFont,sans-serif">按单上架</text><path d="M440,-640 C490,-640 490,-680 540,-680" fill="none" stroke="#A287E1" stroke-width="2"/><rect x="540" y="-695" width="85.28" height="30" rx="6" fill="#fafafa" stroke="none"/><text x="582.64" y="-675" text-anchor="middle" font-size="13" fill="#333" font-family="-apple-system,BlinkMacSystemFont,sans-serif">按SKU上架</text><path d="M440,-640 C490,-640 490,-640 540,-640" fill="none" stroke="#A287E1" stroke-width="2"/><rect x="540" y="-655" width="91" height="30" rx="6" fill="#fafafa" stroke="none"/><text x="585.5" y="-635" text-anchor="middle" font-size="13" fill="#333" font-family="-apple-system,BlinkMacSystemFont,sans-serif">按容器上架</text><path d="M631,-640 C675.5,-640 675.5,-640 720,-640" fill="none" stroke="#A287E1" stroke-width="2"/><rect x="720" y="-655" width="80" height="30" rx="6" fill="#fafafa" stroke="none"/><text x="760" y="-635" text-anchor="middle" font-size="13" fill="#333" font-family="-apple-system,BlinkMacSystemFont,sans-serif">可选</text><path d="M440,-640 C490,-640 490,-600 540,-600" fill="none" stroke="#A287E1" stroke-width="2"/><rect x="540" y="-615" width="80" height="30" rx="6" fill="#fafafa" stroke="none"/><text x="580" y="-595" text-anchor="middle" font-size="13" fill="#333" font-family="-apple-system,BlinkMacSystemFont,sans-serif">上架推荐</text><path d="M620,-600 C670,-600 670,-600 720,-600" fill="none" stroke="#A287E1" stroke-width="2"/><rect x="720" y="-615" width="80" height="30" rx="6" fill="#fafafa" stroke="none"/><text x="760" y="-595" text-anchor="middle" font-size="13" fill="#333" font-family="-apple-system,BlinkMacSystemFont,sans-serif">可选</text><path d="M440,-640 C490,-640 490,-560 540,-560" fill="none" stroke="#A287E1" stroke-width="2"/><rect x="540" y="-575" width="80" height="30" rx="6" fill="#fafafa" stroke="none"/><text x="580" y="-555" text-anchor="middle" font-size="13" fill="#333" font-family="-apple-system,BlinkMacSystemFont,sans-serif">上架策略</text><path d="M620,-560 C670,-560 670,-560 720,-560" fill="none" stroke="#A287E1" stroke-width="2"/><rect x="720" y="-575" width="80" height="30" rx="6" fill="#EFF0F0" stroke="none"/><text x="760" y="-555" text-anchor="middle" font-size="13" fill="#333" font-family="-apple-system,BlinkMacSystemFont,sans-serif">可选</text><path d="M260,-740 C310,-740 310,-480 360,-480" fill="none" stroke="#A287E1" stroke-width="2"/><rect x="360" y="-495" width="80" height="30" rx="6" fill="#fafafa" stroke="none"/><text x="400" y="-475" text-anchor="middle" font-size="13" fill="#333" font-family="-apple-system,BlinkMacSystemFont,sans-serif">库存处理</text><path d="M440,-480 C490,-480 490,-520 540,-520" fill="none" stroke="#A287E1" stroke-width="2"/><rect x="540" y="-535" width="104" height="30" rx="6" fill="#fafafa" stroke="none"/><text x="592" y="-515" text-anchor="middle" font-size="13" fill="#333" font-family="-apple-system,BlinkMacSystemFont,sans-serif">仓库库存变化</text><path d="M440,-480 C490,-480 490,-480 540,-480" fill="none" stroke="#A287E1" stroke-width="2"/><rect x="540" y="-495" width="104" height="30" rx="6" fill="#fafafa" stroke="none"/><text x="592" y="-475" text-anchor="middle" font-size="13" fill="#333" font-family="-apple-system,BlinkMacSystemFont,sans-serif">库位库存变化</text><path d="M440,-480 C490,-480 490,-440 540,-440" fill="none" stroke="#A287E1" stroke-width="2"/><rect x="540" y="-455" width="136.76" height="30" rx="6" fill="#fafafa" stroke="none"/><text x="608.38" y="-435" text-anchor="middle" font-size="13" fill="#333" font-family="-apple-system,BlinkMacSystemFont,sans-serif">库位-批次库存变化</text><path d="M676.76,-440 C698.38,-440 698.38,-440 720,-440" fill="none" stroke="#A287E1" stroke-width="2"/><rect x="720" y="-455" width="80" height="30" rx="6" fill="#fafafa" stroke="none"/><text x="760" y="-435" text-anchor="middle" font-size="13" fill="#333" font-family="-apple-system,BlinkMacSystemFont,sans-serif">可选</text><path d="M72.48,0 C162.48000000000002,0 162.48000000000002,-40 252.48000000000002,-40" fill="none" stroke="#6F81DB" stroke-width="2"/><rect x="180" y="-55" width="80" height="30" rx="6" fill="#fafafa" stroke="none"/><text x="220" y="-35" text-anchor="middle" font-size="13" fill="#333" font-family="-apple-system,BlinkMacSystemFont,sans-serif">出库</text><path d="M260,-40 C310,-40 310,-340 360,-340" fill="none" stroke="#6F81DB" stroke-width="2"/><rect x="360" y="-355" width="80" height="30" rx="6" fill="#fafafa" stroke="none"/><text x="400" y="-335" text-anchor="middle" font-size="13" fill="#333" font-family="-apple-system,BlinkMacSystemFont,sans-serif">预处理</text><path d="M440,-340 C490,-340 490,-400 540,-400" fill="none" stroke="#6F81DB" stroke-width="2"/><rect x="540" y="-415" width="80" height="30" rx="6" fill="#fafafa" stroke="none"/><text x="580" y="-395" text-anchor="middle" font-size="13" fill="#333" font-family="-apple-system,BlinkMacSystemFont,sans-serif">锁定库存</text><path d="M440,-340 C490,-340 490,-360 540,-360" fill="none" stroke="#6F81DB" stroke-width="2"/><rect x="540" y="-375" width="80" height="30" rx="6" fill="#fafafa" stroke="none"/><text x="580" y="-355" text-anchor="middle" font-size="13" fill="#333" font-family="-apple-system,BlinkMacSystemFont,sans-serif">分包裹</text><path d="M620,-360 C670,-360 670,-360 720,-360" fill="none" stroke="#6F81DB" stroke-width="2"/><rect x="720" y="-375" width="80" height="30" rx="6" fill="#fafafa" stroke="none"/><text x="760" y="-355" text-anchor="middle" font-size="13" fill="#333" font-family="-apple-system,BlinkMacSystemFont,sans-serif">可选</text><path d="M440,-340 C490,-340 490,-320 540,-320" fill="none" stroke="#6F81DB" stroke-width="2"/><rect x="540" y="-335" width="80" height="30" rx="6" fill="#fafafa" stroke="none"/><text x="580" y="-315" text-anchor="middle" font-size="13" fill="#333" font-family="-apple-system,BlinkMacSystemFont,sans-serif">物流下单</text><path d="M620,-320 C670,-320 670,-320 720,-320" fill="none" stroke="#6F81DB" stroke-width="2"/><rect x="720" y="-335" width="80" height="30" rx="6" fill="#fafafa" stroke="none"/><text x="760" y="-315" text-anchor="middle" font-size="13" fill="#333" font-family="-apple-system,BlinkMacSystemFont,sans-serif">可选</text><path d="M440,-340 C490,-340 490,-280 540,-280" fill="none" stroke="#6F81DB" stroke-width="2"/><rect x="540" y="-295" width="80" height="30" rx="6" fill="#fafafa" stroke="none"/><text x="580" y="-275" text-anchor="middle" font-size="13" fill="#333" font-family="-apple-system,BlinkMacSystemFont,sans-serif">打印单据</text><path d="M620,-280 C670,-280 670,-280 720,-280" fill="none" stroke="#6F81DB" stroke-width="2"/><rect x="720" y="-295" width="80" height="30" rx="6" fill="#fafafa" stroke="none"/><text x="760" y="-275" text-anchor="middle" font-size="13" fill="#333" font-family="-apple-system,BlinkMacSystemFont,sans-serif">可选</text><path d="M260,-40 C310,-40 310,-200 360,-200" fill="none" stroke="#6F81DB" stroke-width="2"/><rect x="360" y="-215" width="80" height="30" rx="6" fill="#fafafa" stroke="none"/><text x="400" y="-195" text-anchor="middle" font-size="13" fill="#333" font-family="-apple-system,BlinkMacSystemFont,sans-serif">波次</text><path d="M440,-200 C490,-200 490,-240 540,-240" fill="none" stroke="#6F81DB" stroke-width="2"/><rect x="540" y="-255" width="80" height="30" rx="6" fill="#fafafa" stroke="none"/><text x="580" y="-235" text-anchor="middle" font-size="13" fill="#333" font-family="-apple-system,BlinkMacSystemFont,sans-serif">分波逻辑</text><path d="M440,-200 C490,-200 490,-200 540,-200" fill="none" stroke="#6F81DB" stroke-width="2"/><rect x="540" y="-215" width="80" height="30" rx="6" fill="#fafafa" stroke="none"/><text x="580" y="-195" text-anchor="middle" font-size="13" fill="#333" font-family="-apple-system,BlinkMacSystemFont,sans-serif">波次策略</text><path d="M620,-200 C670,-200 670,-200 720,-200" fill="none" stroke="#6F81DB" stroke-width="2"/><rect x="720" y="-215" width="80" height="30" rx="6" fill="#fafafa" stroke="none"/><text x="760" y="-195" text-anchor="middle" font-size="13" fill="#333" font-family="-apple-system,BlinkMacSystemFont,sans-serif">可选</text><path d="M440,-200 C490,-200 490,-160 540,-160" fill="none" stroke="#6F81DB" stroke-width="2"/><rect x="540" y="-175" width="80" height="30" rx="6" fill="#fafafa" stroke="none"/><text x="580" y="-155" text-anchor="middle" font-size="13" fill="#333" font-family="-apple-system,BlinkMacSystemFont,sans-serif">波次模板</text><path d="M620,-160 C670,-160 670,-160 720,-160" fill="none" stroke="#6F81DB" stroke-width="2"/><rect x="720" y="-175" width="80" height="30" rx="6" fill="#EFF0F0" stroke="none"/><text x="760" y="-155" text-anchor="middle" font-size="13" fill="#333" font-family="-apple-system,BlinkMacSystemFont,sans-serif">可选</text><path d="M260,-40 C310,-40 310,-20 360,-20" fill="none" stroke="#6F81DB" stroke-width="2"/><rect x="360" y="-35" width="80" height="30" rx="6" fill="#fafafa" stroke="none"/><text x="400" y="-15" text-anchor="middle" font-size="13" fill="#333" font-family="-apple-system,BlinkMacSystemFont,sans-serif">拣货</text><path d="M440,-20 C490,-20 490,-120 540,-120" fill="none" stroke="#6F81DB" stroke-width="2"/><rect x="540" y="-135" width="80" height="30" rx="6" fill="#fafafa" stroke="none"/><text x="580" y="-115" text-anchor="middle" font-size="13" fill="#333" font-family="-apple-system,BlinkMacSystemFont,sans-serif">库位推荐</text><path d="M440,-20 C490,-20 490,-80 540,-80" fill="none" stroke="#6F81DB" stroke-width="2"/><rect x="540" y="-95" width="80" height="30" rx="6" fill="#fafafa" stroke="none"/><text x="580" y="-75" text-anchor="middle" font-size="13" fill="#333" font-family="-apple-system,BlinkMacSystemFont,sans-serif">拣货路径</text><path d="M620,-80 C670,-80 670,-80 720,-80" fill="none" stroke="#6F81DB" stroke-width="2"/><rect x="720" y="-95" width="80" height="30" rx="6" fill="#fafafa" stroke="none"/><text x="760" y="-75" text-anchor="middle" font-size="13" fill="#333" font-family="-apple-system,BlinkMacSystemFont,sans-serif">可选</text><path d="M440,-20 C490,-20 490,-40 540,-40" fill="none" stroke="#6F81DB" stroke-width="2"/><rect x="540" y="-55" width="80" height="30" rx="6" fill="#fafafa" stroke="none"/><text x="580" y="-35" text-anchor="middle" font-size="13" fill="#333" font-family="-apple-system,BlinkMacSystemFont,sans-serif">拣货任务</text><path d="M620,-40 C670,-40 670,-40 720,-40" fill="none" stroke="#6F81DB" stroke-width="2"/><rect x="720" y="-55" width="80" height="30" rx="6" fill="#fafafa" stroke="none"/><text x="760" y="-35" text-anchor="middle" font-size="13" fill="#333" font-family="-apple-system,BlinkMacSystemFont,sans-serif">可选</text><path d="M440,-20 C490,-20 490,40 540,40" fill="none" stroke="#6F81DB" stroke-width="2"/><rect x="540" y="25" width="80" height="30" rx="6" fill="#fafafa" stroke="none"/><text x="580" y="45" text-anchor="middle" font-size="13" fill="#333" font-family="-apple-system,BlinkMacSystemFont,sans-serif">拣货方式</text><path d="M620,40 C670,40 670,0 720,0" fill="none" stroke="#6F81DB" stroke-width="2"/><rect x="720" y="-15" width="80" height="30" rx="6" fill="#fafafa" stroke="none"/><text x="760" y="5" text-anchor="middle" font-size="13" fill="#333" font-family="-apple-system,BlinkMacSystemFont,sans-serif">先拣后分</text><path d="M620,40 C670,40 670,40 720,40" fill="none" stroke="#6F81DB" stroke-width="2"/><rect x="720" y="25" width="80" height="30" rx="6" fill="#fafafa" stroke="none"/><text x="760" y="45" text-anchor="middle" font-size="13" fill="#333" font-family="-apple-system,BlinkMacSystemFont,sans-serif">边拣边分</text><path d="M620,40 C670,40 670,80 720,80" fill="none" stroke="#6F81DB" stroke-width="2"/><rect x="720" y="65" width="80" height="30" rx="6" fill="transparent" stroke="#BFBFBF"/><text x="760" y="85" text-anchor="middle" font-size="13" fill="#333" font-family="-apple-system,BlinkMacSystemFont,sans-serif">可选</text><path d="M260,-40 C310,-40 310,120 360,120" fill="none" stroke="#6F81DB" stroke-width="2"/><rect x="360" y="105" width="80" height="30" rx="6" fill="#fafafa" stroke="none"/><text x="400" y="125" text-anchor="middle" font-size="13" fill="#333" font-family="-apple-system,BlinkMacSystemFont,sans-serif">复核</text><path d="M440,120 C490,120 490,120 540,120" fill="none" stroke="#6F81DB" stroke-width="2"/><rect x="540" y="105" width="80" height="30" rx="6" fill="#fafafa" stroke="none"/><text x="580" y="125" text-anchor="middle" font-size="13" fill="#333" font-family="-apple-system,BlinkMacSystemFont,sans-serif">可选</text><path d="M260,-40 C310,-40 310,160 360,160" fill="none" stroke="#6F81DB" stroke-width="2"/><rect x="360" y="145" width="80" height="30" rx="6" fill="#fafafa" stroke="none"/><text x="400" y="165" text-anchor="middle" font-size="13" fill="#333" font-family="-apple-system,BlinkMacSystemFont,sans-serif">打包</text><path d="M440,160 C490,160 490,160 540,160" fill="none" stroke="#6F81DB" stroke-width="2"/><rect x="540" y="145" width="80" height="30" rx="6" fill="#fafafa" stroke="none"/><text x="580" y="165" text-anchor="middle" font-size="13" fill="#333" font-family="-apple-system,BlinkMacSystemFont,sans-serif">可选</text><path d="M260,-40 C310,-40 310,200 360,200" fill="none" stroke="#6F81DB" stroke-width="2"/><rect x="360" y="185" width="80" height="30" rx="6" fill="#fafafa" stroke="none"/><text x="400" y="205" text-anchor="middle" font-size="13" fill="#333" font-family="-apple-system,BlinkMacSystemFont,sans-serif">称重</text><path d="M440,200 C490,200 490,200 540,200" fill="none" stroke="#6F81DB" stroke-width="2"/><rect x="540" y="185" width="80" height="30" rx="6" fill="#fafafa" stroke="none"/><text x="580" y="205" text-anchor="middle" font-size="13" fill="#333" font-family="-apple-system,BlinkMacSystemFont,sans-serif">可选</text><path d="M260,-40 C310,-40 310,280 360,280" fill="none" stroke="#6F81DB" stroke-width="2"/><rect x="360" y="265" width="80" height="30" rx="6" fill="#fafafa" stroke="none"/><text x="400" y="285" text-anchor="middle" font-size="13" fill="#333" font-family="-apple-system,BlinkMacSystemFont,sans-serif">库存处理</text><path d="M440,280 C490,280 490,240 540,240" fill="none" stroke="#6F81DB" stroke-width="2"/><rect x="540" y="225" width="104" height="30" rx="6" fill="#fafafa" stroke="none"/><text x="592" y="245" text-anchor="middle" font-size="13" fill="#333" font-family="-apple-system,BlinkMacSystemFont,sans-serif">库位库存变化</text><path d="M440,280 C490,280 490,280 540,280" fill="none" stroke="#6F81DB" stroke-width="2"/><rect x="540" y="265" width="104" height="30" rx="6" fill="#fafafa" stroke="none"/><text x="592" y="285" text-anchor="middle" font-size="13" fill="#333" font-family="-apple-system,BlinkMacSystemFont,sans-serif">仓库库存变化</text><path d="M440,280 C490,280 490,320 540,320" fill="none" stroke="#6F81DB" stroke-width="2"/><rect x="540" y="305" width="136.76" height="30" rx="6" fill="#fafafa" stroke="none"/><text x="608.38" y="325" text-anchor="middle" font-size="13" fill="#333" font-family="-apple-system,BlinkMacSystemFont,sans-serif">库位-批次库存变化</text><path d="M676.76,320 C698.38,320 698.38,320 720,320" fill="none" stroke="#6F81DB" stroke-width="2"/><rect x="720" y="305" width="80" height="30" rx="6" fill="#fafafa" stroke="none"/><text x="760" y="325" text-anchor="middle" font-size="13" fill="#333" font-family="-apple-system,BlinkMacSystemFont,sans-serif">可选</text><path d="M72.48,0 C162.48000000000002,0 162.48000000000002,560 252.48000000000002,560" fill="none" stroke="#6EC4C4" stroke-width="2"/><rect x="180" y="545" width="80" height="30" rx="6" fill="#fafafa" stroke="none"/><text x="220" y="565" text-anchor="middle" font-size="13" fill="#333" font-family="-apple-system,BlinkMacSystemFont,sans-serif">库内</text><path d="M260,560 C310,560 310,460 360,460" fill="none" stroke="#6EC4C4" stroke-width="2"/><rect x="360" y="445" width="80" height="30" rx="6" fill="#fafafa" stroke="none"/><text x="400" y="465" text-anchor="middle" font-size="13" fill="#333" font-family="-apple-system,BlinkMacSystemFont,sans-serif">库存查询</text><path d="M440,460 C490,460 490,360 540,360" fill="none" stroke="#6EC4C4" stroke-width="2"/><rect x="540" y="345" width="80" height="30" rx="6" fill="#fafafa" stroke="none"/><text x="580" y="365" text-anchor="middle" font-size="13" fill="#333" font-family="-apple-system,BlinkMacSystemFont,sans-serif">仓库库存</text><path d="M620,360 C670,360 670,360 720,360" fill="none" stroke="#6EC4C4" stroke-width="2"/><rect x="720" y="345" width="117" height="30" rx="6" fill="#fafafa" stroke="none"/><text x="778.5" y="365" text-anchor="middle" font-size="13" fill="#333" font-family="-apple-system,BlinkMacSystemFont,sans-serif">仓库库存的流水</text><path d="M440,460 C490,460 490,400 540,400" fill="none" stroke="#6EC4C4" stroke-width="2"/><rect x="540" y="385" width="80" height="30" rx="6" fill="#fafafa" stroke="none"/><text x="580" y="405" text-anchor="middle" font-size="13" fill="#333" font-family="-apple-system,BlinkMacSystemFont,sans-serif">库位库存</text><path d="M620,400 C670,400 670,400 720,400" fill="none" stroke="#6EC4C4" stroke-width="2"/><rect x="720" y="385" width="117" height="30" rx="6" fill="#fafafa" stroke="none"/><text x="778.5" y="405" text-anchor="middle" font-size="13" fill="#333" font-family="-apple-system,BlinkMacSystemFont,sans-serif">库位库存的流水</text><path d="M440,460 C490,460 490,440 540,440" fill="none" stroke="#6EC4C4" stroke-width="2"/><rect x="540" y="425" width="80" height="30" rx="6" fill="#fafafa" stroke="none"/><text x="580" y="445" text-anchor="middle" font-size="13" fill="#333" font-family="-apple-system,BlinkMacSystemFont,sans-serif">批次库存</text><path d="M440,460 C490,460 490,480 540,480" fill="none" stroke="#6EC4C4" stroke-width="2"/><rect x="540" y="465" width="110.75999999999999" height="30" rx="6" fill="#fafafa" stroke="none"/><text x="595.38" y="485" text-anchor="middle" font-size="13" fill="#333" font-family="-apple-system,BlinkMacSystemFont,sans-serif">批次-库位库存</text><path d="M440,460 C490,460 490,520 540,520" fill="none" stroke="#6EC4C4" stroke-width="2"/><rect x="540" y="505" width="130" height="30" rx="6" fill="#fafafa" stroke="none"/><text x="605" y="525" text-anchor="middle" font-size="13" fill="#333" font-family="-apple-system,BlinkMacSystemFont,sans-serif">多维度的库存流水</text><path d="M440,460 C490,460 490,560 540,560" fill="none" stroke="#6EC4C4" stroke-width="2"/><rect x="540" y="545" width="80" height="30" rx="6" fill="transparent" stroke="#BFBFBF"/><text x="580" y="565" text-anchor="middle" font-size="13" fill="#333" font-family="-apple-system,BlinkMacSystemFont,sans-serif">可选</text><path d="M260,560 C310,560 310,600 360,600" fill="none" stroke="#6EC4C4" stroke-width="2"/><rect x="360" y="585" width="80" height="30" rx="6" fill="#fafafa" stroke="none"/><text x="400" y="605" text-anchor="middle" font-size="13" fill="#333" font-family="-apple-system,BlinkMacSystemFont,sans-serif">库存调整</text><path d="M440,600 C490,600 490,600 540,600" fill="none" stroke="#6EC4C4" stroke-width="2"/><rect x="540" y="585" width="80" height="30" rx="6" fill="#fafafa" stroke="none"/><text x="580" y="605" text-anchor="middle" font-size="13" fill="#333" font-family="-apple-system,BlinkMacSystemFont,sans-serif">可选</text><path d="M260,560 C310,560 310,640 360,640" fill="none" stroke="#6EC4C4" stroke-width="2"/><rect x="360" y="625" width="80" height="30" rx="6" fill="#fafafa" stroke="none"/><text x="400" y="645" text-anchor="middle" font-size="13" fill="#333" font-family="-apple-system,BlinkMacSystemFont,sans-serif">移库</text><path d="M440,640 C490,640 490,640 540,640" fill="none" stroke="#6EC4C4" stroke-width="2"/><rect x="540" y="625" width="80" height="30" rx="6" fill="#fafafa" stroke="none"/><text x="580" y="645" text-anchor="middle" font-size="13" fill="#333" font-family="-apple-system,BlinkMacSystemFont,sans-serif">可选</text><path d="M260,560 C310,560 310,680 360,680" fill="none" stroke="#6EC4C4" stroke-width="2"/><rect x="360" y="665" width="80" height="30" rx="6" fill="#fafafa" stroke="none"/><text x="400" y="685" text-anchor="middle" font-size="13" fill="#333" font-family="-apple-system,BlinkMacSystemFont,sans-serif">盘点</text><path d="M440,680 C490,680 490,680 540,680" fill="none" stroke="#6EC4C4" stroke-width="2"/><rect x="540" y="665" width="80" height="30" rx="6" fill="#fafafa" stroke="none"/><text x="580" y="685" text-anchor="middle" font-size="13" fill="#333" font-family="-apple-system,BlinkMacSystemFont,sans-serif">可选</text><path d="M260,560 C310,560 310,720 360,720" fill="none" stroke="#6EC4C4" stroke-width="2"/><rect x="360" y="705" width="104" height="30" rx="6" fill="#fafafa" stroke="none"/><text x="412" y="725" text-anchor="middle" font-size="13" fill="#333" font-family="-apple-system,BlinkMacSystemFont,sans-serif">存拣分离补货</text><path d="M464,720 C502,720 502,720 540,720" fill="none" stroke="#6EC4C4" stroke-width="2"/><rect x="540" y="705" width="80" height="30" rx="6" fill="#fafafa" stroke="none"/><text x="580" y="725" text-anchor="middle" font-size="13" fill="#333" font-family="-apple-system,BlinkMacSystemFont,sans-serif">可选</text><path d="M260,560 C310,560 310,760 360,760" fill="none" stroke="#6EC4C4" stroke-width="2"/><rect x="360" y="745" width="91" height="30" rx="6" fill="#fafafa" stroke="none"/><text x="405.5" y="765" text-anchor="middle" font-size="13" fill="#333" font-family="-apple-system,BlinkMacSystemFont,sans-serif">库存初始化</text><path d="M451,760 C495.5,760 495.5,760 540,760" fill="none" stroke="#6EC4C4" stroke-width="2"/><rect x="540" y="745" width="80" height="30" rx="6" fill="#fafafa" stroke="none"/><text x="580" y="765" text-anchor="middle" font-size="13" fill="#333" font-family="-apple-system,BlinkMacSystemFont,sans-serif">可选</text><path d="M72.48,0 C162.48000000000002,0 162.48000000000002,920 252.48000000000002,920" fill="none" stroke="#DFB85D" stroke-width="2"/><rect x="180" y="905" width="80" height="30" rx="6" fill="#fafafa" stroke="none"/><text x="220" y="925" text-anchor="middle" font-size="13" fill="#333" font-family="-apple-system,BlinkMacSystemFont,sans-serif">基础数据</text><path d="M260,920 C310,920 310,800 360,800" fill="none" stroke="#DFB85D" stroke-width="2"/><rect x="360" y="785" width="80" height="30" rx="6" fill="#fafafa" stroke="none"/><text x="400" y="805" text-anchor="middle" font-size="13" fill="#333" font-family="-apple-system,BlinkMacSystemFont,sans-serif">产品资料</text><path d="M260,920 C310,920 310,840 360,840" fill="none" stroke="#DFB85D" stroke-width="2"/><rect x="360" y="825" width="80" height="30" rx="6" fill="#fafafa" stroke="none"/><text x="400" y="845" text-anchor="middle" font-size="13" fill="#333" font-family="-apple-system,BlinkMacSystemFont,sans-serif">货主</text><path d="M260,920 C310,920 310,880 360,880" fill="none" stroke="#DFB85D" stroke-width="2"/><rect x="360" y="865" width="80" height="30" rx="6" fill="#fafafa" stroke="none"/><text x="400" y="885" text-anchor="middle" font-size="13" fill="#333" font-family="-apple-system,BlinkMacSystemFont,sans-serif">仓库</text><path d="M260,920 C310,920 310,920 360,920" fill="none" stroke="#DFB85D" stroke-width="2"/><rect x="360" y="905" width="80" height="30" rx="6" fill="#fafafa" stroke="none"/><text x="400" y="925" text-anchor="middle" font-size="13" fill="#333" font-family="-apple-system,BlinkMacSystemFont,sans-serif">库区</text><path d="M260,920 C310,920 310,960 360,960" fill="none" stroke="#DFB85D" stroke-width="2"/><rect x="360" y="945" width="80" height="30" rx="6" fill="#fafafa" stroke="none"/><text x="400" y="965" text-anchor="middle" font-size="13" fill="#333" font-family="-apple-system,BlinkMacSystemFont,sans-serif">库位</text><path d="M260,920 C310,920 310,1000 360,1000" fill="none" stroke="#DFB85D" stroke-width="2"/><rect x="360" y="985" width="80" height="30" rx="6" fill="#fafafa" stroke="none"/><text x="400" y="1005" text-anchor="middle" font-size="13" fill="#333" font-family="-apple-system,BlinkMacSystemFont,sans-serif">容器</text><path d="M440,1000 C490,1000 490,1000 540,1000" fill="none" stroke="#DFB85D" stroke-width="2"/><rect x="540" y="985" width="80" height="30" rx="6" fill="#fafafa" stroke="none"/><text x="580" y="1005" text-anchor="middle" font-size="13" fill="#333" font-family="-apple-system,BlinkMacSystemFont,sans-serif">可选</text><path d="M260,920 C310,920 310,1040 360,1040" fill="none" stroke="#DFB85D" stroke-width="2"/><rect x="360" y="1025" width="80" height="30" rx="6" fill="#fafafa" stroke="none"/><text x="400" y="1045" text-anchor="middle" font-size="13" fill="#333" font-family="-apple-system,BlinkMacSystemFont,sans-serif">设备管理</text><path d="M440,1040 C490,1040 490,1040 540,1040" fill="none" stroke="#DFB85D" stroke-width="2"/><rect x="540" y="1025" width="80" height="30" rx="6" fill="#fafafa" stroke="none"/><text x="580" y="1045" text-anchor="middle" font-size="13" fill="#333" font-family="-apple-system,BlinkMacSystemFont,sans-serif">可选</text>
</svg>