<svg xmlns="http://www.w3.org/2000/svg" xmlns:xlink="http://www.w3.org/1999/xlink"
  viewBox="-176 -1939 1188.52 3878" width="1188.52" height="3878"
  style="background:#fff; font-family:-apple-system,BlinkMacSystemFont,'Segoe UI',Roboto,sans-serif;">
<defs></defs>
<rect x="-176" y="-1939" width="1188.52" height="3878" fill="#fff"/>
<rect x="-92" y="-18" width="184" height="36" rx="8" fill="#EFF0F0" stroke="none"/><text x="0" y="6" text-anchor="middle" font-size="16" font-weight="bold" fill="#333" font-family="-apple-system,BlinkMacSystemFont,sans-serif">销售订单的知识讲解</text><path d="M92,0 C182,0 182,-1080 272,-1080" fill="none" stroke="#E48484" stroke-width="2"/><rect x="180" y="-1095" width="130" height="30" rx="6" fill="#fafafa" stroke="none"/><text x="245" y="-1075" text-anchor="middle" font-size="13" fill="#333" font-family="-apple-system,BlinkMacSystemFont,sans-serif">销售订单核心要素</text><path d="M310,-1080 C335,-1080 335,-1680 360,-1680" fill="none" stroke="#E48484" stroke-width="2"/><rect x="360" y="-1695" width="80" height="30" rx="6" fill="#fafafa" stroke="none"/><text x="400" y="-1675" text-anchor="middle" font-size="13" fill="#333" font-family="-apple-system,BlinkMacSystemFont,sans-serif">谁销售的</text><path d="M440,-1680 C490,-1680 490,-1800 540,-1800" fill="none" stroke="#77C386" stroke-width="2"/><rect x="540" y="-1815" width="80" height="30" rx="6" fill="#fafafa" stroke="none"/><text x="580" y="-1795" text-anchor="middle" font-size="13" fill="#333" font-family="-apple-system,BlinkMacSystemFont,sans-serif">销售组织</text><path d="M620,-1800 C670,-1800 670,-1840 720,-1840" fill="none" stroke="#77C386" stroke-width="2"/><rect x="720" y="-1855" width="104" height="30" rx="6" fill="#fafafa" stroke="none"/><text x="772" y="-1835" text-anchor="middle" font-size="13" fill="#333" font-family="-apple-system,BlinkMacSystemFont,sans-serif">哪个公司卖的</text><path d="M620,-1800 C670,-1800 670,-1800 720,-1800" fill="none" stroke="#77C386" stroke-width="2"/><rect x="720" y="-1815" width="91" height="30" rx="6" fill="#fafafa" stroke="none"/><text x="765.5" y="-1795" text-anchor="middle" font-size="13" fill="#333" font-family="-apple-system,BlinkMacSystemFont,sans-serif">哪个人卖的</text><path d="M620,-1800 C670,-1800 670,-1760 720,-1760" fill="none" stroke="#77C386" stroke-width="2"/><rect x="720" y="-1775" width="104" height="30" rx="6" fill="#fafafa" stroke="none"/><text x="772" y="-1755" text-anchor="middle" font-size="13" fill="#333" font-family="-apple-system,BlinkMacSystemFont,sans-serif">哪个部门卖的</text><path d="M440,-1680 C490,-1680 490,-1720 540,-1720" fill="none" stroke="#77C386" stroke-width="2"/><rect x="540" y="-1735" width="80" height="30" rx="6" fill="#fafafa" stroke="none"/><text x="580" y="-1715" text-anchor="middle" font-size="13" fill="#333" font-family="-apple-system,BlinkMacSystemFont,sans-serif">销售平台</text><path d="M620,-1720 C670,-1720 670,-1720 720,-1720" fill="none" stroke="#77C386" stroke-width="2"/><rect x="720" y="-1735" width="104" height="30" rx="6" fill="#fafafa" stroke="none"/><text x="772" y="-1715" text-anchor="middle" font-size="13" fill="#333" font-family="-apple-system,BlinkMacSystemFont,sans-serif">什么平台卖的</text><path d="M440,-1680 C490,-1680 490,-1600 540,-1600" fill="none" stroke="#77C386" stroke-width="2"/><rect x="540" y="-1615" width="80" height="30" rx="6" fill="#fafafa" stroke="none"/><text x="580" y="-1595" text-anchor="middle" font-size="13" fill="#333" font-family="-apple-system,BlinkMacSystemFont,sans-serif">销售渠道</text><path d="M620,-1600 C670,-1600 670,-1680 720,-1680" fill="none" stroke="#77C386" stroke-width="2"/><rect x="720" y="-1695" width="98.28" height="30" rx="6" fill="#fafafa" stroke="none"/><text x="769.14" y="-1675" text-anchor="middle" font-size="13" fill="#333" font-family="-apple-system,BlinkMacSystemFont,sans-serif">线上B2C渠道</text><path d="M620,-1600 C670,-1600 670,-1640 720,-1640" fill="none" stroke="#77C386" stroke-width="2"/><rect x="720" y="-1655" width="98.28" height="30" rx="6" fill="#fafafa" stroke="none"/><text x="769.14" y="-1635" text-anchor="middle" font-size="13" fill="#333" font-family="-apple-system,BlinkMacSystemFont,sans-serif">线上B2B渠道</text><path d="M620,-1600 C670,-1600 670,-1600 720,-1600" fill="none" stroke="#77C386" stroke-width="2"/><rect x="720" y="-1615" width="104" height="30" rx="6" fill="#fafafa" stroke="none"/><text x="772" y="-1595" text-anchor="middle" font-size="13" fill="#333" font-family="-apple-system,BlinkMacSystemFont,sans-serif">线下批发渠道</text><path d="M620,-1600 C670,-1600 670,-1560 720,-1560" fill="none" stroke="#77C386" stroke-width="2"/><rect x="720" y="-1575" width="104" height="30" rx="6" fill="#fafafa" stroke="none"/><text x="772" y="-1555" text-anchor="middle" font-size="13" fill="#333" font-family="-apple-system,BlinkMacSystemFont,sans-serif">线下零售渠道</text><path d="M620,-1600 C670,-1600 670,-1520 720,-1520" fill="none" stroke="#77C386" stroke-width="2"/><rect x="720" y="-1535" width="80" height="30" rx="6" fill="#fafafa" stroke="none"/><text x="760" y="-1515" text-anchor="middle" font-size="13" fill="#333" font-family="-apple-system,BlinkMacSystemFont,sans-serif">O2O渠道</text><path d="M310,-1080 C335,-1080 335,-1440 360,-1440" fill="none" stroke="#E48484" stroke-width="2"/><rect x="360" y="-1455" width="80" height="30" rx="6" fill="#fafafa" stroke="none"/><text x="400" y="-1435" text-anchor="middle" font-size="13" fill="#333" font-family="-apple-system,BlinkMacSystemFont,sans-serif">卖给谁</text><path d="M440,-1440 C490,-1440 490,-1440 540,-1440" fill="none" stroke="#A287E1" stroke-width="2"/><rect x="540" y="-1455" width="80" height="30" rx="6" fill="#fafafa" stroke="none"/><text x="580" y="-1435" text-anchor="middle" font-size="13" fill="#333" font-family="-apple-system,BlinkMacSystemFont,sans-serif">客户</text><path d="M620,-1440 C670,-1440 670,-1480 720,-1480" fill="none" stroke="#A287E1" stroke-width="2"/><rect x="720" y="-1495" width="149.76" height="30" rx="6" fill="#fafafa" stroke="none"/><text x="794.88" y="-1475" text-anchor="middle" font-size="13" fill="#333" font-family="-apple-system,BlinkMacSystemFont,sans-serif">客户编码/名称是什么</text><path d="M620,-1440 C670,-1440 670,-1440 720,-1440" fill="none" stroke="#A287E1" stroke-width="2"/><rect x="720" y="-1455" width="91" height="30" rx="6" fill="#fafafa" stroke="none"/><text x="765.5" y="-1435" text-anchor="middle" font-size="13" fill="#333" font-family="-apple-system,BlinkMacSystemFont,sans-serif">客户的账号</text><path d="M620,-1440 C670,-1440 670,-1400 720,-1400" fill="none" stroke="#A287E1" stroke-width="2"/><rect x="720" y="-1415" width="149.76" height="30" rx="6" fill="#fafafa" stroke="none"/><text x="794.88" y="-1395" text-anchor="middle" font-size="13" fill="#333" font-family="-apple-system,BlinkMacSystemFont,sans-serif">客户的等级/类型之分</text><path d="M310,-1080 C335,-1080 335,-1280 360,-1280" fill="none" stroke="#E48484" stroke-width="2"/><rect x="360" y="-1295" width="80" height="30" rx="6" fill="#fafafa" stroke="none"/><text x="400" y="-1275" text-anchor="middle" font-size="13" fill="#333" font-family="-apple-system,BlinkMacSystemFont,sans-serif">卖了什么</text><path d="M440,-1280 C490,-1280 490,-1280 540,-1280" fill="none" stroke="#6F81DB" stroke-width="2"/><rect x="540" y="-1295" width="80" height="30" rx="6" fill="#fafafa" stroke="none"/><text x="580" y="-1275" text-anchor="middle" font-size="13" fill="#333" font-family="-apple-system,BlinkMacSystemFont,sans-serif">商品</text><path d="M620,-1280 C670,-1280 670,-1360 720,-1360" fill="none" stroke="#6F81DB" stroke-width="2"/><rect x="720" y="-1375" width="80" height="30" rx="6" fill="#fafafa" stroke="none"/><text x="760" y="-1355" text-anchor="middle" font-size="13" fill="#333" font-family="-apple-system,BlinkMacSystemFont,sans-serif">SKU</text><path d="M620,-1280 C670,-1280 670,-1320 720,-1320" fill="none" stroke="#6F81DB" stroke-width="2"/><rect x="720" y="-1335" width="80" height="30" rx="6" fill="#fafafa" stroke="none"/><text x="760" y="-1315" text-anchor="middle" font-size="13" fill="#333" font-family="-apple-system,BlinkMacSystemFont,sans-serif">名称</text><path d="M620,-1280 C670,-1280 670,-1280 720,-1280" fill="none" stroke="#6F81DB" stroke-width="2"/><rect x="720" y="-1295" width="80" height="30" rx="6" fill="#fafafa" stroke="none"/><text x="760" y="-1275" text-anchor="middle" font-size="13" fill="#333" font-family="-apple-system,BlinkMacSystemFont,sans-serif">单位</text><path d="M620,-1280 C670,-1280 670,-1240 720,-1240" fill="none" stroke="#6F81DB" stroke-width="2"/><rect x="720" y="-1255" width="84.75999999999999" height="30" rx="6" fill="#fafafa" stroke="none"/><text x="762.38" y="-1235" text-anchor="middle" font-size="13" fill="#333" font-family="-apple-system,BlinkMacSystemFont,sans-serif">规格/型号</text><path d="M620,-1280 C670,-1280 670,-1200 720,-1200" fill="none" stroke="#6F81DB" stroke-width="2"/><rect x="720" y="-1215" width="80" height="30" rx="6" fill="#fafafa" stroke="none"/><text x="760" y="-1195" text-anchor="middle" font-size="13" fill="#333" font-family="-apple-system,BlinkMacSystemFont,sans-serif">数量</text><path d="M310,-1080 C335,-1080 335,-1060 360,-1060" fill="none" stroke="#E48484" stroke-width="2"/><rect x="360" y="-1075" width="143" height="30" rx="6" fill="#fafafa" stroke="none"/><text x="431.5" y="-1055" text-anchor="middle" font-size="13" fill="#333" font-family="-apple-system,BlinkMacSystemFont,sans-serif">卖了什么价格和数量</text><path d="M503,-1060 C521.5,-1060 521.5,-1080 540,-1080" fill="none" stroke="#6EC4C4" stroke-width="2"/><rect x="540" y="-1095" width="80" height="30" rx="6" fill="#fafafa" stroke="none"/><text x="580" y="-1075" text-anchor="middle" font-size="13" fill="#333" font-family="-apple-system,BlinkMacSystemFont,sans-serif">商品金额</text><path d="M620,-1080 C670,-1080 670,-1160 720,-1160" fill="none" stroke="#6EC4C4" stroke-width="2"/><rect x="720" y="-1175" width="117" height="30" rx="6" fill="#fafafa" stroke="none"/><text x="778.5" y="-1155" text-anchor="middle" font-size="13" fill="#333" font-family="-apple-system,BlinkMacSystemFont,sans-serif">单个商品的金额</text><path d="M620,-1080 C670,-1080 670,-1120 720,-1120" fill="none" stroke="#6EC4C4" stroke-width="2"/><rect x="720" y="-1135" width="117" height="30" rx="6" fill="#fafafa" stroke="none"/><text x="778.5" y="-1115" text-anchor="middle" font-size="13" fill="#333" font-family="-apple-system,BlinkMacSystemFont,sans-serif">整个订单的金额</text><path d="M620,-1080 C670,-1080 670,-1080 720,-1080" fill="none" stroke="#6EC4C4" stroke-width="2"/><rect x="720" y="-1095" width="117" height="30" rx="6" fill="#fafafa" stroke="none"/><text x="778.5" y="-1075" text-anchor="middle" font-size="13" fill="#333" font-family="-apple-system,BlinkMacSystemFont,sans-serif">单个商品的折扣</text><path d="M620,-1080 C670,-1080 670,-1040 720,-1040" fill="none" stroke="#6EC4C4" stroke-width="2"/><rect x="720" y="-1055" width="117" height="30" rx="6" fill="#fafafa" stroke="none"/><text x="778.5" y="-1035" text-anchor="middle" font-size="13" fill="#333" font-family="-apple-system,BlinkMacSystemFont,sans-serif">整个订单的折扣</text><path d="M620,-1080 C670,-1080 670,-1000 720,-1000" fill="none" stroke="#6EC4C4" stroke-width="2"/><rect x="720" y="-1015" width="208.51999999999998" height="30" rx="6" fill="#fafafa" stroke="none"/><text x="824.26" y="-995" text-anchor="middle" font-size="13" fill="#333" font-family="-apple-system,BlinkMacSystemFont,sans-serif">单个商品/整个订单的税率/税额</text><path d="M503,-1060 C521.5,-1060 521.5,-960 540,-960" fill="none" stroke="#6EC4C4" stroke-width="2"/><rect x="540" y="-975" width="80" height="30" rx="6" fill="#fafafa" stroke="none"/><text x="580" y="-955" text-anchor="middle" font-size="13" fill="#333" font-family="-apple-system,BlinkMacSystemFont,sans-serif">商品数量</text><path d="M310,-1080 C335,-1080 335,-780 360,-780" fill="none" stroke="#E48484" stroke-width="2"/><rect x="360" y="-795" width="80" height="30" rx="6" fill="#fafafa" stroke="none"/><text x="400" y="-775" text-anchor="middle" font-size="13" fill="#333" font-family="-apple-system,BlinkMacSystemFont,sans-serif">怎么履约</text><path d="M440,-780 C490,-780 490,-880 540,-880" fill="none" stroke="#DFB85D" stroke-width="2"/><rect x="540" y="-895" width="117.52" height="30" rx="6" fill="#fafafa" stroke="none"/><text x="598.76" y="-875" text-anchor="middle" font-size="13" fill="#333" font-family="-apple-system,BlinkMacSystemFont,sans-serif">快递/同城/物流</text><path d="M657.52,-880 C688.76,-880 688.76,-920 720,-920" fill="none" stroke="#DFB85D" stroke-width="2"/><rect x="720" y="-935" width="80" height="30" rx="6" fill="#fafafa" stroke="none"/><text x="760" y="-915" text-anchor="middle" font-size="13" fill="#333" font-family="-apple-system,BlinkMacSystemFont,sans-serif">电商</text><path d="M657.52,-880 C688.76,-880 688.76,-880 720,-880" fill="none" stroke="#DFB85D" stroke-width="2"/><rect x="720" y="-895" width="80" height="30" rx="6" fill="#fafafa" stroke="none"/><text x="760" y="-875" text-anchor="middle" font-size="13" fill="#333" font-family="-apple-system,BlinkMacSystemFont,sans-serif">O2O</text><path d="M657.52,-880 C688.76,-880 688.76,-840 720,-840" fill="none" stroke="#DFB85D" stroke-width="2"/><rect x="720" y="-855" width="80" height="30" rx="6" fill="#fafafa" stroke="none"/><text x="760" y="-835" text-anchor="middle" font-size="13" fill="#333" font-family="-apple-system,BlinkMacSystemFont,sans-serif">B2B</text><path d="M440,-780 C490,-780 490,-780 540,-780" fill="none" stroke="#DFB85D" stroke-width="2"/><rect x="540" y="-795" width="84.75999999999999" height="30" rx="6" fill="#fafafa" stroke="none"/><text x="582.38" y="-775" text-anchor="middle" font-size="13" fill="#333" font-family="-apple-system,BlinkMacSystemFont,sans-serif">自提/核销</text><path d="M624.76,-780 C672.38,-780 672.38,-800 720,-800" fill="none" stroke="#DFB85D" stroke-width="2"/><rect x="720" y="-815" width="80" height="30" rx="6" fill="#fafafa" stroke="none"/><text x="760" y="-795" text-anchor="middle" font-size="13" fill="#333" font-family="-apple-system,BlinkMacSystemFont,sans-serif">线下交易</text><path d="M624.76,-780 C672.38,-780 672.38,-760 720,-760" fill="none" stroke="#DFB85D" stroke-width="2"/><rect x="720" y="-775" width="80" height="30" rx="6" fill="#fafafa" stroke="none"/><text x="760" y="-755" text-anchor="middle" font-size="13" fill="#333" font-family="-apple-system,BlinkMacSystemFont,sans-serif">到店核销</text><path d="M440,-780 C490,-780 490,-680 540,-680" fill="none" stroke="#DFB85D" stroke-width="2"/><rect x="540" y="-695" width="104" height="30" rx="6" fill="#fafafa" stroke="none"/><text x="592" y="-675" text-anchor="middle" font-size="13" fill="#333" font-family="-apple-system,BlinkMacSystemFont,sans-serif">虚拟物品履约</text><path d="M644,-680 C682,-680 682,-720 720,-720" fill="none" stroke="#DFB85D" stroke-width="2"/><rect x="720" y="-735" width="80" height="30" rx="6" fill="#fafafa" stroke="none"/><text x="760" y="-715" text-anchor="middle" font-size="13" fill="#333" font-family="-apple-system,BlinkMacSystemFont,sans-serif">自动发货</text><path d="M644,-680 C682,-680 682,-680 720,-680" fill="none" stroke="#DFB85D" stroke-width="2"/><rect x="720" y="-695" width="84.75999999999999" height="30" rx="6" fill="#fafafa" stroke="none"/><text x="762.38" y="-675" text-anchor="middle" font-size="13" fill="#333" font-family="-apple-system,BlinkMacSystemFont,sans-serif">充值/点卡</text><path d="M644,-680 C682,-680 682,-640 720,-640" fill="none" stroke="#DFB85D" stroke-width="2"/><rect x="720" y="-655" width="130" height="30" rx="6" fill="#fafafa" stroke="none"/><text x="785" y="-635" text-anchor="middle" font-size="13" fill="#333" font-family="-apple-system,BlinkMacSystemFont,sans-serif">销售的服务类商品</text><path d="M310,-1080 C335,-1080 335,-460 360,-460" fill="none" stroke="#E48484" stroke-width="2"/><rect x="360" y="-475" width="80" height="30" rx="6" fill="#fafafa" stroke="none"/><text x="400" y="-455" text-anchor="middle" font-size="13" fill="#333" font-family="-apple-system,BlinkMacSystemFont,sans-serif">其他内容</text><path d="M440,-460 C490,-460 490,-560 540,-560" fill="none" stroke="#E48484" stroke-width="2"/><rect x="540" y="-575" width="80" height="30" rx="6" fill="#fafafa" stroke="none"/><text x="580" y="-555" text-anchor="middle" font-size="13" fill="#333" font-family="-apple-system,BlinkMacSystemFont,sans-serif">发票信息</text><path d="M620,-560 C670,-560 670,-600 720,-600" fill="none" stroke="#E48484" stroke-width="2"/><rect x="720" y="-615" width="80" height="30" rx="6" fill="#fafafa" stroke="none"/><text x="760" y="-595" text-anchor="middle" font-size="13" fill="#333" font-family="-apple-system,BlinkMacSystemFont,sans-serif">是否开票</text><path d="M620,-560 C670,-560 670,-560 720,-560" fill="none" stroke="#E48484" stroke-width="2"/><rect x="720" y="-575" width="80" height="30" rx="6" fill="#fafafa" stroke="none"/><text x="760" y="-555" text-anchor="middle" font-size="13" fill="#333" font-family="-apple-system,BlinkMacSystemFont,sans-serif">发票类型</text><path d="M620,-560 C670,-560 670,-520 720,-520" fill="none" stroke="#E48484" stroke-width="2"/><rect x="720" y="-535" width="80" height="30" rx="6" fill="#fafafa" stroke="none"/><text x="760" y="-515" text-anchor="middle" font-size="13" fill="#333" font-family="-apple-system,BlinkMacSystemFont,sans-serif">开票信息</text><path d="M440,-460 C490,-460 490,-440 540,-440" fill="none" stroke="#E48484" stroke-width="2"/><rect x="540" y="-455" width="80" height="30" rx="6" fill="#fafafa" stroke="none"/><text x="580" y="-435" text-anchor="middle" font-size="13" fill="#333" font-family="-apple-system,BlinkMacSystemFont,sans-serif">优惠情况</text><path d="M620,-440 C670,-440 670,-480 720,-480" fill="none" stroke="#E48484" stroke-width="2"/><rect x="720" y="-495" width="80" height="30" rx="6" fill="#fafafa" stroke="none"/><text x="760" y="-475" text-anchor="middle" font-size="13" fill="#333" font-family="-apple-system,BlinkMacSystemFont,sans-serif">优惠券</text><path d="M620,-440 C670,-440 670,-440 720,-440" fill="none" stroke="#E48484" stroke-width="2"/><rect x="720" y="-455" width="80" height="30" rx="6" fill="#fafafa" stroke="none"/><text x="760" y="-435" text-anchor="middle" font-size="13" fill="#333" font-family="-apple-system,BlinkMacSystemFont,sans-serif">促销活动</text><path d="M620,-440 C670,-440 670,-400 720,-400" fill="none" stroke="#E48484" stroke-width="2"/><rect x="720" y="-415" width="80" height="30" rx="6" fill="#fafafa" stroke="none"/><text x="760" y="-395" text-anchor="middle" font-size="13" fill="#333" font-family="-apple-system,BlinkMacSystemFont,sans-serif">账户余额</text><path d="M440,-460 C490,-460 490,-340 540,-340" fill="none" stroke="#E48484" stroke-width="2"/><rect x="540" y="-355" width="110.75999999999999" height="30" rx="6" fill="#fafafa" stroke="none"/><text x="595.38" y="-335" text-anchor="middle" font-size="13" fill="#333" font-family="-apple-system,BlinkMacSystemFont,sans-serif">备注/特殊说明</text><path d="M650.76,-340 C685.38,-340 685.38,-360 720,-360" fill="none" stroke="#E48484" stroke-width="2"/><rect x="720" y="-375" width="117" height="30" rx="6" fill="#fafafa" stroke="none"/><text x="778.5" y="-355" text-anchor="middle" font-size="13" fill="#333" font-family="-apple-system,BlinkMacSystemFont,sans-serif">客户留言，备注</text><path d="M650.76,-340 C685.38,-340 685.38,-320 720,-320" fill="none" stroke="#E48484" stroke-width="2"/><rect x="720" y="-335" width="104" height="30" rx="6" fill="#fafafa" stroke="none"/><text x="772" y="-315" text-anchor="middle" font-size="13" fill="#333" font-family="-apple-system,BlinkMacSystemFont,sans-serif">一些特殊要求</text><path d="M92,0 C182,0 182,140 272,140" fill="none" stroke="#6F81DB" stroke-width="2"/><rect x="180" y="125" width="117" height="30" rx="6" fill="#fafafa" stroke="none"/><text x="238.5" y="145" text-anchor="middle" font-size="13" fill="#333" font-family="-apple-system,BlinkMacSystemFont,sans-serif">进销存订单结构</text><path d="M297,140 C328.5,140 328.5,-160 360,-160" fill="none" stroke="#6F81DB" stroke-width="2"/><rect x="360" y="-175" width="80" height="30" rx="6" fill="#fafafa" stroke="none"/><text x="400" y="-155" text-anchor="middle" font-size="13" fill="#333" font-family="-apple-system,BlinkMacSystemFont,sans-serif">基础信息</text><path d="M440,-160 C490,-160 490,-280 540,-280" fill="none" stroke="#6F81DB" stroke-width="2"/><rect x="540" y="-295" width="80" height="30" rx="6" fill="#fafafa" stroke="none"/><text x="580" y="-275" text-anchor="middle" font-size="13" fill="#333" font-family="-apple-system,BlinkMacSystemFont,sans-serif">单据号</text><path d="M440,-160 C490,-160 490,-240 540,-240" fill="none" stroke="#6F81DB" stroke-width="2"/><rect x="540" y="-255" width="80" height="30" rx="6" fill="#fafafa" stroke="none"/><text x="580" y="-235" text-anchor="middle" font-size="13" fill="#333" font-family="-apple-system,BlinkMacSystemFont,sans-serif">单据时间</text><path d="M440,-160 C490,-160 490,-200 540,-200" fill="none" stroke="#6F81DB" stroke-width="2"/><rect x="540" y="-215" width="80" height="30" rx="6" fill="#fafafa" stroke="none"/><text x="580" y="-195" text-anchor="middle" font-size="13" fill="#333" font-family="-apple-system,BlinkMacSystemFont,sans-serif">单据类型</text><path d="M440,-160 C490,-160 490,-160 540,-160" fill="none" stroke="#6F81DB" stroke-width="2"/><rect x="540" y="-175" width="80" height="30" rx="6" fill="#fafafa" stroke="none"/><text x="580" y="-155" text-anchor="middle" font-size="13" fill="#333" font-family="-apple-system,BlinkMacSystemFont,sans-serif">单据状态</text><path d="M440,-160 C490,-160 490,-120 540,-120" fill="none" stroke="#6F81DB" stroke-width="2"/><rect x="540" y="-135" width="80" height="30" rx="6" fill="#fafafa" stroke="none"/><text x="580" y="-115" text-anchor="middle" font-size="13" fill="#333" font-family="-apple-system,BlinkMacSystemFont,sans-serif">销售人员</text><path d="M440,-160 C490,-160 490,-80 540,-80" fill="none" stroke="#6F81DB" stroke-width="2"/><rect x="540" y="-95" width="80" height="30" rx="6" fill="#fafafa" stroke="none"/><text x="580" y="-75" text-anchor="middle" font-size="13" fill="#333" font-family="-apple-system,BlinkMacSystemFont,sans-serif">客户</text><path d="M440,-160 C490,-160 490,-40 540,-40" fill="none" stroke="#6F81DB" stroke-width="2"/><rect x="540" y="-55" width="80" height="30" rx="6" fill="#fafafa" stroke="none"/><text x="580" y="-35" text-anchor="middle" font-size="13" fill="#333" font-family="-apple-system,BlinkMacSystemFont,sans-serif">仓库</text><path d="M297,140 C328.5,140 328.5,100 360,100" fill="none" stroke="#6F81DB" stroke-width="2"/><rect x="360" y="85" width="80" height="30" rx="6" fill="#fafafa" stroke="none"/><text x="400" y="105" text-anchor="middle" font-size="13" fill="#333" font-family="-apple-system,BlinkMacSystemFont,sans-serif">商品信息</text><path d="M440,100 C490,100 490,0 540,0" fill="none" stroke="#6F81DB" stroke-width="2"/><rect x="540" y="-15" width="80" height="30" rx="6" fill="#fafafa" stroke="none"/><text x="580" y="5" text-anchor="middle" font-size="13" fill="#333" font-family="-apple-system,BlinkMacSystemFont,sans-serif">商品编码</text><path d="M440,100 C490,100 490,40 540,40" fill="none" stroke="#6F81DB" stroke-width="2"/><rect x="540" y="25" width="80" height="30" rx="6" fill="#fafafa" stroke="none"/><text x="580" y="45" text-anchor="middle" font-size="13" fill="#333" font-family="-apple-system,BlinkMacSystemFont,sans-serif">商品名称</text><path d="M440,100 C490,100 490,80 540,80" fill="none" stroke="#6F81DB" stroke-width="2"/><rect x="540" y="65" width="80" height="30" rx="6" fill="#fafafa" stroke="none"/><text x="580" y="85" text-anchor="middle" font-size="13" fill="#333" font-family="-apple-system,BlinkMacSystemFont,sans-serif">单位</text><path d="M440,100 C490,100 490,120 540,120" fill="none" stroke="#6F81DB" stroke-width="2"/><rect x="540" y="105" width="80" height="30" rx="6" fill="#fafafa" stroke="none"/><text x="580" y="125" text-anchor="middle" font-size="13" fill="#333" font-family="-apple-system,BlinkMacSystemFont,sans-serif">数量</text><path d="M440,100 C490,100 490,160 540,160" fill="none" stroke="#6F81DB" stroke-width="2"/><rect x="540" y="145" width="80" height="30" rx="6" fill="#fafafa" stroke="none"/><text x="580" y="165" text-anchor="middle" font-size="13" fill="#333" font-family="-apple-system,BlinkMacSystemFont,sans-serif">单价</text><path d="M440,100 C490,100 490,200 540,200" fill="none" stroke="#6F81DB" stroke-width="2"/><rect x="540" y="185" width="80" height="30" rx="6" fill="#fafafa" stroke="none"/><text x="580" y="205" text-anchor="middle" font-size="13" fill="#333" font-family="-apple-system,BlinkMacSystemFont,sans-serif">含税单价</text><path d="M297,140 C328.5,140 328.5,320 360,320" fill="none" stroke="#6F81DB" stroke-width="2"/><rect x="360" y="305" width="80" height="30" rx="6" fill="#fafafa" stroke="none"/><text x="400" y="325" text-anchor="middle" font-size="13" fill="#333" font-family="-apple-system,BlinkMacSystemFont,sans-serif">金额信息</text><path d="M440,320 C490,320 490,240 540,240" fill="none" stroke="#6F81DB" stroke-width="2"/><rect x="540" y="225" width="80" height="30" rx="6" fill="#fafafa" stroke="none"/><text x="580" y="245" text-anchor="middle" font-size="13" fill="#333" font-family="-apple-system,BlinkMacSystemFont,sans-serif">整单折扣</text><path d="M440,320 C490,320 490,280 540,280" fill="none" stroke="#6F81DB" stroke-width="2"/><rect x="540" y="265" width="80" height="30" rx="6" fill="#fafafa" stroke="none"/><text x="580" y="285" text-anchor="middle" font-size="13" fill="#333" font-family="-apple-system,BlinkMacSystemFont,sans-serif">总计金额</text><path d="M440,320 C490,320 490,320 540,320" fill="none" stroke="#6F81DB" stroke-width="2"/><rect x="540" y="305" width="80" height="30" rx="6" fill="#fafafa" stroke="none"/><text x="580" y="325" text-anchor="middle" font-size="13" fill="#333" font-family="-apple-system,BlinkMacSystemFont,sans-serif">结算账户</text><path d="M440,320 C490,320 490,360 540,360" fill="none" stroke="#6F81DB" stroke-width="2"/><rect x="540" y="345" width="80" height="30" rx="6" fill="#fafafa" stroke="none"/><text x="580" y="365" text-anchor="middle" font-size="13" fill="#333" font-family="-apple-system,BlinkMacSystemFont,sans-serif">收款金额</text><path d="M440,320 C490,320 490,400 540,400" fill="none" stroke="#6F81DB" stroke-width="2"/><rect x="540" y="385" width="80" height="30" rx="6" fill="#fafafa" stroke="none"/><text x="580" y="405" text-anchor="middle" font-size="13" fill="#333" font-family="-apple-system,BlinkMacSystemFont,sans-serif">欠款金额</text><path d="M297,140 C328.5,140 328.5,500 360,500" fill="none" stroke="#6F81DB" stroke-width="2"/><rect x="360" y="485" width="80" height="30" rx="6" fill="#fafafa" stroke="none"/><text x="400" y="505" text-anchor="middle" font-size="13" fill="#333" font-family="-apple-system,BlinkMacSystemFont,sans-serif">其他信息</text><path d="M440,500 C490,500 490,440 540,440" fill="none" stroke="#6F81DB" stroke-width="2"/><rect x="540" y="425" width="80" height="30" rx="6" fill="#fafafa" stroke="none"/><text x="580" y="445" text-anchor="middle" font-size="13" fill="#333" font-family="-apple-system,BlinkMacSystemFont,sans-serif">是否开票</text><path d="M440,500 C490,500 490,480 540,480" fill="none" stroke="#6F81DB" stroke-width="2"/><rect x="540" y="465" width="80" height="30" rx="6" fill="#fafafa" stroke="none"/><text x="580" y="485" text-anchor="middle" font-size="13" fill="#333" font-family="-apple-system,BlinkMacSystemFont,sans-serif">发票类型</text><path d="M440,500 C490,500 490,520 540,520" fill="none" stroke="#6F81DB" stroke-width="2"/><rect x="540" y="505" width="80" height="30" rx="6" fill="#fafafa" stroke="none"/><text x="580" y="525" text-anchor="middle" font-size="13" fill="#333" font-family="-apple-system,BlinkMacSystemFont,sans-serif">物流方式</text><path d="M440,500 C490,500 490,560 540,560" fill="none" stroke="#6F81DB" stroke-width="2"/><rect x="540" y="545" width="80" height="30" rx="6" fill="#fafafa" stroke="none"/><text x="580" y="565" text-anchor="middle" font-size="13" fill="#333" font-family="-apple-system,BlinkMacSystemFont,sans-serif">附件</text><path d="M92,0 C182,0 182,1220 272,1220" fill="none" stroke="#6EC4C4" stroke-width="2"/><rect x="180" y="1205" width="117" height="30" rx="6" fill="#fafafa" stroke="none"/><text x="238.5" y="1225" text-anchor="middle" font-size="13" fill="#333" font-family="-apple-system,BlinkMacSystemFont,sans-serif">电商的订单结构</text><path d="M297,1220 C328.5,1220 328.5,660 360,660" fill="none" stroke="#6EC4C4" stroke-width="2"/><rect x="360" y="645" width="80" height="30" rx="6" fill="#EFF0F0" stroke="none"/><text x="400" y="665" text-anchor="middle" font-size="13" fill="#333" font-family="-apple-system,BlinkMacSystemFont,sans-serif">基础信息</text><path d="M440,660 C490,660 490,600 540,600" fill="none" stroke="#6EC4C4" stroke-width="2"/><rect x="540" y="585" width="80" height="30" rx="6" fill="#fafafa" stroke="none"/><text x="580" y="605" text-anchor="middle" font-size="13" fill="#333" font-family="-apple-system,BlinkMacSystemFont,sans-serif">单据号</text><path d="M440,660 C490,660 490,640 540,640" fill="none" stroke="#6EC4C4" stroke-width="2"/><rect x="540" y="625" width="80" height="30" rx="6" fill="#fafafa" stroke="none"/><text x="580" y="645" text-anchor="middle" font-size="13" fill="#333" font-family="-apple-system,BlinkMacSystemFont,sans-serif">单据时间</text><path d="M440,660 C490,660 490,680 540,680" fill="none" stroke="#6EC4C4" stroke-width="2"/><rect x="540" y="665" width="80" height="30" rx="6" fill="#fafafa" stroke="none"/><text x="580" y="685" text-anchor="middle" font-size="13" fill="#333" font-family="-apple-system,BlinkMacSystemFont,sans-serif">单据类型</text><path d="M440,660 C490,660 490,720 540,720" fill="none" stroke="#6EC4C4" stroke-width="2"/><rect x="540" y="705" width="80" height="30" rx="6" fill="#fafafa" stroke="none"/><text x="580" y="725" text-anchor="middle" font-size="13" fill="#333" font-family="-apple-system,BlinkMacSystemFont,sans-serif">单据状态</text><path d="M297,1220 C328.5,1220 328.5,780 360,780" fill="none" stroke="#6EC4C4" stroke-width="2"/><rect x="360" y="765" width="80" height="30" rx="6" fill="#EFF0F0" stroke="none"/><text x="400" y="785" text-anchor="middle" font-size="13" fill="#333" font-family="-apple-system,BlinkMacSystemFont,sans-serif">商家信息</text><path d="M440,780 C490,780 490,760 540,760" fill="none" stroke="#6EC4C4" stroke-width="2"/><rect x="540" y="745" width="80" height="30" rx="6" fill="#EFF0F0" stroke="none"/><text x="580" y="765" text-anchor="middle" font-size="13" fill="#333" font-family="-apple-system,BlinkMacSystemFont,sans-serif">商家账号</text><path d="M440,780 C490,780 490,800 540,800" fill="none" stroke="#6EC4C4" stroke-width="2"/><rect x="540" y="785" width="80" height="30" rx="6" fill="#EFF0F0" stroke="none"/><text x="580" y="805" text-anchor="middle" font-size="13" fill="#333" font-family="-apple-system,BlinkMacSystemFont,sans-serif">商家信息</text><path d="M297,1220 C328.5,1220 328.5,880 360,880" fill="none" stroke="#6EC4C4" stroke-width="2"/><rect x="360" y="865" width="80" height="30" rx="6" fill="#EFF0F0" stroke="none"/><text x="400" y="885" text-anchor="middle" font-size="13" fill="#333" font-family="-apple-system,BlinkMacSystemFont,sans-serif">用户信息</text><path d="M440,880 C490,880 490,840 540,840" fill="none" stroke="#6EC4C4" stroke-width="2"/><rect x="540" y="825" width="80" height="30" rx="6" fill="#EFF0F0" stroke="none"/><text x="580" y="845" text-anchor="middle" font-size="13" fill="#333" font-family="-apple-system,BlinkMacSystemFont,sans-serif">用户账号</text><path d="M440,880 C490,880 490,880 540,880" fill="none" stroke="#6EC4C4" stroke-width="2"/><rect x="540" y="865" width="80" height="30" rx="6" fill="#EFF0F0" stroke="none"/><text x="580" y="885" text-anchor="middle" font-size="13" fill="#333" font-family="-apple-system,BlinkMacSystemFont,sans-serif">用户等级</text><path d="M440,880 C490,880 490,920 540,920" fill="none" stroke="#6EC4C4" stroke-width="2"/><rect x="540" y="905" width="80" height="30" rx="6" fill="#EFF0F0" stroke="none"/><text x="580" y="925" text-anchor="middle" font-size="13" fill="#333" font-family="-apple-system,BlinkMacSystemFont,sans-serif">用户类型</text><path d="M297,1220 C328.5,1220 328.5,1020 360,1020" fill="none" stroke="#6EC4C4" stroke-width="2"/><rect x="360" y="1005" width="80" height="30" rx="6" fill="#EFF0F0" stroke="none"/><text x="400" y="1025" text-anchor="middle" font-size="13" fill="#333" font-family="-apple-system,BlinkMacSystemFont,sans-serif">商品信息</text><path d="M440,1020 C490,1020 490,960 540,960" fill="none" stroke="#6EC4C4" stroke-width="2"/><rect x="540" y="945" width="80" height="30" rx="6" fill="#fafafa" stroke="none"/><text x="580" y="965" text-anchor="middle" font-size="13" fill="#333" font-family="-apple-system,BlinkMacSystemFont,sans-serif">商品编码</text><path d="M440,1020 C490,1020 490,1000 540,1000" fill="none" stroke="#6EC4C4" stroke-width="2"/><rect x="540" y="985" width="80" height="30" rx="6" fill="#fafafa" stroke="none"/><text x="580" y="1005" text-anchor="middle" font-size="13" fill="#333" font-family="-apple-system,BlinkMacSystemFont,sans-serif">商品名称</text><path d="M440,1020 C490,1020 490,1040 540,1040" fill="none" stroke="#6EC4C4" stroke-width="2"/><rect x="540" y="1025" width="80" height="30" rx="6" fill="#fafafa" stroke="none"/><text x="580" y="1045" text-anchor="middle" font-size="13" fill="#333" font-family="-apple-system,BlinkMacSystemFont,sans-serif">数量</text><path d="M440,1020 C490,1020 490,1080 540,1080" fill="none" stroke="#6EC4C4" stroke-width="2"/><rect x="540" y="1065" width="80" height="30" rx="6" fill="#fafafa" stroke="none"/><text x="580" y="1085" text-anchor="middle" font-size="13" fill="#333" font-family="-apple-system,BlinkMacSystemFont,sans-serif">单价</text><path d="M297,1220 C328.5,1220 328.5,1180 360,1180" fill="none" stroke="#6EC4C4" stroke-width="2"/><rect x="360" y="1165" width="80" height="30" rx="6" fill="#EFF0F0" stroke="none"/><text x="400" y="1185" text-anchor="middle" font-size="13" fill="#333" font-family="-apple-system,BlinkMacSystemFont,sans-serif">收货信息</text><path d="M440,1180 C490,1180 490,1120 540,1120" fill="none" stroke="#6EC4C4" stroke-width="2"/><rect x="540" y="1105" width="80" height="30" rx="6" fill="#EFF0F0" stroke="none"/><text x="580" y="1125" text-anchor="middle" font-size="13" fill="#333" font-family="-apple-system,BlinkMacSystemFont,sans-serif">收件人</text><path d="M440,1180 C490,1180 490,1160 540,1160" fill="none" stroke="#6EC4C4" stroke-width="2"/><rect x="540" y="1145" width="80" height="30" rx="6" fill="#EFF0F0" stroke="none"/><text x="580" y="1165" text-anchor="middle" font-size="13" fill="#333" font-family="-apple-system,BlinkMacSystemFont,sans-serif">电话</text><path d="M440,1180 C490,1180 490,1200 540,1200" fill="none" stroke="#6EC4C4" stroke-width="2"/><rect x="540" y="1185" width="80" height="30" rx="6" fill="#EFF0F0" stroke="none"/><text x="580" y="1205" text-anchor="middle" font-size="13" fill="#333" font-family="-apple-system,BlinkMacSystemFont,sans-serif">详细地址</text><path d="M440,1180 C490,1180 490,1240 540,1240" fill="none" stroke="#6EC4C4" stroke-width="2"/><rect x="540" y="1225" width="80" height="30" rx="6" fill="#EFF0F0" stroke="none"/><text x="580" y="1245" text-anchor="middle" font-size="13" fill="#333" font-family="-apple-system,BlinkMacSystemFont,sans-serif">邮箱</text><path d="M297,1220 C328.5,1220 328.5,1360 360,1360" fill="none" stroke="#6EC4C4" stroke-width="2"/><rect x="360" y="1345" width="80" height="30" rx="6" fill="#EFF0F0" stroke="none"/><text x="400" y="1365" text-anchor="middle" font-size="13" fill="#333" font-family="-apple-system,BlinkMacSystemFont,sans-serif">支付信息</text><path d="M440,1360 C490,1360 490,1280 540,1280" fill="none" stroke="#6EC4C4" stroke-width="2"/><rect x="540" y="1265" width="80" height="30" rx="6" fill="#EFF0F0" stroke="none"/><text x="580" y="1285" text-anchor="middle" font-size="13" fill="#333" font-family="-apple-system,BlinkMacSystemFont,sans-serif">支付单号</text><path d="M440,1360 C490,1360 490,1320 540,1320" fill="none" stroke="#6EC4C4" stroke-width="2"/><rect x="540" y="1305" width="80" height="30" rx="6" fill="#EFF0F0" stroke="none"/><text x="580" y="1325" text-anchor="middle" font-size="13" fill="#333" font-family="-apple-system,BlinkMacSystemFont,sans-serif">支付方式</text><path d="M440,1360 C490,1360 490,1360 540,1360" fill="none" stroke="#6EC4C4" stroke-width="2"/><rect x="540" y="1345" width="80" height="30" rx="6" fill="#EFF0F0" stroke="none"/><text x="580" y="1365" text-anchor="middle" font-size="13" fill="#333" font-family="-apple-system,BlinkMacSystemFont,sans-serif">支付时间</text><path d="M440,1360 C490,1360 490,1400 540,1400" fill="none" stroke="#6EC4C4" stroke-width="2"/><rect x="540" y="1385" width="80" height="30" rx="6" fill="#EFF0F0" stroke="none"/><text x="580" y="1405" text-anchor="middle" font-size="13" fill="#333" font-family="-apple-system,BlinkMacSystemFont,sans-serif">应付金额</text><path d="M440,1360 C490,1360 490,1440 540,1440" fill="none" stroke="#6EC4C4" stroke-width="2"/><rect x="540" y="1425" width="80" height="30" rx="6" fill="#EFF0F0" stroke="none"/><text x="580" y="1445" text-anchor="middle" font-size="13" fill="#333" font-family="-apple-system,BlinkMacSystemFont,sans-serif">实付金额</text><path d="M297,1220 C328.5,1220 328.5,1540 360,1540" fill="none" stroke="#6EC4C4" stroke-width="2"/><rect x="360" y="1525" width="80" height="30" rx="6" fill="#EFF0F0" stroke="none"/><text x="400" y="1545" text-anchor="middle" font-size="13" fill="#333" font-family="-apple-system,BlinkMacSystemFont,sans-serif">优惠信息</text><path d="M440,1540 C490,1540 490,1480 540,1480" fill="none" stroke="#6EC4C4" stroke-width="2"/><rect x="540" y="1465" width="80" height="30" rx="6" fill="#EFF0F0" stroke="none"/><text x="580" y="1485" text-anchor="middle" font-size="13" fill="#333" font-family="-apple-system,BlinkMacSystemFont,sans-serif">优惠券</text><path d="M440,1540 C490,1540 490,1520 540,1520" fill="none" stroke="#6EC4C4" stroke-width="2"/><rect x="540" y="1505" width="80" height="30" rx="6" fill="#EFF0F0" stroke="none"/><text x="580" y="1525" text-anchor="middle" font-size="13" fill="#333" font-family="-apple-system,BlinkMacSystemFont,sans-serif">促销活动</text><path d="M440,1540 C490,1540 490,1560 540,1560" fill="none" stroke="#6EC4C4" stroke-width="2"/><rect x="540" y="1545" width="80" height="30" rx="6" fill="#EFF0F0" stroke="none"/><text x="580" y="1565" text-anchor="middle" font-size="13" fill="#333" font-family="-apple-system,BlinkMacSystemFont,sans-serif">抵扣方式</text><path d="M440,1540 C490,1540 490,1600 540,1600" fill="none" stroke="#6EC4C4" stroke-width="2"/><rect x="540" y="1585" width="80" height="30" rx="6" fill="#EFF0F0" stroke="none"/><text x="580" y="1605" text-anchor="middle" font-size="13" fill="#333" font-family="-apple-system,BlinkMacSystemFont,sans-serif">优惠金额</text><path d="M297,1220 C328.5,1220 328.5,1680 360,1680" fill="none" stroke="#6EC4C4" stroke-width="2"/><rect x="360" y="1665" width="80" height="30" rx="6" fill="#EFF0F0" stroke="none"/><text x="400" y="1685" text-anchor="middle" font-size="13" fill="#333" font-family="-apple-system,BlinkMacSystemFont,sans-serif">物流信息</text><path d="M440,1680 C490,1680 490,1640 540,1640" fill="none" stroke="#6EC4C4" stroke-width="2"/><rect x="540" y="1625" width="80" height="30" rx="6" fill="#EFF0F0" stroke="none"/><text x="580" y="1645" text-anchor="middle" font-size="13" fill="#333" font-family="-apple-system,BlinkMacSystemFont,sans-serif">物流商</text><path d="M440,1680 C490,1680 490,1680 540,1680" fill="none" stroke="#6EC4C4" stroke-width="2"/><rect x="540" y="1665" width="80" height="30" rx="6" fill="#EFF0F0" stroke="none"/><text x="580" y="1685" text-anchor="middle" font-size="13" fill="#333" font-family="-apple-system,BlinkMacSystemFont,sans-serif">物流单号</text><path d="M440,1680 C490,1680 490,1720 540,1720" fill="none" stroke="#6EC4C4" stroke-width="2"/><rect x="540" y="1705" width="110.75999999999999" height="30" rx="6" fill="#EFF0F0" stroke="none"/><text x="595.38" y="1725" text-anchor="middle" font-size="13" fill="#333" font-family="-apple-system,BlinkMacSystemFont,sans-serif">物流状态/轨迹</text><path d="M297,1220 C328.5,1220 328.5,1800 360,1800" fill="none" stroke="#6EC4C4" stroke-width="2"/><rect x="360" y="1785" width="80" height="30" rx="6" fill="#EFF0F0" stroke="none"/><text x="400" y="1805" text-anchor="middle" font-size="13" fill="#333" font-family="-apple-system,BlinkMacSystemFont,sans-serif">其他信息</text><path d="M440,1800 C490,1800 490,1760 540,1760" fill="none" stroke="#6EC4C4" stroke-width="2"/><rect x="540" y="1745" width="80" height="30" rx="6" fill="#fafafa" stroke="none"/><text x="580" y="1765" text-anchor="middle" font-size="13" fill="#333" font-family="-apple-system,BlinkMacSystemFont,sans-serif">发票信息</text><path d="M440,1800 C490,1800 490,1800 540,1800" fill="none" stroke="#6EC4C4" stroke-width="2"/><rect x="540" y="1785" width="80" height="30" rx="6" fill="#fafafa" stroke="none"/><text x="580" y="1805" text-anchor="middle" font-size="13" fill="#333" font-family="-apple-system,BlinkMacSystemFont,sans-serif">用户备注</text><path d="M440,1800 C490,1800 490,1840 540,1840" fill="none" stroke="#6EC4C4" stroke-width="2"/><rect x="540" y="1825" width="80" height="30" rx="6" fill="#fafafa" stroke="none"/><text x="580" y="1845" text-anchor="middle" font-size="13" fill="#333" font-family="-apple-system,BlinkMacSystemFont,sans-serif">下单来源</text>
</svg>