<svg xmlns="http://www.w3.org/2000/svg" xmlns:xlink="http://www.w3.org/1999/xlink"
  viewBox="-216 -1839 1980 3678" width="1980" height="3678"
  style="background:#fff; font-family:-apple-system,BlinkMacSystemFont,'Segoe UI',Roboto,sans-serif;">
<defs></defs>
<rect x="-216" y="-1839" width="1980" height="3678" fill="#fff"/>
<rect x="-132" y="-18" width="264" height="36" rx="8" fill="#EFF0F0" stroke="none"/><text x="0" y="6" text-anchor="middle" font-size="16" font-weight="bold" fill="#333" font-family="-apple-system,BlinkMacSystemFont,sans-serif">二次分拣、复核验货产品结构图</text><path d="M132,0 C222,0 222,-1400 312,-1400" fill="none" stroke="#A287E1" stroke-width="2"/><rect x="180" y="-1415" width="80" height="30" rx="6" fill="#fafafa" stroke="none"/><text x="220" y="-1395" text-anchor="middle" font-size="13" fill="#333" font-family="-apple-system,BlinkMacSystemFont,sans-serif">二次分拣</text><path d="M260,-1400 C310,-1400 310,-1740 360,-1740" fill="none" stroke="#A287E1" stroke-width="2"/><rect x="360" y="-1755" width="80" height="30" rx="6" fill="#fafafa" stroke="none"/><text x="400" y="-1735" text-anchor="middle" font-size="13" fill="#333" font-family="-apple-system,BlinkMacSystemFont,sans-serif">目的</text><path d="M440,-1740 C490,-1740 490,-1740 540,-1740" fill="none" stroke="#A287E1" stroke-width="2"/><rect x="540" y="-1755" width="364" height="30" rx="6" fill="#fafafa" stroke="none"/><text x="722" y="-1735" text-anchor="middle" font-size="13" fill="#333" font-family="-apple-system,BlinkMacSystemFont,sans-serif">对波次总拣的货物进行分拣，使其对应到不同的订单篮子中</text><path d="M260,-1400 C310,-1400 310,-1660 360,-1660" fill="none" stroke="#A287E1" stroke-width="2"/><rect x="360" y="-1675" width="80" height="30" rx="6" fill="#fafafa" stroke="none"/><text x="400" y="-1655" text-anchor="middle" font-size="13" fill="#333" font-family="-apple-system,BlinkMacSystemFont,sans-serif">流程</text><path d="M440,-1660 C490,-1660 490,-1700 540,-1700" fill="none" stroke="#A287E1" stroke-width="2"/><rect x="540" y="-1715" width="247.51999999999998" height="30" rx="6" fill="#fafafa" stroke="none"/><text x="663.76" y="-1695" text-anchor="middle" font-size="13" fill="#333" font-family="-apple-system,BlinkMacSystemFont,sans-serif">1.扫描波次号，带出波次内的订单详情</text><path d="M440,-1660 C490,-1660 490,-1660 540,-1660" fill="none" stroke="#A287E1" stroke-width="2"/><rect x="540" y="-1675" width="288.0799999999999" height="30" rx="6" fill="#fafafa" stroke="none"/><text x="684.04" y="-1655" text-anchor="middle" font-size="13" fill="#333" font-family="-apple-system,BlinkMacSystemFont,sans-serif">2.扫描SKU，然后自动分配该SKU属于哪个订单</text><path d="M440,-1660 C490,-1660 490,-1620 540,-1620" fill="none" stroke="#A287E1" stroke-width="2"/><rect x="540" y="-1635" width="632.3199999999999" height="30" rx="6" fill="#fafafa" stroke="none"/><text x="856.16" y="-1615" text-anchor="middle" font-size="13" fill="#333" font-family="-apple-system,BlinkMacSystemFont,sans-serif">3.系统会提示该SKU要放到哪个篮子中（篮子序号和波次内订单序号一致），然后将商品放进去，自动会+1</text><path d="M260,-1400 C310,-1400 310,-1540 360,-1540" fill="none" stroke="#A287E1" stroke-width="2"/><rect x="360" y="-1555" width="104" height="30" rx="6" fill="#fafafa" stroke="none"/><text x="412" y="-1535" text-anchor="middle" font-size="13" fill="#333" font-family="-apple-system,BlinkMacSystemFont,sans-serif">二次分拣方式</text><path d="M464,-1540 C502,-1540 502,-1580 540,-1580" fill="none" stroke="#A287E1" stroke-width="2"/><rect x="540" y="-1595" width="104" height="30" rx="6" fill="#fafafa" stroke="none"/><text x="592" y="-1575" text-anchor="middle" font-size="13" fill="#333" font-family="-apple-system,BlinkMacSystemFont,sans-serif">人工纸单分拣</text><path d="M464,-1540 C502,-1540 502,-1540 540,-1540" fill="none" stroke="#A287E1" stroke-width="2"/><rect x="540" y="-1555" width="144.04" height="30" rx="6" fill="#fafafa" stroke="none"/><text x="612.02" y="-1535" text-anchor="middle" font-size="13" fill="#333" font-family="-apple-system,BlinkMacSystemFont,sans-serif">PDA分拣+播种墙设备</text><path d="M464,-1540 C502,-1540 502,-1500 540,-1500" fill="none" stroke="#A287E1" stroke-width="2"/><rect x="540" y="-1515" width="111.28" height="30" rx="6" fill="#fafafa" stroke="none"/><text x="595.64" y="-1495" text-anchor="middle" font-size="13" fill="#333" font-family="-apple-system,BlinkMacSystemFont,sans-serif">Web播种墙播种</text><path d="M651.28,-1500 C685.64,-1500 685.64,-1500 720,-1500" fill="none" stroke="#A287E1" stroke-width="2"/><rect x="720" y="-1515" width="117" height="30" rx="6" fill="#fafafa" stroke="none"/><text x="778.5" y="-1495" text-anchor="middle" font-size="13" fill="#333" font-family="-apple-system,BlinkMacSystemFont,sans-serif">优先考虑做这个</text><path d="M260,-1400 C310,-1400 310,-1260 360,-1260" fill="none" stroke="#A287E1" stroke-width="2"/><rect x="360" y="-1275" width="80" height="30" rx="6" fill="#fafafa" stroke="none"/><text x="400" y="-1255" text-anchor="middle" font-size="13" fill="#333" font-family="-apple-system,BlinkMacSystemFont,sans-serif">信息结构</text><path d="M440,-1260 C490,-1260 490,-1460 540,-1460" fill="none" stroke="#A287E1" stroke-width="2"/><rect x="540" y="-1475" width="80" height="30" rx="6" fill="#fafafa" stroke="none"/><text x="580" y="-1455" text-anchor="middle" font-size="13" fill="#333" font-family="-apple-system,BlinkMacSystemFont,sans-serif">波次号</text><path d="M440,-1260 C490,-1260 490,-1420 540,-1420" fill="none" stroke="#A287E1" stroke-width="2"/><rect x="540" y="-1435" width="123.75999999999999" height="30" rx="6" fill="#fafafa" stroke="none"/><text x="601.88" y="-1415" text-anchor="middle" font-size="13" fill="#333" font-family="-apple-system,BlinkMacSystemFont,sans-serif">订单序号/篮子号</text><path d="M440,-1260 C490,-1260 490,-1340 540,-1340" fill="none" stroke="#A287E1" stroke-width="2"/><rect x="540" y="-1355" width="80" height="30" rx="6" fill="#fafafa" stroke="none"/><text x="580" y="-1335" text-anchor="middle" font-size="13" fill="#333" font-family="-apple-system,BlinkMacSystemFont,sans-serif">订单状态</text><path d="M620,-1340 C670,-1340 670,-1380 720,-1380" fill="none" stroke="#A287E1" stroke-width="2"/><rect x="720" y="-1395" width="80" height="30" rx="6" fill="#fafafa" stroke="none"/><text x="760" y="-1375" text-anchor="middle" font-size="13" fill="#333" font-family="-apple-system,BlinkMacSystemFont,sans-serif">未完成</text><path d="M620,-1340 C670,-1340 670,-1340 720,-1340" fill="none" stroke="#A287E1" stroke-width="2"/><rect x="720" y="-1355" width="80" height="30" rx="6" fill="#fafafa" stroke="none"/><text x="760" y="-1335" text-anchor="middle" font-size="13" fill="#333" font-family="-apple-system,BlinkMacSystemFont,sans-serif">当前播种</text><path d="M620,-1340 C670,-1340 670,-1300 720,-1300" fill="none" stroke="#A287E1" stroke-width="2"/><rect x="720" y="-1315" width="80" height="30" rx="6" fill="#fafafa" stroke="none"/><text x="760" y="-1295" text-anchor="middle" font-size="13" fill="#333" font-family="-apple-system,BlinkMacSystemFont,sans-serif">已完成</text><path d="M440,-1260 C490,-1260 490,-1200 540,-1200" fill="none" stroke="#A287E1" stroke-width="2"/><rect x="540" y="-1215" width="80" height="30" rx="6" fill="#fafafa" stroke="none"/><text x="580" y="-1195" text-anchor="middle" font-size="13" fill="#333" font-family="-apple-system,BlinkMacSystemFont,sans-serif">订单详情</text><path d="M620,-1200 C670,-1200 670,-1200 720,-1200" fill="none" stroke="#A287E1" stroke-width="2"/><rect x="720" y="-1215" width="169" height="30" rx="6" fill="#fafafa" stroke="none"/><text x="804.5" y="-1195" text-anchor="middle" font-size="13" fill="#333" font-family="-apple-system,BlinkMacSystemFont,sans-serif">点击篮子号可以查看详情</text><path d="M889,-1200 C894.5,-1200 894.5,-1260 900,-1260" fill="none" stroke="#A287E1" stroke-width="2"/><rect x="900" y="-1275" width="80" height="30" rx="6" fill="#fafafa" stroke="none"/><text x="940" y="-1255" text-anchor="middle" font-size="13" fill="#333" font-family="-apple-system,BlinkMacSystemFont,sans-serif">SKU</text><path d="M889,-1200 C894.5,-1200 894.5,-1220 900,-1220" fill="none" stroke="#A287E1" stroke-width="2"/><rect x="900" y="-1235" width="80" height="30" rx="6" fill="#fafafa" stroke="none"/><text x="940" y="-1215" text-anchor="middle" font-size="13" fill="#333" font-family="-apple-system,BlinkMacSystemFont,sans-serif">商品条码</text><path d="M889,-1200 C894.5,-1200 894.5,-1180 900,-1180" fill="none" stroke="#A287E1" stroke-width="2"/><rect x="900" y="-1195" width="80" height="30" rx="6" fill="#fafafa" stroke="none"/><text x="940" y="-1175" text-anchor="middle" font-size="13" fill="#333" font-family="-apple-system,BlinkMacSystemFont,sans-serif">商品名称</text><path d="M889,-1200 C894.5,-1200 894.5,-1140 900,-1140" fill="none" stroke="#A287E1" stroke-width="2"/><rect x="900" y="-1155" width="143" height="30" rx="6" fill="#fafafa" stroke="none"/><text x="971.5" y="-1135" text-anchor="middle" font-size="13" fill="#333" font-family="-apple-system,BlinkMacSystemFont,sans-serif">商品数量（含进度）</text><path d="M440,-1260 C490,-1260 490,-1100 540,-1100" fill="none" stroke="#A287E1" stroke-width="2"/><rect x="540" y="-1115" width="80" height="30" rx="6" fill="#fafafa" stroke="none"/><text x="580" y="-1095" text-anchor="middle" font-size="13" fill="#333" font-family="-apple-system,BlinkMacSystemFont,sans-serif">订单进度</text><path d="M440,-1260 C490,-1260 490,-1060 540,-1060" fill="none" stroke="#A287E1" stroke-width="2"/><rect x="540" y="-1075" width="80" height="30" rx="6" fill="#fafafa" stroke="none"/><text x="580" y="-1055" text-anchor="middle" font-size="13" fill="#333" font-family="-apple-system,BlinkMacSystemFont,sans-serif">产品进度</text><path d="M132,0 C222,0 222,-80 312,-80" fill="none" stroke="#6F81DB" stroke-width="2"/><rect x="180" y="-95" width="80" height="30" rx="6" fill="#fafafa" stroke="none"/><text x="220" y="-75" text-anchor="middle" font-size="13" fill="#333" font-family="-apple-system,BlinkMacSystemFont,sans-serif">复核</text><path d="M260,-80 C310,-80 310,-1020 360,-1020" fill="none" stroke="#6F81DB" stroke-width="2"/><rect x="360" y="-1035" width="80" height="30" rx="6" fill="#fafafa" stroke="none"/><text x="400" y="-1015" text-anchor="middle" font-size="13" fill="#333" font-family="-apple-system,BlinkMacSystemFont,sans-serif">目的</text><path d="M440,-1020 C490,-1020 490,-1020 540,-1020" fill="none" stroke="#6F81DB" stroke-width="2"/><rect x="540" y="-1035" width="611" height="30" rx="6" fill="#fafafa" stroke="none"/><text x="845.5" y="-1015" text-anchor="middle" font-size="13" fill="#333" font-family="-apple-system,BlinkMacSystemFont,sans-serif">核对拣货和配货的结果是否准确，此功能比较关键，有可能拣货会弄错，所以需要再次核查（即复核）</text><path d="M260,-80 C310,-80 310,-940 360,-940" fill="none" stroke="#6F81DB" stroke-width="2"/><rect x="360" y="-955" width="80" height="30" rx="6" fill="#fafafa" stroke="none"/><text x="400" y="-935" text-anchor="middle" font-size="13" fill="#333" font-family="-apple-system,BlinkMacSystemFont,sans-serif">流程</text><path d="M440,-940 C490,-940 490,-980 540,-980" fill="none" stroke="#6F81DB" stroke-width="2"/><rect x="540" y="-995" width="299.52" height="30" rx="6" fill="#fafafa" stroke="none"/><text x="689.76" y="-975" text-anchor="middle" font-size="13" fill="#333" font-family="-apple-system,BlinkMacSystemFont,sans-serif">1.扫描出库任务单号，带出出库单中的产品明细</text><path d="M440,-940 C490,-940 490,-940 540,-940" fill="none" stroke="#6F81DB" stroke-width="2"/><rect x="540" y="-955" width="338.52" height="30" rx="6" fill="#fafafa" stroke="none"/><text x="709.26" y="-935" text-anchor="middle" font-size="13" fill="#333" font-family="-apple-system,BlinkMacSystemFont,sans-serif">2.扫描实物，与出库单的明细比对，直到全部核对完成</text><path d="M440,-940 C490,-940 490,-900 540,-900" fill="none" stroke="#6F81DB" stroke-width="2"/><rect x="540" y="-915" width="325.52" height="30" rx="6" fill="#fafafa" stroke="none"/><text x="702.76" y="-895" text-anchor="middle" font-size="13" fill="#333" font-family="-apple-system,BlinkMacSystemFont,sans-serif">3.复核完成之后，可以打印物流单号或者发货清单等</text><path d="M260,-80 C310,-80 310,-760 360,-760" fill="none" stroke="#6F81DB" stroke-width="2"/><rect x="360" y="-775" width="117" height="30" rx="6" fill="#fafafa" stroke="none"/><text x="418.5" y="-755" text-anchor="middle" font-size="13" fill="#333" font-family="-apple-system,BlinkMacSystemFont,sans-serif">不同的复核方式</text><path d="M477,-760 C508.5,-760 508.5,-820 540,-820" fill="none" stroke="#6F81DB" stroke-width="2"/><rect x="540" y="-835" width="80" height="30" rx="6" fill="#fafafa" stroke="none"/><text x="580" y="-815" text-anchor="middle" font-size="13" fill="#333" font-family="-apple-system,BlinkMacSystemFont,sans-serif">一单一件</text><path d="M620,-820 C670,-820 670,-860 720,-860" fill="none" stroke="#6F81DB" stroke-width="2"/><rect x="720" y="-875" width="91" height="30" rx="6" fill="#fafafa" stroke="none"/><text x="765.5" y="-855" text-anchor="middle" font-size="13" fill="#333" font-family="-apple-system,BlinkMacSystemFont,sans-serif">扫描波次号</text><path d="M811,-860 C855.5,-860 855.5,-860 900,-860" fill="none" stroke="#6F81DB" stroke-width="2"/><rect x="900" y="-875" width="156" height="30" rx="6" fill="#fafafa" stroke="none"/><text x="978" y="-855" text-anchor="middle" font-size="13" fill="#333" font-family="-apple-system,BlinkMacSystemFont,sans-serif">先定位对应的拣货波次</text><path d="M620,-820 C670,-820 670,-820 720,-820" fill="none" stroke="#6F81DB" stroke-width="2"/><rect x="720" y="-835" width="80" height="30" rx="6" fill="#fafafa" stroke="none"/><text x="760" y="-815" text-anchor="middle" font-size="13" fill="#333" font-family="-apple-system,BlinkMacSystemFont,sans-serif">扫描SKU</text><path d="M800,-820 C850,-820 850,-820 900,-820" fill="none" stroke="#6F81DB" stroke-width="2"/><rect x="900" y="-835" width="208" height="30" rx="6" fill="#fafafa" stroke="none"/><text x="1004" y="-815" text-anchor="middle" font-size="13" fill="#333" font-family="-apple-system,BlinkMacSystemFont,sans-serif">如果有唯一码，需要扫描唯一码</text><path d="M620,-820 C670,-820 670,-780 720,-780" fill="none" stroke="#6F81DB" stroke-width="2"/><rect x="720" y="-795" width="80" height="30" rx="6" fill="#fafafa" stroke="none"/><text x="760" y="-775" text-anchor="middle" font-size="13" fill="#333" font-family="-apple-system,BlinkMacSystemFont,sans-serif">扫描包材</text><path d="M800,-780 C850,-780 850,-780 900,-780" fill="none" stroke="#6F81DB" stroke-width="2"/><rect x="900" y="-795" width="221" height="30" rx="6" fill="#fafafa" stroke="none"/><text x="1010.5" y="-775" text-anchor="middle" font-size="13" fill="#333" font-family="-apple-system,BlinkMacSystemFont,sans-serif">包材可以放在后续打包的时候录入</text><path d="M477,-760 C508.5,-760 508.5,-700 540,-700" fill="none" stroke="#6F81DB" stroke-width="2"/><rect x="540" y="-715" width="80" height="30" rx="6" fill="#fafafa" stroke="none"/><text x="580" y="-695" text-anchor="middle" font-size="13" fill="#333" font-family="-apple-system,BlinkMacSystemFont,sans-serif">一单多件</text><path d="M620,-700 C670,-700 670,-740 720,-740" fill="none" stroke="#6F81DB" stroke-width="2"/><rect x="720" y="-755" width="136.76" height="30" rx="6" fill="#fafafa" stroke="none"/><text x="788.38" y="-735" text-anchor="middle" font-size="13" fill="#333" font-family="-apple-system,BlinkMacSystemFont,sans-serif">扫描订单号/运单号</text><path d="M856.76,-740 C878.38,-740 878.38,-740 900,-740" fill="none" stroke="#6F81DB" stroke-width="2"/><rect x="900" y="-755" width="104" height="30" rx="6" fill="#fafafa" stroke="none"/><text x="952" y="-735" text-anchor="middle" font-size="13" fill="#333" font-family="-apple-system,BlinkMacSystemFont,sans-serif">带出产品列表</text><path d="M620,-700 C670,-700 670,-700 720,-700" fill="none" stroke="#6F81DB" stroke-width="2"/><rect x="720" y="-715" width="80" height="30" rx="6" fill="#fafafa" stroke="none"/><text x="760" y="-695" text-anchor="middle" font-size="13" fill="#333" font-family="-apple-system,BlinkMacSystemFont,sans-serif">扫描SKU</text><path d="M800,-700 C850,-700 850,-700 900,-700" fill="none" stroke="#6F81DB" stroke-width="2"/><rect x="900" y="-715" width="208" height="30" rx="6" fill="#fafafa" stroke="none"/><text x="1004" y="-695" text-anchor="middle" font-size="13" fill="#333" font-family="-apple-system,BlinkMacSystemFont,sans-serif">如果有唯一码，需要扫描唯一码</text><path d="M620,-700 C670,-700 670,-660 720,-660" fill="none" stroke="#6F81DB" stroke-width="2"/><rect x="720" y="-675" width="80" height="30" rx="6" fill="#fafafa" stroke="none"/><text x="760" y="-655" text-anchor="middle" font-size="13" fill="#333" font-family="-apple-system,BlinkMacSystemFont,sans-serif">扫描包材</text><path d="M800,-660 C850,-660 850,-660 900,-660" fill="none" stroke="#6F81DB" stroke-width="2"/><rect x="900" y="-675" width="221" height="30" rx="6" fill="#fafafa" stroke="none"/><text x="1010.5" y="-655" text-anchor="middle" font-size="13" fill="#333" font-family="-apple-system,BlinkMacSystemFont,sans-serif">包材可以放在后续打包的时候录入</text><path d="M260,-80 C310,-80 310,-140 360,-140" fill="none" stroke="#6F81DB" stroke-width="2"/><rect x="360" y="-155" width="130" height="30" rx="6" fill="#fafafa" stroke="none"/><text x="425" y="-135" text-anchor="middle" font-size="13" fill="#333" font-family="-apple-system,BlinkMacSystemFont,sans-serif">复核时核心的字段</text><path d="M490,-140 C515,-140 515,-380 540,-380" fill="none" stroke="#6F81DB" stroke-width="2"/><rect x="540" y="-395" width="80" height="30" rx="6" fill="#fafafa" stroke="none"/><text x="580" y="-375" text-anchor="middle" font-size="13" fill="#333" font-family="-apple-system,BlinkMacSystemFont,sans-serif">一单一件</text><path d="M620,-380 C670,-380 670,-620 720,-620" fill="none" stroke="#6F81DB" stroke-width="2"/><rect x="720" y="-635" width="80" height="30" rx="6" fill="#fafafa" stroke="none"/><text x="760" y="-615" text-anchor="middle" font-size="13" fill="#333" font-family="-apple-system,BlinkMacSystemFont,sans-serif">波次号</text><path d="M620,-380 C670,-380 670,-580 720,-580" fill="none" stroke="#6F81DB" stroke-width="2"/><rect x="720" y="-595" width="80" height="30" rx="6" fill="#fafafa" stroke="none"/><text x="760" y="-575" text-anchor="middle" font-size="13" fill="#333" font-family="-apple-system,BlinkMacSystemFont,sans-serif">SKU</text><path d="M620,-380 C670,-380 670,-540 720,-540" fill="none" stroke="#6F81DB" stroke-width="2"/><rect x="720" y="-555" width="80" height="30" rx="6" fill="#fafafa" stroke="none"/><text x="760" y="-535" text-anchor="middle" font-size="13" fill="#333" font-family="-apple-system,BlinkMacSystemFont,sans-serif">数量</text><path d="M620,-380 C670,-380 670,-340 720,-340" fill="none" stroke="#6F81DB" stroke-width="2"/><rect x="720" y="-355" width="80" height="30" rx="6" fill="#fafafa" stroke="none"/><text x="760" y="-335" text-anchor="middle" font-size="13" fill="#333" font-family="-apple-system,BlinkMacSystemFont,sans-serif">订单信息</text><path d="M800,-340 C850,-340 850,-500 900,-500" fill="none" stroke="#6F81DB" stroke-width="2"/><rect x="900" y="-515" width="80" height="30" rx="6" fill="#fafafa" stroke="none"/><text x="940" y="-495" text-anchor="middle" font-size="13" fill="#333" font-family="-apple-system,BlinkMacSystemFont,sans-serif">承运商</text><path d="M800,-340 C850,-340 850,-460 900,-460" fill="none" stroke="#6F81DB" stroke-width="2"/><rect x="900" y="-475" width="104" height="30" rx="6" fill="#fafafa" stroke="none"/><text x="952" y="-455" text-anchor="middle" font-size="13" fill="#333" font-family="-apple-system,BlinkMacSystemFont,sans-serif">物流渠道编码</text><path d="M800,-340 C850,-340 850,-420 900,-420" fill="none" stroke="#6F81DB" stroke-width="2"/><rect x="900" y="-435" width="80" height="30" rx="6" fill="#fafafa" stroke="none"/><text x="940" y="-415" text-anchor="middle" font-size="13" fill="#333" font-family="-apple-system,BlinkMacSystemFont,sans-serif">客户</text><path d="M800,-340 C850,-340 850,-380 900,-380" fill="none" stroke="#6F81DB" stroke-width="2"/><rect x="900" y="-395" width="104" height="30" rx="6" fill="#fafafa" stroke="none"/><text x="952" y="-375" text-anchor="middle" font-size="13" fill="#333" font-family="-apple-system,BlinkMacSystemFont,sans-serif">波次订单序号</text><path d="M800,-340 C850,-340 850,-340 900,-340" fill="none" stroke="#6F81DB" stroke-width="2"/><rect x="900" y="-355" width="80" height="30" rx="6" fill="#fafafa" stroke="none"/><text x="940" y="-335" text-anchor="middle" font-size="13" fill="#333" font-family="-apple-system,BlinkMacSystemFont,sans-serif">出库单号</text><path d="M800,-340 C850,-340 850,-300 900,-300" fill="none" stroke="#6F81DB" stroke-width="2"/><rect x="900" y="-315" width="80" height="30" rx="6" fill="#fafafa" stroke="none"/><text x="940" y="-295" text-anchor="middle" font-size="13" fill="#333" font-family="-apple-system,BlinkMacSystemFont,sans-serif">SKU</text><path d="M800,-340 C850,-340 850,-260 900,-260" fill="none" stroke="#6F81DB" stroke-width="2"/><rect x="900" y="-275" width="80" height="30" rx="6" fill="#fafafa" stroke="none"/><text x="940" y="-255" text-anchor="middle" font-size="13" fill="#333" font-family="-apple-system,BlinkMacSystemFont,sans-serif">名称</text><path d="M800,-340 C850,-340 850,-220 900,-220" fill="none" stroke="#6F81DB" stroke-width="2"/><rect x="900" y="-235" width="80" height="30" rx="6" fill="#fafafa" stroke="none"/><text x="940" y="-215" text-anchor="middle" font-size="13" fill="#333" font-family="-apple-system,BlinkMacSystemFont,sans-serif">数量</text><path d="M800,-340 C850,-340 850,-180 900,-180" fill="none" stroke="#6F81DB" stroke-width="2"/><rect x="900" y="-195" width="80" height="30" rx="6" fill="#fafafa" stroke="none"/><text x="940" y="-175" text-anchor="middle" font-size="13" fill="#333" font-family="-apple-system,BlinkMacSystemFont,sans-serif">备注</text><path d="M620,-380 C670,-380 670,-140 720,-140" fill="none" stroke="#6F81DB" stroke-width="2"/><rect x="720" y="-155" width="80" height="30" rx="6" fill="#fafafa" stroke="none"/><text x="760" y="-135" text-anchor="middle" font-size="13" fill="#333" font-family="-apple-system,BlinkMacSystemFont,sans-serif">波次信息</text><path d="M800,-140 C850,-140 850,-140 900,-140" fill="none" stroke="#6F81DB" stroke-width="2"/><rect x="900" y="-155" width="91" height="30" rx="6" fill="#fafafa" stroke="none"/><text x="945.5" y="-135" text-anchor="middle" font-size="13" fill="#333" font-family="-apple-system,BlinkMacSystemFont,sans-serif">波次总单数</text><path d="M490,-140 C515,-140 515,120 540,120" fill="none" stroke="#6F81DB" stroke-width="2"/><rect x="540" y="105" width="80" height="30" rx="6" fill="#fafafa" stroke="none"/><text x="580" y="125" text-anchor="middle" font-size="13" fill="#333" font-family="-apple-system,BlinkMacSystemFont,sans-serif">一单多件</text><path d="M620,120 C670,120 670,-100 720,-100" fill="none" stroke="#6F81DB" stroke-width="2"/><rect x="720" y="-115" width="80" height="30" rx="6" fill="#fafafa" stroke="none"/><text x="760" y="-95" text-anchor="middle" font-size="13" fill="#333" font-family="-apple-system,BlinkMacSystemFont,sans-serif">出库单号</text><path d="M620,120 C670,120 670,-60 720,-60" fill="none" stroke="#6F81DB" stroke-width="2"/><rect x="720" y="-75" width="80" height="30" rx="6" fill="#fafafa" stroke="none"/><text x="760" y="-55" text-anchor="middle" font-size="13" fill="#333" font-family="-apple-system,BlinkMacSystemFont,sans-serif">SKU</text><path d="M620,120 C670,120 670,-20 720,-20" fill="none" stroke="#6F81DB" stroke-width="2"/><rect x="720" y="-35" width="80" height="30" rx="6" fill="#fafafa" stroke="none"/><text x="760" y="-15" text-anchor="middle" font-size="13" fill="#333" font-family="-apple-system,BlinkMacSystemFont,sans-serif">数量</text><path d="M620,120 C670,120 670,180 720,180" fill="none" stroke="#6F81DB" stroke-width="2"/><rect x="720" y="165" width="80" height="30" rx="6" fill="#fafafa" stroke="none"/><text x="760" y="185" text-anchor="middle" font-size="13" fill="#333" font-family="-apple-system,BlinkMacSystemFont,sans-serif">订单信息</text><path d="M800,180 C850,180 850,20 900,20" fill="none" stroke="#6F81DB" stroke-width="2"/><rect x="900" y="5" width="104" height="30" rx="6" fill="#fafafa" stroke="none"/><text x="952" y="25" text-anchor="middle" font-size="13" fill="#333" font-family="-apple-system,BlinkMacSystemFont,sans-serif">出库任务单号</text><path d="M800,180 C850,180 850,60 900,60" fill="none" stroke="#6F81DB" stroke-width="2"/><rect x="900" y="45" width="80" height="30" rx="6" fill="#fafafa" stroke="none"/><text x="940" y="65" text-anchor="middle" font-size="13" fill="#333" font-family="-apple-system,BlinkMacSystemFont,sans-serif">承运商</text><path d="M800,180 C850,180 850,100 900,100" fill="none" stroke="#6F81DB" stroke-width="2"/><rect x="900" y="85" width="104" height="30" rx="6" fill="#fafafa" stroke="none"/><text x="952" y="105" text-anchor="middle" font-size="13" fill="#333" font-family="-apple-system,BlinkMacSystemFont,sans-serif">物流渠道编码</text><path d="M800,180 C850,180 850,140 900,140" fill="none" stroke="#6F81DB" stroke-width="2"/><rect x="900" y="125" width="80" height="30" rx="6" fill="#fafafa" stroke="none"/><text x="940" y="145" text-anchor="middle" font-size="13" fill="#333" font-family="-apple-system,BlinkMacSystemFont,sans-serif">跟踪号</text><path d="M800,180 C850,180 850,180 900,180" fill="none" stroke="#6F81DB" stroke-width="2"/><rect x="900" y="165" width="80" height="30" rx="6" fill="#fafafa" stroke="none"/><text x="940" y="185" text-anchor="middle" font-size="13" fill="#333" font-family="-apple-system,BlinkMacSystemFont,sans-serif">备注</text><path d="M800,180 C850,180 850,220 900,220" fill="none" stroke="#6F81DB" stroke-width="2"/><rect x="900" y="205" width="80" height="30" rx="6" fill="#fafafa" stroke="none"/><text x="940" y="225" text-anchor="middle" font-size="13" fill="#333" font-family="-apple-system,BlinkMacSystemFont,sans-serif">客户</text><path d="M800,180 C850,180 850,300 900,300" fill="none" stroke="#6F81DB" stroke-width="2"/><rect x="900" y="285" width="80" height="30" rx="6" fill="#fafafa" stroke="none"/><text x="940" y="305" text-anchor="middle" font-size="13" fill="#333" font-family="-apple-system,BlinkMacSystemFont,sans-serif">产品信息</text><path d="M980,300 C1030,300 1030,260 1080,260" fill="none" stroke="#6F81DB" stroke-width="2"/><rect x="1080" y="245" width="80" height="30" rx="6" fill="#fafafa" stroke="none"/><text x="1120" y="265" text-anchor="middle" font-size="13" fill="#333" font-family="-apple-system,BlinkMacSystemFont,sans-serif">SKU</text><path d="M980,300 C1030,300 1030,300 1080,300" fill="none" stroke="#6F81DB" stroke-width="2"/><rect x="1080" y="285" width="80" height="30" rx="6" fill="#fafafa" stroke="none"/><text x="1120" y="305" text-anchor="middle" font-size="13" fill="#333" font-family="-apple-system,BlinkMacSystemFont,sans-serif">名称</text><path d="M980,300 C1030,300 1030,340 1080,340" fill="none" stroke="#6F81DB" stroke-width="2"/><rect x="1080" y="325" width="80" height="30" rx="6" fill="#fafafa" stroke="none"/><text x="1120" y="345" text-anchor="middle" font-size="13" fill="#333" font-family="-apple-system,BlinkMacSystemFont,sans-serif">数量</text><path d="M260,-80 C310,-80 310,620 360,620" fill="none" stroke="#6F81DB" stroke-width="2"/><rect x="360" y="605" width="130" height="30" rx="6" fill="#fafafa" stroke="none"/><text x="425" y="625" text-anchor="middle" font-size="13" fill="#333" font-family="-apple-system,BlinkMacSystemFont,sans-serif">复核的重点和难点</text><path d="M490,620 C515,620 515,420 540,420" fill="none" stroke="#6F81DB" stroke-width="2"/><rect x="540" y="405" width="403.52" height="30" rx="6" fill="#fafafa" stroke="none"/><text x="741.76" y="425" text-anchor="middle" font-size="13" fill="#333" font-family="-apple-system,BlinkMacSystemFont,sans-serif">1.不同类型的出库单采用不同的复核方式，可以有效提升复核效率</text><path d="M943.52,420 C831.76,420 831.76,380 720,380" fill="none" stroke="#6F81DB" stroke-width="2"/><rect x="720" y="365" width="221" height="30" rx="6" fill="#fafafa" stroke="none"/><text x="830.5" y="385" text-anchor="middle" font-size="13" fill="#333" font-family="-apple-system,BlinkMacSystemFont,sans-serif">为什么要区分一单一件和一单多件</text><path d="M943.52,420 C831.76,420 831.76,420 720,420" fill="none" stroke="#6F81DB" stroke-width="2"/><rect x="720" y="405" width="338" height="30" rx="6" fill="#fafafa" stroke="none"/><text x="889" y="425" text-anchor="middle" font-size="13" fill="#333" font-family="-apple-system,BlinkMacSystemFont,sans-serif">一单多件是先确定单，然后通过实物去匹配单里的明细</text><path d="M943.52,420 C831.76,420 831.76,460 720,460" fill="none" stroke="#6F81DB" stroke-width="2"/><rect x="720" y="445" width="494" height="30" rx="6" fill="#fafafa" stroke="none"/><text x="967" y="465" text-anchor="middle" font-size="13" fill="#333" font-family="-apple-system,BlinkMacSystemFont,sans-serif">一单一件是先确定波次，然后通过实物去匹配订单，因为大家都是一件，可以分配</text><path d="M490,620 C515,620 515,560 540,560" fill="none" stroke="#6F81DB" stroke-width="2"/><rect x="540" y="545" width="195.51999999999998" height="30" rx="6" fill="#fafafa" stroke="none"/><text x="637.76" y="565" text-anchor="middle" font-size="13" fill="#333" font-family="-apple-system,BlinkMacSystemFont,sans-serif">2.复核首先要解决扫描的问题</text><path d="M735.52,560 C727.76,560 727.76,520 720,520" fill="none" stroke="#6F81DB" stroke-width="2"/><rect x="720" y="505" width="260" height="30" rx="6" fill="#fafafa" stroke="none"/><text x="850" y="525" text-anchor="middle" font-size="13" fill="#333" font-family="-apple-system,BlinkMacSystemFont,sans-serif">是扫描出库任务单还是扫描物流跟踪单号</text><path d="M980,520 C940,520 940,500 900,500" fill="none" stroke="#6F81DB" stroke-width="2"/><rect x="900" y="485" width="345.28000000000003" height="30" rx="6" fill="#fafafa" stroke="none"/><text x="1072.64" y="505" text-anchor="middle" font-size="13" fill="#333" font-family="-apple-system,BlinkMacSystemFont,sans-serif">出库任务单号是WMS内部唯一的，可以匹配到唯一的订单</text><path d="M980,520 C940,520 940,540 900,540" fill="none" stroke="#6F81DB" stroke-width="2"/><rect x="900" y="525" width="299" height="30" rx="6" fill="#fafafa" stroke="none"/><text x="1049.5" y="545" text-anchor="middle" font-size="13" fill="#333" font-family="-apple-system,BlinkMacSystemFont,sans-serif">物流跟踪号不一定唯一，可能需要进行手动选择</text><path d="M735.52,560 C727.76,560 727.76,600 720,600" fill="none" stroke="#6F81DB" stroke-width="2"/><rect x="720" y="585" width="364" height="30" rx="6" fill="#fafafa" stroke="none"/><text x="902" y="605" text-anchor="middle" font-size="13" fill="#333" font-family="-apple-system,BlinkMacSystemFont,sans-serif">在复核动作开始时，有哪些单据是可以扫描的？从哪里扫？</text><path d="M1084,600 C992,600 992,580 900,580" fill="none" stroke="#6F81DB" stroke-width="2"/><rect x="900" y="565" width="273" height="30" rx="6" fill="#fafafa" stroke="none"/><text x="1036.5" y="585" text-anchor="middle" font-size="13" fill="#333" font-family="-apple-system,BlinkMacSystemFont,sans-serif">条码不会平白无故出现，肯定需要提前打印</text><path d="M1084,600 C992,600 992,620 900,620" fill="none" stroke="#6F81DB" stroke-width="2"/><rect x="900" y="605" width="377" height="30" rx="6" fill="#fafafa" stroke="none"/><text x="1088.5" y="625" text-anchor="middle" font-size="13" fill="#333" font-family="-apple-system,BlinkMacSystemFont,sans-serif">在什么时候打印，打印什么单据，如果仓库没有打印怎么办？</text><path d="M490,620 C515,620 515,720 540,720" fill="none" stroke="#6F81DB" stroke-width="2"/><rect x="540" y="705" width="260.52" height="30" rx="6" fill="#fafafa" stroke="none"/><text x="670.26" y="725" text-anchor="middle" font-size="13" fill="#333" font-family="-apple-system,BlinkMacSystemFont,sans-serif">3.解决了扫描的问题之后，就是判断状态</text><path d="M800.52,720 C760.26,720 760.26,660 720,660" fill="none" stroke="#6F81DB" stroke-width="2"/><rect x="720" y="645" width="156" height="30" rx="6" fill="#fafafa" stroke="none"/><text x="798" y="665" text-anchor="middle" font-size="13" fill="#333" font-family="-apple-system,BlinkMacSystemFont,sans-serif">什么状态的单可以复核</text><path d="M876,660 C888,660 888,660 900,660" fill="none" stroke="#6F81DB" stroke-width="2"/><rect x="900" y="645" width="91" height="30" rx="6" fill="#fafafa" stroke="none"/><text x="945.5" y="665" text-anchor="middle" font-size="13" fill="#333" font-family="-apple-system,BlinkMacSystemFont,sans-serif">待复核状态</text><path d="M800.52,720 C760.26,720 760.26,700 720,700" fill="none" stroke="#6F81DB" stroke-width="2"/><rect x="720" y="685" width="189.28000000000003" height="30" rx="6" fill="#fafafa" stroke="none"/><text x="814.64" y="705" text-anchor="middle" font-size="13" fill="#333" font-family="-apple-system,BlinkMacSystemFont,sans-serif">复核的时候SKU不存在怎么办</text><path d="M909.28,700 C904.64,700 904.64,700 900,700" fill="none" stroke="#6F81DB" stroke-width="2"/><rect x="900" y="685" width="80" height="30" rx="6" fill="#fafafa" stroke="none"/><text x="940" y="705" text-anchor="middle" font-size="13" fill="#333" font-family="-apple-system,BlinkMacSystemFont,sans-serif">提示错误</text><path d="M800.52,720 C760.26,720 760.26,760 720,760" fill="none" stroke="#6F81DB" stroke-width="2"/><rect x="720" y="745" width="182" height="30" rx="6" fill="#fafafa" stroke="none"/><text x="811" y="765" text-anchor="middle" font-size="13" fill="#333" font-family="-apple-system,BlinkMacSystemFont,sans-serif">复核的时候数量多了怎么办</text><path d="M902,760 C901,760 901,740 900,740" fill="none" stroke="#6F81DB" stroke-width="2"/><rect x="900" y="725" width="208" height="30" rx="6" fill="#fafafa" stroke="none"/><text x="1004" y="745" text-anchor="middle" font-size="13" fill="#333" font-family="-apple-system,BlinkMacSystemFont,sans-serif">不允许少或者多，必须完全一样</text><path d="M902,760 C901,760 901,780 900,780" fill="none" stroke="#6F81DB" stroke-width="2"/><rect x="900" y="765" width="208" height="30" rx="6" fill="#fafafa" stroke="none"/><text x="1004" y="785" text-anchor="middle" font-size="13" fill="#333" font-family="-apple-system,BlinkMacSystemFont,sans-serif">多了或者少了的，要走异常流程</text><path d="M490,620 C515,620 515,840 540,840" fill="none" stroke="#6F81DB" stroke-width="2"/><rect x="540" y="825" width="156.51999999999998" height="30" rx="6" fill="#fafafa" stroke="none"/><text x="618.26" y="845" text-anchor="middle" font-size="13" fill="#333" font-family="-apple-system,BlinkMacSystemFont,sans-serif">4.一些交互细节的问题</text><path d="M696.52,840 C708.26,840 708.26,820 720,820" fill="none" stroke="#6F81DB" stroke-width="2"/><rect x="720" y="805" width="624" height="30" rx="6" fill="#fafafa" stroke="none"/><text x="1032" y="825" text-anchor="middle" font-size="13" fill="#333" font-family="-apple-system,BlinkMacSystemFont,sans-serif">复核属于一个高频，高效率的场景，尽量不要被打断，不要切换鼠标，键盘和扫描枪，尽量做到一枪到底</text><path d="M696.52,840 C708.26,840 708.26,860 720,860" fill="none" stroke="#6F81DB" stroke-width="2"/><rect x="720" y="845" width="377" height="30" rx="6" fill="#fafafa" stroke="none"/><text x="908.5" y="865" text-anchor="middle" font-size="13" fill="#333" font-family="-apple-system,BlinkMacSystemFont,sans-serif">复核速度极快，员工可能都不会看屏幕，需要给出相应的提示</text><path d="M1097,860 C998.5,860 998.5,860 900,860" fill="none" stroke="#6F81DB" stroke-width="2"/><rect x="900" y="845" width="156" height="30" rx="6" fill="#fafafa" stroke="none"/><text x="978" y="865" text-anchor="middle" font-size="13" fill="#333" font-family="-apple-system,BlinkMacSystemFont,sans-serif">语音提示成功或者失败</text><path d="M132,0 C222,0 222,1320 312,1320" fill="none" stroke="#6EC4C4" stroke-width="2"/><rect x="180" y="1305" width="80" height="30" rx="6" fill="#fafafa" stroke="none"/><text x="220" y="1325" text-anchor="middle" font-size="13" fill="#333" font-family="-apple-system,BlinkMacSystemFont,sans-serif">称重</text><path d="M260,1320 C310,1320 310,920 360,920" fill="none" stroke="#6EC4C4" stroke-width="2"/><rect x="360" y="905" width="80" height="30" rx="6" fill="#fafafa" stroke="none"/><text x="400" y="925" text-anchor="middle" font-size="13" fill="#333" font-family="-apple-system,BlinkMacSystemFont,sans-serif">目的</text><path d="M440,920 C490,920 490,900 540,900" fill="none" stroke="#6EC4C4" stroke-width="2"/><rect x="540" y="885" width="572" height="30" rx="6" fill="#fafafa" stroke="none"/><text x="826" y="905" text-anchor="middle" font-size="13" fill="#333" font-family="-apple-system,BlinkMacSystemFont,sans-serif">订单打包好了之后需要称重，称重可以提前根据计费模板来计费，同时也能留底跟物流商做核对</text><path d="M440,920 C490,920 490,940 540,940" fill="none" stroke="#6EC4C4" stroke-width="2"/><rect x="540" y="925" width="80" height="30" rx="6" fill="#fafafa" stroke="none"/><text x="580" y="945" text-anchor="middle" font-size="13" fill="#333" font-family="-apple-system,BlinkMacSystemFont,sans-serif">再次复核</text><path d="M260,1320 C310,1320 310,1040 360,1040" fill="none" stroke="#6EC4C4" stroke-width="2"/><rect x="360" y="1025" width="80" height="30" rx="6" fill="#fafafa" stroke="none"/><text x="400" y="1045" text-anchor="middle" font-size="13" fill="#333" font-family="-apple-system,BlinkMacSystemFont,sans-serif">流程</text><path d="M440,1040 C490,1040 490,980 540,980" fill="none" stroke="#6EC4C4" stroke-width="2"/><rect x="540" y="965" width="156.51999999999998" height="30" rx="6" fill="#fafafa" stroke="none"/><text x="618.26" y="985" text-anchor="middle" font-size="13" fill="#333" font-family="-apple-system,BlinkMacSystemFont,sans-serif">1.扫描包裹上的跟踪号</text><path d="M696.52,980 C708.26,980 708.26,980 720,980" fill="none" stroke="#6EC4C4" stroke-width="2"/><rect x="720" y="965" width="429" height="30" rx="6" fill="#fafafa" stroke="none"/><text x="934.5" y="985" text-anchor="middle" font-size="13" fill="#333" font-family="-apple-system,BlinkMacSystemFont,sans-serif">打包之后，包裹上基本上没有出库任务单号了，基本上都是只有跟踪号</text><path d="M440,1040 C490,1040 490,1040 540,1040" fill="none" stroke="#6EC4C4" stroke-width="2"/><rect x="540" y="1025" width="247.51999999999998" height="30" rx="6" fill="#fafafa" stroke="none"/><text x="663.76" y="1045" text-anchor="middle" font-size="13" fill="#333" font-family="-apple-system,BlinkMacSystemFont,sans-serif">2.输入重量或者自动读取电子秤的重量</text><path d="M787.52,1040 C753.76,1040 753.76,1020 720,1020" fill="none" stroke="#6EC4C4" stroke-width="2"/><rect x="720" y="1005" width="117" height="30" rx="6" fill="#fafafa" stroke="none"/><text x="778.5" y="1025" text-anchor="middle" font-size="13" fill="#333" font-family="-apple-system,BlinkMacSystemFont,sans-serif">需要和硬件对接</text><path d="M787.52,1040 C753.76,1040 753.76,1060 720,1060" fill="none" stroke="#6EC4C4" stroke-width="2"/><rect x="720" y="1045" width="299" height="30" rx="6" fill="#fafafa" stroke="none"/><text x="869.5" y="1065" text-anchor="middle" font-size="13" fill="#333" font-family="-apple-system,BlinkMacSystemFont,sans-serif">一期没有对接的时候，直接就手动输入重量即可</text><path d="M440,1040 C490,1040 490,1100 540,1100" fill="none" stroke="#6EC4C4" stroke-width="2"/><rect x="540" y="1085" width="91.52" height="30" rx="6" fill="#fafafa" stroke="none"/><text x="585.76" y="1105" text-anchor="middle" font-size="13" fill="#333" font-family="-apple-system,BlinkMacSystemFont,sans-serif">3.称重完成</text><path d="M260,1320 C310,1320 310,1260 360,1260" fill="none" stroke="#6EC4C4" stroke-width="2"/><rect x="360" y="1245" width="117" height="30" rx="6" fill="#fafafa" stroke="none"/><text x="418.5" y="1265" text-anchor="middle" font-size="13" fill="#333" font-family="-apple-system,BlinkMacSystemFont,sans-serif">称重的核心字段</text><path d="M477,1260 C508.5,1260 508.5,1140 540,1140" fill="none" stroke="#6EC4C4" stroke-width="2"/><rect x="540" y="1125" width="80" height="30" rx="6" fill="#fafafa" stroke="none"/><text x="580" y="1145" text-anchor="middle" font-size="13" fill="#333" font-family="-apple-system,BlinkMacSystemFont,sans-serif">出库单号</text><path d="M477,1260 C508.5,1260 508.5,1180 540,1180" fill="none" stroke="#6EC4C4" stroke-width="2"/><rect x="540" y="1165" width="80" height="30" rx="6" fill="#fafafa" stroke="none"/><text x="580" y="1185" text-anchor="middle" font-size="13" fill="#333" font-family="-apple-system,BlinkMacSystemFont,sans-serif">物流单号</text><path d="M477,1260 C508.5,1260 508.5,1220 540,1220" fill="none" stroke="#6EC4C4" stroke-width="2"/><rect x="540" y="1205" width="80" height="30" rx="6" fill="#fafafa" stroke="none"/><text x="580" y="1225" text-anchor="middle" font-size="13" fill="#333" font-family="-apple-system,BlinkMacSystemFont,sans-serif">物流渠道</text><path d="M477,1260 C508.5,1260 508.5,1260 540,1260" fill="none" stroke="#6EC4C4" stroke-width="2"/><rect x="540" y="1245" width="91" height="30" rx="6" fill="#fafafa" stroke="none"/><text x="585.5" y="1265" text-anchor="middle" font-size="13" fill="#333" font-family="-apple-system,BlinkMacSystemFont,sans-serif">物流跟踪号</text><path d="M477,1260 C508.5,1260 508.5,1300 540,1300" fill="none" stroke="#6EC4C4" stroke-width="2"/><rect x="540" y="1285" width="80" height="30" rx="6" fill="#fafafa" stroke="none"/><text x="580" y="1305" text-anchor="middle" font-size="13" fill="#333" font-family="-apple-system,BlinkMacSystemFont,sans-serif">包裹重量</text><path d="M477,1260 C508.5,1260 508.5,1340 540,1340" fill="none" stroke="#6EC4C4" stroke-width="2"/><rect x="540" y="1325" width="80" height="30" rx="6" fill="#fafafa" stroke="none"/><text x="580" y="1345" text-anchor="middle" font-size="13" fill="#333" font-family="-apple-system,BlinkMacSystemFont,sans-serif">称重时间</text><path d="M477,1260 C508.5,1260 508.5,1380 540,1380" fill="none" stroke="#6EC4C4" stroke-width="2"/><rect x="540" y="1365" width="117" height="30" rx="6" fill="#fafafa" stroke="none"/><text x="598.5" y="1385" text-anchor="middle" font-size="13" fill="#333" font-family="-apple-system,BlinkMacSystemFont,sans-serif">定位具体的订单</text><path d="M260,1320 C310,1320 310,1580 360,1580" fill="none" stroke="#6EC4C4" stroke-width="2"/><rect x="360" y="1565" width="130" height="30" rx="6" fill="#fafafa" stroke="none"/><text x="425" y="1585" text-anchor="middle" font-size="13" fill="#333" font-family="-apple-system,BlinkMacSystemFont,sans-serif">称重的重点和难点</text><path d="M490,1580 C515,1580 515,1460 540,1460" fill="none" stroke="#6EC4C4" stroke-width="2"/><rect x="540" y="1445" width="104.52" height="30" rx="6" fill="#fafafa" stroke="none"/><text x="592.26" y="1465" text-anchor="middle" font-size="13" fill="#333" font-family="-apple-system,BlinkMacSystemFont,sans-serif">1.扫描的问题</text><path d="M644.52,1460 C682.26,1460 682.26,1420 720,1420" fill="none" stroke="#6EC4C4" stroke-width="2"/><rect x="720" y="1405" width="117" height="30" rx="6" fill="#fafafa" stroke="none"/><text x="778.5" y="1425" text-anchor="middle" font-size="13" fill="#333" font-family="-apple-system,BlinkMacSystemFont,sans-serif">怎么识别跟踪号</text><path d="M644.52,1460 C682.26,1460 682.26,1460 720,1460" fill="none" stroke="#6EC4C4" stroke-width="2"/><rect x="720" y="1445" width="156" height="30" rx="6" fill="#fafafa" stroke="none"/><text x="798" y="1465" text-anchor="middle" font-size="13" fill="#333" font-family="-apple-system,BlinkMacSystemFont,sans-serif">可能会有一对多的问题</text><path d="M644.52,1460 C682.26,1460 682.26,1500 720,1500" fill="none" stroke="#6EC4C4" stroke-width="2"/><rect x="720" y="1485" width="182" height="30" rx="6" fill="#fafafa" stroke="none"/><text x="811" y="1505" text-anchor="middle" font-size="13" fill="#333" font-family="-apple-system,BlinkMacSystemFont,sans-serif">可能会有跟踪号截取的问题</text><path d="M490,1580 C515,1580 515,1560 540,1560" fill="none" stroke="#6EC4C4" stroke-width="2"/><rect x="540" y="1545" width="117.52" height="30" rx="6" fill="#fafafa" stroke="none"/><text x="598.76" y="1565" text-anchor="middle" font-size="13" fill="#333" font-family="-apple-system,BlinkMacSystemFont,sans-serif">2.电子秤的问题</text><path d="M657.52,1560 C688.76,1560 688.76,1540 720,1540" fill="none" stroke="#6EC4C4" stroke-width="2"/><rect x="720" y="1525" width="117" height="30" rx="6" fill="#fafafa" stroke="none"/><text x="778.5" y="1545" text-anchor="middle" font-size="13" fill="#333" font-family="-apple-system,BlinkMacSystemFont,sans-serif">怎么连接电子秤</text><path d="M657.52,1560 C688.76,1560 688.76,1580 720,1580" fill="none" stroke="#6EC4C4" stroke-width="2"/><rect x="720" y="1565" width="208" height="30" rx="6" fill="#fafafa" stroke="none"/><text x="824" y="1585" text-anchor="middle" font-size="13" fill="#333" font-family="-apple-system,BlinkMacSystemFont,sans-serif">怎么兼容市面上大多数的电子秤</text><path d="M490,1580 C515,1580 515,1640 540,1640" fill="none" stroke="#6EC4C4" stroke-width="2"/><rect x="540" y="1625" width="104.52" height="30" rx="6" fill="#fafafa" stroke="none"/><text x="592.26" y="1645" text-anchor="middle" font-size="13" fill="#333" font-family="-apple-system,BlinkMacSystemFont,sans-serif">3.状态的问题</text><path d="M644.52,1640 C682.26,1640 682.26,1620 720,1620" fill="none" stroke="#6EC4C4" stroke-width="2"/><rect x="720" y="1605" width="182" height="30" rx="6" fill="#fafafa" stroke="none"/><text x="811" y="1625" text-anchor="middle" font-size="13" fill="#333" font-family="-apple-system,BlinkMacSystemFont,sans-serif">什么状态的出库单可以称重</text><path d="M644.52,1640 C682.26,1640 682.26,1660 720,1660" fill="none" stroke="#6EC4C4" stroke-width="2"/><rect x="720" y="1645" width="208" height="30" rx="6" fill="#fafafa" stroke="none"/><text x="824" y="1665" text-anchor="middle" font-size="13" fill="#333" font-family="-apple-system,BlinkMacSystemFont,sans-serif">称重之后频繁更新重量怎么办？</text><path d="M490,1580 C515,1580 515,1720 540,1720" fill="none" stroke="#6EC4C4" stroke-width="2"/><rect x="540" y="1705" width="163.28" height="30" rx="6" fill="#fafafa" stroke="none"/><text x="621.64" y="1725" text-anchor="middle" font-size="13" fill="#333" font-family="-apple-system,BlinkMacSystemFont,sans-serif">4.物流分拨/集运的问题</text><path d="M703.28,1720 C711.64,1720 711.64,1700 720,1700" fill="none" stroke="#6EC4C4" stroke-width="2"/><rect x="720" y="1685" width="240.76" height="30" rx="6" fill="#fafafa" stroke="none"/><text x="840.38" y="1705" text-anchor="middle" font-size="13" fill="#333" font-family="-apple-system,BlinkMacSystemFont,sans-serif">如何高效解决物流分拨/集运的问题？</text><path d="M703.28,1720 C711.64,1720 711.64,1740 720,1740" fill="none" stroke="#6EC4C4" stroke-width="2"/><rect x="720" y="1725" width="169" height="30" rx="6" fill="#fafafa" stroke="none"/><text x="804.5" y="1745" text-anchor="middle" font-size="13" fill="#333" font-family="-apple-system,BlinkMacSystemFont,sans-serif">优化物流交接的工作效率</text>
</svg>