<svg xmlns="http://www.w3.org/2000/svg" xmlns:xlink="http://www.w3.org/1999/xlink"
  viewBox="-188.48 -979 897.48 1985.5" width="897.48" height="1985.5"
  style="background:#fff; font-family:-apple-system,BlinkMacSystemFont,'Segoe UI',Roboto,sans-serif;">
<defs></defs>
<rect x="-188.48" y="-979" width="897.48" height="1985.5" fill="#fff"/>
<rect x="-104.47999999999999" y="-18" width="208.95999999999998" height="36" rx="8" fill="#EFF0F0" stroke="none"/><text x="0" y="6" text-anchor="middle" font-size="16" font-weight="bold" fill="#333" font-family="-apple-system,BlinkMacSystemFont,sans-serif">跨境电商ERP的功能清单</text><path d="M104.47999999999999,0 C194.48000000000002,0 194.48000000000002,-820 284.48,-820" fill="none" stroke="#A287E1" stroke-width="2"/><rect x="180" y="-835" width="80" height="30" rx="6" fill="#fafafa" stroke="none"/><text x="220" y="-815" text-anchor="middle" font-size="13" fill="#333" font-family="-apple-system,BlinkMacSystemFont,sans-serif">产品管理</text><path d="M260,-820 C310,-820 310,-880 360,-880" fill="none" stroke="#A287E1" stroke-width="2"/><rect x="360" y="-895" width="80" height="30" rx="6" fill="#fafafa" stroke="none"/><text x="400" y="-875" text-anchor="middle" font-size="13" fill="#333" font-family="-apple-system,BlinkMacSystemFont,sans-serif">产品采集</text><path d="M260,-820 C310,-820 310,-840 360,-840" fill="none" stroke="#A287E1" stroke-width="2"/><rect x="360" y="-855" width="80" height="30" rx="6" fill="#fafafa" stroke="none"/><text x="400" y="-835" text-anchor="middle" font-size="13" fill="#333" font-family="-apple-system,BlinkMacSystemFont,sans-serif">产品刊登</text><path d="M260,-820 C310,-820 310,-800 360,-800" fill="none" stroke="#A287E1" stroke-width="2"/><rect x="360" y="-815" width="104" height="30" rx="6" fill="#fafafa" stroke="none"/><text x="412" y="-795" text-anchor="middle" font-size="13" fill="#333" font-family="-apple-system,BlinkMacSystemFont,sans-serif">在线产品管理</text><path d="M260,-820 C310,-820 310,-760 360,-760" fill="none" stroke="#A287E1" stroke-width="2"/><rect x="360" y="-775" width="80" height="30" rx="6" fill="#fafafa" stroke="none"/><text x="400" y="-755" text-anchor="middle" font-size="13" fill="#333" font-family="-apple-system,BlinkMacSystemFont,sans-serif">产品开发</text><path d="M104.47999999999999,0 C194.48000000000002,0 194.48000000000002,-620 284.48,-620" fill="none" stroke="#A287E1" stroke-width="2"/><rect x="180" y="-635" width="80" height="30" rx="6" fill="#fafafa" stroke="none"/><text x="220" y="-615" text-anchor="middle" font-size="13" fill="#333" font-family="-apple-system,BlinkMacSystemFont,sans-serif">采购管理</text><path d="M260,-620 C310,-620 310,-720 360,-720" fill="none" stroke="#A287E1" stroke-width="2"/><rect x="360" y="-735" width="80" height="30" rx="6" fill="#fafafa" stroke="none"/><text x="400" y="-715" text-anchor="middle" font-size="13" fill="#333" font-family="-apple-system,BlinkMacSystemFont,sans-serif">采购建议</text><path d="M260,-620 C310,-620 310,-680 360,-680" fill="none" stroke="#A287E1" stroke-width="2"/><rect x="360" y="-695" width="80" height="30" rx="6" fill="#fafafa" stroke="none"/><text x="400" y="-675" text-anchor="middle" font-size="13" fill="#333" font-family="-apple-system,BlinkMacSystemFont,sans-serif">采购计划</text><path d="M260,-620 C310,-620 310,-640 360,-640" fill="none" stroke="#A287E1" stroke-width="2"/><rect x="360" y="-655" width="80" height="30" rx="6" fill="#fafafa" stroke="none"/><text x="400" y="-635" text-anchor="middle" font-size="13" fill="#333" font-family="-apple-system,BlinkMacSystemFont,sans-serif">采购订单</text><path d="M260,-620 C310,-620 310,-600 360,-600" fill="none" stroke="#A287E1" stroke-width="2"/><rect x="360" y="-615" width="80" height="30" rx="6" fill="#fafafa" stroke="none"/><text x="400" y="-595" text-anchor="middle" font-size="13" fill="#333" font-family="-apple-system,BlinkMacSystemFont,sans-serif">采购退货</text><path d="M260,-620 C310,-620 310,-560 360,-560" fill="none" stroke="#A287E1" stroke-width="2"/><rect x="360" y="-575" width="91" height="30" rx="6" fill="#fafafa" stroke="none"/><text x="405.5" y="-555" text-anchor="middle" font-size="13" fill="#333" font-family="-apple-system,BlinkMacSystemFont,sans-serif">供应商管理</text><path d="M260,-620 C310,-620 310,-520 360,-520" fill="none" stroke="#A287E1" stroke-width="2"/><rect x="360" y="-535" width="104" height="30" rx="6" fill="#fafafa" stroke="none"/><text x="412" y="-515" text-anchor="middle" font-size="13" fill="#333" font-family="-apple-system,BlinkMacSystemFont,sans-serif">供货关系管理</text><path d="M104.47999999999999,0 C194.48000000000002,0 194.48000000000002,-380 284.48,-380" fill="none" stroke="#DFB85D" stroke-width="2"/><rect x="180" y="-395" width="80" height="30" rx="6" fill="#fafafa" stroke="none"/><text x="220" y="-375" text-anchor="middle" font-size="13" fill="#333" font-family="-apple-system,BlinkMacSystemFont,sans-serif">订单管理</text><path d="M260,-380 C310,-380 310,-480 360,-480" fill="none" stroke="#DFB85D" stroke-width="2"/><rect x="360" y="-495" width="80" height="30" rx="6" fill="#fafafa" stroke="none"/><text x="400" y="-475" text-anchor="middle" font-size="13" fill="#333" font-family="-apple-system,BlinkMacSystemFont,sans-serif">订单同步</text><path d="M260,-380 C310,-380 310,-440 360,-440" fill="none" stroke="#DFB85D" stroke-width="2"/><rect x="360" y="-455" width="80" height="30" rx="6" fill="#fafafa" stroke="none"/><text x="400" y="-435" text-anchor="middle" font-size="13" fill="#333" font-family="-apple-system,BlinkMacSystemFont,sans-serif">订单标发</text><path d="M260,-380 C310,-380 310,-400 360,-400" fill="none" stroke="#DFB85D" stroke-width="2"/><rect x="360" y="-415" width="80" height="30" rx="6" fill="#fafafa" stroke="none"/><text x="400" y="-395" text-anchor="middle" font-size="13" fill="#333" font-family="-apple-system,BlinkMacSystemFont,sans-serif">订单管理</text><path d="M260,-380 C310,-380 310,-360 360,-360" fill="none" stroke="#DFB85D" stroke-width="2"/><rect x="360" y="-375" width="80" height="30" rx="6" fill="#fafafa" stroke="none"/><text x="400" y="-355" text-anchor="middle" font-size="13" fill="#333" font-family="-apple-system,BlinkMacSystemFont,sans-serif">订单规则</text><path d="M260,-380 C310,-380 310,-320 360,-320" fill="none" stroke="#DFB85D" stroke-width="2"/><rect x="360" y="-335" width="104" height="30" rx="6" fill="#fafafa" stroke="none"/><text x="412" y="-315" text-anchor="middle" font-size="13" fill="#333" font-family="-apple-system,BlinkMacSystemFont,sans-serif">订单异常处理</text><path d="M260,-380 C310,-380 310,-280 360,-280" fill="none" stroke="#DFB85D" stroke-width="2"/><rect x="360" y="-295" width="80" height="30" rx="6" fill="#fafafa" stroke="none"/><text x="400" y="-275" text-anchor="middle" font-size="13" fill="#333" font-family="-apple-system,BlinkMacSystemFont,sans-serif">轨迹追踪</text><path d="M104.47999999999999,0 C194.48000000000002,0 194.48000000000002,-140 284.48,-140" fill="none" stroke="#77C386" stroke-width="2"/><rect x="180" y="-155" width="80" height="30" rx="6" fill="#fafafa" stroke="none"/><text x="220" y="-135" text-anchor="middle" font-size="13" fill="#333" font-family="-apple-system,BlinkMacSystemFont,sans-serif">物流管理</text><path d="M260,-140 C310,-140 310,-240 360,-240" fill="none" stroke="#77C386" stroke-width="2"/><rect x="360" y="-255" width="91" height="30" rx="6" fill="#fafafa" stroke="none"/><text x="405.5" y="-235" text-anchor="middle" font-size="13" fill="#333" font-family="-apple-system,BlinkMacSystemFont,sans-serif">物流商授权</text><path d="M260,-140 C310,-140 310,-200 360,-200" fill="none" stroke="#77C386" stroke-width="2"/><rect x="360" y="-215" width="104" height="30" rx="6" fill="#fafafa" stroke="none"/><text x="412" y="-195" text-anchor="middle" font-size="13" fill="#333" font-family="-apple-system,BlinkMacSystemFont,sans-serif">物流渠道管理</text><path d="M260,-140 C310,-140 310,-160 360,-160" fill="none" stroke="#77C386" stroke-width="2"/><rect x="360" y="-175" width="104" height="30" rx="6" fill="#fafafa" stroke="none"/><text x="412" y="-155" text-anchor="middle" font-size="13" fill="#333" font-family="-apple-system,BlinkMacSystemFont,sans-serif">物流规则管理</text><path d="M260,-140 C310,-140 310,-120 360,-120" fill="none" stroke="#77C386" stroke-width="2"/><rect x="360" y="-135" width="80" height="30" rx="6" fill="#fafafa" stroke="none"/><text x="400" y="-115" text-anchor="middle" font-size="13" fill="#333" font-family="-apple-system,BlinkMacSystemFont,sans-serif">地址管理</text><path d="M260,-140 C310,-140 310,-80 360,-80" fill="none" stroke="#77C386" stroke-width="2"/><rect x="360" y="-95" width="80" height="30" rx="6" fill="#fafafa" stroke="none"/><text x="400" y="-75" text-anchor="middle" font-size="13" fill="#333" font-family="-apple-system,BlinkMacSystemFont,sans-serif">运费模板</text><path d="M260,-140 C310,-140 310,-40 360,-40" fill="none" stroke="#77C386" stroke-width="2"/><rect x="360" y="-55" width="104" height="30" rx="6" fill="#fafafa" stroke="none"/><text x="412" y="-35" text-anchor="middle" font-size="13" fill="#333" font-family="-apple-system,BlinkMacSystemFont,sans-serif">物流标签配置</text><path d="M104.47999999999999,0 C194.48000000000002,0 194.48000000000002,220 284.48,220" fill="none" stroke="#E48484" stroke-width="2"/><rect x="180" y="205" width="80" height="30" rx="6" fill="#fafafa" stroke="none"/><text x="220" y="225" text-anchor="middle" font-size="13" fill="#333" font-family="-apple-system,BlinkMacSystemFont,sans-serif">仓储管理</text><path d="M260,220 C310,220 310,0 360,0" fill="none" stroke="#E48484" stroke-width="2"/><rect x="360" y="-15" width="104" height="30" rx="6" fill="#fafafa" stroke="none"/><text x="412" y="5" text-anchor="middle" font-size="13" fill="#333" font-family="-apple-system,BlinkMacSystemFont,sans-serif">本地商品管理</text><path d="M260,220 C310,220 310,40 360,40" fill="none" stroke="#E48484" stroke-width="2"/><rect x="360" y="25" width="80" height="30" rx="6" fill="#fafafa" stroke="none"/><text x="400" y="45" text-anchor="middle" font-size="13" fill="#333" font-family="-apple-system,BlinkMacSystemFont,sans-serif">商品配对</text><path d="M260,220 C310,220 310,180 360,180" fill="none" stroke="#E48484" stroke-width="2"/><rect x="360" y="165" width="104" height="30" rx="6" fill="#fafafa" stroke="none"/><text x="412" y="185" text-anchor="middle" font-size="13" fill="#333" font-family="-apple-system,BlinkMacSystemFont,sans-serif">自营仓库管理</text><path d="M464,180 C502,180 502,80 540,80" fill="none" stroke="#E48484" stroke-width="2"/><rect x="540" y="65" width="80" height="30" rx="6" fill="#fafafa" stroke="none"/><text x="580" y="85" text-anchor="middle" font-size="13" fill="#333" font-family="-apple-system,BlinkMacSystemFont,sans-serif">入库</text><path d="M464,180 C502,180 502,120 540,120" fill="none" stroke="#E48484" stroke-width="2"/><rect x="540" y="105" width="80" height="30" rx="6" fill="#fafafa" stroke="none"/><text x="580" y="125" text-anchor="middle" font-size="13" fill="#333" font-family="-apple-system,BlinkMacSystemFont,sans-serif">出库</text><path d="M464,180 C502,180 502,160 540,160" fill="none" stroke="#E48484" stroke-width="2"/><rect x="540" y="145" width="80" height="30" rx="6" fill="#fafafa" stroke="none"/><text x="580" y="165" text-anchor="middle" font-size="13" fill="#333" font-family="-apple-system,BlinkMacSystemFont,sans-serif">盘点</text><path d="M464,180 C502,180 502,200 540,200" fill="none" stroke="#E48484" stroke-width="2"/><rect x="540" y="185" width="80" height="30" rx="6" fill="#fafafa" stroke="none"/><text x="580" y="205" text-anchor="middle" font-size="13" fill="#333" font-family="-apple-system,BlinkMacSystemFont,sans-serif">调拨</text><path d="M464,180 C502,180 502,240 540,240" fill="none" stroke="#E48484" stroke-width="2"/><rect x="540" y="225" width="80" height="30" rx="6" fill="#fafafa" stroke="none"/><text x="580" y="245" text-anchor="middle" font-size="13" fill="#333" font-family="-apple-system,BlinkMacSystemFont,sans-serif">库区库位</text><path d="M464,180 C502,180 502,280 540,280" fill="none" stroke="#E48484" stroke-width="2"/><rect x="540" y="265" width="80" height="30" rx="6" fill="#fafafa" stroke="none"/><text x="580" y="285" text-anchor="middle" font-size="13" fill="#333" font-family="-apple-system,BlinkMacSystemFont,sans-serif">库存查询</text><path d="M260,220 C310,220 310,340 360,340" fill="none" stroke="#E48484" stroke-width="2"/><rect x="360" y="325" width="104" height="30" rx="6" fill="#fafafa" stroke="none"/><text x="412" y="345" text-anchor="middle" font-size="13" fill="#333" font-family="-apple-system,BlinkMacSystemFont,sans-serif">平台仓库管理</text><path d="M464,340 C502,340 502,320 540,320" fill="none" stroke="#E48484" stroke-width="2"/><rect x="540" y="305" width="80" height="30" rx="6" fill="#fafafa" stroke="none"/><text x="580" y="325" text-anchor="middle" font-size="13" fill="#333" font-family="-apple-system,BlinkMacSystemFont,sans-serif">库存查询</text><path d="M464,340 C502,340 502,360 540,360" fill="none" stroke="#E48484" stroke-width="2"/><rect x="540" y="345" width="80" height="30" rx="6" fill="#fafafa" stroke="none"/><text x="580" y="365" text-anchor="middle" font-size="13" fill="#333" font-family="-apple-system,BlinkMacSystemFont,sans-serif">业务配置</text><path d="M260,220 C310,220 310,420 360,420" fill="none" stroke="#E48484" stroke-width="2"/><rect x="360" y="405" width="91" height="30" rx="6" fill="#fafafa" stroke="none"/><text x="405.5" y="425" text-anchor="middle" font-size="13" fill="#333" font-family="-apple-system,BlinkMacSystemFont,sans-serif">海外仓管理</text><path d="M451,420 C495.5,420 495.5,400 540,400" fill="none" stroke="#E48484" stroke-width="2"/><rect x="540" y="385" width="80" height="30" rx="6" fill="#fafafa" stroke="none"/><text x="580" y="405" text-anchor="middle" font-size="13" fill="#333" font-family="-apple-system,BlinkMacSystemFont,sans-serif">库存查询</text><path d="M451,420 C495.5,420 495.5,440 540,440" fill="none" stroke="#E48484" stroke-width="2"/><rect x="540" y="425" width="80" height="30" rx="6" fill="#fafafa" stroke="none"/><text x="580" y="445" text-anchor="middle" font-size="13" fill="#333" font-family="-apple-system,BlinkMacSystemFont,sans-serif">业务配置</text><path d="M104.47999999999999,0 C194.48000000000002,0 194.48000000000002,560 284.48,560" fill="none" stroke="#E482D4" stroke-width="2"/><rect x="180" y="545" width="80" height="30" rx="6" fill="#fafafa" stroke="none"/><text x="220" y="565" text-anchor="middle" font-size="13" fill="#333" font-family="-apple-system,BlinkMacSystemFont,sans-serif">财务管理</text><path d="M260,560 C310,560 310,480 360,480" fill="none" stroke="#E482D4" stroke-width="2"/><rect x="360" y="465" width="80" height="30" rx="6" fill="#fafafa" stroke="none"/><text x="400" y="485" text-anchor="middle" font-size="13" fill="#333" font-family="-apple-system,BlinkMacSystemFont,sans-serif">账户管理</text><path d="M260,560 C310,560 310,520 360,520" fill="none" stroke="#E482D4" stroke-width="2"/><rect x="360" y="505" width="104" height="30" rx="6" fill="#fafafa" stroke="none"/><text x="412" y="525" text-anchor="middle" font-size="13" fill="#333" font-family="-apple-system,BlinkMacSystemFont,sans-serif">交易明细查询</text><path d="M260,560 C310,560 310,560 360,560" fill="none" stroke="#E482D4" stroke-width="2"/><rect x="360" y="545" width="84.75999999999999" height="30" rx="6" fill="#fafafa" stroke="none"/><text x="402.38" y="565" text-anchor="middle" font-size="13" fill="#333" font-family="-apple-system,BlinkMacSystemFont,sans-serif">收/付款单</text><path d="M260,560 C310,560 310,600 360,600" fill="none" stroke="#E482D4" stroke-width="2"/><rect x="360" y="585" width="80" height="30" rx="6" fill="#fafafa" stroke="none"/><text x="400" y="605" text-anchor="middle" font-size="13" fill="#333" font-family="-apple-system,BlinkMacSystemFont,sans-serif">利润报表</text><path d="M260,560 C310,560 310,640 360,640" fill="none" stroke="#E482D4" stroke-width="2"/><rect x="360" y="625" width="117" height="30" rx="6" fill="#fafafa" stroke="none"/><text x="418.5" y="645" text-anchor="middle" font-size="13" fill="#333" font-family="-apple-system,BlinkMacSystemFont,sans-serif">各平台结算报表</text><path d="M104.47999999999999,0 C194.48000000000002,0 194.48000000000002,780 284.48,780" fill="none" stroke="#69B1E4" stroke-width="2"/><rect x="180" y="765" width="80" height="30" rx="6" fill="#fafafa" stroke="none"/><text x="220" y="785" text-anchor="middle" font-size="13" fill="#333" font-family="-apple-system,BlinkMacSystemFont,sans-serif">报表管理</text><path d="M260,780 C310,780 310,680 360,680" fill="none" stroke="#69B1E4" stroke-width="2"/><rect x="360" y="665" width="104" height="30" rx="6" fill="#fafafa" stroke="none"/><text x="412" y="685" text-anchor="middle" font-size="13" fill="#333" font-family="-apple-system,BlinkMacSystemFont,sans-serif">店铺运营分析</text><path d="M260,780 C310,780 310,720 360,720" fill="none" stroke="#69B1E4" stroke-width="2"/><rect x="360" y="705" width="80" height="30" rx="6" fill="#fafafa" stroke="none"/><text x="400" y="725" text-anchor="middle" font-size="13" fill="#333" font-family="-apple-system,BlinkMacSystemFont,sans-serif">销量报表</text><path d="M260,780 C310,780 310,760 360,760" fill="none" stroke="#69B1E4" stroke-width="2"/><rect x="360" y="745" width="80" height="30" rx="6" fill="#fafafa" stroke="none"/><text x="400" y="765" text-anchor="middle" font-size="13" fill="#333" font-family="-apple-system,BlinkMacSystemFont,sans-serif">商品报表</text><path d="M260,780 C310,780 310,800 360,800" fill="none" stroke="#69B1E4" stroke-width="2"/><rect x="360" y="785" width="80" height="30" rx="6" fill="#fafafa" stroke="none"/><text x="400" y="805" text-anchor="middle" font-size="13" fill="#333" font-family="-apple-system,BlinkMacSystemFont,sans-serif">库存报表</text><path d="M260,780 C310,780 310,840 360,840" fill="none" stroke="#69B1E4" stroke-width="2"/><rect x="360" y="825" width="80" height="30" rx="6" fill="#fafafa" stroke="none"/><text x="400" y="845" text-anchor="middle" font-size="13" fill="#333" font-family="-apple-system,BlinkMacSystemFont,sans-serif">采购报表</text><path d="M260,780 C310,780 310,880 360,880" fill="none" stroke="#69B1E4" stroke-width="2"/><rect x="360" y="865" width="80" height="30" rx="6" fill="#fafafa" stroke="none"/><text x="400" y="885" text-anchor="middle" font-size="13" fill="#333" font-family="-apple-system,BlinkMacSystemFont,sans-serif">……</text>
</svg>