<svg xmlns="http://www.w3.org/2000/svg" xmlns:xlink="http://www.w3.org/1999/xlink"
  viewBox="-192 -1139 3415.09 2278" width="3415.09" height="2278"
  style="background:#fff; font-family:-apple-system,BlinkMacSystemFont,'Segoe UI',Roboto,sans-serif;">
<defs></defs>
<rect x="-192" y="-1139" width="3415.09" height="2278" fill="#fff"/>
<rect x="-108" y="-18" width="216" height="36" rx="8" fill="#EFF0F0" stroke="none"/><text x="0" y="6" text-anchor="middle" font-size="16" font-weight="bold" fill="#333" font-family="-apple-system,BlinkMacSystemFont,sans-serif">基础资料的一些细节讲解</text><path d="M108,0 C198,0 198,-460 288,-460" fill="none" stroke="#A287E1" stroke-width="2"/><rect x="180" y="-475" width="118.56" height="30" rx="6" fill="#fafafa" stroke="none"/><text x="239.28" y="-455" text-anchor="middle" font-size="13" fill="#333" font-family="-apple-system,BlinkMacSystemFont,sans-serif">SPU和SKU的关系</text><path d="M298.56,-460 C329.28,-460 329.28,-980 360,-980" fill="none" stroke="#A287E1" stroke-width="2"/><rect x="360" y="-995" width="98.28" height="30" rx="6" fill="#fafafa" stroke="none"/><text x="409.14" y="-975" text-anchor="middle" font-size="13" fill="#333" font-family="-apple-system,BlinkMacSystemFont,sans-serif">什么是SKU？</text><path d="M458.28,-980 C499.14,-980 499.14,-1040 540,-1040" fill="none" stroke="#A287E1" stroke-width="2"/><rect x="540" y="-1055" width="542.0999999999999" height="30" rx="6" fill="#fafafa" stroke="none"/><text x="811.05" y="-1035" text-anchor="middle" font-size="13" fill="#333" font-family="-apple-system,BlinkMacSystemFont,sans-serif">SKU是英文“Stock Keeping Uint”的缩写，翻译过来就是“库存量单位”或者“最小存货单位”</text><path d="M458.28,-980 C499.14,-980 499.14,-960 540,-960" fill="none" stroke="#A287E1" stroke-width="2"/><rect x="540" y="-975" width="514.28" height="30" rx="6" fill="#fafafa" stroke="none"/><text x="797.14" y="-955" text-anchor="middle" font-size="13" fill="#333" font-family="-apple-system,BlinkMacSystemFont,sans-serif">SKU是库存量单位，也就是在实物数量管理的场景下，用来区分不同商品的一个依据。</text><path d="M1054.28,-960 C887.14,-960 887.14,-1000 720,-1000" fill="none" stroke="#A287E1" stroke-width="2"/><rect x="720" y="-1015" width="124.8" height="30" rx="6" fill="#fafafa" stroke="none"/><text x="782.4" y="-995" text-anchor="middle" font-size="13" fill="#333" font-family="-apple-system,BlinkMacSystemFont,sans-serif">330ml的罐装可乐</text><path d="M844.8,-1000 C872.4,-1000 872.4,-1000 900,-1000" fill="none" stroke="#A287E1" stroke-width="2"/><rect x="900" y="-1015" width="99.32000000000001" height="30" rx="6" fill="#fafafa" stroke="none"/><text x="949.66" y="-995" text-anchor="middle" font-size="13" fill="#333" font-family="-apple-system,BlinkMacSystemFont,sans-serif">SKU为：C001</text><path d="M1054.28,-960 C887.14,-960 887.14,-960 720,-960" fill="none" stroke="#A287E1" stroke-width="2"/><rect x="720" y="-975" width="124.8" height="30" rx="6" fill="#fafafa" stroke="none"/><text x="782.4" y="-955" text-anchor="middle" font-size="13" fill="#333" font-family="-apple-system,BlinkMacSystemFont,sans-serif">500ml的瓶装可乐</text><path d="M844.8,-960 C872.4,-960 872.4,-960 900,-960" fill="none" stroke="#A287E1" stroke-width="2"/><rect x="900" y="-975" width="99.32000000000001" height="30" rx="6" fill="#EFF0F0" stroke="none"/><text x="949.66" y="-955" text-anchor="middle" font-size="13" fill="#333" font-family="-apple-system,BlinkMacSystemFont,sans-serif">SKU为：C002</text><path d="M1054.28,-960 C887.14,-960 887.14,-920 720,-920" fill="none" stroke="#A287E1" stroke-width="2"/><rect x="720" y="-935" width="189.8" height="30" rx="6" fill="#fafafa" stroke="none"/><text x="814.9" y="-915" text-anchor="middle" font-size="13" fill="#333" font-family="-apple-system,BlinkMacSystemFont,sans-serif">500ml的瓶装可乐（无糖版）</text><path d="M909.8,-920 C904.9,-920 904.9,-920 900,-920" fill="none" stroke="#A287E1" stroke-width="2"/><rect x="900" y="-935" width="99.32000000000001" height="30" rx="6" fill="#EFF0F0" stroke="none"/><text x="949.66" y="-915" text-anchor="middle" font-size="13" fill="#333" font-family="-apple-system,BlinkMacSystemFont,sans-serif">SKU为：C003</text><path d="M298.56,-460 C329.28,-460 329.28,-780 360,-780" fill="none" stroke="#A287E1" stroke-width="2"/><rect x="360" y="-795" width="98.28" height="30" rx="6" fill="#fafafa" stroke="none"/><text x="409.14" y="-775" text-anchor="middle" font-size="13" fill="#333" font-family="-apple-system,BlinkMacSystemFont,sans-serif">什么是SPU？</text><path d="M458.28,-780 C499.14,-780 499.14,-880 540,-880" fill="none" stroke="#A287E1" stroke-width="2"/><rect x="540" y="-895" width="1094.86" height="30" rx="6" fill="#fafafa" stroke="none"/><text x="1087.4299999999998" y="-875" text-anchor="middle" font-size="13" fill="#333" font-family="-apple-system,BlinkMacSystemFont,sans-serif">SPU是英文“Standard Product Unit”的缩写，翻译过来则为“标准化产品单元”。是商品信息聚合的最小单位，是一组可复用、易检索的标准化信息的集合，该集合描述了一个产品的特性。</text><path d="M458.28,-780 C499.14,-780 499.14,-840 540,-840" fill="none" stroke="#A287E1" stroke-width="2"/><rect x="540" y="-855" width="358.28" height="30" rx="6" fill="#fafafa" stroke="none"/><text x="719.14" y="-835" text-anchor="middle" font-size="13" fill="#333" font-family="-apple-system,BlinkMacSystemFont,sans-serif">通俗点讲，属性值、特性相同的商品就可以称为一个SPU。</text><path d="M458.28,-780 C499.14,-780 499.14,-740 540,-740" fill="none" stroke="#A287E1" stroke-width="2"/><rect x="540" y="-755" width="313.42999999999995" height="30" rx="6" fill="#fafafa" stroke="none"/><text x="696.7149999999999" y="-735" text-anchor="middle" font-size="13" fill="#333" font-family="-apple-system,BlinkMacSystemFont,sans-serif">例如在电商平台搜索“iPhone 15”，它就是一个SPU</text><path d="M853.43,-740 C786.7149999999999,-740 786.7149999999999,-800 720,-800" fill="none" stroke="#A287E1" stroke-width="2"/><rect x="720" y="-815" width="190.32" height="30" rx="6" fill="#fafafa" stroke="none"/><text x="815.16" y="-795" text-anchor="middle" font-size="13" fill="#333" font-family="-apple-system,BlinkMacSystemFont,sans-serif">iPhone 15 128G 粉色 公开版</text><path d="M853.43,-740 C786.7149999999999,-740 786.7149999999999,-760 720,-760" fill="none" stroke="#A287E1" stroke-width="2"/><rect x="720" y="-775" width="190.32" height="30" rx="6" fill="#fafafa" stroke="none"/><text x="815.16" y="-755" text-anchor="middle" font-size="13" fill="#333" font-family="-apple-system,BlinkMacSystemFont,sans-serif">iPhone 15 128G 黄色 公开版</text><path d="M853.43,-740 C786.7149999999999,-740 786.7149999999999,-720 720,-720" fill="none" stroke="#A287E1" stroke-width="2"/><rect x="720" y="-735" width="203.83999999999997" height="30" rx="6" fill="#fafafa" stroke="none"/><text x="821.92" y="-715" text-anchor="middle" font-size="13" fill="#333" font-family="-apple-system,BlinkMacSystemFont,sans-serif">iPhone 15 256G 粉色 A+会员版</text><path d="M853.43,-740 C786.7149999999999,-740 786.7149999999999,-680 720,-680" fill="none" stroke="#A287E1" stroke-width="2"/><rect x="720" y="-695" width="80" height="30" rx="6" fill="#fafafa" stroke="none"/><text x="760" y="-675" text-anchor="middle" font-size="13" fill="#333" font-family="-apple-system,BlinkMacSystemFont,sans-serif"></text><path d="M298.56,-460 C329.28,-460 329.28,-620 360,-620" fill="none" stroke="#A287E1" stroke-width="2"/><rect x="360" y="-635" width="170.56" height="30" rx="6" fill="#fafafa" stroke="none"/><text x="445.28" y="-615" text-anchor="middle" font-size="13" fill="#333" font-family="-apple-system,BlinkMacSystemFont,sans-serif">SPU和SKU的关系是什么？</text><path d="M530.56,-620 C535.28,-620 535.28,-640 540,-640" fill="none" stroke="#A287E1" stroke-width="2"/><rect x="540" y="-655" width="769.5999999999999" height="30" rx="6" fill="#fafafa" stroke="none"/><text x="924.8" y="-635" text-anchor="middle" font-size="13" fill="#333" font-family="-apple-system,BlinkMacSystemFont,sans-serif">SPU是标准化产品单元的集合，可以理解为一个“组合”的代号，而“组合”内部有多个子项，这些子项就是具体的不同的商品，即SKU</text><path d="M530.56,-620 C535.28,-620 535.28,-600 540,-600" fill="none" stroke="#A287E1" stroke-width="2"/><rect x="540" y="-615" width="235.56" height="30" rx="6" fill="#fafafa" stroke="none"/><text x="657.78" y="-595" text-anchor="middle" font-size="13" fill="#333" font-family="-apple-system,BlinkMacSystemFont,sans-serif">SPU包含多个SKU，属于一对多的关系</text><path d="M298.56,-460 C329.28,-460 329.28,-220 360,-220" fill="none" stroke="#A287E1" stroke-width="2"/><rect x="360" y="-235" width="209.56" height="30" rx="6" fill="#fafafa" stroke="none"/><text x="464.78" y="-215" text-anchor="middle" font-size="13" fill="#333" font-family="-apple-system,BlinkMacSystemFont,sans-serif">SPU和SKU的操作演示（七色米）</text><path d="M569.56,-220 C554.78,-220 554.78,-340 540,-340" fill="none" stroke="#A287E1" stroke-width="2"/><rect x="540" y="-355" width="169" height="30" rx="6" fill="#fafafa" stroke="none"/><text x="624.5" y="-335" text-anchor="middle" font-size="13" fill="#333" font-family="-apple-system,BlinkMacSystemFont,sans-serif">属性和属性值（用的多）</text><path d="M709,-340 C714.5,-340 714.5,-500 720,-500" fill="none" stroke="#A287E1" stroke-width="2"/><rect x="720" y="-515" width="104" height="30" rx="6" fill="#fafafa" stroke="none"/><text x="772" y="-495" text-anchor="middle" font-size="13" fill="#333" font-family="-apple-system,BlinkMacSystemFont,sans-serif">颜色，是属性</text><path d="M824,-500 C862,-500 862,-560 900,-560" fill="none" stroke="#A287E1" stroke-width="2"/><rect x="900" y="-575" width="80" height="30" rx="6" fill="#fafafa" stroke="none"/><text x="940" y="-555" text-anchor="middle" font-size="13" fill="#333" font-family="-apple-system,BlinkMacSystemFont,sans-serif">红色</text><path d="M824,-500 C862,-500 862,-520 900,-520" fill="none" stroke="#A287E1" stroke-width="2"/><rect x="900" y="-535" width="80" height="30" rx="6" fill="#fafafa" stroke="none"/><text x="940" y="-515" text-anchor="middle" font-size="13" fill="#333" font-family="-apple-system,BlinkMacSystemFont,sans-serif">蓝色</text><path d="M824,-500 C862,-500 862,-480 900,-480" fill="none" stroke="#A287E1" stroke-width="2"/><rect x="900" y="-495" width="80" height="30" rx="6" fill="#fafafa" stroke="none"/><text x="940" y="-475" text-anchor="middle" font-size="13" fill="#333" font-family="-apple-system,BlinkMacSystemFont,sans-serif">绿色</text><path d="M824,-500 C862,-500 862,-440 900,-440" fill="none" stroke="#A287E1" stroke-width="2"/><rect x="900" y="-455" width="80" height="30" rx="6" fill="transparent" stroke="#BFBFBF"/><text x="940" y="-435" text-anchor="middle" font-size="13" fill="#333" font-family="-apple-system,BlinkMacSystemFont,sans-serif">属性值</text><path d="M709,-340 C714.5,-340 714.5,-340 720,-340" fill="none" stroke="#A287E1" stroke-width="2"/><rect x="720" y="-355" width="104" height="30" rx="6" fill="#fafafa" stroke="none"/><text x="772" y="-335" text-anchor="middle" font-size="13" fill="#333" font-family="-apple-system,BlinkMacSystemFont,sans-serif">版本，是属性</text><path d="M824,-340 C862,-340 862,-400 900,-400" fill="none" stroke="#A287E1" stroke-width="2"/><rect x="900" y="-415" width="80" height="30" rx="6" fill="#fafafa" stroke="none"/><text x="940" y="-395" text-anchor="middle" font-size="13" fill="#333" font-family="-apple-system,BlinkMacSystemFont,sans-serif">国行</text><path d="M824,-340 C862,-340 862,-360 900,-360" fill="none" stroke="#A287E1" stroke-width="2"/><rect x="900" y="-375" width="80" height="30" rx="6" fill="#fafafa" stroke="none"/><text x="940" y="-355" text-anchor="middle" font-size="13" fill="#333" font-family="-apple-system,BlinkMacSystemFont,sans-serif">港版</text><path d="M824,-340 C862,-340 862,-320 900,-320" fill="none" stroke="#A287E1" stroke-width="2"/><rect x="900" y="-335" width="80" height="30" rx="6" fill="#fafafa" stroke="none"/><text x="940" y="-315" text-anchor="middle" font-size="13" fill="#333" font-family="-apple-system,BlinkMacSystemFont,sans-serif">美版</text><path d="M824,-340 C862,-340 862,-280 900,-280" fill="none" stroke="#A287E1" stroke-width="2"/><rect x="900" y="-295" width="80" height="30" rx="6" fill="transparent" stroke="#BFBFBF"/><text x="940" y="-275" text-anchor="middle" font-size="13" fill="#333" font-family="-apple-system,BlinkMacSystemFont,sans-serif">属性值</text><path d="M709,-340 C714.5,-340 714.5,-180 720,-180" fill="none" stroke="#A287E1" stroke-width="2"/><rect x="720" y="-195" width="104" height="30" rx="6" fill="#fafafa" stroke="none"/><text x="772" y="-175" text-anchor="middle" font-size="13" fill="#333" font-family="-apple-system,BlinkMacSystemFont,sans-serif">内存，是属性</text><path d="M824,-180 C862,-180 862,-240 900,-240" fill="none" stroke="#A287E1" stroke-width="2"/><rect x="900" y="-255" width="80" height="30" rx="6" fill="#fafafa" stroke="none"/><text x="940" y="-235" text-anchor="middle" font-size="13" fill="#333" font-family="-apple-system,BlinkMacSystemFont,sans-serif">128G</text><path d="M824,-180 C862,-180 862,-200 900,-200" fill="none" stroke="#A287E1" stroke-width="2"/><rect x="900" y="-215" width="80" height="30" rx="6" fill="#fafafa" stroke="none"/><text x="940" y="-195" text-anchor="middle" font-size="13" fill="#333" font-family="-apple-system,BlinkMacSystemFont,sans-serif">256G</text><path d="M824,-180 C862,-180 862,-160 900,-160" fill="none" stroke="#A287E1" stroke-width="2"/><rect x="900" y="-175" width="80" height="30" rx="6" fill="#fafafa" stroke="none"/><text x="940" y="-155" text-anchor="middle" font-size="13" fill="#333" font-family="-apple-system,BlinkMacSystemFont,sans-serif">512G</text><path d="M824,-180 C862,-180 862,-120 900,-120" fill="none" stroke="#A287E1" stroke-width="2"/><rect x="900" y="-135" width="80" height="30" rx="6" fill="transparent" stroke="#BFBFBF"/><text x="940" y="-115" text-anchor="middle" font-size="13" fill="#333" font-family="-apple-system,BlinkMacSystemFont,sans-serif">属性值</text><path d="M569.56,-220 C554.78,-220 554.78,-20 540,-20" fill="none" stroke="#A287E1" stroke-width="2"/><rect x="540" y="-35" width="169" height="30" rx="6" fill="#fafafa" stroke="none"/><text x="624.5" y="-15" text-anchor="middle" font-size="13" fill="#333" font-family="-apple-system,BlinkMacSystemFont,sans-serif">规格和规格值（用得少）</text><path d="M709,-20 C714.5,-20 714.5,-20 720,-20" fill="none" stroke="#A287E1" stroke-width="2"/><rect x="720" y="-35" width="80" height="30" rx="6" fill="#fafafa" stroke="none"/><text x="760" y="-15" text-anchor="middle" font-size="13" fill="#333" font-family="-apple-system,BlinkMacSystemFont,sans-serif">尺寸</text><path d="M800,-20 C850,-20 850,-80 900,-80" fill="none" stroke="#A287E1" stroke-width="2"/><rect x="900" y="-95" width="80" height="30" rx="6" fill="#fafafa" stroke="none"/><text x="940" y="-75" text-anchor="middle" font-size="13" fill="#333" font-family="-apple-system,BlinkMacSystemFont,sans-serif">小码</text><path d="M800,-20 C850,-20 850,-40 900,-40" fill="none" stroke="#A287E1" stroke-width="2"/><rect x="900" y="-55" width="80" height="30" rx="6" fill="#fafafa" stroke="none"/><text x="940" y="-35" text-anchor="middle" font-size="13" fill="#333" font-family="-apple-system,BlinkMacSystemFont,sans-serif">中码</text><path d="M800,-20 C850,-20 850,0 900,0" fill="none" stroke="#A287E1" stroke-width="2"/><rect x="900" y="-15" width="80" height="30" rx="6" fill="#fafafa" stroke="none"/><text x="940" y="5" text-anchor="middle" font-size="13" fill="#333" font-family="-apple-system,BlinkMacSystemFont,sans-serif">大码</text><path d="M800,-20 C850,-20 850,40 900,40" fill="none" stroke="#A287E1" stroke-width="2"/><rect x="900" y="25" width="80" height="30" rx="6" fill="transparent" stroke="#BFBFBF"/><text x="940" y="45" text-anchor="middle" font-size="13" fill="#333" font-family="-apple-system,BlinkMacSystemFont,sans-serif">规格值</text><path d="M569.56,-220 C554.78,-220 554.78,80 540,80" fill="none" stroke="#A287E1" stroke-width="2"/><rect x="540" y="65" width="104" height="30" rx="6" fill="#fafafa" stroke="none"/><text x="592" y="85" text-anchor="middle" font-size="13" fill="#333" font-family="-apple-system,BlinkMacSystemFont,sans-serif">请看演示内容</text><path d="M569.56,-220 C554.78,-220 554.78,120 540,120" fill="none" stroke="#A287E1" stroke-width="2"/><rect x="540" y="105" width="80" height="30" rx="6" fill="#fafafa" stroke="none"/><text x="580" y="125" text-anchor="middle" font-size="13" fill="#333" font-family="-apple-system,BlinkMacSystemFont,sans-serif">AI工具</text><path d="M620,120 C670,120 670,120 720,120" fill="none" stroke="#A287E1" stroke-width="2"/><rect x="720" y="105" width="194.99999999999997" height="30" rx="6" fill="#fafafa" stroke="none"/><text x="817.5" y="125" text-anchor="middle" font-size="13" fill="#333" font-family="-apple-system,BlinkMacSystemFont,sans-serif">https://kimi.moonshot.cn/</text><path d="M108,0 C198,0 198,340 288,340" fill="none" stroke="#6F81DB" stroke-width="2"/><rect x="180" y="325" width="182" height="30" rx="6" fill="#fafafa" stroke="none"/><text x="271" y="345" text-anchor="middle" font-size="13" fill="#333" font-family="-apple-system,BlinkMacSystemFont,sans-serif">商品编码和商品条码的关系</text><path d="M362,340 C361,340 361,200 360,200" fill="none" stroke="#6F81DB" stroke-width="2"/><rect x="360" y="185" width="130" height="30" rx="6" fill="#fafafa" stroke="none"/><text x="425" y="205" text-anchor="middle" font-size="13" fill="#333" font-family="-apple-system,BlinkMacSystemFont,sans-serif">什么是商品编码？</text><path d="M490,200 C515,200 515,200 540,200" fill="none" stroke="#6F81DB" stroke-width="2"/><rect x="540" y="185" width="735.8" height="30" rx="6" fill="#fafafa" stroke="none"/><text x="907.9" y="205" text-anchor="middle" font-size="13" fill="#333" font-family="-apple-system,BlinkMacSystemFont,sans-serif">“商品编码”是对商品更简短的表达，不同的编码也代表着要管理的商品库存的最小粒度，即一个商品编码就等同于一个SKU。</text><path d="M1275.8,200 C997.9,200 997.9,160 720,160" fill="none" stroke="#6F81DB" stroke-width="2"/><rect x="720" y="145" width="124.8" height="30" rx="6" fill="#EFF0F0" stroke="none"/><text x="782.4" y="165" text-anchor="middle" font-size="13" fill="#333" font-family="-apple-system,BlinkMacSystemFont,sans-serif">330ml的罐装可乐</text><path d="M844.8,160 C872.4,160 872.4,160 900,160" fill="none" stroke="#6F81DB" stroke-width="2"/><rect x="900" y="145" width="99.32000000000001" height="30" rx="6" fill="#fafafa" stroke="none"/><text x="949.66" y="165" text-anchor="middle" font-size="13" fill="#333" font-family="-apple-system,BlinkMacSystemFont,sans-serif">SKU为：C001</text><path d="M1275.8,200 C997.9,200 997.9,200 720,200" fill="none" stroke="#6F81DB" stroke-width="2"/><rect x="720" y="185" width="124.8" height="30" rx="6" fill="#EFF0F0" stroke="none"/><text x="782.4" y="205" text-anchor="middle" font-size="13" fill="#333" font-family="-apple-system,BlinkMacSystemFont,sans-serif">500ml的瓶装可乐</text><path d="M844.8,200 C872.4,200 872.4,200 900,200" fill="none" stroke="#6F81DB" stroke-width="2"/><rect x="900" y="185" width="99.32000000000001" height="30" rx="6" fill="#EFF0F0" stroke="none"/><text x="949.66" y="205" text-anchor="middle" font-size="13" fill="#333" font-family="-apple-system,BlinkMacSystemFont,sans-serif">SKU为：C002</text><path d="M1275.8,200 C997.9,200 997.9,240 720,240" fill="none" stroke="#6F81DB" stroke-width="2"/><rect x="720" y="225" width="189.8" height="30" rx="6" fill="#EFF0F0" stroke="none"/><text x="814.9" y="245" text-anchor="middle" font-size="13" fill="#333" font-family="-apple-system,BlinkMacSystemFont,sans-serif">500ml的瓶装可乐（无糖版）</text><path d="M909.8,240 C904.9,240 904.9,240 900,240" fill="none" stroke="#6F81DB" stroke-width="2"/><rect x="900" y="225" width="99.32000000000001" height="30" rx="6" fill="#EFF0F0" stroke="none"/><text x="949.66" y="245" text-anchor="middle" font-size="13" fill="#333" font-family="-apple-system,BlinkMacSystemFont,sans-serif">SKU为：C003</text><path d="M362,340 C361,340 361,340 360,340" fill="none" stroke="#6F81DB" stroke-width="2"/><rect x="360" y="325" width="130" height="30" rx="6" fill="#fafafa" stroke="none"/><text x="425" y="345" text-anchor="middle" font-size="13" fill="#333" font-family="-apple-system,BlinkMacSystemFont,sans-serif">什么是商品条码？</text><path d="M490,340 C515,340 515,280 540,280" fill="none" stroke="#6F81DB" stroke-width="2"/><rect x="540" y="265" width="788.3199999999999" height="30" rx="6" fill="#fafafa" stroke="none"/><text x="934.16" y="285" text-anchor="middle" font-size="13" fill="#333" font-family="-apple-system,BlinkMacSystemFont,sans-serif">条形码或称条码（英语：barcode），是将宽度不等的多个黑条和空白，按照一定的编码规则排列，用以表达一组信息的图形标识符。</text><path d="M490,340 C515,340 515,320 540,320" fill="none" stroke="#6F81DB" stroke-width="2"/><rect x="540" y="305" width="80" height="30" rx="6" fill="#fafafa" stroke="none"/><text x="580" y="325" text-anchor="middle" font-size="13" fill="#333" font-family="-apple-system,BlinkMacSystemFont,sans-serif"></text><path d="M490,340 C515,340 515,360 540,360" fill="none" stroke="#6F81DB" stroke-width="2"/><rect x="540" y="345" width="1417.52" height="30" rx="6" fill="#fafafa" stroke="none"/><text x="1248.76" y="365" text-anchor="middle" font-size="13" fill="#333" font-family="-apple-system,BlinkMacSystemFont,sans-serif">在创建商品基础信息的时候，需要录入产品的条码，意思就是这个值未来会用打印成条码使用，所以这个条码也需要限制录入的字符类型，一般也是“只能维护字母、数字和部分特殊字符”，因为其他符号可能也会面临无法转化为成条码的问题。</text><path d="M490,340 C515,340 515,400 540,400" fill="none" stroke="#6F81DB" stroke-width="2"/><rect x="540" y="385" width="156" height="30" rx="6" fill="#fafafa" stroke="none"/><text x="618" y="405" text-anchor="middle" font-size="13" fill="#333" font-family="-apple-system,BlinkMacSystemFont,sans-serif">商品编码不等于条形码</text><path d="M362,340 C361,340 361,480 360,480" fill="none" stroke="#6F81DB" stroke-width="2"/><rect x="360" y="465" width="130" height="30" rx="6" fill="#fafafa" stroke="none"/><text x="425" y="485" text-anchor="middle" font-size="13" fill="#333" font-family="-apple-system,BlinkMacSystemFont,sans-serif">什么是一品多码？</text><path d="M490,480 C515,480 515,440 540,440" fill="none" stroke="#6F81DB" stroke-width="2"/><rect x="540" y="425" width="358.28000000000003" height="30" rx="6" fill="#fafafa" stroke="none"/><text x="719.14" y="445" text-anchor="middle" font-size="13" fill="#333" font-family="-apple-system,BlinkMacSystemFont,sans-serif">一个商品（SKU）会有多个条形码，这种就称之为一品多码</text><path d="M490,480 C515,480 515,480 540,480" fill="none" stroke="#6F81DB" stroke-width="2"/><rect x="540" y="465" width="80" height="30" rx="6" fill="#fafafa" stroke="none"/><text x="580" y="485" text-anchor="middle" font-size="13" fill="#333" font-family="-apple-system,BlinkMacSystemFont,sans-serif"></text><path d="M490,480 C515,480 515,520 540,520" fill="none" stroke="#6F81DB" stroke-width="2"/><rect x="540" y="505" width="2599.09" height="30" rx="6" fill="#fafafa" stroke="none"/><text x="1839.545" y="525" text-anchor="middle" font-size="13" fill="#333" font-family="-apple-system,BlinkMacSystemFont,sans-serif">1. 零售商自行编码：零售商为了管理库存和销售，可能会为供应商提供的产品分配自己的条形码。2. 包装变化：产品的包装或尺寸变化可能导致需要新的条码，例如说新老包装不太一样，条码变了，但是产品本身没有变化，还是那个SKU。3. 适应不同地区销售：不同国家和地区可能有不同的编码标准，如GTIN（全球贸易项目编号）和UPC（通用产品代码），同一商品在不同国家可能有不同的条码，但是在供应链系统中它们的SKU可能都是同一个。</text><path d="M108,0 C198,0 198,800 288,800" fill="none" stroke="#6EC4C4" stroke-width="2"/><rect x="180" y="785" width="104" height="30" rx="6" fill="#fafafa" stroke="none"/><text x="232" y="805" text-anchor="middle" font-size="13" fill="#333" font-family="-apple-system,BlinkMacSystemFont,sans-serif">商品的多单位</text><path d="M284,800 C322,800 322,700 360,700" fill="none" stroke="#6EC4C4" stroke-width="2"/><rect x="360" y="685" width="156" height="30" rx="6" fill="#fafafa" stroke="none"/><text x="438" y="705" text-anchor="middle" font-size="13" fill="#333" font-family="-apple-system,BlinkMacSystemFont,sans-serif">什么是商品的多单位？</text><path d="M516,700 C528,700 528,560 540,560" fill="none" stroke="#6EC4C4" stroke-width="2"/><rect x="540" y="545" width="429" height="30" rx="6" fill="#fafafa" stroke="none"/><text x="754.5" y="565" text-anchor="middle" font-size="13" fill="#333" font-family="-apple-system,BlinkMacSystemFont,sans-serif">对同一商品在不同销售单位或包装大小下进行库存、定价和销售的管理</text><path d="M516,700 C528,700 528,660 540,660" fill="none" stroke="#6EC4C4" stroke-width="2"/><rect x="540" y="645" width="559" height="30" rx="6" fill="#fafafa" stroke="none"/><text x="819.5" y="665" text-anchor="middle" font-size="13" fill="#333" font-family="-apple-system,BlinkMacSystemFont,sans-serif">小卖部可以卖一箱酒，也可以卖一瓶酒，在库存管理的时候，可以按箱管理，也可以按瓶管理</text><path d="M1099,660 C909.5,660 909.5,620 720,620" fill="none" stroke="#6EC4C4" stroke-width="2"/><rect x="720" y="605" width="80" height="30" rx="6" fill="#fafafa" stroke="none"/><text x="760" y="625" text-anchor="middle" font-size="13" fill="#333" font-family="-apple-system,BlinkMacSystemFont,sans-serif">啤酒</text><path d="M800,620 C850,620 850,600 900,600" fill="none" stroke="#6EC4C4" stroke-width="2"/><rect x="900" y="585" width="80" height="30" rx="6" fill="#fafafa" stroke="none"/><text x="940" y="605" text-anchor="middle" font-size="13" fill="#333" font-family="-apple-system,BlinkMacSystemFont,sans-serif">单位：瓶</text><path d="M800,620 C850,620 850,640 900,640" fill="none" stroke="#6EC4C4" stroke-width="2"/><rect x="900" y="625" width="80" height="30" rx="6" fill="#fafafa" stroke="none"/><text x="940" y="645" text-anchor="middle" font-size="13" fill="#333" font-family="-apple-system,BlinkMacSystemFont,sans-serif">24</text><path d="M1099,660 C909.5,660 909.5,700 720,700" fill="none" stroke="#6EC4C4" stroke-width="2"/><rect x="720" y="685" width="80" height="30" rx="6" fill="#fafafa" stroke="none"/><text x="760" y="705" text-anchor="middle" font-size="13" fill="#333" font-family="-apple-system,BlinkMacSystemFont,sans-serif">啤酒</text><path d="M800,700 C850,700 850,680 900,680" fill="none" stroke="#6EC4C4" stroke-width="2"/><rect x="900" y="665" width="80" height="30" rx="6" fill="#fafafa" stroke="none"/><text x="940" y="685" text-anchor="middle" font-size="13" fill="#333" font-family="-apple-system,BlinkMacSystemFont,sans-serif">单位：箱</text><path d="M800,700 C850,700 850,720 900,720" fill="none" stroke="#6EC4C4" stroke-width="2"/><rect x="900" y="705" width="80" height="30" rx="6" fill="#fafafa" stroke="none"/><text x="940" y="725" text-anchor="middle" font-size="13" fill="#333" font-family="-apple-system,BlinkMacSystemFont,sans-serif">1</text><path d="M516,700 C528,700 528,800 540,800" fill="none" stroke="#6EC4C4" stroke-width="2"/><rect x="540" y="785" width="819" height="30" rx="6" fill="#fafafa" stroke="none"/><text x="949.5" y="805" text-anchor="middle" font-size="13" fill="#333" font-family="-apple-system,BlinkMacSystemFont,sans-serif">商品的多单位管理，也可以称之为辅助单位管理，即有一个主单位，作为基准单位，然后会有其他的辅单位，主单位和辅单位可以进行换算</text><path d="M1359,800 C1039.5,800 1039.5,760 720,760" fill="none" stroke="#6EC4C4" stroke-width="2"/><rect x="720" y="745" width="169" height="30" rx="6" fill="#fafafa" stroke="none"/><text x="804.5" y="765" text-anchor="middle" font-size="13" fill="#333" font-family="-apple-system,BlinkMacSystemFont,sans-serif">主单位，一般是最小单位</text><path d="M889,760 C894.5,760 894.5,760 900,760" fill="none" stroke="#6EC4C4" stroke-width="2"/><rect x="900" y="745" width="80" height="30" rx="6" fill="#fafafa" stroke="none"/><text x="940" y="765" text-anchor="middle" font-size="13" fill="#333" font-family="-apple-system,BlinkMacSystemFont,sans-serif">瓶</text><path d="M1359,800 C1039.5,800 1039.5,820 720,820" fill="none" stroke="#6EC4C4" stroke-width="2"/><rect x="720" y="805" width="325.52" height="30" rx="6" fill="#fafafa" stroke="none"/><text x="882.76" y="825" text-anchor="middle" font-size="13" fill="#333" font-family="-apple-system,BlinkMacSystemFont,sans-serif">辅单位，一般是最小单位的XX倍，而且辅单位有多个</text><path d="M1045.52,820 C972.76,820 972.76,800 900,800" fill="none" stroke="#6EC4C4" stroke-width="2"/><rect x="900" y="785" width="80" height="30" rx="6" fill="#fafafa" stroke="none"/><text x="940" y="805" text-anchor="middle" font-size="13" fill="#333" font-family="-apple-system,BlinkMacSystemFont,sans-serif">打</text><path d="M980,800 C1030,800 1030,800 1080,800" fill="none" stroke="#6EC4C4" stroke-width="2"/><rect x="1080" y="785" width="80" height="30" rx="6" fill="#fafafa" stroke="none"/><text x="1120" y="805" text-anchor="middle" font-size="13" fill="#333" font-family="-apple-system,BlinkMacSystemFont,sans-serif">1打=12瓶</text><path d="M1045.52,820 C972.76,820 972.76,840 900,840" fill="none" stroke="#6EC4C4" stroke-width="2"/><rect x="900" y="825" width="80" height="30" rx="6" fill="#fafafa" stroke="none"/><text x="940" y="845" text-anchor="middle" font-size="13" fill="#333" font-family="-apple-system,BlinkMacSystemFont,sans-serif">箱</text><path d="M980,840 C1030,840 1030,840 1080,840" fill="none" stroke="#6EC4C4" stroke-width="2"/><rect x="1080" y="825" width="80" height="30" rx="6" fill="#EFF0F0" stroke="none"/><text x="1120" y="845" text-anchor="middle" font-size="13" fill="#333" font-family="-apple-system,BlinkMacSystemFont,sans-serif">1箱=24瓶</text><path d="M284,800 C322,800 322,940 360,940" fill="none" stroke="#6EC4C4" stroke-width="2"/><rect x="360" y="925" width="182" height="30" rx="6" fill="#fafafa" stroke="none"/><text x="451" y="945" text-anchor="middle" font-size="13" fill="#333" font-family="-apple-system,BlinkMacSystemFont,sans-serif">商品多单位会有什么影响？</text><path d="M542,940 C541,940 541,880 540,880" fill="none" stroke="#6EC4C4" stroke-width="2"/><rect x="540" y="865" width="462.28000000000003" height="30" rx="6" fill="#fafafa" stroke="none"/><text x="771.14" y="885" text-anchor="middle" font-size="13" fill="#333" font-family="-apple-system,BlinkMacSystemFont,sans-serif">虽然商品的SKU是相同的，但是单位不同，对应的库存、价格等都会发生变化</text><path d="M542,940 C541,940 541,960 540,960" fill="none" stroke="#6EC4C4" stroke-width="2"/><rect x="540" y="945" width="716.56" height="30" rx="6" fill="#fafafa" stroke="none"/><text x="898.28" y="965" text-anchor="middle" font-size="13" fill="#333" font-family="-apple-system,BlinkMacSystemFont,sans-serif">如果商品启用了多单位，那么在库存管理的时候要时刻关注商品的单位是什么，需要指明“SKU+单位”才能定义准确的库存</text><path d="M1256.56,960 C988.28,960 988.28,920 720,920" fill="none" stroke="#6EC4C4" stroke-width="2"/><rect x="720" y="905" width="80" height="30" rx="6" fill="#fafafa" stroke="none"/><text x="760" y="925" text-anchor="middle" font-size="13" fill="#333" font-family="-apple-system,BlinkMacSystemFont,sans-serif">一瓶酒</text><path d="M1256.56,960 C988.28,960 988.28,960 720,960" fill="none" stroke="#6EC4C4" stroke-width="2"/><rect x="720" y="945" width="80" height="30" rx="6" fill="#fafafa" stroke="none"/><text x="760" y="965" text-anchor="middle" font-size="13" fill="#333" font-family="-apple-system,BlinkMacSystemFont,sans-serif">一箱酒</text><path d="M1256.56,960 C988.28,960 988.28,1000 720,1000" fill="none" stroke="#6EC4C4" stroke-width="2"/><rect x="720" y="985" width="260" height="30" rx="6" fill="transparent" stroke="#BFBFBF"/><text x="850" y="1005" text-anchor="middle" font-size="13" fill="#333" font-family="-apple-system,BlinkMacSystemFont,sans-serif">单位不一样，库存不一样，价格也不一样</text><path d="M284,800 C322,800 322,1040 360,1040" fill="none" stroke="#6EC4C4" stroke-width="2"/><rect x="360" y="1025" width="221" height="30" rx="6" fill="#fafafa" stroke="none"/><text x="470.5" y="1045" text-anchor="middle" font-size="13" fill="#333" font-family="-apple-system,BlinkMacSystemFont,sans-serif">商品多单位的操作演示（七色米）</text><path d="M581,1040 C560.5,1040 560.5,1040 540,1040" fill="none" stroke="#6EC4C4" stroke-width="2"/><rect x="540" y="1025" width="104" height="30" rx="6" fill="#fafafa" stroke="none"/><text x="592" y="1045" text-anchor="middle" font-size="13" fill="#333" font-family="-apple-system,BlinkMacSystemFont,sans-serif">请看演示内容</text>
</svg>